M48
;Layer_Color=9474304
;FILE_FORMAT=2:5
INCH,TZ
;TYPE=PLATED
T1F00S00C0.02800
T2F00S00C0.03000
T3F00S00C0.03150
T4F00S00C0.03543
T5F00S00C0.05906
T6F00S00C0.07087
T7F00S00C0.11811
;TYPE=NON_PLATED
T8F00S00C0.11811
T9F00S00C0.12598
%
T01
X127500Y122500
T02
X147500Y55000
Y65000
Y75000
X208661Y102047
Y112047
Y122047
T03
X5000Y5000
Y15000
Y25000
Y35000
Y45000
X65000
Y35000
Y25000
Y15000
Y5000
X85000Y27500
X94842
X117500
X127342
X150000
X159843
X169685
X65000Y55000
Y65000
Y75000
Y85000
Y95000
Y105000
Y115000
X62815Y135000
X72658
X82500
X105157
X115000
X52972
X30000
X20157
X10315
X5000Y115000
Y105000
Y95000
Y85000
Y75000
Y65000
Y55000
T04
X85000Y45000
X90000
X95000
X117500
X122500
X127500
X135000Y102500
X145000
X155000
T05
X182500Y65000
Y153976
T06
X170846Y45000
X192500
T07
X182500Y110000
T08
X221240Y45000
T09
X220472Y11811
Y149606
X27559Y70866
M30
