G04 Layer_Physical_Order=2*
G04 Layer_Color=16711680*
%FSLAX25Y25*%
%MOIN*%
G70*
G01*
G75*
%ADD10C,0.03937*%
%ADD11C,0.01969*%
%ADD12C,0.11811*%
%ADD13O,0.11811X0.15748*%
%ADD14R,0.11811X0.15748*%
%ADD15C,0.06000*%
%ADD16C,0.07874*%
%ADD17O,0.09843X0.07874*%
%ADD18C,0.20945*%
%ADD19O,0.06000X0.08000*%
%ADD20O,0.03937X0.07874*%
%ADD21O,0.03937X0.07874*%
%ADD22C,0.05000*%
%ADD23R,0.05906X0.05906*%
%ADD24O,0.02362X0.09055*%
%ADD25R,0.05906X0.05906*%
%ADD26C,0.07874*%
G36*
X216594Y160417D02*
X215248Y159860D01*
X213708Y158916D01*
X212335Y157744D01*
X211162Y156370D01*
X210219Y154831D01*
X209528Y153162D01*
X209106Y151407D01*
X208964Y149606D01*
X209106Y147806D01*
X209528Y146050D01*
X210219Y144382D01*
X211162Y142842D01*
X212335Y141469D01*
X213708Y140296D01*
X215248Y139353D01*
X216916Y138662D01*
X218672Y138240D01*
X220472Y138098D01*
X222273Y138240D01*
X224029Y138662D01*
X225697Y139353D01*
X227237Y140296D01*
X228610Y141469D01*
X229783Y142842D01*
X230726Y144382D01*
X231283Y145728D01*
X232283Y145529D01*
Y15889D01*
X231283Y15690D01*
X230726Y17036D01*
X229783Y18575D01*
X228610Y19948D01*
X227237Y21121D01*
X225697Y22065D01*
X224029Y22756D01*
X222273Y23177D01*
X220472Y23319D01*
X218672Y23177D01*
X216916Y22756D01*
X215248Y22065D01*
X213708Y21121D01*
X212335Y19948D01*
X211162Y18575D01*
X210219Y17036D01*
X209528Y15367D01*
X209106Y13611D01*
X208964Y11811D01*
X209106Y10011D01*
X209528Y8255D01*
X210219Y6587D01*
X211162Y5047D01*
X212335Y3674D01*
X213708Y2501D01*
X215248Y1557D01*
X216594Y1000D01*
X216395Y0D01*
X65328D01*
X65262Y1000D01*
X66044Y1103D01*
X67017Y1506D01*
X67853Y2147D01*
X68494Y2983D01*
X68897Y3956D01*
X68969Y4500D01*
X65000D01*
X61031D01*
X61103Y3956D01*
X61506Y2983D01*
X62147Y2147D01*
X62983Y1506D01*
X63956Y1103D01*
X64738Y1000D01*
X64672Y0D01*
X5328D01*
X5262Y1000D01*
X6044Y1103D01*
X7017Y1506D01*
X7853Y2147D01*
X8494Y2983D01*
X8897Y3956D01*
X9035Y5000D01*
X8897Y6044D01*
X8494Y7017D01*
X7853Y7853D01*
X7017Y8494D01*
X6044Y8897D01*
X5000Y9035D01*
X3956Y8897D01*
X2983Y8494D01*
X2147Y7853D01*
X1506Y7017D01*
X1103Y6044D01*
X1000Y5262D01*
X0Y5328D01*
Y14672D01*
X1000Y14738D01*
X1103Y13956D01*
X1506Y12983D01*
X2147Y12147D01*
X2983Y11506D01*
X3956Y11103D01*
X5000Y10966D01*
X6044Y11103D01*
X7017Y11506D01*
X7853Y12147D01*
X8494Y12983D01*
X8897Y13956D01*
X9035Y15000D01*
X8897Y16044D01*
X8494Y17017D01*
X7853Y17853D01*
X7017Y18494D01*
X6044Y18897D01*
X5000Y19035D01*
X3956Y18897D01*
X2983Y18494D01*
X2147Y17853D01*
X1506Y17017D01*
X1103Y16044D01*
X1000Y15262D01*
X0Y15328D01*
Y24672D01*
X1000Y24738D01*
X1103Y23956D01*
X1506Y22983D01*
X2147Y22147D01*
X2983Y21506D01*
X3956Y21103D01*
X5000Y20966D01*
X6044Y21103D01*
X7017Y21506D01*
X7853Y22147D01*
X8494Y22983D01*
X8897Y23956D01*
X9035Y25000D01*
X8897Y26044D01*
X8494Y27017D01*
X7853Y27853D01*
X7017Y28494D01*
X6044Y28897D01*
X5000Y29035D01*
X3956Y28897D01*
X2983Y28494D01*
X2147Y27853D01*
X1506Y27017D01*
X1103Y26044D01*
X1000Y25262D01*
X0Y25328D01*
Y34672D01*
X1000Y34738D01*
X1103Y33956D01*
X1506Y32983D01*
X2147Y32147D01*
X2983Y31506D01*
X3956Y31103D01*
X5000Y30966D01*
X6044Y31103D01*
X7017Y31506D01*
X7853Y32147D01*
X8494Y32983D01*
X8897Y33956D01*
X9035Y35000D01*
X8897Y36044D01*
X8494Y37017D01*
X7853Y37853D01*
X7017Y38494D01*
X6044Y38897D01*
X5000Y39035D01*
X3956Y38897D01*
X2983Y38494D01*
X2147Y37853D01*
X1506Y37017D01*
X1103Y36044D01*
X1000Y35262D01*
X0Y35328D01*
Y44672D01*
X1000Y44738D01*
X1103Y43956D01*
X1506Y42983D01*
X2147Y42147D01*
X2983Y41506D01*
X3956Y41103D01*
X5000Y40966D01*
X6044Y41103D01*
X7017Y41506D01*
X7853Y42147D01*
X8494Y42983D01*
X8897Y43956D01*
X9035Y45000D01*
X8897Y46044D01*
X8494Y47017D01*
X7853Y47853D01*
X7017Y48494D01*
X6044Y48897D01*
X5000Y49035D01*
X3956Y48897D01*
X2983Y48494D01*
X2147Y47853D01*
X1506Y47017D01*
X1103Y46044D01*
X1000Y45262D01*
X0Y45328D01*
Y54672D01*
X1000Y54738D01*
X1103Y53956D01*
X1506Y52983D01*
X2147Y52147D01*
X2983Y51506D01*
X3956Y51103D01*
X5000Y50965D01*
X6044Y51103D01*
X7017Y51506D01*
X7853Y52147D01*
X8494Y52983D01*
X8897Y53956D01*
X9035Y55000D01*
X8897Y56044D01*
X8494Y57017D01*
X7853Y57853D01*
X7017Y58494D01*
X6044Y58897D01*
X5000Y59035D01*
X3956Y58897D01*
X2983Y58494D01*
X2147Y57853D01*
X1506Y57017D01*
X1103Y56044D01*
X1000Y55262D01*
X0Y55328D01*
Y64672D01*
X1000Y64738D01*
X1103Y63956D01*
X1506Y62983D01*
X2147Y62147D01*
X2983Y61506D01*
X3956Y61103D01*
X5000Y60966D01*
X6044Y61103D01*
X7017Y61506D01*
X7853Y62147D01*
X8494Y62983D01*
X8897Y63956D01*
X9035Y65000D01*
X8897Y66044D01*
X8494Y67017D01*
X7853Y67853D01*
X7017Y68494D01*
X6044Y68897D01*
X5000Y69034D01*
X3956Y68897D01*
X2983Y68494D01*
X2147Y67853D01*
X1506Y67017D01*
X1103Y66044D01*
X1000Y65262D01*
X0Y65328D01*
Y74672D01*
X1000Y74738D01*
X1103Y73956D01*
X1506Y72983D01*
X2147Y72147D01*
X2983Y71506D01*
X3956Y71103D01*
X5000Y70965D01*
X6044Y71103D01*
X7017Y71506D01*
X7853Y72147D01*
X8494Y72983D01*
X8897Y73956D01*
X9035Y75000D01*
X8898Y76037D01*
X15838Y82977D01*
X24576D01*
X24695Y81977D01*
X24003Y81811D01*
X22335Y81120D01*
X20795Y80176D01*
X19422Y79004D01*
X18249Y77630D01*
X17305Y76091D01*
X16614Y74422D01*
X16193Y72666D01*
X16051Y70866D01*
X16193Y69066D01*
X16614Y67310D01*
X17305Y65642D01*
X18249Y64102D01*
X19422Y62729D01*
X20795Y61556D01*
X22335Y60612D01*
X24003Y59921D01*
X25759Y59500D01*
X27559Y59358D01*
X29359Y59500D01*
X31115Y59921D01*
X32784Y60612D01*
X34323Y61556D01*
X35696Y62729D01*
X36869Y64102D01*
X37813Y65642D01*
X38504Y67310D01*
X38925Y69066D01*
X39067Y70866D01*
X38925Y72666D01*
X38504Y74422D01*
X37813Y76091D01*
X36869Y77630D01*
X35696Y79004D01*
X34323Y80176D01*
X32784Y81120D01*
X31115Y81811D01*
X30424Y81977D01*
X30542Y82977D01*
X37756D01*
X38530Y83131D01*
X39186Y83569D01*
X46431Y90813D01*
X46869Y91470D01*
X47023Y92244D01*
Y119162D01*
X48338Y120477D01*
X70000D01*
X70774Y120631D01*
X71431Y121069D01*
X73931Y123569D01*
X74369Y124226D01*
X74523Y125000D01*
Y130443D01*
X74675Y130506D01*
X75510Y131147D01*
X76152Y131983D01*
X76555Y132956D01*
X76692Y134000D01*
Y136000D01*
X76555Y137044D01*
X76152Y138017D01*
X75510Y138853D01*
X74675Y139494D01*
X73702Y139897D01*
X72658Y140034D01*
X71613Y139897D01*
X70640Y139494D01*
X69805Y138853D01*
X69164Y138017D01*
X68760Y137044D01*
X68623Y136000D01*
Y134000D01*
X68760Y132956D01*
X69164Y131983D01*
X69805Y131147D01*
X70477Y130631D01*
Y125838D01*
X69162Y124523D01*
X60331D01*
X60233Y125523D01*
X60774Y125631D01*
X61431Y126069D01*
X63931Y128569D01*
X64369Y129226D01*
X64523Y130000D01*
Y130378D01*
X64832Y130506D01*
X65668Y131147D01*
X66309Y131983D01*
X66712Y132956D01*
X66849Y134000D01*
Y136000D01*
X66712Y137044D01*
X66309Y138017D01*
X65668Y138853D01*
X64832Y139494D01*
X63859Y139897D01*
X62815Y140034D01*
X61771Y139897D01*
X60798Y139494D01*
X59962Y138853D01*
X59321Y138017D01*
X58918Y137044D01*
X58780Y136000D01*
Y134000D01*
X58918Y132956D01*
X59321Y131983D01*
X59962Y131147D01*
X60013Y130374D01*
X59162Y129523D01*
X55230D01*
X55003Y130451D01*
X55012Y130523D01*
X55825Y131147D01*
X56466Y131983D01*
X56870Y132956D01*
X57007Y134000D01*
Y134500D01*
X52972D01*
X48938D01*
Y134000D01*
X49075Y132956D01*
X49478Y131983D01*
X50120Y131147D01*
X50933Y130523D01*
X50942Y130451D01*
X50715Y129523D01*
X45000D01*
X44226Y129369D01*
X43569Y128931D01*
X38569Y123931D01*
X38131Y123274D01*
X38023Y122732D01*
X37023Y122831D01*
Y124162D01*
X43931Y131069D01*
X44369Y131726D01*
X44523Y132500D01*
Y141662D01*
X45838Y142977D01*
X111662D01*
X112977Y141662D01*
Y139489D01*
X112147Y138853D01*
X111506Y138017D01*
X111103Y137044D01*
X110966Y136000D01*
Y134000D01*
X111103Y132956D01*
X111506Y131983D01*
X112147Y131147D01*
X112983Y130506D01*
X113956Y130103D01*
X115000Y129965D01*
X116044Y130103D01*
X117017Y130506D01*
X117853Y131147D01*
X118494Y131983D01*
X118897Y132956D01*
X119035Y134000D01*
Y136000D01*
X118897Y137044D01*
X118494Y138017D01*
X117853Y138853D01*
X117023Y139489D01*
Y140477D01*
X121047D01*
Y137937D01*
X128953D01*
Y145843D01*
X121047D01*
Y144523D01*
X115838D01*
X113931Y146431D01*
X113274Y146869D01*
X112500Y147023D01*
X45000D01*
X44226Y146869D01*
X43569Y146431D01*
X41069Y143931D01*
X40631Y143274D01*
X40477Y142500D01*
Y133338D01*
X33569Y126431D01*
X33131Y125774D01*
X32977Y125000D01*
Y98338D01*
X31662Y97023D01*
X8489D01*
X7853Y97853D01*
X7017Y98494D01*
X6044Y98897D01*
X5000Y99035D01*
X3956Y98897D01*
X2983Y98494D01*
X2147Y97853D01*
X1506Y97017D01*
X1103Y96044D01*
X1000Y95262D01*
X0Y95328D01*
Y104672D01*
X1000Y104738D01*
X1103Y103956D01*
X1506Y102983D01*
X2147Y102147D01*
X2983Y101506D01*
X3956Y101103D01*
X5000Y100965D01*
X6044Y101103D01*
X7017Y101506D01*
X7853Y102147D01*
X8489Y102977D01*
X17500D01*
X18274Y103131D01*
X18931Y103569D01*
X21431Y106069D01*
X21869Y106726D01*
X22023Y107500D01*
Y130443D01*
X22175Y130506D01*
X23010Y131147D01*
X23652Y131983D01*
X24055Y132956D01*
X24192Y134000D01*
Y136000D01*
X24055Y137044D01*
X23652Y138017D01*
X23010Y138853D01*
X22175Y139494D01*
X21202Y139897D01*
X20157Y140034D01*
X19113Y139897D01*
X18140Y139494D01*
X17305Y138853D01*
X16664Y138017D01*
X16260Y137044D01*
X16123Y136000D01*
Y134000D01*
X16260Y132956D01*
X16664Y131983D01*
X17305Y131147D01*
X17977Y130631D01*
Y108338D01*
X16662Y107023D01*
X8489D01*
X7853Y107853D01*
X7017Y108494D01*
X6044Y108897D01*
X5000Y109035D01*
X3956Y108897D01*
X2983Y108494D01*
X2147Y107853D01*
X1506Y107017D01*
X1103Y106044D01*
X1000Y105262D01*
X0Y105328D01*
Y114672D01*
X1000Y114738D01*
X1103Y113956D01*
X1506Y112983D01*
X2147Y112147D01*
X2983Y111506D01*
X3956Y111103D01*
X5000Y110966D01*
X6044Y111103D01*
X7017Y111506D01*
X7853Y112147D01*
X8494Y112983D01*
X8897Y113956D01*
X9035Y115000D01*
X8897Y116044D01*
X8494Y117017D01*
X7853Y117853D01*
X7017Y118494D01*
X6044Y118897D01*
X5000Y119035D01*
X3956Y118897D01*
X2983Y118494D01*
X2147Y117853D01*
X1506Y117017D01*
X1103Y116044D01*
X1000Y115262D01*
X0Y115328D01*
Y161417D01*
X216395D01*
X216594Y160417D01*
D02*
G37*
%LPC*%
G36*
X105657Y139969D02*
Y135500D01*
X109192D01*
Y136000D01*
X109055Y137044D01*
X108651Y138017D01*
X108010Y138853D01*
X107175Y139494D01*
X106202Y139897D01*
X105657Y139969D01*
D02*
G37*
G36*
X53472D02*
Y135500D01*
X57007D01*
Y136000D01*
X56870Y137044D01*
X56466Y138017D01*
X55825Y138853D01*
X54990Y139494D01*
X54017Y139897D01*
X53472Y139969D01*
D02*
G37*
G36*
X10815D02*
Y135500D01*
X14349D01*
Y136000D01*
X14212Y137044D01*
X13809Y138017D01*
X13168Y138853D01*
X12332Y139494D01*
X11359Y139897D01*
X10815Y139969D01*
D02*
G37*
G36*
X104657D02*
X104113Y139897D01*
X103140Y139494D01*
X102305Y138853D01*
X101663Y138017D01*
X101260Y137044D01*
X101123Y136000D01*
Y135500D01*
X104657D01*
Y139969D01*
D02*
G37*
G36*
X52472D02*
X51928Y139897D01*
X50955Y139494D01*
X50120Y138853D01*
X49478Y138017D01*
X49075Y137044D01*
X48938Y136000D01*
Y135500D01*
X52472D01*
Y139969D01*
D02*
G37*
G36*
X9815D02*
X9271Y139897D01*
X8298Y139494D01*
X7462Y138853D01*
X6821Y138017D01*
X6418Y137044D01*
X6280Y136000D01*
Y135500D01*
X9815D01*
Y139969D01*
D02*
G37*
G36*
X109192Y134500D02*
X105657D01*
Y130031D01*
X106202Y130103D01*
X107175Y130506D01*
X108010Y131147D01*
X108651Y131983D01*
X109055Y132956D01*
X109192Y134000D01*
Y134500D01*
D02*
G37*
G36*
X14349D02*
X10815D01*
Y130031D01*
X11359Y130103D01*
X12332Y130506D01*
X13168Y131147D01*
X13809Y131983D01*
X14212Y132956D01*
X14349Y134000D01*
Y134500D01*
D02*
G37*
G36*
X104657D02*
X101123D01*
Y134000D01*
X101260Y132956D01*
X101663Y131983D01*
X102305Y131147D01*
X103140Y130506D01*
X104113Y130103D01*
X104657Y130031D01*
Y134500D01*
D02*
G37*
G36*
X9815D02*
X6280D01*
Y134000D01*
X6418Y132956D01*
X6821Y131983D01*
X7462Y131147D01*
X8298Y130506D01*
X9271Y130103D01*
X9815Y130031D01*
Y134500D01*
D02*
G37*
G36*
X82500Y140034D02*
X81456Y139897D01*
X80483Y139494D01*
X79647Y138853D01*
X79006Y138017D01*
X78603Y137044D01*
X78465Y136000D01*
Y134000D01*
X78603Y132956D01*
X79006Y131983D01*
X79647Y131147D01*
X80483Y130506D01*
X81456Y130103D01*
X82500Y129965D01*
X83544Y130103D01*
X84517Y130506D01*
X85353Y131147D01*
X85994Y131983D01*
X86397Y132956D01*
X86535Y134000D01*
Y136000D01*
X86397Y137044D01*
X85994Y138017D01*
X85353Y138853D01*
X84517Y139494D01*
X83544Y139897D01*
X82500Y140034D01*
D02*
G37*
G36*
X30000D02*
X28956Y139897D01*
X27983Y139494D01*
X27147Y138853D01*
X26506Y138017D01*
X26103Y137044D01*
X25965Y136000D01*
Y134000D01*
X26103Y132956D01*
X26506Y131983D01*
X27147Y131147D01*
X27983Y130506D01*
X28956Y130103D01*
X30000Y129965D01*
X31044Y130103D01*
X32017Y130506D01*
X32853Y131147D01*
X33494Y131983D01*
X33897Y132956D01*
X34034Y134000D01*
Y136000D01*
X33897Y137044D01*
X33494Y138017D01*
X32853Y138853D01*
X32017Y139494D01*
X31044Y139897D01*
X30000Y140034D01*
D02*
G37*
G36*
X128953Y132063D02*
X121047D01*
Y124158D01*
X123453D01*
X124056Y123158D01*
X123970Y122500D01*
X124090Y121586D01*
X124443Y120735D01*
X125004Y120004D01*
X125477Y119641D01*
Y117831D01*
X124477Y117733D01*
X124369Y118274D01*
X123931Y118931D01*
X121431Y121431D01*
X120774Y121869D01*
X120000Y122023D01*
X77500D01*
X76726Y121869D01*
X76069Y121431D01*
X73569Y118931D01*
X73131Y118274D01*
X72977Y117500D01*
Y108338D01*
X71662Y107023D01*
X68489D01*
X67853Y107853D01*
X67017Y108494D01*
X66044Y108897D01*
X65000Y109035D01*
X63956Y108897D01*
X62983Y108494D01*
X62147Y107853D01*
X61506Y107017D01*
X61103Y106044D01*
X60966Y105000D01*
X61103Y103956D01*
X61506Y102983D01*
X62147Y102147D01*
X62983Y101506D01*
X63956Y101103D01*
X65000Y100965D01*
X66044Y101103D01*
X67017Y101506D01*
X67853Y102147D01*
X68489Y102977D01*
X72500D01*
X73274Y103131D01*
X73931Y103569D01*
X76431Y106069D01*
X76869Y106726D01*
X77023Y107500D01*
Y116662D01*
X78338Y117977D01*
X119162D01*
X120477Y116662D01*
Y115480D01*
X120290Y115299D01*
X119124Y115256D01*
X119072Y115332D01*
X118351Y115814D01*
X117500Y115984D01*
X116649Y115814D01*
X115928Y115332D01*
X115545Y114759D01*
X115000Y114678D01*
X114455Y114759D01*
X114073Y115332D01*
X113351Y115814D01*
X112500Y115984D01*
X111649Y115814D01*
X110927Y115332D01*
X110545Y114759D01*
X110000Y114678D01*
X109455Y114759D01*
X109072Y115332D01*
X108351Y115814D01*
X107500Y115984D01*
X106649Y115814D01*
X105928Y115332D01*
X105545Y114759D01*
X105000Y114678D01*
X104455Y114759D01*
X104072Y115332D01*
X103351Y115814D01*
X102500Y115984D01*
X101649Y115814D01*
X100927Y115332D01*
X100545Y114759D01*
X100000Y114678D01*
X99455Y114759D01*
X99072Y115332D01*
X98351Y115814D01*
X97500Y115984D01*
X96649Y115814D01*
X95928Y115332D01*
X95545Y114759D01*
X95000Y114678D01*
X94455Y114759D01*
X94073Y115332D01*
X93351Y115814D01*
X92500Y115984D01*
X91649Y115814D01*
X90927Y115332D01*
X90545Y114759D01*
X90000Y114678D01*
X89455Y114759D01*
X89073Y115332D01*
X88351Y115814D01*
X87500Y115984D01*
X86649Y115814D01*
X85927Y115332D01*
X85545Y114759D01*
X85000Y114678D01*
X84455Y114759D01*
X84073Y115332D01*
X83351Y115814D01*
X82500Y115984D01*
X81649Y115814D01*
X80927Y115332D01*
X80445Y114611D01*
X80276Y113760D01*
Y107067D01*
X80445Y106216D01*
X80927Y105494D01*
X81649Y105012D01*
X82500Y104843D01*
X83351Y105012D01*
X84073Y105494D01*
X84455Y106068D01*
X85000Y106149D01*
X85545Y106068D01*
X85927Y105494D01*
X86649Y105012D01*
X87500Y104843D01*
X88351Y105012D01*
X89073Y105494D01*
X89455Y106068D01*
X90000Y106149D01*
X90545Y106068D01*
X90927Y105494D01*
X91649Y105012D01*
X92500Y104843D01*
X93351Y105012D01*
X94073Y105494D01*
X94455Y106068D01*
X95000Y106149D01*
X95545Y106068D01*
X95928Y105494D01*
X96649Y105012D01*
X97500Y104843D01*
X98351Y105012D01*
X99072Y105494D01*
X99455Y106068D01*
X100000Y106149D01*
X100545Y106068D01*
X100927Y105494D01*
X101649Y105012D01*
X102500Y104843D01*
X103351Y105012D01*
X104072Y105494D01*
X104455Y106068D01*
X105000Y106149D01*
X105545Y106068D01*
X105928Y105494D01*
X106649Y105012D01*
X107500Y104843D01*
X108351Y105012D01*
X109072Y105494D01*
X109124Y105571D01*
X110290Y105528D01*
X110477Y105347D01*
Y98338D01*
X109162Y97023D01*
X68489D01*
X67853Y97853D01*
X67017Y98494D01*
X66044Y98897D01*
X65000Y99035D01*
X63956Y98897D01*
X62983Y98494D01*
X62147Y97853D01*
X61506Y97017D01*
X61103Y96044D01*
X60966Y95000D01*
X61103Y93956D01*
X61506Y92983D01*
X62147Y92147D01*
X62983Y91506D01*
X63956Y91103D01*
X65000Y90965D01*
X66044Y91103D01*
X67017Y91506D01*
X67853Y92147D01*
X68489Y92977D01*
X110000D01*
X110774Y93131D01*
X111431Y93569D01*
X113931Y96069D01*
X114369Y96726D01*
X114477Y97268D01*
X115477Y97169D01*
Y88338D01*
X114162Y87023D01*
X68489D01*
X67853Y87853D01*
X67017Y88494D01*
X66044Y88897D01*
X65000Y89034D01*
X63956Y88897D01*
X62983Y88494D01*
X62147Y87853D01*
X61506Y87017D01*
X61103Y86044D01*
X60966Y85000D01*
X61103Y83956D01*
X61506Y82983D01*
X62147Y82147D01*
X62983Y81506D01*
X63956Y81103D01*
X65000Y80966D01*
X66044Y81103D01*
X67017Y81506D01*
X67853Y82147D01*
X68489Y82977D01*
X115000D01*
X115774Y83131D01*
X116431Y83569D01*
X118931Y86069D01*
X119369Y86726D01*
X119523Y87500D01*
Y89669D01*
X120523Y89767D01*
X120631Y89226D01*
X121069Y88569D01*
X125477Y84162D01*
Y79653D01*
X125290Y79472D01*
X124124Y79429D01*
X124073Y79506D01*
X123351Y79988D01*
X122500Y80157D01*
X121649Y79988D01*
X120928Y79506D01*
X120545Y78932D01*
X120000Y78851D01*
X119455Y78932D01*
X119072Y79506D01*
X118351Y79988D01*
X117500Y80157D01*
X116649Y79988D01*
X115928Y79506D01*
X115545Y78932D01*
X115000Y78851D01*
X114455Y78932D01*
X114073Y79506D01*
X113351Y79988D01*
X112500Y80157D01*
X111649Y79988D01*
X110927Y79506D01*
X110545Y78932D01*
X110000Y78851D01*
X109455Y78932D01*
X109072Y79506D01*
X108351Y79988D01*
X107500Y80157D01*
X106649Y79988D01*
X105928Y79506D01*
X105545Y78932D01*
X105000Y78851D01*
X104455Y78932D01*
X104072Y79506D01*
X103351Y79988D01*
X102500Y80157D01*
X101649Y79988D01*
X100927Y79506D01*
X100545Y78932D01*
X100000Y78851D01*
X99455Y78932D01*
X99072Y79506D01*
X98351Y79988D01*
X97500Y80157D01*
X96649Y79988D01*
X95928Y79506D01*
X95545Y78932D01*
X95000Y78851D01*
X94455Y78932D01*
X94073Y79506D01*
X93351Y79988D01*
X92500Y80157D01*
X91649Y79988D01*
X90927Y79506D01*
X90545Y78932D01*
X90000Y78851D01*
X89455Y78932D01*
X89073Y79506D01*
X88351Y79988D01*
X87500Y80157D01*
X86649Y79988D01*
X85927Y79506D01*
X85545Y78932D01*
X85000Y78851D01*
X84455Y78932D01*
X84073Y79506D01*
X83351Y79988D01*
X83000Y80057D01*
Y74587D01*
Y69116D01*
X83351Y69186D01*
X84073Y69668D01*
X84455Y70241D01*
X85000Y70322D01*
X85545Y70241D01*
X85927Y69668D01*
X86649Y69186D01*
X87500Y69016D01*
X88351Y69186D01*
X89073Y69668D01*
X89455Y70241D01*
X90000Y70322D01*
X90545Y70241D01*
X90927Y69668D01*
X91649Y69186D01*
X92500Y69016D01*
X93351Y69186D01*
X94073Y69668D01*
X94455Y70241D01*
X95000Y70322D01*
X95545Y70241D01*
X95928Y69668D01*
X96649Y69186D01*
X97500Y69016D01*
X98351Y69186D01*
X99072Y69668D01*
X99455Y70241D01*
X100000Y70322D01*
X100545Y70241D01*
X100927Y69668D01*
X101649Y69186D01*
X102500Y69016D01*
X103351Y69186D01*
X104072Y69668D01*
X104455Y70241D01*
X105000Y70322D01*
X105545Y70241D01*
X105928Y69668D01*
X106649Y69186D01*
X107500Y69016D01*
X108351Y69186D01*
X109072Y69668D01*
X109455Y70241D01*
X110000Y70322D01*
X110545Y70241D01*
X110927Y69668D01*
X111649Y69186D01*
X112500Y69016D01*
X113351Y69186D01*
X114073Y69668D01*
X114455Y70241D01*
X115000Y70322D01*
X115545Y70241D01*
X115928Y69668D01*
X116649Y69186D01*
X117500Y69016D01*
X118351Y69186D01*
X119072Y69668D01*
X119124Y69744D01*
X120290Y69701D01*
X120477Y69520D01*
Y67500D01*
X120631Y66726D01*
X121069Y66069D01*
X123569Y63569D01*
X124226Y63131D01*
X125000Y62977D01*
X134162D01*
X135477Y61662D01*
Y30000D01*
X135631Y29226D01*
X136069Y28569D01*
X138569Y26069D01*
X139226Y25631D01*
X140000Y25477D01*
X146100D01*
X146103Y25456D01*
X146506Y24483D01*
X147147Y23647D01*
X147983Y23006D01*
X148956Y22603D01*
X150000Y22466D01*
X151044Y22603D01*
X152017Y23006D01*
X152853Y23647D01*
X153494Y24483D01*
X153897Y25456D01*
X154863Y25281D01*
Y19405D01*
X152937Y17480D01*
X132500D01*
X131841Y17393D01*
X130337Y18898D01*
Y23831D01*
X130836Y24483D01*
X131240Y25456D01*
X131377Y26500D01*
Y28500D01*
X131240Y29544D01*
X130836Y30517D01*
X130195Y31353D01*
X129360Y31994D01*
X128387Y32397D01*
X127342Y32535D01*
X126298Y32397D01*
X125325Y31994D01*
X124490Y31353D01*
X123848Y30517D01*
X123445Y29544D01*
X123308Y28500D01*
Y26500D01*
X123445Y25456D01*
X123848Y24483D01*
X124348Y23831D01*
Y17658D01*
X124450Y16883D01*
X124611Y16494D01*
X124197Y15669D01*
X124000Y15494D01*
X101240D01*
X97837Y18898D01*
Y23831D01*
X98336Y24483D01*
X98740Y25456D01*
X98877Y26500D01*
Y28500D01*
X98740Y29544D01*
X98336Y30517D01*
X97695Y31353D01*
X96860Y31994D01*
X95887Y32397D01*
X94842Y32535D01*
X93798Y32397D01*
X92825Y31994D01*
X91990Y31353D01*
X91348Y30517D01*
X90946Y29544D01*
X90808Y28500D01*
Y26500D01*
X90946Y25456D01*
X91348Y24483D01*
X91848Y23831D01*
Y17658D01*
X91950Y16883D01*
X92250Y16160D01*
X92725Y15540D01*
X97883Y10383D01*
X98503Y9907D01*
X99225Y9608D01*
X100000Y9506D01*
X128575D01*
X128979Y8979D01*
X130010Y8187D01*
X131211Y7690D01*
X132500Y7520D01*
X155000D01*
X155000Y7520D01*
X156289Y7690D01*
X157490Y8187D01*
X158521Y8979D01*
X163364Y13821D01*
X163364Y13821D01*
X164155Y14853D01*
X164652Y16054D01*
X164822Y17343D01*
X164822Y17343D01*
Y25281D01*
X165788Y25456D01*
X166191Y24483D01*
X166832Y23647D01*
X167668Y23006D01*
X168641Y22603D01*
X169185Y22531D01*
Y27500D01*
Y32469D01*
X168641Y32397D01*
X167668Y31994D01*
X166832Y31353D01*
X166191Y30517D01*
X165980Y30007D01*
X164980Y30206D01*
Y32500D01*
X164980Y32500D01*
X164810Y33789D01*
X164313Y34990D01*
X164208Y35126D01*
X164701Y36126D01*
X177752D01*
Y53874D01*
X175826D01*
Y58548D01*
X177299Y60020D01*
X183484D01*
X184773Y60190D01*
X185974Y60688D01*
X187005Y61479D01*
X187797Y62510D01*
X188294Y63711D01*
X188464Y65000D01*
X188294Y66289D01*
X187797Y67490D01*
X187005Y68521D01*
X185974Y69313D01*
X184773Y69810D01*
X183484Y69980D01*
X175236D01*
X175236Y69980D01*
X173947Y69810D01*
X172746Y69313D01*
X171715Y68521D01*
X171715Y68521D01*
X167325Y64131D01*
X166534Y63100D01*
X166036Y61899D01*
X165867Y60610D01*
X165867Y60610D01*
Y53874D01*
X163941D01*
Y37016D01*
X162941Y36601D01*
X152480Y47063D01*
Y55000D01*
X152310Y56289D01*
X151813Y57490D01*
X151021Y58521D01*
X149990Y59312D01*
X148789Y59810D01*
X147500Y59980D01*
X146211Y59810D01*
X145010Y59312D01*
X143979Y58521D01*
X143187Y57490D01*
X142690Y56289D01*
X142520Y55000D01*
Y45000D01*
X142520Y45000D01*
X142690Y43711D01*
X143187Y42510D01*
X143979Y41479D01*
X152817Y32641D01*
X152156Y31888D01*
X152017Y31994D01*
X151044Y32397D01*
X150000Y32535D01*
X148956Y32397D01*
X147983Y31994D01*
X147147Y31353D01*
X146506Y30517D01*
X146103Y29544D01*
X146100Y29523D01*
X140838D01*
X139523Y30838D01*
Y62500D01*
X139369Y63274D01*
X138931Y63931D01*
X137861Y65000D01*
X138931Y66069D01*
X139369Y66726D01*
X139523Y67500D01*
Y74158D01*
X141453D01*
Y82063D01*
X133547D01*
Y74158D01*
X135477D01*
Y68338D01*
X134162Y67023D01*
X125838D01*
X124523Y68338D01*
Y69520D01*
X124710Y69701D01*
X125876Y69744D01*
X125927Y69668D01*
X126649Y69186D01*
X127500Y69016D01*
X128351Y69186D01*
X129072Y69668D01*
X129554Y70389D01*
X129724Y71240D01*
Y77933D01*
X129554Y78784D01*
X129523Y78831D01*
Y85000D01*
X129369Y85774D01*
X128931Y86431D01*
X124523Y90838D01*
Y94669D01*
X125523Y94767D01*
X125631Y94226D01*
X126069Y93569D01*
X128569Y91069D01*
X129226Y90631D01*
X130000Y90477D01*
X133547D01*
Y87937D01*
X141453D01*
Y95842D01*
X133547D01*
Y94523D01*
X130838D01*
X129523Y95838D01*
Y106169D01*
X129554Y106216D01*
X129724Y107067D01*
Y113760D01*
X129554Y114611D01*
X129523Y114658D01*
Y119641D01*
X129996Y120004D01*
X130557Y120735D01*
X130910Y121586D01*
X131030Y122500D01*
X130910Y123414D01*
X130557Y124265D01*
X129996Y124996D01*
X129523Y125359D01*
Y125610D01*
X129369Y126384D01*
X128953Y127008D01*
Y132063D01*
D02*
G37*
G36*
X183484Y158956D02*
X181516D01*
X180227Y158786D01*
X179026Y158289D01*
X177995Y157498D01*
X177203Y156466D01*
X176706Y155265D01*
X176536Y153976D01*
X176706Y152688D01*
X177203Y151487D01*
X177520Y151073D01*
Y129563D01*
X166479Y118521D01*
X165688Y117490D01*
X165190Y116289D01*
X165020Y115000D01*
X165020Y115000D01*
Y82063D01*
X162937Y79980D01*
X147500D01*
X146211Y79810D01*
X145010Y79312D01*
X143979Y78521D01*
X143187Y77490D01*
X142690Y76289D01*
X142520Y75000D01*
X142690Y73711D01*
X143187Y72510D01*
X143979Y71479D01*
X145010Y70688D01*
X146211Y70190D01*
X147500Y70020D01*
X147509Y69950D01*
X147553Y69532D01*
X147640Y69520D01*
X147645Y69599D01*
X148382Y70020D01*
X165000D01*
X165000Y70020D01*
X166289Y70190D01*
X167490Y70688D01*
X168521Y71479D01*
X173521Y76479D01*
X173521Y76479D01*
X174312Y77510D01*
X174810Y78711D01*
X174980Y80000D01*
X174980Y80000D01*
Y107558D01*
X175980Y107706D01*
X176089Y107345D01*
X176731Y106145D01*
X177593Y105093D01*
X178645Y104230D01*
X179845Y103589D01*
X181146Y103194D01*
X182500Y103061D01*
X183854Y103194D01*
X185155Y103589D01*
X186355Y104230D01*
X187407Y105093D01*
X188269Y106145D01*
X188911Y107345D01*
X189306Y108646D01*
X189439Y110000D01*
X189306Y111354D01*
X188911Y112655D01*
X188269Y113855D01*
X187407Y114907D01*
X186355Y115770D01*
X185155Y116411D01*
X183854Y116806D01*
X182500Y116939D01*
X181146Y116806D01*
X179845Y116411D01*
X179291Y117249D01*
X182500Y120458D01*
X184432Y118526D01*
X184432Y118526D01*
X185463Y117735D01*
X186664Y117237D01*
X187953Y117068D01*
X187953Y117068D01*
X207779D01*
X208516Y116646D01*
X208521Y116568D01*
X208609Y116579D01*
X208653Y116997D01*
X208661Y117068D01*
X209950Y117237D01*
X211151Y117735D01*
X212182Y118526D01*
X212974Y119557D01*
X213471Y120758D01*
X213641Y122047D01*
X213471Y123336D01*
X212974Y124537D01*
X212182Y125568D01*
X211151Y126360D01*
X209950Y126857D01*
X208661Y127027D01*
X190015D01*
X187480Y129563D01*
Y151073D01*
X187797Y151487D01*
X188294Y152688D01*
X188464Y153976D01*
X188294Y155265D01*
X187797Y156466D01*
X187005Y157498D01*
X185974Y158289D01*
X184773Y158786D01*
X183484Y158956D01*
D02*
G37*
G36*
X209161Y116016D02*
Y112547D01*
X212630D01*
X212559Y113092D01*
X212155Y114065D01*
X211514Y114900D01*
X210679Y115541D01*
X209706Y115944D01*
X209161Y116016D01*
D02*
G37*
G36*
X208161Y116240D02*
X207829Y115972D01*
X207617Y115944D01*
X206644Y115541D01*
X205809Y114900D01*
X205167Y114065D01*
X204764Y113092D01*
X204693Y112547D01*
X208161D01*
Y116240D01*
D02*
G37*
G36*
X65000Y119035D02*
X63956Y118897D01*
X62983Y118494D01*
X62147Y117853D01*
X61506Y117017D01*
X61103Y116044D01*
X60966Y115000D01*
X61103Y113956D01*
X61506Y112983D01*
X62147Y112147D01*
X62983Y111506D01*
X63956Y111103D01*
X65000Y110966D01*
X66044Y111103D01*
X67017Y111506D01*
X67853Y112147D01*
X68494Y112983D01*
X68897Y113956D01*
X69034Y115000D01*
X68897Y116044D01*
X68494Y117017D01*
X67853Y117853D01*
X67017Y118494D01*
X66044Y118897D01*
X65000Y119035D01*
D02*
G37*
G36*
X212630Y111547D02*
X209161D01*
Y108079D01*
X209706Y108150D01*
X210679Y108553D01*
X211514Y109194D01*
X212155Y110030D01*
X212559Y111003D01*
X212630Y111547D01*
D02*
G37*
G36*
X208161D02*
X204693D01*
X204764Y111003D01*
X205167Y110030D01*
X205809Y109194D01*
X206644Y108553D01*
X207617Y108150D01*
X208161Y108079D01*
Y111547D01*
D02*
G37*
G36*
X145500Y106469D02*
Y103000D01*
X148969D01*
X148897Y103544D01*
X148494Y104517D01*
X147853Y105353D01*
X147017Y105994D01*
X146044Y106397D01*
X145500Y106469D01*
D02*
G37*
G36*
X144500D02*
X143956Y106397D01*
X142983Y105994D01*
X142147Y105353D01*
X141506Y104517D01*
X141103Y103544D01*
X141031Y103000D01*
X144500D01*
Y106469D01*
D02*
G37*
G36*
X148969Y102000D02*
X145500D01*
Y98531D01*
X146044Y98603D01*
X147017Y99006D01*
X147853Y99647D01*
X148494Y100483D01*
X148897Y101456D01*
X148969Y102000D01*
D02*
G37*
G36*
X144500D02*
X141031D01*
X141103Y101456D01*
X141506Y100483D01*
X142147Y99647D01*
X142983Y99006D01*
X143956Y98603D01*
X144500Y98531D01*
Y102000D01*
D02*
G37*
G36*
X155000Y106535D02*
X153956Y106397D01*
X152983Y105994D01*
X152147Y105353D01*
X151506Y104517D01*
X151103Y103544D01*
X150965Y102500D01*
X151103Y101456D01*
X151506Y100483D01*
X152147Y99647D01*
X152983Y99006D01*
X153956Y98603D01*
X155000Y98466D01*
X156044Y98603D01*
X157017Y99006D01*
X157853Y99647D01*
X158494Y100483D01*
X158897Y101456D01*
X159035Y102500D01*
X158897Y103544D01*
X158494Y104517D01*
X157853Y105353D01*
X157017Y105994D01*
X156044Y106397D01*
X155000Y106535D01*
D02*
G37*
G36*
X135000D02*
X133956Y106397D01*
X132983Y105994D01*
X132147Y105353D01*
X131506Y104517D01*
X131103Y103544D01*
X130965Y102500D01*
X131103Y101456D01*
X131506Y100483D01*
X132147Y99647D01*
X132983Y99006D01*
X133956Y98603D01*
X135000Y98466D01*
X136044Y98603D01*
X137017Y99006D01*
X137853Y99647D01*
X138494Y100483D01*
X138897Y101456D01*
X139034Y102500D01*
X138897Y103544D01*
X138494Y104517D01*
X137853Y105353D01*
X137017Y105994D01*
X136044Y106397D01*
X135000Y106535D01*
D02*
G37*
G36*
X208661Y106082D02*
X207617Y105944D01*
X206644Y105541D01*
X205809Y104900D01*
X205167Y104065D01*
X204764Y103092D01*
X204627Y102047D01*
X204764Y101003D01*
X205167Y100030D01*
X205809Y99194D01*
X206644Y98553D01*
X207617Y98150D01*
X208661Y98013D01*
X209706Y98150D01*
X210679Y98553D01*
X211514Y99194D01*
X212155Y100030D01*
X212559Y101003D01*
X212696Y102047D01*
X212559Y103092D01*
X212155Y104065D01*
X211514Y104900D01*
X210679Y105541D01*
X209706Y105944D01*
X208661Y106082D01*
D02*
G37*
G36*
X82000Y80057D02*
X81649Y79988D01*
X80927Y79506D01*
X80445Y78784D01*
X80276Y77933D01*
Y75087D01*
X82000D01*
Y80057D01*
D02*
G37*
G36*
X65000Y79035D02*
X63956Y78897D01*
X62983Y78494D01*
X62147Y77853D01*
X61506Y77017D01*
X61103Y76044D01*
X60966Y75000D01*
X61103Y73956D01*
X61506Y72983D01*
X62147Y72147D01*
X62983Y71506D01*
X63956Y71103D01*
X65000Y70965D01*
X66044Y71103D01*
X67017Y71506D01*
X67853Y72147D01*
X68494Y72983D01*
X68897Y73956D01*
X69034Y75000D01*
X68897Y76044D01*
X68494Y77017D01*
X67853Y77853D01*
X67017Y78494D01*
X66044Y78897D01*
X65000Y79035D01*
D02*
G37*
G36*
X82000Y74087D02*
X80276D01*
Y71240D01*
X80445Y70389D01*
X80927Y69668D01*
X81649Y69186D01*
X82000Y69116D01*
Y74087D01*
D02*
G37*
G36*
X148000Y69192D02*
Y65500D01*
X151469D01*
X151397Y66044D01*
X150994Y67017D01*
X150353Y67853D01*
X149517Y68494D01*
X148544Y68897D01*
X148333Y68925D01*
X148000Y69192D01*
D02*
G37*
G36*
X147000Y68969D02*
X146456Y68897D01*
X145483Y68494D01*
X144647Y67853D01*
X144006Y67017D01*
X143603Y66044D01*
X143531Y65500D01*
X147000D01*
Y68969D01*
D02*
G37*
G36*
X151469Y64500D02*
X148000D01*
Y61031D01*
X148544Y61103D01*
X149517Y61506D01*
X150353Y62147D01*
X150994Y62983D01*
X151397Y63956D01*
X151469Y64500D01*
D02*
G37*
G36*
X147000D02*
X143531D01*
X143603Y63956D01*
X144006Y62983D01*
X144647Y62147D01*
X145483Y61506D01*
X146456Y61103D01*
X147000Y61031D01*
Y64500D01*
D02*
G37*
G36*
X65000Y69034D02*
X63956Y68897D01*
X62983Y68494D01*
X62147Y67853D01*
X61506Y67017D01*
X61103Y66044D01*
X60966Y65000D01*
X61103Y63956D01*
X61506Y62983D01*
X62147Y62147D01*
X62983Y61506D01*
X63956Y61103D01*
X65000Y60966D01*
X66044Y61103D01*
X67017Y61506D01*
X67853Y62147D01*
X68489Y62977D01*
X111327D01*
X113587Y60717D01*
Y58953D01*
X111658D01*
Y51047D01*
X119477D01*
X119563Y51047D01*
X120477Y50839D01*
Y49608D01*
X120018Y49329D01*
X119477Y49193D01*
X118997Y49562D01*
X118275Y49861D01*
X117500Y49963D01*
X116725Y49861D01*
X116003Y49562D01*
X115383Y49086D01*
X114907Y48466D01*
X114608Y47743D01*
X114506Y46968D01*
Y43031D01*
Y31169D01*
X114006Y30517D01*
X113603Y29544D01*
X113465Y28500D01*
Y26500D01*
X113603Y25456D01*
X114006Y24483D01*
X114647Y23647D01*
X115483Y23006D01*
X116456Y22603D01*
X117500Y22466D01*
X118544Y22603D01*
X119517Y23006D01*
X120353Y23647D01*
X120994Y24483D01*
X121397Y25456D01*
X121535Y26500D01*
Y28500D01*
X121397Y29544D01*
X120994Y30517D01*
X120494Y31169D01*
Y39641D01*
X121494Y40235D01*
X121725Y40139D01*
X122500Y40037D01*
X123275Y40139D01*
X123997Y40439D01*
X124617Y40914D01*
X125694Y40675D01*
X126003Y40439D01*
X126725Y40139D01*
X127000Y40103D01*
Y45000D01*
Y49897D01*
X126725Y49861D01*
X126003Y49562D01*
X125694Y49325D01*
X125377Y49254D01*
X124523Y49809D01*
Y50839D01*
X125437Y51047D01*
Y51047D01*
X133343D01*
Y58953D01*
X125437D01*
Y57023D01*
X125000D01*
X124226Y56869D01*
X123569Y56431D01*
X121069Y53931D01*
X120631Y53274D01*
X120563Y52933D01*
X119563Y53031D01*
Y58953D01*
X117633D01*
Y61555D01*
X117479Y62329D01*
X117041Y62986D01*
X113596Y66431D01*
X112940Y66869D01*
X112165Y67023D01*
X68489D01*
X67853Y67853D01*
X67017Y68494D01*
X66044Y68897D01*
X65000Y69034D01*
D02*
G37*
G36*
Y59035D02*
X63956Y58897D01*
X62983Y58494D01*
X62147Y57853D01*
X61506Y57017D01*
X61103Y56044D01*
X60966Y55000D01*
X61103Y53956D01*
X61506Y52983D01*
X62147Y52147D01*
X62983Y51506D01*
X63956Y51103D01*
X65000Y50965D01*
X66044Y51103D01*
X67017Y51506D01*
X67853Y52147D01*
X68489Y52977D01*
X79158D01*
Y51047D01*
X86977D01*
X87063Y51047D01*
X87977Y50839D01*
Y49608D01*
X87518Y49329D01*
X86977Y49193D01*
X86497Y49562D01*
X85775Y49861D01*
X85000Y49963D01*
X84225Y49861D01*
X83503Y49562D01*
X82883Y49086D01*
X82407Y48466D01*
X82108Y47743D01*
X82006Y46968D01*
Y43031D01*
Y31169D01*
X81506Y30517D01*
X81103Y29544D01*
X80966Y28500D01*
Y26500D01*
X81103Y25456D01*
X81506Y24483D01*
X82147Y23647D01*
X82983Y23006D01*
X83956Y22603D01*
X85000Y22466D01*
X86044Y22603D01*
X87017Y23006D01*
X87853Y23647D01*
X88494Y24483D01*
X88897Y25456D01*
X89034Y26500D01*
Y28500D01*
X88897Y29544D01*
X88494Y30517D01*
X87994Y31169D01*
Y39641D01*
X88994Y40235D01*
X89225Y40139D01*
X90000Y40037D01*
X90775Y40139D01*
X91497Y40439D01*
X91806Y40675D01*
X92883Y40914D01*
X93503Y40439D01*
X94225Y40139D01*
X94500Y40103D01*
Y45000D01*
Y49897D01*
X94225Y49861D01*
X93503Y49562D01*
X93023Y49193D01*
X92482Y49329D01*
X92023Y49608D01*
Y50839D01*
X92937Y51047D01*
Y51047D01*
X100842D01*
Y58953D01*
X92937D01*
Y57023D01*
X92500D01*
X91726Y56869D01*
X91069Y56431D01*
X88569Y53931D01*
X88131Y53274D01*
X88063Y52933D01*
X87063Y53031D01*
Y58953D01*
X79158D01*
Y57023D01*
X68489D01*
X67853Y57853D01*
X67017Y58494D01*
X66044Y58897D01*
X65000Y59035D01*
D02*
G37*
G36*
X128000Y49897D02*
Y45500D01*
X130494D01*
Y46968D01*
X130392Y47743D01*
X130093Y48466D01*
X129617Y49086D01*
X128997Y49562D01*
X128275Y49861D01*
X128000Y49897D01*
D02*
G37*
G36*
X95500D02*
Y45500D01*
X97994D01*
Y46968D01*
X97892Y47743D01*
X97593Y48466D01*
X97117Y49086D01*
X96497Y49562D01*
X95775Y49861D01*
X95500Y49897D01*
D02*
G37*
G36*
X193000Y53858D02*
Y45500D01*
X199439D01*
Y46968D01*
X199306Y48322D01*
X198911Y49624D01*
X198269Y50824D01*
X197407Y51875D01*
X196355Y52738D01*
X195155Y53379D01*
X193854Y53774D01*
X193000Y53858D01*
D02*
G37*
G36*
X192000D02*
X191146Y53774D01*
X189845Y53379D01*
X188645Y52738D01*
X187593Y51875D01*
X186731Y50824D01*
X186089Y49624D01*
X185694Y48322D01*
X185561Y46968D01*
Y45500D01*
X192000D01*
Y53858D01*
D02*
G37*
G36*
X65000Y49035D02*
X63956Y48897D01*
X62983Y48494D01*
X62147Y47853D01*
X61506Y47017D01*
X61103Y46044D01*
X60966Y45000D01*
X61103Y43956D01*
X61506Y42983D01*
X62147Y42147D01*
X62983Y41506D01*
X63956Y41103D01*
X65000Y40966D01*
X66044Y41103D01*
X67017Y41506D01*
X67853Y42147D01*
X68494Y42983D01*
X68897Y43956D01*
X69034Y45000D01*
X68897Y46044D01*
X68494Y47017D01*
X67853Y47853D01*
X67017Y48494D01*
X66044Y48897D01*
X65000Y49035D01*
D02*
G37*
G36*
X130494Y44500D02*
X128000D01*
Y40103D01*
X128275Y40139D01*
X128997Y40439D01*
X129617Y40914D01*
X130093Y41534D01*
X130392Y42257D01*
X130494Y43031D01*
Y44500D01*
D02*
G37*
G36*
X97994D02*
X95500D01*
Y40103D01*
X95775Y40139D01*
X96497Y40439D01*
X97117Y40914D01*
X97593Y41534D01*
X97892Y42257D01*
X97994Y43031D01*
Y44500D01*
D02*
G37*
G36*
X221240Y51939D02*
X219886Y51806D01*
X218585Y51411D01*
X217385Y50770D01*
X216334Y49907D01*
X215471Y48855D01*
X214829Y47655D01*
X214435Y46354D01*
X214301Y45000D01*
X214435Y43646D01*
X214829Y42345D01*
X215471Y41145D01*
X216334Y40093D01*
X217385Y39230D01*
X218585Y38589D01*
X219886Y38194D01*
X221240Y38061D01*
X222594Y38194D01*
X223896Y38589D01*
X225095Y39230D01*
X226147Y40093D01*
X227010Y41145D01*
X227651Y42345D01*
X228046Y43646D01*
X228179Y45000D01*
X228046Y46354D01*
X227651Y47655D01*
X227010Y48855D01*
X226147Y49907D01*
X225095Y50770D01*
X223896Y51411D01*
X222594Y51806D01*
X221240Y51939D01*
D02*
G37*
G36*
X199439Y44500D02*
X193000D01*
Y36142D01*
X193854Y36226D01*
X195155Y36621D01*
X196355Y37262D01*
X197407Y38125D01*
X198269Y39176D01*
X198911Y40376D01*
X199306Y41678D01*
X199439Y43031D01*
Y44500D01*
D02*
G37*
G36*
X192000D02*
X185561D01*
Y43031D01*
X185694Y41678D01*
X186089Y40376D01*
X186731Y39176D01*
X187593Y38125D01*
X188645Y37262D01*
X189845Y36621D01*
X191146Y36226D01*
X192000Y36142D01*
Y44500D01*
D02*
G37*
G36*
X65000Y39035D02*
X63956Y38897D01*
X62983Y38494D01*
X62147Y37853D01*
X61506Y37017D01*
X61103Y36044D01*
X60966Y35000D01*
X61103Y33956D01*
X61506Y32983D01*
X62147Y32147D01*
X62983Y31506D01*
X63956Y31103D01*
X65000Y30966D01*
X66044Y31103D01*
X67017Y31506D01*
X67853Y32147D01*
X68494Y32983D01*
X68897Y33956D01*
X69034Y35000D01*
X68897Y36044D01*
X68494Y37017D01*
X67853Y37853D01*
X67017Y38494D01*
X66044Y38897D01*
X65000Y39035D01*
D02*
G37*
G36*
X170185Y32469D02*
Y28000D01*
X173720D01*
Y28500D01*
X173582Y29544D01*
X173179Y30517D01*
X172538Y31353D01*
X171702Y31994D01*
X170729Y32397D01*
X170185Y32469D01*
D02*
G37*
G36*
X173720Y27000D02*
X170185D01*
Y22531D01*
X170729Y22603D01*
X171702Y23006D01*
X172538Y23647D01*
X173179Y24483D01*
X173582Y25456D01*
X173720Y26500D01*
Y27000D01*
D02*
G37*
G36*
X65000Y29035D02*
X63956Y28897D01*
X62983Y28494D01*
X62147Y27853D01*
X61506Y27017D01*
X61103Y26044D01*
X60966Y25000D01*
X61103Y23956D01*
X61506Y22983D01*
X62147Y22147D01*
X62983Y21506D01*
X63956Y21103D01*
X65000Y20966D01*
X66044Y21103D01*
X67017Y21506D01*
X67853Y22147D01*
X68494Y22983D01*
X68897Y23956D01*
X69034Y25000D01*
X68897Y26044D01*
X68494Y27017D01*
X67853Y27853D01*
X67017Y28494D01*
X66044Y28897D01*
X65000Y29035D01*
D02*
G37*
G36*
Y19035D02*
X63956Y18897D01*
X62983Y18494D01*
X62147Y17853D01*
X61506Y17017D01*
X61103Y16044D01*
X60966Y15000D01*
X61103Y13956D01*
X61506Y12983D01*
X62147Y12147D01*
X62983Y11506D01*
X63956Y11103D01*
X65000Y10966D01*
X66044Y11103D01*
X67017Y11506D01*
X67853Y12147D01*
X68494Y12983D01*
X68897Y13956D01*
X69034Y15000D01*
X68897Y16044D01*
X68494Y17017D01*
X67853Y17853D01*
X67017Y18494D01*
X66044Y18897D01*
X65000Y19035D01*
D02*
G37*
G36*
X65500Y8969D02*
Y5500D01*
X68969D01*
X68897Y6044D01*
X68494Y7017D01*
X67853Y7853D01*
X67017Y8494D01*
X66044Y8897D01*
X65500Y8969D01*
D02*
G37*
G36*
X64500D02*
X63956Y8897D01*
X62983Y8494D01*
X62147Y7853D01*
X61506Y7017D01*
X61103Y6044D01*
X61031Y5500D01*
X64500D01*
Y8969D01*
D02*
G37*
%LPD*%
D10*
X100000Y12500D02*
X132500D01*
X94842Y17658D02*
X100000Y12500D01*
X94842Y17658D02*
Y27500D01*
X127342Y17658D02*
Y27500D01*
Y17658D02*
X132500Y12500D01*
X117500Y27500D02*
Y45000D01*
X85000Y27500D02*
Y45000D01*
D11*
X127500Y122500D02*
Y125610D01*
Y110413D02*
Y122500D01*
X115610Y55000D02*
Y61555D01*
X112165Y65000D02*
X115610Y61555D01*
X65000Y65000D02*
X112165D01*
X65000Y55000D02*
X83110D01*
X34882Y90000D02*
X40000Y95118D01*
X10000Y90000D02*
X34882D01*
X5000Y85000D02*
X10000Y90000D01*
X15000Y85000D02*
X37756D01*
X5000Y75000D02*
X15000Y85000D01*
X37756D02*
X45000Y92244D01*
Y120000D01*
X40000Y95118D02*
Y122500D01*
X140000Y27500D02*
X150000D01*
X137500Y30000D02*
X140000Y27500D01*
X137500Y30000D02*
Y62500D01*
X135000Y65000D02*
X137500Y62500D01*
Y67500D02*
Y78110D01*
X135000Y65000D02*
X137500Y67500D01*
X127500Y95000D02*
Y110413D01*
Y95000D02*
X130000Y92500D01*
X136890D01*
X137500Y91890D01*
X65000Y105000D02*
X72500D01*
X75000Y107500D01*
Y117500D01*
X77500Y120000D01*
X120000D01*
X122500Y117500D01*
Y110413D02*
Y117500D01*
X127500Y74587D02*
Y85000D01*
X122500Y90000D02*
X127500Y85000D01*
X122500Y90000D02*
Y110413D01*
X117500Y87500D02*
Y110413D01*
X115000Y85000D02*
X117500Y87500D01*
X65000Y85000D02*
X115000D01*
X65000Y95000D02*
X110000D01*
X112500Y97500D01*
Y110413D01*
X125000Y128110D02*
X127500Y125610D01*
X115000Y142500D02*
X124390D01*
X5000Y95000D02*
X32500D01*
X35000Y97500D01*
Y125000D01*
X42500Y132500D01*
Y142500D01*
X40000Y122500D02*
X45000Y127500D01*
X60000D01*
X45000Y120000D02*
X47500Y122500D01*
X70000D01*
X42500Y142500D02*
X45000Y145000D01*
X112500D01*
X115000Y142500D01*
Y135000D02*
Y142500D01*
X72500Y134843D02*
X72658Y135000D01*
X72500Y125000D02*
Y134843D01*
X70000Y122500D02*
X72500Y125000D01*
X60000Y127500D02*
X62500Y130000D01*
Y134685D01*
X62815Y135000D01*
X5000Y105000D02*
X17500D01*
X20000Y107500D01*
Y134843D01*
X20157Y135000D01*
X125000Y65000D02*
X135000D01*
X122500Y67500D02*
X125000Y65000D01*
X117500Y74587D02*
X122500D01*
Y67500D02*
Y74587D01*
Y45000D02*
Y52500D01*
X125000Y55000D01*
X129390D01*
X90000Y45000D02*
Y52500D01*
X92500Y55000D01*
X96890D01*
D12*
X221240Y45000D02*
D03*
D13*
X192500D02*
D03*
D14*
X170846D02*
D03*
D15*
X208661Y102047D02*
D03*
Y112047D02*
D03*
Y122047D02*
D03*
X147500Y55000D02*
D03*
Y65000D02*
D03*
Y75000D02*
D03*
X5000Y5000D02*
D03*
Y15000D02*
D03*
Y25000D02*
D03*
Y35000D02*
D03*
Y45000D02*
D03*
Y55000D02*
D03*
Y65000D02*
D03*
Y75000D02*
D03*
Y85000D02*
D03*
Y95000D02*
D03*
Y105000D02*
D03*
Y115000D02*
D03*
X65000D02*
D03*
Y105000D02*
D03*
Y95000D02*
D03*
Y85000D02*
D03*
Y75000D02*
D03*
Y65000D02*
D03*
Y55000D02*
D03*
Y45000D02*
D03*
Y35000D02*
D03*
Y25000D02*
D03*
Y15000D02*
D03*
Y5000D02*
D03*
X135000Y102500D02*
D03*
X145000D02*
D03*
X155000D02*
D03*
D16*
X182500Y110000D02*
D03*
D17*
Y65000D02*
D03*
Y153976D02*
D03*
D18*
X27559Y70866D02*
D03*
X220472Y149606D02*
D03*
Y11811D02*
D03*
D19*
X10315Y135000D02*
D03*
X20157D02*
D03*
X30000D02*
D03*
X105157D02*
D03*
X115000D02*
D03*
X52972D02*
D03*
X62815D02*
D03*
X72658D02*
D03*
X82500D02*
D03*
X169685Y27500D02*
D03*
X159843D02*
D03*
X150000D02*
D03*
X127342D02*
D03*
X117500D02*
D03*
X94842D02*
D03*
X85000D02*
D03*
D20*
X117500Y45000D02*
D03*
X127500D02*
D03*
X85000D02*
D03*
X95000D02*
D03*
D21*
X122500D02*
D03*
X90000D02*
D03*
D22*
X127500Y122500D02*
D03*
D23*
X125000Y128110D02*
D03*
Y141890D02*
D03*
X137500Y78110D02*
D03*
Y91890D02*
D03*
D24*
X82500Y110413D02*
D03*
X87500D02*
D03*
X92500D02*
D03*
X97500D02*
D03*
X102500D02*
D03*
X107500D02*
D03*
X112500D02*
D03*
X117500D02*
D03*
X122500D02*
D03*
X127500D02*
D03*
X82500Y74587D02*
D03*
X87500D02*
D03*
X92500D02*
D03*
X97500D02*
D03*
X102500D02*
D03*
X107500D02*
D03*
X112500D02*
D03*
X117500D02*
D03*
X122500D02*
D03*
X127500D02*
D03*
D25*
X115610Y55000D02*
D03*
X129390D02*
D03*
X83110D02*
D03*
X96890D02*
D03*
D26*
X132500Y12500D02*
X155000D01*
X159843Y17343D01*
Y27500D01*
X160000Y27657D02*
Y32500D01*
X147500Y45000D02*
X160000Y32500D01*
X147500Y45000D02*
Y55000D01*
X159843Y27500D02*
X160000Y27657D01*
X170000Y115000D02*
X182500Y127500D01*
X170000Y80000D02*
Y115000D01*
X165000Y75000D02*
X170000Y80000D01*
X147500Y75000D02*
X165000D01*
X187953Y122047D02*
X208661D01*
X182500Y127500D02*
X187953Y122047D01*
X182500Y127500D02*
Y153976D01*
X175236Y65000D02*
X182500D01*
X170846Y60610D02*
X175236Y65000D01*
X170846Y45000D02*
Y60610D01*
M02*
