G04 Layer_Color=32896*
%FSLAX25Y25*%
%MOIN*%
G70*
G01*
G75*
%ADD27C,0.01000*%
%ADD28C,0.00984*%
%ADD29C,0.00787*%
%ADD44C,0.02362*%
D27*
X39086Y120808D02*
X38087Y121808D01*
Y123807D01*
X39086Y124807D01*
X43085D01*
X44085Y123807D01*
Y121808D01*
X43085Y120808D01*
X40086Y117809D02*
Y115810D01*
X41086Y114810D01*
X44085D01*
Y117809D01*
X43085Y118809D01*
X42085Y117809D01*
Y114810D01*
X40086Y112811D02*
X44085D01*
X42085D01*
X41086Y111811D01*
X40086Y110812D01*
Y109812D01*
X39086Y105813D02*
X40086D01*
Y106813D01*
Y104814D01*
Y105813D01*
X43085D01*
X44085Y104814D01*
Y98816D02*
Y100815D01*
X43085Y101814D01*
X41086D01*
X40086Y100815D01*
Y98816D01*
X41086Y97816D01*
X42085D01*
Y101814D01*
X38087Y85820D02*
Y89818D01*
X44085D01*
Y85820D01*
X41086Y89818D02*
Y87819D01*
X40086Y83820D02*
X44085Y79822D01*
X42085Y81821D01*
X40086Y79822D01*
X44085Y83820D01*
X46084Y77822D02*
X40086D01*
Y74823D01*
X41086Y73824D01*
X43085D01*
X44085Y74823D01*
Y77822D01*
X41086Y65826D02*
Y61827D01*
X44085Y49831D02*
Y53830D01*
X40086Y49831D01*
X39086D01*
X38087Y50831D01*
Y52830D01*
X39086Y53830D01*
Y47832D02*
X38087Y46832D01*
Y44833D01*
X39086Y43833D01*
X43085D01*
X44085Y44833D01*
Y46832D01*
X43085Y47832D01*
X39086D01*
X44085Y41834D02*
Y39835D01*
Y40834D01*
X38087D01*
X39086Y41834D01*
X43085Y36836D02*
X44085Y35836D01*
Y33836D01*
X43085Y32837D01*
X39086D01*
X38087Y33836D01*
Y35836D01*
X39086Y36836D01*
X40086D01*
X41086Y35836D01*
Y32837D01*
X38087Y24839D02*
X42085D01*
X44085Y22840D01*
X42085Y20841D01*
X38087D01*
X44085Y18841D02*
Y16842D01*
Y17842D01*
X38087D01*
X39086Y18841D01*
X50683Y120808D02*
X49684Y121808D01*
Y123807D01*
X50683Y124807D01*
X51683D01*
X52683Y123807D01*
Y121808D01*
X53682Y120808D01*
X54682D01*
X55682Y121808D01*
Y123807D01*
X54682Y124807D01*
X51683Y118809D02*
X54682D01*
X55682Y117809D01*
Y114810D01*
X51683D01*
X57681Y112811D02*
X51683D01*
Y109812D01*
X52683Y108812D01*
X54682D01*
X55682Y109812D01*
Y112811D01*
X51683Y105813D02*
Y103814D01*
X52683Y102814D01*
X55682D01*
Y105813D01*
X54682Y106813D01*
X53682Y105813D01*
Y102814D01*
X55682Y97816D02*
Y99815D01*
X54682Y100815D01*
X52683D01*
X51683Y99815D01*
Y97816D01*
X52683Y96816D01*
X53682D01*
Y100815D01*
X51683Y94817D02*
X55682D01*
X53682D01*
X52683Y93817D01*
X51683Y92817D01*
Y91818D01*
X55682Y87819D02*
Y85820D01*
X54682Y84820D01*
X52683D01*
X51683Y85820D01*
Y87819D01*
X52683Y88819D01*
X54682D01*
X55682Y87819D01*
Y76823D02*
X49684D01*
Y73824D01*
X50683Y72824D01*
X52683D01*
X53682Y73824D01*
Y76823D01*
Y74823D02*
X55682Y72824D01*
Y69825D02*
Y67826D01*
X54682Y66826D01*
X52683D01*
X51683Y67826D01*
Y69825D01*
X52683Y70824D01*
X54682D01*
X55682Y69825D01*
X49684Y64827D02*
X55682D01*
Y61827D01*
X54682Y60828D01*
X53682D01*
X52683D01*
X51683Y61827D01*
Y64827D01*
X55682Y57829D02*
Y55829D01*
X54682Y54830D01*
X52683D01*
X51683Y55829D01*
Y57829D01*
X52683Y58828D01*
X54682D01*
X55682Y57829D01*
X50683Y51831D02*
X51683D01*
Y52830D01*
Y50831D01*
Y51831D01*
X54682D01*
X55682Y50831D01*
Y47832D02*
Y45833D01*
Y46832D01*
X51683D01*
Y47832D01*
X55682Y42834D02*
X49684D01*
X53682D02*
X51683Y39835D01*
X53682Y42834D02*
X55682Y39835D01*
X50683Y26839D02*
X49684Y27839D01*
Y29838D01*
X50683Y30838D01*
X54682D01*
X55682Y29838D01*
Y27839D01*
X54682Y26839D01*
X55682Y24839D02*
Y22840D01*
Y23840D01*
X49684D01*
Y24839D01*
X51683Y19841D02*
X54682D01*
X55682Y18841D01*
Y15842D01*
X51683D01*
X49684Y13843D02*
X55682D01*
Y10844D01*
X54682Y9844D01*
X53682D01*
X52683D01*
X51683Y10844D01*
Y13843D01*
X128900Y151000D02*
Y156998D01*
X125901D01*
X124901Y155998D01*
Y153999D01*
X125901Y152999D01*
X128900D01*
X126901D02*
X124901Y151000D01*
X118903D02*
X122902D01*
X118903Y154999D01*
Y155998D01*
X119903Y156998D01*
X121902D01*
X122902Y155998D01*
X141400Y101000D02*
Y106998D01*
X138401D01*
X137401Y105998D01*
Y103999D01*
X138401Y102999D01*
X141400D01*
X139401D02*
X137401Y101000D01*
X135402Y105998D02*
X134402Y106998D01*
X132403D01*
X131403Y105998D01*
Y104999D01*
X132403Y103999D01*
X133403D01*
X132403D01*
X131403Y102999D01*
Y102000D01*
X132403Y101000D01*
X134402D01*
X135402Y102000D01*
X130800Y125098D02*
Y120100D01*
X129800Y119100D01*
X127801D01*
X126801Y120100D01*
Y125098D01*
X124802Y119100D02*
X122803D01*
X123802D01*
Y125098D01*
X124802Y124098D01*
X130000Y35000D02*
X135998D01*
Y37999D01*
X134998Y38999D01*
X132999D01*
X131999Y37999D01*
Y35000D01*
Y36999D02*
X130000Y38999D01*
Y44997D02*
Y40998D01*
X133999Y44997D01*
X134998D01*
X135998Y43997D01*
Y41998D01*
X134998Y40998D01*
X130000Y46996D02*
Y48996D01*
Y47996D01*
X135998D01*
X134998Y46996D01*
X97500Y35000D02*
X103498D01*
Y37999D01*
X102498Y38999D01*
X100499D01*
X99499Y37999D01*
Y35000D01*
Y36999D02*
X97500Y38999D01*
Y40998D02*
Y42997D01*
Y41998D01*
X103498D01*
X102498Y40998D01*
X97500Y45996D02*
Y47996D01*
Y46996D01*
X103498D01*
X102498Y45996D01*
D28*
X131339Y74587D02*
X130600Y75013D01*
Y74160D01*
X131339Y74587D01*
D29*
X129528Y138937D02*
Y145630D01*
X120472Y145630D02*
X122047Y147598D01*
X127953D02*
X129528Y145630D01*
X120472Y138937D02*
Y145630D01*
X122047Y147598D02*
X127953D01*
X120472Y123583D02*
X129528D01*
Y131063D01*
X120472Y123583D02*
Y131063D01*
X142028Y88937D02*
Y95630D01*
X132972Y95630D02*
X134547Y97598D01*
X140453D02*
X142028Y95630D01*
X132972Y88937D02*
Y95630D01*
X134547Y97598D02*
X140453D01*
X132972Y73583D02*
X142028D01*
Y81063D01*
X132972Y73583D02*
Y81063D01*
X79409Y80689D02*
Y104311D01*
X130591Y80689D02*
Y104311D01*
X79409D02*
X130591D01*
X79409Y80689D02*
X130591D01*
X126437Y50472D02*
X133130D01*
X133130Y59528D02*
X135098Y57953D01*
X133130Y50472D02*
X135098Y52047D01*
X126437Y59528D02*
X133130D01*
X135098Y52047D02*
Y57953D01*
X111083Y50472D02*
Y59528D01*
Y50472D02*
X118563D01*
X111083Y59528D02*
X118563D01*
X93937Y50472D02*
X100630D01*
X100630Y59528D02*
X102598Y57953D01*
X100630Y50472D02*
X102598Y52047D01*
X93937Y59528D02*
X100630D01*
X102598Y52047D02*
Y57953D01*
X78583Y50472D02*
Y59528D01*
Y50472D02*
X86063D01*
X78583Y59528D02*
X86063D01*
D44*
X127835Y84626D02*
X127390Y85549D01*
X126391Y85777D01*
X125589Y85138D01*
Y84114D01*
X126391Y83474D01*
X127390Y83703D01*
X127835Y84626D01*
M02*
