G04 Layer_Color=65535*
%FSLAX25Y25*%
%MOIN*%
G70*
G01*
G75*
%ADD27C,0.01000*%
%ADD28C,0.00984*%
%ADD29C,0.00787*%
D27*
X38032Y70866D02*
X37984Y71862D01*
X37842Y72848D01*
X37607Y73817D01*
X37281Y74758D01*
X36867Y75665D01*
X36369Y76528D01*
X35791Y77340D01*
X35138Y78093D01*
X34417Y78781D01*
X33634Y79397D01*
X32795Y79935D01*
X31909Y80392D01*
X30984Y80763D01*
X30028Y81043D01*
X29050Y81232D01*
X28057Y81327D01*
X27061D01*
X26069Y81232D01*
X25090Y81043D01*
X24134Y80763D01*
X23209Y80392D01*
X22323Y79935D01*
X21485Y79397D01*
X20701Y78781D01*
X19980Y78093D01*
X19327Y77340D01*
X18749Y76528D01*
X18251Y75665D01*
X17837Y74758D01*
X17511Y73817D01*
X17276Y72848D01*
X17134Y71862D01*
X17087Y70866D01*
X17134Y69871D01*
X17276Y68884D01*
X17511Y67916D01*
X17837Y66974D01*
X18251Y66067D01*
X18749Y65204D01*
X19327Y64393D01*
X19980Y63639D01*
X20701Y62952D01*
X21484Y62336D01*
X22323Y61797D01*
X23209Y61340D01*
X24134Y60970D01*
X25090Y60689D01*
X26069Y60500D01*
X27061Y60406D01*
X28057D01*
X29049Y60500D01*
X30028Y60689D01*
X30984Y60970D01*
X31909Y61340D01*
X32795Y61797D01*
X33634Y62336D01*
X34417Y62952D01*
X35138Y63639D01*
X35791Y64393D01*
X36369Y65204D01*
X36867Y66067D01*
X37281Y66974D01*
X37607Y67916D01*
X37842Y68884D01*
X37984Y69871D01*
X38032Y70866D01*
X230945Y149606D02*
X230897Y150602D01*
X230756Y151588D01*
X230521Y152557D01*
X230195Y153498D01*
X229781Y154405D01*
X229282Y155268D01*
X228704Y156080D01*
X228052Y156833D01*
X227330Y157521D01*
X226547Y158137D01*
X225709Y158676D01*
X224823Y159132D01*
X223898Y159503D01*
X222941Y159783D01*
X221963Y159972D01*
X220971Y160067D01*
X219974D01*
X218982Y159972D01*
X218004Y159783D01*
X217047Y159503D01*
X216122Y159132D01*
X215236Y158676D01*
X214398Y158137D01*
X213614Y157521D01*
X212893Y156833D01*
X212241Y156080D01*
X211663Y155268D01*
X211164Y154405D01*
X210750Y153498D01*
X210424Y152557D01*
X210189Y151588D01*
X210047Y150602D01*
X210000Y149606D01*
X210047Y148611D01*
X210189Y147624D01*
X210424Y146656D01*
X210750Y145714D01*
X211164Y144808D01*
X211663Y143945D01*
X212241Y143133D01*
X212893Y142379D01*
X213614Y141692D01*
X214398Y141076D01*
X215236Y140537D01*
X216122Y140080D01*
X217047Y139710D01*
X218004Y139429D01*
X218982Y139241D01*
X219974Y139146D01*
X220971D01*
X221963Y139241D01*
X222941Y139429D01*
X223898Y139710D01*
X224823Y140080D01*
X225709Y140537D01*
X226547Y141076D01*
X227330Y141692D01*
X228052Y142379D01*
X228704Y143133D01*
X229282Y143945D01*
X229781Y144808D01*
X230195Y145714D01*
X230521Y146656D01*
X230756Y147624D01*
X230897Y148611D01*
X230945Y149606D01*
Y11811D02*
X230897Y12807D01*
X230756Y13793D01*
X230521Y14761D01*
X230195Y15703D01*
X229781Y16610D01*
X229282Y17473D01*
X228704Y18285D01*
X228052Y19038D01*
X227330Y19726D01*
X226547Y20342D01*
X225709Y20880D01*
X224823Y21337D01*
X223898Y21708D01*
X222941Y21988D01*
X221963Y22177D01*
X220971Y22272D01*
X219974D01*
X218982Y22177D01*
X218004Y21988D01*
X217047Y21708D01*
X216122Y21337D01*
X215236Y20880D01*
X214398Y20342D01*
X213614Y19726D01*
X212893Y19038D01*
X212241Y18285D01*
X211663Y17473D01*
X211164Y16610D01*
X210750Y15703D01*
X210424Y14761D01*
X210189Y13793D01*
X210047Y12807D01*
X210000Y11811D01*
X210047Y10816D01*
X210189Y9829D01*
X210424Y8861D01*
X210750Y7919D01*
X211164Y7012D01*
X211663Y6149D01*
X212241Y5337D01*
X212893Y4584D01*
X213614Y3897D01*
X214398Y3280D01*
X215236Y2742D01*
X216122Y2285D01*
X217047Y1915D01*
X218004Y1634D01*
X218982Y1445D01*
X219974Y1350D01*
X220971D01*
X221963Y1445D01*
X222941Y1634D01*
X223898Y1915D01*
X224823Y2285D01*
X225709Y2742D01*
X226547Y3280D01*
X227330Y3897D01*
X228052Y4584D01*
X228704Y5337D01*
X229282Y6149D01*
X229781Y7012D01*
X230195Y7919D01*
X230521Y8861D01*
X230756Y9829D01*
X230897Y10816D01*
X230945Y11811D01*
X198406Y34370D02*
Y55630D01*
X247224D01*
X198406Y34370D02*
X225965D01*
X198406D02*
X247224D01*
Y55630D01*
X200787Y88071D02*
X230709D01*
Y134134D01*
X200787D02*
X230709D01*
X200787Y88071D02*
Y134134D01*
X163500Y37598D02*
Y92716D01*
X133579D02*
X163500D01*
X133579Y37598D02*
Y92716D01*
Y37598D02*
X163500D01*
X170000Y60000D02*
Y160000D01*
X195000D01*
Y60000D02*
Y160000D01*
X170000Y60000D02*
X195000D01*
X10000Y0D02*
Y120000D01*
X0Y0D02*
X10000D01*
X0D02*
Y120000D01*
X10000D01*
X60000D02*
X70000D01*
Y0D02*
Y120000D01*
X60000Y0D02*
Y120000D01*
Y0D02*
X70000D01*
X39646Y129882D02*
Y160984D01*
X669D02*
X39646D01*
X669Y129882D02*
Y160984D01*
Y129882D02*
X39646D01*
X124843Y130079D02*
Y160984D01*
X95315D02*
X124843D01*
X95315Y130079D02*
Y160984D01*
Y130079D02*
X124843D01*
X130000Y159587D02*
X160000D01*
X130000Y113524D02*
Y159587D01*
X160000Y113524D02*
Y159587D01*
X130000Y113524D02*
X160000D01*
X92343Y130079D02*
Y160984D01*
X43130D02*
X92343D01*
X43130Y130079D02*
Y160984D01*
Y130079D02*
X92343D01*
X140354Y1516D02*
Y32618D01*
Y1516D02*
X179331D01*
Y32618D01*
X140354D02*
X179331D01*
X107658Y1516D02*
Y32421D01*
Y1516D02*
X137185D01*
Y32421D01*
X107658D02*
X137185D01*
X75157Y1516D02*
Y32421D01*
Y1516D02*
X104685D01*
Y32421D01*
X75157D02*
X104685D01*
X179502Y102999D02*
Y99000D01*
X182501D01*
Y100999D01*
Y99000D01*
X185500D01*
X179502Y104998D02*
X184500D01*
X185500Y105998D01*
Y107997D01*
X184500Y108997D01*
X179502D01*
X180502Y114995D02*
X179502Y113995D01*
Y111996D01*
X180502Y110996D01*
X181501D01*
X182501Y111996D01*
Y113995D01*
X183501Y114995D01*
X184500D01*
X185500Y113995D01*
Y111996D01*
X184500Y110996D01*
X179502Y120993D02*
Y116994D01*
X185500D01*
Y120993D01*
X182501Y116994D02*
Y118993D01*
X12500Y8498D02*
Y3500D01*
X13500Y2500D01*
X15499D01*
X16499Y3500D01*
Y8498D01*
X18498Y7498D02*
X19498Y8498D01*
X21497D01*
X22497Y7498D01*
Y3500D01*
X21497Y2500D01*
X19498D01*
X18498Y3500D01*
Y7498D01*
X40000Y121502D02*
Y127500D01*
X36001D01*
X30003Y121502D02*
X34002D01*
Y127500D01*
X30003D01*
X34002Y124501D02*
X32003D01*
X28004Y121502D02*
Y127500D01*
X25005D01*
X24005Y126500D01*
Y122502D01*
X25005Y121502D01*
X28004D01*
X22006Y127500D02*
X19007D01*
X18007Y126500D01*
X19007Y125501D01*
X21006D01*
X22006Y124501D01*
X21006Y123501D01*
X18007D01*
X125000Y121502D02*
Y127500D01*
Y125501D01*
X121001Y121502D01*
X124000Y124501D01*
X121001Y127500D01*
X119002D02*
X117003D01*
X118002D01*
Y121502D01*
X119002Y122502D01*
X157500Y91502D02*
Y97500D01*
X153501D01*
X150502Y93501D02*
X148503D01*
X147503Y94501D01*
Y97500D01*
X150502D01*
X151502Y96500D01*
X150502Y95501D01*
X147503D01*
X145504Y97500D02*
X142505D01*
X141505Y96500D01*
X142505Y95501D01*
X144504D01*
X145504Y94501D01*
X144504Y93501D01*
X141505D01*
X136507Y97500D02*
X138506D01*
X139506Y96500D01*
Y94501D01*
X138506Y93501D01*
X136507D01*
X135507Y94501D01*
Y95501D01*
X139506D01*
X133508Y93501D02*
Y97500D01*
Y95501D01*
X132508Y94501D01*
X131508Y93501D01*
X130509D01*
X86001Y122502D02*
X87001Y121502D01*
X89000D01*
X90000Y122502D01*
Y123501D01*
X89000Y124501D01*
X87001D01*
X86001Y125501D01*
Y126500D01*
X87001Y127500D01*
X89000D01*
X90000Y126500D01*
X83002Y127500D02*
X81003D01*
X80003Y126500D01*
Y124501D01*
X81003Y123501D01*
X83002D01*
X84002Y124501D01*
Y126500D01*
X83002Y127500D01*
X78004D02*
Y123501D01*
X75005D01*
X74005Y124501D01*
Y127500D01*
X71006Y123501D02*
X69007D01*
X68007Y124501D01*
Y127500D01*
X71006D01*
X72006Y126500D01*
X71006Y125501D01*
X68007D01*
X66008Y123501D02*
Y127500D01*
Y125501D01*
X65008Y124501D01*
X64008Y123501D01*
X63009D01*
X187100Y31496D02*
X181102D01*
Y28497D01*
X182102Y27497D01*
X186101D01*
X187100Y28497D01*
Y31496D01*
X185101Y25498D02*
X182102D01*
X181102Y24498D01*
Y21499D01*
X180103D01*
X179103Y22499D01*
Y23499D01*
X181102Y21499D02*
X185101D01*
X181102Y19500D02*
X185101D01*
Y16501D01*
X184101Y15501D01*
X181102D01*
X185101Y12502D02*
Y10503D01*
X184101Y9503D01*
X181102D01*
Y12502D01*
X182102Y13502D01*
X183102Y12502D01*
Y9503D01*
X181102Y7504D02*
X185101D01*
Y6504D01*
X184101Y5505D01*
X181102D01*
X184101D01*
X185101Y4505D01*
X184101Y3505D01*
X181102D01*
X102500Y35000D02*
Y40998D01*
X104499Y38999D01*
X106499Y40998D01*
Y35000D01*
X112497D02*
X108498D01*
X112497Y38999D01*
Y39998D01*
X111497Y40998D01*
X109498D01*
X108498Y39998D01*
X72500Y35000D02*
Y40998D01*
X74499Y38999D01*
X76499Y40998D01*
Y35000D01*
X78498D02*
X80497D01*
X79498D01*
Y40998D01*
X78498Y39998D01*
X121499Y53500D02*
Y57498D01*
X120499Y58498D01*
X118500D01*
X117500Y57498D01*
Y53500D01*
X118500Y52500D01*
X120499D01*
X119499Y54499D02*
X121499Y52500D01*
X120499D02*
X121499Y53500D01*
X127497Y52500D02*
X123498D01*
X127497Y56499D01*
Y57498D01*
X126497Y58498D01*
X124498D01*
X123498Y57498D01*
X88999Y53500D02*
Y57498D01*
X87999Y58498D01*
X86000D01*
X85000Y57498D01*
Y53500D01*
X86000Y52500D01*
X87999D01*
X86999Y54499D02*
X88999Y52500D01*
X87999D02*
X88999Y53500D01*
X90998Y52500D02*
X92997D01*
X91998D01*
Y58498D01*
X90998Y57498D01*
D28*
X134134Y50315D02*
X133396Y50741D01*
Y49889D01*
X134134Y50315D01*
X101634D02*
X100896Y50741D01*
Y49889D01*
X101634Y50315D01*
D29*
X114705Y50906D02*
X114138Y50071D01*
X113660Y49182D01*
X113276Y48249D01*
X112990Y47282D01*
X112806Y46290D01*
X112724Y45284D01*
X112747Y44275D01*
X112874Y43274D01*
X113103Y42292D01*
X113432Y41338D01*
X113857Y40423D01*
X114375Y39557D01*
X114979Y38749D01*
X115663Y38007D01*
X116420Y37340D01*
X117242Y36754D01*
X118119Y36257D01*
X119043Y35852D01*
X120004Y35544D01*
X120992Y35337D01*
X121995Y35233D01*
X123004D01*
X124008Y35337D01*
X124996Y35544D01*
X125957Y35852D01*
X126881Y36257D01*
X127758Y36754D01*
X128580Y37340D01*
X129337Y38007D01*
X130021Y38749D01*
X130625Y39557D01*
X131142Y40423D01*
X131568Y41338D01*
X131897Y42292D01*
X132126Y43274D01*
X132253Y44275D01*
X132275Y45284D01*
X132194Y46290D01*
X132010Y47282D01*
X131724Y48249D01*
X131340Y49182D01*
X130862Y50071D01*
X130295Y50906D01*
X82205D02*
X81638Y50071D01*
X81160Y49182D01*
X80776Y48249D01*
X80490Y47282D01*
X80306Y46290D01*
X80225Y45284D01*
X80247Y44275D01*
X80374Y43274D01*
X80603Y42292D01*
X80932Y41338D01*
X81358Y40423D01*
X81875Y39557D01*
X82479Y38749D01*
X83163Y38007D01*
X83920Y37340D01*
X84742Y36754D01*
X85619Y36257D01*
X86543Y35852D01*
X87504Y35544D01*
X88492Y35337D01*
X89495Y35233D01*
X90504D01*
X91508Y35337D01*
X92496Y35544D01*
X93457Y35852D01*
X94381Y36257D01*
X95258Y36754D01*
X96080Y37340D01*
X96837Y38007D01*
X97521Y38749D01*
X98125Y39557D01*
X98642Y40423D01*
X99068Y41338D01*
X99397Y42292D01*
X99626Y43274D01*
X99753Y44275D01*
X99775Y45284D01*
X99694Y46290D01*
X99510Y47282D01*
X99224Y48249D01*
X98840Y49182D01*
X98362Y50071D01*
X97795Y50906D01*
X114705Y50906D02*
X130295D01*
X82205D02*
X97795D01*
M02*
