G04 Layer_Color=16711935*
%FSLAX25Y25*%
%MOIN*%
G70*
G01*
G75*
%ADD30C,0.12611*%
%ADD31O,0.12611X0.16548*%
%ADD32R,0.12611X0.16548*%
%ADD33C,0.06800*%
%ADD34C,0.08674*%
%ADD35O,0.10642X0.08674*%
%ADD36C,0.21745*%
%ADD37O,0.06800X0.08800*%
%ADD38O,0.04737X0.08674*%
%ADD39O,0.04737X0.08674*%
%ADD40C,0.05800*%
%ADD41R,0.06706X0.06706*%
%ADD42O,0.03162X0.09855*%
%ADD43R,0.06706X0.06706*%
D30*
X221240Y45000D02*
D03*
D31*
X192500D02*
D03*
D32*
X170846D02*
D03*
D33*
X208661Y102047D02*
D03*
Y112047D02*
D03*
Y122047D02*
D03*
X147500Y55000D02*
D03*
Y65000D02*
D03*
Y75000D02*
D03*
X5000Y5000D02*
D03*
Y15000D02*
D03*
Y25000D02*
D03*
Y35000D02*
D03*
Y45000D02*
D03*
Y55000D02*
D03*
Y65000D02*
D03*
Y75000D02*
D03*
Y85000D02*
D03*
Y95000D02*
D03*
Y105000D02*
D03*
Y115000D02*
D03*
X65000D02*
D03*
Y105000D02*
D03*
Y95000D02*
D03*
Y85000D02*
D03*
Y75000D02*
D03*
Y65000D02*
D03*
Y55000D02*
D03*
Y45000D02*
D03*
Y35000D02*
D03*
Y25000D02*
D03*
Y15000D02*
D03*
Y5000D02*
D03*
X135000Y102500D02*
D03*
X145000D02*
D03*
X155000D02*
D03*
D34*
X182500Y110000D02*
D03*
D35*
Y65000D02*
D03*
Y153976D02*
D03*
D36*
X27559Y70866D02*
D03*
X220472Y149606D02*
D03*
Y11811D02*
D03*
D37*
X10315Y135000D02*
D03*
X20157D02*
D03*
X30000D02*
D03*
X105157D02*
D03*
X115000D02*
D03*
X52972D02*
D03*
X62815D02*
D03*
X72658D02*
D03*
X82500D02*
D03*
X169685Y27500D02*
D03*
X159843D02*
D03*
X150000D02*
D03*
X127342D02*
D03*
X117500D02*
D03*
X94842D02*
D03*
X85000D02*
D03*
D38*
X117500Y45000D02*
D03*
X127500D02*
D03*
X85000D02*
D03*
X95000D02*
D03*
D39*
X122500D02*
D03*
X90000D02*
D03*
D40*
X127500Y122500D02*
D03*
D41*
X125000Y128110D02*
D03*
Y141890D02*
D03*
X137500Y78110D02*
D03*
Y91890D02*
D03*
D42*
X82500Y110413D02*
D03*
X87500D02*
D03*
X92500D02*
D03*
X97500D02*
D03*
X102500D02*
D03*
X107500D02*
D03*
X112500D02*
D03*
X117500D02*
D03*
X122500D02*
D03*
X127500D02*
D03*
X82500Y74587D02*
D03*
X87500D02*
D03*
X92500D02*
D03*
X97500D02*
D03*
X102500D02*
D03*
X107500D02*
D03*
X112500D02*
D03*
X117500D02*
D03*
X122500D02*
D03*
X127500D02*
D03*
D43*
X115610Y55000D02*
D03*
X129390D02*
D03*
X83110D02*
D03*
X96890D02*
D03*
M02*
