G04 Layer_Color=8388736*
%FSLAX25Y25*%
%MOIN*%
G70*
G01*
G75*
%ADD19R,0.07493X0.08674*%
%ADD20R,0.06706X0.06706*%
%ADD21C,0.21745*%
%ADD22O,0.08800X0.06800*%
D19*
X82126Y35000D02*
D03*
X67953D02*
D03*
Y13740D02*
D03*
X82126D02*
D03*
X112126Y35000D02*
D03*
X97953D02*
D03*
Y13740D02*
D03*
X112126D02*
D03*
X142126Y35000D02*
D03*
X127953D02*
D03*
Y13740D02*
D03*
X142126D02*
D03*
X172126Y35000D02*
D03*
X157953D02*
D03*
Y13740D02*
D03*
X172126D02*
D03*
X202126Y35000D02*
D03*
X187953D02*
D03*
Y13740D02*
D03*
X202126D02*
D03*
X232126Y35000D02*
D03*
X217953D02*
D03*
Y13740D02*
D03*
X232126D02*
D03*
X262126Y35000D02*
D03*
X247953D02*
D03*
Y13740D02*
D03*
X262126D02*
D03*
X292126Y35000D02*
D03*
X277953D02*
D03*
Y13740D02*
D03*
X292126D02*
D03*
X322126Y35000D02*
D03*
X307953D02*
D03*
Y13740D02*
D03*
X322126D02*
D03*
D20*
X12126Y26890D02*
D03*
Y13110D02*
D03*
X384626Y26890D02*
D03*
Y13110D02*
D03*
D21*
X344626Y22500D02*
D03*
X49626D02*
D03*
D22*
X369626Y12815D02*
D03*
Y22658D02*
D03*
Y32500D02*
D03*
X27126Y32185D02*
D03*
Y22343D02*
D03*
Y12500D02*
D03*
M02*
