G04 Layer_Color=65535*
%FSLAX25Y25*%
%MOIN*%
G70*
G01*
G75*
%ADD16C,0.01000*%
%ADD17C,0.00787*%
%ADD18C,0.00500*%
D16*
X355098Y22500D02*
X355051Y23495D01*
X354909Y24482D01*
X354674Y25450D01*
X354348Y26392D01*
X353934Y27299D01*
X353436Y28162D01*
X352858Y28974D01*
X352205Y29727D01*
X351484Y30415D01*
X350701Y31031D01*
X349862Y31569D01*
X348976Y32026D01*
X348051Y32397D01*
X347095Y32677D01*
X346116Y32866D01*
X345124Y32961D01*
X344128D01*
X343136Y32866D01*
X342157Y32677D01*
X341201Y32397D01*
X340276Y32026D01*
X339390Y31569D01*
X338551Y31031D01*
X337768Y30415D01*
X337047Y29727D01*
X336394Y28974D01*
X335816Y28162D01*
X335318Y27299D01*
X334904Y26392D01*
X334578Y25450D01*
X334343Y24482D01*
X334201Y23495D01*
X334154Y22500D01*
X334201Y21505D01*
X334343Y20518D01*
X334578Y19550D01*
X334904Y18608D01*
X335318Y17701D01*
X335816Y16838D01*
X336394Y16026D01*
X337047Y15273D01*
X337768Y14585D01*
X338551Y13969D01*
X339390Y13431D01*
X340276Y12974D01*
X341201Y12604D01*
X342157Y12323D01*
X343136Y12134D01*
X344128Y12039D01*
X345124D01*
X346116Y12134D01*
X347095Y12323D01*
X348051Y12604D01*
X348976Y12974D01*
X349862Y13431D01*
X350701Y13969D01*
X351484Y14585D01*
X352205Y15273D01*
X352858Y16026D01*
X353436Y16838D01*
X353934Y17701D01*
X354348Y18608D01*
X354674Y19550D01*
X354909Y20518D01*
X355051Y21505D01*
X355098Y22500D01*
X60098D02*
X60051Y23495D01*
X59909Y24482D01*
X59674Y25450D01*
X59348Y26392D01*
X58934Y27299D01*
X58436Y28162D01*
X57858Y28974D01*
X57205Y29727D01*
X56484Y30415D01*
X55701Y31031D01*
X54862Y31569D01*
X53976Y32026D01*
X53051Y32397D01*
X52095Y32677D01*
X51116Y32866D01*
X50124Y32961D01*
X49128D01*
X48136Y32866D01*
X47157Y32677D01*
X46201Y32397D01*
X45276Y32026D01*
X44390Y31569D01*
X43551Y31031D01*
X42768Y30415D01*
X42047Y29727D01*
X41394Y28974D01*
X40816Y28162D01*
X40318Y27299D01*
X39904Y26392D01*
X39578Y25450D01*
X39343Y24482D01*
X39201Y23495D01*
X39154Y22500D01*
X39201Y21505D01*
X39343Y20518D01*
X39578Y19550D01*
X39904Y18608D01*
X40318Y17701D01*
X40816Y16838D01*
X41394Y16026D01*
X42047Y15273D01*
X42768Y14585D01*
X43551Y13969D01*
X44390Y13431D01*
X45276Y12974D01*
X46201Y12604D01*
X47157Y12323D01*
X48136Y12134D01*
X49128Y12039D01*
X50124D01*
X51116Y12134D01*
X52095Y12323D01*
X53051Y12604D01*
X53976Y12974D01*
X54862Y13431D01*
X55701Y13969D01*
X56484Y14585D01*
X57205Y15273D01*
X57858Y16026D01*
X58436Y16838D01*
X58934Y17701D01*
X59348Y18608D01*
X59674Y19550D01*
X59909Y20518D01*
X60051Y21505D01*
X60098Y22500D01*
X65197Y34213D02*
X82913D01*
X84882Y32244D01*
Y14528D02*
Y32244D01*
X65197Y14528D02*
X84882D01*
X65197D02*
Y34213D01*
X95197D02*
X112913D01*
X114882Y32244D01*
Y14528D02*
Y32244D01*
X95197Y14528D02*
X114882D01*
X95197D02*
Y34213D01*
X125197D02*
X142913D01*
X144882Y32244D01*
Y14528D02*
Y32244D01*
X125197Y14528D02*
X144882D01*
X125197D02*
Y34213D01*
X155197D02*
X172913D01*
X174882Y32244D01*
Y14528D02*
Y32244D01*
X155197Y14528D02*
X174882D01*
X155197D02*
Y34213D01*
X185197D02*
X202913D01*
X204882Y32244D01*
Y14528D02*
Y32244D01*
X185197Y14528D02*
X204882D01*
X185197D02*
Y34213D01*
X215197D02*
X232913D01*
X234882Y32244D01*
Y14528D02*
Y32244D01*
X215197Y14528D02*
X234882D01*
X215197D02*
Y34213D01*
X245197D02*
X262913D01*
X264882Y32244D01*
Y14528D02*
Y32244D01*
X245197Y14528D02*
X264882D01*
X245197D02*
Y34213D01*
X275197D02*
X292913D01*
X294882Y32244D01*
Y14528D02*
Y32244D01*
X275197Y14528D02*
X294882D01*
X275197D02*
Y34213D01*
X305197D02*
X322913D01*
X324882Y32244D01*
Y14528D02*
Y32244D01*
X305197Y14528D02*
X324882D01*
X305197D02*
Y34213D01*
X309626Y28498D02*
Y22500D01*
X312625D01*
X313625Y23500D01*
Y27498D01*
X312625Y28498D01*
X309626D01*
X315624Y22500D02*
X317623D01*
X316624D01*
Y28498D01*
X315624Y27498D01*
X279626Y28498D02*
Y22500D01*
X282625D01*
X283625Y23500D01*
Y27498D01*
X282625Y28498D01*
X279626D01*
X289623Y22500D02*
X285624D01*
X289623Y26499D01*
Y27498D01*
X288623Y28498D01*
X286624D01*
X285624Y27498D01*
X249626Y28498D02*
Y22500D01*
X252625D01*
X253625Y23500D01*
Y27498D01*
X252625Y28498D01*
X249626D01*
X255624Y27498D02*
X256624Y28498D01*
X258623D01*
X259623Y27498D01*
Y26499D01*
X258623Y25499D01*
X257623D01*
X258623D01*
X259623Y24499D01*
Y23500D01*
X258623Y22500D01*
X256624D01*
X255624Y23500D01*
X219626Y28498D02*
Y22500D01*
X222625D01*
X223625Y23500D01*
Y27498D01*
X222625Y28498D01*
X219626D01*
X228623Y22500D02*
Y28498D01*
X225624Y25499D01*
X229623D01*
X189626Y28498D02*
Y22500D01*
X192625D01*
X193625Y23500D01*
Y27498D01*
X192625Y28498D01*
X189626D01*
X199623D02*
X195624D01*
Y25499D01*
X197623Y26499D01*
X198623D01*
X199623Y25499D01*
Y23500D01*
X198623Y22500D01*
X196624D01*
X195624Y23500D01*
X159626Y28498D02*
Y22500D01*
X162625D01*
X163625Y23500D01*
Y27498D01*
X162625Y28498D01*
X159626D01*
X169623D02*
X167623Y27498D01*
X165624Y25499D01*
Y23500D01*
X166624Y22500D01*
X168623D01*
X169623Y23500D01*
Y24499D01*
X168623Y25499D01*
X165624D01*
X129626Y28498D02*
Y22500D01*
X132625D01*
X133625Y23500D01*
Y27498D01*
X132625Y28498D01*
X129626D01*
X135624D02*
X139623D01*
Y27498D01*
X135624Y23500D01*
Y22500D01*
X99626Y28498D02*
Y22500D01*
X102625D01*
X103625Y23500D01*
Y27498D01*
X102625Y28498D01*
X99626D01*
X105624Y27498D02*
X106624Y28498D01*
X108623D01*
X109623Y27498D01*
Y26499D01*
X108623Y25499D01*
X109623Y24499D01*
Y23500D01*
X108623Y22500D01*
X106624D01*
X105624Y23500D01*
Y24499D01*
X106624Y25499D01*
X105624Y26499D01*
Y27498D01*
X106624Y25499D02*
X108623D01*
X69626Y28498D02*
Y22500D01*
X72625D01*
X73625Y23500D01*
Y27498D01*
X72625Y28498D01*
X69626D01*
X75624Y23500D02*
X76624Y22500D01*
X78623D01*
X79623Y23500D01*
Y27498D01*
X78623Y28498D01*
X76624D01*
X75624Y27498D01*
Y26499D01*
X76624Y25499D01*
X79623D01*
D17*
X16654Y8583D02*
Y16063D01*
X7598Y8583D02*
Y16063D01*
Y8583D02*
X16654D01*
X9173Y32598D02*
X15079D01*
X16654Y23937D02*
Y30630D01*
X7598D02*
X9173Y32598D01*
X15079D02*
X16654Y30630D01*
X7598Y23937D02*
Y30630D01*
X389154Y8583D02*
Y16063D01*
X380098Y8583D02*
Y16063D01*
Y8583D02*
X389154D01*
X381673Y32598D02*
X387579D01*
X389154Y23937D02*
Y30630D01*
X380098D02*
X381673Y32598D01*
X387579D02*
X389154Y30630D01*
X380098Y23937D02*
Y30630D01*
D18*
X384125Y19999D02*
X383626Y20499D01*
X382626D01*
X382126Y19999D01*
Y18000D01*
X382626Y17500D01*
X383626D01*
X384125Y18000D01*
X385125Y17500D02*
X386125D01*
X385625D01*
Y20499D01*
X385125Y19999D01*
X11625D02*
X11125Y20499D01*
X10126D01*
X9626Y19999D01*
Y18000D01*
X10126Y17500D01*
X11125D01*
X11625Y18000D01*
X14624Y17500D02*
X12625D01*
X14624Y19499D01*
Y19999D01*
X14124Y20499D01*
X13125D01*
X12625Y19999D01*
M02*
