G04 Layer_Color=8388736*
%FSLAX25Y25*%
%MOIN*%
G70*
G01*
G75*
%ADD38R,0.07493X0.08674*%
%ADD39R,0.06706X0.06706*%
%ADD40R,0.06706X0.06706*%
%ADD41O,0.06800X0.08800*%
%ADD42O,0.08800X0.06800*%
%ADD43O,0.04737X0.08674*%
%ADD44O,0.04737X0.08674*%
%ADD45C,0.06800*%
%ADD46O,0.12800X0.07800*%
%ADD47C,0.12611*%
%ADD48C,0.12800*%
%ADD49C,0.06706*%
%ADD50C,0.08674*%
%ADD51C,0.08800*%
%ADD52C,0.06312*%
%ADD53C,0.21745*%
%ADD54O,0.07800X0.12800*%
%ADD55C,0.05800*%
D38*
X146437Y202677D02*
D03*
X132264D02*
D03*
Y223937D02*
D03*
X146437D02*
D03*
D39*
X56937Y7047D02*
D03*
Y20827D02*
D03*
X101437Y47047D02*
D03*
Y60827D02*
D03*
X118937Y60827D02*
D03*
Y47047D02*
D03*
D40*
X31047Y7937D02*
D03*
X44827D02*
D03*
X128937Y153937D02*
D03*
Y168937D02*
D03*
Y183937D02*
D03*
D41*
X226279Y338937D02*
D03*
X216437D02*
D03*
X206594D02*
D03*
X181280D02*
D03*
X171437D02*
D03*
X161594D02*
D03*
X136279D02*
D03*
X126437D02*
D03*
X116595D02*
D03*
X91280D02*
D03*
X81437D02*
D03*
X71595D02*
D03*
X208622Y31437D02*
D03*
X198779D02*
D03*
X188937D02*
D03*
D42*
X233937Y206437D02*
D03*
Y216280D02*
D03*
Y173937D02*
D03*
Y183780D02*
D03*
Y141437D02*
D03*
Y151279D02*
D03*
X31437Y252224D02*
D03*
Y262067D02*
D03*
Y271909D02*
D03*
Y281752D02*
D03*
Y291595D02*
D03*
Y301437D02*
D03*
Y213937D02*
D03*
Y204095D02*
D03*
Y194252D02*
D03*
Y184409D02*
D03*
Y121437D02*
D03*
Y111594D02*
D03*
X233937Y76122D02*
D03*
Y66280D02*
D03*
Y56437D02*
D03*
Y118622D02*
D03*
Y108780D02*
D03*
Y98937D02*
D03*
D43*
X156437Y116437D02*
D03*
D44*
X151437D02*
D03*
X146437D02*
D03*
D45*
X46437Y153937D02*
D03*
Y163937D02*
D03*
Y173937D02*
D03*
Y183937D02*
D03*
Y193937D02*
D03*
Y203937D02*
D03*
Y213937D02*
D03*
Y223937D02*
D03*
X96437D02*
D03*
Y213937D02*
D03*
Y203937D02*
D03*
Y193937D02*
D03*
Y183937D02*
D03*
Y173937D02*
D03*
Y163937D02*
D03*
Y153937D02*
D03*
X43937Y88937D02*
D03*
X33937D02*
D03*
X53937D02*
D03*
X90921Y242500D02*
D03*
Y302500D02*
D03*
X100921D02*
D03*
X110921D02*
D03*
X120921D02*
D03*
X130921D02*
D03*
X140921D02*
D03*
X150921D02*
D03*
X160921D02*
D03*
X170921D02*
D03*
X180921D02*
D03*
X190921D02*
D03*
X200921D02*
D03*
X210921D02*
D03*
X220921D02*
D03*
Y242500D02*
D03*
X210921D02*
D03*
X200921D02*
D03*
X190921D02*
D03*
X180921D02*
D03*
X170921D02*
D03*
X160921D02*
D03*
X150921D02*
D03*
X140921D02*
D03*
X130921D02*
D03*
X120921D02*
D03*
X110921D02*
D03*
X100921D02*
D03*
D46*
X20937Y157823D02*
D03*
Y144437D02*
D03*
D47*
X30315Y38583D02*
D03*
Y71653D02*
D03*
D48*
X80709D02*
D03*
Y38583D02*
D03*
X59055D02*
D03*
Y55118D02*
D03*
Y71653D02*
D03*
X80709Y55118D02*
D03*
D49*
X138937Y153937D02*
D03*
X148937D02*
D03*
X138937Y168937D02*
D03*
X148937D02*
D03*
X138937Y183937D02*
D03*
X148937D02*
D03*
D50*
X58937Y101437D02*
D03*
X68937Y131437D02*
D03*
D51*
X118937D02*
D03*
Y101437D02*
D03*
D52*
X131437Y131437D02*
D03*
Y101437D02*
D03*
X43937Y131437D02*
D03*
Y101437D02*
D03*
D53*
X251969Y11811D02*
D03*
X11811D02*
D03*
X251969Y354331D02*
D03*
X11811D02*
D03*
D54*
X138051Y56437D02*
D03*
X151437D02*
D03*
D55*
X187500Y57500D02*
D03*
Y40000D02*
D03*
X120000Y225000D02*
D03*
X30000Y322500D02*
D03*
X93937Y68937D02*
D03*
X43307Y23622D02*
D03*
X216437Y123937D02*
D03*
X143937Y28937D02*
D03*
X91437Y326437D02*
D03*
X136437D02*
D03*
X181437D02*
D03*
X216437Y316437D02*
D03*
X148937Y193937D02*
D03*
X116437Y183937D02*
D03*
Y168937D02*
D03*
Y153937D02*
D03*
X166437Y116437D02*
D03*
X211437Y163937D02*
D03*
X196437Y86437D02*
D03*
X65000Y115000D02*
D03*
X35000Y167500D02*
D03*
X57500Y242500D02*
D03*
M02*
