G04 Layer_Physical_Order=1*
G04 Layer_Color=255*
%FSLAX25Y25*%
%MOIN*%
G70*
G01*
G75*
%ADD10R,0.06693X0.07874*%
%ADD11R,0.05906X0.05906*%
%ADD12R,0.05906X0.05906*%
%ADD13C,0.01969*%
%ADD14O,0.06000X0.08000*%
%ADD15O,0.08000X0.06000*%
%ADD16O,0.03937X0.07874*%
%ADD17O,0.03937X0.07874*%
%ADD18C,0.06000*%
%ADD19O,0.12000X0.07000*%
%ADD20C,0.11811*%
%ADD21C,0.12000*%
%ADD22C,0.05906*%
%ADD23C,0.07874*%
%ADD24C,0.08000*%
%ADD25C,0.05512*%
%ADD26C,0.20945*%
%ADD27O,0.07000X0.12000*%
%ADD28C,0.05000*%
G36*
X243973Y365479D02*
X244251Y364142D01*
X243122Y363177D01*
X241847Y361684D01*
X240821Y360011D01*
X240070Y358197D01*
X239612Y356288D01*
X239458Y354331D01*
X239612Y352374D01*
X240070Y350465D01*
X240821Y348651D01*
X241847Y346977D01*
X243122Y345484D01*
X244615Y344209D01*
X246289Y343183D01*
X248102Y342432D01*
X250011Y341974D01*
X251969Y341820D01*
X253926Y341974D01*
X255835Y342432D01*
X257648Y343183D01*
X259322Y344209D01*
X260815Y345484D01*
X261779Y346613D01*
X263117Y346335D01*
X263779Y345920D01*
Y20221D01*
X263117Y19807D01*
X261779Y19529D01*
X260815Y20658D01*
X259322Y21933D01*
X257648Y22958D01*
X255835Y23710D01*
X253926Y24168D01*
X251969Y24322D01*
X250011Y24168D01*
X248102Y23710D01*
X246289Y22958D01*
X244615Y21933D01*
X243122Y20658D01*
X241847Y19165D01*
X240821Y17491D01*
X240070Y15677D01*
X239612Y13768D01*
X239458Y11811D01*
X239612Y9854D01*
X240070Y7945D01*
X240821Y6131D01*
X241847Y4457D01*
X243122Y2964D01*
X244251Y2000D01*
X243973Y663D01*
X243558Y0D01*
X71963D01*
Y36410D01*
X73963Y36706D01*
X74210Y35891D01*
X74860Y34675D01*
X75735Y33609D01*
X76801Y32734D01*
X78017Y32084D01*
X79336Y31684D01*
X79709Y31647D01*
Y38583D01*
X80709D01*
Y39583D01*
X87644D01*
X87607Y39955D01*
X87207Y41274D01*
X86557Y42491D01*
X85682Y43556D01*
X84617Y44431D01*
X83400Y45081D01*
X82615Y45319D01*
X82541Y45739D01*
X82735Y47373D01*
X83785Y47691D01*
X85175Y48434D01*
X86393Y49434D01*
X87393Y50652D01*
X88135Y52042D01*
X88593Y53550D01*
X88747Y55118D01*
X88593Y56686D01*
X88135Y58194D01*
X87393Y59584D01*
X86393Y60802D01*
X85175Y61802D01*
X84272Y62284D01*
X84061Y63125D01*
Y63646D01*
X84272Y64487D01*
X85175Y64970D01*
X86393Y65969D01*
X87393Y67188D01*
X87568Y67516D01*
X88400Y67619D01*
X89734Y67325D01*
X90006Y66668D01*
X90728Y65728D01*
X91668Y65006D01*
X92762Y64553D01*
X93937Y64398D01*
X94484Y64470D01*
X96006Y63512D01*
X96484Y62957D01*
Y55874D01*
X106390D01*
Y65780D01*
X105456D01*
Y66437D01*
X105319Y67477D01*
X104917Y68446D01*
X104279Y69279D01*
X101779Y71779D01*
X100946Y72417D01*
X99977Y72819D01*
X98937Y72956D01*
X95994D01*
X95112Y73321D01*
X93937Y73476D01*
X92762Y73321D01*
X91668Y72868D01*
X90728Y72146D01*
X90711Y72124D01*
X88643Y72715D01*
X88593Y73222D01*
X88135Y74730D01*
X87393Y76120D01*
X86393Y77338D01*
X85175Y78338D01*
X83785Y79080D01*
X82277Y79538D01*
X80709Y79692D01*
X79140Y79538D01*
X77632Y79080D01*
X76243Y78338D01*
X75024Y77338D01*
X74025Y76120D01*
X73963Y76004D01*
X71963Y76505D01*
Y85911D01*
X86437D01*
X87220Y86014D01*
X87950Y86317D01*
X88577Y86797D01*
X89057Y87424D01*
X89360Y88154D01*
X89463Y88937D01*
Y141437D01*
X89360Y142220D01*
X89057Y142950D01*
X88577Y143577D01*
X87950Y144058D01*
X87220Y144360D01*
X86437Y144463D01*
X61963D01*
Y208937D01*
X61860Y209720D01*
X61558Y210450D01*
X61077Y211077D01*
X60450Y211558D01*
X59720Y211860D01*
X58937Y211963D01*
X53156D01*
X53015Y212014D01*
X51480Y213937D01*
X51308Y215242D01*
X50805Y216459D01*
X50003Y217503D01*
X48959Y218304D01*
X48738Y218396D01*
X48557Y219702D01*
X48653Y220596D01*
X49290Y221084D01*
X49931Y221920D01*
X50334Y222893D01*
X50340Y222937D01*
X46437D01*
X42534D01*
X42540Y222893D01*
X42943Y221920D01*
X43584Y221084D01*
X44221Y220596D01*
X44317Y219702D01*
X44136Y218396D01*
X43915Y218304D01*
X42871Y217503D01*
X42070Y216459D01*
X41566Y215242D01*
X41394Y213937D01*
X40652Y213007D01*
X38222D01*
X37480Y213937D01*
X37308Y215242D01*
X36805Y216459D01*
X36003Y217503D01*
X34959Y218304D01*
X33742Y218808D01*
X32437Y218980D01*
X30437D01*
X29132Y218808D01*
X27915Y218304D01*
X26871Y217503D01*
X26070Y216459D01*
X25566Y215242D01*
X25394Y213937D01*
X23859Y212014D01*
X23718Y211963D01*
X0D01*
Y345920D01*
X663Y346335D01*
X2000Y346613D01*
X2964Y345484D01*
X4457Y344209D01*
X6131Y343183D01*
X7945Y342432D01*
X9854Y341974D01*
X11811Y341820D01*
X13768Y341974D01*
X15677Y342432D01*
X17491Y343183D01*
X19165Y344209D01*
X20658Y345484D01*
X21933Y346977D01*
X22958Y348651D01*
X23710Y350465D01*
X24168Y352374D01*
X24322Y354331D01*
X24168Y356288D01*
X23710Y358197D01*
X22958Y360011D01*
X21933Y361684D01*
X20658Y363177D01*
X19529Y364142D01*
X19807Y365479D01*
X20221Y366142D01*
X243558D01*
X243973Y365479D01*
D02*
G37*
G36*
X58937Y141437D02*
X86437D01*
Y88937D01*
X68937D01*
Y73344D01*
X66939Y73222D01*
X66482Y74730D01*
X65739Y76120D01*
X64739Y77338D01*
X63521Y78338D01*
X62131Y79080D01*
X60623Y79538D01*
X59055Y79692D01*
X57487Y79538D01*
X55979Y79080D01*
X54589Y78338D01*
X53371Y77338D01*
X52371Y76120D01*
X51628Y74730D01*
X51171Y73222D01*
X51016Y71653D01*
X51171Y70085D01*
X51628Y68577D01*
X52371Y67188D01*
X53371Y65969D01*
X54589Y64970D01*
X55492Y64487D01*
X55703Y63646D01*
Y63125D01*
X55492Y62284D01*
X54589Y61802D01*
X53371Y60802D01*
X52371Y59584D01*
X51628Y58194D01*
X51171Y56686D01*
X51016Y55118D01*
X51171Y53550D01*
X51628Y52042D01*
X52371Y50652D01*
X53371Y49434D01*
X54589Y48434D01*
X55979Y47691D01*
X57029Y47373D01*
X57223Y45739D01*
X57149Y45319D01*
X56363Y45081D01*
X55147Y44431D01*
X54081Y43556D01*
X53207Y42491D01*
X52557Y41274D01*
X52156Y39955D01*
X52120Y39583D01*
X59055D01*
X65991D01*
X65954Y39955D01*
X65554Y41274D01*
X64904Y42491D01*
X64029Y43556D01*
X62963Y44431D01*
X61747Y45081D01*
X60961Y45319D01*
X60887Y45739D01*
X61082Y47373D01*
X62131Y47691D01*
X63521Y48434D01*
X64739Y49434D01*
X65739Y50652D01*
X66482Y52042D01*
X66939Y53550D01*
X68937Y53428D01*
Y-0D01*
X20221D01*
X19807Y663D01*
X19529Y2000D01*
X20658Y2964D01*
X21933Y4457D01*
X22958Y6131D01*
X23710Y7945D01*
X24168Y9854D01*
X24322Y11811D01*
X24168Y13768D01*
X23710Y15677D01*
X22958Y17491D01*
X21933Y19165D01*
X20658Y20658D01*
X19165Y21933D01*
X17491Y22958D01*
X15677Y23710D01*
X13768Y24168D01*
X11811Y24322D01*
X9854Y24168D01*
X7945Y23710D01*
X6131Y22958D01*
X4457Y21933D01*
X2964Y20658D01*
X2000Y19528D01*
X663Y19807D01*
X-0Y20221D01*
Y208937D01*
X25386D01*
X26316Y206937D01*
X26070Y206616D01*
X25566Y205400D01*
X25394Y204095D01*
X25566Y202789D01*
X26070Y201573D01*
X26871Y200528D01*
X27064Y200381D01*
X27138Y200228D01*
Y198119D01*
X27064Y197966D01*
X26871Y197818D01*
X26070Y196774D01*
X25566Y195557D01*
X25394Y194252D01*
X25566Y192947D01*
X26070Y191730D01*
X26871Y190686D01*
X27064Y190538D01*
X27138Y190385D01*
Y188276D01*
X27064Y188123D01*
X26871Y187976D01*
X26070Y186931D01*
X25566Y185715D01*
X25394Y184409D01*
X25566Y183104D01*
X26070Y181888D01*
X26871Y180843D01*
X27915Y180042D01*
X29132Y179538D01*
X30437Y179366D01*
X32437D01*
X33742Y179538D01*
X34959Y180042D01*
X36003Y180843D01*
X36805Y181888D01*
X37308Y183104D01*
X37480Y184409D01*
X37308Y185715D01*
X36805Y186931D01*
X36003Y187976D01*
X35811Y188123D01*
X35737Y188276D01*
Y190385D01*
X35811Y190538D01*
X36003Y190686D01*
X36805Y191730D01*
X37308Y192947D01*
X37480Y194252D01*
X37308Y195557D01*
X36805Y196774D01*
X36003Y197818D01*
X35811Y197966D01*
X35737Y198119D01*
Y200228D01*
X35811Y200381D01*
X36003Y200528D01*
X36805Y201573D01*
X37308Y202789D01*
X37480Y204095D01*
X37308Y205400D01*
X36805Y206616D01*
X36558Y206937D01*
X37488Y208937D01*
X41565D01*
X41729Y208757D01*
X42437Y206937D01*
X42070Y206459D01*
X41566Y205242D01*
X41394Y203937D01*
X41566Y202632D01*
X42070Y201415D01*
X42871Y200371D01*
X43154Y200154D01*
X43290Y199824D01*
Y198050D01*
X43154Y197720D01*
X42871Y197503D01*
X42070Y196459D01*
X41566Y195242D01*
X41394Y193937D01*
X41566Y192632D01*
X42070Y191415D01*
X42871Y190371D01*
X43154Y190154D01*
X43290Y189824D01*
Y188050D01*
X43154Y187720D01*
X42871Y187503D01*
X42070Y186459D01*
X41566Y185242D01*
X41394Y183937D01*
X41566Y182632D01*
X42070Y181415D01*
X42871Y180371D01*
X43154Y180154D01*
X43290Y179824D01*
Y178050D01*
X43154Y177720D01*
X42871Y177503D01*
X42070Y176459D01*
X41566Y175242D01*
X41394Y173937D01*
X41566Y172632D01*
X42070Y171415D01*
X42871Y170371D01*
X43915Y169570D01*
X44136Y169478D01*
X44317Y168172D01*
X44221Y167278D01*
X43584Y166790D01*
X42943Y165954D01*
X42540Y164981D01*
X42534Y164937D01*
X46437D01*
X50340D01*
X50334Y164981D01*
X49931Y165954D01*
X49290Y166790D01*
X48653Y167278D01*
X48557Y168172D01*
X48738Y169478D01*
X48959Y169570D01*
X50003Y170371D01*
X50805Y171415D01*
X51308Y172632D01*
X51480Y173937D01*
X51308Y175242D01*
X50805Y176459D01*
X50003Y177503D01*
X49720Y177720D01*
X49584Y178050D01*
Y179824D01*
X49720Y180154D01*
X50003Y180371D01*
X50805Y181415D01*
X51308Y182632D01*
X51480Y183937D01*
X51308Y185242D01*
X50805Y186459D01*
X50003Y187503D01*
X49720Y187720D01*
X49584Y188050D01*
Y189824D01*
X49720Y190154D01*
X50003Y190371D01*
X50805Y191415D01*
X51308Y192632D01*
X51480Y193937D01*
X51308Y195242D01*
X50805Y196459D01*
X50003Y197503D01*
X49720Y197720D01*
X49584Y198050D01*
Y199824D01*
X49720Y200154D01*
X50003Y200371D01*
X50805Y201415D01*
X51308Y202632D01*
X51480Y203937D01*
X51308Y205242D01*
X50805Y206459D01*
X50437Y206937D01*
X51145Y208757D01*
X51309Y208937D01*
X58937D01*
Y141437D01*
D02*
G37*
G36*
X74025Y67188D02*
X75024Y65969D01*
X76243Y64970D01*
X77145Y64487D01*
X77356Y63646D01*
Y63125D01*
X77145Y62284D01*
X76243Y61802D01*
X75024Y60802D01*
X74025Y59584D01*
X73963Y59469D01*
X71963Y59970D01*
Y66802D01*
X73963Y67303D01*
X74025Y67188D01*
D02*
G37*
G36*
X68937Y69963D02*
Y56809D01*
X66939Y56686D01*
X66482Y58194D01*
X65739Y59584D01*
X64739Y60802D01*
X63521Y61802D01*
X62619Y62284D01*
X62408Y63125D01*
Y63646D01*
X62619Y64487D01*
X63521Y64970D01*
X64739Y65969D01*
X65739Y67188D01*
X66482Y68577D01*
X66939Y70085D01*
X68937Y69963D01*
D02*
G37*
G36*
X74025Y50652D02*
X75024Y49434D01*
X76243Y48434D01*
X77632Y47691D01*
X78682Y47373D01*
X78876Y45739D01*
X78802Y45319D01*
X78017Y45081D01*
X76801Y44431D01*
X75735Y43556D01*
X74860Y42491D01*
X74210Y41274D01*
X73963Y40459D01*
X71963Y40756D01*
Y50267D01*
X73963Y50768D01*
X74025Y50652D01*
D02*
G37*
%LPC*%
G36*
X226279Y344980D02*
X224974Y344808D01*
X223758Y344304D01*
X222713Y343503D01*
X222566Y343310D01*
X222413Y343236D01*
X220304D01*
X220151Y343310D01*
X220003Y343503D01*
X218959Y344304D01*
X217742Y344808D01*
X216437Y344980D01*
X215132Y344808D01*
X213915Y344304D01*
X212871Y343503D01*
X212070Y342459D01*
X212057Y342428D01*
X211144Y342209D01*
X209834Y342287D01*
X209447Y342790D01*
X208612Y343431D01*
X207639Y343834D01*
X207594Y343840D01*
Y338937D01*
Y334034D01*
X207639Y334040D01*
X208612Y334443D01*
X209447Y335084D01*
X209834Y335587D01*
X211144Y335665D01*
X212057Y335446D01*
X212070Y335415D01*
X212871Y334371D01*
X213915Y333570D01*
X215132Y333066D01*
X216437Y332894D01*
X217742Y333066D01*
X218959Y333570D01*
X220003Y334371D01*
X220151Y334563D01*
X220304Y334637D01*
X222413D01*
X222566Y334563D01*
X222713Y334371D01*
X223758Y333570D01*
X224974Y333066D01*
X226279Y332894D01*
X227585Y333066D01*
X228801Y333570D01*
X229846Y334371D01*
X230647Y335415D01*
X231151Y336632D01*
X231323Y337937D01*
Y339937D01*
X231151Y341242D01*
X230647Y342459D01*
X229846Y343503D01*
X228801Y344304D01*
X227585Y344808D01*
X226279Y344980D01*
D02*
G37*
G36*
X181280D02*
X179974Y344808D01*
X178758Y344304D01*
X177714Y343503D01*
X177566Y343310D01*
X177413Y343236D01*
X175304D01*
X175151Y343310D01*
X175003Y343503D01*
X173959Y344304D01*
X172742Y344808D01*
X171437Y344980D01*
X170132Y344808D01*
X168915Y344304D01*
X167871Y343503D01*
X167069Y342459D01*
X167057Y342428D01*
X166144Y342209D01*
X164833Y342287D01*
X164447Y342790D01*
X163612Y343431D01*
X162639Y343834D01*
X162594Y343840D01*
Y338937D01*
Y334034D01*
X162639Y334040D01*
X163612Y334443D01*
X164447Y335084D01*
X164833Y335587D01*
X166144Y335665D01*
X167057Y335446D01*
X167069Y335415D01*
X167871Y334371D01*
X168915Y333570D01*
X170132Y333066D01*
X171437Y332894D01*
X172742Y333066D01*
X173959Y333570D01*
X175003Y334371D01*
X175151Y334563D01*
X175304Y334637D01*
X177413D01*
X177566Y334563D01*
X177714Y334371D01*
X178758Y333570D01*
X179974Y333066D01*
X181280Y332894D01*
X182585Y333066D01*
X183801Y333570D01*
X184846Y334371D01*
X185647Y335415D01*
X186151Y336632D01*
X186323Y337937D01*
Y339937D01*
X186151Y341242D01*
X185647Y342459D01*
X184846Y343503D01*
X183801Y344304D01*
X182585Y344808D01*
X181280Y344980D01*
D02*
G37*
G36*
X136279D02*
X134974Y344808D01*
X133758Y344304D01*
X132713Y343503D01*
X132566Y343310D01*
X132413Y343236D01*
X130304D01*
X130151Y343310D01*
X130003Y343503D01*
X128959Y344304D01*
X127742Y344808D01*
X126437Y344980D01*
X125132Y344808D01*
X123915Y344304D01*
X122871Y343503D01*
X122070Y342459D01*
X122057Y342428D01*
X121144Y342209D01*
X119834Y342287D01*
X119447Y342790D01*
X118612Y343431D01*
X117639Y343834D01*
X117595Y343840D01*
Y338937D01*
Y334034D01*
X117639Y334040D01*
X118612Y334443D01*
X119447Y335084D01*
X119834Y335587D01*
X121144Y335665D01*
X122057Y335446D01*
X122070Y335415D01*
X122871Y334371D01*
X123915Y333570D01*
X125132Y333066D01*
X126437Y332894D01*
X127742Y333066D01*
X128959Y333570D01*
X130003Y334371D01*
X130151Y334563D01*
X130304Y334637D01*
X132413D01*
X132566Y334563D01*
X132713Y334371D01*
X133758Y333570D01*
X134974Y333066D01*
X136279Y332894D01*
X137585Y333066D01*
X138801Y333570D01*
X139846Y334371D01*
X140647Y335415D01*
X141151Y336632D01*
X141323Y337937D01*
Y339937D01*
X141151Y341242D01*
X140647Y342459D01*
X139846Y343503D01*
X138801Y344304D01*
X137585Y344808D01*
X136279Y344980D01*
D02*
G37*
G36*
X91280D02*
X89974Y344808D01*
X88758Y344304D01*
X87713Y343503D01*
X87566Y343310D01*
X87413Y343236D01*
X85304D01*
X85151Y343310D01*
X85003Y343503D01*
X83959Y344304D01*
X82742Y344808D01*
X81437Y344980D01*
X80132Y344808D01*
X78915Y344304D01*
X77871Y343503D01*
X77069Y342459D01*
X77057Y342428D01*
X76144Y342209D01*
X74834Y342287D01*
X74447Y342790D01*
X73612Y343431D01*
X72639Y343834D01*
X72594Y343840D01*
Y338937D01*
Y334034D01*
X72639Y334040D01*
X73612Y334443D01*
X74447Y335084D01*
X74834Y335587D01*
X76144Y335665D01*
X77057Y335446D01*
X77069Y335415D01*
X77871Y334371D01*
X78915Y333570D01*
X80132Y333066D01*
X81437Y332894D01*
X82742Y333066D01*
X83959Y333570D01*
X85003Y334371D01*
X85151Y334563D01*
X85304Y334637D01*
X87413D01*
X87566Y334563D01*
X87713Y334371D01*
X88758Y333570D01*
X89974Y333066D01*
X91280Y332894D01*
X92585Y333066D01*
X93801Y333570D01*
X94846Y334371D01*
X95647Y335415D01*
X96151Y336632D01*
X96323Y337937D01*
Y339937D01*
X96151Y341242D01*
X95647Y342459D01*
X94846Y343503D01*
X93801Y344304D01*
X92585Y344808D01*
X91280Y344980D01*
D02*
G37*
G36*
X115594Y343840D02*
X115550Y343834D01*
X114577Y343431D01*
X113742Y342790D01*
X113101Y341954D01*
X112697Y340981D01*
X112560Y339937D01*
D01*
X115594D01*
Y343840D01*
D02*
G37*
G36*
X160594D02*
X160550Y343834D01*
X159577Y343431D01*
X158742Y342790D01*
X158100Y341954D01*
X157697Y340981D01*
X157560Y339937D01*
D01*
X160594D01*
Y343840D01*
D02*
G37*
G36*
X70595D02*
X70550Y343834D01*
X69577Y343431D01*
X68742Y342790D01*
X68101Y341954D01*
X67697Y340981D01*
X67560Y339937D01*
D01*
X70595D01*
Y343840D01*
D02*
G37*
G36*
X205594D02*
X205550Y343834D01*
X204577Y343431D01*
X203742Y342790D01*
X203100Y341954D01*
X202697Y340981D01*
X202560Y339937D01*
D01*
X205594D01*
Y343840D01*
D02*
G37*
G36*
Y337937D02*
X202560D01*
X202697Y336893D01*
X203100Y335920D01*
X203742Y335084D01*
X204577Y334443D01*
X205550Y334040D01*
X205594Y334034D01*
Y337937D01*
D02*
G37*
G36*
X160594D02*
X157560D01*
X157697Y336893D01*
X158100Y335920D01*
X158742Y335084D01*
X159577Y334443D01*
X160550Y334040D01*
X160594Y334034D01*
Y337937D01*
D02*
G37*
G36*
X115594D02*
X112560D01*
X112697Y336893D01*
X113101Y335920D01*
X113742Y335084D01*
X114577Y334443D01*
X115550Y334040D01*
X115594Y334034D01*
Y337937D01*
D02*
G37*
G36*
X70595D02*
X67560D01*
X67697Y336893D01*
X68101Y335920D01*
X68742Y335084D01*
X69577Y334443D01*
X70550Y334040D01*
X70595Y334034D01*
Y337937D01*
D02*
G37*
G36*
X182437Y329811D02*
Y327437D01*
X184811D01*
X184494Y328202D01*
X183933Y328933D01*
X183202Y329494D01*
X182437Y329811D01*
D02*
G37*
G36*
X180437D02*
X179672Y329494D01*
X178941Y328933D01*
X178380Y328202D01*
X178063Y327437D01*
X180437D01*
Y329811D01*
D02*
G37*
G36*
X137437D02*
Y327437D01*
X139811D01*
X139494Y328202D01*
X138933Y328933D01*
X138202Y329494D01*
X137437Y329811D01*
D02*
G37*
G36*
X135437D02*
X134672Y329494D01*
X133941Y328933D01*
X133380Y328202D01*
X133063Y327437D01*
X135437D01*
Y329811D01*
D02*
G37*
G36*
X92437D02*
Y327437D01*
X94811D01*
X94494Y328202D01*
X93933Y328933D01*
X93202Y329494D01*
X92437Y329811D01*
D02*
G37*
G36*
X90437D02*
X89672Y329494D01*
X88941Y328933D01*
X88380Y328202D01*
X88063Y327437D01*
X90437D01*
Y329811D01*
D02*
G37*
G36*
X31000Y325874D02*
Y323500D01*
X33374D01*
X33057Y324265D01*
X32496Y324996D01*
X31765Y325557D01*
X31000Y325874D01*
D02*
G37*
G36*
X29000D02*
X28235Y325557D01*
X27504Y324996D01*
X26943Y324265D01*
X26626Y323500D01*
X29000D01*
Y325874D01*
D02*
G37*
G36*
X184811Y325437D02*
X182437D01*
Y323063D01*
X183202Y323380D01*
X183933Y323941D01*
X184494Y324672D01*
X184811Y325437D01*
D02*
G37*
G36*
X180437D02*
X178063D01*
X178380Y324672D01*
X178941Y323941D01*
X179672Y323380D01*
X180437Y323063D01*
Y325437D01*
D02*
G37*
G36*
X139811D02*
X137437D01*
Y323063D01*
X138202Y323380D01*
X138933Y323941D01*
X139494Y324672D01*
X139811Y325437D01*
D02*
G37*
G36*
X135437D02*
X133063D01*
X133380Y324672D01*
X133941Y323941D01*
X134672Y323380D01*
X135437Y323063D01*
Y325437D01*
D02*
G37*
G36*
X94811D02*
X92437D01*
Y323063D01*
X93202Y323380D01*
X93933Y323941D01*
X94494Y324672D01*
X94811Y325437D01*
D02*
G37*
G36*
X90437D02*
X88063D01*
X88380Y324672D01*
X88941Y323941D01*
X89672Y323380D01*
X90437Y323063D01*
Y325437D01*
D02*
G37*
G36*
X33374Y321500D02*
X31000D01*
Y319126D01*
X31765Y319443D01*
X32496Y320004D01*
X33057Y320735D01*
X33374Y321500D01*
D02*
G37*
G36*
X29000D02*
X26626D01*
X26943Y320735D01*
X27504Y320004D01*
X28235Y319443D01*
X29000Y319126D01*
Y321500D01*
D02*
G37*
G36*
X217437Y319811D02*
Y317437D01*
X219811D01*
X219494Y318202D01*
X218933Y318933D01*
X218202Y319494D01*
X217437Y319811D01*
D02*
G37*
G36*
X215437D02*
X214672Y319494D01*
X213941Y318933D01*
X213380Y318202D01*
X213063Y317437D01*
X215437D01*
Y319811D01*
D02*
G37*
G36*
X219811Y315437D02*
X217437D01*
Y313063D01*
X218202Y313380D01*
X218933Y313941D01*
X219494Y314672D01*
X219811Y315437D01*
D02*
G37*
G36*
X215437D02*
X213063D01*
X213380Y314672D01*
X213941Y313941D01*
X214672Y313380D01*
X215437Y313063D01*
Y315437D01*
D02*
G37*
G36*
X220921Y307543D02*
X219616Y307371D01*
X218400Y306868D01*
X217355Y306066D01*
X217138Y305783D01*
X216809Y305647D01*
X215034D01*
X214704Y305783D01*
X214487Y306066D01*
X213443Y306868D01*
X212227Y307371D01*
X210921Y307543D01*
X209616Y307371D01*
X208400Y306868D01*
X207355Y306066D01*
X207138Y305783D01*
X206809Y305647D01*
X205034D01*
X204704Y305783D01*
X204487Y306066D01*
X203443Y306868D01*
X202226Y307371D01*
X200921Y307543D01*
X199616Y307371D01*
X198400Y306868D01*
X197355Y306066D01*
X197138Y305783D01*
X196809Y305647D01*
X195034D01*
X194704Y305783D01*
X194487Y306066D01*
X193443Y306868D01*
X192227Y307371D01*
X190921Y307543D01*
X189616Y307371D01*
X188400Y306868D01*
X187355Y306066D01*
X187138Y305783D01*
X186809Y305647D01*
X185034D01*
X184704Y305783D01*
X184487Y306066D01*
X183443Y306868D01*
X182227Y307371D01*
X180921Y307543D01*
X179616Y307371D01*
X178400Y306868D01*
X177355Y306066D01*
X177138Y305783D01*
X176809Y305647D01*
X175034D01*
X174704Y305783D01*
X174487Y306066D01*
X173443Y306868D01*
X172227Y307371D01*
X170921Y307543D01*
X169616Y307371D01*
X168400Y306868D01*
X167355Y306066D01*
X167138Y305783D01*
X166809Y305647D01*
X165034D01*
X164704Y305783D01*
X164487Y306066D01*
X163443Y306868D01*
X162226Y307371D01*
X160921Y307543D01*
X159616Y307371D01*
X158400Y306868D01*
X157355Y306066D01*
X157138Y305783D01*
X156809Y305647D01*
X155034D01*
X154704Y305783D01*
X154487Y306066D01*
X153443Y306868D01*
X152226Y307371D01*
X150921Y307543D01*
X149616Y307371D01*
X148400Y306868D01*
X147355Y306066D01*
X147138Y305783D01*
X146809Y305647D01*
X145034D01*
X144704Y305783D01*
X144487Y306066D01*
X143443Y306868D01*
X142227Y307371D01*
X140921Y307543D01*
X139616Y307371D01*
X138400Y306868D01*
X137355Y306066D01*
X137138Y305783D01*
X136809Y305647D01*
X135034D01*
X134704Y305783D01*
X134487Y306066D01*
X133443Y306868D01*
X132227Y307371D01*
X130921Y307543D01*
X129616Y307371D01*
X128400Y306868D01*
X127355Y306066D01*
X127138Y305783D01*
X126809Y305647D01*
X125034D01*
X124704Y305783D01*
X124487Y306066D01*
X123443Y306868D01*
X122227Y307371D01*
X120921Y307543D01*
X119616Y307371D01*
X118400Y306868D01*
X117355Y306066D01*
X117138Y305783D01*
X116809Y305647D01*
X115034D01*
X114704Y305783D01*
X114487Y306066D01*
X113443Y306868D01*
X112226Y307371D01*
X110921Y307543D01*
X109616Y307371D01*
X108400Y306868D01*
X107355Y306066D01*
X107138Y305783D01*
X106809Y305647D01*
X105034D01*
X104704Y305783D01*
X104487Y306066D01*
X103443Y306868D01*
X102226Y307371D01*
X100921Y307543D01*
X99616Y307371D01*
X98400Y306868D01*
X97355Y306066D01*
X97138Y305783D01*
X96809Y305647D01*
X95034D01*
X94704Y305783D01*
X94487Y306066D01*
X93443Y306868D01*
X92226Y307371D01*
X90921Y307543D01*
X89616Y307371D01*
X88400Y306868D01*
X87355Y306066D01*
X86554Y305022D01*
X86050Y303805D01*
X85878Y302500D01*
X86050Y301195D01*
X86554Y299978D01*
X87355Y298934D01*
X88400Y298132D01*
X89616Y297629D01*
X90921Y297457D01*
X92226Y297629D01*
X93443Y298132D01*
X94487Y298934D01*
X94704Y299217D01*
X95034Y299353D01*
X96809D01*
X97138Y299217D01*
X97355Y298934D01*
X98400Y298132D01*
X99616Y297629D01*
X100921Y297457D01*
X102226Y297629D01*
X103443Y298132D01*
X104487Y298934D01*
X104704Y299217D01*
X105034Y299353D01*
X106809D01*
X107138Y299217D01*
X107355Y298934D01*
X108400Y298132D01*
X109616Y297629D01*
X110921Y297457D01*
X112226Y297629D01*
X113443Y298132D01*
X114487Y298934D01*
X114704Y299217D01*
X115034Y299353D01*
X116809D01*
X117138Y299217D01*
X117355Y298934D01*
X118400Y298132D01*
X119616Y297629D01*
X120921Y297457D01*
X122227Y297629D01*
X123443Y298132D01*
X124487Y298934D01*
X124704Y299217D01*
X125034Y299353D01*
X126809D01*
X127138Y299217D01*
X127355Y298934D01*
X128400Y298132D01*
X129616Y297629D01*
X130921Y297457D01*
X132227Y297629D01*
X133443Y298132D01*
X134487Y298934D01*
X134704Y299217D01*
X135034Y299353D01*
X136809D01*
X137138Y299217D01*
X137355Y298934D01*
X138400Y298132D01*
X139616Y297629D01*
X140921Y297457D01*
X142227Y297629D01*
X143443Y298132D01*
X144487Y298934D01*
X144704Y299217D01*
X145034Y299353D01*
X146809D01*
X147138Y299217D01*
X147355Y298934D01*
X148400Y298132D01*
X149616Y297629D01*
X150921Y297457D01*
X152226Y297629D01*
X153443Y298132D01*
X154487Y298934D01*
X154704Y299217D01*
X155034Y299353D01*
X156809D01*
X157138Y299217D01*
X157355Y298934D01*
X158400Y298132D01*
X159616Y297629D01*
X160921Y297457D01*
X162226Y297629D01*
X163443Y298132D01*
X164487Y298934D01*
X164704Y299217D01*
X165034Y299353D01*
X166809D01*
X167138Y299217D01*
X167355Y298934D01*
X168400Y298132D01*
X169616Y297629D01*
X170921Y297457D01*
X172227Y297629D01*
X173443Y298132D01*
X174487Y298934D01*
X174704Y299217D01*
X175034Y299353D01*
X176809D01*
X177138Y299217D01*
X177355Y298934D01*
X178400Y298132D01*
X179616Y297629D01*
X180921Y297457D01*
X182227Y297629D01*
X183443Y298132D01*
X184487Y298934D01*
X184704Y299217D01*
X185034Y299353D01*
X186809D01*
X187138Y299217D01*
X187355Y298934D01*
X188400Y298132D01*
X189616Y297629D01*
X190921Y297457D01*
X192227Y297629D01*
X193443Y298132D01*
X194487Y298934D01*
X194704Y299217D01*
X195034Y299353D01*
X196809D01*
X197138Y299217D01*
X197355Y298934D01*
X198400Y298132D01*
X199616Y297629D01*
X200921Y297457D01*
X202226Y297629D01*
X203443Y298132D01*
X204487Y298934D01*
X204704Y299217D01*
X205034Y299353D01*
X206809D01*
X207138Y299217D01*
X207355Y298934D01*
X208400Y298132D01*
X209616Y297629D01*
X210921Y297457D01*
X212227Y297629D01*
X213443Y298132D01*
X214487Y298934D01*
X214704Y299217D01*
X215034Y299353D01*
X216809D01*
X217138Y299217D01*
X217355Y298934D01*
X218400Y298132D01*
X219616Y297629D01*
X220921Y297457D01*
X222227Y297629D01*
X223443Y298132D01*
X224487Y298934D01*
X225289Y299978D01*
X225793Y301195D01*
X225964Y302500D01*
X225793Y303805D01*
X225289Y305022D01*
X224487Y306066D01*
X223443Y306868D01*
X222227Y307371D01*
X220921Y307543D01*
D02*
G37*
G36*
X32437Y305471D02*
D01*
Y302437D01*
X36340D01*
X36334Y302481D01*
X35931Y303454D01*
X35290Y304290D01*
X34454Y304931D01*
X33481Y305334D01*
X32437Y305471D01*
D02*
G37*
G36*
X30437D02*
X29393Y305334D01*
X28420Y304931D01*
X27584Y304290D01*
X26943Y303454D01*
X26540Y302481D01*
X26534Y302437D01*
X30437D01*
Y305471D01*
D02*
G37*
G36*
X36340Y300437D02*
X31437D01*
X26534D01*
X26540Y300393D01*
X26943Y299420D01*
X27584Y298584D01*
X28087Y298198D01*
X28166Y296887D01*
X27946Y295974D01*
X27915Y295962D01*
X26871Y295161D01*
X26070Y294116D01*
X25566Y292900D01*
X25394Y291595D01*
X25566Y290289D01*
X26070Y289073D01*
X26871Y288029D01*
X27064Y287881D01*
X27138Y287728D01*
Y285619D01*
X27064Y285466D01*
X26871Y285318D01*
X26070Y284274D01*
X25566Y283057D01*
X25394Y281752D01*
X25566Y280447D01*
X26070Y279230D01*
X26871Y278186D01*
X27064Y278038D01*
X27138Y277885D01*
Y275776D01*
X27064Y275623D01*
X26871Y275476D01*
X26070Y274431D01*
X25566Y273215D01*
X25394Y271909D01*
X25566Y270604D01*
X26070Y269388D01*
X26871Y268343D01*
X27064Y268196D01*
X27138Y268043D01*
Y265934D01*
X27064Y265781D01*
X26871Y265633D01*
X26070Y264588D01*
X25566Y263372D01*
X25394Y262067D01*
X25566Y260762D01*
X26070Y259545D01*
X26871Y258501D01*
X27064Y258353D01*
X27138Y258200D01*
Y256091D01*
X27064Y255938D01*
X26871Y255790D01*
X26070Y254746D01*
X25566Y253530D01*
X25394Y252224D01*
X25566Y250919D01*
X26070Y249703D01*
X26871Y248658D01*
X27915Y247857D01*
X29132Y247353D01*
X30437Y247181D01*
X32437D01*
X33742Y247353D01*
X34959Y247857D01*
X36003Y248658D01*
X36805Y249703D01*
X37308Y250919D01*
X37480Y252224D01*
X37308Y253530D01*
X36805Y254746D01*
X36003Y255790D01*
X35811Y255938D01*
X35737Y256091D01*
Y258200D01*
X35811Y258353D01*
X36003Y258501D01*
X36805Y259545D01*
X37308Y260762D01*
X37480Y262067D01*
X37308Y263372D01*
X36805Y264588D01*
X36003Y265633D01*
X35811Y265781D01*
X35737Y265934D01*
Y268043D01*
X35811Y268196D01*
X36003Y268343D01*
X36805Y269388D01*
X37308Y270604D01*
X37480Y271909D01*
X37308Y273215D01*
X36805Y274431D01*
X36003Y275476D01*
X35811Y275623D01*
X35737Y275776D01*
Y277885D01*
X35811Y278038D01*
X36003Y278186D01*
X36805Y279230D01*
X37308Y280447D01*
X37480Y281752D01*
X37308Y283057D01*
X36805Y284274D01*
X36003Y285318D01*
X35811Y285466D01*
X35737Y285619D01*
Y287728D01*
X35811Y287881D01*
X36003Y288029D01*
X36805Y289073D01*
X37308Y290289D01*
X37480Y291595D01*
X37308Y292900D01*
X36805Y294116D01*
X36003Y295161D01*
X34959Y295962D01*
X34928Y295974D01*
X34708Y296887D01*
X34787Y298198D01*
X35290Y298584D01*
X35931Y299420D01*
X36334Y300393D01*
X36340Y300437D01*
D02*
G37*
G36*
X220921Y247543D02*
X219616Y247371D01*
X218400Y246867D01*
X217355Y246066D01*
X217138Y245783D01*
X216809Y245647D01*
X215034D01*
X214704Y245783D01*
X214487Y246066D01*
X213443Y246867D01*
X212227Y247371D01*
X210921Y247543D01*
X209616Y247371D01*
X208400Y246867D01*
X207355Y246066D01*
X207138Y245783D01*
X206809Y245647D01*
X205034D01*
X204704Y245783D01*
X204487Y246066D01*
X203443Y246867D01*
X202226Y247371D01*
X200921Y247543D01*
X199616Y247371D01*
X198400Y246867D01*
X197355Y246066D01*
X197138Y245783D01*
X196809Y245647D01*
X195034D01*
X194704Y245783D01*
X194487Y246066D01*
X193443Y246867D01*
X192227Y247371D01*
X190921Y247543D01*
X189616Y247371D01*
X188400Y246867D01*
X187355Y246066D01*
X187138Y245783D01*
X186809Y245647D01*
X185034D01*
X184704Y245783D01*
X184487Y246066D01*
X183443Y246867D01*
X182227Y247371D01*
X180921Y247543D01*
X179616Y247371D01*
X178400Y246867D01*
X177355Y246066D01*
X177138Y245783D01*
X176809Y245647D01*
X175034D01*
X174704Y245783D01*
X174487Y246066D01*
X173443Y246867D01*
X172227Y247371D01*
X170921Y247543D01*
X169616Y247371D01*
X168400Y246867D01*
X167355Y246066D01*
X167138Y245783D01*
X166809Y245647D01*
X165034D01*
X164704Y245783D01*
X164487Y246066D01*
X163443Y246867D01*
X162226Y247371D01*
X160921Y247543D01*
X159616Y247371D01*
X158400Y246867D01*
X157355Y246066D01*
X157138Y245783D01*
X156809Y245647D01*
X155034D01*
X154704Y245783D01*
X154487Y246066D01*
X153443Y246867D01*
X152226Y247371D01*
X150921Y247543D01*
X149616Y247371D01*
X148400Y246867D01*
X147355Y246066D01*
X147138Y245783D01*
X146809Y245647D01*
X145034D01*
X144704Y245783D01*
X144487Y246066D01*
X143443Y246867D01*
X142227Y247371D01*
X140921Y247543D01*
X139616Y247371D01*
X138400Y246867D01*
X137355Y246066D01*
X137138Y245783D01*
X136809Y245647D01*
X135034D01*
X134704Y245783D01*
X134487Y246066D01*
X133443Y246867D01*
X132227Y247371D01*
X130921Y247543D01*
X129616Y247371D01*
X128400Y246867D01*
X127355Y246066D01*
X127138Y245783D01*
X126809Y245647D01*
X125034D01*
X124704Y245783D01*
X124487Y246066D01*
X123443Y246867D01*
X122227Y247371D01*
X120921Y247543D01*
X119616Y247371D01*
X118400Y246867D01*
X117355Y246066D01*
X117138Y245783D01*
X116809Y245647D01*
X115034D01*
X114704Y245783D01*
X114487Y246066D01*
X113443Y246867D01*
X112226Y247371D01*
X110921Y247543D01*
X109616Y247371D01*
X108400Y246867D01*
X107355Y246066D01*
X107138Y245783D01*
X106809Y245647D01*
X105034D01*
X104704Y245783D01*
X104487Y246066D01*
X103443Y246867D01*
X102226Y247371D01*
X100921Y247543D01*
X99616Y247371D01*
X98400Y246867D01*
X97355Y246066D01*
X96554Y245022D01*
X96463Y244801D01*
X95156Y244620D01*
X94262Y244716D01*
X93774Y245353D01*
X92939Y245994D01*
X91966Y246397D01*
X91921Y246403D01*
Y242500D01*
Y238597D01*
X91966Y238603D01*
X92939Y239006D01*
X93774Y239647D01*
X94262Y240284D01*
X95156Y240380D01*
X96463Y240199D01*
X96554Y239978D01*
X97355Y238934D01*
X98400Y238133D01*
X99616Y237629D01*
X100921Y237457D01*
X102226Y237629D01*
X103443Y238133D01*
X104487Y238934D01*
X104704Y239217D01*
X105034Y239353D01*
X106809D01*
X107138Y239217D01*
X107355Y238934D01*
X108400Y238133D01*
X109616Y237629D01*
X110921Y237457D01*
X112226Y237629D01*
X113443Y238133D01*
X114487Y238934D01*
X114704Y239217D01*
X115034Y239353D01*
X116809D01*
X117138Y239217D01*
X117355Y238934D01*
X118400Y238133D01*
X119616Y237629D01*
X120921Y237457D01*
X122227Y237629D01*
X123443Y238133D01*
X124487Y238934D01*
X124704Y239217D01*
X125034Y239353D01*
X126809D01*
X127138Y239217D01*
X127355Y238934D01*
X128400Y238133D01*
X129616Y237629D01*
X130921Y237457D01*
X132227Y237629D01*
X133443Y238133D01*
X134487Y238934D01*
X134704Y239217D01*
X135034Y239353D01*
X136809D01*
X137138Y239217D01*
X137355Y238934D01*
X138400Y238133D01*
X139616Y237629D01*
X140921Y237457D01*
X142227Y237629D01*
X143443Y238133D01*
X144487Y238934D01*
X144704Y239217D01*
X145034Y239353D01*
X146809D01*
X147138Y239217D01*
X147355Y238934D01*
X148400Y238133D01*
X149616Y237629D01*
X150921Y237457D01*
X152226Y237629D01*
X153443Y238133D01*
X154487Y238934D01*
X154704Y239217D01*
X155034Y239353D01*
X156809D01*
X157138Y239217D01*
X157355Y238934D01*
X158400Y238133D01*
X159616Y237629D01*
X160921Y237457D01*
X162226Y237629D01*
X163443Y238133D01*
X164487Y238934D01*
X164704Y239217D01*
X165034Y239353D01*
X166809D01*
X167138Y239217D01*
X167355Y238934D01*
X168400Y238133D01*
X169616Y237629D01*
X170921Y237457D01*
X172227Y237629D01*
X173443Y238133D01*
X174487Y238934D01*
X174704Y239217D01*
X175034Y239353D01*
X176809D01*
X177138Y239217D01*
X177355Y238934D01*
X178400Y238133D01*
X179616Y237629D01*
X180921Y237457D01*
X182227Y237629D01*
X183443Y238133D01*
X184487Y238934D01*
X184704Y239217D01*
X185034Y239353D01*
X186809D01*
X187138Y239217D01*
X187355Y238934D01*
X188400Y238133D01*
X189616Y237629D01*
X190921Y237457D01*
X192227Y237629D01*
X193443Y238133D01*
X194487Y238934D01*
X194704Y239217D01*
X195034Y239353D01*
X196809D01*
X197138Y239217D01*
X197355Y238934D01*
X198400Y238133D01*
X199616Y237629D01*
X200921Y237457D01*
X202226Y237629D01*
X203443Y238133D01*
X204487Y238934D01*
X204704Y239217D01*
X205034Y239353D01*
X206809D01*
X207138Y239217D01*
X207355Y238934D01*
X208400Y238133D01*
X209616Y237629D01*
X210921Y237457D01*
X212227Y237629D01*
X213443Y238133D01*
X214487Y238934D01*
X214704Y239217D01*
X215034Y239353D01*
X216809D01*
X217138Y239217D01*
X217355Y238934D01*
X218400Y238133D01*
X219616Y237629D01*
X220921Y237457D01*
X222227Y237629D01*
X223443Y238133D01*
X224487Y238934D01*
X225289Y239978D01*
X225793Y241195D01*
X225964Y242500D01*
X225793Y243805D01*
X225289Y245022D01*
X224487Y246066D01*
X223443Y246867D01*
X222227Y247371D01*
X220921Y247543D01*
D02*
G37*
G36*
X89921Y246403D02*
X89877Y246397D01*
X88904Y245994D01*
X88068Y245353D01*
X87427Y244517D01*
X87024Y243544D01*
X87018Y243500D01*
X89921D01*
Y246403D01*
D02*
G37*
G36*
X58500Y245874D02*
Y243500D01*
X60874D01*
X60557Y244265D01*
X59996Y244996D01*
X59265Y245557D01*
X58500Y245874D01*
D02*
G37*
G36*
X56500D02*
X55735Y245557D01*
X55004Y244996D01*
X54443Y244265D01*
X54126Y243500D01*
X56500D01*
Y245874D01*
D02*
G37*
G36*
X60874Y241500D02*
X58500D01*
Y239126D01*
X59265Y239443D01*
X59996Y240004D01*
X60557Y240735D01*
X60874Y241500D01*
D02*
G37*
G36*
X56500D02*
X54126D01*
X54443Y240735D01*
X55004Y240004D01*
X55735Y239443D01*
X56500Y239126D01*
Y241500D01*
D02*
G37*
G36*
X89921Y241500D02*
X87018D01*
X87024Y241456D01*
X87427Y240483D01*
X88068Y239647D01*
X88904Y239006D01*
X89877Y238603D01*
X89921Y238597D01*
Y241500D01*
D02*
G37*
G36*
X137610Y229874D02*
X126917D01*
Y229019D01*
X122057D01*
X121175Y229384D01*
X120000Y229539D01*
X118825Y229384D01*
X117731Y228931D01*
X116791Y228209D01*
X116069Y227269D01*
X115616Y226175D01*
X115461Y225000D01*
X115616Y223825D01*
X116069Y222731D01*
X116791Y221791D01*
X117731Y221069D01*
X118825Y220616D01*
X120000Y220461D01*
X121175Y220616D01*
X122057Y220981D01*
X126917D01*
Y218000D01*
X137610D01*
Y229874D01*
D02*
G37*
G36*
X47437Y227840D02*
Y224937D01*
X50340D01*
X50334Y224981D01*
X49931Y225954D01*
X49290Y226790D01*
X48454Y227431D01*
X47481Y227834D01*
X47437Y227840D01*
D02*
G37*
G36*
X150784Y228874D02*
X147437D01*
Y224937D01*
X150784D01*
Y228874D01*
D02*
G37*
G36*
X145437D02*
X142091D01*
Y224937D01*
X145437D01*
Y228874D01*
D02*
G37*
G36*
X45437Y227840D02*
X45393Y227834D01*
X44420Y227431D01*
X43584Y226790D01*
X42943Y225954D01*
X42540Y224981D01*
X42534Y224937D01*
X45437D01*
Y227840D01*
D02*
G37*
G36*
X150784Y222937D02*
X147437D01*
Y219000D01*
X150784D01*
Y222937D01*
D02*
G37*
G36*
X145437D02*
X142091D01*
Y219000D01*
X145437D01*
Y222937D01*
D02*
G37*
G36*
X234937Y221323D02*
X232937D01*
X231632Y221151D01*
X230415Y220647D01*
X229371Y219846D01*
X228570Y218801D01*
X228066Y217585D01*
X227894Y216280D01*
X228066Y214974D01*
X228570Y213758D01*
X229371Y212714D01*
X229563Y212566D01*
X229638Y212413D01*
Y210304D01*
X229563Y210151D01*
X229371Y210003D01*
X228570Y208959D01*
X228066Y207742D01*
X227894Y206437D01*
X228066Y205132D01*
X228570Y203915D01*
X229371Y202871D01*
X230415Y202069D01*
X231632Y201566D01*
X232937Y201394D01*
X234937D01*
X236242Y201566D01*
X237459Y202069D01*
X238503Y202871D01*
X239304Y203915D01*
X239808Y205132D01*
X239980Y206437D01*
X239808Y207742D01*
X239304Y208959D01*
X238503Y210003D01*
X238311Y210151D01*
X238236Y210304D01*
Y212413D01*
X238311Y212566D01*
X238503Y212714D01*
X239304Y213758D01*
X239808Y214974D01*
X239980Y216280D01*
X239808Y217585D01*
X239304Y218801D01*
X238503Y219846D01*
X237459Y220647D01*
X236242Y221151D01*
X234937Y221323D01*
D02*
G37*
G36*
X151784Y208614D02*
X141091D01*
Y197956D01*
X137610D01*
Y208614D01*
X126917D01*
Y196740D01*
X128245D01*
Y195610D01*
X128382Y194570D01*
X128784Y193601D01*
X129422Y192769D01*
X131095Y191095D01*
X131928Y190457D01*
X132897Y190055D01*
X133937Y189918D01*
X134832D01*
X135457Y187918D01*
X134886Y187318D01*
X132890Y187890D01*
Y187890D01*
X129937D01*
Y183937D01*
Y179984D01*
X132890D01*
Y180547D01*
X133404Y180814D01*
X134890Y181076D01*
X135405Y180405D01*
X136439Y179611D01*
X137644Y179112D01*
X138937Y178942D01*
X140230Y179112D01*
X141435Y179611D01*
X142469Y180405D01*
X142733Y180748D01*
X143128Y180893D01*
X144746D01*
X145141Y180748D01*
X145405Y180405D01*
X146439Y179611D01*
X147644Y179112D01*
X148937Y178942D01*
X150230Y179112D01*
X151435Y179611D01*
X152469Y180405D01*
X153263Y181439D01*
X153762Y182644D01*
X153932Y183937D01*
X153762Y185230D01*
X153263Y186435D01*
X152469Y187469D01*
X151712Y188051D01*
X151502Y188861D01*
X151500Y188909D01*
X151643Y190342D01*
X152146Y190728D01*
X152868Y191668D01*
X153321Y192762D01*
X153476Y193937D01*
X153321Y195112D01*
X152868Y196206D01*
X152146Y197146D01*
X151784Y197425D01*
Y208614D01*
D02*
G37*
G36*
X127937Y187890D02*
X124984D01*
Y184937D01*
X127937D01*
Y187890D01*
D02*
G37*
G36*
X117437Y187311D02*
Y184937D01*
X119811D01*
X119494Y185702D01*
X118933Y186433D01*
X118202Y186994D01*
X117437Y187311D01*
D02*
G37*
G36*
X115437D02*
X114672Y186994D01*
X113941Y186433D01*
X113380Y185702D01*
X113063Y184937D01*
X115437D01*
Y187311D01*
D02*
G37*
G36*
X119811Y182937D02*
X117437D01*
Y180563D01*
X118202Y180880D01*
X118933Y181441D01*
X119494Y182172D01*
X119811Y182937D01*
D02*
G37*
G36*
X115437D02*
X113063D01*
X113380Y182172D01*
X113941Y181441D01*
X114672Y180880D01*
X115437Y180563D01*
Y182937D01*
D02*
G37*
G36*
X127937D02*
X124984D01*
Y179984D01*
X127937D01*
Y182937D01*
D02*
G37*
G36*
X148937Y173933D02*
X147644Y173762D01*
X146439Y173263D01*
X145405Y172469D01*
X145141Y172126D01*
X144746Y171981D01*
X143128D01*
X142733Y172126D01*
X142469Y172469D01*
X141435Y173263D01*
X140230Y173762D01*
X138937Y173933D01*
X137644Y173762D01*
X136439Y173263D01*
X135405Y172469D01*
X134890Y171798D01*
X133404Y172060D01*
X132890Y172327D01*
Y172890D01*
X129937D01*
Y168937D01*
Y164984D01*
X132890D01*
Y165547D01*
X133404Y165814D01*
X134890Y166076D01*
X135405Y165405D01*
X136439Y164611D01*
X137644Y164112D01*
X138937Y163942D01*
X140230Y164112D01*
X141435Y164611D01*
X142469Y165405D01*
X142733Y165748D01*
X143128Y165893D01*
X144746D01*
X145141Y165748D01*
X145405Y165405D01*
X146439Y164611D01*
X147644Y164112D01*
X148937Y163942D01*
X150230Y164112D01*
X151435Y164611D01*
X152469Y165405D01*
X153263Y166439D01*
X153762Y167644D01*
X153932Y168937D01*
X153762Y170230D01*
X153263Y171435D01*
X152469Y172469D01*
X151435Y173263D01*
X150230Y173762D01*
X148937Y173933D01*
D02*
G37*
G36*
X127937Y172890D02*
X124984D01*
Y169937D01*
X127937D01*
Y172890D01*
D02*
G37*
G36*
X117437Y172311D02*
Y169937D01*
X119811D01*
X119494Y170702D01*
X118933Y171433D01*
X118202Y171994D01*
X117437Y172311D01*
D02*
G37*
G36*
X115437D02*
X114672Y171994D01*
X113941Y171433D01*
X113380Y170702D01*
X113063Y169937D01*
X115437D01*
Y172311D01*
D02*
G37*
G36*
X234937Y188823D02*
X232937D01*
X231632Y188651D01*
X230415Y188147D01*
X229371Y187346D01*
X228570Y186301D01*
X228066Y185085D01*
X227894Y183780D01*
X228066Y182474D01*
X228570Y181258D01*
X229371Y180213D01*
X229563Y180066D01*
X229638Y179913D01*
Y177804D01*
X229563Y177651D01*
X229371Y177503D01*
X228570Y176459D01*
X228066Y175242D01*
X227894Y173937D01*
X228066Y172632D01*
X228570Y171415D01*
X229371Y170371D01*
X230415Y169570D01*
X231632Y169066D01*
X232937Y168894D01*
X234937D01*
X236242Y169066D01*
X237459Y169570D01*
X238503Y170371D01*
X239304Y171415D01*
X239808Y172632D01*
X239980Y173937D01*
X239808Y175242D01*
X239304Y176459D01*
X238503Y177503D01*
X238311Y177651D01*
X238236Y177804D01*
Y179913D01*
X238311Y180066D01*
X238503Y180213D01*
X239304Y181258D01*
X239808Y182474D01*
X239980Y183780D01*
X239808Y185085D01*
X239304Y186301D01*
X238503Y187346D01*
X237459Y188147D01*
X236242Y188651D01*
X234937Y188823D01*
D02*
G37*
G36*
X119811Y167937D02*
X117437D01*
Y165563D01*
X118202Y165880D01*
X118933Y166441D01*
X119494Y167172D01*
X119811Y167937D01*
D02*
G37*
G36*
X115437D02*
X113063D01*
X113380Y167172D01*
X113941Y166441D01*
X114672Y165880D01*
X115437Y165563D01*
Y167937D01*
D02*
G37*
G36*
X127937D02*
X124984D01*
Y164984D01*
X127937D01*
Y167937D01*
D02*
G37*
G36*
X212437Y167311D02*
Y164937D01*
X214811D01*
X214494Y165702D01*
X213933Y166433D01*
X213202Y166994D01*
X212437Y167311D01*
D02*
G37*
G36*
X210437D02*
X209672Y166994D01*
X208941Y166433D01*
X208380Y165702D01*
X208063Y164937D01*
X210437D01*
Y167311D01*
D02*
G37*
G36*
X214811Y162937D02*
X212437D01*
Y160563D01*
X213202Y160880D01*
X213933Y161441D01*
X214494Y162172D01*
X214811Y162937D01*
D02*
G37*
G36*
X210437D02*
X208063D01*
X208380Y162172D01*
X208941Y161441D01*
X209672Y160880D01*
X210437Y160563D01*
Y162937D01*
D02*
G37*
G36*
X148937Y158932D02*
X147644Y158762D01*
X146439Y158263D01*
X145405Y157469D01*
X145141Y157126D01*
X144746Y156981D01*
X143128D01*
X142733Y157126D01*
X142469Y157469D01*
X141435Y158263D01*
X140230Y158762D01*
X138937Y158932D01*
X137644Y158762D01*
X136439Y158263D01*
X135405Y157469D01*
X134890Y156798D01*
X133404Y157060D01*
X132890Y157327D01*
Y157890D01*
X129937D01*
Y153937D01*
Y149984D01*
X132890D01*
Y150547D01*
X133404Y150814D01*
X134890Y151076D01*
X135405Y150405D01*
X136439Y149611D01*
X137644Y149112D01*
X138937Y148942D01*
X140230Y149112D01*
X141435Y149611D01*
X142469Y150405D01*
X142733Y150748D01*
X143128Y150893D01*
X144746D01*
X145141Y150748D01*
X145405Y150405D01*
X146439Y149611D01*
X147644Y149112D01*
X148937Y148942D01*
X150230Y149112D01*
X151435Y149611D01*
X152469Y150405D01*
X153263Y151439D01*
X153762Y152644D01*
X153932Y153937D01*
X153762Y155230D01*
X153263Y156435D01*
X152469Y157469D01*
X151435Y158263D01*
X150230Y158762D01*
X148937Y158932D01*
D02*
G37*
G36*
X127937Y157890D02*
X124984D01*
Y154937D01*
X127937D01*
Y157890D01*
D02*
G37*
G36*
X117437Y157311D02*
Y154937D01*
X119811D01*
X119494Y155702D01*
X118933Y156433D01*
X118202Y156994D01*
X117437Y157311D01*
D02*
G37*
G36*
X115437D02*
X114672Y156994D01*
X113941Y156433D01*
X113380Y155702D01*
X113063Y154937D01*
X115437D01*
Y157311D01*
D02*
G37*
G36*
X96437Y228980D02*
X95132Y228808D01*
X93915Y228305D01*
X92871Y227503D01*
X92070Y226459D01*
X91566Y225242D01*
X91394Y223937D01*
X91566Y222632D01*
X92070Y221415D01*
X92871Y220371D01*
X93154Y220154D01*
X93290Y219824D01*
Y218050D01*
X93154Y217720D01*
X92871Y217503D01*
X92070Y216459D01*
X91566Y215242D01*
X91394Y213937D01*
X91566Y212632D01*
X92070Y211415D01*
X92871Y210371D01*
X93154Y210154D01*
X93290Y209824D01*
Y208050D01*
X93154Y207720D01*
X92871Y207503D01*
X92070Y206459D01*
X91566Y205242D01*
X91394Y203937D01*
X91566Y202632D01*
X92070Y201415D01*
X92871Y200371D01*
X93154Y200154D01*
X93290Y199824D01*
Y198050D01*
X93154Y197720D01*
X92871Y197503D01*
X92070Y196459D01*
X91566Y195242D01*
X91394Y193937D01*
X91566Y192632D01*
X92070Y191415D01*
X92871Y190371D01*
X93154Y190154D01*
X93290Y189824D01*
Y188050D01*
X93154Y187720D01*
X92871Y187503D01*
X92070Y186459D01*
X91566Y185242D01*
X91394Y183937D01*
X91566Y182632D01*
X92070Y181415D01*
X92871Y180371D01*
X93154Y180154D01*
X93290Y179824D01*
Y178050D01*
X93154Y177720D01*
X92871Y177503D01*
X92070Y176459D01*
X91566Y175242D01*
X91394Y173937D01*
X91566Y172632D01*
X92070Y171415D01*
X92871Y170371D01*
X93154Y170154D01*
X93290Y169824D01*
Y168050D01*
X93154Y167720D01*
X92871Y167503D01*
X92070Y166459D01*
X91566Y165242D01*
X91394Y163937D01*
X91566Y162632D01*
X92070Y161415D01*
X92871Y160371D01*
X93915Y159570D01*
X94136Y159478D01*
X94317Y158172D01*
X94221Y157278D01*
X93584Y156790D01*
X92943Y155954D01*
X92540Y154981D01*
X92534Y154937D01*
X96437D01*
X100340D01*
X100334Y154981D01*
X99931Y155954D01*
X99290Y156790D01*
X98653Y157278D01*
X98557Y158172D01*
X98738Y159478D01*
X98959Y159570D01*
X100003Y160371D01*
X100804Y161415D01*
X101308Y162632D01*
X101480Y163937D01*
X101308Y165242D01*
X100804Y166459D01*
X100003Y167503D01*
X99720Y167720D01*
X99584Y168050D01*
Y169824D01*
X99720Y170154D01*
X100003Y170371D01*
X100804Y171415D01*
X101308Y172632D01*
X101480Y173937D01*
X101308Y175242D01*
X100804Y176459D01*
X100003Y177503D01*
X99720Y177720D01*
X99584Y178050D01*
Y179824D01*
X99720Y180154D01*
X100003Y180371D01*
X100804Y181415D01*
X101308Y182632D01*
X101480Y183937D01*
X101308Y185242D01*
X100804Y186459D01*
X100003Y187503D01*
X99720Y187720D01*
X99584Y188050D01*
Y189824D01*
X99720Y190154D01*
X100003Y190371D01*
X100804Y191415D01*
X101308Y192632D01*
X101480Y193937D01*
X101308Y195242D01*
X100804Y196459D01*
X100003Y197503D01*
X99720Y197720D01*
X99584Y198050D01*
Y199824D01*
X99720Y200154D01*
X100003Y200371D01*
X100804Y201415D01*
X101308Y202632D01*
X101480Y203937D01*
X101308Y205242D01*
X100804Y206459D01*
X100003Y207503D01*
X99720Y207720D01*
X99584Y208050D01*
Y209824D01*
X99720Y210154D01*
X100003Y210371D01*
X100804Y211415D01*
X101308Y212632D01*
X101480Y213937D01*
X101308Y215242D01*
X100804Y216459D01*
X100003Y217503D01*
X99720Y217720D01*
X99584Y218050D01*
Y219824D01*
X99720Y220154D01*
X100003Y220371D01*
X100804Y221415D01*
X101308Y222632D01*
X101480Y223937D01*
X101308Y225242D01*
X100804Y226459D01*
X100003Y227503D01*
X98959Y228305D01*
X97742Y228808D01*
X96437Y228980D01*
D02*
G37*
G36*
X119811Y152937D02*
X117437D01*
Y150563D01*
X118202Y150880D01*
X118933Y151441D01*
X119494Y152172D01*
X119811Y152937D01*
D02*
G37*
G36*
X115437D02*
X113063D01*
X113380Y152172D01*
X113941Y151441D01*
X114672Y150880D01*
X115437Y150563D01*
Y152937D01*
D02*
G37*
G36*
X100340D02*
X97437D01*
Y150034D01*
X97481Y150040D01*
X98454Y150443D01*
X99290Y151084D01*
X99931Y151920D01*
X100334Y152893D01*
X100340Y152937D01*
D02*
G37*
G36*
X95437D02*
X92534D01*
X92540Y152893D01*
X92943Y151920D01*
X93584Y151084D01*
X94420Y150443D01*
X95393Y150040D01*
X95437Y150034D01*
Y152937D01*
D02*
G37*
G36*
X127937D02*
X124984D01*
Y149984D01*
X127937D01*
Y152937D01*
D02*
G37*
G36*
X234937Y156323D02*
X232937D01*
X231632Y156151D01*
X230415Y155647D01*
X229371Y154846D01*
X228570Y153801D01*
X228066Y152585D01*
X227894Y151279D01*
X228066Y149974D01*
X228570Y148758D01*
X229371Y147713D01*
X229563Y147566D01*
X229638Y147413D01*
Y145304D01*
X229563Y145151D01*
X229371Y145003D01*
X228570Y143959D01*
X228066Y142742D01*
X227894Y141437D01*
X228066Y140132D01*
X228570Y138915D01*
X229371Y137871D01*
X230415Y137069D01*
X231632Y136566D01*
X232937Y136394D01*
X234937D01*
X236242Y136566D01*
X237459Y137069D01*
X238503Y137871D01*
X239304Y138915D01*
X239808Y140132D01*
X239980Y141437D01*
X239808Y142742D01*
X239304Y143959D01*
X238503Y145003D01*
X238311Y145151D01*
X238236Y145304D01*
Y147413D01*
X238311Y147566D01*
X238503Y147713D01*
X239304Y148758D01*
X239808Y149974D01*
X239980Y151279D01*
X239808Y152585D01*
X239304Y153801D01*
X238503Y154846D01*
X237459Y155647D01*
X236242Y156151D01*
X234937Y156323D01*
D02*
G37*
G36*
X118937Y137466D02*
X117761Y137350D01*
X116630Y137007D01*
X115587Y136450D01*
X114674Y135700D01*
X113924Y134787D01*
X113367Y133744D01*
X113024Y132613D01*
X112908Y131437D01*
X113024Y130261D01*
X113367Y129130D01*
X113924Y128087D01*
X114674Y127174D01*
X115587Y126424D01*
X116630Y125867D01*
X117761Y125524D01*
X118937Y125408D01*
X120113Y125524D01*
X121244Y125867D01*
X122287Y126424D01*
X123200Y127174D01*
X123950Y128087D01*
X124507Y129130D01*
X124850Y130261D01*
X126804Y130195D01*
X127283Y129039D01*
X128045Y128045D01*
X129039Y127283D01*
X130195Y126804D01*
X131437Y126640D01*
X132678Y126804D01*
X133835Y127283D01*
X134829Y128045D01*
X135591Y129039D01*
X136071Y130195D01*
X136234Y131437D01*
X136071Y132678D01*
X135591Y133835D01*
X134829Y134829D01*
X133835Y135591D01*
X132678Y136071D01*
X131437Y136234D01*
X130195Y136071D01*
X129039Y135591D01*
X128045Y134829D01*
X127283Y133835D01*
X126804Y132679D01*
X124850Y132613D01*
X124507Y133744D01*
X123950Y134787D01*
X123200Y135700D01*
X122287Y136450D01*
X121244Y137007D01*
X120113Y137350D01*
X118937Y137466D01*
D02*
G37*
G36*
X217437Y127311D02*
Y124937D01*
X219811D01*
X219494Y125702D01*
X218933Y126433D01*
X218202Y126994D01*
X217437Y127311D01*
D02*
G37*
G36*
X215437D02*
X214672Y126994D01*
X213941Y126433D01*
X213380Y125702D01*
X213063Y124937D01*
X215437D01*
Y127311D01*
D02*
G37*
G36*
X151437Y122408D02*
X150401Y122272D01*
X149436Y121872D01*
X148937Y121489D01*
X148438Y121872D01*
X147473Y122272D01*
X146437Y122408D01*
X145401Y122272D01*
X144436Y121872D01*
X143607Y121236D01*
X142971Y120407D01*
X142571Y119441D01*
X142434Y118405D01*
Y114469D01*
X142571Y113433D01*
X142971Y112467D01*
X143607Y111638D01*
X144436Y111002D01*
X145401Y110602D01*
X146437Y110466D01*
X147473Y110602D01*
X148438Y111002D01*
X148937Y111385D01*
X149436Y111002D01*
X150401Y110602D01*
X151437Y110466D01*
X152473Y110602D01*
X153438Y111002D01*
X154267Y111638D01*
X154631Y112112D01*
X154940Y111875D01*
X155437Y111670D01*
Y114446D01*
X155440Y114469D01*
Y116437D01*
Y118405D01*
X155437Y118428D01*
Y121204D01*
X154940Y120999D01*
X154631Y120762D01*
X154267Y121236D01*
X153438Y121872D01*
X152473Y122272D01*
X151437Y122408D01*
D02*
G37*
G36*
X219811Y122937D02*
X217437D01*
Y120563D01*
X218202Y120880D01*
X218933Y121441D01*
X219494Y122172D01*
X219811Y122937D01*
D02*
G37*
G36*
X215437D02*
X213063D01*
X213380Y122172D01*
X213941Y121441D01*
X214672Y120880D01*
X215437Y120563D01*
Y122937D01*
D02*
G37*
G36*
X234937Y122657D02*
D01*
Y119622D01*
X238840D01*
X238834Y119666D01*
X238431Y120639D01*
X237790Y121475D01*
X236954Y122116D01*
X235981Y122519D01*
X234937Y122657D01*
D02*
G37*
G36*
X232937D02*
X231893Y122519D01*
X230920Y122116D01*
X230084Y121475D01*
X229443Y120639D01*
X229040Y119666D01*
X229034Y119622D01*
X232937D01*
Y122657D01*
D02*
G37*
G36*
X157437Y121204D02*
Y117437D01*
X159431D01*
Y118405D01*
X159329Y119180D01*
X159030Y119903D01*
X158554Y120523D01*
X157934Y120999D01*
X157437Y121204D01*
D02*
G37*
G36*
X167437Y119811D02*
Y117437D01*
X169811D01*
X169494Y118202D01*
X168933Y118933D01*
X168202Y119494D01*
X167437Y119811D01*
D02*
G37*
G36*
X165437D02*
X164672Y119494D01*
X163941Y118933D01*
X163380Y118202D01*
X163063Y117437D01*
X165437D01*
Y119811D01*
D02*
G37*
G36*
X169811Y115437D02*
X167437D01*
Y113063D01*
X168202Y113380D01*
X168933Y113941D01*
X169494Y114672D01*
X169811Y115437D01*
D02*
G37*
G36*
X165437D02*
X163063D01*
X163380Y114672D01*
X163941Y113941D01*
X164672Y113380D01*
X165437Y113063D01*
Y115437D01*
D02*
G37*
G36*
X159431D02*
X157437D01*
Y111670D01*
X157934Y111875D01*
X158554Y112351D01*
X159030Y112971D01*
X159329Y113694D01*
X159431Y114469D01*
Y115437D01*
D02*
G37*
G36*
X118937Y107466D02*
X117761Y107350D01*
X116630Y107007D01*
X115587Y106450D01*
X114674Y105700D01*
X113924Y104787D01*
X113367Y103744D01*
X113024Y102613D01*
X112908Y101437D01*
X113024Y100261D01*
X113367Y99130D01*
X113924Y98088D01*
X114674Y97174D01*
X115587Y96424D01*
X116630Y95867D01*
X117761Y95524D01*
X118937Y95408D01*
X120113Y95524D01*
X121244Y95867D01*
X122287Y96424D01*
X123200Y97174D01*
X123950Y98088D01*
X124507Y99130D01*
X124850Y100261D01*
X126804Y100196D01*
X127283Y99038D01*
X128045Y98045D01*
X129039Y97283D01*
X130195Y96803D01*
X131437Y96640D01*
X132678Y96803D01*
X133835Y97283D01*
X134829Y98045D01*
X135591Y99038D01*
X136071Y100196D01*
X136234Y101437D01*
X136071Y102679D01*
X135591Y103835D01*
X134829Y104829D01*
X133835Y105591D01*
X132678Y106070D01*
X131437Y106234D01*
X130195Y106070D01*
X129039Y105591D01*
X128045Y104829D01*
X127283Y103835D01*
X126804Y102679D01*
X124850Y102613D01*
X124507Y103744D01*
X123950Y104787D01*
X123200Y105700D01*
X122287Y106450D01*
X121244Y107007D01*
X120113Y107350D01*
X118937Y107466D01*
D02*
G37*
G36*
X238840Y117622D02*
X233937D01*
X229034D01*
X229040Y117578D01*
X229443Y116605D01*
X230084Y115769D01*
X230587Y115383D01*
X230665Y114072D01*
X230446Y113160D01*
X230415Y113147D01*
X229371Y112346D01*
X228570Y111301D01*
X228066Y110085D01*
X227894Y108780D01*
X228066Y107474D01*
X228570Y106258D01*
X229371Y105213D01*
X229563Y105066D01*
X229638Y104913D01*
Y102804D01*
X229563Y102651D01*
X229371Y102503D01*
X228570Y101459D01*
X228066Y100242D01*
X227894Y98937D01*
X228066Y97632D01*
X228570Y96415D01*
X229371Y95371D01*
X230415Y94569D01*
X231632Y94066D01*
X232937Y93894D01*
X234937D01*
X236242Y94066D01*
X237459Y94569D01*
X238503Y95371D01*
X239304Y96415D01*
X239808Y97632D01*
X239980Y98937D01*
X239808Y100242D01*
X239304Y101459D01*
X238503Y102503D01*
X238311Y102651D01*
X238236Y102804D01*
Y104913D01*
X238311Y105066D01*
X238503Y105213D01*
X239304Y106258D01*
X239808Y107474D01*
X239980Y108780D01*
X239808Y110085D01*
X239304Y111301D01*
X238503Y112346D01*
X237459Y113147D01*
X237428Y113160D01*
X237209Y114072D01*
X237287Y115383D01*
X237790Y115769D01*
X238431Y116605D01*
X238834Y117578D01*
X238840Y117622D01*
D02*
G37*
G36*
X197437Y89811D02*
Y87437D01*
X199811D01*
X199494Y88202D01*
X198933Y88933D01*
X198202Y89494D01*
X197437Y89811D01*
D02*
G37*
G36*
X195437D02*
X194672Y89494D01*
X193941Y88933D01*
X193380Y88202D01*
X193063Y87437D01*
X195437D01*
Y89811D01*
D02*
G37*
G36*
X199811Y85437D02*
X197437D01*
Y83063D01*
X198202Y83380D01*
X198933Y83941D01*
X199494Y84672D01*
X199811Y85437D01*
D02*
G37*
G36*
X195437D02*
X193063D01*
X193380Y84672D01*
X193941Y83941D01*
X194672Y83380D01*
X195437Y83063D01*
Y85437D01*
D02*
G37*
G36*
X234937Y80157D02*
D01*
Y77122D01*
X238840D01*
X238834Y77166D01*
X238431Y78139D01*
X237790Y78975D01*
X236954Y79616D01*
X235981Y80019D01*
X234937Y80157D01*
D02*
G37*
G36*
X232937D02*
X231893Y80019D01*
X230920Y79616D01*
X230084Y78975D01*
X229443Y78139D01*
X229040Y77166D01*
X229034Y77122D01*
X232937D01*
Y80157D01*
D02*
G37*
G36*
X122890Y64780D02*
X119937D01*
Y61827D01*
X122890D01*
Y64780D01*
D02*
G37*
G36*
X117937D02*
X114984D01*
Y61827D01*
X117937D01*
Y64780D01*
D02*
G37*
G36*
X139051Y63344D02*
Y57437D01*
X142590D01*
Y58937D01*
X142435Y60112D01*
X141982Y61206D01*
X141261Y62147D01*
X140321Y62868D01*
X139226Y63321D01*
X139051Y63344D01*
D02*
G37*
G36*
X137051D02*
X136876Y63321D01*
X135782Y62868D01*
X134842Y62147D01*
X134121Y61206D01*
X133667Y60112D01*
X133512Y58937D01*
Y57437D01*
X137051D01*
Y63344D01*
D02*
G37*
G36*
X122890Y59827D02*
X119937D01*
Y56874D01*
X122890D01*
Y59827D01*
D02*
G37*
G36*
X117937D02*
X114984D01*
Y56874D01*
X117937D01*
Y59827D01*
D02*
G37*
G36*
X238840Y75122D02*
X233937D01*
X229034D01*
X229040Y75078D01*
X229443Y74105D01*
X230084Y73269D01*
X230587Y72883D01*
X230665Y71572D01*
X230446Y70660D01*
X230415Y70647D01*
X229371Y69846D01*
X228570Y68801D01*
X228066Y67585D01*
X227894Y66280D01*
X228066Y64974D01*
X228570Y63758D01*
X229371Y62713D01*
X229563Y62566D01*
X229638Y62413D01*
Y60304D01*
X229563Y60151D01*
X229371Y60003D01*
X228570Y58959D01*
X228066Y57742D01*
X227894Y56437D01*
X228066Y55132D01*
X228570Y53915D01*
X229371Y52871D01*
X230415Y52069D01*
X231632Y51566D01*
X232937Y51394D01*
X234937D01*
X236242Y51566D01*
X237459Y52069D01*
X238503Y52871D01*
X239304Y53915D01*
X239808Y55132D01*
X239980Y56437D01*
X239808Y57742D01*
X239304Y58959D01*
X238503Y60003D01*
X238311Y60151D01*
X238236Y60304D01*
Y62413D01*
X238311Y62566D01*
X238503Y62713D01*
X239304Y63758D01*
X239808Y64974D01*
X239980Y66280D01*
X239808Y67585D01*
X239304Y68801D01*
X238503Y69846D01*
X237459Y70647D01*
X237428Y70660D01*
X237209Y71572D01*
X237287Y72883D01*
X237790Y73269D01*
X238431Y74105D01*
X238834Y75078D01*
X238840Y75122D01*
D02*
G37*
G36*
X123890Y52000D02*
X113984D01*
Y51066D01*
X106390D01*
Y52000D01*
X96484D01*
Y42094D01*
X106390D01*
Y43029D01*
X113984D01*
Y42094D01*
X123890D01*
Y52000D01*
D02*
G37*
G36*
X142590Y55437D02*
X139051D01*
Y49530D01*
X139226Y49553D01*
X140321Y50006D01*
X141261Y50728D01*
X141982Y51668D01*
X142435Y52762D01*
X142590Y53937D01*
Y55437D01*
D02*
G37*
G36*
X137051D02*
X133512D01*
Y53937D01*
X133667Y52762D01*
X134121Y51668D01*
X134842Y50728D01*
X135782Y50006D01*
X136876Y49553D01*
X137051Y49530D01*
Y55437D01*
D02*
G37*
G36*
X151437Y64485D02*
X150001Y64295D01*
X148663Y63741D01*
X147514Y62860D01*
X146633Y61711D01*
X146079Y60373D01*
X145890Y58937D01*
Y53937D01*
X146079Y52501D01*
X146633Y51163D01*
X147514Y50014D01*
X148663Y49133D01*
X150001Y48579D01*
X151437Y48390D01*
X152873Y48579D01*
X154211Y49133D01*
X155360Y50014D01*
X156241Y51163D01*
X156795Y52501D01*
X156984Y53937D01*
Y58937D01*
X156795Y60373D01*
X156241Y61711D01*
X155360Y62860D01*
X154211Y63741D01*
X152873Y64295D01*
X151437Y64485D01*
D02*
G37*
G36*
X209622Y36340D02*
Y32437D01*
X212657D01*
X212519Y33481D01*
X212116Y34454D01*
X211475Y35290D01*
X210639Y35931D01*
X209666Y36334D01*
X209622Y36340D01*
D02*
G37*
G36*
X87644Y37583D02*
X81709D01*
Y31647D01*
X82081Y31684D01*
X83400Y32084D01*
X84617Y32734D01*
X85682Y33609D01*
X86557Y34675D01*
X87207Y35891D01*
X87607Y37210D01*
X87644Y37583D01*
D02*
G37*
G36*
X144937Y32311D02*
Y29937D01*
X147311D01*
X146994Y30702D01*
X146433Y31433D01*
X145702Y31994D01*
X144937Y32311D01*
D02*
G37*
G36*
X142937D02*
X142172Y31994D01*
X141441Y31433D01*
X140880Y30702D01*
X140563Y29937D01*
X142937D01*
Y32311D01*
D02*
G37*
G36*
X212657Y30437D02*
X209622D01*
Y26534D01*
X209666Y26540D01*
X210639Y26943D01*
X211475Y27584D01*
X212116Y28420D01*
X212519Y29393D01*
X212657Y30437D01*
D02*
G37*
G36*
X187500Y62039D02*
X186325Y61884D01*
X185231Y61431D01*
X184291Y60709D01*
X183569Y59769D01*
X183116Y58675D01*
X182961Y57500D01*
X183116Y56325D01*
X183481Y55443D01*
Y42057D01*
X183116Y41175D01*
X182961Y40000D01*
X183116Y38825D01*
X183569Y37731D01*
X184291Y36791D01*
X184570Y34959D01*
X184066Y33742D01*
X183894Y32437D01*
Y30437D01*
X184066Y29132D01*
X184570Y27915D01*
X185371Y26871D01*
X186415Y26070D01*
X187632Y25566D01*
X188937Y25394D01*
X190242Y25566D01*
X191459Y26070D01*
X192503Y26871D01*
X192651Y27064D01*
X192804Y27138D01*
X194913D01*
X195066Y27064D01*
X195213Y26871D01*
X196258Y26070D01*
X197474Y25566D01*
X198779Y25394D01*
X200085Y25566D01*
X201301Y26070D01*
X202346Y26871D01*
X203147Y27915D01*
X203160Y27946D01*
X204072Y28166D01*
X205383Y28087D01*
X205769Y27584D01*
X206605Y26943D01*
X207578Y26540D01*
X207622Y26534D01*
Y31437D01*
Y36340D01*
X207578Y36334D01*
X206605Y35931D01*
X205769Y35290D01*
X205383Y34787D01*
X204072Y34708D01*
X203160Y34928D01*
X203147Y34959D01*
X202346Y36003D01*
X201301Y36805D01*
X200085Y37308D01*
X198779Y37480D01*
X197474Y37308D01*
X196258Y36805D01*
X195213Y36003D01*
X195066Y35811D01*
X194913Y35737D01*
X192967D01*
X191544Y37215D01*
X191873Y38798D01*
X191884Y38825D01*
X192039Y40000D01*
X191884Y41175D01*
X191519Y42057D01*
Y55443D01*
X191884Y56325D01*
X192039Y57500D01*
X191884Y58675D01*
X191431Y59769D01*
X190709Y60709D01*
X189769Y61431D01*
X188675Y61884D01*
X187500Y62039D01*
D02*
G37*
G36*
X147311Y27937D02*
X144937D01*
Y25563D01*
X145702Y25880D01*
X146433Y26441D01*
X146994Y27172D01*
X147311Y27937D01*
D02*
G37*
G36*
X142937D02*
X140563D01*
X140880Y27172D01*
X141441Y26441D01*
X142172Y25880D01*
X142937Y25563D01*
Y27937D01*
D02*
G37*
G36*
X36000Y170874D02*
Y168500D01*
X38374D01*
X38057Y169265D01*
X37496Y169996D01*
X36765Y170557D01*
X36000Y170874D01*
D02*
G37*
G36*
X34000D02*
X33235Y170557D01*
X32504Y169996D01*
X31943Y169265D01*
X31626Y168500D01*
X34000D01*
Y170874D01*
D02*
G37*
G36*
X38374Y166500D02*
X36000D01*
Y164126D01*
X36765Y164443D01*
X37496Y165004D01*
X38057Y165735D01*
X38374Y166500D01*
D02*
G37*
G36*
X34000D02*
X31626D01*
X31943Y165735D01*
X32504Y165004D01*
X33235Y164443D01*
X34000Y164126D01*
Y166500D01*
D02*
G37*
G36*
X23437Y162362D02*
X21937D01*
Y158823D01*
X27844D01*
X27821Y158998D01*
X27368Y160092D01*
X26646Y161032D01*
X25706Y161754D01*
X24612Y162207D01*
X23437Y162362D01*
D02*
G37*
G36*
X19937D02*
X18437D01*
X17262Y162207D01*
X16168Y161754D01*
X15228Y161032D01*
X14506Y160092D01*
X14053Y158998D01*
X14030Y158823D01*
X19937D01*
Y162362D01*
D02*
G37*
G36*
X27844Y156823D02*
X21937D01*
Y153284D01*
X23437D01*
X24612Y153439D01*
X25706Y153892D01*
X26646Y154613D01*
X27368Y155553D01*
X27821Y156648D01*
X27844Y156823D01*
D02*
G37*
G36*
X19937D02*
X14030D01*
X14053Y156648D01*
X14506Y155553D01*
X15228Y154613D01*
X16168Y153892D01*
X17262Y153439D01*
X18437Y153284D01*
X19937D01*
Y156823D01*
D02*
G37*
G36*
X50340Y162937D02*
X46437D01*
X42534D01*
X42540Y162893D01*
X42943Y161920D01*
X43584Y161084D01*
X44221Y160596D01*
X44317Y159702D01*
X44136Y158396D01*
X43915Y158305D01*
X42871Y157503D01*
X42070Y156459D01*
X41566Y155242D01*
X41394Y153937D01*
X41566Y152632D01*
X42070Y151415D01*
X42871Y150371D01*
X43915Y149569D01*
X45132Y149066D01*
X46437Y148894D01*
X47742Y149066D01*
X48959Y149569D01*
X50003Y150371D01*
X50805Y151415D01*
X51308Y152632D01*
X51480Y153937D01*
X51308Y155242D01*
X50805Y156459D01*
X50003Y157503D01*
X48959Y158305D01*
X48738Y158396D01*
X48557Y159702D01*
X48653Y160596D01*
X49290Y161084D01*
X49931Y161920D01*
X50334Y162893D01*
X50340Y162937D01*
D02*
G37*
G36*
X23437Y149985D02*
X18437D01*
X17001Y149795D01*
X15663Y149241D01*
X14514Y148360D01*
X13633Y147211D01*
X13079Y145873D01*
X12889Y144437D01*
X13079Y143001D01*
X13633Y141663D01*
X14514Y140514D01*
X15663Y139633D01*
X17001Y139079D01*
X18437Y138890D01*
X23437D01*
X24873Y139079D01*
X26211Y139633D01*
X27360Y140514D01*
X28241Y141663D01*
X28795Y143001D01*
X28984Y144437D01*
X28795Y145873D01*
X28241Y147211D01*
X27360Y148360D01*
X26211Y149241D01*
X24873Y149795D01*
X23437Y149985D01*
D02*
G37*
G36*
X43937Y136234D02*
X42696Y136071D01*
X41539Y135591D01*
X40545Y134829D01*
X39783Y133835D01*
X39303Y132678D01*
X39140Y131437D01*
X39303Y130195D01*
X39783Y129039D01*
X40545Y128045D01*
X41539Y127283D01*
X42696Y126804D01*
X43937Y126640D01*
X45179Y126804D01*
X46336Y127283D01*
X47329Y128045D01*
X48091Y129039D01*
X48570Y130195D01*
X48734Y131437D01*
X48570Y132678D01*
X48091Y133835D01*
X47329Y134829D01*
X46336Y135591D01*
X45179Y136071D01*
X43937Y136234D01*
D02*
G37*
G36*
X68937Y137403D02*
X67773Y137288D01*
X66654Y136949D01*
X65623Y136397D01*
X64719Y135655D01*
X63977Y134751D01*
X63425Y133720D01*
X63086Y132601D01*
X62971Y131437D01*
X63086Y130273D01*
X63425Y129154D01*
X63977Y128123D01*
X64719Y127219D01*
X65623Y126477D01*
X66654Y125925D01*
X67773Y125586D01*
X68937Y125471D01*
X70101Y125586D01*
X71220Y125925D01*
X72251Y126477D01*
X73155Y127219D01*
X73897Y128123D01*
X74449Y129154D01*
X74788Y130273D01*
X74903Y131437D01*
X74788Y132601D01*
X74449Y133720D01*
X73897Y134751D01*
X73155Y135655D01*
X72251Y136397D01*
X71220Y136949D01*
X70101Y137288D01*
X68937Y137403D01*
D02*
G37*
G36*
X66000Y118374D02*
Y116000D01*
X68374D01*
X68057Y116765D01*
X67496Y117496D01*
X66765Y118057D01*
X66000Y118374D01*
D02*
G37*
G36*
X64000D02*
X63235Y118057D01*
X62504Y117496D01*
X61943Y116765D01*
X61626Y116000D01*
X64000D01*
Y118374D01*
D02*
G37*
G36*
X68374Y114000D02*
X66000D01*
Y111626D01*
X66765Y111943D01*
X67496Y112504D01*
X68057Y113235D01*
X68374Y114000D01*
D02*
G37*
G36*
X64000D02*
X61626D01*
X61943Y113235D01*
X62504Y112504D01*
X63235Y111943D01*
X64000Y111626D01*
Y114000D01*
D02*
G37*
G36*
X32437Y126480D02*
X30437D01*
X29132Y126308D01*
X27915Y125804D01*
X26871Y125003D01*
X26070Y123959D01*
X25566Y122742D01*
X25394Y121437D01*
X25566Y120132D01*
X26070Y118915D01*
X26871Y117871D01*
X27064Y117723D01*
X27138Y117570D01*
Y115461D01*
X27064Y115308D01*
X26871Y115161D01*
X26070Y114116D01*
X25566Y112900D01*
X25394Y111594D01*
X25566Y110289D01*
X26070Y109073D01*
X26871Y108028D01*
X27915Y107227D01*
X29132Y106723D01*
X30437Y106551D01*
X32437D01*
X33742Y106723D01*
X34959Y107227D01*
X36003Y108028D01*
X36805Y109073D01*
X37308Y110289D01*
X37480Y111594D01*
X37308Y112900D01*
X36805Y114116D01*
X36003Y115161D01*
X35811Y115308D01*
X35737Y115461D01*
Y117570D01*
X35811Y117723D01*
X36003Y117871D01*
X36805Y118915D01*
X37308Y120132D01*
X37480Y121437D01*
X37308Y122742D01*
X36805Y123959D01*
X36003Y125003D01*
X34959Y125804D01*
X33742Y126308D01*
X32437Y126480D01*
D02*
G37*
G36*
X59937Y106285D02*
Y102437D01*
X63785D01*
X63747Y102726D01*
X63249Y103927D01*
X62458Y104958D01*
X61427Y105749D01*
X60226Y106247D01*
X59937Y106285D01*
D02*
G37*
G36*
X57937D02*
X57648Y106247D01*
X56447Y105749D01*
X55416Y104958D01*
X54624Y103927D01*
X54127Y102726D01*
X54089Y102437D01*
X57937D01*
Y106285D01*
D02*
G37*
G36*
X43937Y106234D02*
X42696Y106070D01*
X41539Y105591D01*
X40545Y104829D01*
X39783Y103835D01*
X39303Y102679D01*
X39140Y101437D01*
X39303Y100196D01*
X39783Y99038D01*
X40545Y98045D01*
X41539Y97283D01*
X42696Y96803D01*
X43937Y96640D01*
X45179Y96803D01*
X46336Y97283D01*
X47329Y98045D01*
X48091Y99038D01*
X48570Y100196D01*
X48734Y101437D01*
X48570Y102679D01*
X48091Y103835D01*
X47329Y104829D01*
X46336Y105591D01*
X45179Y106070D01*
X43937Y106234D01*
D02*
G37*
G36*
X63785Y100437D02*
X59937D01*
Y96589D01*
X60226Y96627D01*
X61427Y97124D01*
X62458Y97916D01*
X63249Y98947D01*
X63747Y100148D01*
X63785Y100437D01*
D02*
G37*
G36*
X57937D02*
X54089D01*
X54127Y100148D01*
X54624Y98947D01*
X55416Y97916D01*
X56447Y97124D01*
X57648Y96627D01*
X57937Y96589D01*
Y100437D01*
D02*
G37*
G36*
X53937Y93980D02*
X52632Y93808D01*
X51415Y93305D01*
X50371Y92503D01*
X50154Y92220D01*
X49824Y92084D01*
X48050D01*
X47720Y92220D01*
X47503Y92503D01*
X46459Y93305D01*
X45242Y93808D01*
X43937Y93980D01*
X42632Y93808D01*
X41415Y93305D01*
X40371Y92503D01*
X40154Y92220D01*
X39824Y92084D01*
X38050D01*
X37720Y92220D01*
X37503Y92503D01*
X36459Y93305D01*
X35242Y93808D01*
X33937Y93980D01*
X32632Y93808D01*
X31415Y93305D01*
X30371Y92503D01*
X29570Y91459D01*
X29066Y90242D01*
X28894Y88937D01*
X29066Y87632D01*
X29570Y86415D01*
X30371Y85371D01*
X31415Y84570D01*
X32632Y84066D01*
X33937Y83894D01*
X35242Y84066D01*
X36459Y84570D01*
X37503Y85371D01*
X37720Y85654D01*
X38050Y85790D01*
X39824D01*
X40154Y85654D01*
X40371Y85371D01*
X41415Y84570D01*
X42632Y84066D01*
X43937Y83894D01*
X45242Y84066D01*
X46459Y84570D01*
X47503Y85371D01*
X47720Y85654D01*
X48050Y85790D01*
X49824D01*
X50154Y85654D01*
X50371Y85371D01*
X51415Y84570D01*
X52632Y84066D01*
X53937Y83894D01*
X55242Y84066D01*
X56459Y84570D01*
X57503Y85371D01*
X58305Y86415D01*
X58808Y87632D01*
X58980Y88937D01*
X58808Y90242D01*
X58305Y91459D01*
X57503Y92503D01*
X56459Y93305D01*
X55242Y93808D01*
X53937Y93980D01*
D02*
G37*
G36*
X30315Y79597D02*
X28765Y79445D01*
X27275Y78993D01*
X25902Y78259D01*
X24698Y77271D01*
X23710Y76067D01*
X22976Y74694D01*
X22524Y73203D01*
X22371Y71653D01*
X22524Y70104D01*
X22976Y68614D01*
X23710Y67240D01*
X24698Y66036D01*
X25902Y65048D01*
X27275Y64315D01*
X28765Y63862D01*
X30315Y63710D01*
X31865Y63862D01*
X33355Y64315D01*
X34728Y65048D01*
X35932Y66036D01*
X36920Y67240D01*
X37654Y68614D01*
X38106Y70104D01*
X38259Y71653D01*
X38106Y73203D01*
X37654Y74694D01*
X36920Y76067D01*
X35932Y77271D01*
X34728Y78259D01*
X33355Y78993D01*
X31865Y79445D01*
X30315Y79597D01*
D02*
G37*
G36*
X65991Y37583D02*
X60055D01*
Y31647D01*
X60427Y31684D01*
X61747Y32084D01*
X62963Y32734D01*
X64029Y33609D01*
X64904Y34675D01*
X65554Y35891D01*
X65954Y37210D01*
X65991Y37583D01*
D02*
G37*
G36*
X58055D02*
X52120D01*
X52156Y37210D01*
X52557Y35891D01*
X53207Y34675D01*
X54081Y33609D01*
X55147Y32734D01*
X56363Y32084D01*
X57683Y31684D01*
X58055Y31647D01*
Y37583D01*
D02*
G37*
G36*
X30315Y46526D02*
X28765Y46374D01*
X27275Y45922D01*
X25902Y45188D01*
X24698Y44200D01*
X23710Y42996D01*
X22976Y41623D01*
X22524Y40132D01*
X22371Y38583D01*
X22524Y37033D01*
X22976Y35543D01*
X23710Y34169D01*
X24698Y32966D01*
X25902Y31978D01*
X27275Y31244D01*
X28765Y30792D01*
X30315Y30639D01*
X31865Y30792D01*
X33355Y31244D01*
X34728Y31978D01*
X35932Y32966D01*
X36920Y34169D01*
X37654Y35543D01*
X38106Y37033D01*
X38259Y38583D01*
X38106Y40132D01*
X37654Y41623D01*
X36920Y42996D01*
X35932Y44200D01*
X34728Y45188D01*
X33355Y45922D01*
X31865Y46374D01*
X30315Y46526D01*
D02*
G37*
G36*
X43307Y28161D02*
X42132Y28006D01*
X41038Y27553D01*
X40098Y26831D01*
X39376Y25892D01*
X38923Y24797D01*
X38768Y23622D01*
X38923Y22447D01*
X39289Y21564D01*
X39425Y20527D01*
X39827Y19558D01*
X40466Y18725D01*
X41206Y17985D01*
X42038Y17346D01*
X43007Y16945D01*
X44047Y16808D01*
X51984D01*
Y15874D01*
X61890D01*
Y25780D01*
X51984D01*
Y24845D01*
X47671D01*
X47238Y25892D01*
X46516Y26831D01*
X45577Y27553D01*
X44482Y28006D01*
X43307Y28161D01*
D02*
G37*
G36*
X35000Y11890D02*
X32047D01*
Y8937D01*
X35000D01*
Y11890D01*
D02*
G37*
G36*
X30047D02*
X27095D01*
Y8937D01*
X30047D01*
Y11890D01*
D02*
G37*
G36*
X35000Y6937D02*
X32047D01*
Y3984D01*
X35000D01*
Y6937D01*
D02*
G37*
G36*
X30047D02*
X27095D01*
Y3984D01*
X30047D01*
Y6937D01*
D02*
G37*
G36*
X49779Y12890D02*
X39874D01*
Y2984D01*
X49779D01*
Y3918D01*
X51984D01*
Y2094D01*
X61890D01*
Y12000D01*
X51984D01*
Y11956D01*
X49779D01*
Y12890D01*
D02*
G37*
%LPD*%
D10*
X146437Y202677D02*
D03*
X132264D02*
D03*
Y223937D02*
D03*
X146437D02*
D03*
D11*
X56937Y7047D02*
D03*
Y20827D02*
D03*
X101437Y47047D02*
D03*
Y60827D02*
D03*
X118937Y60827D02*
D03*
Y47047D02*
D03*
D12*
X31047Y7937D02*
D03*
X44827D02*
D03*
X128937Y153937D02*
D03*
Y168937D02*
D03*
Y183937D02*
D03*
D13*
X187500Y40000D02*
Y57500D01*
X131201Y225000D02*
X132264Y223937D01*
X120000Y225000D02*
X131201D01*
X132264Y195610D02*
Y202677D01*
Y195610D02*
X133937Y193937D01*
X93937Y68937D02*
X98937D01*
X101437Y66437D01*
Y60827D02*
Y66437D01*
Y47047D02*
X118937D01*
X118937Y47047D01*
X43307Y21567D02*
Y23622D01*
Y21567D02*
X44047Y20827D01*
X56937D01*
X44827Y7937D02*
X56047D01*
X56937Y7047D01*
X133937Y193937D02*
X148937D01*
D14*
X226279Y338937D02*
D03*
X216437D02*
D03*
X206594D02*
D03*
X181280D02*
D03*
X171437D02*
D03*
X161594D02*
D03*
X136279D02*
D03*
X126437D02*
D03*
X116595D02*
D03*
X91280D02*
D03*
X81437D02*
D03*
X71595D02*
D03*
X208622Y31437D02*
D03*
X198779D02*
D03*
X188937D02*
D03*
D15*
X233937Y206437D02*
D03*
Y216280D02*
D03*
Y173937D02*
D03*
Y183780D02*
D03*
Y141437D02*
D03*
Y151279D02*
D03*
X31437Y252224D02*
D03*
Y262067D02*
D03*
Y271909D02*
D03*
Y281752D02*
D03*
Y291595D02*
D03*
Y301437D02*
D03*
Y213937D02*
D03*
Y204095D02*
D03*
Y194252D02*
D03*
Y184409D02*
D03*
Y121437D02*
D03*
Y111594D02*
D03*
X233937Y76122D02*
D03*
Y66280D02*
D03*
Y56437D02*
D03*
Y118622D02*
D03*
Y108780D02*
D03*
Y98937D02*
D03*
D16*
X156437Y116437D02*
D03*
D17*
X151437D02*
D03*
X146437D02*
D03*
D18*
X46437Y153937D02*
D03*
Y163937D02*
D03*
Y173937D02*
D03*
Y183937D02*
D03*
Y193937D02*
D03*
Y203937D02*
D03*
Y213937D02*
D03*
Y223937D02*
D03*
X96437D02*
D03*
Y213937D02*
D03*
Y203937D02*
D03*
Y193937D02*
D03*
Y183937D02*
D03*
Y173937D02*
D03*
Y163937D02*
D03*
Y153937D02*
D03*
X43937Y88937D02*
D03*
X33937D02*
D03*
X53937D02*
D03*
X90921Y242500D02*
D03*
Y302500D02*
D03*
X100921D02*
D03*
X110921D02*
D03*
X120921D02*
D03*
X130921D02*
D03*
X140921D02*
D03*
X150921D02*
D03*
X160921D02*
D03*
X170921D02*
D03*
X180921D02*
D03*
X190921D02*
D03*
X200921D02*
D03*
X210921D02*
D03*
X220921D02*
D03*
Y242500D02*
D03*
X210921D02*
D03*
X200921D02*
D03*
X190921D02*
D03*
X180921D02*
D03*
X170921D02*
D03*
X160921D02*
D03*
X150921D02*
D03*
X140921D02*
D03*
X130921D02*
D03*
X120921D02*
D03*
X110921D02*
D03*
X100921D02*
D03*
D19*
X20937Y157823D02*
D03*
Y144437D02*
D03*
D20*
X30315Y38583D02*
D03*
Y71653D02*
D03*
D21*
X80709D02*
D03*
Y38583D02*
D03*
X59055D02*
D03*
Y55118D02*
D03*
Y71653D02*
D03*
X80709Y55118D02*
D03*
D22*
X138937Y153937D02*
D03*
X148937D02*
D03*
X138937Y168937D02*
D03*
X148937D02*
D03*
X138937Y183937D02*
D03*
X148937D02*
D03*
D23*
X58937Y101437D02*
D03*
X68937Y131437D02*
D03*
D24*
X118937D02*
D03*
Y101437D02*
D03*
D25*
X131437Y131437D02*
D03*
Y101437D02*
D03*
X43937Y131437D02*
D03*
Y101437D02*
D03*
D26*
X251969Y11811D02*
D03*
X11811D02*
D03*
X251969Y354331D02*
D03*
X11811D02*
D03*
D27*
X138051Y56437D02*
D03*
X151437D02*
D03*
D28*
X187500Y57500D02*
D03*
Y40000D02*
D03*
X120000Y225000D02*
D03*
X30000Y322500D02*
D03*
X93937Y68937D02*
D03*
X43307Y23622D02*
D03*
X216437Y123937D02*
D03*
X143937Y28937D02*
D03*
X91437Y326437D02*
D03*
X136437D02*
D03*
X181437D02*
D03*
X216437Y316437D02*
D03*
X148937Y193937D02*
D03*
X116437Y183937D02*
D03*
Y168937D02*
D03*
Y153937D02*
D03*
X166437Y116437D02*
D03*
X211437Y163937D02*
D03*
X196437Y86437D02*
D03*
X65000Y115000D02*
D03*
X35000Y167500D02*
D03*
X57500Y242500D02*
D03*
M02*
