M48
;Layer_Color=9474304
;FILE_FORMAT=2:5
INCH,TZ
;TYPE=PLATED
T1F00S00C0.02800
T2F00S00C0.03000
T3F00S00C0.03150
T4F00S00C0.03346
T5F00S00C0.03543
T6F00S00C0.04000
T7F00S00C0.04331
T8F00S00C0.07087
;TYPE=NON_PLATED
T9F00S00C0.11811
T10F00S00C0.12598
%
T01
X43307Y23622
X143937Y28937
X187500Y40000
Y57500
X216437Y123937
X211437Y163937
X148937Y193937
X116437Y183937
Y168937
Y153937
X166437Y116437
X196437Y86437
X93937Y68937
X65000Y115000
X35000Y167500
X57500Y242500
X30000Y322500
X91437Y326437
X136437
X181437
X120000Y225000
X216437Y316437
T02
X96437Y153937
Y163937
Y173937
Y183937
Y193937
Y203937
X46437
Y193937
Y183937
Y173937
Y163937
Y153937
Y213937
Y223937
X96437
Y213937
X100921Y242500
X90921
X110921
X120921
X130921
X140921
X150921
X160921
X170921
X180921
X190921
X200921
X210921
Y302500
X200921
X190921
X180921
X170921
X160921
X150921
X140921
X130921
X120921
X110921
X100921
X90921
X220921
Y242500
T03
X188937Y31437
X198779
X208622
X233937Y56437
Y66280
Y76122
Y98937
Y108780
Y118622
Y141437
Y151279
Y173937
Y183780
Y206437
X31437Y204095
Y194252
Y184409
Y121437
Y111594
Y213937
Y252224
Y262067
Y271909
Y281752
Y291595
Y301437
X71595Y338937
X81437
X91280
X116595
X126437
X136279
X161594
X171437
X181280
X206594
X216437
X226279
X233937Y216280
T04
X131437Y101437
Y131437
X43937
Y101437
T05
X146437Y116437
X151437
X156437
X148937Y153937
X138937
X128937
Y168937
X138937
X148937
Y183937
X138937
X128937
X53937Y88937
X43937
X33937
T06
X138051Y56437
X151437
X20937Y144437
Y157823
T07
X68937Y131437
X118937
Y101437
X58937
T08
X59055Y38583
Y55118
X80709
Y38583
Y71653
X59055
T09
X30315Y38583
Y71653
T10
X11811Y11811
X251969
X11811Y354331
X251969
M30
