G04 Layer_Color=32896*
%FSLAX25Y25*%
%MOIN*%
G70*
G01*
G75*
%ADD34C,0.00787*%
%ADD35C,0.01000*%
%ADD36C,0.00500*%
D34*
X207087Y197244D02*
Y204724D01*
X216142Y197244D02*
Y204724D01*
X207087Y197244D02*
X216142D01*
X208661Y221260D02*
X214567D01*
X207087Y212598D02*
Y219291D01*
X214567Y221260D02*
X216142Y219291D01*
X207087D02*
X208661Y221260D01*
X216142Y212598D02*
Y219291D01*
X242126Y224803D02*
X249606D01*
X242126Y233858D02*
X249606D01*
Y224803D02*
Y233858D01*
X225590Y226378D02*
Y232283D01*
X227559Y224803D02*
X234252D01*
X225590Y232283D02*
X227559Y233858D01*
X225590Y226378D02*
X227559Y224803D01*
X227559Y233858D02*
X234252D01*
X211910Y132520D02*
Y140000D01*
X220965Y132520D02*
Y140000D01*
X211910Y132520D02*
X220965D01*
X213484Y156535D02*
X219390D01*
X211910Y147874D02*
Y154567D01*
X219390Y156535D02*
X220965Y154567D01*
X211910D02*
X213484Y156535D01*
X220965Y147874D02*
Y154567D01*
X223465Y62874D02*
Y70354D01*
X214409Y62874D02*
Y70354D01*
X223465D01*
X215984Y46339D02*
X221890D01*
X223465Y48307D02*
Y55000D01*
X214409Y48307D02*
X215984Y46339D01*
X221890D02*
X223465Y48307D01*
X214409Y48307D02*
Y55000D01*
X205217Y324410D02*
X212697D01*
X205217Y333465D02*
X212697D01*
Y324410D02*
Y333465D01*
X188681Y325984D02*
Y331890D01*
X190650Y324410D02*
X197343D01*
X188681Y331890D02*
X190650Y333465D01*
X188681Y325984D02*
X190650Y324410D01*
X190650Y333465D02*
X197343D01*
X197362Y353465D02*
X204842D01*
X197362Y344409D02*
X204842D01*
X197362D02*
Y353465D01*
X221378Y345984D02*
Y351890D01*
X212717Y353465D02*
X219409D01*
Y344409D02*
X221378Y345984D01*
X219409Y353465D02*
X221378Y351890D01*
X212717Y344409D02*
X219409D01*
X160216Y321909D02*
X167697D01*
X160216Y330965D02*
X167697D01*
Y321909D02*
Y330965D01*
X143681Y323484D02*
Y329390D01*
X145650Y321909D02*
X152342D01*
X143681Y329390D02*
X145650Y330965D01*
X143681Y323484D02*
X145650Y321909D01*
X145650Y330965D02*
X152342D01*
X152362Y353465D02*
X159843D01*
X152362Y344409D02*
X159843D01*
X152362D02*
Y353465D01*
X176378Y345984D02*
Y351890D01*
X167717Y353465D02*
X174409D01*
Y344409D02*
X176378Y345984D01*
X174409Y353465D02*
X176378Y351890D01*
X167717Y344409D02*
X174409D01*
X115217Y321909D02*
X122697D01*
X115217Y330965D02*
X122697D01*
Y321909D02*
Y330965D01*
X98681Y323484D02*
Y329390D01*
X100650Y321909D02*
X107343D01*
X98681Y329390D02*
X100650Y330965D01*
X98681Y323484D02*
X100650Y321909D01*
X100650Y330965D02*
X107343D01*
X107362Y353465D02*
X114842D01*
X107362Y344409D02*
X114842D01*
X107362D02*
Y353465D01*
X131378Y345984D02*
Y351890D01*
X122716Y353465D02*
X129410D01*
Y344409D02*
X131378Y345984D01*
X129410Y353465D02*
X131378Y351890D01*
X122716Y344409D02*
X129409D01*
X70217Y321909D02*
X77697D01*
X70217Y330965D02*
X77697D01*
Y321909D02*
Y330965D01*
X53681Y323484D02*
Y329390D01*
X55650Y321909D02*
X62343D01*
X53681Y329390D02*
X55650Y330965D01*
X53681Y323484D02*
X55650Y321909D01*
X55650Y330965D02*
X62343D01*
X62362Y353465D02*
X69842D01*
X62362Y344409D02*
X69842D01*
X62362D02*
Y353465D01*
X86378Y345984D02*
Y351890D01*
X77716Y353465D02*
X84409D01*
Y344409D02*
X86378Y345984D01*
X84409Y353465D02*
X86378Y351890D01*
X77716Y344409D02*
X84409D01*
X163465Y145374D02*
Y152854D01*
X154409Y145374D02*
Y152854D01*
X163465D01*
X155984Y128839D02*
X161890D01*
X163465Y130807D02*
Y137500D01*
X154409Y130807D02*
X155984Y128839D01*
X161890D02*
X163465Y130807D01*
X154409Y130807D02*
Y137500D01*
X220965Y105374D02*
Y112854D01*
X211910Y105374D02*
Y112854D01*
X220965D01*
X213484Y88839D02*
X219390D01*
X220965Y90807D02*
Y97500D01*
X211910Y90807D02*
X213484Y88839D01*
X219390D02*
X220965Y90807D01*
X211910Y90807D02*
Y97500D01*
D35*
X187129Y211320D02*
X186129Y212320D01*
Y214319D01*
X187129Y215319D01*
X191128D01*
X192127Y214319D01*
Y212320D01*
X191128Y211320D01*
X188129Y208321D02*
Y206322D01*
X189128Y205322D01*
X192127D01*
Y208321D01*
X191128Y209321D01*
X190128Y208321D01*
Y205322D01*
X188129Y203323D02*
X192127D01*
X190128D01*
X189128Y202323D01*
X188129Y201323D01*
Y200324D01*
X187129Y196325D02*
X188129D01*
Y197325D01*
Y195325D01*
Y196325D01*
X191128D01*
X192127Y195325D01*
Y189327D02*
Y191327D01*
X191128Y192326D01*
X189128D01*
X188129Y191327D01*
Y189327D01*
X189128Y188328D01*
X190128D01*
Y192326D01*
X187129Y176331D02*
X186129Y177331D01*
Y179331D01*
X187129Y180330D01*
X191128D01*
X192127Y179331D01*
Y177331D01*
X191128Y176331D01*
X189128D01*
Y178331D01*
X192127Y173333D02*
Y171333D01*
X191128Y170333D01*
X189128D01*
X188129Y171333D01*
Y173333D01*
X189128Y174332D01*
X191128D01*
X192127Y173333D01*
Y168334D02*
Y166335D01*
Y167334D01*
X186129D01*
Y168334D01*
Y159337D02*
X192127D01*
Y162336D01*
X191128Y163336D01*
X189128D01*
X188129Y162336D01*
Y159337D01*
X189128Y151340D02*
Y147341D01*
X192127Y135345D02*
Y139344D01*
X188129Y135345D01*
X187129D01*
X186129Y136344D01*
Y138344D01*
X187129Y139344D01*
Y133345D02*
X186129Y132346D01*
Y130346D01*
X187129Y129347D01*
X191128D01*
X192127Y130346D01*
Y132346D01*
X191128Y133345D01*
X187129D01*
X192127Y127347D02*
Y125348D01*
Y126348D01*
X186129D01*
X187129Y127347D01*
X191128Y122349D02*
X192127Y121349D01*
Y119350D01*
X191128Y118350D01*
X187129D01*
X186129Y119350D01*
Y121349D01*
X187129Y122349D01*
X188129D01*
X189128Y121349D01*
Y118350D01*
X186129Y110353D02*
X190128D01*
X192127Y108353D01*
X190128Y106354D01*
X186129D01*
X187129Y104355D02*
X186129Y103355D01*
Y101356D01*
X187129Y100356D01*
X188129D01*
X189128Y101356D01*
Y102355D01*
Y101356D01*
X190128Y100356D01*
X191128D01*
X192127Y101356D01*
Y103355D01*
X191128Y104355D01*
X196727Y211320D02*
X195727Y212320D01*
Y214319D01*
X196727Y215319D01*
X197726D01*
X198726Y214319D01*
Y212320D01*
X199726Y211320D01*
X200725D01*
X201725Y212320D01*
Y214319D01*
X200725Y215319D01*
X197726Y209321D02*
X200725D01*
X201725Y208321D01*
Y205322D01*
X197726D01*
X203724Y203323D02*
X197726D01*
Y200324D01*
X198726Y199324D01*
X200725D01*
X201725Y200324D01*
Y203323D01*
X197726Y196325D02*
Y194326D01*
X198726Y193326D01*
X201725D01*
Y196325D01*
X200725Y197325D01*
X199726Y196325D01*
Y193326D01*
X201725Y188328D02*
Y190327D01*
X200725Y191327D01*
X198726D01*
X197726Y190327D01*
Y188328D01*
X198726Y187328D01*
X199726D01*
Y191327D01*
X197726Y185329D02*
X201725D01*
X199726D01*
X198726Y184329D01*
X197726Y183329D01*
Y182329D01*
X201725Y178331D02*
Y176331D01*
X200725Y175332D01*
X198726D01*
X197726Y176331D01*
Y178331D01*
X198726Y179331D01*
X200725D01*
X201725Y178331D01*
Y167334D02*
X195727D01*
Y164335D01*
X196727Y163336D01*
X198726D01*
X199726Y164335D01*
Y167334D01*
Y165335D02*
X201725Y163336D01*
Y160337D02*
Y158337D01*
X200725Y157338D01*
X198726D01*
X197726Y158337D01*
Y160337D01*
X198726Y161336D01*
X200725D01*
X201725Y160337D01*
X195727Y155338D02*
X201725D01*
Y152339D01*
X200725Y151340D01*
X199726D01*
X198726D01*
X197726Y152339D01*
Y155338D01*
X201725Y148340D02*
Y146341D01*
X200725Y145342D01*
X198726D01*
X197726Y146341D01*
Y148340D01*
X198726Y149340D01*
X200725D01*
X201725Y148340D01*
X196727Y142342D02*
X197726D01*
Y143342D01*
Y141343D01*
Y142342D01*
X200725D01*
X201725Y141343D01*
Y138344D02*
Y136344D01*
Y137344D01*
X197726D01*
Y138344D01*
X201725Y133345D02*
X195727D01*
X199726D02*
X197726Y130346D01*
X199726Y133345D02*
X201725Y130346D01*
X196727Y117351D02*
X195727Y118350D01*
Y120350D01*
X196727Y121349D01*
X200725D01*
X201725Y120350D01*
Y118350D01*
X200725Y117351D01*
X201725Y115351D02*
Y113352D01*
Y114351D01*
X195727D01*
Y115351D01*
X197726Y110353D02*
X200725D01*
X201725Y109353D01*
Y106354D01*
X197726D01*
X195727Y104355D02*
X201725D01*
Y101356D01*
X200725Y100356D01*
X199726D01*
X198726D01*
X197726Y101356D01*
Y104355D01*
D36*
X161937Y140437D02*
Y143436D01*
X160438D01*
X159938Y142936D01*
Y141937D01*
X160438Y141437D01*
X161937D01*
X160937D02*
X159938Y140437D01*
X158938D02*
X157938D01*
X158438D01*
Y143436D01*
X158938Y142936D01*
X213437Y145437D02*
Y142438D01*
X214936D01*
X215436Y142938D01*
Y143938D01*
X214936Y144437D01*
X213437D01*
X214437D02*
X215436Y145437D01*
X218435D02*
X216436D01*
X218435Y143438D01*
Y142938D01*
X217936Y142438D01*
X216936D01*
X216436Y142938D01*
X74779Y351437D02*
X71781D01*
Y349938D01*
X72280Y349438D01*
X73280D01*
X73780Y349938D01*
Y351437D01*
Y350437D02*
X74779Y349438D01*
X72280Y348438D02*
X71781Y347938D01*
Y346938D01*
X72280Y346439D01*
X72780D01*
X73280Y346938D01*
Y347438D01*
Y346938D01*
X73780Y346439D01*
X74280D01*
X74779Y346938D01*
Y347938D01*
X74280Y348438D01*
X64280Y323937D02*
X67279D01*
Y325436D01*
X66779Y325936D01*
X65779D01*
X65279Y325436D01*
Y323937D01*
Y324937D02*
X64280Y325936D01*
Y328436D02*
X67279D01*
X65779Y326936D01*
Y328935D01*
X119780Y351437D02*
X116780D01*
Y349938D01*
X117280Y349438D01*
X118280D01*
X118780Y349938D01*
Y351437D01*
Y350437D02*
X119780Y349438D01*
X116780Y346439D02*
Y348438D01*
X118280D01*
X117780Y347438D01*
Y346938D01*
X118280Y346439D01*
X119280D01*
X119780Y346938D01*
Y347938D01*
X119280Y348438D01*
X109280Y323937D02*
X112279D01*
Y325436D01*
X111779Y325936D01*
X110779D01*
X110279Y325436D01*
Y323937D01*
Y324937D02*
X109280Y325936D01*
X112279Y328935D02*
X111779Y327936D01*
X110779Y326936D01*
X109779D01*
X109280Y327436D01*
Y328436D01*
X109779Y328935D01*
X110279D01*
X110779Y328436D01*
Y326936D01*
X164779Y351437D02*
X161781D01*
Y349938D01*
X162280Y349438D01*
X163280D01*
X163780Y349938D01*
Y351437D01*
Y350437D02*
X164779Y349438D01*
X161781Y348438D02*
Y346439D01*
X162280D01*
X164280Y348438D01*
X164779D01*
X154279Y323937D02*
X157279D01*
Y325436D01*
X156779Y325936D01*
X155779D01*
X155279Y325436D01*
Y323937D01*
Y324937D02*
X154279Y325936D01*
X156779Y326936D02*
X157279Y327436D01*
Y328436D01*
X156779Y328935D01*
X156279D01*
X155779Y328436D01*
X155279Y328935D01*
X154779D01*
X154279Y328436D01*
Y327436D01*
X154779Y326936D01*
X155279D01*
X155779Y327436D01*
X156279Y326936D01*
X156779D01*
X155779Y327436D02*
Y328436D01*
X209780Y351437D02*
X206781D01*
Y349938D01*
X207280Y349438D01*
X208280D01*
X208780Y349938D01*
Y351437D01*
Y350437D02*
X209780Y349438D01*
X209280Y348438D02*
X209780Y347938D01*
Y346938D01*
X209280Y346439D01*
X207280D01*
X206781Y346938D01*
Y347938D01*
X207280Y348438D01*
X207780D01*
X208280Y347938D01*
Y346439D01*
X199279Y325437D02*
X202279D01*
Y326937D01*
X201779Y327436D01*
X200779D01*
X200279Y326937D01*
Y325437D01*
Y326437D02*
X199279Y327436D01*
Y328436D02*
Y329436D01*
Y328936D01*
X202279D01*
X201779Y328436D01*
Y330935D02*
X202279Y331435D01*
Y332435D01*
X201779Y332935D01*
X199779D01*
X199279Y332435D01*
Y331435D01*
X199779Y330935D01*
X201779D01*
X208614Y210161D02*
Y207162D01*
X210114D01*
X210613Y207662D01*
Y208662D01*
X210114Y209162D01*
X208614D01*
X209614D02*
X210613Y210161D01*
X211613D02*
X212613D01*
X212113D01*
Y207162D01*
X211613Y207662D01*
X214112Y210161D02*
X215112D01*
X214612D01*
Y207162D01*
X214112Y207662D01*
X236689Y225331D02*
X239688D01*
Y226830D01*
X239188Y227330D01*
X238189D01*
X237689Y226830D01*
Y225331D01*
Y226330D02*
X236689Y227330D01*
Y228330D02*
Y229329D01*
Y228830D01*
X239688D01*
X239188Y228330D01*
X236689Y232828D02*
Y230829D01*
X238688Y232828D01*
X239188D01*
X239688Y232329D01*
Y231329D01*
X239188Y230829D01*
X221937Y57437D02*
Y60436D01*
X220438D01*
X219938Y59936D01*
Y58937D01*
X220438Y58437D01*
X221937D01*
X220937D02*
X219938Y57437D01*
X218938D02*
X217938D01*
X218438D01*
Y60436D01*
X218938Y59936D01*
X216439D02*
X215939Y60436D01*
X214939D01*
X214439Y59936D01*
Y59436D01*
X214939Y58937D01*
X215439D01*
X214939D01*
X214439Y58437D01*
Y57937D01*
X214939Y57437D01*
X215939D01*
X216439Y57937D01*
X212937Y102937D02*
Y99938D01*
X214437D01*
X214936Y100438D01*
Y101437D01*
X214437Y101937D01*
X212937D01*
X213937D02*
X214936Y102937D01*
X215936D02*
X216936D01*
X216436D01*
Y99938D01*
X215936Y100438D01*
X220435Y99938D02*
X219435Y100438D01*
X218435Y101437D01*
Y102437D01*
X218935Y102937D01*
X219935D01*
X220435Y102437D01*
Y101937D01*
X219935Y101437D01*
X218435D01*
M02*
