G04 Layer_Color=65535*
%FSLAX25Y25*%
%MOIN*%
G70*
G01*
G75*
%ADD33C,0.00984*%
%ADD34C,0.00787*%
%ADD35C,0.01000*%
%ADD36C,0.00500*%
%ADD37C,0.00660*%
D33*
X140106Y111039D02*
X139368Y111466D01*
Y110613D01*
X140106Y111039D01*
D34*
X159983Y110453D02*
X160512Y111289D01*
X160958Y112172D01*
X161320Y113093D01*
X161592Y114044D01*
X161773Y115016D01*
X161861Y116002D01*
X161855Y116991D01*
X161756Y117975D01*
X161564Y118946D01*
X161281Y119894D01*
X160909Y120810D01*
X160452Y121688D01*
X159915Y122518D01*
X159300Y123294D01*
X158616Y124008D01*
X157867Y124653D01*
X157059Y125225D01*
X156202Y125718D01*
X155301Y126128D01*
X154366Y126451D01*
X153404Y126683D01*
X152425Y126823D01*
X151437Y126870D01*
X150449Y126823D01*
X149470Y126683D01*
X148508Y126451D01*
X147573Y126128D01*
X146672Y125718D01*
X145815Y125225D01*
X145008Y124653D01*
X144258Y124008D01*
X143573Y123294D01*
X142959Y122518D01*
X142422Y121688D01*
X141965Y120810D01*
X141593Y119894D01*
X141310Y118946D01*
X141118Y117975D01*
X141019Y116991D01*
X141013Y116002D01*
X141101Y115016D01*
X141282Y114044D01*
X141554Y113093D01*
X141916Y112172D01*
X142362Y111289D01*
X142891Y110453D01*
X142891Y110453D02*
X159983D01*
X123937Y148937D02*
X153937D01*
Y158937D01*
X123937D02*
X153937D01*
X123937Y148937D02*
Y158937D01*
Y163937D02*
X153937D01*
Y173937D01*
X123937D02*
X153937D01*
X123937Y163937D02*
Y173937D01*
Y178937D02*
X153937D01*
Y188937D01*
X123937D02*
X153937D01*
X123937Y178937D02*
Y188937D01*
X131437Y105537D02*
Y106437D01*
Y126437D02*
Y127337D01*
X128437Y106437D02*
X131437D01*
X128437D02*
Y126437D01*
X134437D01*
Y106437D02*
Y126437D01*
X131437Y106437D02*
X134437D01*
X43937Y105537D02*
Y106437D01*
Y126437D02*
Y127337D01*
X40937Y106437D02*
X43937D01*
X40937D02*
Y126437D01*
X46937D01*
Y106437D02*
Y126437D01*
X43937Y106437D02*
X46937D01*
X52409Y17874D02*
Y25354D01*
X61465Y17874D02*
Y25354D01*
X52409D02*
X61465D01*
X53984Y1339D02*
X59890D01*
X52409Y3307D02*
Y10000D01*
X59890Y1339D02*
X61465Y3307D01*
X52409D02*
X53984Y1339D01*
X61465Y3307D02*
Y10000D01*
X41874Y12465D02*
X49354D01*
X41874Y3409D02*
X49354D01*
Y12465D01*
X25339Y4984D02*
Y10890D01*
X27307Y12465D02*
X34000D01*
X25339Y4984D02*
X27307Y3409D01*
X25339Y10890D02*
X27307Y12465D01*
X27307Y3409D02*
X34000D01*
X96909Y57874D02*
Y65354D01*
X105965Y57874D02*
Y65354D01*
X96909D02*
X105965D01*
X98484Y41339D02*
X104390D01*
X96909Y43307D02*
Y50000D01*
X104390Y41339D02*
X105965Y43307D01*
X96909D02*
X98484Y41339D01*
X105965Y43307D02*
Y50000D01*
X123465Y42520D02*
Y50000D01*
X114409Y42520D02*
Y50000D01*
Y42520D02*
X123465D01*
X115984Y66535D02*
X121890D01*
X123465Y57874D02*
Y64567D01*
X114409D02*
X115984Y66535D01*
X121890D02*
X123465Y64567D01*
X114409Y57874D02*
Y64567D01*
D35*
X37079Y151130D02*
X37047Y152133D01*
X36954Y153133D01*
X36798Y154125D01*
X36582Y155105D01*
X36304Y156070D01*
X35967Y157016D01*
X35572Y157939D01*
X35121Y158836D01*
X34614Y159703D01*
X34055Y160536D01*
X33444Y161334D01*
X32786Y162092D01*
X32082Y162807D01*
X31334Y163477D01*
X30546Y164100D01*
X29721Y164672D01*
X28863Y165192D01*
X27973Y165657D01*
X27056Y166067D01*
X26116Y166418D01*
X25155Y166711D01*
X24178Y166943D01*
X23189Y167114D01*
X22191Y167223D01*
X21188Y167270D01*
X20184Y167254D01*
X19183Y167176D01*
X18189Y167036D01*
X17205Y166834D01*
X16236Y166572D01*
X15285Y166250D01*
X14356Y165869D01*
X13453Y165432D01*
X12578Y164939D01*
X11736Y164392D01*
X10929Y163795D01*
X10161Y163148D01*
X9435Y162455D01*
X8753Y161718D01*
X8118Y160940D01*
X7533Y160124D01*
X7000Y159273D01*
X6521Y158391D01*
X6097Y157481D01*
X5731Y156546D01*
X5424Y155590D01*
X5176Y154617D01*
X4990Y153630D01*
X4865Y152634D01*
X4803Y151632D01*
Y150628D01*
X4865Y149626D01*
X4990Y148630D01*
X5176Y147643D01*
X5424Y146670D01*
X5731Y145714D01*
X6097Y144779D01*
X6521Y143869D01*
X7000Y142987D01*
X7533Y142136D01*
X8118Y141320D01*
X8753Y140542D01*
X9435Y139805D01*
X10161Y139112D01*
X10929Y138465D01*
X11736Y137867D01*
X12578Y137321D01*
X13453Y136828D01*
X14356Y136390D01*
X15285Y136010D01*
X16236Y135688D01*
X17206Y135425D01*
X18189Y135224D01*
X19183Y135084D01*
X20184Y135006D01*
X21188Y134990D01*
X22191Y135037D01*
X23189Y135146D01*
X24178Y135317D01*
X25155Y135549D01*
X26116Y135842D01*
X27056Y136193D01*
X27973Y136602D01*
X28863Y137068D01*
X29722Y137588D01*
X30546Y138160D01*
X31334Y138783D01*
X32082Y139453D01*
X32786Y140168D01*
X33445Y140926D01*
X34055Y141724D01*
X34614Y142557D01*
X35121Y143424D01*
X35572Y144321D01*
X35967Y145244D01*
X36304Y146190D01*
X36582Y147155D01*
X36799Y148135D01*
X36954Y149127D01*
X37047Y150127D01*
X37079Y151130D01*
X262441Y11811D02*
X262393Y12807D01*
X262252Y13793D01*
X262017Y14762D01*
X261691Y15703D01*
X261277Y16610D01*
X260778Y17473D01*
X260200Y18285D01*
X259548Y19038D01*
X258826Y19726D01*
X258043Y20342D01*
X257205Y20880D01*
X256319Y21337D01*
X255394Y21708D01*
X254437Y21988D01*
X253459Y22177D01*
X252467Y22272D01*
X251470D01*
X250478Y22177D01*
X249500Y21988D01*
X248543Y21708D01*
X247618Y21337D01*
X246732Y20880D01*
X245894Y20342D01*
X245111Y19726D01*
X244389Y19038D01*
X243737Y18285D01*
X243159Y17473D01*
X242660Y16610D01*
X242246Y15703D01*
X241920Y14762D01*
X241685Y13793D01*
X241544Y12807D01*
X241496Y11811D01*
X241544Y10816D01*
X241685Y9829D01*
X241920Y8861D01*
X242246Y7919D01*
X242660Y7012D01*
X243159Y6149D01*
X243737Y5337D01*
X244389Y4584D01*
X245111Y3897D01*
X245894Y3280D01*
X246732Y2742D01*
X247618Y2285D01*
X248543Y1915D01*
X249500Y1634D01*
X250478Y1445D01*
X251470Y1350D01*
X252467D01*
X253459Y1445D01*
X254437Y1634D01*
X255394Y1915D01*
X256319Y2285D01*
X257205Y2742D01*
X258043Y3280D01*
X258826Y3897D01*
X259548Y4584D01*
X260200Y5337D01*
X260778Y6149D01*
X261277Y7012D01*
X261691Y7919D01*
X262017Y8861D01*
X262252Y9829D01*
X262393Y10816D01*
X262441Y11811D01*
X22284D02*
X22236Y12807D01*
X22094Y13793D01*
X21859Y14762D01*
X21533Y15703D01*
X21119Y16610D01*
X20621Y17473D01*
X20043Y18285D01*
X19390Y19038D01*
X18669Y19726D01*
X17886Y20342D01*
X17047Y20880D01*
X16161Y21337D01*
X15236Y21708D01*
X14280Y21988D01*
X13301Y22177D01*
X12309Y22272D01*
X11313D01*
X10321Y22177D01*
X9342Y21988D01*
X8386Y21708D01*
X7461Y21337D01*
X6575Y20880D01*
X5736Y20342D01*
X4953Y19726D01*
X4232Y19038D01*
X3579Y18285D01*
X3001Y17473D01*
X2503Y16610D01*
X2089Y15703D01*
X1763Y14762D01*
X1528Y13793D01*
X1386Y12807D01*
X1339Y11811D01*
X1386Y10816D01*
X1528Y9829D01*
X1763Y8861D01*
X2089Y7919D01*
X2503Y7012D01*
X3001Y6149D01*
X3579Y5337D01*
X4232Y4584D01*
X4953Y3897D01*
X5736Y3280D01*
X6575Y2742D01*
X7461Y2285D01*
X8386Y1915D01*
X9342Y1634D01*
X10321Y1445D01*
X11313Y1350D01*
X12309D01*
X13301Y1445D01*
X14280Y1634D01*
X15236Y1915D01*
X16161Y2285D01*
X17047Y2742D01*
X17886Y3280D01*
X18669Y3897D01*
X19390Y4584D01*
X20043Y5337D01*
X20621Y6149D01*
X21119Y7012D01*
X21533Y7919D01*
X21859Y8861D01*
X22094Y9829D01*
X22236Y10816D01*
X22284Y11811D01*
X262441Y354331D02*
X262393Y355326D01*
X262252Y356313D01*
X262017Y357281D01*
X261691Y358223D01*
X261277Y359130D01*
X260778Y359993D01*
X260200Y360804D01*
X259548Y361558D01*
X258826Y362245D01*
X258043Y362861D01*
X257205Y363400D01*
X256319Y363857D01*
X255394Y364227D01*
X254437Y364508D01*
X253459Y364697D01*
X252467Y364791D01*
X251470D01*
X250478Y364697D01*
X249500Y364508D01*
X248543Y364227D01*
X247618Y363857D01*
X246732Y363400D01*
X245894Y362861D01*
X245111Y362245D01*
X244389Y361558D01*
X243737Y360804D01*
X243159Y359993D01*
X242660Y359130D01*
X242246Y358223D01*
X241920Y357281D01*
X241685Y356313D01*
X241544Y355326D01*
X241496Y354331D01*
X241544Y353335D01*
X241685Y352349D01*
X241920Y351380D01*
X242246Y350438D01*
X242660Y349532D01*
X243159Y348669D01*
X243737Y347857D01*
X244389Y347104D01*
X245111Y346416D01*
X245894Y345800D01*
X246732Y345261D01*
X247618Y344805D01*
X248543Y344434D01*
X249500Y344153D01*
X250478Y343965D01*
X251470Y343870D01*
X252467D01*
X253459Y343965D01*
X254437Y344153D01*
X255394Y344434D01*
X256319Y344805D01*
X257205Y345261D01*
X258043Y345800D01*
X258826Y346416D01*
X259548Y347104D01*
X260200Y347857D01*
X260778Y348669D01*
X261277Y349532D01*
X261691Y350438D01*
X262017Y351380D01*
X262252Y352349D01*
X262393Y353335D01*
X262441Y354331D01*
X22284D02*
X22236Y355326D01*
X22094Y356313D01*
X21859Y357281D01*
X21533Y358223D01*
X21119Y359130D01*
X20621Y359993D01*
X20043Y360804D01*
X19390Y361558D01*
X18669Y362245D01*
X17886Y362861D01*
X17047Y363400D01*
X16161Y363857D01*
X15236Y364227D01*
X14280Y364508D01*
X13301Y364697D01*
X12309Y364791D01*
X11313D01*
X10321Y364697D01*
X9342Y364508D01*
X8386Y364227D01*
X7461Y363857D01*
X6575Y363400D01*
X5736Y362861D01*
X4953Y362245D01*
X4232Y361558D01*
X3579Y360804D01*
X3001Y359993D01*
X2503Y359130D01*
X2089Y358223D01*
X1763Y357281D01*
X1528Y356313D01*
X1386Y355326D01*
X1339Y354331D01*
X1386Y353335D01*
X1528Y352349D01*
X1763Y351380D01*
X2089Y350438D01*
X2503Y349532D01*
X3001Y348669D01*
X3579Y347857D01*
X4232Y347104D01*
X4953Y346416D01*
X5736Y345800D01*
X6575Y345261D01*
X7461Y344805D01*
X8386Y344434D01*
X9342Y344153D01*
X10321Y343965D01*
X11313Y343870D01*
X12309D01*
X13301Y343965D01*
X14280Y344153D01*
X15236Y344434D01*
X16161Y344805D01*
X17047Y345261D01*
X17886Y345800D01*
X18669Y346416D01*
X19390Y347104D01*
X20043Y347857D01*
X20621Y348669D01*
X21119Y349532D01*
X21533Y350438D01*
X21859Y351380D01*
X22094Y352349D01*
X22236Y353335D01*
X22284Y354331D01*
X160886Y56437D02*
X160855Y57441D01*
X160761Y58440D01*
X160606Y59432D01*
X160389Y60412D01*
X160111Y61377D01*
X159774Y62323D01*
X159379Y63246D01*
X158928Y64143D01*
X158421Y65010D01*
X157862Y65843D01*
X157252Y66641D01*
X156593Y67399D01*
X155889Y68114D01*
X155141Y68784D01*
X154353Y69407D01*
X153528Y69979D01*
X152670Y70499D01*
X151780Y70965D01*
X150863Y71374D01*
X149923Y71725D01*
X148962Y72018D01*
X147985Y72250D01*
X146996Y72421D01*
X145998Y72530D01*
X144995Y72577D01*
X143991Y72561D01*
X142990Y72483D01*
X141996Y72343D01*
X141013Y72141D01*
X140043Y71879D01*
X139093Y71557D01*
X138163Y71176D01*
X137260Y70739D01*
X136385Y70246D01*
X135543Y69699D01*
X134736Y69102D01*
X133968Y68455D01*
X133242Y67762D01*
X132560Y67025D01*
X131925Y66247D01*
X131340Y65431D01*
X130807Y64580D01*
X130328Y63698D01*
X129904Y62788D01*
X129538Y61853D01*
X129231Y60897D01*
X128983Y59924D01*
X128797Y58937D01*
X128673Y57941D01*
X128610Y56939D01*
Y55935D01*
X128673Y54933D01*
X128797Y53937D01*
X128983Y52950D01*
X129231Y51977D01*
X129538Y51021D01*
X129904Y50086D01*
X130328Y49176D01*
X130807Y48294D01*
X131340Y47443D01*
X131925Y46627D01*
X132560Y45849D01*
X133242Y45112D01*
X133968Y44419D01*
X134736Y43772D01*
X135543Y43175D01*
X136385Y42628D01*
X137260Y42135D01*
X138163Y41698D01*
X139093Y41317D01*
X140043Y40995D01*
X141013Y40732D01*
X141996Y40531D01*
X142990Y40391D01*
X143991Y40313D01*
X144995Y40297D01*
X145998Y40344D01*
X146996Y40453D01*
X147985Y40624D01*
X148962Y40856D01*
X149923Y41149D01*
X150863Y41500D01*
X151780Y41909D01*
X152670Y42375D01*
X153528Y42895D01*
X154353Y43467D01*
X155141Y44090D01*
X155889Y44760D01*
X156593Y45475D01*
X157252Y46233D01*
X157862Y47031D01*
X158421Y47864D01*
X158928Y48731D01*
X159379Y49628D01*
X159774Y50551D01*
X160111Y51497D01*
X160389Y52462D01*
X160606Y53442D01*
X160761Y54434D01*
X160855Y55434D01*
X160886Y56437D01*
X196949Y333819D02*
X235925D01*
X196949D02*
Y364921D01*
X235925D01*
Y333819D02*
Y364921D01*
X151949Y333819D02*
X190925D01*
X151949D02*
Y364921D01*
X190925D01*
Y333819D02*
Y364921D01*
X106949Y333819D02*
X145925D01*
X106949D02*
Y364921D01*
X145925D01*
Y333819D02*
Y364921D01*
X61949Y333819D02*
X100925D01*
X61949D02*
Y364921D01*
X100925D01*
Y333819D02*
Y364921D01*
X129508Y203465D02*
Y223150D01*
Y203465D02*
X149193D01*
Y221181D01*
X147224Y223150D02*
X149193Y221181D01*
X129508Y223150D02*
X147224D01*
X229016Y196595D02*
Y226122D01*
X259921D01*
Y196595D02*
Y226122D01*
X229016Y196595D02*
X259921D01*
X229016Y164094D02*
Y193622D01*
X259921D01*
Y164094D02*
Y193622D01*
X229016Y164094D02*
X259921D01*
X229016Y131595D02*
Y161122D01*
X259921D01*
Y131595D02*
Y161122D01*
X229016Y131595D02*
X259921D01*
X5453Y311280D02*
X36358D01*
X5453Y242874D02*
Y311280D01*
Y242874D02*
X36358D01*
Y311280D01*
X51437Y148937D02*
Y228937D01*
X41437Y148937D02*
X51437D01*
X41437D02*
Y228937D01*
X51437D01*
X101437Y148937D02*
Y228937D01*
X91437Y148937D02*
X101437D01*
X91437D02*
Y228937D01*
X101437D01*
X36358Y174567D02*
Y223780D01*
X5453Y174567D02*
X36358D01*
X5453D02*
Y223780D01*
X36358D01*
Y101752D02*
Y131280D01*
X5453Y101752D02*
X36358D01*
X5453D02*
Y131280D01*
X36358D01*
X4331Y27953D02*
X54724D01*
X4331Y82284D02*
X54724D01*
X4331Y27953D02*
Y82284D01*
X54724Y27953D02*
Y82284D01*
X53137Y96387D02*
X124737D01*
Y136487D01*
X53137D02*
X124737D01*
X53137Y96387D02*
Y136487D01*
X179291Y5453D02*
Y36555D01*
Y5453D02*
X218268D01*
Y36555D01*
X179291D02*
X218268D01*
X228819Y46791D02*
X259921D01*
Y85768D01*
X228819D02*
X259921D01*
X228819Y46791D02*
Y85768D01*
Y89291D02*
X259921D01*
Y128268D01*
X228819D02*
X259921D01*
X228819Y89291D02*
Y128268D01*
X85921Y237500D02*
Y307500D01*
X225921D01*
Y237500D02*
Y307500D01*
X85921Y237500D02*
X225921D01*
X156437Y158937D02*
X162435D01*
X160436Y156938D01*
X162435Y154938D01*
X156437D01*
X161435Y152939D02*
X162435Y151939D01*
Y149940D01*
X161435Y148940D01*
X157437D01*
X156437Y149940D01*
Y151939D01*
X157437Y152939D01*
X161435D01*
X156437Y173937D02*
X162435D01*
X160436Y171938D01*
X162435Y169938D01*
X156437D01*
Y167939D02*
Y165940D01*
Y166939D01*
X162435D01*
X161435Y167939D01*
X156437Y188937D02*
X162435D01*
X160436Y186938D01*
X162435Y184938D01*
X156437D01*
Y178940D02*
Y182939D01*
X160436Y178940D01*
X161435D01*
X162435Y179940D01*
Y181939D01*
X161435Y182939D01*
X53543Y146018D02*
Y140020D01*
Y142019D01*
X57542Y146018D01*
X54543Y143019D01*
X57542Y140020D01*
X59541D02*
X61541D01*
X60541D01*
Y146018D01*
X59541Y145018D01*
X219939Y89937D02*
X225937Y93936D01*
X219939D02*
X225937Y89937D01*
Y99934D02*
Y95935D01*
X221938Y99934D01*
X220939D01*
X219939Y98934D01*
Y96935D01*
X220939Y95935D01*
X54937Y226935D02*
Y221937D01*
X55937Y220937D01*
X57936D01*
X58936Y221937D01*
Y226935D01*
X60935Y220937D02*
X62934D01*
X61935D01*
Y226935D01*
X60935Y225935D01*
X33937Y23937D02*
Y17939D01*
X30938D01*
X29938Y18939D01*
Y20938D01*
X30938Y21938D01*
X33937D01*
X27939Y23937D02*
X25940D01*
X26939D01*
Y17939D01*
X27939Y18939D01*
X152438Y105437D02*
Y101439D01*
X153438Y100439D01*
X155437D01*
X156437Y101439D01*
Y105437D01*
X155437Y106437D01*
X153438D01*
X154438Y104438D02*
X152438Y106437D01*
X153438D02*
X152438Y105437D01*
X150439Y106437D02*
X148440D01*
X149439D01*
Y100439D01*
X150439Y101439D01*
X219939Y46937D02*
X225937Y50936D01*
X219939D02*
X225937Y46937D01*
Y52935D02*
Y54934D01*
Y53935D01*
X219939D01*
X220939Y52935D01*
X92281Y326439D02*
X93281Y325439D01*
X95280D01*
X96280Y326439D01*
Y327438D01*
X95280Y328438D01*
X93281D01*
X92281Y329438D01*
Y330437D01*
X93281Y331437D01*
X95280D01*
X96280Y330437D01*
X89282Y331437D02*
X87282D01*
X86283Y330437D01*
Y328438D01*
X87282Y327438D01*
X89282D01*
X90281Y328438D01*
Y330437D01*
X89282Y331437D01*
X84283D02*
Y327438D01*
X81284D01*
X80285Y328438D01*
Y331437D01*
X77286Y327438D02*
X75286D01*
X74287Y328438D01*
Y331437D01*
X77286D01*
X78285Y330437D01*
X77286Y329438D01*
X74287D01*
X72287Y327438D02*
Y331437D01*
Y329438D01*
X71288Y328438D01*
X70288Y327438D01*
X69288D01*
X66289Y331437D02*
X64290D01*
X65289D01*
Y325439D01*
X66289Y326439D01*
X139781D02*
X140780Y325439D01*
X142780D01*
X143780Y326439D01*
Y327438D01*
X142780Y328438D01*
X140780D01*
X139781Y329438D01*
Y330437D01*
X140780Y331437D01*
X142780D01*
X143780Y330437D01*
X136782Y331437D02*
X134782D01*
X133783Y330437D01*
Y328438D01*
X134782Y327438D01*
X136782D01*
X137782Y328438D01*
Y330437D01*
X136782Y331437D01*
X131783D02*
Y327438D01*
X128784D01*
X127785Y328438D01*
Y331437D01*
X124786Y327438D02*
X122786D01*
X121787Y328438D01*
Y331437D01*
X124786D01*
X125785Y330437D01*
X124786Y329438D01*
X121787D01*
X119787Y327438D02*
Y331437D01*
Y329438D01*
X118788Y328438D01*
X117788Y327438D01*
X116788D01*
X109791Y331437D02*
X113789D01*
X109791Y327438D01*
Y326439D01*
X110790Y325439D01*
X112790D01*
X113789Y326439D01*
X184781D02*
X185781Y325439D01*
X187780D01*
X188779Y326439D01*
Y327438D01*
X187780Y328438D01*
X185781D01*
X184781Y329438D01*
Y330437D01*
X185781Y331437D01*
X187780D01*
X188779Y330437D01*
X181782Y331437D02*
X179782D01*
X178783Y330437D01*
Y328438D01*
X179782Y327438D01*
X181782D01*
X182782Y328438D01*
Y330437D01*
X181782Y331437D01*
X176783D02*
Y327438D01*
X173784D01*
X172785Y328438D01*
Y331437D01*
X169786Y327438D02*
X167786D01*
X166787Y328438D01*
Y331437D01*
X169786D01*
X170785Y330437D01*
X169786Y329438D01*
X166787D01*
X164787Y327438D02*
Y331437D01*
Y329438D01*
X163788Y328438D01*
X162788Y327438D01*
X161788D01*
X158789Y326439D02*
X157790Y325439D01*
X155790D01*
X154790Y326439D01*
Y327438D01*
X155790Y328438D01*
X156790D01*
X155790D01*
X154790Y329438D01*
Y330437D01*
X155790Y331437D01*
X157790D01*
X158789Y330437D01*
X229781Y326439D02*
X230781Y325439D01*
X232780D01*
X233780Y326439D01*
Y327438D01*
X232780Y328438D01*
X230781D01*
X229781Y329438D01*
Y330437D01*
X230781Y331437D01*
X232780D01*
X233780Y330437D01*
X226782Y331437D02*
X224782D01*
X223783Y330437D01*
Y328438D01*
X224782Y327438D01*
X226782D01*
X227782Y328438D01*
Y330437D01*
X226782Y331437D01*
X221783D02*
Y327438D01*
X218784D01*
X217785Y328438D01*
Y331437D01*
X214786Y327438D02*
X212786D01*
X211787Y328438D01*
Y331437D01*
X214786D01*
X215785Y330437D01*
X214786Y329438D01*
X211787D01*
X209787Y327438D02*
Y331437D01*
Y329438D01*
X208788Y328438D01*
X207788Y327438D01*
X206788D01*
X200790Y331437D02*
Y325439D01*
X203789Y328438D01*
X199791D01*
X20866Y234415D02*
X18867D01*
X19866D01*
Y240413D01*
X20866D01*
X18867D01*
X11869Y235415D02*
X12869Y234415D01*
X14868D01*
X15868Y235415D01*
Y236415D01*
X14868Y237414D01*
X12869D01*
X11869Y238414D01*
Y239414D01*
X12869Y240413D01*
X14868D01*
X15868Y239414D01*
X9870Y234415D02*
Y240413D01*
X6871D01*
X5871Y239414D01*
Y238414D01*
X6871Y237414D01*
X9870D01*
X6871D01*
X5871Y236415D01*
Y235415D01*
X6871Y234415D01*
X9870D01*
X170939Y7936D02*
X169939Y6936D01*
Y4937D01*
X170939Y3937D01*
X171938D01*
X172938Y4937D01*
Y6936D01*
X173938Y7936D01*
X174937D01*
X175937Y6936D01*
Y4937D01*
X174937Y3937D01*
X169939Y13934D02*
Y9935D01*
X175937D01*
Y13934D01*
X172938Y9935D02*
Y11934D01*
X175937Y15933D02*
X169939D01*
Y18932D01*
X170939Y19932D01*
X172938D01*
X173938Y18932D01*
Y15933D01*
Y17932D02*
X175937Y19932D01*
X169939Y21931D02*
X173938D01*
X175937Y23931D01*
X173938Y25930D01*
X169939D01*
Y30928D02*
Y28929D01*
X170939Y27929D01*
X174937D01*
X175937Y28929D01*
Y30928D01*
X174937Y31928D01*
X170939D01*
X169939Y30928D01*
X69273Y237850D02*
Y241849D01*
Y239849D01*
X75271D01*
Y246847D02*
Y244848D01*
X74272Y243848D01*
X72272D01*
X71273Y244848D01*
Y246847D01*
X72272Y247847D01*
X73272D01*
Y243848D01*
X75271Y252845D02*
Y250846D01*
X74272Y249846D01*
X72272D01*
X71273Y250846D01*
Y252845D01*
X72272Y253845D01*
X73272D01*
Y249846D01*
X75271Y255844D02*
X71273D01*
Y258843D01*
X72272Y259843D01*
X75271D01*
Y261842D02*
Y264841D01*
X74272Y265841D01*
X73272Y264841D01*
Y262842D01*
X72272Y261842D01*
X71273Y262842D01*
Y265841D01*
Y267840D02*
X74272D01*
X75271Y268840D01*
Y271839D01*
X76271D01*
X77271Y270839D01*
Y269840D01*
X75271Y271839D02*
X71273D01*
D36*
X45204Y118839D02*
X42205D01*
Y117339D01*
X42705Y116839D01*
X44704D01*
X45204Y117339D01*
Y118839D01*
X42205Y113840D02*
Y115840D01*
X44204Y113840D01*
X44704D01*
X45204Y114340D01*
Y115340D01*
X44704Y115840D01*
X31436Y150938D02*
X31936Y151437D01*
Y152437D01*
X31436Y152937D01*
X29437D01*
X28937Y152437D01*
Y151437D01*
X29437Y150938D01*
X28937Y149938D02*
Y148938D01*
Y149438D01*
X31936D01*
X31436Y149938D01*
X130072Y114035D02*
X133071D01*
Y115535D01*
X132571Y116035D01*
X130572D01*
X130072Y115535D01*
Y114035D01*
X133071Y117034D02*
Y118034D01*
Y117534D01*
X130072D01*
X130572Y117034D01*
X28937Y98937D02*
Y95938D01*
X27437D01*
X26938Y96438D01*
Y97438D01*
X27437Y97937D01*
X28937D01*
X25938Y96938D02*
Y98437D01*
X25438Y98937D01*
X23939D01*
Y96938D01*
X22939Y98937D02*
Y96938D01*
X22439D01*
X21939Y97438D01*
Y98937D01*
Y97438D01*
X21439Y96938D01*
X20940Y97438D01*
Y98937D01*
X19940Y99937D02*
Y96938D01*
X18440D01*
X17941Y97438D01*
Y98437D01*
X18440Y98937D01*
X19940D01*
X18504Y172303D02*
Y169304D01*
X17504Y170304D01*
X16505Y169304D01*
Y172303D01*
X15005D02*
X14005D01*
X13506Y171803D01*
Y170804D01*
X14005Y170304D01*
X15005D01*
X15505Y170804D01*
Y171803D01*
X15005Y172303D01*
X12006Y169804D02*
Y170304D01*
X12506D01*
X11506D01*
X12006D01*
Y171803D01*
X11506Y172303D01*
X9507D02*
X8507D01*
X8007Y171803D01*
Y170804D01*
X8507Y170304D01*
X9507D01*
X10007Y170804D01*
Y171803D01*
X9507Y172303D01*
X7008Y170304D02*
Y172303D01*
Y171303D01*
X6508Y170804D01*
X6008Y170304D01*
X5508D01*
X223879Y166369D02*
X223379Y165870D01*
Y164870D01*
X223879Y164370D01*
X224379D01*
X224878Y164870D01*
Y165870D01*
X225378Y166369D01*
X225878D01*
X226378Y165870D01*
Y164870D01*
X225878Y164370D01*
X223379Y167369D02*
X226378D01*
X225378Y168369D01*
X226378Y169369D01*
X223379D01*
X226878Y170368D02*
Y172368D01*
X226378Y173367D02*
X224379D01*
X223379Y174367D01*
X224379Y175366D01*
X226378D01*
X224878D01*
Y173367D01*
X226378Y176366D02*
Y177366D01*
Y176866D01*
X223379D01*
X223879Y176366D01*
Y198850D02*
X223379Y198350D01*
Y197350D01*
X223879Y196850D01*
X224379D01*
X224878Y197350D01*
Y198350D01*
X225378Y198850D01*
X225878D01*
X226378Y198350D01*
Y197350D01*
X225878Y196850D01*
X223379Y199849D02*
X226378D01*
X225378Y200849D01*
X226378Y201849D01*
X223379D01*
X226878Y202849D02*
Y204848D01*
X226378Y205848D02*
X224379D01*
X223379Y206847D01*
X224379Y207847D01*
X226378D01*
X224878D01*
Y205848D01*
X226378Y210846D02*
Y208846D01*
X224379Y210846D01*
X223879D01*
X223379Y210346D01*
Y209346D01*
X223879Y208846D01*
X143936Y67436D02*
X143437Y67936D01*
X142437D01*
X141937Y67436D01*
Y65437D01*
X142437Y64937D01*
X143437D01*
X143936Y65437D01*
X146935Y64937D02*
X144936D01*
X146935Y66936D01*
Y67436D01*
X146436Y67936D01*
X145436D01*
X144936Y67436D01*
X116937Y55936D02*
Y52937D01*
X118437D01*
X118936Y53437D01*
Y55436D01*
X118437Y55936D01*
X116937D01*
X119936Y55436D02*
X120436Y55936D01*
X121436D01*
X121935Y55436D01*
Y54936D01*
X121436Y54436D01*
X120936D01*
X121436D01*
X121935Y53937D01*
Y53437D01*
X121436Y52937D01*
X120436D01*
X119936Y53437D01*
X35627Y6303D02*
X38626D01*
Y7803D01*
X38126Y8303D01*
X36127D01*
X35627Y7803D01*
Y6303D01*
X38626Y10802D02*
X35627D01*
X37126Y9302D01*
Y11302D01*
X97937Y52937D02*
Y55936D01*
X99436D01*
X99936Y55436D01*
Y54436D01*
X99436Y53937D01*
X97937D01*
X98937D02*
X99936Y52937D01*
X100936D02*
X101936D01*
X101436D01*
Y55936D01*
X100936Y55436D01*
X104935Y52937D02*
Y55936D01*
X103435Y54436D01*
X105435D01*
X53118Y13248D02*
Y16247D01*
X54618D01*
X55117Y15747D01*
Y14748D01*
X54618Y14248D01*
X53118D01*
X54118D02*
X55117Y13248D01*
X56117D02*
X57117D01*
X56617D01*
Y16247D01*
X56117Y15747D01*
X60616Y16247D02*
X58616D01*
Y14748D01*
X59616Y15247D01*
X60116D01*
X60616Y14748D01*
Y13748D01*
X60116Y13248D01*
X59116D01*
X58616Y13748D01*
X61603Y91937D02*
X61936Y91604D01*
Y90937D01*
X61603Y90604D01*
X61270D01*
X60937Y90937D01*
Y91271D01*
Y90937D01*
X60603Y90604D01*
X60270D01*
X59937Y90937D01*
Y91604D01*
X60270Y91937D01*
X61936Y89938D02*
X60603D01*
X59937Y89271D01*
X60603Y88605D01*
X61936D01*
X61603Y87938D02*
X61936Y87605D01*
Y86939D01*
X61603Y86605D01*
X61270D01*
X60937Y86939D01*
Y87272D01*
Y86939D01*
X60603Y86605D01*
X60270D01*
X59937Y86939D01*
Y87605D01*
X60270Y87938D01*
X24938Y88270D02*
Y86937D01*
X25937D01*
X25604Y87603D01*
Y87937D01*
X25937Y88270D01*
X26604D01*
X26937Y87937D01*
Y87270D01*
X26604Y86937D01*
X24938Y88936D02*
X26271D01*
X26937Y89603D01*
X26271Y90269D01*
X24938D01*
D37*
X225937Y129937D02*
X221938D01*
Y131936D01*
X222605Y132603D01*
X223938D01*
X224604Y131936D01*
Y129937D01*
X223271Y133936D02*
X225937D01*
X224604D01*
X223938Y134602D01*
X223271Y135269D01*
Y135935D01*
X225937Y139934D02*
Y138601D01*
X225271Y137934D01*
X223938D01*
X223271Y138601D01*
Y139934D01*
X223938Y140600D01*
X224604D01*
Y137934D01*
X225937Y141933D02*
Y143932D01*
X225271Y144599D01*
X224604Y143932D01*
Y142600D01*
X223938Y141933D01*
X223271Y142600D01*
Y144599D01*
X225937Y145932D02*
Y147931D01*
X225271Y148598D01*
X224604Y147931D01*
Y146598D01*
X223938Y145932D01*
X223271Y146598D01*
Y148598D01*
Y149931D02*
X225271D01*
X225937Y150597D01*
Y152596D01*
X223271D01*
Y153929D02*
X225937D01*
X224604D01*
X223938Y154596D01*
X223271Y155262D01*
Y155929D01*
X225937Y159927D02*
Y158594D01*
X225271Y157928D01*
X223938D01*
X223271Y158594D01*
Y159927D01*
X223938Y160594D01*
X224604D01*
Y157928D01*
M02*
