G04 Layer_Physical_Order=2*
G04 Layer_Color=16711680*
%FSLAX25Y25*%
%MOIN*%
G70*
G01*
G75*
%ADD11R,0.05906X0.05906*%
%ADD12R,0.05906X0.05906*%
%ADD13C,0.01969*%
%ADD14O,0.06000X0.08000*%
%ADD15O,0.08000X0.06000*%
%ADD16O,0.03937X0.07874*%
%ADD17O,0.03937X0.07874*%
%ADD18C,0.06000*%
%ADD19O,0.12000X0.07000*%
%ADD20C,0.11811*%
%ADD21C,0.12000*%
%ADD22C,0.05906*%
%ADD23C,0.07874*%
%ADD24C,0.08000*%
%ADD25C,0.05512*%
%ADD26C,0.20945*%
%ADD27O,0.07000X0.12000*%
%ADD28C,0.05000*%
%ADD29C,0.03937*%
%ADD30C,0.05906*%
%ADD31C,0.03937*%
%ADD32C,0.05906*%
G36*
X210717Y353802D02*
Y344745D01*
X209034Y343521D01*
X207543Y344052D01*
X206842Y345651D01*
Y353802D01*
X208780Y353921D01*
X210717Y353802D01*
D02*
G37*
G36*
X165717D02*
Y344745D01*
X164034Y343521D01*
X162543Y344052D01*
X161843Y345651D01*
Y353802D01*
X163779Y353921D01*
X165717Y353802D01*
D02*
G37*
G36*
X120717D02*
Y344745D01*
X119034Y343521D01*
X117543Y344052D01*
X116842Y345651D01*
Y353802D01*
X118780Y353921D01*
X120717Y353802D01*
D02*
G37*
G36*
X193630Y351926D02*
X193438Y351779D01*
X190938Y349279D01*
X190299Y348446D01*
X189898Y347477D01*
X189761Y346437D01*
Y333890D01*
X189437D01*
Y323984D01*
X190371D01*
Y316519D01*
X162500D01*
X161460Y316382D01*
X160491Y315980D01*
X159658Y315342D01*
X158080Y313763D01*
X157441Y312931D01*
X157040Y311961D01*
X156903Y310921D01*
Y306353D01*
X155116Y305622D01*
X155090Y305624D01*
X154704Y305783D01*
X154487Y306066D01*
X153443Y306868D01*
X153408Y306882D01*
Y321484D01*
X154342D01*
Y331390D01*
X152798D01*
Y343984D01*
X157137D01*
X158124Y341984D01*
X158100Y341954D01*
X157697Y340981D01*
X157560Y339937D01*
D01*
X161594D01*
Y338937D01*
X162594D01*
Y334034D01*
X162639Y334040D01*
X163612Y334443D01*
X164447Y335084D01*
X164833Y335587D01*
X166144Y335665D01*
X167057Y335446D01*
X167069Y335415D01*
X167871Y334371D01*
X168915Y333570D01*
X170132Y333066D01*
X171437Y332894D01*
X172742Y333066D01*
X173959Y333570D01*
X175003Y334371D01*
X175151Y334563D01*
X175304Y334637D01*
X177413D01*
X177566Y334563D01*
X177714Y334371D01*
X178758Y333570D01*
X179974Y333066D01*
X181280Y332894D01*
X182585Y333066D01*
X183801Y333570D01*
X184846Y334371D01*
X185647Y335415D01*
X186151Y336632D01*
X186323Y337937D01*
Y339937D01*
X186291Y340178D01*
Y351861D01*
X188355Y353926D01*
X192951D01*
X193630Y351926D01*
D02*
G37*
G36*
X145013Y347755D02*
X144898Y347477D01*
X144761Y346437D01*
Y331390D01*
X144437D01*
Y321575D01*
X142959Y320224D01*
X140342Y322842D01*
X139511Y323490D01*
X139763Y325193D01*
X139823Y325437D01*
X132613D01*
X132153Y324670D01*
X131486Y324019D01*
X122122D01*
Y325437D01*
X118169D01*
X114216D01*
Y324019D01*
X109343D01*
Y331390D01*
X107798D01*
Y343984D01*
X112137D01*
X113124Y341984D01*
X113101Y341954D01*
X112697Y340981D01*
X112560Y339937D01*
D01*
X116595D01*
Y338937D01*
X117595D01*
Y334034D01*
X117639Y334040D01*
X118612Y334443D01*
X119447Y335084D01*
X119834Y335587D01*
X121144Y335665D01*
X122057Y335446D01*
X122070Y335415D01*
X122871Y334371D01*
X123915Y333570D01*
X125132Y333066D01*
X126437Y332894D01*
X127742Y333066D01*
X128959Y333570D01*
X130003Y334371D01*
X130151Y334563D01*
X130304Y334637D01*
X132413D01*
X132566Y334563D01*
X132713Y334371D01*
X133758Y333570D01*
X134974Y333066D01*
X136279Y332894D01*
X137585Y333066D01*
X138801Y333570D01*
X139846Y334371D01*
X140647Y335415D01*
X141151Y336632D01*
X141323Y337937D01*
Y339937D01*
X141291Y340178D01*
Y346861D01*
X143317Y348888D01*
X145013Y347755D01*
D02*
G37*
G36*
X100013D02*
X99898Y347477D01*
X99761Y346437D01*
Y331390D01*
X99437D01*
Y321484D01*
X100751D01*
X100909Y321101D01*
X101548Y320269D01*
X103298Y318519D01*
X102470Y316519D01*
X64165D01*
X63408Y317275D01*
Y321484D01*
X64342D01*
Y331390D01*
X62798D01*
Y343984D01*
X67137D01*
X68124Y341984D01*
X68101Y341954D01*
X67697Y340981D01*
X67560Y339937D01*
D01*
X71595D01*
Y338937D01*
X72594D01*
Y334034D01*
X72639Y334040D01*
X73612Y334443D01*
X74447Y335084D01*
X74834Y335587D01*
X76144Y335665D01*
X77057Y335446D01*
X77069Y335415D01*
X77871Y334371D01*
X78915Y333570D01*
X80132Y333066D01*
X81437Y332894D01*
X82742Y333066D01*
X83959Y333570D01*
X85003Y334371D01*
X85151Y334563D01*
X85304Y334637D01*
X87413D01*
X87566Y334563D01*
X87713Y334371D01*
X88758Y333570D01*
X89974Y333066D01*
X91280Y332894D01*
X92585Y333066D01*
X93801Y333570D01*
X94846Y334371D01*
X95647Y335415D01*
X96151Y336632D01*
X96323Y337937D01*
Y339937D01*
X96291Y340178D01*
Y346861D01*
X98317Y348888D01*
X100013Y347755D01*
D02*
G37*
G36*
X186903Y298647D02*
Y287586D01*
X185087Y285771D01*
X90452D01*
X89773Y287771D01*
X90138Y288051D01*
X94465Y292378D01*
X95261Y293416D01*
X95762Y294624D01*
X95933Y295921D01*
Y297622D01*
X96086Y297763D01*
X97933Y298491D01*
X98400Y298132D01*
X99616Y297629D01*
X100921Y297457D01*
X102226Y297629D01*
X103443Y298132D01*
X104487Y298934D01*
X104704Y299217D01*
X105034Y299353D01*
X106809D01*
X107138Y299217D01*
X107355Y298934D01*
X108400Y298132D01*
X109616Y297629D01*
X110921Y297457D01*
X112226Y297629D01*
X113443Y298132D01*
X114487Y298934D01*
X114704Y299217D01*
X115034Y299353D01*
X116809D01*
X117138Y299217D01*
X117355Y298934D01*
X118400Y298132D01*
X119616Y297629D01*
X120921Y297457D01*
X122227Y297629D01*
X123443Y298132D01*
X124487Y298934D01*
X124704Y299217D01*
X125034Y299353D01*
X126809D01*
X127138Y299217D01*
X127355Y298934D01*
X128400Y298132D01*
X129616Y297629D01*
X130921Y297457D01*
X132227Y297629D01*
X133443Y298132D01*
X134487Y298934D01*
X134704Y299217D01*
X135034Y299353D01*
X136809D01*
X137138Y299217D01*
X137355Y298934D01*
X138400Y298132D01*
X139616Y297629D01*
X140921Y297457D01*
X142227Y297629D01*
X143443Y298132D01*
X144487Y298934D01*
X144704Y299217D01*
X145034Y299353D01*
X146809D01*
X147138Y299217D01*
X147355Y298934D01*
X148400Y298132D01*
X149616Y297629D01*
X150921Y297457D01*
X152226Y297629D01*
X153443Y298132D01*
X154487Y298934D01*
X154704Y299217D01*
X155034Y299353D01*
X156809D01*
X157138Y299217D01*
X157355Y298934D01*
X158400Y298132D01*
X159616Y297629D01*
X160921Y297457D01*
X162226Y297629D01*
X163443Y298132D01*
X164487Y298934D01*
X164704Y299217D01*
X165034Y299353D01*
X166809D01*
X167138Y299217D01*
X167355Y298934D01*
X168400Y298132D01*
X169616Y297629D01*
X170921Y297457D01*
X172227Y297629D01*
X173443Y298132D01*
X174487Y298934D01*
X174704Y299217D01*
X175034Y299353D01*
X176809D01*
X177138Y299217D01*
X177355Y298934D01*
X178400Y298132D01*
X179616Y297629D01*
X180921Y297457D01*
X182227Y297629D01*
X183443Y298132D01*
X184487Y298934D01*
X184704Y299217D01*
X185090Y299376D01*
X185116Y299378D01*
X186903Y298647D01*
D02*
G37*
G36*
X196903Y285507D02*
Y277586D01*
X195245Y275928D01*
X188124D01*
X187792Y277870D01*
X188761Y278272D01*
X189594Y278910D01*
X193763Y283080D01*
X194402Y283912D01*
X194803Y284881D01*
X194903Y285638D01*
X196903Y285507D01*
D02*
G37*
G36*
X206903Y275507D02*
Y267586D01*
X205402Y266086D01*
X198281D01*
X197950Y268028D01*
X198919Y268429D01*
X199751Y269068D01*
X203763Y273080D01*
X204401Y273912D01*
X204803Y274881D01*
X204903Y275638D01*
X206903Y275507D01*
D02*
G37*
G36*
X216903Y265507D02*
Y257586D01*
X215560Y256243D01*
X208439D01*
X208107Y258185D01*
X209076Y258587D01*
X209909Y259225D01*
X213763Y263080D01*
X214402Y263912D01*
X214803Y264881D01*
X214903Y265638D01*
X216903Y265507D01*
D02*
G37*
G36*
X89415Y246206D02*
X88904Y245994D01*
X88068Y245353D01*
X87427Y244517D01*
X87024Y243544D01*
X87018Y243500D01*
X90921D01*
Y242500D01*
X91921D01*
Y238597D01*
X91966Y238603D01*
X92939Y239006D01*
X93774Y239647D01*
X94262Y240284D01*
X95156Y240380D01*
X96463Y240199D01*
X96554Y239978D01*
X96903Y239524D01*
Y230086D01*
X95700Y228883D01*
X95132Y228808D01*
X93915Y228305D01*
X93448Y227946D01*
X92009Y228362D01*
X91705Y228535D01*
X91413Y228795D01*
X91278Y229821D01*
X90777Y231029D01*
X89981Y232067D01*
X86221Y235827D01*
X85183Y236623D01*
X83974Y237124D01*
X82677Y237295D01*
X59306D01*
X58908Y239295D01*
X59265Y239443D01*
X59996Y240004D01*
X60557Y240735D01*
X60874Y241500D01*
X54126D01*
X54443Y240735D01*
X55004Y240004D01*
X55735Y239443D01*
X56092Y239295D01*
X55694Y237295D01*
X27666D01*
X26448Y238513D01*
Y246462D01*
X26959Y246947D01*
X28448Y247636D01*
X29132Y247353D01*
X30437Y247181D01*
X32437D01*
X33742Y247353D01*
X34959Y247857D01*
X35413Y248206D01*
X89017D01*
X89415Y246206D01*
D02*
G37*
G36*
X126753Y239376D02*
X127138Y239217D01*
X127355Y238934D01*
X128400Y238133D01*
X129616Y237629D01*
X130921Y237457D01*
X132227Y237629D01*
X133443Y238133D01*
X134487Y238934D01*
X134704Y239217D01*
X135034Y239353D01*
X136809D01*
X137138Y239217D01*
X137355Y238934D01*
X138400Y238133D01*
X139616Y237629D01*
X140921Y237457D01*
X142227Y237629D01*
X143443Y238133D01*
X144487Y238934D01*
X144704Y239217D01*
X145034Y239353D01*
X146809D01*
X147138Y239217D01*
X147355Y238934D01*
X148400Y238133D01*
X149616Y237629D01*
X150921Y237457D01*
X152226Y237629D01*
X153443Y238133D01*
X154487Y238934D01*
X154704Y239217D01*
X154981Y239331D01*
X156831Y238703D01*
Y154889D01*
X155901Y154304D01*
X153762Y155230D01*
X153263Y156435D01*
X152956Y156836D01*
Y166038D01*
X153263Y166439D01*
X153762Y167644D01*
X153932Y168937D01*
X153762Y170230D01*
X153263Y171435D01*
X152956Y171836D01*
Y181038D01*
X153263Y181439D01*
X153762Y182644D01*
X153932Y183937D01*
X153762Y185230D01*
X153263Y186435D01*
X152956Y186836D01*
Y191880D01*
X153321Y192762D01*
X153476Y193937D01*
X153321Y195112D01*
X152868Y196206D01*
X152146Y197146D01*
X151206Y197868D01*
X150112Y198321D01*
X148937Y198476D01*
X147762Y198321D01*
X146668Y197868D01*
X145728Y197146D01*
X145006Y196206D01*
X144553Y195112D01*
X144398Y193937D01*
X144553Y192762D01*
X144918Y191880D01*
Y189351D01*
X142918Y189220D01*
X142819Y189977D01*
X142417Y190946D01*
X141779Y191779D01*
X139279Y194279D01*
X138446Y194917D01*
X137477Y195319D01*
X136437Y195456D01*
X106437D01*
X105397Y195319D01*
X104428Y194917D01*
X103595Y194279D01*
X103444Y194127D01*
X101357Y194869D01*
X101308Y195242D01*
X100804Y196459D01*
X100456Y196913D01*
Y200961D01*
X100804Y201415D01*
X101308Y202632D01*
X101480Y203937D01*
X101308Y205242D01*
X100804Y206459D01*
X100003Y207503D01*
X99720Y207720D01*
X99561Y208105D01*
X99559Y208132D01*
X100290Y209918D01*
X108937D01*
X109977Y210055D01*
X110946Y210457D01*
X111779Y211095D01*
X113763Y213080D01*
X114401Y213912D01*
X114803Y214881D01*
X114940Y215921D01*
Y220917D01*
X116289Y221554D01*
X116940Y221676D01*
X117731Y221069D01*
X118825Y220616D01*
X120000Y220461D01*
X121175Y220616D01*
X122269Y221069D01*
X123209Y221791D01*
X123931Y222731D01*
X124384Y223825D01*
X124394Y223903D01*
X124401Y223912D01*
X124803Y224881D01*
X124940Y225921D01*
Y238647D01*
X126726Y239378D01*
X126753Y239376D01*
D02*
G37*
G36*
X106903Y228007D02*
Y217956D01*
X100290D01*
X99559Y219742D01*
X99561Y219769D01*
X99720Y220154D01*
X100003Y220371D01*
X100804Y221415D01*
X101308Y222632D01*
X101383Y223200D01*
X103763Y225580D01*
X104402Y226412D01*
X104803Y227381D01*
X104903Y228138D01*
X106903Y228007D01*
D02*
G37*
G36*
X203123Y341984D02*
X203100Y341954D01*
X202697Y340981D01*
X202560Y339937D01*
D01*
X206594D01*
Y337937D01*
X202560D01*
X202576Y337816D01*
Y330512D01*
X202713Y329472D01*
X203114Y328502D01*
X203753Y327670D01*
X204217Y327207D01*
Y324984D01*
X207669D01*
X208169Y324918D01*
X208670Y324984D01*
X212122D01*
Y328437D01*
X212188Y328937D01*
X212122Y329437D01*
Y332425D01*
X213806Y333654D01*
X213915Y333570D01*
X215132Y333066D01*
X216437Y332894D01*
X217742Y333066D01*
X218959Y333570D01*
X219268Y333807D01*
X221268Y332867D01*
Y323406D01*
X221439Y322109D01*
X221940Y320900D01*
X222736Y319862D01*
X226142Y316456D01*
X227179Y315660D01*
X228388Y315159D01*
X229685Y314989D01*
X247924D01*
X251426Y311487D01*
Y208673D01*
X249426Y207906D01*
X248943Y208277D01*
X247734Y208778D01*
X246437Y208948D01*
X239309D01*
X239304Y208959D01*
X238503Y210003D01*
X238311Y210151D01*
X238236Y210304D01*
Y212413D01*
X238311Y212566D01*
X238503Y212714D01*
X239304Y213758D01*
X239808Y214974D01*
X239980Y216280D01*
X239808Y217585D01*
X239304Y218801D01*
X238503Y219846D01*
X237459Y220647D01*
X236242Y221151D01*
X235318Y221272D01*
Y224378D01*
X236252D01*
Y234283D01*
X226346D01*
X224868Y235543D01*
Y239430D01*
X225289Y239978D01*
X225793Y241195D01*
X225964Y242500D01*
X225793Y243805D01*
X225289Y245022D01*
X224487Y246066D01*
X223443Y246867D01*
X222227Y247371D01*
X220949Y247539D01*
X220880Y247633D01*
X220153Y249195D01*
X220141Y249458D01*
X223763Y253080D01*
X224401Y253912D01*
X224803Y254881D01*
X224940Y255921D01*
Y299524D01*
X225289Y299978D01*
X225793Y301195D01*
X225964Y302500D01*
X225793Y303805D01*
X225289Y305022D01*
X224487Y306066D01*
X223443Y306868D01*
X222227Y307371D01*
X220921Y307543D01*
X219616Y307371D01*
X218400Y306868D01*
X217355Y306066D01*
X217138Y305783D01*
X216809Y305647D01*
X215034D01*
X214704Y305783D01*
X214487Y306066D01*
X213443Y306868D01*
X212227Y307371D01*
X210921Y307543D01*
X209616Y307371D01*
X208400Y306868D01*
X207355Y306066D01*
X207138Y305783D01*
X206809Y305647D01*
X205034D01*
X204704Y305783D01*
X204487Y306066D01*
X203443Y306868D01*
X202226Y307371D01*
X200921Y307543D01*
X199616Y307371D01*
X198400Y306868D01*
X197355Y306066D01*
X197138Y305783D01*
X196809Y305647D01*
X195034D01*
X194704Y305783D01*
X194487Y306066D01*
X193754Y306629D01*
X193649Y307598D01*
X193991Y308805D01*
X194509Y309020D01*
X195342Y309658D01*
X197231Y311548D01*
X197870Y312380D01*
X198272Y313350D01*
X198408Y314390D01*
Y323984D01*
X199343D01*
Y333890D01*
X197798D01*
Y343984D01*
X202137D01*
X203123Y341984D01*
D02*
G37*
G36*
X124984Y184937D02*
X128937D01*
Y182937D01*
X124984D01*
Y180456D01*
X120698D01*
X120007Y181441D01*
X119612Y182456D01*
X119811Y182937D01*
X113063D01*
X113262Y182456D01*
X112867Y181441D01*
X112176Y180456D01*
X106467D01*
X105639Y182456D01*
X106779Y183595D01*
X107417Y184428D01*
X107819Y185397D01*
X107956Y186437D01*
Y187272D01*
X108102Y187418D01*
X112176D01*
X112867Y186433D01*
X113262Y185418D01*
X113063Y184937D01*
X119811D01*
X119612Y185418D01*
X120007Y186433D01*
X120698Y187418D01*
X124984D01*
Y184937D01*
D02*
G37*
G36*
X216968Y232835D02*
X217369Y231866D01*
X218008Y231033D01*
X222552Y226489D01*
X223384Y225851D01*
X224354Y225449D01*
X225394Y225312D01*
X226346D01*
Y224378D01*
X227281D01*
Y218917D01*
X227417Y217877D01*
X227819Y216908D01*
X227954Y216733D01*
X227894Y216280D01*
X228066Y214974D01*
X228570Y213758D01*
X229371Y212714D01*
X229563Y212566D01*
X229638Y212413D01*
Y210304D01*
X229563Y210151D01*
X229371Y210003D01*
X228570Y208959D01*
X228066Y207742D01*
X227894Y206437D01*
X228066Y205132D01*
X228570Y203915D01*
X229003Y203351D01*
X229096Y202640D01*
X229597Y201431D01*
X230393Y200393D01*
X231431Y199597D01*
X232640Y199096D01*
X233937Y198926D01*
X243926D01*
Y178948D01*
X240007D01*
X239067Y180948D01*
X239304Y181258D01*
X239808Y182474D01*
X239980Y183780D01*
X239808Y185085D01*
X239304Y186301D01*
X238503Y187346D01*
X237459Y188147D01*
X236242Y188651D01*
X234937Y188823D01*
X232937D01*
X231632Y188651D01*
X230415Y188147D01*
X229961Y187798D01*
X224381D01*
X223507Y188672D01*
Y211614D01*
X223370Y212654D01*
X222968Y213623D01*
X222330Y214456D01*
X218393Y218393D01*
X217561Y219031D01*
X216591Y219433D01*
X216567Y219436D01*
Y220504D01*
X214868D01*
Y233461D01*
X216868Y233592D01*
X216968Y232835D01*
D02*
G37*
G36*
X124984Y169937D02*
X128937D01*
Y167937D01*
X124984D01*
Y165456D01*
X120698D01*
X120007Y166441D01*
X119612Y167456D01*
X119811Y167937D01*
X113063D01*
X113262Y167456D01*
X112867Y166441D01*
X112176Y165456D01*
X101220D01*
X100804Y166459D01*
X100003Y167503D01*
X99720Y167720D01*
X99584Y168050D01*
Y169824D01*
X99720Y170154D01*
X100003Y170371D01*
X100804Y171415D01*
X101220Y172418D01*
X112176D01*
X112867Y171433D01*
X113262Y170418D01*
X113063Y169937D01*
X119811D01*
X119612Y170418D01*
X120007Y171433D01*
X120698Y172418D01*
X124984D01*
Y169937D01*
D02*
G37*
G36*
X58937Y141437D02*
X86437D01*
Y88937D01*
X68937D01*
Y73344D01*
X66939Y73222D01*
X66482Y74730D01*
X65739Y76120D01*
X65037Y76976D01*
Y83819D01*
X64922Y84986D01*
X64581Y86108D01*
X64029Y87142D01*
X63285Y88048D01*
X58167Y93167D01*
X57260Y93910D01*
X56226Y94463D01*
X55104Y94804D01*
X53937Y94919D01*
X52770Y94804D01*
X51919Y94545D01*
X51039Y94936D01*
X49919Y95807D01*
Y101437D01*
X49804Y102604D01*
X49463Y103726D01*
X48910Y104760D01*
X48167Y105667D01*
X47260Y106411D01*
X46226Y106963D01*
X45104Y107304D01*
X43937Y107419D01*
X37419D01*
Y111127D01*
X37480Y111594D01*
X37308Y112900D01*
X37134Y113321D01*
X36963Y113883D01*
X36410Y114918D01*
X35667Y115824D01*
Y117207D01*
X36410Y118114D01*
X36963Y119148D01*
X37134Y119711D01*
X37308Y120132D01*
X37480Y121437D01*
X37419Y121905D01*
Y125455D01*
X68937D01*
X70104Y125570D01*
X71226Y125911D01*
X72260Y126463D01*
X73167Y127207D01*
X73910Y128114D01*
X74463Y129148D01*
X74804Y130270D01*
X74919Y131437D01*
X74804Y132604D01*
X74463Y133726D01*
X73910Y134760D01*
X73167Y135667D01*
X72260Y136410D01*
X71226Y136963D01*
X70104Y137304D01*
X68937Y137419D01*
X42177D01*
X41676Y139419D01*
X41760Y139463D01*
X42667Y140207D01*
X50667Y148207D01*
X51411Y149114D01*
X51963Y150148D01*
X52304Y151270D01*
X52419Y152437D01*
X52304Y153604D01*
X51963Y154726D01*
X51411Y155760D01*
X50667Y156667D01*
X50608Y156715D01*
X50003Y157503D01*
X48959Y158305D01*
X48738Y158396D01*
X48557Y159702D01*
X48653Y160596D01*
X49290Y161084D01*
X49931Y161920D01*
X50334Y162893D01*
X50340Y162937D01*
X46437D01*
X42534D01*
X42540Y162893D01*
X42943Y161920D01*
X43584Y161084D01*
X44221Y160596D01*
X44317Y159702D01*
X44136Y158396D01*
X43915Y158305D01*
X42871Y157503D01*
X42266Y156715D01*
X42207Y156667D01*
X35959Y150419D01*
X20937D01*
X19770Y150304D01*
X18718Y149985D01*
X18437D01*
X17001Y149795D01*
X15663Y149241D01*
X14514Y148360D01*
X13633Y147211D01*
X13079Y145873D01*
X12952Y144911D01*
X7207Y139167D01*
X6464Y138260D01*
X5911Y137226D01*
X5570Y136104D01*
X5455Y134937D01*
Y86437D01*
Y59429D01*
X5570Y58262D01*
X5911Y57140D01*
X6464Y56106D01*
X7207Y55199D01*
X11518Y50889D01*
X12425Y50145D01*
X13459Y49592D01*
X14581Y49251D01*
X15748Y49137D01*
X39288D01*
Y42807D01*
X37288Y42307D01*
X36920Y42996D01*
X35932Y44200D01*
X34728Y45188D01*
X33355Y45922D01*
X31865Y46374D01*
X30315Y46526D01*
X28765Y46374D01*
X27275Y45922D01*
X25902Y45188D01*
X24698Y44200D01*
X23710Y42996D01*
X22976Y41623D01*
X22524Y40132D01*
X22371Y38583D01*
X22524Y37033D01*
X22976Y35543D01*
X23710Y34169D01*
X24698Y32966D01*
X25902Y31978D01*
X27275Y31244D01*
X28765Y30792D01*
X30315Y30639D01*
X31865Y30792D01*
X33355Y31244D01*
X34728Y31978D01*
X35932Y32966D01*
X36920Y34169D01*
X37288Y34859D01*
X39288Y34358D01*
Y25679D01*
X38923Y24797D01*
X38768Y23622D01*
X38923Y22447D01*
X39376Y21353D01*
X40098Y20413D01*
X41038Y19691D01*
X42132Y19238D01*
X43307Y19083D01*
X44482Y19238D01*
X45577Y19691D01*
X46516Y20413D01*
X47238Y21353D01*
X47691Y22447D01*
X47846Y23622D01*
X47691Y24797D01*
X47326Y25679D01*
Y49137D01*
X53733D01*
X54589Y48434D01*
X55979Y47691D01*
X57029Y47373D01*
X57223Y45739D01*
X57149Y45319D01*
X56363Y45081D01*
X55147Y44431D01*
X54081Y43556D01*
X53207Y42491D01*
X52557Y41274D01*
X52156Y39955D01*
X52120Y39583D01*
X59055D01*
X65991D01*
X65954Y39955D01*
X65554Y41274D01*
X64904Y42491D01*
X64029Y43556D01*
X62963Y44431D01*
X61747Y45081D01*
X60961Y45319D01*
X60887Y45739D01*
X61082Y47373D01*
X62131Y47691D01*
X63521Y48434D01*
X64739Y49434D01*
X65739Y50652D01*
X66482Y52042D01*
X66939Y53550D01*
X68937Y53428D01*
Y-0D01*
X20221D01*
X19807Y663D01*
X19529Y2000D01*
X20658Y2964D01*
X21933Y4457D01*
X22958Y6131D01*
X23710Y7945D01*
X24168Y9854D01*
X24322Y11811D01*
X24168Y13768D01*
X23710Y15677D01*
X22958Y17491D01*
X21933Y19165D01*
X20658Y20658D01*
X19165Y21933D01*
X17491Y22958D01*
X15677Y23710D01*
X13768Y24168D01*
X11811Y24322D01*
X9854Y24168D01*
X7945Y23710D01*
X6131Y22958D01*
X4457Y21933D01*
X2964Y20658D01*
X2000Y19528D01*
X663Y19807D01*
X-0Y20221D01*
Y208937D01*
X25386D01*
X26316Y206937D01*
X26070Y206616D01*
X25566Y205400D01*
X25394Y204095D01*
X25566Y202789D01*
X26070Y201573D01*
X26871Y200528D01*
X27064Y200381D01*
X27138Y200228D01*
Y198119D01*
X27064Y197966D01*
X26871Y197818D01*
X26070Y196774D01*
X25566Y195557D01*
X25394Y194252D01*
X25566Y192947D01*
X26070Y191730D01*
X26871Y190686D01*
X27064Y190538D01*
X27138Y190385D01*
Y188276D01*
X27064Y188123D01*
X26871Y187976D01*
X26070Y186931D01*
X25566Y185715D01*
X25394Y184409D01*
X25566Y183104D01*
X26070Y181888D01*
X26871Y180843D01*
X27915Y180042D01*
X29132Y179538D01*
X30437Y179366D01*
X31893D01*
X40393Y170866D01*
X41431Y170070D01*
X42640Y169569D01*
X43937Y169398D01*
X44234Y167398D01*
X44221Y167278D01*
X43584Y166790D01*
X42943Y165954D01*
X42540Y164981D01*
X42534Y164937D01*
X46437D01*
X50340D01*
X50334Y164981D01*
X49931Y165954D01*
X49290Y166790D01*
X48653Y167278D01*
X48557Y168172D01*
X48738Y169478D01*
X48959Y169570D01*
X50003Y170371D01*
X50805Y171415D01*
X51308Y172632D01*
X51480Y173937D01*
X51433Y174294D01*
X51448Y174409D01*
X51278Y175707D01*
X50777Y176915D01*
X49981Y177953D01*
X50003Y180370D01*
X50008Y180377D01*
X50805Y181415D01*
X51308Y182632D01*
X51480Y183937D01*
X51443Y184215D01*
X51448Y184252D01*
X51278Y185549D01*
X50777Y186758D01*
X49981Y187795D01*
X49877Y187875D01*
X49850Y187924D01*
X49858Y190242D01*
X49875Y190273D01*
X50003Y190371D01*
X50805Y191415D01*
X51308Y192632D01*
X51480Y193937D01*
X51308Y195242D01*
X51292Y195281D01*
X51278Y195391D01*
X50777Y196600D01*
X49981Y197638D01*
X49788Y197786D01*
X49699Y197978D01*
X49705Y200036D01*
X49786Y200204D01*
X50003Y200371D01*
X50805Y201415D01*
X51308Y202632D01*
X51480Y203937D01*
X51308Y205242D01*
X50805Y206459D01*
X50437Y206937D01*
X51145Y208757D01*
X51309Y208937D01*
X58937D01*
Y141437D01*
D02*
G37*
G36*
X124984Y154937D02*
X128937D01*
Y153937D01*
X129937D01*
Y149984D01*
X132890D01*
Y149984D01*
X134886Y150556D01*
X135457Y149956D01*
X134832Y147956D01*
X101437D01*
X100397Y147819D01*
X99428Y147417D01*
X98595Y146779D01*
X97139Y145322D01*
X94016Y148446D01*
X95148Y150141D01*
X95393Y150040D01*
X95437Y150034D01*
Y153937D01*
X96437D01*
Y154937D01*
X100340D01*
X100334Y154981D01*
X100153Y155418D01*
X100846Y156912D01*
X101329Y157418D01*
X112176D01*
X112867Y156433D01*
X113262Y155418D01*
X113063Y154937D01*
X119811D01*
X119612Y155418D01*
X120007Y156433D01*
X120698Y157418D01*
X124984D01*
Y154937D01*
D02*
G37*
G36*
X215470Y209950D02*
Y205724D01*
X212614D01*
Y201772D01*
Y197819D01*
X215470D01*
Y187008D01*
X215606Y185968D01*
X216008Y184999D01*
X216647Y184166D01*
X219875Y180938D01*
X220707Y180299D01*
X221676Y179898D01*
X222716Y179761D01*
X229028D01*
X229665Y177884D01*
X229660Y177850D01*
X229563Y177651D01*
X229371Y177503D01*
X228570Y176459D01*
X228066Y175242D01*
X227894Y173937D01*
X228066Y172632D01*
X228570Y171415D01*
X229371Y170371D01*
X230415Y169570D01*
X231632Y169066D01*
X232937Y168894D01*
X234937D01*
X235178Y168926D01*
X243926D01*
Y146448D01*
X240007D01*
X239067Y148448D01*
X239304Y148758D01*
X239808Y149974D01*
X239980Y151279D01*
X239808Y152585D01*
X239304Y153801D01*
X238503Y154846D01*
X237459Y155647D01*
X236242Y156151D01*
X234937Y156323D01*
X232937D01*
X231632Y156151D01*
X230415Y155647D01*
X229371Y154846D01*
X229371Y154845D01*
X221390D01*
Y155780D01*
X211484D01*
Y154845D01*
X205838D01*
X204868Y155815D01*
Y210099D01*
X206661Y210598D01*
Y210598D01*
X214821D01*
X215470Y209950D01*
D02*
G37*
G36*
X81426Y226448D02*
Y148937D01*
X81596Y147640D01*
X82097Y146431D01*
X81086Y144463D01*
X61963D01*
Y208937D01*
X61860Y209720D01*
X61558Y210450D01*
X61077Y211077D01*
X60450Y211558D01*
X60181Y211669D01*
X59636Y213075D01*
X59579Y213896D01*
X60342Y214658D01*
X60980Y215491D01*
X61382Y216460D01*
X61519Y217500D01*
Y225619D01*
X63172Y227272D01*
X80601D01*
X81426Y226448D01*
D02*
G37*
G36*
X166903Y236415D02*
Y120376D01*
X166437Y119967D01*
X165523Y119847D01*
X164672Y119494D01*
X163941Y118933D01*
X163380Y118202D01*
X163063Y117437D01*
X166437D01*
Y115437D01*
X163063D01*
X163380Y114672D01*
X163941Y113941D01*
X164672Y113380D01*
X165523Y113027D01*
X166437Y112907D01*
X166903Y112498D01*
Y61579D01*
X167040Y60539D01*
X167441Y59569D01*
X168080Y58737D01*
X170051Y56766D01*
X169285Y54919D01*
X159211D01*
X157419Y56437D01*
Y71437D01*
X157304Y72604D01*
X156963Y73726D01*
X156411Y74760D01*
X155667Y75667D01*
X150667Y80667D01*
X149760Y81410D01*
X148726Y81963D01*
X147604Y82304D01*
X146437Y82419D01*
X103266D01*
X101448Y83937D01*
Y91861D01*
X106013Y96426D01*
X115585D01*
X115587Y96424D01*
X116630Y95867D01*
X117761Y95524D01*
X118937Y95408D01*
X120113Y95524D01*
X121244Y95867D01*
X122287Y96424D01*
X122289Y96426D01*
X131437D01*
X132734Y96596D01*
X133943Y97097D01*
X134981Y97893D01*
X135777Y98931D01*
X136278Y100140D01*
X136448Y101437D01*
X136278Y102734D01*
X135777Y103943D01*
X134981Y104981D01*
X133943Y105777D01*
X132734Y106278D01*
X131437Y106448D01*
X122289D01*
X122287Y106450D01*
X121244Y107007D01*
X120113Y107350D01*
X118937Y107466D01*
X117761Y107350D01*
X116630Y107007D01*
X115587Y106450D01*
X115585Y106448D01*
X103937D01*
X103448Y106384D01*
X101448Y107723D01*
Y138265D01*
X103102Y139918D01*
X146437D01*
X147477Y140055D01*
X148446Y140457D01*
X149279Y141095D01*
X151779Y143595D01*
X151984Y143863D01*
X153984Y143374D01*
Y143374D01*
X163890D01*
Y147657D01*
X164330Y148230D01*
X164731Y149199D01*
X164868Y150239D01*
Y237383D01*
X164920Y237418D01*
X166903Y236415D01*
D02*
G37*
G36*
X196968Y153110D02*
X197369Y152141D01*
X198008Y151309D01*
X201332Y147985D01*
X202164Y147346D01*
X203133Y146945D01*
X204173Y146808D01*
X211484D01*
Y145874D01*
X221390D01*
Y146808D01*
X228438D01*
X229050Y145623D01*
X229221Y144808D01*
X228570Y143959D01*
X228066Y142742D01*
X227894Y141437D01*
X228066Y140132D01*
X228570Y138915D01*
X229371Y137871D01*
X230415Y137069D01*
X231632Y136566D01*
X232937Y136394D01*
X234937D01*
X235178Y136426D01*
X243926D01*
Y103948D01*
X240007D01*
X239067Y105948D01*
X239304Y106258D01*
X239808Y107474D01*
X239980Y108780D01*
X239808Y110085D01*
X239304Y111301D01*
X238503Y112346D01*
X237459Y113147D01*
X237428Y113160D01*
X237209Y114072D01*
X237287Y115383D01*
X237790Y115769D01*
X238431Y116605D01*
X238834Y117578D01*
X238840Y117622D01*
X233937D01*
X229034D01*
X229040Y117578D01*
X229443Y116605D01*
X230084Y115769D01*
X230587Y115383D01*
X230665Y114072D01*
X230446Y113160D01*
X230415Y113147D01*
X229371Y112346D01*
X229371Y112345D01*
X221390D01*
Y113279D01*
X211484D01*
Y112345D01*
X195838D01*
X194868Y113315D01*
Y153736D01*
X196868Y153867D01*
X196968Y153110D01*
D02*
G37*
G36*
X30698Y136456D02*
X30614Y136410D01*
X29707Y135667D01*
X27207Y133167D01*
X26463Y132260D01*
X25911Y131226D01*
X25570Y130104D01*
X25455Y128937D01*
Y121905D01*
X25394Y121437D01*
X25566Y120132D01*
X25740Y119711D01*
X25911Y119148D01*
X26463Y118114D01*
X27207Y117207D01*
Y115824D01*
X26463Y114918D01*
X25911Y113883D01*
X25740Y113321D01*
X25566Y112900D01*
X25394Y111594D01*
X25455Y111127D01*
Y103563D01*
X25570Y102396D01*
X25911Y101274D01*
X26463Y100240D01*
X27207Y99333D01*
X29333Y97207D01*
X29685Y96919D01*
X28970Y94919D01*
X17419D01*
Y132459D01*
X23415Y138455D01*
X30197D01*
X30698Y136456D01*
D02*
G37*
G36*
X186968Y110610D02*
X187369Y109641D01*
X188008Y108809D01*
X191332Y105485D01*
X192164Y104847D01*
X193133Y104445D01*
X194173Y104308D01*
X211484D01*
Y103374D01*
X221390D01*
Y104308D01*
X228438D01*
X229050Y103123D01*
X229221Y102308D01*
X228570Y101459D01*
X228066Y100242D01*
X227894Y98937D01*
X228066Y97632D01*
X228570Y96415D01*
X229371Y95371D01*
X230415Y94569D01*
X231632Y94066D01*
X232937Y93894D01*
X234937D01*
X235178Y93926D01*
X243926D01*
Y87956D01*
X222262D01*
X221390Y89595D01*
Y99500D01*
X211484D01*
Y89595D01*
X212418D01*
Y86437D01*
X212555Y85397D01*
X212957Y84428D01*
X213595Y83595D01*
X216095Y81095D01*
X216928Y80457D01*
X217897Y80055D01*
X218937Y79918D01*
X228287D01*
X229038Y78763D01*
X229351Y77918D01*
X229040Y77166D01*
X229034Y77122D01*
X233937D01*
X238840D01*
X238834Y77166D01*
X238523Y77918D01*
X238836Y78763D01*
X239587Y79918D01*
X242272D01*
X243926Y78265D01*
Y56147D01*
X242428Y54800D01*
X240281Y55185D01*
X239895Y55791D01*
X239980Y56437D01*
X239808Y57742D01*
X239304Y58959D01*
X238503Y60003D01*
X238311Y60151D01*
X238236Y60304D01*
Y62413D01*
X238311Y62566D01*
X238503Y62713D01*
X239304Y63758D01*
X239808Y64974D01*
X239980Y66280D01*
X239808Y67585D01*
X239304Y68801D01*
X238503Y69846D01*
X237459Y70647D01*
X237428Y70660D01*
X237209Y71572D01*
X237287Y72883D01*
X237790Y73269D01*
X238431Y74105D01*
X238834Y75078D01*
X238840Y75122D01*
X233937D01*
X229034D01*
X229040Y75078D01*
X229443Y74105D01*
X230084Y73269D01*
X230587Y72883D01*
X230665Y71572D01*
X230446Y70660D01*
X230415Y70647D01*
X229371Y69846D01*
X229371Y69845D01*
X223890D01*
Y70780D01*
X213984D01*
Y69845D01*
X185838D01*
X184868Y70815D01*
Y111236D01*
X186868Y111367D01*
X186968Y110610D01*
D02*
G37*
G36*
X91426Y88523D02*
Y86013D01*
X87831Y82419D01*
X85492D01*
X84325Y82304D01*
X83203Y81963D01*
X82169Y81410D01*
X81262Y80667D01*
X80242Y79646D01*
X79140Y79538D01*
X77632Y79080D01*
X76243Y78338D01*
X75024Y77338D01*
X74025Y76120D01*
X73963Y76004D01*
X71963Y76505D01*
Y85911D01*
X86437D01*
X87220Y86014D01*
X87950Y86317D01*
X88577Y86797D01*
X89057Y87424D01*
X89360Y88154D01*
X89426Y88654D01*
X91426Y88523D01*
D02*
G37*
G36*
X145456Y68959D02*
Y56437D01*
X145570Y55270D01*
X145890Y54218D01*
Y53937D01*
X145916Y53736D01*
X145911Y53726D01*
X145570Y52604D01*
X145456Y51437D01*
X145570Y50270D01*
X145911Y49148D01*
X146464Y48114D01*
X147207Y47207D01*
X149707Y44707D01*
X150614Y43964D01*
X151648Y43411D01*
X152770Y43070D01*
X153937Y42955D01*
X181689D01*
X183003Y41315D01*
X183087Y40955D01*
X182961Y40000D01*
X183116Y38825D01*
X183569Y37731D01*
X184291Y36791D01*
X184570Y34959D01*
X184066Y33742D01*
X183894Y32437D01*
Y30437D01*
X184066Y29132D01*
X184570Y27915D01*
X185371Y26871D01*
X186415Y26070D01*
X187632Y25566D01*
X188937Y25394D01*
X190242Y25566D01*
X191459Y26070D01*
X192503Y26871D01*
X193020Y26956D01*
X194942Y26886D01*
X195456Y26463D01*
X196491Y25911D01*
X197054Y25740D01*
X197474Y25566D01*
X198779Y25394D01*
X200085Y25566D01*
X200505Y25740D01*
X201069Y25911D01*
X202103Y26463D01*
X203009Y27207D01*
X203333Y27602D01*
X203555Y27703D01*
X205054Y27785D01*
X205751Y27608D01*
X205769Y27584D01*
X206605Y26943D01*
X207578Y26540D01*
X207622Y26534D01*
Y31437D01*
Y36340D01*
X207578Y36334D01*
X206761Y35996D01*
X206121Y36221D01*
X204761Y37037D01*
Y43768D01*
X218928D01*
X219847Y41768D01*
X219597Y41443D01*
X219096Y40234D01*
X218926Y38937D01*
Y18948D01*
X101448D01*
Y48937D01*
X101278Y50234D01*
X100777Y51443D01*
X99981Y52481D01*
X93800Y58662D01*
X92762Y59458D01*
X91553Y59959D01*
X90256Y60129D01*
X86945D01*
X86393Y60802D01*
X85175Y61802D01*
X84272Y62284D01*
X84061Y63125D01*
Y63646D01*
X84272Y64487D01*
X85175Y64970D01*
X86393Y65969D01*
X87393Y67188D01*
X87568Y67516D01*
X88400Y67619D01*
X89734Y67325D01*
X90006Y66668D01*
X90728Y65728D01*
X91668Y65006D01*
X92762Y64553D01*
X93937Y64398D01*
X95112Y64553D01*
X96206Y65006D01*
X97146Y65728D01*
X97868Y66668D01*
X98321Y67762D01*
X98476Y68937D01*
X100256Y70455D01*
X143959D01*
X145456Y68959D01*
D02*
G37*
G36*
X176968Y68110D02*
X177369Y67141D01*
X178008Y66309D01*
X180798Y63519D01*
X180044Y61519D01*
X176665D01*
X174940Y63243D01*
Y68192D01*
X176940Y68323D01*
X176968Y68110D01*
D02*
G37*
G36*
X39707Y84707D02*
X40614Y83964D01*
X41648Y83411D01*
X42770Y83070D01*
X43937Y82955D01*
X45104Y83070D01*
X46226Y83411D01*
X47260Y83964D01*
X48167Y84707D01*
X50282Y84133D01*
X53074Y81341D01*
Y76976D01*
X52371Y76120D01*
X51628Y74730D01*
X51171Y73222D01*
X51016Y71653D01*
X51171Y70085D01*
X51628Y68577D01*
X52371Y67188D01*
X53371Y65969D01*
X54589Y64970D01*
X55492Y64487D01*
X55703Y63646D01*
Y63125D01*
X55492Y62284D01*
X54589Y61802D01*
X53733Y61100D01*
X18226D01*
X17419Y61907D01*
Y81594D01*
X18167Y82207D01*
X18915Y82955D01*
X33937D01*
X35104Y83070D01*
X36226Y83411D01*
X37260Y83964D01*
X38167Y84707D01*
X39707Y84707D01*
D02*
G37*
G36*
X229050Y60623D02*
X229221Y59808D01*
X228570Y58959D01*
X228066Y57742D01*
X227894Y56437D01*
X227979Y55791D01*
X226988Y54234D01*
X226456Y53791D01*
X223890D01*
Y57000D01*
X213984D01*
Y53791D01*
X197406D01*
X197260Y53910D01*
X196226Y54463D01*
X195104Y54804D01*
X193937Y54919D01*
X193466D01*
X192884Y55437D01*
X191962Y56919D01*
X192039Y57500D01*
X191884Y58675D01*
X191431Y59769D01*
X191401Y59808D01*
X192387Y61808D01*
X213984D01*
Y60874D01*
X223890D01*
Y61808D01*
X228438D01*
X229050Y60623D01*
D02*
G37*
G36*
X74025Y67188D02*
X75024Y65969D01*
X76243Y64970D01*
X77145Y64487D01*
X77356Y63646D01*
Y63125D01*
X77145Y62284D01*
X76243Y61802D01*
X75024Y60802D01*
X74025Y59584D01*
X73963Y59469D01*
X71963Y59970D01*
Y66802D01*
X73963Y67303D01*
X74025Y67188D01*
D02*
G37*
G36*
X68937Y69963D02*
Y56809D01*
X66939Y56686D01*
X66482Y58194D01*
X65739Y59584D01*
X64739Y60802D01*
X63521Y61802D01*
X62619Y62284D01*
X62408Y63125D01*
Y63646D01*
X62619Y64487D01*
X63521Y64970D01*
X64739Y65969D01*
X65739Y67188D01*
X66482Y68577D01*
X66939Y70085D01*
X68937Y69963D01*
D02*
G37*
G36*
X74025Y50652D02*
X75024Y49434D01*
X76243Y48434D01*
X77632Y47691D01*
X78682Y47373D01*
X78876Y45739D01*
X78802Y45319D01*
X78017Y45081D01*
X76801Y44431D01*
X75735Y43556D01*
X74860Y42491D01*
X74210Y41274D01*
X73963Y40459D01*
X71963Y40756D01*
Y50267D01*
X73963Y50768D01*
X74025Y50652D01*
D02*
G37*
G36*
X243973Y365479D02*
X244251Y364142D01*
X243122Y363177D01*
X241847Y361684D01*
X240821Y360011D01*
X240070Y358197D01*
X239612Y356288D01*
X239458Y354331D01*
X239612Y352374D01*
X240070Y350465D01*
X240821Y348651D01*
X241847Y346977D01*
X243122Y345484D01*
X244615Y344209D01*
X246289Y343183D01*
X248102Y342432D01*
X250011Y341974D01*
X251969Y341820D01*
X253926Y341974D01*
X255835Y342432D01*
X257648Y343183D01*
X259322Y344209D01*
X260815Y345484D01*
X261779Y346613D01*
X263117Y346335D01*
X263779Y345920D01*
Y20221D01*
X263117Y19807D01*
X261779Y19529D01*
X260815Y20658D01*
X259322Y21933D01*
X257648Y22958D01*
X255835Y23710D01*
X253926Y24168D01*
X251969Y24322D01*
X250011Y24168D01*
X248102Y23710D01*
X246289Y22958D01*
X244615Y21933D01*
X243122Y20658D01*
X241847Y19165D01*
X240821Y17491D01*
X240070Y15677D01*
X239612Y13768D01*
X239458Y11811D01*
X239612Y9854D01*
X240070Y7945D01*
X240821Y6131D01*
X241847Y4457D01*
X243122Y2964D01*
X244251Y2000D01*
X243973Y663D01*
X243558Y0D01*
X71963D01*
Y36410D01*
X73963Y36706D01*
X74210Y35891D01*
X74860Y34675D01*
X75735Y33609D01*
X76801Y32734D01*
X78017Y32084D01*
X79336Y31684D01*
X79709Y31647D01*
Y38583D01*
X80709D01*
Y39583D01*
X87644D01*
X87607Y39955D01*
X87207Y41274D01*
X86557Y42491D01*
X85682Y43556D01*
X84617Y44431D01*
X83400Y45081D01*
X82615Y45319D01*
X82541Y45739D01*
X82735Y47373D01*
X83785Y47691D01*
X85175Y48434D01*
X86393Y49434D01*
X86437Y49487D01*
X88714Y49573D01*
X91426Y46861D01*
Y16437D01*
X91596Y15140D01*
X92097Y13931D01*
X92893Y12893D01*
X95393Y10393D01*
X96431Y9597D01*
X97640Y9096D01*
X98937Y8926D01*
X221437D01*
X222734Y9096D01*
X223943Y9597D01*
X224981Y10393D01*
X227481Y12893D01*
X228277Y13931D01*
X228778Y15140D01*
X228948Y16437D01*
Y36426D01*
X253937D01*
X255234Y36596D01*
X256443Y37097D01*
X257481Y37893D01*
X259981Y40393D01*
X260777Y41431D01*
X261278Y42640D01*
X261448Y43937D01*
Y313563D01*
X261278Y314860D01*
X260777Y316069D01*
X259981Y317107D01*
X253544Y323544D01*
X252506Y324340D01*
X251297Y324841D01*
X250000Y325011D01*
X231761D01*
X231291Y325481D01*
Y337696D01*
X231323Y337937D01*
Y339937D01*
X231291Y340178D01*
Y356594D01*
X231120Y357892D01*
X230620Y359100D01*
X229823Y360138D01*
X227481Y362481D01*
X226443Y363277D01*
X225234Y363778D01*
X223937Y363948D01*
X101279D01*
X99983Y363778D01*
X98774Y363277D01*
X97736Y362481D01*
X87736Y352481D01*
X87622Y352332D01*
X85622Y353011D01*
Y353890D01*
X75717D01*
Y344745D01*
X74034Y343521D01*
X72543Y344052D01*
X71842Y345651D01*
Y353890D01*
X61937D01*
Y352956D01*
X61279D01*
X60239Y352819D01*
X59270Y352417D01*
X58438Y351779D01*
X55938Y349279D01*
X55299Y348446D01*
X54898Y347477D01*
X54761Y346437D01*
Y331390D01*
X54437D01*
Y321484D01*
X55371D01*
Y315610D01*
X55508Y314570D01*
X55910Y313601D01*
X56548Y312769D01*
X59658Y309658D01*
X60491Y309020D01*
X61460Y308618D01*
X62500Y308481D01*
X87284D01*
X87897Y306481D01*
X87355Y306066D01*
X86554Y305022D01*
X86050Y303805D01*
X85878Y302500D01*
X85910Y302259D01*
Y297997D01*
X84519Y296606D01*
X35997D01*
X35320Y298500D01*
X35307Y298606D01*
X35931Y299420D01*
X36334Y300393D01*
X36340Y300437D01*
X31437D01*
X26534D01*
X26540Y300393D01*
X26943Y299420D01*
X27567Y298606D01*
X27554Y298500D01*
X26877Y296606D01*
X24094D01*
X22797Y296435D01*
X21589Y295935D01*
X20551Y295138D01*
X17893Y292481D01*
X17097Y291443D01*
X16596Y290234D01*
X16426Y288937D01*
Y236437D01*
X16596Y235140D01*
X17097Y233931D01*
X17893Y232893D01*
X22047Y228740D01*
X23085Y227943D01*
X24294Y227443D01*
X25591Y227272D01*
X41433D01*
X41818Y226937D01*
X42660Y225272D01*
X42540Y224981D01*
X42534Y224937D01*
X46437D01*
X50340D01*
X50334Y224981D01*
X50214Y225272D01*
X51056Y226937D01*
X51441Y227272D01*
X53481D01*
Y219165D01*
X52272Y217956D01*
X49413D01*
X48959Y218304D01*
X48738Y218396D01*
X48557Y219702D01*
X48653Y220596D01*
X49290Y221084D01*
X49931Y221920D01*
X50334Y222893D01*
X50340Y222937D01*
X46437D01*
X42534D01*
X42540Y222893D01*
X42943Y221920D01*
X43584Y221084D01*
X44221Y220596D01*
X44317Y219702D01*
X44136Y218396D01*
X43915Y218304D01*
X42871Y217503D01*
X42070Y216459D01*
X41853Y215936D01*
X40064Y215355D01*
X39568Y215393D01*
X37481Y217481D01*
X36443Y218277D01*
X35234Y218778D01*
X33937Y218948D01*
X32678D01*
X32437Y218980D01*
X30437D01*
X29132Y218808D01*
X27915Y218304D01*
X26871Y217503D01*
X26070Y216459D01*
X25566Y215242D01*
X25394Y213937D01*
X23859Y212014D01*
X23718Y211963D01*
X0D01*
Y345920D01*
X663Y346335D01*
X2000Y346613D01*
X2964Y345484D01*
X4457Y344209D01*
X6131Y343183D01*
X7945Y342432D01*
X9854Y341974D01*
X11811Y341820D01*
X13768Y341974D01*
X15677Y342432D01*
X17491Y343183D01*
X19165Y344209D01*
X20658Y345484D01*
X21933Y346977D01*
X22958Y348651D01*
X23710Y350465D01*
X24168Y352374D01*
X24322Y354331D01*
X24168Y356288D01*
X23710Y358197D01*
X22958Y360011D01*
X21933Y361684D01*
X20658Y363177D01*
X19529Y364142D01*
X19807Y365479D01*
X20221Y366142D01*
X243558D01*
X243973Y365479D01*
D02*
G37*
%LPC*%
G36*
X160594Y337937D02*
X157560D01*
X157697Y336893D01*
X158100Y335920D01*
X158742Y335084D01*
X159577Y334443D01*
X160550Y334040D01*
X160594Y334034D01*
Y337937D01*
D02*
G37*
G36*
X167122Y330390D02*
X164169D01*
Y327437D01*
X167122D01*
Y330390D01*
D02*
G37*
G36*
X182437Y329811D02*
Y327437D01*
X184811D01*
X184494Y328202D01*
X183933Y328933D01*
X183202Y329494D01*
X182437Y329811D01*
D02*
G37*
G36*
X180437D02*
X179672Y329494D01*
X178941Y328933D01*
X178380Y328202D01*
X178063Y327437D01*
X180437D01*
Y329811D01*
D02*
G37*
G36*
X162169Y330390D02*
X159216D01*
Y327437D01*
X162169D01*
Y330390D01*
D02*
G37*
G36*
X184811Y325437D02*
X182437D01*
Y323063D01*
X183202Y323380D01*
X183933Y323941D01*
X184494Y324672D01*
X184811Y325437D01*
D02*
G37*
G36*
X180437D02*
X178063D01*
X178380Y324672D01*
X178941Y323941D01*
X179672Y323380D01*
X180437Y323063D01*
Y325437D01*
D02*
G37*
G36*
X167122D02*
X164169D01*
Y322484D01*
X167122D01*
Y325437D01*
D02*
G37*
G36*
X162169D02*
X159216D01*
Y322484D01*
X162169D01*
Y325437D01*
D02*
G37*
G36*
X115594Y337937D02*
X112560D01*
X112697Y336893D01*
X113101Y335920D01*
X113742Y335084D01*
X114577Y334443D01*
X115550Y334040D01*
X115594Y334034D01*
Y337937D01*
D02*
G37*
G36*
X122122Y330390D02*
X119169D01*
Y327437D01*
X122122D01*
Y330390D01*
D02*
G37*
G36*
X137437Y329811D02*
Y327437D01*
X139811D01*
X139494Y328202D01*
X138933Y328933D01*
X138202Y329494D01*
X137437Y329811D01*
D02*
G37*
G36*
X135437D02*
X134672Y329494D01*
X133941Y328933D01*
X133380Y328202D01*
X133063Y327437D01*
X135437D01*
Y329811D01*
D02*
G37*
G36*
X117169Y330390D02*
X114216D01*
Y327437D01*
X117169D01*
Y330390D01*
D02*
G37*
G36*
X70595Y337937D02*
X67560D01*
X67697Y336893D01*
X68101Y335920D01*
X68742Y335084D01*
X69577Y334443D01*
X70550Y334040D01*
X70595Y334034D01*
Y337937D01*
D02*
G37*
G36*
X77122Y330390D02*
X74169D01*
Y327437D01*
X77122D01*
Y330390D01*
D02*
G37*
G36*
X92437Y329811D02*
Y327437D01*
X94811D01*
X94494Y328202D01*
X93933Y328933D01*
X93202Y329494D01*
X92437Y329811D01*
D02*
G37*
G36*
X90437D02*
X89672Y329494D01*
X88941Y328933D01*
X88380Y328202D01*
X88063Y327437D01*
X90437D01*
Y329811D01*
D02*
G37*
G36*
X72169Y330390D02*
X69217D01*
Y327437D01*
X72169D01*
Y330390D01*
D02*
G37*
G36*
X94811Y325437D02*
X92437D01*
Y323063D01*
X93202Y323380D01*
X93933Y323941D01*
X94494Y324672D01*
X94811Y325437D01*
D02*
G37*
G36*
X90437D02*
X88063D01*
X88380Y324672D01*
X88941Y323941D01*
X89672Y323380D01*
X90437Y323063D01*
Y325437D01*
D02*
G37*
G36*
X77122D02*
X74169D01*
Y322484D01*
X77122D01*
Y325437D01*
D02*
G37*
G36*
X72169D02*
X69217D01*
Y322484D01*
X72169D01*
Y325437D01*
D02*
G37*
G36*
X58500Y245874D02*
Y243500D01*
X60874D01*
X60557Y244265D01*
X59996Y244996D01*
X59265Y245557D01*
X58500Y245874D01*
D02*
G37*
G36*
X56500D02*
X55735Y245557D01*
X55004Y244996D01*
X54443Y244265D01*
X54126Y243500D01*
X56500D01*
Y245874D01*
D02*
G37*
G36*
X89921Y241500D02*
X87018D01*
X87024Y241456D01*
X87427Y240483D01*
X88068Y239647D01*
X88904Y239006D01*
X89877Y238603D01*
X89921Y238597D01*
Y241500D01*
D02*
G37*
G36*
X217437Y319811D02*
Y317437D01*
X219811D01*
X219494Y318202D01*
X218933Y318933D01*
X218202Y319494D01*
X217437Y319811D01*
D02*
G37*
G36*
X215437D02*
X214672Y319494D01*
X213941Y318933D01*
X213380Y318202D01*
X213063Y317437D01*
X215437D01*
Y319811D01*
D02*
G37*
G36*
X219811Y315437D02*
X217437D01*
Y313063D01*
X218202Y313380D01*
X218933Y313941D01*
X219494Y314672D01*
X219811Y315437D01*
D02*
G37*
G36*
X215437D02*
X213063D01*
X213380Y314672D01*
X213941Y313941D01*
X214672Y313380D01*
X215437Y313063D01*
Y315437D01*
D02*
G37*
G36*
X249031Y233283D02*
X246079D01*
Y230331D01*
X249031D01*
Y233283D01*
D02*
G37*
G36*
X244079D02*
X241126D01*
Y230331D01*
X244079D01*
Y233283D01*
D02*
G37*
G36*
X249031Y228331D02*
X246079D01*
Y225378D01*
X249031D01*
Y228331D01*
D02*
G37*
G36*
X244079D02*
X241126D01*
Y225378D01*
X244079D01*
Y228331D01*
D02*
G37*
G36*
X36000Y170874D02*
Y168500D01*
X38374D01*
X38057Y169265D01*
X37496Y169996D01*
X36765Y170557D01*
X36000Y170874D01*
D02*
G37*
G36*
X34000D02*
X33235Y170557D01*
X32504Y169996D01*
X31943Y169265D01*
X31626Y168500D01*
X34000D01*
Y170874D01*
D02*
G37*
G36*
X38374Y166500D02*
X36000D01*
Y164126D01*
X36765Y164443D01*
X37496Y165004D01*
X38057Y165735D01*
X38374Y166500D01*
D02*
G37*
G36*
X34000D02*
X31626D01*
X31943Y165735D01*
X32504Y165004D01*
X33235Y164443D01*
X34000Y164126D01*
Y166500D01*
D02*
G37*
G36*
X23437Y162362D02*
X21937D01*
Y158823D01*
X27844D01*
X27821Y158998D01*
X27368Y160092D01*
X26646Y161032D01*
X25706Y161754D01*
X24612Y162207D01*
X23437Y162362D01*
D02*
G37*
G36*
X19937D02*
X18437D01*
X17262Y162207D01*
X16168Y161754D01*
X15228Y161032D01*
X14506Y160092D01*
X14053Y158998D01*
X14030Y158823D01*
X19937D01*
Y162362D01*
D02*
G37*
G36*
X27844Y156823D02*
X21937D01*
Y153284D01*
X23437D01*
X24612Y153439D01*
X25706Y153892D01*
X26646Y154613D01*
X27368Y155553D01*
X27821Y156648D01*
X27844Y156823D01*
D02*
G37*
G36*
X19937D02*
X14030D01*
X14053Y156648D01*
X14506Y155553D01*
X15228Y154613D01*
X16168Y153892D01*
X17262Y153439D01*
X18437Y153284D01*
X19937D01*
Y156823D01*
D02*
G37*
G36*
X66000Y118374D02*
Y116000D01*
X68374D01*
X68057Y116765D01*
X67496Y117496D01*
X66765Y118057D01*
X66000Y118374D01*
D02*
G37*
G36*
X64000D02*
X63235Y118057D01*
X62504Y117496D01*
X61943Y116765D01*
X61626Y116000D01*
X64000D01*
Y118374D01*
D02*
G37*
G36*
X68374Y114000D02*
X66000D01*
Y111626D01*
X66765Y111943D01*
X67496Y112504D01*
X68057Y113235D01*
X68374Y114000D01*
D02*
G37*
G36*
X64000D02*
X61626D01*
X61943Y113235D01*
X62504Y112504D01*
X63235Y111943D01*
X64000Y111626D01*
Y114000D01*
D02*
G37*
G36*
X59937Y106285D02*
Y102437D01*
X63785D01*
X63747Y102726D01*
X63249Y103927D01*
X62458Y104958D01*
X61427Y105749D01*
X60226Y106247D01*
X59937Y106285D01*
D02*
G37*
G36*
X57937D02*
X57648Y106247D01*
X56447Y105749D01*
X55416Y104958D01*
X54624Y103927D01*
X54127Y102726D01*
X54089Y102437D01*
X57937D01*
Y106285D01*
D02*
G37*
G36*
X63785Y100437D02*
X59937D01*
Y96589D01*
X60226Y96627D01*
X61427Y97124D01*
X62458Y97916D01*
X63249Y98947D01*
X63747Y100148D01*
X63785Y100437D01*
D02*
G37*
G36*
X57937D02*
X54089D01*
X54127Y100148D01*
X54624Y98947D01*
X55416Y97916D01*
X56447Y97124D01*
X57648Y96627D01*
X57937Y96589D01*
Y100437D01*
D02*
G37*
G36*
X65991Y37583D02*
X60055D01*
Y31647D01*
X60427Y31684D01*
X61747Y32084D01*
X62963Y32734D01*
X64029Y33609D01*
X64904Y34675D01*
X65554Y35891D01*
X65954Y37210D01*
X65991Y37583D01*
D02*
G37*
G36*
X58055D02*
X52120D01*
X52156Y37210D01*
X52557Y35891D01*
X53207Y34675D01*
X54081Y33609D01*
X55147Y32734D01*
X56363Y32084D01*
X57683Y31684D01*
X58055Y31647D01*
Y37583D01*
D02*
G37*
G36*
X119811Y152937D02*
X117437D01*
Y150563D01*
X118202Y150880D01*
X118933Y151441D01*
X119494Y152172D01*
X119811Y152937D01*
D02*
G37*
G36*
X115437D02*
X113063D01*
X113380Y152172D01*
X113941Y151441D01*
X114672Y150880D01*
X115437Y150563D01*
Y152937D01*
D02*
G37*
G36*
X100340D02*
X97437D01*
Y150034D01*
X97481Y150040D01*
X98454Y150443D01*
X99290Y151084D01*
X99931Y151920D01*
X100334Y152893D01*
X100340Y152937D01*
D02*
G37*
G36*
X127937D02*
X124984D01*
Y149984D01*
X127937D01*
Y152937D01*
D02*
G37*
G36*
X210614Y205724D02*
X207661D01*
Y202772D01*
X210614D01*
Y205724D01*
D02*
G37*
G36*
Y200772D02*
X207661D01*
Y197819D01*
X210614D01*
Y200772D01*
D02*
G37*
G36*
X212437Y167311D02*
Y164937D01*
X214811D01*
X214494Y165702D01*
X213933Y166433D01*
X213202Y166994D01*
X212437Y167311D01*
D02*
G37*
G36*
X210437D02*
X209672Y166994D01*
X208941Y166433D01*
X208380Y165702D01*
X208063Y164937D01*
X210437D01*
Y167311D01*
D02*
G37*
G36*
X214811Y162937D02*
X212437D01*
Y160563D01*
X213202Y160880D01*
X213933Y161441D01*
X214494Y162172D01*
X214811Y162937D01*
D02*
G37*
G36*
X210437D02*
X208063D01*
X208380Y162172D01*
X208941Y161441D01*
X209672Y160880D01*
X210437Y160563D01*
Y162937D01*
D02*
G37*
G36*
X163890Y139500D02*
X153984D01*
Y138492D01*
X153507Y138429D01*
X152538Y138028D01*
X151706Y137389D01*
X148595Y134279D01*
X146801D01*
X146438Y134540D01*
X145946Y134917D01*
X144977Y135319D01*
X143937Y135456D01*
X134012D01*
X133835Y135591D01*
X132678Y136071D01*
X131437Y136234D01*
X130195Y136071D01*
X129039Y135591D01*
X128862Y135456D01*
X123401D01*
X123200Y135700D01*
X122287Y136450D01*
X121244Y137007D01*
X120113Y137350D01*
X118937Y137466D01*
X117761Y137350D01*
X116630Y137007D01*
X115587Y136450D01*
X114674Y135700D01*
X113924Y134787D01*
X113367Y133744D01*
X113024Y132613D01*
X112908Y131437D01*
X113024Y130261D01*
X113367Y129130D01*
X113924Y128087D01*
X114674Y127174D01*
X115587Y126424D01*
X116630Y125867D01*
X117761Y125524D01*
X118937Y125408D01*
X120113Y125524D01*
X121244Y125867D01*
X122287Y126424D01*
X123200Y127174D01*
X123401Y127418D01*
X128862D01*
X129039Y127283D01*
X130195Y126804D01*
X131437Y126640D01*
X132678Y126804D01*
X133835Y127283D01*
X134012Y127418D01*
X142272D01*
X142418Y127272D01*
Y116437D01*
X142434Y116316D01*
Y114469D01*
X142571Y113433D01*
X142971Y112467D01*
X143607Y111638D01*
X144436Y111002D01*
X145401Y110602D01*
X146437Y110466D01*
X147473Y110602D01*
X148438Y111002D01*
X148937Y111385D01*
X149436Y111002D01*
X150401Y110602D01*
X151437Y110466D01*
X152473Y110602D01*
X153438Y111002D01*
X154267Y111638D01*
X154631Y112112D01*
X154940Y111875D01*
X155437Y111670D01*
Y114446D01*
X155440Y114469D01*
Y116316D01*
X155456Y116437D01*
X156437D01*
Y117437D01*
X159431D01*
Y118405D01*
X159329Y119180D01*
X159030Y119903D01*
X158554Y120523D01*
X157934Y120999D01*
X157212Y121298D01*
X156437Y121400D01*
X155456Y123288D01*
Y129595D01*
X163890D01*
Y139500D01*
D02*
G37*
G36*
X159431Y115437D02*
X157437D01*
Y111670D01*
X157934Y111875D01*
X158554Y112351D01*
X159030Y112971D01*
X159329Y113694D01*
X159431Y114469D01*
Y115437D01*
D02*
G37*
G36*
X220390Y141000D02*
X217437D01*
Y138047D01*
X220390D01*
Y141000D01*
D02*
G37*
G36*
X215437D02*
X212484D01*
Y138047D01*
X215437D01*
Y141000D01*
D02*
G37*
G36*
X220390Y136047D02*
X217437D01*
Y133095D01*
X220390D01*
Y136047D01*
D02*
G37*
G36*
X215437D02*
X212484D01*
Y133095D01*
X215437D01*
Y136047D01*
D02*
G37*
G36*
X217437Y127311D02*
Y124937D01*
X219811D01*
X219494Y125702D01*
X218933Y126433D01*
X218202Y126994D01*
X217437Y127311D01*
D02*
G37*
G36*
X215437D02*
X214672Y126994D01*
X213941Y126433D01*
X213380Y125702D01*
X213063Y124937D01*
X215437D01*
Y127311D01*
D02*
G37*
G36*
X219811Y122937D02*
X217437D01*
Y120563D01*
X218202Y120880D01*
X218933Y121441D01*
X219494Y122172D01*
X219811Y122937D01*
D02*
G37*
G36*
X215437D02*
X213063D01*
X213380Y122172D01*
X213941Y121441D01*
X214672Y120880D01*
X215437Y120563D01*
Y122937D01*
D02*
G37*
G36*
X234937Y122657D02*
D01*
Y119622D01*
X238840D01*
X238834Y119666D01*
X238431Y120639D01*
X237790Y121475D01*
X236954Y122116D01*
X235981Y122519D01*
X234937Y122657D01*
D02*
G37*
G36*
X232937D02*
X231893Y122519D01*
X230920Y122116D01*
X230084Y121475D01*
X229443Y120639D01*
X229040Y119666D01*
X229034Y119622D01*
X232937D01*
Y122657D01*
D02*
G37*
G36*
X197437Y89811D02*
Y87437D01*
X199811D01*
X199494Y88202D01*
X198933Y88933D01*
X198202Y89494D01*
X197437Y89811D01*
D02*
G37*
G36*
X195437D02*
X194672Y89494D01*
X193941Y88933D01*
X193380Y88202D01*
X193063Y87437D01*
X195437D01*
Y89811D01*
D02*
G37*
G36*
X199811Y85437D02*
X197437D01*
Y83063D01*
X198202Y83380D01*
X198933Y83941D01*
X199494Y84672D01*
X199811Y85437D01*
D02*
G37*
G36*
X195437D02*
X193063D01*
X193380Y84672D01*
X193941Y83941D01*
X194672Y83380D01*
X195437Y83063D01*
Y85437D01*
D02*
G37*
G36*
X139051Y63344D02*
Y57437D01*
X142590D01*
Y58937D01*
X142435Y60112D01*
X141982Y61206D01*
X141261Y62147D01*
X140321Y62868D01*
X139226Y63321D01*
X139051Y63344D01*
D02*
G37*
G36*
X137051D02*
X136876Y63321D01*
X135782Y62868D01*
X134842Y62147D01*
X134121Y61206D01*
X133667Y60112D01*
X133512Y58937D01*
Y57437D01*
X137051D01*
Y63344D01*
D02*
G37*
G36*
X142590Y55437D02*
X139051D01*
Y49530D01*
X139226Y49553D01*
X140321Y50006D01*
X141261Y50728D01*
X141982Y51668D01*
X142435Y52762D01*
X142590Y53937D01*
Y55437D01*
D02*
G37*
G36*
X137051D02*
X133512D01*
Y53937D01*
X133667Y52762D01*
X134121Y51668D01*
X134842Y50728D01*
X135782Y50006D01*
X136876Y49553D01*
X137051Y49530D01*
Y55437D01*
D02*
G37*
G36*
X209622Y36340D02*
Y32437D01*
X212657D01*
X212519Y33481D01*
X212116Y34454D01*
X211475Y35290D01*
X210639Y35931D01*
X209666Y36334D01*
X209622Y36340D01*
D02*
G37*
G36*
X144937Y32311D02*
Y29937D01*
X147311D01*
X146994Y30702D01*
X146433Y31433D01*
X145702Y31994D01*
X144937Y32311D01*
D02*
G37*
G36*
X142937D02*
X142172Y31994D01*
X141441Y31433D01*
X140880Y30702D01*
X140563Y29937D01*
X142937D01*
Y32311D01*
D02*
G37*
G36*
X212657Y30437D02*
X209622D01*
Y26534D01*
X209666Y26540D01*
X210639Y26943D01*
X211475Y27584D01*
X212116Y28420D01*
X212519Y29393D01*
X212657Y30437D01*
D02*
G37*
G36*
X147311Y27937D02*
X144937D01*
Y25563D01*
X145702Y25880D01*
X146433Y26441D01*
X146994Y27172D01*
X147311Y27937D01*
D02*
G37*
G36*
X142937D02*
X140563D01*
X140880Y27172D01*
X141441Y26441D01*
X142172Y25880D01*
X142937Y25563D01*
Y27937D01*
D02*
G37*
G36*
X30315Y79597D02*
X28765Y79445D01*
X27275Y78993D01*
X25902Y78259D01*
X24698Y77271D01*
X23710Y76067D01*
X22976Y74694D01*
X22524Y73203D01*
X22371Y71653D01*
X22524Y70104D01*
X22976Y68614D01*
X23710Y67240D01*
X24698Y66036D01*
X25902Y65048D01*
X27275Y64315D01*
X28765Y63862D01*
X30315Y63710D01*
X31865Y63862D01*
X33355Y64315D01*
X34728Y65048D01*
X35932Y66036D01*
X36920Y67240D01*
X37654Y68614D01*
X38106Y70104D01*
X38259Y71653D01*
X38106Y73203D01*
X37654Y74694D01*
X36920Y76067D01*
X35932Y77271D01*
X34728Y78259D01*
X33355Y78993D01*
X31865Y79445D01*
X30315Y79597D01*
D02*
G37*
G36*
X31000Y325874D02*
Y323500D01*
X33374D01*
X33057Y324265D01*
X32496Y324996D01*
X31765Y325557D01*
X31000Y325874D01*
D02*
G37*
G36*
X29000D02*
X28235Y325557D01*
X27504Y324996D01*
X26943Y324265D01*
X26626Y323500D01*
X29000D01*
Y325874D01*
D02*
G37*
G36*
X33374Y321500D02*
X31000D01*
Y319126D01*
X31765Y319443D01*
X32496Y320004D01*
X33057Y320735D01*
X33374Y321500D01*
D02*
G37*
G36*
X29000D02*
X26626D01*
X26943Y320735D01*
X27504Y320004D01*
X28235Y319443D01*
X29000Y319126D01*
Y321500D01*
D02*
G37*
G36*
X32437Y305471D02*
D01*
Y302437D01*
X36340D01*
X36334Y302481D01*
X35931Y303454D01*
X35290Y304290D01*
X34454Y304931D01*
X33481Y305334D01*
X32437Y305471D01*
D02*
G37*
G36*
X30437D02*
X29393Y305334D01*
X28420Y304931D01*
X27584Y304290D01*
X26943Y303454D01*
X26540Y302481D01*
X26534Y302437D01*
X30437D01*
Y305471D01*
D02*
G37*
G36*
X87644Y37583D02*
X81709D01*
Y31647D01*
X82081Y31684D01*
X83400Y32084D01*
X84617Y32734D01*
X85682Y33609D01*
X86557Y34675D01*
X87207Y35891D01*
X87607Y37210D01*
X87644Y37583D01*
D02*
G37*
%LPD*%
D11*
X211614Y215551D02*
D03*
Y201772D02*
D03*
X216437Y150827D02*
D03*
Y137047D02*
D03*
X218937Y52047D02*
D03*
Y65827D02*
D03*
X158937Y134547D02*
D03*
Y148327D02*
D03*
X216437Y94547D02*
D03*
Y108327D02*
D03*
D12*
X231299Y229331D02*
D03*
X245079D02*
D03*
X194390Y328937D02*
D03*
X208169D02*
D03*
X215669Y348937D02*
D03*
X201890D02*
D03*
X149390Y326437D02*
D03*
X163169D02*
D03*
X170669Y348937D02*
D03*
X156890D02*
D03*
X104390Y326437D02*
D03*
X118169D02*
D03*
X125669Y348937D02*
D03*
X111890D02*
D03*
X59390Y326437D02*
D03*
X73169D02*
D03*
X80669Y348937D02*
D03*
X66890D02*
D03*
X128937Y153937D02*
D03*
Y168937D02*
D03*
Y183937D02*
D03*
D13*
X225394Y229331D02*
X231299D01*
X220849Y233875D02*
X225394Y229331D01*
X220849Y233875D02*
Y240013D01*
X231299Y218917D02*
X233937Y216280D01*
X231299Y218917D02*
Y229331D01*
X222716Y183780D02*
X233937D01*
X219488Y187008D02*
X222716Y183780D01*
X219488Y187008D02*
Y211614D01*
X215551Y215551D02*
X219488Y211614D01*
X211614Y215551D02*
X215551D01*
X210849Y216316D02*
X211614Y215551D01*
X210849Y216316D02*
Y240013D01*
X204173Y150827D02*
X216437D01*
X200850Y154150D02*
X204173Y150827D01*
X200850Y154150D02*
Y240013D01*
X194173Y108327D02*
X216437D01*
X190849Y111651D02*
X194173Y108327D01*
X190849Y111651D02*
Y240013D01*
X184173Y65827D02*
X218937D01*
X180850Y69151D02*
X184173Y65827D01*
X180850Y69151D02*
Y240013D01*
X175000Y57500D02*
X187500D01*
X170921Y61579D02*
X175000Y57500D01*
X170921Y61579D02*
Y239941D01*
X188937Y31437D02*
Y38563D01*
X187500Y40000D02*
X188937Y38563D01*
X170850Y240013D02*
X170921Y239941D01*
X158937Y148327D02*
X160849Y150239D01*
Y240013D01*
X58780Y327047D02*
X59390Y326437D01*
X58780Y327047D02*
Y346437D01*
X61279Y348937D01*
X66890D01*
X81437Y338937D02*
Y348169D01*
X103779Y327047D02*
X104390Y326437D01*
X103779Y327047D02*
Y346437D01*
X106280Y348937D01*
X111890D01*
X125669D02*
X126437Y348169D01*
Y338937D02*
Y348169D01*
X148779Y327047D02*
X149390Y326437D01*
X148779Y327047D02*
Y346437D01*
X151279Y348937D01*
X156890D01*
X170669D02*
X171437Y348169D01*
Y338937D02*
Y348169D01*
X193780Y329547D02*
Y346437D01*
X196280Y348937D01*
X201890D01*
X215669D02*
X216437Y348169D01*
Y338937D02*
Y348169D01*
X96437Y193937D02*
Y203937D01*
Y138937D02*
X101437Y143937D01*
X103937Y188937D02*
X106437Y191437D01*
X103937Y186437D02*
Y188937D01*
X101437Y183937D02*
X103937Y186437D01*
X96437Y183937D02*
X101437D01*
X96437Y173937D02*
X98937Y176437D01*
X96437Y163937D02*
X98937Y161437D01*
X45965Y174409D02*
X46437Y173937D01*
X46122Y184252D02*
X46437Y183937D01*
X118937Y131437D02*
X131437D01*
X143937D01*
X193937Y48779D02*
Y48937D01*
X243779Y48779D02*
X243937Y48937D01*
X231437Y48779D02*
Y48937D01*
X201437Y48779D02*
Y48937D01*
X243937Y83937D02*
X248937Y78937D01*
X43307Y23622D02*
Y51181D01*
X47244Y55118D01*
X88937Y76437D02*
X93937Y71437D01*
Y68937D02*
Y71437D01*
X216437Y86437D02*
X218937Y83937D01*
X216437Y86437D02*
Y94547D01*
X218937Y83937D02*
X243937D01*
X206594Y330512D02*
Y338937D01*
Y330512D02*
X208169Y328937D01*
X106437Y191437D02*
X136437D01*
X138937Y188937D01*
Y183937D02*
Y188937D01*
X98937Y161437D02*
X136437D01*
X138937Y158937D01*
Y153937D02*
Y158937D01*
X98937Y176437D02*
X136437D01*
X138937Y173937D01*
Y168937D02*
Y173937D01*
X101437Y143937D02*
X146437D01*
X148937Y146437D01*
Y153937D01*
Y168937D01*
Y183937D01*
Y193937D01*
X143937Y131437D02*
X146437Y128937D01*
Y116437D02*
Y128937D01*
X151437Y116437D02*
Y131437D01*
X154547Y134547D01*
X158937D01*
X11437Y86437D02*
X13937D01*
X216437Y108327D02*
X233484D01*
X233937Y108780D01*
X218937Y65827D02*
X233484D01*
X233937Y66280D01*
X216437Y150827D02*
X233484D01*
X233937Y151279D01*
X46437Y213937D02*
X53937D01*
X57500Y217500D01*
Y227284D01*
X62500Y232283D01*
X120921Y225921D02*
Y242500D01*
X120000Y225000D02*
X120921Y225921D01*
X96437Y213937D02*
X108937D01*
X110921Y215921D01*
Y242500D01*
X96437Y223937D02*
X100921Y228421D01*
Y242500D01*
X31437Y262067D02*
X207067D01*
X210921Y265921D01*
Y302500D01*
X31437Y252224D02*
X217224D01*
X220921Y255921D01*
Y302500D01*
X31437Y271909D02*
X196909D01*
X200921Y275921D01*
Y302500D01*
X31437Y281752D02*
X186752D01*
X190921Y285921D01*
Y302500D01*
X149390Y304031D02*
Y326437D01*
Y304031D02*
X150921Y302500D01*
X192500Y312500D02*
X194390Y314390D01*
Y328937D01*
X160921Y302500D02*
Y310921D01*
X162500Y312500D01*
X192500D01*
X140921Y302500D02*
Y316579D01*
X127500Y312500D02*
X130921Y309079D01*
Y302500D02*
Y309079D01*
X104390Y323110D02*
Y326437D01*
X59390Y315610D02*
Y326437D01*
Y315610D02*
X62500Y312500D01*
X127500D01*
X137500Y320000D02*
X140921Y316579D01*
X104390Y323110D02*
X107500Y320000D01*
X137500D01*
D14*
X226279Y338937D02*
D03*
X216437D02*
D03*
X206594D02*
D03*
X181280D02*
D03*
X171437D02*
D03*
X161594D02*
D03*
X136279D02*
D03*
X126437D02*
D03*
X116595D02*
D03*
X91280D02*
D03*
X81437D02*
D03*
X71595D02*
D03*
X208622Y31437D02*
D03*
X198779D02*
D03*
X188937D02*
D03*
D15*
X233937Y206437D02*
D03*
Y216280D02*
D03*
Y173937D02*
D03*
Y183780D02*
D03*
Y141437D02*
D03*
Y151279D02*
D03*
X31437Y252224D02*
D03*
Y262067D02*
D03*
Y271909D02*
D03*
Y281752D02*
D03*
Y291595D02*
D03*
Y301437D02*
D03*
Y213937D02*
D03*
Y204095D02*
D03*
Y194252D02*
D03*
Y184409D02*
D03*
Y121437D02*
D03*
Y111594D02*
D03*
X233937Y76122D02*
D03*
Y66280D02*
D03*
Y56437D02*
D03*
Y118622D02*
D03*
Y108780D02*
D03*
Y98937D02*
D03*
D16*
X156437Y116437D02*
D03*
D17*
X151437D02*
D03*
X146437D02*
D03*
D18*
X46437Y153937D02*
D03*
Y163937D02*
D03*
Y173937D02*
D03*
Y183937D02*
D03*
Y193937D02*
D03*
Y203937D02*
D03*
Y213937D02*
D03*
Y223937D02*
D03*
X96437D02*
D03*
Y213937D02*
D03*
Y203937D02*
D03*
Y193937D02*
D03*
Y183937D02*
D03*
Y173937D02*
D03*
Y163937D02*
D03*
Y153937D02*
D03*
X43937Y88937D02*
D03*
X33937D02*
D03*
X53937D02*
D03*
X90921Y242500D02*
D03*
Y302500D02*
D03*
X100921D02*
D03*
X110921D02*
D03*
X120921D02*
D03*
X130921D02*
D03*
X140921D02*
D03*
X150921D02*
D03*
X160921D02*
D03*
X170921D02*
D03*
X180921D02*
D03*
X190921D02*
D03*
X200921D02*
D03*
X210921D02*
D03*
X220921D02*
D03*
Y242500D02*
D03*
X210921D02*
D03*
X200921D02*
D03*
X190921D02*
D03*
X180921D02*
D03*
X170921D02*
D03*
X160921D02*
D03*
X150921D02*
D03*
X140921D02*
D03*
X130921D02*
D03*
X120921D02*
D03*
X110921D02*
D03*
X100921D02*
D03*
D19*
X20937Y157823D02*
D03*
Y144437D02*
D03*
D20*
X30315Y38583D02*
D03*
Y71653D02*
D03*
D21*
X80709D02*
D03*
Y38583D02*
D03*
X59055D02*
D03*
Y55118D02*
D03*
Y71653D02*
D03*
X80709Y55118D02*
D03*
D22*
X138937Y153937D02*
D03*
X148937D02*
D03*
X138937Y168937D02*
D03*
X148937D02*
D03*
X138937Y183937D02*
D03*
X148937D02*
D03*
D23*
X58937Y101437D02*
D03*
X68937Y131437D02*
D03*
D24*
X118937D02*
D03*
Y101437D02*
D03*
D25*
X131437Y131437D02*
D03*
Y101437D02*
D03*
X43937Y131437D02*
D03*
Y101437D02*
D03*
D26*
X251969Y11811D02*
D03*
X11811D02*
D03*
X251969Y354331D02*
D03*
X11811D02*
D03*
D27*
X138051Y56437D02*
D03*
X151437D02*
D03*
D28*
X187500Y57500D02*
D03*
Y40000D02*
D03*
X120000Y225000D02*
D03*
X30000Y322500D02*
D03*
X93937Y68937D02*
D03*
X43307Y23622D02*
D03*
X216437Y123937D02*
D03*
X143937Y28937D02*
D03*
X91437Y326437D02*
D03*
X136437D02*
D03*
X181437D02*
D03*
X216437Y316437D02*
D03*
X148937Y193937D02*
D03*
X116437Y183937D02*
D03*
Y168937D02*
D03*
Y153937D02*
D03*
X166437Y116437D02*
D03*
X211437Y163937D02*
D03*
X196437Y86437D02*
D03*
X65000Y115000D02*
D03*
X35000Y167500D02*
D03*
X57500Y242500D02*
D03*
D29*
X86437Y148937D02*
Y228524D01*
X24094Y291595D02*
X31437D01*
X21437Y288937D02*
X24094Y291595D01*
X21437Y236437D02*
Y288937D01*
X96437Y93937D02*
Y138937D01*
Y83937D02*
Y93937D01*
X86437Y148937D02*
X96437Y138937D01*
X31437Y184409D02*
X33937D01*
X43937Y174409D01*
X46437D01*
X31437Y194252D02*
X33937D01*
X43937Y184252D01*
X46437D01*
X31437Y204095D02*
X33937D01*
X43937Y194095D01*
X46437D01*
X43937Y203937D02*
X46437D01*
X33937Y213937D02*
X43937Y203937D01*
X31437Y213937D02*
X33937D01*
X96437Y93937D02*
X103937Y101437D01*
X246437Y203937D02*
X248937Y201437D01*
X233937Y203937D02*
X246437D01*
X233937Y98937D02*
X246437D01*
X103937Y101437D02*
X118937D01*
X131437D01*
X246437Y98937D02*
X248937Y96437D01*
X243937Y48937D02*
X248937Y53937D01*
X233937Y141437D02*
X246437D01*
X248937Y138937D01*
Y96437D02*
Y138937D01*
Y53937D02*
Y78937D01*
Y96437D01*
X233937Y173937D02*
X246437D01*
X248937Y171437D01*
Y138937D02*
Y201437D01*
X88937Y76437D02*
X96437Y83937D01*
X80709Y55118D02*
X90256D01*
X31437Y291595D02*
X86594D01*
X21437Y236437D02*
X25591Y232283D01*
X82677D02*
X86437Y228524D01*
X25591Y232283D02*
X62500D01*
X82677D01*
X86594Y291595D02*
X90921Y295921D01*
Y302500D01*
D30*
X193937Y48779D02*
X198779Y43937D01*
Y31437D02*
Y43937D01*
X151437Y56437D02*
Y71437D01*
X146437Y76437D02*
X151437Y71437D01*
X85492Y76437D02*
X88937D01*
X80709Y71653D02*
X85492Y76437D01*
X88937D02*
X146437D01*
X43937Y88937D02*
Y101437D01*
X59055Y71653D02*
Y83819D01*
X53937Y88937D02*
X59055Y83819D01*
X16437Y88937D02*
X33937D01*
X13937Y86437D02*
X16437Y88937D01*
X151437Y51437D02*
X153937Y48937D01*
X193937D01*
X31437Y103563D02*
Y111594D01*
Y103563D02*
X33563Y101437D01*
X43937D01*
D31*
X146280Y358937D02*
X223937D01*
X226279Y356594D01*
Y338937D02*
Y356594D01*
X136279Y348937D02*
X146280Y358937D01*
X181280Y353937D02*
X186279Y358937D01*
X181280Y338937D02*
Y353937D01*
X101279Y358937D02*
X146280D01*
X136279Y338937D02*
Y348937D01*
X91280D02*
X101279Y358937D01*
X91280Y338937D02*
Y348937D01*
X233937Y51437D02*
Y56437D01*
X231437Y48937D02*
X233937Y51437D01*
X231437Y48779D02*
X243779D01*
X193937D02*
X201437D01*
X231437D01*
X223937Y38937D02*
X226437Y41437D01*
X253937D01*
X256437Y43937D01*
X221437Y13937D02*
X223937Y16437D01*
Y38937D01*
X98937Y13937D02*
X221437D01*
X96437Y16437D02*
X98937Y13937D01*
X90256Y55118D02*
X96437Y48937D01*
Y16437D02*
Y48937D01*
X151437Y51437D02*
Y56437D01*
X226279Y323406D02*
Y338937D01*
Y323406D02*
X229685Y320000D01*
X250000D01*
X256437Y313563D01*
Y43937D02*
Y313563D01*
D32*
X33937Y131437D02*
X68937D01*
X31437Y128937D02*
X33937Y131437D01*
X31437Y121437D02*
Y128937D01*
X38437Y144437D02*
X46437Y152437D01*
X20937Y144437D02*
X38437D01*
X11437Y59429D02*
X15748Y55118D01*
X58937D01*
X11437Y59429D02*
Y86437D01*
Y134937D02*
X20937Y144437D01*
X11437Y86437D02*
Y134937D01*
M02*
