G04 Layer_Physical_Order=1*
G04 Layer_Color=255*
%FSLAX25Y25*%
%MOIN*%
G70*
G01*
G75*
%ADD10R,0.05906X0.05906*%
%ADD11C,0.01969*%
%ADD12C,0.11811*%
%ADD13C,0.07874*%
%ADD14O,0.07874X0.09843*%
%ADD15C,0.07874*%
%ADD16C,0.12000*%
%ADD17C,0.11811*%
%ADD18R,0.15748X0.11811*%
%ADD19O,0.15748X0.11811*%
%ADD20C,0.08000*%
%ADD21O,0.06000X0.08000*%
%ADD22C,0.20945*%
%ADD23C,0.06000*%
%ADD24O,0.19685X0.23622*%
%ADD25C,0.13386*%
%ADD26C,0.05000*%
G36*
X297888Y156990D02*
X297470Y156817D01*
X295796Y155791D01*
X294303Y154516D01*
X293028Y153023D01*
X292002Y151349D01*
X291251Y149535D01*
X290793Y147626D01*
X290639Y145669D01*
X290793Y143712D01*
X291251Y141803D01*
X292002Y139989D01*
X293028Y138315D01*
X294303Y136823D01*
X295796Y135548D01*
X297470Y134522D01*
X299284Y133771D01*
X301192Y133312D01*
X303150Y133158D01*
X305107Y133312D01*
X307016Y133771D01*
X308829Y134522D01*
X310503Y135548D01*
X311996Y136823D01*
X313271Y138315D01*
X314297Y139989D01*
X314470Y140408D01*
X314961Y140310D01*
Y79204D01*
X314461Y79130D01*
X314173Y80078D01*
X313622Y81110D01*
X312880Y82014D01*
X311976Y82756D01*
X310944Y83307D01*
X309825Y83646D01*
X308661Y83761D01*
X307498Y83646D01*
X306378Y83307D01*
X305347Y82756D01*
X304443Y82014D01*
X303701Y81110D01*
X303150Y80078D01*
X302810Y78959D01*
X302696Y77795D01*
Y75827D01*
X302810Y74663D01*
X303150Y73544D01*
X303701Y72512D01*
X304443Y71608D01*
X305347Y70866D01*
X306378Y70315D01*
X307498Y69976D01*
X308661Y69861D01*
X309825Y69976D01*
X310944Y70315D01*
X311976Y70866D01*
X312880Y71608D01*
X313622Y72512D01*
X314173Y73544D01*
X314461Y74492D01*
X314961Y74418D01*
Y44204D01*
X314461Y44130D01*
X314173Y45078D01*
X313622Y46110D01*
X312880Y47014D01*
X311976Y47756D01*
X310944Y48307D01*
X309825Y48646D01*
X308661Y48761D01*
X307498Y48646D01*
X306378Y48307D01*
X305347Y47756D01*
X304443Y47014D01*
X303701Y46110D01*
X303150Y45078D01*
X302810Y43959D01*
X302696Y42795D01*
Y40827D01*
X302810Y39663D01*
X303150Y38544D01*
X303701Y37512D01*
X304443Y36608D01*
X305347Y35866D01*
X306378Y35315D01*
X307498Y34976D01*
X308661Y34861D01*
X309825Y34976D01*
X310944Y35315D01*
X311976Y35866D01*
X312880Y36608D01*
X313622Y37512D01*
X314173Y38544D01*
X314461Y39492D01*
X314961Y39418D01*
Y17170D01*
X314470Y17073D01*
X314297Y17491D01*
X313271Y19165D01*
X311996Y20658D01*
X310503Y21933D01*
X308829Y22958D01*
X307016Y23710D01*
X305107Y24168D01*
X303150Y24322D01*
X301192Y24168D01*
X299284Y23710D01*
X297470Y22958D01*
X295796Y21933D01*
X294303Y20658D01*
X293028Y19165D01*
X292002Y17491D01*
X291251Y15677D01*
X290793Y13768D01*
X290639Y11811D01*
X290793Y9854D01*
X291251Y7945D01*
X292002Y6131D01*
X293028Y4457D01*
X294303Y2964D01*
X295796Y1689D01*
X297470Y664D01*
X297888Y490D01*
X297790Y0D01*
X17170D01*
X17073Y490D01*
X17491Y664D01*
X19165Y1689D01*
X20658Y2964D01*
X21933Y4457D01*
X22958Y6131D01*
X23710Y7945D01*
X24168Y9854D01*
X24322Y11811D01*
X24168Y13768D01*
X23710Y15677D01*
X22958Y17491D01*
X21933Y19165D01*
X20658Y20658D01*
X19165Y21933D01*
X17491Y22958D01*
X15677Y23710D01*
X13768Y24168D01*
X11811Y24322D01*
X9854Y24168D01*
X7945Y23710D01*
X6131Y22958D01*
X4457Y21933D01*
X2964Y20658D01*
X1689Y19165D01*
X664Y17491D01*
X490Y17073D01*
X0Y17170D01*
Y140310D01*
X490Y140408D01*
X664Y139989D01*
X1689Y138315D01*
X2964Y136823D01*
X4457Y135548D01*
X6131Y134522D01*
X7945Y133771D01*
X9854Y133312D01*
X11811Y133158D01*
X13768Y133312D01*
X15677Y133771D01*
X17491Y134522D01*
X19165Y135548D01*
X20658Y136823D01*
X21933Y138315D01*
X22958Y139989D01*
X23710Y141803D01*
X24168Y143712D01*
X24322Y145669D01*
X24168Y147626D01*
X23710Y149535D01*
X22958Y151349D01*
X21933Y153023D01*
X20658Y154516D01*
X19165Y155791D01*
X17491Y156817D01*
X17073Y156990D01*
X17170Y157480D01*
X297790D01*
X297888Y156990D01*
D02*
G37*
%LPC*%
G36*
X247748Y156764D02*
X237842D01*
Y154821D01*
X234028D01*
Y156764D01*
X224122D01*
Y147264D01*
X224122Y146858D01*
X224122Y146358D01*
Y136858D01*
X234028D01*
Y138801D01*
X237842D01*
Y136858D01*
X247748D01*
Y146358D01*
X247748Y146764D01*
X247748Y147264D01*
Y156764D01*
D02*
G37*
G36*
X219248Y155764D02*
X216295D01*
Y152811D01*
X219248D01*
Y155764D01*
D02*
G37*
G36*
X214295D02*
X211343D01*
Y152811D01*
X214295D01*
Y155764D01*
D02*
G37*
G36*
X219248Y150811D02*
X216295D01*
Y147858D01*
X219248D01*
Y150811D01*
D02*
G37*
G36*
X214295D02*
X211343D01*
Y147858D01*
X214295D01*
Y150811D01*
D02*
G37*
G36*
X219248Y145764D02*
X216295D01*
Y142811D01*
X219248D01*
Y145764D01*
D02*
G37*
G36*
X214295D02*
X211343D01*
Y142811D01*
X214295D01*
Y145764D01*
D02*
G37*
G36*
X219248Y140811D02*
X216295D01*
Y137858D01*
X219248D01*
Y140811D01*
D02*
G37*
G36*
X214295D02*
X211343D01*
Y137858D01*
X214295D01*
Y140811D01*
D02*
G37*
G36*
X79685Y144755D02*
X78135Y144602D01*
X76645Y144150D01*
X75272Y143416D01*
X74068Y142428D01*
X73080Y141224D01*
X72346Y139851D01*
X71894Y138361D01*
X71741Y136811D01*
X71894Y135261D01*
X72346Y133771D01*
X73080Y132398D01*
X74068Y131194D01*
X75272Y130206D01*
X76645Y129472D01*
X78135Y129020D01*
X79685Y128867D01*
X81235Y129020D01*
X82725Y129472D01*
X84098Y130206D01*
X85302Y131194D01*
X86290Y132398D01*
X87024Y133771D01*
X87476Y135261D01*
X87629Y136811D01*
X87476Y138361D01*
X87024Y139851D01*
X86290Y141224D01*
X85302Y142428D01*
X84098Y143416D01*
X82725Y144150D01*
X81235Y144602D01*
X79685Y144755D01*
D02*
G37*
G36*
X261685Y132064D02*
Y126311D01*
X267438D01*
X267112Y127387D01*
X266369Y128777D01*
X265369Y129995D01*
X264151Y130995D01*
X262761Y131738D01*
X261685Y132064D01*
D02*
G37*
G36*
X257685D02*
X256609Y131738D01*
X255219Y130995D01*
X254001Y129995D01*
X253001Y128777D01*
X252258Y127387D01*
X251932Y126311D01*
X257685D01*
Y132064D01*
D02*
G37*
G36*
X240032Y132064D02*
Y126311D01*
X245785D01*
X245458Y127387D01*
X244715Y128777D01*
X243716Y129995D01*
X242498Y130995D01*
X241108Y131738D01*
X240032Y132064D01*
D02*
G37*
G36*
X236032Y132064D02*
X234955Y131738D01*
X233565Y130995D01*
X232347Y129995D01*
X231348Y128777D01*
X230605Y127387D01*
X230278Y126311D01*
X236032D01*
Y132064D01*
D02*
G37*
G36*
X222000Y124042D02*
Y122000D01*
X224042D01*
X223931Y122269D01*
X223209Y123209D01*
X222269Y123931D01*
X222000Y124042D01*
D02*
G37*
G36*
X218000D02*
X217731Y123931D01*
X216791Y123209D01*
X216069Y122269D01*
X215958Y122000D01*
X218000D01*
Y124042D01*
D02*
G37*
G36*
X192185Y135995D02*
X190635Y135842D01*
X189145Y135390D01*
X187772Y134656D01*
X186568Y133668D01*
X185580Y132465D01*
X184846Y131091D01*
X184394Y129601D01*
X184241Y128051D01*
X184394Y126501D01*
X184846Y125011D01*
X185580Y123638D01*
X186568Y122434D01*
X187772Y121446D01*
X189145Y120712D01*
X190635Y120260D01*
X192185Y120107D01*
X193735Y120260D01*
X195225Y120712D01*
X196598Y121446D01*
X197802Y122434D01*
X198790Y123638D01*
X199524Y125011D01*
X199976Y126501D01*
X200129Y128051D01*
X199976Y129601D01*
X199524Y131091D01*
X198790Y132465D01*
X197802Y133668D01*
X196598Y134656D01*
X195225Y135390D01*
X193735Y135842D01*
X192185Y135995D01*
D02*
G37*
G36*
X159685D02*
X158135Y135842D01*
X156645Y135390D01*
X155272Y134656D01*
X154068Y133668D01*
X153080Y132465D01*
X152346Y131091D01*
X151894Y129601D01*
X151741Y128051D01*
X151894Y126501D01*
X152346Y125011D01*
X153080Y123638D01*
X154068Y122434D01*
X155272Y121446D01*
X156645Y120712D01*
X158135Y120260D01*
X159685Y120107D01*
X161235Y120260D01*
X162725Y120712D01*
X164098Y121446D01*
X165302Y122434D01*
X166290Y123638D01*
X167024Y125011D01*
X167476Y126501D01*
X167629Y128051D01*
X167476Y129601D01*
X167024Y131091D01*
X166290Y132465D01*
X165302Y133668D01*
X164098Y134656D01*
X162725Y135390D01*
X161235Y135842D01*
X159685Y135995D01*
D02*
G37*
G36*
X224042Y118000D02*
X222000D01*
Y115958D01*
X222269Y116069D01*
X223209Y116791D01*
X223931Y117731D01*
X224042Y118000D01*
D02*
G37*
G36*
X218000D02*
X215958D01*
X216069Y117731D01*
X216791Y116791D01*
X217731Y116069D01*
X218000Y115958D01*
Y118000D01*
D02*
G37*
G36*
X261528Y156764D02*
X251622D01*
Y146858D01*
X251622D01*
Y146764D01*
X251622D01*
Y136858D01*
X261528D01*
Y138801D01*
X268438D01*
X269175Y138064D01*
Y91811D01*
X269278Y91032D01*
X269578Y90306D01*
X270057Y89683D01*
X272557Y87183D01*
X273180Y86704D01*
X273906Y86404D01*
X274685Y86301D01*
X276323D01*
X276476Y86102D01*
X277416Y85380D01*
X278510Y84927D01*
X279685Y84772D01*
X280860Y84927D01*
X281955Y85380D01*
X282894Y86102D01*
X283616Y87042D01*
X284069Y88136D01*
X284224Y89311D01*
X284069Y90486D01*
X283616Y91580D01*
X282894Y92520D01*
X281955Y93242D01*
X280860Y93695D01*
X279685Y93850D01*
X278510Y93695D01*
X277416Y93242D01*
X276476Y92520D01*
X276394Y92414D01*
X275863Y92390D01*
X275195Y93058D01*
Y101391D01*
X275657Y101582D01*
X277557Y99683D01*
X278180Y99204D01*
X278906Y98904D01*
X279685Y98801D01*
X281323D01*
X281476Y98602D01*
X282416Y97880D01*
X283510Y97427D01*
X284685Y97272D01*
X285860Y97427D01*
X286954Y97880D01*
X287895Y98602D01*
X288616Y99542D01*
X289069Y100636D01*
X289224Y101811D01*
X289069Y102986D01*
X288616Y104080D01*
X287895Y105020D01*
X286954Y105742D01*
X285860Y106195D01*
X284685Y106350D01*
X283510Y106195D01*
X282416Y105742D01*
X281476Y105020D01*
X281394Y104913D01*
X280863Y104890D01*
X280195Y105558D01*
Y114218D01*
X280695Y114293D01*
X281086Y113003D01*
X281820Y111630D01*
X282808Y110426D01*
X284012Y109438D01*
X285385Y108704D01*
X286876Y108252D01*
X288425Y108100D01*
X289975Y108252D01*
X291465Y108704D01*
X292839Y109438D01*
X294042Y110426D01*
X295030Y111630D01*
X295764Y113003D01*
X296216Y114494D01*
X296369Y116043D01*
X296216Y117593D01*
X295764Y119083D01*
X295030Y120457D01*
X294042Y121660D01*
X292839Y122648D01*
X291465Y123382D01*
X289975Y123834D01*
X288425Y123987D01*
X286876Y123834D01*
X285385Y123382D01*
X284012Y122648D01*
X282808Y121660D01*
X281820Y120457D01*
X281086Y119083D01*
X280695Y117794D01*
X280195Y117868D01*
Y149311D01*
X280093Y150090D01*
X279792Y150816D01*
X279313Y151439D01*
X276813Y153939D01*
X276190Y154418D01*
X275464Y154718D01*
X274685Y154821D01*
X261528D01*
Y156764D01*
D02*
G37*
G36*
X194185Y107252D02*
Y101311D01*
X201808D01*
X201493Y102351D01*
X200759Y103724D01*
X199771Y104928D01*
X198567Y105916D01*
X197194Y106650D01*
X195703Y107102D01*
X194185Y107252D01*
D02*
G37*
G36*
X161685D02*
Y101311D01*
X169308D01*
X168993Y102351D01*
X168259Y103724D01*
X167271Y104928D01*
X166067Y105916D01*
X164693Y106650D01*
X163203Y107102D01*
X161685Y107252D01*
D02*
G37*
G36*
X190185D02*
X188667Y107102D01*
X187177Y106650D01*
X185803Y105916D01*
X184599Y104928D01*
X183612Y103724D01*
X182878Y102351D01*
X182562Y101311D01*
X190185D01*
Y107252D01*
D02*
G37*
G36*
X157685D02*
X156167Y107102D01*
X154677Y106650D01*
X153303Y105916D01*
X152100Y104928D01*
X151111Y103724D01*
X150378Y102351D01*
X150062Y101311D01*
X157685D01*
Y107252D01*
D02*
G37*
G36*
X267438Y122311D02*
X259685D01*
X251932D01*
X252258Y121235D01*
X253001Y119845D01*
X254001Y118627D01*
X255219Y117627D01*
X256609Y116884D01*
X258117Y116427D01*
X259412Y116299D01*
X259460Y116295D01*
Y115792D01*
X259412Y115787D01*
X258117Y115660D01*
X256609Y115202D01*
X255219Y114460D01*
X254001Y113460D01*
X253001Y112242D01*
X252258Y110852D01*
X251801Y109344D01*
X251646Y107776D01*
X251801Y106207D01*
X252258Y104699D01*
X253001Y103310D01*
X254001Y102091D01*
X255219Y101092D01*
X256609Y100349D01*
X258117Y99891D01*
X259685Y99737D01*
X261253Y99891D01*
X262761Y100349D01*
X264151Y101092D01*
X265369Y102091D01*
X266369Y103310D01*
X267112Y104699D01*
X267569Y106207D01*
X267724Y107776D01*
X267569Y109344D01*
X267112Y110852D01*
X266369Y112242D01*
X265369Y113460D01*
X264151Y114460D01*
X262761Y115202D01*
X261253Y115660D01*
X259958Y115787D01*
X259910Y115792D01*
Y116295D01*
X259958Y116299D01*
X261253Y116427D01*
X262761Y116884D01*
X264151Y117627D01*
X265369Y118627D01*
X266369Y119845D01*
X267112Y121235D01*
X267438Y122311D01*
D02*
G37*
G36*
X245785Y122311D02*
X238032D01*
X230278D01*
X230605Y121235D01*
X231348Y119845D01*
X232347Y118627D01*
X233565Y117627D01*
X234955Y116884D01*
X236463Y116427D01*
X237759Y116299D01*
X237806Y116295D01*
Y115792D01*
X237759Y115787D01*
X236463Y115660D01*
X234955Y115202D01*
X233565Y114460D01*
X232347Y113460D01*
X231348Y112242D01*
X230605Y110852D01*
X230147Y109344D01*
X229993Y107776D01*
X230147Y106207D01*
X230605Y104699D01*
X231348Y103310D01*
X232347Y102091D01*
X233565Y101092D01*
X234955Y100349D01*
X236463Y99891D01*
X238032Y99737D01*
X239600Y99891D01*
X241108Y100349D01*
X242498Y101092D01*
X243716Y102091D01*
X244715Y103310D01*
X245458Y104699D01*
X245916Y106207D01*
X246070Y107776D01*
X245916Y109344D01*
X245458Y110852D01*
X244715Y112242D01*
X243716Y113460D01*
X242498Y114460D01*
X241108Y115202D01*
X239600Y115660D01*
X238304Y115787D01*
X238257Y115792D01*
Y116295D01*
X238304Y116299D01*
X239600Y116427D01*
X241108Y116884D01*
X242498Y117627D01*
X243716Y118627D01*
X244715Y119845D01*
X245458Y121235D01*
X245785Y122311D01*
D02*
G37*
G36*
X123661Y144755D02*
X122112Y144602D01*
X120622Y144150D01*
X119248Y143416D01*
X118044Y142428D01*
X117056Y141224D01*
X116322Y139851D01*
X115870Y138361D01*
X115718Y136811D01*
Y129078D01*
X113895Y127255D01*
X67185D01*
X65635Y127102D01*
X64145Y126650D01*
X62772Y125916D01*
X61568Y124928D01*
X54068Y117428D01*
X53080Y116224D01*
X52346Y114851D01*
X51894Y113361D01*
X51741Y111811D01*
Y104311D01*
X51894Y102761D01*
X52346Y101271D01*
X53080Y99898D01*
X54068Y98694D01*
X55272Y97706D01*
X56645Y96972D01*
X58135Y96520D01*
X59685Y96367D01*
X61235Y96520D01*
X62725Y96972D01*
X64098Y97706D01*
X65302Y98694D01*
X66290Y99898D01*
X67024Y101271D01*
X67476Y102761D01*
X67629Y104311D01*
Y108521D01*
X70476Y111367D01*
X97589D01*
X97889Y110867D01*
X97346Y109851D01*
X96894Y108361D01*
X96741Y106811D01*
Y104311D01*
X96894Y102761D01*
X97346Y101271D01*
X98080Y99898D01*
X99068Y98694D01*
X100272Y97706D01*
X101645Y96972D01*
X103135Y96520D01*
X104685Y96367D01*
X106235Y96520D01*
X107725Y96972D01*
X109098Y97706D01*
X110302Y98694D01*
X111290Y99898D01*
X112024Y101271D01*
X112476Y102761D01*
X112542Y103434D01*
X122802Y113694D01*
X129278Y120170D01*
X129279Y120170D01*
X130266Y121374D01*
X131000Y122748D01*
X131453Y124238D01*
X131605Y125787D01*
Y136811D01*
X131453Y138361D01*
X131000Y139851D01*
X130266Y141224D01*
X129279Y142428D01*
X128075Y143416D01*
X126701Y144150D01*
X125211Y144602D01*
X123661Y144755D01*
D02*
G37*
G36*
X201808Y97311D02*
X194185D01*
Y91370D01*
X195703Y91520D01*
X197194Y91972D01*
X198567Y92706D01*
X199771Y93694D01*
X200759Y94898D01*
X201493Y96271D01*
X201808Y97311D01*
D02*
G37*
G36*
X169308D02*
X161685D01*
Y91370D01*
X163203Y91520D01*
X164693Y91972D01*
X166067Y92706D01*
X167271Y93694D01*
X168259Y94898D01*
X168993Y96271D01*
X169308Y97311D01*
D02*
G37*
G36*
X190185D02*
X182562D01*
X182878Y96271D01*
X183612Y94898D01*
X184599Y93694D01*
X185803Y92706D01*
X187177Y91972D01*
X188667Y91520D01*
X190185Y91370D01*
Y97311D01*
D02*
G37*
G36*
X157685D02*
X150062D01*
X150378Y96271D01*
X151111Y94898D01*
X152100Y93694D01*
X153303Y92706D01*
X154677Y91972D01*
X156167Y91520D01*
X157685Y91370D01*
Y97311D01*
D02*
G37*
G36*
X134685Y100277D02*
X133521Y100162D01*
X132402Y99823D01*
X131371Y99271D01*
X130467Y98529D01*
X129725Y97625D01*
X129173Y96594D01*
X128834Y95475D01*
X128719Y94311D01*
X128834Y93147D01*
X129173Y92028D01*
X129725Y90997D01*
X130467Y90093D01*
X131371Y89351D01*
X132402Y88799D01*
X133521Y88460D01*
X134685Y88345D01*
X135849Y88460D01*
X136968Y88799D01*
X137999Y89351D01*
X138903Y90093D01*
X139645Y90997D01*
X140197Y92028D01*
X140536Y93147D01*
X140651Y94311D01*
X140536Y95475D01*
X140197Y96594D01*
X139645Y97625D01*
X138903Y98529D01*
X137999Y99271D01*
X136968Y99823D01*
X135849Y100162D01*
X134685Y100277D01*
D02*
G37*
G36*
X89685D02*
X88521Y100162D01*
X87402Y99823D01*
X86371Y99271D01*
X85467Y98529D01*
X84725Y97625D01*
X84173Y96594D01*
X83834Y95475D01*
X83719Y94311D01*
X83834Y93147D01*
X84173Y92028D01*
X84725Y90997D01*
X85467Y90093D01*
X86371Y89351D01*
X87402Y88799D01*
X88521Y88460D01*
X89685Y88345D01*
X90849Y88460D01*
X91968Y88799D01*
X92999Y89351D01*
X93903Y90093D01*
X94645Y90997D01*
X95197Y92028D01*
X95536Y93147D01*
X95651Y94311D01*
X95536Y95475D01*
X95197Y96594D01*
X94645Y97625D01*
X93903Y98529D01*
X92999Y99271D01*
X91968Y99823D01*
X90849Y100162D01*
X89685Y100277D01*
D02*
G37*
G36*
X122000Y84042D02*
Y82000D01*
X124042D01*
X123931Y82269D01*
X123209Y83209D01*
X122269Y83931D01*
X122000Y84042D01*
D02*
G37*
G36*
X118000D02*
X117731Y83931D01*
X116791Y83209D01*
X116069Y82269D01*
X115958Y82000D01*
X118000D01*
Y84042D01*
D02*
G37*
G36*
X9685Y98046D02*
X7981Y97878D01*
X6342Y97381D01*
X4832Y96574D01*
X3509Y95488D01*
X2422Y94164D01*
X1615Y92654D01*
X1118Y91015D01*
X950Y89311D01*
X1118Y87607D01*
X1615Y85968D01*
X2422Y84458D01*
X3509Y83135D01*
X4832Y82048D01*
X6342Y81241D01*
X7981Y80744D01*
X9685Y80576D01*
X11389Y80744D01*
X13028Y81241D01*
X14538Y82048D01*
X15862Y83135D01*
X16948Y84458D01*
X17755Y85968D01*
X18252Y87607D01*
X18420Y89311D01*
X18252Y91015D01*
X17755Y92654D01*
X16948Y94164D01*
X15862Y95488D01*
X14538Y96574D01*
X13028Y97381D01*
X11389Y97878D01*
X9685Y98046D01*
D02*
G37*
G36*
X34685Y144755D02*
X33135Y144602D01*
X31645Y144150D01*
X30272Y143416D01*
X29068Y142428D01*
X28080Y141224D01*
X27346Y139851D01*
X26894Y138361D01*
X26741Y136811D01*
Y102037D01*
X26285Y101648D01*
X25075Y100230D01*
X24101Y98641D01*
X23387Y96919D01*
X22952Y95106D01*
X22806Y93248D01*
Y89311D01*
X22952Y87453D01*
X23387Y85640D01*
X24101Y83918D01*
X25075Y82329D01*
X26285Y80911D01*
X27703Y79701D01*
X29292Y78727D01*
X31014Y78013D01*
X32827Y77578D01*
X34685Y77432D01*
X36543Y77578D01*
X38356Y78013D01*
X40078Y78727D01*
X41667Y79701D01*
X43085Y80911D01*
X44295Y82329D01*
X45269Y83918D01*
X45983Y85640D01*
X46418Y87453D01*
X46564Y89311D01*
Y93248D01*
X46418Y95106D01*
X45983Y96919D01*
X45269Y98641D01*
X44295Y100230D01*
X43085Y101648D01*
X42629Y102037D01*
Y136811D01*
X42476Y138361D01*
X42024Y139851D01*
X41290Y141224D01*
X40302Y142428D01*
X39098Y143416D01*
X37725Y144150D01*
X36235Y144602D01*
X34685Y144755D01*
D02*
G37*
G36*
X124042Y78000D02*
X122000D01*
Y75958D01*
X122269Y76069D01*
X123209Y76791D01*
X123931Y77731D01*
X124042Y78000D01*
D02*
G37*
G36*
X118000D02*
X115958D01*
X116069Y77731D01*
X116791Y76791D01*
X117731Y76069D01*
X118000Y75958D01*
Y78000D01*
D02*
G37*
G36*
X72000Y74042D02*
Y72000D01*
X74042D01*
X73931Y72269D01*
X73209Y73209D01*
X72269Y73931D01*
X72000Y74042D01*
D02*
G37*
G36*
X68000D02*
X67731Y73931D01*
X66791Y73209D01*
X66069Y72269D01*
X65958Y72000D01*
X68000D01*
Y74042D01*
D02*
G37*
G36*
X219685Y83761D02*
X218521Y83646D01*
X217402Y83307D01*
X216371Y82756D01*
X215467Y82014D01*
X214725Y81110D01*
X214173Y80078D01*
X213834Y78959D01*
X213719Y77795D01*
Y75827D01*
X213834Y74663D01*
X214173Y73544D01*
X214725Y72512D01*
X215467Y71608D01*
X216371Y70866D01*
X217402Y70315D01*
X218521Y69976D01*
X219685Y69861D01*
X220849Y69976D01*
X221968Y70315D01*
X222999Y70866D01*
X223903Y71608D01*
X224645Y72512D01*
X225197Y73544D01*
X225536Y74663D01*
X225651Y75827D01*
Y77795D01*
X225536Y78959D01*
X225197Y80078D01*
X224645Y81110D01*
X223903Y82014D01*
X222999Y82756D01*
X221968Y83307D01*
X220849Y83646D01*
X219685Y83761D01*
D02*
G37*
G36*
X202059Y85563D02*
X182311D01*
Y69752D01*
X202059D01*
Y85563D01*
D02*
G37*
G36*
X264685Y84755D02*
X263135Y84602D01*
X261645Y84150D01*
X260272Y83416D01*
X259068Y82428D01*
X258080Y81224D01*
X257346Y79851D01*
X256894Y78361D01*
X256741Y76811D01*
X256894Y75261D01*
X257346Y73771D01*
X258080Y72398D01*
X259068Y71194D01*
X260272Y70206D01*
X261645Y69472D01*
X263135Y69020D01*
X264685Y68867D01*
X266235Y69020D01*
X267725Y69472D01*
X269098Y70206D01*
X270302Y71194D01*
X271290Y72398D01*
X272024Y73771D01*
X272476Y75261D01*
X272629Y76811D01*
X272476Y78361D01*
X272024Y79851D01*
X271290Y81224D01*
X270302Y82428D01*
X269098Y83416D01*
X267725Y84150D01*
X266235Y84602D01*
X264685Y84755D01*
D02*
G37*
G36*
X74042Y68000D02*
X72000D01*
Y65958D01*
X72269Y66069D01*
X73209Y66791D01*
X73931Y67731D01*
X74042Y68000D01*
D02*
G37*
G36*
X68000D02*
X65958D01*
X66069Y67731D01*
X66791Y66791D01*
X67731Y66069D01*
X68000Y65958D01*
Y68000D01*
D02*
G37*
G36*
X36685Y76010D02*
Y64342D01*
X46562D01*
X46418Y66169D01*
X45983Y67982D01*
X45269Y69704D01*
X44295Y71293D01*
X43085Y72711D01*
X41667Y73922D01*
X40078Y74895D01*
X38356Y75609D01*
X36685Y76010D01*
D02*
G37*
G36*
X32685D02*
X31014Y75609D01*
X29292Y74895D01*
X27703Y73922D01*
X26285Y72711D01*
X25075Y71293D01*
X24101Y69704D01*
X23387Y67982D01*
X22952Y66169D01*
X22808Y64342D01*
X32685D01*
Y76010D01*
D02*
G37*
G36*
X272000Y64042D02*
Y62000D01*
X274042D01*
X273931Y62269D01*
X273209Y63209D01*
X272269Y63931D01*
X272000Y64042D01*
D02*
G37*
G36*
X268000D02*
X267731Y63931D01*
X266791Y63209D01*
X266069Y62269D01*
X265958Y62000D01*
X268000D01*
Y64042D01*
D02*
G37*
G36*
X274042Y58000D02*
X272000D01*
Y55958D01*
X272269Y56069D01*
X273209Y56791D01*
X273931Y57731D01*
X274042Y58000D01*
D02*
G37*
G36*
X268000D02*
X265958D01*
X266069Y57731D01*
X266791Y56791D01*
X267731Y56069D01*
X268000Y55958D01*
Y58000D01*
D02*
G37*
G36*
X9685Y73046D02*
X7981Y72878D01*
X6342Y72381D01*
X4832Y71574D01*
X3509Y70488D01*
X2422Y69164D01*
X1615Y67654D01*
X1118Y66015D01*
X950Y64311D01*
X1118Y62607D01*
X1615Y60968D01*
X2422Y59458D01*
X3509Y58135D01*
X4832Y57048D01*
X6342Y56241D01*
X7981Y55744D01*
X9685Y55576D01*
X11389Y55744D01*
X13028Y56241D01*
X14538Y57048D01*
X15862Y58135D01*
X16948Y59458D01*
X17755Y60968D01*
X18252Y62607D01*
X18420Y64311D01*
X18252Y66015D01*
X17755Y67654D01*
X16948Y69164D01*
X15862Y70488D01*
X14538Y71574D01*
X13028Y72381D01*
X11389Y72878D01*
X9685Y73046D01*
D02*
G37*
G36*
X46562Y60343D02*
X36685D01*
Y48675D01*
X38356Y49076D01*
X40078Y49790D01*
X41667Y50764D01*
X43085Y51974D01*
X44295Y53392D01*
X45269Y54981D01*
X45983Y56703D01*
X46418Y58516D01*
X46562Y60343D01*
D02*
G37*
G36*
X32685D02*
X22808D01*
X22952Y58516D01*
X23387Y56703D01*
X24101Y54981D01*
X25075Y53392D01*
X26285Y51974D01*
X27703Y50764D01*
X29292Y49790D01*
X31014Y49076D01*
X32685Y48675D01*
Y60343D01*
D02*
G37*
G36*
X91685Y49974D02*
Y46311D01*
X95348D01*
X95255Y46618D01*
X94698Y47661D01*
X93948Y48574D01*
X93035Y49324D01*
X91992Y49881D01*
X91685Y49974D01*
D02*
G37*
G36*
X136685D02*
Y46311D01*
X140348D01*
X140255Y46618D01*
X139698Y47661D01*
X138948Y48574D01*
X138035Y49324D01*
X136992Y49881D01*
X136685Y49974D01*
D02*
G37*
G36*
X87685D02*
X87378Y49881D01*
X86335Y49324D01*
X85422Y48574D01*
X84672Y47661D01*
X84115Y46618D01*
X84022Y46311D01*
X87685D01*
Y49974D01*
D02*
G37*
G36*
X132685D02*
X132378Y49881D01*
X131335Y49324D01*
X130422Y48574D01*
X129672Y47661D01*
X129115Y46618D01*
X129022Y46311D01*
X132685D01*
Y49974D01*
D02*
G37*
G36*
X140348Y42311D02*
X136685D01*
Y38648D01*
X136992Y38741D01*
X138035Y39298D01*
X138948Y40048D01*
X139698Y40962D01*
X140255Y42004D01*
X140348Y42311D01*
D02*
G37*
G36*
X95348D02*
X91685D01*
Y38648D01*
X91992Y38741D01*
X93035Y39298D01*
X93948Y40048D01*
X94698Y40962D01*
X95255Y42004D01*
X95348Y42311D01*
D02*
G37*
G36*
X132685D02*
X129022D01*
X129115Y42004D01*
X129672Y40962D01*
X130422Y40048D01*
X131335Y39298D01*
X132378Y38741D01*
X132685Y38648D01*
Y42311D01*
D02*
G37*
G36*
X87685D02*
X84022D01*
X84115Y42004D01*
X84672Y40962D01*
X85422Y40048D01*
X86335Y39298D01*
X87378Y38741D01*
X87685Y38648D01*
Y42311D01*
D02*
G37*
G36*
X104685Y50340D02*
X103509Y50224D01*
X102378Y49881D01*
X101336Y49324D01*
X100422Y48574D01*
X99672Y47661D01*
X99115Y46618D01*
X98772Y45487D01*
X98656Y44311D01*
X98772Y43135D01*
X99115Y42004D01*
X99672Y40962D01*
X100422Y40048D01*
X101336Y39298D01*
X102378Y38741D01*
X103509Y38398D01*
X104685Y38282D01*
X105861Y38398D01*
X106992Y38741D01*
X108035Y39298D01*
X108948Y40048D01*
X109698Y40962D01*
X110255Y42004D01*
X110598Y43135D01*
X110714Y44311D01*
X110598Y45487D01*
X110255Y46618D01*
X109698Y47661D01*
X108948Y48574D01*
X108035Y49324D01*
X106992Y49881D01*
X105861Y50224D01*
X104685Y50340D01*
D02*
G37*
G36*
X59685D02*
X58509Y50224D01*
X57378Y49881D01*
X56336Y49324D01*
X55422Y48574D01*
X54672Y47661D01*
X54115Y46618D01*
X53772Y45487D01*
X53656Y44311D01*
X53772Y43135D01*
X54115Y42004D01*
X54672Y40962D01*
X55422Y40048D01*
X56336Y39298D01*
X57378Y38741D01*
X58509Y38398D01*
X59685Y38282D01*
X60861Y38398D01*
X61992Y38741D01*
X63035Y39298D01*
X63948Y40048D01*
X64698Y40962D01*
X65255Y42004D01*
X65598Y43135D01*
X65714Y44311D01*
X65598Y45487D01*
X65255Y46618D01*
X64698Y47661D01*
X63948Y48574D01*
X63035Y49324D01*
X61992Y49881D01*
X60861Y50224D01*
X59685Y50340D01*
D02*
G37*
G36*
X219685Y48761D02*
X218521Y48646D01*
X217402Y48307D01*
X216371Y47756D01*
X215467Y47014D01*
X214725Y46110D01*
X214173Y45078D01*
X213834Y43959D01*
X213719Y42795D01*
Y40827D01*
X213834Y39663D01*
X214173Y38544D01*
X214725Y37512D01*
X215467Y36608D01*
X216371Y35866D01*
X217402Y35315D01*
X218521Y34976D01*
X219685Y34861D01*
X220849Y34976D01*
X221968Y35315D01*
X222999Y35866D01*
X223903Y36608D01*
X224645Y37512D01*
X225197Y38544D01*
X225536Y39663D01*
X225651Y40827D01*
Y42795D01*
X225536Y43959D01*
X225197Y45078D01*
X224645Y46110D01*
X223903Y47014D01*
X222999Y47756D01*
X221968Y48307D01*
X220849Y48646D01*
X219685Y48761D01*
D02*
G37*
G36*
X264685Y49755D02*
X263135Y49602D01*
X261645Y49150D01*
X260272Y48416D01*
X259068Y47428D01*
X258080Y46224D01*
X257346Y44851D01*
X256894Y43361D01*
X256741Y41811D01*
X256894Y40261D01*
X257346Y38771D01*
X258080Y37398D01*
X259068Y36194D01*
X260272Y35206D01*
X261645Y34472D01*
X263135Y34020D01*
X264685Y33867D01*
X266235Y34020D01*
X267725Y34472D01*
X269098Y35206D01*
X270302Y36194D01*
X271290Y37398D01*
X272024Y38771D01*
X272476Y40261D01*
X272629Y41811D01*
X272476Y43361D01*
X272024Y44851D01*
X271290Y46224D01*
X270302Y47428D01*
X269098Y48416D01*
X267725Y49150D01*
X266235Y49602D01*
X264685Y49755D01*
D02*
G37*
G36*
X192185Y46854D02*
X190880Y46682D01*
X189664Y46178D01*
X188619Y45377D01*
X187818Y44333D01*
X187314Y43116D01*
X187142Y41811D01*
X187314Y40506D01*
X187818Y39289D01*
X188619Y38245D01*
X189664Y37444D01*
X190537Y37082D01*
Y36540D01*
X189664Y36178D01*
X188619Y35377D01*
X187818Y34333D01*
X187601Y33811D01*
X192185D01*
X196769D01*
X196553Y34333D01*
X195751Y35377D01*
X194707Y36178D01*
X193833Y36540D01*
Y37082D01*
X194707Y37444D01*
X195751Y38245D01*
X196553Y39289D01*
X197056Y40506D01*
X197228Y41811D01*
X197056Y43116D01*
X196553Y44333D01*
X195751Y45377D01*
X194707Y46178D01*
X193490Y46682D01*
X192185Y46854D01*
D02*
G37*
G36*
X169559Y85563D02*
X149811D01*
Y69752D01*
X153719D01*
Y51811D01*
Y41811D01*
X153834Y40647D01*
X154173Y39528D01*
X154725Y38497D01*
X155467Y37593D01*
X156371Y36851D01*
X156877Y36580D01*
X156919Y35991D01*
X156119Y35377D01*
X155318Y34333D01*
X155102Y33811D01*
X159685D01*
X164269D01*
X164052Y34333D01*
X163251Y35377D01*
X162451Y35991D01*
X162493Y36580D01*
X162999Y36851D01*
X163903Y37593D01*
X164645Y38497D01*
X165197Y39528D01*
X165536Y40647D01*
X165651Y41811D01*
Y51811D01*
Y69752D01*
X169559D01*
Y85563D01*
D02*
G37*
G36*
X124528Y35354D02*
X123222Y35182D01*
X122006Y34679D01*
X120961Y33877D01*
X120160Y32833D01*
X119877Y32149D01*
X119336D01*
X119053Y32833D01*
X118251Y33877D01*
X117207Y34679D01*
X115990Y35182D01*
X114685Y35354D01*
X113380Y35182D01*
X112163Y34679D01*
X111119Y33877D01*
X110318Y32833D01*
X109814Y31616D01*
X109642Y30311D01*
Y28311D01*
X109814Y27006D01*
X110318Y25789D01*
X111119Y24745D01*
X112163Y23944D01*
X113380Y23440D01*
X114685Y23268D01*
X115990Y23440D01*
X117207Y23944D01*
X118251Y24745D01*
X119053Y25789D01*
X119336Y26473D01*
X119877D01*
X120160Y25789D01*
X120961Y24745D01*
X122006Y23944D01*
X123222Y23440D01*
X124528Y23268D01*
X125833Y23440D01*
X127049Y23944D01*
X128094Y24745D01*
X128895Y25789D01*
X129399Y27006D01*
X129571Y28311D01*
Y30311D01*
X129399Y31616D01*
X128895Y32833D01*
X128094Y33877D01*
X127049Y34679D01*
X125833Y35182D01*
X124528Y35354D01*
D02*
G37*
G36*
X79528D02*
X78222Y35182D01*
X77006Y34679D01*
X75962Y33877D01*
X75160Y32833D01*
X74877Y32149D01*
X74336D01*
X74053Y32833D01*
X73251Y33877D01*
X72207Y34679D01*
X70990Y35182D01*
X69685Y35354D01*
X68380Y35182D01*
X67163Y34679D01*
X66119Y33877D01*
X65318Y32833D01*
X64814Y31616D01*
X64642Y30311D01*
Y28311D01*
X64814Y27006D01*
X65318Y25789D01*
X66119Y24745D01*
X67163Y23944D01*
X68380Y23440D01*
X69685Y23268D01*
X70990Y23440D01*
X72207Y23944D01*
X73251Y24745D01*
X74053Y25789D01*
X74336Y26473D01*
X74877D01*
X75160Y25789D01*
X75962Y24745D01*
X77006Y23944D01*
X78222Y23440D01*
X79528Y23268D01*
X80833Y23440D01*
X82049Y23944D01*
X83094Y24745D01*
X83895Y25789D01*
X84399Y27006D01*
X84571Y28311D01*
Y30311D01*
X84399Y31616D01*
X83895Y32833D01*
X83094Y33877D01*
X82049Y34679D01*
X80833Y35182D01*
X79528Y35354D01*
D02*
G37*
G36*
X32000Y34042D02*
Y32000D01*
X34042D01*
X33931Y32269D01*
X33209Y33209D01*
X32269Y33931D01*
X32000Y34042D01*
D02*
G37*
G36*
X28000D02*
X27731Y33931D01*
X26791Y33209D01*
X26069Y32269D01*
X25958Y32000D01*
X28000D01*
Y34042D01*
D02*
G37*
G36*
X34042Y28000D02*
X32000D01*
Y25958D01*
X32269Y26069D01*
X33209Y26791D01*
X33931Y27731D01*
X34042Y28000D01*
D02*
G37*
G36*
X28000D02*
X25958D01*
X26069Y27731D01*
X26791Y26791D01*
X27731Y26069D01*
X28000Y25958D01*
Y28000D01*
D02*
G37*
G36*
X272000Y24042D02*
Y22000D01*
X274042D01*
X273931Y22269D01*
X273209Y23209D01*
X272269Y23931D01*
X272000Y24042D01*
D02*
G37*
G36*
X268000D02*
X267731Y23931D01*
X266791Y23209D01*
X266069Y22269D01*
X265958Y22000D01*
X268000D01*
Y24042D01*
D02*
G37*
G36*
X196769Y29811D02*
X192185D01*
X187601D01*
X187818Y29289D01*
X188619Y28245D01*
X189664Y27444D01*
X190537Y27082D01*
Y26540D01*
X189664Y26179D01*
X188619Y25377D01*
X187818Y24333D01*
X187314Y23116D01*
X187142Y21811D01*
X187314Y20506D01*
X187818Y19289D01*
X188619Y18245D01*
X189664Y17444D01*
X190880Y16940D01*
X192185Y16768D01*
X193490Y16940D01*
X194707Y17444D01*
X195751Y18245D01*
X196553Y19289D01*
X197056Y20506D01*
X197228Y21811D01*
X197056Y23116D01*
X196553Y24333D01*
X195751Y25377D01*
X194707Y26179D01*
X193833Y26540D01*
Y27082D01*
X194707Y27444D01*
X195751Y28245D01*
X196553Y29289D01*
X196769Y29811D01*
D02*
G37*
G36*
X164269D02*
X159685D01*
X155102D01*
X155318Y29289D01*
X156119Y28245D01*
X157164Y27444D01*
X158037Y27082D01*
Y26540D01*
X157164Y26179D01*
X156119Y25377D01*
X155318Y24333D01*
X154814Y23116D01*
X154642Y21811D01*
X154814Y20506D01*
X155318Y19289D01*
X156119Y18245D01*
X157164Y17444D01*
X158380Y16940D01*
X159685Y16768D01*
X160990Y16940D01*
X162207Y17444D01*
X163251Y18245D01*
X164052Y19289D01*
X164556Y20506D01*
X164728Y21811D01*
X164556Y23116D01*
X164052Y24333D01*
X163251Y25377D01*
X162207Y26179D01*
X161333Y26540D01*
Y27082D01*
X162207Y27444D01*
X163251Y28245D01*
X164052Y29289D01*
X164269Y29811D01*
D02*
G37*
G36*
X274042Y18000D02*
X272000D01*
Y15958D01*
X272269Y16069D01*
X273209Y16791D01*
X273931Y17731D01*
X274042Y18000D01*
D02*
G37*
G36*
X268000D02*
X265958D01*
X266069Y17731D01*
X266791Y16791D01*
X267731Y16069D01*
X268000Y15958D01*
Y18000D01*
D02*
G37*
%LPD*%
D10*
X215295Y151811D02*
D03*
X229075D02*
D03*
X215295Y141811D02*
D03*
X229075D02*
D03*
X242795Y151811D02*
D03*
X256575D02*
D03*
X242795Y141811D02*
D03*
X256575D02*
D03*
D11*
X277185Y104311D02*
Y149311D01*
X274685Y151811D02*
X277185Y149311D01*
X256575Y151811D02*
X274685D01*
X272185Y91811D02*
Y139311D01*
X269685Y141811D02*
X272185Y139311D01*
X256575Y141811D02*
X269685D01*
X274685Y89311D02*
X279685D01*
X272185Y91811D02*
X274685Y89311D01*
X279685Y101811D02*
X284685D01*
X277185Y104311D02*
X279685Y101811D01*
X229075Y141811D02*
X242795D01*
X229075Y151811D02*
X242795D01*
D12*
X123661Y125787D02*
Y136811D01*
X117185Y119311D02*
X123661Y125787D01*
X59685Y104311D02*
Y111811D01*
X67185Y119311D01*
X104685Y104311D02*
Y106811D01*
X117185Y119311D01*
X67185D02*
X117185D01*
X34685Y89311D02*
Y136811D01*
D13*
X159685Y41811D02*
Y51811D01*
Y77658D01*
D14*
X308661Y41811D02*
D03*
X219685D02*
D03*
X308661Y76811D02*
D03*
X219685D02*
D03*
X123661Y136811D02*
D03*
X34685D02*
D03*
D15*
X264685Y41811D02*
D03*
Y76811D02*
D03*
X79685Y136811D02*
D03*
X104685Y104311D02*
D03*
X134685Y94311D02*
D03*
X59685Y104311D02*
D03*
X89685Y94311D02*
D03*
D16*
X238032Y124311D02*
D03*
X259685Y107776D02*
D03*
Y124311D02*
D03*
X238032Y107776D02*
D03*
D17*
X288425Y116043D02*
D03*
X159685Y128051D02*
D03*
X192185D02*
D03*
D18*
X159685Y77658D02*
D03*
X192185D02*
D03*
D19*
X159685Y99311D02*
D03*
X192185D02*
D03*
D20*
X134685Y44311D02*
D03*
X104685D02*
D03*
X89685D02*
D03*
X59685D02*
D03*
D21*
X114685Y29311D02*
D03*
X124528D02*
D03*
X69685D02*
D03*
X79528D02*
D03*
D22*
X614685Y-135689D02*
D03*
X303150Y11811D02*
D03*
Y145669D02*
D03*
X11811D02*
D03*
Y11811D02*
D03*
D23*
X159685Y41811D02*
D03*
Y31811D02*
D03*
Y21811D02*
D03*
X192185Y41811D02*
D03*
Y31811D02*
D03*
Y21811D02*
D03*
D24*
X34685Y62343D02*
D03*
Y91280D02*
D03*
D25*
X9685Y89311D02*
D03*
Y64311D02*
D03*
D26*
X270000Y60000D02*
D03*
Y20000D02*
D03*
X220000Y120000D02*
D03*
X120000Y80000D02*
D03*
X70000Y70000D02*
D03*
X30000Y30000D02*
D03*
X279685Y89311D02*
D03*
X284685Y101811D02*
D03*
X159685Y51811D02*
D03*
M02*
