G04 Layer_Color=32896*
%FSLAX25Y25*%
%MOIN*%
G70*
G01*
G75*
%ADD29C,0.01000*%
%ADD30C,0.00787*%
%ADD46C,0.00700*%
D29*
X150486Y20409D02*
X151486Y21409D01*
X153485D01*
X154485Y20409D01*
Y16411D01*
X153485Y15411D01*
X151486D01*
X150486Y16411D01*
X144488Y15411D02*
X148487D01*
X144488Y19410D01*
Y20409D01*
X145488Y21409D01*
X147487D01*
X148487Y20409D01*
X142489Y15411D02*
X140490D01*
X141489D01*
Y21409D01*
X142489Y20409D01*
X207416Y59809D02*
X208416Y60809D01*
X210415D01*
X211415Y59809D01*
Y55811D01*
X210415Y54811D01*
X208416D01*
X207416Y55811D01*
X205417Y54811D02*
X203418D01*
X204417D01*
Y60809D01*
X205417Y59809D01*
X200418Y54811D02*
X198419D01*
X199419D01*
Y60809D01*
X200418Y59809D01*
D30*
X131083Y12028D02*
X138563D01*
X131083Y2972D02*
X138563D01*
X131083D02*
Y12028D01*
X155098Y4547D02*
Y10453D01*
X146437Y12028D02*
X153130D01*
Y2972D02*
X155098Y4547D01*
X153130Y12028D02*
X155098Y10453D01*
X146437Y2972D02*
X153130D01*
X212028Y43937D02*
Y51417D01*
X202972Y43937D02*
Y51417D01*
X212028D01*
X204547Y27402D02*
X210453D01*
X212028Y29370D02*
Y36063D01*
X202972Y29370D02*
X204547Y27402D01*
X210453D02*
X212028Y29370D01*
X202972Y29370D02*
Y36063D01*
D46*
X286634Y14344D02*
X287301Y15010D01*
X288634D01*
X289300Y14344D01*
Y13677D01*
X288634Y13011D01*
X287301D01*
X286634Y12344D01*
Y11678D01*
X287301Y11011D01*
X288634D01*
X289300Y11678D01*
X285301Y13677D02*
Y11678D01*
X284635Y11011D01*
X282635D01*
Y13677D01*
X281303Y9678D02*
Y13677D01*
X279303D01*
X278637Y13011D01*
Y11678D01*
X279303Y11011D01*
X281303D01*
X276637Y13677D02*
X275305D01*
X274638Y13011D01*
Y11011D01*
X276637D01*
X277304Y11678D01*
X276637Y12344D01*
X274638D01*
X271306Y11011D02*
X272639D01*
X273305Y11678D01*
Y13011D01*
X272639Y13677D01*
X271306D01*
X270639Y13011D01*
Y12344D01*
X273305D01*
X269306Y13677D02*
Y11011D01*
Y12344D01*
X268640Y13011D01*
X267973Y13677D01*
X267307D01*
X264641Y11011D02*
X263308D01*
X262642Y11678D01*
Y13011D01*
X263308Y13677D01*
X264641D01*
X265308Y13011D01*
Y11678D01*
X264641Y11011D01*
X257310D02*
Y15010D01*
X255311D01*
X254644Y14344D01*
Y13011D01*
X255311Y12344D01*
X257310D01*
X255977D02*
X254644Y11011D01*
X252645D02*
X251312D01*
X250646Y11678D01*
Y13011D01*
X251312Y13677D01*
X252645D01*
X253312Y13011D01*
Y11678D01*
X252645Y11011D01*
X249313Y15010D02*
Y11011D01*
X247313D01*
X246647Y11678D01*
Y12344D01*
Y13011D01*
X247313Y13677D01*
X249313D01*
X244648Y11011D02*
X243315D01*
X242648Y11678D01*
Y13011D01*
X243315Y13677D01*
X244648D01*
X245314Y13011D01*
Y11678D01*
X244648Y11011D01*
X240649Y14344D02*
Y13677D01*
X241316D01*
X239983D01*
X240649D01*
Y11678D01*
X239983Y11011D01*
X237983D02*
X236650D01*
X237317D01*
Y13677D01*
X237983D01*
X234651Y11011D02*
Y15010D01*
Y12344D02*
X232652Y13677D01*
X234651Y12344D02*
X232652Y11011D01*
X223988Y14344D02*
X224654Y15010D01*
X225987D01*
X226654Y14344D01*
Y11678D01*
X225987Y11011D01*
X224654D01*
X223988Y11678D01*
X222655Y11011D02*
X221322D01*
X221988D01*
Y15010D01*
X222655D01*
X219323Y13677D02*
Y11678D01*
X218656Y11011D01*
X216657D01*
Y13677D01*
X215324Y15010D02*
Y11011D01*
X213324D01*
X212658Y11678D01*
Y12344D01*
Y13011D01*
X213324Y13677D01*
X215324D01*
X204661Y11011D02*
X207326D01*
X204661Y13677D01*
Y14344D01*
X205327Y15010D01*
X206660D01*
X207326Y14344D01*
X203328D02*
X202661Y15010D01*
X201328D01*
X200662Y14344D01*
Y11678D01*
X201328Y11011D01*
X202661D01*
X203328Y11678D01*
Y14344D01*
X199329Y11011D02*
X197996D01*
X198663D01*
Y15010D01*
X199329Y14344D01*
X195997Y11678D02*
X195330Y11011D01*
X193997D01*
X193331Y11678D01*
Y14344D01*
X193997Y15010D01*
X195330D01*
X195997Y14344D01*
Y13677D01*
X195330Y13011D01*
X193331D01*
X286634Y6532D02*
X287301Y7199D01*
X288634D01*
X289300Y6532D01*
Y3866D01*
X288634Y3200D01*
X287301D01*
X286634Y3866D01*
X284635Y5866D02*
X283302D01*
X282635Y5199D01*
Y3200D01*
X284635D01*
X285301Y3866D01*
X284635Y4533D01*
X282635D01*
X281303Y5866D02*
Y3200D01*
Y4533D01*
X280636Y5199D01*
X279970Y5866D01*
X279303D01*
X276637Y6532D02*
Y5866D01*
X277304D01*
X275971D01*
X276637D01*
Y3866D01*
X275971Y3200D01*
X271972D02*
X273305D01*
X273972Y3866D01*
Y5199D01*
X273305Y5866D01*
X271972D01*
X271306Y5199D01*
Y4533D01*
X273972D01*
X265974Y3200D02*
Y5866D01*
X264641Y7199D01*
X263308Y5866D01*
Y3200D01*
Y5199D01*
X265974D01*
X261976Y3200D02*
X260643D01*
X261309D01*
Y7199D01*
X261976D01*
X258643Y3200D02*
X257310D01*
X257977D01*
Y5866D01*
X258643D01*
X255311Y3200D02*
Y5866D01*
X254644D01*
X253978Y5199D01*
Y3200D01*
Y5199D01*
X253312Y5866D01*
X252645Y5199D01*
Y3200D01*
X249313D02*
X250646D01*
X251312Y3866D01*
Y5199D01*
X250646Y5866D01*
X249313D01*
X248646Y5199D01*
Y4533D01*
X251312D01*
X247313Y3200D02*
Y5866D01*
X245314D01*
X244648Y5199D01*
Y3200D01*
X242648Y6532D02*
Y5866D01*
X243315D01*
X241982D01*
X242648D01*
Y3866D01*
X241982Y3200D01*
X239316Y5866D02*
X237983D01*
X237317Y5199D01*
Y3200D01*
X239316D01*
X239983Y3866D01*
X239316Y4533D01*
X237317D01*
X235317Y6532D02*
Y5866D01*
X235984D01*
X234651D01*
X235317D01*
Y3866D01*
X234651Y3200D01*
X232652D02*
X231319D01*
X231985D01*
Y5866D01*
X232652D01*
X228653Y3200D02*
X227320D01*
X226654Y3866D01*
Y5199D01*
X227320Y5866D01*
X228653D01*
X229319Y5199D01*
Y3866D01*
X228653Y3200D01*
X225321D02*
Y5866D01*
X223321D01*
X222655Y5199D01*
Y3200D01*
X217323D02*
Y7199D01*
X215324D01*
X214657Y6532D01*
Y5199D01*
X215324Y4533D01*
X217323D01*
X213324Y3200D02*
Y7199D01*
X211992Y5866D01*
X210659Y7199D01*
Y3200D01*
X209326Y7199D02*
X207993D01*
X208659D01*
Y3200D01*
X209326D01*
X207993D01*
X201995Y5199D02*
X199329D01*
X193997Y7199D02*
Y4533D01*
X192665Y3200D01*
X191332Y4533D01*
Y7199D01*
X189999Y3200D02*
X188666D01*
X189332D01*
Y7199D01*
X189999Y6532D01*
M02*
