G04 Layer_Color=65535*
%FSLAX25Y25*%
%MOIN*%
G70*
G01*
G75*
%ADD29C,0.01000*%
%ADD30C,0.00787*%
D29*
X625157Y-135689D02*
X625110Y-134694D01*
X624968Y-133707D01*
X624733Y-132739D01*
X624407Y-131797D01*
X623993Y-130890D01*
X623495Y-130027D01*
X622917Y-129215D01*
X622264Y-128462D01*
X621543Y-127774D01*
X620760Y-127158D01*
X619921Y-126620D01*
X619035Y-126163D01*
X618110Y-125793D01*
X617154Y-125512D01*
X616175Y-125323D01*
X615183Y-125228D01*
X614187D01*
X613195Y-125323D01*
X612216Y-125512D01*
X611260Y-125793D01*
X610335Y-126163D01*
X609449Y-126620D01*
X608610Y-127158D01*
X607827Y-127774D01*
X607106Y-128462D01*
X606453Y-129215D01*
X605875Y-130027D01*
X605377Y-130890D01*
X604963Y-131797D01*
X604637Y-132739D01*
X604402Y-133707D01*
X604260Y-134694D01*
X604213Y-135689D01*
X604260Y-136684D01*
X604402Y-137671D01*
X604637Y-138639D01*
X604963Y-139581D01*
X605377Y-140488D01*
X605875Y-141351D01*
X606453Y-142163D01*
X607106Y-142916D01*
X607827Y-143604D01*
X608610Y-144220D01*
X609449Y-144758D01*
X610335Y-145215D01*
X611260Y-145585D01*
X612216Y-145866D01*
X613195Y-146055D01*
X614187Y-146150D01*
X615183D01*
X616175Y-146055D01*
X617154Y-145866D01*
X618110Y-145585D01*
X619035Y-145215D01*
X619921Y-144758D01*
X620760Y-144220D01*
X621543Y-143604D01*
X622264Y-142916D01*
X622917Y-142163D01*
X623495Y-141351D01*
X623993Y-140488D01*
X624407Y-139581D01*
X624733Y-138639D01*
X624968Y-137671D01*
X625110Y-136684D01*
X625157Y-135689D01*
X313622Y11811D02*
X313575Y12807D01*
X313433Y13793D01*
X313198Y14761D01*
X312872Y15703D01*
X312458Y16610D01*
X311960Y17473D01*
X311382Y18285D01*
X310729Y19038D01*
X310008Y19726D01*
X309224Y20342D01*
X308386Y20880D01*
X307500Y21337D01*
X306575Y21708D01*
X305619Y21988D01*
X304640Y22177D01*
X303648Y22272D01*
X302651D01*
X301659Y22177D01*
X300681Y21988D01*
X299724Y21708D01*
X298799Y21337D01*
X297913Y20880D01*
X297075Y20342D01*
X296292Y19726D01*
X295570Y19038D01*
X294918Y18285D01*
X294340Y17473D01*
X293841Y16610D01*
X293427Y15703D01*
X293101Y14761D01*
X292866Y13793D01*
X292725Y12807D01*
X292677Y11811D01*
X292725Y10816D01*
X292866Y9829D01*
X293101Y8861D01*
X293427Y7919D01*
X293841Y7012D01*
X294340Y6149D01*
X294918Y5337D01*
X295570Y4584D01*
X296292Y3897D01*
X297075Y3280D01*
X297913Y2742D01*
X298799Y2285D01*
X299724Y1915D01*
X300681Y1634D01*
X301659Y1445D01*
X302651Y1350D01*
X303648D01*
X304640Y1445D01*
X305619Y1634D01*
X306575Y1915D01*
X307500Y2285D01*
X308386Y2742D01*
X309224Y3280D01*
X310008Y3897D01*
X310729Y4584D01*
X311382Y5337D01*
X311960Y6149D01*
X312458Y7012D01*
X312872Y7919D01*
X313198Y8861D01*
X313433Y9829D01*
X313575Y10816D01*
X313622Y11811D01*
Y145669D02*
X313575Y146665D01*
X313433Y147651D01*
X313198Y148620D01*
X312872Y149562D01*
X312458Y150468D01*
X311960Y151331D01*
X311382Y152143D01*
X310729Y152896D01*
X310008Y153584D01*
X309224Y154200D01*
X308386Y154739D01*
X307500Y155195D01*
X306575Y155566D01*
X305619Y155847D01*
X304640Y156035D01*
X303648Y156130D01*
X302651D01*
X301659Y156035D01*
X300681Y155847D01*
X299724Y155566D01*
X298799Y155195D01*
X297913Y154739D01*
X297075Y154200D01*
X296292Y153584D01*
X295570Y152896D01*
X294918Y152143D01*
X294340Y151331D01*
X293841Y150468D01*
X293427Y149562D01*
X293101Y148620D01*
X292866Y147651D01*
X292725Y146665D01*
X292677Y145669D01*
X292725Y144674D01*
X292866Y143687D01*
X293101Y142719D01*
X293427Y141777D01*
X293841Y140871D01*
X294340Y140007D01*
X294918Y139196D01*
X295570Y138443D01*
X296292Y137755D01*
X297075Y137139D01*
X297913Y136600D01*
X298799Y136143D01*
X299724Y135773D01*
X300681Y135492D01*
X301659Y135303D01*
X302651Y135209D01*
X303648D01*
X304640Y135303D01*
X305619Y135492D01*
X306575Y135773D01*
X307500Y136143D01*
X308386Y136600D01*
X309224Y137139D01*
X310008Y137755D01*
X310729Y138443D01*
X311382Y139196D01*
X311960Y140007D01*
X312458Y140871D01*
X312872Y141777D01*
X313198Y142719D01*
X313433Y143687D01*
X313575Y144674D01*
X313622Y145669D01*
X22284D02*
X22236Y146665D01*
X22094Y147651D01*
X21859Y148620D01*
X21533Y149562D01*
X21119Y150468D01*
X20621Y151331D01*
X20043Y152143D01*
X19390Y152896D01*
X18669Y153584D01*
X17886Y154200D01*
X17047Y154739D01*
X16161Y155195D01*
X15236Y155566D01*
X14280Y155847D01*
X13301Y156035D01*
X12309Y156130D01*
X11313D01*
X10321Y156035D01*
X9342Y155847D01*
X8386Y155566D01*
X7461Y155195D01*
X6575Y154739D01*
X5736Y154200D01*
X4953Y153584D01*
X4232Y152896D01*
X3579Y152143D01*
X3001Y151331D01*
X2503Y150468D01*
X2089Y149562D01*
X1763Y148620D01*
X1528Y147651D01*
X1386Y146665D01*
X1339Y145669D01*
X1386Y144674D01*
X1528Y143687D01*
X1763Y142719D01*
X2089Y141777D01*
X2503Y140871D01*
X3001Y140007D01*
X3579Y139196D01*
X4232Y138443D01*
X4953Y137755D01*
X5736Y137139D01*
X6575Y136600D01*
X7461Y136143D01*
X8386Y135773D01*
X9342Y135492D01*
X10321Y135303D01*
X11313Y135209D01*
X12309D01*
X13301Y135303D01*
X14280Y135492D01*
X15236Y135773D01*
X16161Y136143D01*
X17047Y136600D01*
X17886Y137139D01*
X18669Y137755D01*
X19390Y138443D01*
X20043Y139196D01*
X20621Y140007D01*
X21119Y140871D01*
X21533Y141777D01*
X21859Y142719D01*
X22094Y143687D01*
X22236Y144674D01*
X22284Y145669D01*
Y11811D02*
X22236Y12807D01*
X22094Y13793D01*
X21859Y14761D01*
X21533Y15703D01*
X21119Y16610D01*
X20621Y17473D01*
X20043Y18285D01*
X19390Y19038D01*
X18669Y19726D01*
X17886Y20342D01*
X17047Y20880D01*
X16161Y21337D01*
X15236Y21708D01*
X14280Y21988D01*
X13301Y22177D01*
X12309Y22272D01*
X11313D01*
X10321Y22177D01*
X9342Y21988D01*
X8386Y21708D01*
X7461Y21337D01*
X6575Y20880D01*
X5736Y20342D01*
X4953Y19726D01*
X4232Y19038D01*
X3579Y18285D01*
X3001Y17473D01*
X2503Y16610D01*
X2089Y15703D01*
X1763Y14761D01*
X1528Y13793D01*
X1386Y12807D01*
X1339Y11811D01*
X1386Y10816D01*
X1528Y9829D01*
X1763Y8861D01*
X2089Y7919D01*
X2503Y7012D01*
X3001Y6149D01*
X3579Y5337D01*
X4232Y4584D01*
X4953Y3897D01*
X5736Y3280D01*
X6575Y2742D01*
X7461Y2285D01*
X8386Y1915D01*
X9342Y1634D01*
X10321Y1445D01*
X11313Y1350D01*
X12309D01*
X13301Y1445D01*
X14280Y1634D01*
X15236Y1915D01*
X16161Y2285D01*
X17047Y2742D01*
X17886Y3280D01*
X18669Y3897D01*
X19390Y4584D01*
X20043Y5337D01*
X20621Y6149D01*
X21119Y7012D01*
X21533Y7919D01*
X21859Y8861D01*
X22094Y9829D01*
X22236Y10816D01*
X22284Y11811D01*
X214685Y29311D02*
Y54311D01*
Y29311D02*
X314685D01*
Y54311D01*
X214685D02*
X314685D01*
X214685Y64311D02*
Y89311D01*
Y64311D02*
X314685D01*
Y89311D01*
X214685D02*
X314685D01*
X264016Y97146D02*
Y135728D01*
X314409Y97146D02*
Y135728D01*
X264016Y97146D02*
X314409D01*
X264016Y135728D02*
X314409D01*
X29685Y124311D02*
Y149311D01*
Y124311D02*
X129685D01*
Y149311D01*
X29685D02*
X129685D01*
X149055Y154035D02*
X170315D01*
Y105217D02*
Y154035D01*
Y105217D02*
Y132776D01*
X149055Y105217D02*
Y154035D01*
Y105217D02*
X170315D01*
X181555Y154035D02*
X202815D01*
Y105217D02*
Y154035D01*
Y105217D02*
Y132776D01*
X181555Y105217D02*
Y154035D01*
Y105217D02*
X202815D01*
X99635Y38511D02*
Y110111D01*
Y38511D02*
X139735D01*
Y110111D01*
X99635D02*
X139735D01*
X54635Y38511D02*
Y110111D01*
Y38511D02*
X94735D01*
Y110111D01*
X54635D02*
X94735D01*
X104842Y34232D02*
X134370D01*
Y3327D02*
Y34232D01*
X104842Y3327D02*
X134370D01*
X104842D02*
Y34232D01*
X59842D02*
X89370D01*
Y3327D02*
Y34232D01*
X59842Y3327D02*
X89370D01*
X59842D02*
Y34232D01*
X145764Y4409D02*
X175685D01*
X145764D02*
Y59528D01*
X175685D01*
Y4409D02*
Y59528D01*
X178264Y4409D02*
X208185D01*
X178264D02*
Y59528D01*
X208185D01*
Y4409D02*
Y59528D01*
X221184Y62809D02*
X217185D01*
Y59810D01*
X219184D01*
X217185D01*
Y56811D01*
X227182D02*
X223183D01*
X227182Y60810D01*
Y61809D01*
X226182Y62809D01*
X224183D01*
X223183Y61809D01*
X257684Y44809D02*
X253685D01*
Y41810D01*
X255684D01*
X253685D01*
Y38811D01*
X259683Y44809D02*
Y39811D01*
X260683Y38811D01*
X262682D01*
X263682Y39811D01*
Y44809D01*
X269680Y43809D02*
X268680Y44809D01*
X266681D01*
X265681Y43809D01*
Y42810D01*
X266681Y41810D01*
X268680D01*
X269680Y40810D01*
Y39811D01*
X268680Y38811D01*
X266681D01*
X265681Y39811D01*
X275678Y44809D02*
X271679D01*
Y38811D01*
X275678D01*
X271679Y41810D02*
X273679D01*
X221184Y97809D02*
X217185D01*
Y94810D01*
X219184D01*
X217185D01*
Y91811D01*
X223183Y96809D02*
X224183Y97809D01*
X226182D01*
X227182Y96809D01*
Y95810D01*
X226182Y94810D01*
X225183D01*
X226182D01*
X227182Y93810D01*
Y92811D01*
X226182Y91811D01*
X224183D01*
X223183Y92811D01*
X257684Y79809D02*
X253685D01*
Y76810D01*
X255684D01*
X253685D01*
Y73811D01*
X259683Y79809D02*
Y74811D01*
X260683Y73811D01*
X262682D01*
X263682Y74811D01*
Y79809D01*
X269680Y78809D02*
X268680Y79809D01*
X266681D01*
X265681Y78809D01*
Y77810D01*
X266681Y76810D01*
X268680D01*
X269680Y75810D01*
Y74811D01*
X268680Y73811D01*
X266681D01*
X265681Y74811D01*
X275678Y79809D02*
X271679D01*
Y73811D01*
X275678D01*
X271679Y76810D02*
X273679D01*
X267185Y136811D02*
Y142809D01*
X269184Y140810D01*
X271184Y142809D01*
Y136811D01*
X274183Y140810D02*
X276182D01*
X277182Y139810D01*
Y136811D01*
X274183D01*
X273183Y137811D01*
X274183Y138810D01*
X277182D01*
X279181Y136811D02*
X281181D01*
X280181D01*
Y140810D01*
X279181D01*
X284179Y136811D02*
Y140810D01*
X287179D01*
X288178Y139810D01*
Y136811D01*
X23684Y130309D02*
X19685D01*
Y127310D01*
X21684D01*
X19685D01*
Y124311D01*
X25683D02*
X27683D01*
X26683D01*
Y130309D01*
X25683Y129309D01*
X72684Y139809D02*
X68685D01*
Y136810D01*
X70684D01*
X68685D01*
Y133811D01*
X74683Y139809D02*
Y134811D01*
X75683Y133811D01*
X77682D01*
X78682Y134811D01*
Y139809D01*
X84680Y138809D02*
X83680Y139809D01*
X81681D01*
X80681Y138809D01*
Y137810D01*
X81681Y136810D01*
X83680D01*
X84680Y135810D01*
Y134811D01*
X83680Y133811D01*
X81681D01*
X80681Y134811D01*
X90678Y139809D02*
X86679D01*
Y133811D01*
X90678D01*
X86679Y136810D02*
X88679D01*
X147185Y106811D02*
X141187D01*
Y109810D01*
X142187Y110810D01*
X144186D01*
X145186Y109810D01*
Y106811D01*
X143186Y112809D02*
X147185D01*
X145186D01*
X144186Y113809D01*
X143186Y114808D01*
Y115808D01*
X147185Y119807D02*
Y121806D01*
X146185Y122806D01*
X144186D01*
X143186Y121806D01*
Y119807D01*
X144186Y118807D01*
X146185D01*
X147185Y119807D01*
X149184Y124805D02*
X143186D01*
Y127804D01*
X144186Y128804D01*
X146185D01*
X147185Y127804D01*
Y124805D01*
X143186Y130803D02*
X146185D01*
X147185Y131803D01*
Y134802D01*
X143186D01*
X148185Y136801D02*
Y140800D01*
X147185Y142799D02*
X143186D01*
X141187Y144799D01*
X143186Y146798D01*
X147185D01*
X144186D01*
Y142799D01*
X179685Y106811D02*
X173687D01*
Y109810D01*
X174687Y110810D01*
X176686D01*
X177686Y109810D01*
Y106811D01*
X175686Y112809D02*
X179685D01*
X177686D01*
X176686Y113809D01*
X175686Y114808D01*
Y115808D01*
X179685Y119807D02*
Y121806D01*
X178685Y122806D01*
X176686D01*
X175686Y121806D01*
Y119807D01*
X176686Y118807D01*
X178685D01*
X179685Y119807D01*
X181684Y124805D02*
X175686D01*
Y127804D01*
X176686Y128804D01*
X178685D01*
X179685Y127804D01*
Y124805D01*
X175686Y130803D02*
X178685D01*
X179685Y131803D01*
Y134802D01*
X175686D01*
X180685Y136801D02*
Y140800D01*
X173687Y142799D02*
X179685D01*
Y146798D01*
X99685Y117809D02*
Y111811D01*
Y113810D01*
X103684Y117809D01*
X100685Y114810D01*
X103684Y111811D01*
X109682D02*
X105683D01*
X109682Y115810D01*
Y116809D01*
X108682Y117809D01*
X106683D01*
X105683Y116809D01*
X54685Y117809D02*
Y111811D01*
Y113810D01*
X58684Y117809D01*
X55685Y114810D01*
X58684Y111811D01*
X60683D02*
X62682D01*
X61683D01*
Y117809D01*
X60683Y116809D01*
X99685Y6811D02*
X95686D01*
X93687Y8810D01*
X95686Y10810D01*
X99685D01*
X96686D01*
Y6811D01*
X93687Y12809D02*
X98685D01*
X99685Y13809D01*
Y15808D01*
X98685Y16808D01*
X93687D01*
X95686Y18807D02*
X99685D01*
X97686D01*
X96686Y19807D01*
X95686Y20807D01*
Y21806D01*
X101684Y26805D02*
Y27804D01*
X100685Y28804D01*
X95686D01*
Y25805D01*
X96686Y24805D01*
X98685D01*
X99685Y25805D01*
Y28804D01*
X54685Y6811D02*
X50686D01*
X48687Y8810D01*
X50686Y10810D01*
X54685D01*
X51686D01*
Y6811D01*
X48687Y12809D02*
X54685D01*
Y16808D01*
Y19807D02*
Y21806D01*
X53685Y22806D01*
X51686D01*
X50686Y21806D01*
Y19807D01*
X51686Y18807D01*
X53685D01*
X54685Y19807D01*
X56684Y26805D02*
Y27804D01*
X55685Y28804D01*
X50686D01*
Y25805D01*
X51686Y24805D01*
X53685D01*
X54685Y25805D01*
Y28804D01*
X608734Y-116741D02*
X607734Y-115741D01*
X605735D01*
X604735Y-116741D01*
Y-117740D01*
X605735Y-118740D01*
X607734D01*
X608734Y-119740D01*
Y-120739D01*
X607734Y-121739D01*
X605735D01*
X604735Y-120739D01*
X610733Y-116741D02*
X611733Y-115741D01*
X613732D01*
X614732Y-116741D01*
Y-117740D01*
X613732Y-118740D01*
X612732D01*
X613732D01*
X614732Y-119740D01*
Y-120739D01*
X613732Y-121739D01*
X611733D01*
X610733Y-120739D01*
X178735Y69059D02*
Y65060D01*
X180734Y63061D01*
X182734Y65060D01*
Y69059D01*
X184733Y63061D02*
Y69059D01*
X187732D01*
X188732Y68059D01*
Y66060D01*
X187732Y65060D01*
X184733D01*
X186732D02*
X188732Y63061D01*
X190731D02*
X192730D01*
X191731D01*
Y69059D01*
X190731Y68059D01*
X146235Y69059D02*
Y65060D01*
X148234Y63061D01*
X150234Y65060D01*
Y69059D01*
X152233Y63061D02*
Y69059D01*
X155232D01*
X156232Y68059D01*
Y66060D01*
X155232Y65060D01*
X152233D01*
X154232D02*
X156232Y63061D01*
X162230D02*
X158231D01*
X162230Y67060D01*
Y68059D01*
X161230Y69059D01*
X159231D01*
X158231Y68059D01*
D30*
X226122Y156339D02*
X233602D01*
X226122Y147283D02*
X233602D01*
Y156339D01*
X209587Y148858D02*
Y154764D01*
X211555Y156339D02*
X218248D01*
X209587Y148858D02*
X211555Y147283D01*
X209587Y154764D02*
X211555Y156339D01*
X211555Y147283D02*
X218248D01*
X226122Y146339D02*
X233602D01*
X226122Y137284D02*
X233602D01*
Y146339D01*
X209587Y138858D02*
Y144764D01*
X211555Y146339D02*
X218248D01*
X209587Y138858D02*
X211555Y137284D01*
X209587Y144764D02*
X211555Y146339D01*
X211555Y137284D02*
X218248D01*
X253622Y156339D02*
X261102D01*
X253622Y147283D02*
X261102D01*
Y156339D01*
X237087Y148858D02*
Y154764D01*
X239055Y156339D02*
X245748D01*
X237087Y148858D02*
X239055Y147283D01*
X237087Y154764D02*
X239055Y156339D01*
X239055Y147283D02*
X245748D01*
X253622Y146339D02*
X261102D01*
X253622Y137284D02*
X261102D01*
Y146339D01*
X237087Y138858D02*
Y144764D01*
X239055Y146339D02*
X245748D01*
X237087Y138858D02*
X239055Y137284D01*
X237087Y144764D02*
X239055Y146339D01*
X239055Y137284D02*
X245748D01*
M02*
