M48
;Layer_Color=9474304
;FILE_FORMAT=2:5
INCH,TZ
;TYPE=PLATED
T1F00S00C0.02800
T2F00S00C0.03000
T3F00S00C0.03150
T4F00S00C0.04331
T5F00S00C0.05906
T6F00S00C0.07087
T7F00S00C0.11811
T8F00S00C0.12598
T9F00S00C0.13386
;TYPE=NON_PLATED
T10F00S00C0.11811
T11F00S00C0.12598
%
T01
X270000Y20000
X30000Y30000
X70000Y70000
X120000Y80000
X159685Y51811
X270000Y60000
X279685Y89311
X284685Y101811
X220000Y120000
T02
X159685Y21811
Y31811
Y41811
X192185
Y31811
Y21811
T03
X69685Y29311
X79528
X114685
X124528
T04
X59685Y44311
X89685
X104685
X134685
Y94311
X104685Y104311
X89685Y94311
X59685Y104311
T05
X219685Y41811
X308661
X34685Y136811
X123661
X219685Y76811
X308661
T06
X159685Y77658
Y99311
X192185
Y77658
X238032Y107776
Y124311
X259685
Y107776
T07
X264685Y41811
X79685Y136811
X264685Y76811
T08
X34685Y64311
Y89311
T09
X9685Y64311
Y89311
T10
X159685Y128051
X192185
X288425Y116043
T11
X614685Y-135689
X303150Y11811
X11811
Y145669
X303150
M30
