G04 Layer_Color=16711935*
%FSLAX25Y25*%
%MOIN*%
G70*
G01*
G75*
%ADD31R,0.06706X0.06706*%
%ADD32O,0.08674X0.10642*%
%ADD33C,0.08674*%
%ADD34C,0.12800*%
%ADD35C,0.12611*%
%ADD36R,0.16548X0.12611*%
%ADD37O,0.16548X0.12611*%
%ADD38C,0.08800*%
%ADD39O,0.06800X0.08800*%
%ADD40C,0.21745*%
%ADD41C,0.06800*%
%ADD42O,0.20485X0.24422*%
%ADD43C,0.14186*%
%ADD44C,0.05800*%
%ADD45R,0.06706X0.06706*%
D31*
X149390Y7500D02*
D03*
X135610D02*
D03*
D32*
X308661Y41811D02*
D03*
X219685D02*
D03*
X308661Y76811D02*
D03*
X219685D02*
D03*
X123661Y136811D02*
D03*
X34685D02*
D03*
D33*
X264685Y41811D02*
D03*
Y76811D02*
D03*
X79685Y136811D02*
D03*
X104685Y104311D02*
D03*
X134685Y94311D02*
D03*
X59685Y104311D02*
D03*
X89685Y94311D02*
D03*
D34*
X238032Y124311D02*
D03*
X259685Y107776D02*
D03*
Y124311D02*
D03*
X238032Y107776D02*
D03*
D35*
X288425Y116043D02*
D03*
X159685Y128051D02*
D03*
X192185D02*
D03*
D36*
X159685Y77658D02*
D03*
X192185D02*
D03*
D37*
X159685Y99311D02*
D03*
X192185D02*
D03*
D38*
X134685Y44311D02*
D03*
X104685D02*
D03*
X89685D02*
D03*
X59685D02*
D03*
D39*
X114685Y29311D02*
D03*
X124528D02*
D03*
X69685D02*
D03*
X79528D02*
D03*
D40*
X614685Y-135689D02*
D03*
X303150Y11811D02*
D03*
Y145669D02*
D03*
X11811D02*
D03*
Y11811D02*
D03*
D41*
X159685Y41811D02*
D03*
Y31811D02*
D03*
Y21811D02*
D03*
X192185Y41811D02*
D03*
Y31811D02*
D03*
Y21811D02*
D03*
D42*
X34685Y62343D02*
D03*
Y91280D02*
D03*
D43*
X9685Y89311D02*
D03*
Y64311D02*
D03*
D44*
X270000Y60000D02*
D03*
Y20000D02*
D03*
X220000Y120000D02*
D03*
X120000Y80000D02*
D03*
X70000Y70000D02*
D03*
X30000Y30000D02*
D03*
X279685Y89311D02*
D03*
X284685Y101811D02*
D03*
X159685Y51811D02*
D03*
D45*
X207500Y33110D02*
D03*
Y46890D02*
D03*
M02*
