G04 Layer_Physical_Order=1*
G04 Layer_Color=255*
%FSLAX25Y25*%
%MOIN*%
G70*
G01*
G75*
%ADD10R,0.07874X0.06693*%
%ADD11R,0.05906X0.05906*%
%ADD12R,0.06614X0.07874*%
%ADD13R,0.05906X0.05906*%
%ADD14R,0.27559X0.27559*%
%ADD15R,0.09843X0.05906*%
%ADD16C,0.03937*%
%ADD17C,0.07874*%
%ADD18C,0.05906*%
%ADD19C,0.01969*%
%ADD20O,0.08000X0.06000*%
%ADD21C,0.06000*%
%ADD22C,0.05906*%
%ADD23C,0.20945*%
%ADD24O,0.12000X0.07000*%
%ADD25C,0.05000*%
G36*
X47176Y141732D02*
X47785Y140232D01*
X46215Y138663D01*
X45659Y137938D01*
X45310Y137094D01*
X45250Y136642D01*
X45191Y136189D01*
Y124142D01*
X42268D01*
Y122222D01*
X36548D01*
X35755Y123255D01*
X34711Y124056D01*
X33494Y124560D01*
X32189Y124732D01*
X27189D01*
X25884Y124560D01*
X24667Y124056D01*
X23623Y123255D01*
X22821Y122211D01*
X22318Y120994D01*
X22146Y119689D01*
X22318Y118384D01*
X22821Y117167D01*
X23623Y116123D01*
X24656Y115330D01*
Y105032D01*
X22736D01*
Y96126D01*
X31642D01*
Y105032D01*
X29722D01*
Y114646D01*
X32189D01*
X33494Y114818D01*
X34711Y115322D01*
X35755Y116123D01*
X36548Y117156D01*
X42268D01*
Y115236D01*
X55110D01*
Y124142D01*
X52187D01*
Y127320D01*
X53687Y127971D01*
X53924Y127789D01*
X54775Y127437D01*
X55189Y127382D01*
Y130847D01*
X55689D01*
Y131346D01*
X59153D01*
X59099Y131760D01*
X58746Y132612D01*
X58302Y133191D01*
X58437Y133822D01*
X58893Y134691D01*
X60867D01*
X62347Y134642D01*
X62347Y133191D01*
Y131189D01*
X70252D01*
Y133191D01*
X70252Y134642D01*
X71732Y134691D01*
X75626D01*
Y126969D01*
X75626Y126236D01*
X74444Y125469D01*
X70813D01*
X70252Y126736D01*
X70252Y126969D01*
Y130189D01*
X62347D01*
Y126969D01*
X62347Y126736D01*
X61786Y125469D01*
X60909D01*
Y111189D01*
X75689D01*
Y110689D01*
D01*
Y111189D01*
X90469D01*
Y125469D01*
X85713D01*
X84531Y126236D01*
X84531Y126656D01*
X85286Y128156D01*
X85689D01*
X86658Y128349D01*
X87480Y128898D01*
X93273Y134691D01*
X96382D01*
Y131189D01*
X100689D01*
X104996D01*
Y134691D01*
X108382D01*
Y125252D01*
X117996D01*
Y126198D01*
X120882D01*
Y125252D01*
X130496D01*
Y132668D01*
X130689Y134154D01*
X131733Y134292D01*
X132382Y134561D01*
X133380Y134128D01*
X133882Y133706D01*
Y131189D01*
X137689D01*
Y135626D01*
X135581D01*
X134578Y137126D01*
X134586Y137145D01*
X134723Y138189D01*
X134586Y139233D01*
X134183Y140206D01*
X134163Y140232D01*
X134903Y141732D01*
X146524D01*
X147022Y140507D01*
X147065Y140232D01*
X146549Y139560D01*
X146196Y138709D01*
X146142Y138295D01*
X153071D01*
X153016Y138709D01*
X152664Y139560D01*
X152148Y140232D01*
X152190Y140507D01*
X152689Y141732D01*
X158844D01*
X159267Y140232D01*
X158295Y139637D01*
X156862Y138413D01*
X155639Y136980D01*
X154654Y135373D01*
X153933Y133632D01*
X153493Y131800D01*
X153345Y129921D01*
X153397Y129257D01*
X152563Y128757D01*
X151944Y128602D01*
X151371Y129042D01*
X150520Y129394D01*
X150106Y129449D01*
Y125984D01*
Y122520D01*
X150520Y122574D01*
X151371Y122927D01*
X152102Y123488D01*
X152664Y124219D01*
X152899Y124787D01*
X153790Y124959D01*
X154493Y124857D01*
X154654Y124469D01*
X155639Y122862D01*
X156648Y121680D01*
X156412Y120766D01*
X156015Y120180D01*
X142996D01*
Y121126D01*
X133382D01*
Y120180D01*
X130496D01*
Y121126D01*
X120882D01*
Y111173D01*
X117996D01*
Y121126D01*
X108382D01*
Y120180D01*
X105496D01*
Y121126D01*
X95882D01*
Y110252D01*
X105496D01*
Y111198D01*
X107274D01*
X108382Y110252D01*
X108496Y108752D01*
X106811Y107067D01*
X105940Y105931D01*
X105392Y104608D01*
X105370Y104444D01*
X104285Y104042D01*
X103796Y103977D01*
X102958Y104620D01*
X101864Y105073D01*
X100689Y105228D01*
X99514Y105073D01*
X98420Y104620D01*
X97479Y103898D01*
X96758Y102958D01*
X96305Y101864D01*
X96150Y100689D01*
X96305Y99514D01*
X96758Y98420D01*
X97479Y97479D01*
X97997Y97083D01*
X97969Y95646D01*
X97856Y95368D01*
X96811Y94567D01*
X95940Y93431D01*
X95392Y92108D01*
X95205Y90689D01*
X95392Y89270D01*
X95940Y87947D01*
X96811Y86811D01*
X97856Y86010D01*
X97969Y85732D01*
X97997Y84295D01*
X97592Y83985D01*
X97313Y83857D01*
X96042Y83542D01*
X95206Y84183D01*
X94233Y84586D01*
X93189Y84724D01*
X92789Y84671D01*
X92480Y84980D01*
X91658Y85529D01*
X90689Y85722D01*
X78787D01*
X78542Y86042D01*
X77706Y86683D01*
X76733Y87086D01*
X75689Y87224D01*
X75532Y87203D01*
X74032Y88332D01*
Y90189D01*
X70079D01*
X66126D01*
Y86736D01*
X64646Y86687D01*
X61687D01*
Y88799D01*
X61568Y89705D01*
X61219Y90548D01*
X60752Y91157D01*
Y94475D01*
X60831Y95193D01*
X61934Y95910D01*
X65565D01*
X66126Y94642D01*
X66126Y94409D01*
Y91189D01*
X70079D01*
X74032D01*
Y94409D01*
X74032Y94642D01*
X74592Y95910D01*
X75189D01*
Y110189D01*
X60909D01*
Y96576D01*
X60831Y95858D01*
X59727Y95142D01*
X52187D01*
Y97236D01*
X55110D01*
Y106142D01*
X42268D01*
Y105434D01*
X41142Y104532D01*
X40768Y104532D01*
X37689D01*
Y100579D01*
Y96626D01*
X41021D01*
X41142Y96626D01*
X42389Y97236D01*
X42642Y97236D01*
X45191D01*
Y92689D01*
X45250Y92236D01*
X45310Y91783D01*
X45659Y90940D01*
X46215Y90215D01*
X48215Y88215D01*
X48940Y87659D01*
X49784Y87310D01*
X50689Y87191D01*
X51846D01*
Y86236D01*
X54690D01*
Y84638D01*
X50715Y80663D01*
X50159Y79938D01*
X49810Y79094D01*
X49750Y78642D01*
X49691Y78189D01*
Y74532D01*
X41236D01*
Y65626D01*
X49691D01*
Y60752D01*
X41236D01*
Y60752D01*
X40142Y60752D01*
Y60752D01*
X31236D01*
Y51846D01*
X33156D01*
Y50689D01*
X33349Y49720D01*
X33898Y48898D01*
X36398Y46398D01*
X37220Y45849D01*
X38189Y45656D01*
X43189D01*
X44158Y45849D01*
X44980Y46398D01*
X47480Y48898D01*
X48029Y49720D01*
X48191Y50531D01*
X49691Y50384D01*
Y40773D01*
X49640Y40722D01*
X45689D01*
X44720Y40529D01*
X43898Y39980D01*
X41398Y37480D01*
X41398Y37480D01*
X39640Y35722D01*
X36287D01*
X36042Y36042D01*
X35206Y36683D01*
X34233Y37086D01*
X33189Y37224D01*
X32145Y37086D01*
X31172Y36683D01*
X30336Y36042D01*
X29695Y35206D01*
X29292Y34233D01*
X29155Y33189D01*
X29292Y32145D01*
X29695Y31172D01*
X30336Y30336D01*
X31172Y29695D01*
X32145Y29292D01*
X33189Y29155D01*
X34233Y29292D01*
X35206Y29695D01*
X36042Y30336D01*
X36287Y30656D01*
X40656D01*
Y5689D01*
X40849Y4720D01*
X41398Y3898D01*
X43898Y1398D01*
X44720Y849D01*
X45689Y656D01*
X46512D01*
Y-3331D01*
X49468D01*
X49609Y-4040D01*
X50158Y-4862D01*
X51398Y-6102D01*
X52220Y-6651D01*
X53189Y-6844D01*
X83189D01*
X84158Y-6651D01*
X84980Y-6102D01*
X86240Y-4842D01*
X86789Y-4021D01*
X86926Y-3331D01*
X89626D01*
X90488Y-4581D01*
X90132Y-5046D01*
X89779Y-5897D01*
X89725Y-6311D01*
X92689D01*
Y-3347D01*
X92275Y-3401D01*
X91424Y-3754D01*
X91111Y-3994D01*
X89886Y-3043D01*
Y6362D01*
X79012D01*
Y-1778D01*
X68626D01*
Y6362D01*
X65588D01*
X65529Y6658D01*
X64980Y7480D01*
X62617Y9843D01*
X62692Y10417D01*
X63141Y11343D01*
X68126D01*
Y15189D01*
X63189D01*
Y15689D01*
X62689D01*
Y20035D01*
X58679Y20035D01*
X57386Y20535D01*
X56959Y20535D01*
X46512D01*
X45722Y21708D01*
Y34640D01*
X46738Y35656D01*
X50689D01*
X51658Y35849D01*
X51800Y35943D01*
X52513Y35013D01*
X53443Y34299D01*
X53824Y34142D01*
X53526Y32642D01*
X51236D01*
Y23736D01*
X60142D01*
Y26026D01*
X61642Y26324D01*
X61800Y25943D01*
X62513Y25013D01*
X63443Y24299D01*
X64527Y23851D01*
X65689Y23698D01*
X66851Y23851D01*
X67935Y24299D01*
X68865Y25013D01*
X69578Y25943D01*
X69912Y26748D01*
X70577Y26877D01*
X70801D01*
X71466Y26748D01*
X71799Y25943D01*
X72513Y25013D01*
X73443Y24299D01*
X74527Y23851D01*
X75689Y23698D01*
X76851Y23851D01*
X77935Y24299D01*
X78865Y25013D01*
X79578Y25943D01*
X80027Y27027D01*
X80180Y28189D01*
X80027Y29351D01*
X79578Y30435D01*
X78865Y31365D01*
X77935Y32078D01*
X76851Y32527D01*
X76198Y32613D01*
X76103Y32744D01*
X76718Y34330D01*
X76781Y34363D01*
X77682Y34736D01*
X78508Y35370D01*
X79142Y36195D01*
X79156Y36230D01*
X80656Y35932D01*
Y33189D01*
X80849Y32220D01*
X81398Y31398D01*
X83898Y28898D01*
X84720Y28349D01*
X85689Y28156D01*
X96960D01*
X97479Y27479D01*
X98420Y26758D01*
X99514Y26305D01*
X100689Y26150D01*
X101864Y26305D01*
X102958Y26758D01*
X103796Y27401D01*
X104285Y27336D01*
X105370Y26934D01*
X105392Y26770D01*
X105940Y25447D01*
X106811Y24311D01*
X108496Y22626D01*
X108435Y21126D01*
X108382D01*
Y20180D01*
X105496D01*
Y21126D01*
X95882D01*
Y10252D01*
X105496D01*
Y11198D01*
X108382D01*
Y10252D01*
X117996D01*
Y20362D01*
X120882D01*
Y10252D01*
X130496D01*
Y11198D01*
X133382D01*
Y10252D01*
X142996D01*
Y11198D01*
X157843D01*
X158280Y10147D01*
X158317Y9729D01*
X158295Y9716D01*
X156862Y8492D01*
X155639Y7059D01*
X154654Y5452D01*
X154493Y5064D01*
X153790Y4963D01*
X152899Y5134D01*
X152664Y5702D01*
X152102Y6433D01*
X151371Y6994D01*
X150520Y7347D01*
X150106Y7401D01*
Y3937D01*
Y473D01*
X150520Y527D01*
X151371Y880D01*
X151944Y1319D01*
X152563Y1165D01*
X153397Y664D01*
X153345Y0D01*
X153493Y-1879D01*
X153933Y-3711D01*
X154654Y-5452D01*
X155639Y-7059D01*
X156862Y-8492D01*
X158295Y-9716D01*
X159267Y-10311D01*
X158844Y-11811D01*
X152689D01*
X152190Y-10586D01*
X152148Y-10311D01*
X152664Y-9639D01*
X153016Y-8788D01*
X153071Y-8374D01*
X146142D01*
X146196Y-8788D01*
X146549Y-9639D01*
X147065Y-10311D01*
X147022Y-10586D01*
X146524Y-11811D01*
X133951D01*
X133442Y-10311D01*
X133865Y-9987D01*
X134578Y-9057D01*
X135027Y-7973D01*
X135180Y-6811D01*
X135040Y-5748D01*
X135050Y-5618D01*
X136071Y-4248D01*
X137689D01*
Y189D01*
X133882D01*
Y-1758D01*
X133668Y-2021D01*
X132382Y-2693D01*
X131851Y-2473D01*
X130689Y-2320D01*
X130496D01*
Y6126D01*
X120882D01*
Y5180D01*
X117996D01*
Y6126D01*
X108382D01*
Y-4748D01*
X117996D01*
Y-3802D01*
X120882D01*
Y-4748D01*
X121255D01*
X121351Y-5473D01*
X121800Y-6557D01*
X122513Y-7487D01*
X125013Y-9987D01*
X125013Y-9987D01*
X125436Y-10311D01*
X125443Y-10525D01*
X124708Y-11811D01*
X93517D01*
X93418Y-10311D01*
X94103Y-10221D01*
X94954Y-9868D01*
X95685Y-9307D01*
X96246Y-8576D01*
X96599Y-7725D01*
X96653Y-7311D01*
X89725D01*
X89779Y-7725D01*
X90132Y-8576D01*
X90693Y-9307D01*
X91424Y-9868D01*
X92275Y-10221D01*
X92960Y-10311D01*
X92861Y-11811D01*
X19409Y-11811D01*
X18964Y-10311D01*
X19103Y-10221D01*
X19236Y-10166D01*
X19954Y-9868D01*
X20685Y-9307D01*
X21246Y-8576D01*
X21599Y-7725D01*
X21653Y-7311D01*
X14725D01*
X14779Y-7725D01*
X15132Y-8576D01*
X15693Y-9307D01*
X16424Y-9868D01*
X17021Y-10116D01*
X17275Y-10221D01*
X17414Y-10311D01*
X16969Y-11811D01*
X6511D01*
X6088Y-10311D01*
X7059Y-9716D01*
X8492Y-8492D01*
X9716Y-7059D01*
X10701Y-5452D01*
X11422Y-3711D01*
X11862Y-1879D01*
X12009Y0D01*
X11862Y1879D01*
X11422Y3711D01*
X10701Y5452D01*
X9716Y7059D01*
X8492Y8492D01*
X7059Y9716D01*
X5452Y10701D01*
X3711Y11422D01*
X1879Y11862D01*
X0Y12009D01*
X-1879Y11862D01*
X-3711Y11422D01*
X-5452Y10701D01*
X-7059Y9716D01*
X-8492Y8492D01*
X-9716Y7059D01*
X-10311Y6088D01*
X-11811Y6511D01*
Y16969D01*
X-10311Y17414D01*
X-10221Y17275D01*
X-10166Y17142D01*
X-9868Y16424D01*
X-9307Y15693D01*
X-8576Y15132D01*
X-7725Y14779D01*
X-7311Y14725D01*
Y18189D01*
Y21653D01*
X-7725Y21599D01*
X-8576Y21246D01*
X-9307Y20685D01*
X-9868Y19954D01*
X-10116Y19357D01*
X-10221Y19103D01*
X-10311Y18964D01*
X-11811Y19409D01*
Y62992D01*
X19156D01*
X19685Y62992D01*
X20656Y61894D01*
Y49072D01*
X19156Y48563D01*
X18898Y48898D01*
X17958Y49620D01*
X16864Y50073D01*
X15689Y50228D01*
X14514Y50073D01*
X13420Y49620D01*
X12479Y48898D01*
X11758Y47958D01*
X11459Y47236D01*
X9919D01*
X9620Y47958D01*
X8898Y48898D01*
X7958Y49620D01*
X6864Y50073D01*
X5689Y50228D01*
X4514Y50073D01*
X3420Y49620D01*
X2479Y48898D01*
X1758Y47958D01*
X1305Y46864D01*
X1271Y46609D01*
X-270Y46396D01*
X-414Y46734D01*
X-445Y46809D01*
X-817Y47706D01*
X-1458Y48542D01*
X-2294Y49183D01*
X-3267Y49586D01*
X-3811Y49658D01*
Y45689D01*
Y41720D01*
X-3267Y41792D01*
X-2294Y42195D01*
X-1458Y42836D01*
X-817Y43672D01*
X-445Y44569D01*
X-414Y44644D01*
X-270Y44982D01*
X1271Y44769D01*
X1305Y44514D01*
X1758Y43420D01*
X2479Y42480D01*
X3420Y41758D01*
X4514Y41305D01*
X5689Y41150D01*
X6864Y41305D01*
X7958Y41758D01*
X8898Y42480D01*
X9620Y43420D01*
X9919Y44142D01*
X11459D01*
X11758Y43420D01*
X12479Y42480D01*
X13420Y41758D01*
X14514Y41305D01*
X15689Y41150D01*
X16864Y41305D01*
X17958Y41758D01*
X18898Y42480D01*
X19156Y42815D01*
X20656Y42306D01*
Y3189D01*
X20849Y2220D01*
X21398Y1398D01*
X23071Y-275D01*
X23893Y-824D01*
X24862Y-1017D01*
X25252D01*
Y-3331D01*
X36126D01*
Y6362D01*
X25722D01*
Y9855D01*
X25752Y11343D01*
X27222Y11343D01*
X30189D01*
Y15689D01*
Y20035D01*
X27222D01*
X25752Y20035D01*
X25722Y21523D01*
Y64159D01*
X26733Y64292D01*
X27706Y64695D01*
X28542Y65336D01*
X29183Y66172D01*
X29586Y67145D01*
X29724Y68189D01*
X29586Y69233D01*
X29183Y70206D01*
X28542Y71042D01*
X28047Y71422D01*
X27946Y71655D01*
X27873Y72603D01*
X27980Y73193D01*
X28185Y73350D01*
X28746Y74081D01*
X29099Y74933D01*
X29153Y75346D01*
X22225D01*
X22279Y74933D01*
X22632Y74081D01*
X23193Y73350D01*
X23398Y73193D01*
X23505Y72603D01*
X23432Y71655D01*
X23331Y71422D01*
X22836Y71042D01*
X22195Y70206D01*
X21792Y69233D01*
X21700Y68532D01*
X21185Y68067D01*
X19866Y68599D01*
X19685Y68791D01*
Y73577D01*
X20073Y74514D01*
X20228Y75689D01*
X20073Y76864D01*
X19685Y77801D01*
Y87473D01*
X19898Y87637D01*
X20620Y88577D01*
X21073Y89672D01*
X21228Y90847D01*
X21073Y92021D01*
X20620Y93116D01*
X19898Y94056D01*
X19685Y94220D01*
Y97316D01*
X19898Y97479D01*
X20620Y98420D01*
X21073Y99514D01*
X21228Y100689D01*
X21073Y101864D01*
X20620Y102958D01*
X19898Y103898D01*
X19685Y104062D01*
Y110236D01*
X-11811D01*
Y123410D01*
X-10311Y123834D01*
X-9716Y122862D01*
X-8492Y121429D01*
X-7059Y120205D01*
X-5452Y119221D01*
X-3711Y118500D01*
X-1879Y118060D01*
X0Y117912D01*
X1879Y118060D01*
X3711Y118500D01*
X5452Y119221D01*
X7059Y120205D01*
X8492Y121429D01*
X9716Y122862D01*
X10701Y124469D01*
X11422Y126210D01*
X11862Y128043D01*
X12009Y129921D01*
X11862Y131800D01*
X11422Y133632D01*
X10701Y135373D01*
X9716Y136980D01*
X8492Y138413D01*
X7059Y139637D01*
X6088Y140232D01*
X6511Y141732D01*
X47176Y141732D01*
D02*
G37*
G36*
X177165Y123410D02*
Y6511D01*
X175665Y6088D01*
X175070Y7059D01*
X173846Y8492D01*
X172413Y9716D01*
X170807Y10701D01*
X169065Y11422D01*
X167233Y11862D01*
X165354Y12009D01*
X163476Y11862D01*
X162632Y11659D01*
X161870Y13019D01*
X163865Y15013D01*
X163865Y15013D01*
X164578Y15943D01*
X165027Y17027D01*
X165180Y18189D01*
Y33189D01*
X165027Y34351D01*
X164578Y35435D01*
X163865Y36365D01*
X163865Y36365D01*
X161522Y38707D01*
X160592Y39421D01*
X159509Y39870D01*
X158346Y40023D01*
X153972D01*
X153431Y40438D01*
X152108Y40986D01*
X150689Y41173D01*
X124660D01*
X124230Y41911D01*
X124047Y42673D01*
X124620Y43420D01*
X125073Y44514D01*
X125228Y45689D01*
X125073Y46864D01*
X124620Y47958D01*
X123898Y48898D01*
X122958Y49620D01*
X122236Y49919D01*
Y51459D01*
X122958Y51758D01*
X123898Y52479D01*
X124620Y53420D01*
X125073Y54514D01*
X126560Y54317D01*
X126590Y54086D01*
X126943Y53235D01*
X127504Y52504D01*
X128235Y51943D01*
X129086Y51590D01*
X129500Y51536D01*
Y55000D01*
Y58464D01*
X129086Y58410D01*
X128235Y58057D01*
X127504Y57496D01*
X126943Y56765D01*
X125311Y56745D01*
X125073Y56864D01*
X124620Y57958D01*
X123898Y58898D01*
X122958Y59620D01*
X121864Y60073D01*
X121017Y60185D01*
Y61698D01*
X121733Y61792D01*
X122706Y62195D01*
X123542Y62836D01*
X124183Y63672D01*
X124586Y64645D01*
X124658Y65189D01*
X120689D01*
Y66189D01*
X124658D01*
X124586Y66733D01*
X124183Y67706D01*
X123542Y68542D01*
X122706Y69183D01*
X121733Y69586D01*
X121017Y69680D01*
Y71193D01*
X121864Y71305D01*
X122958Y71758D01*
X123898Y72479D01*
X124620Y73420D01*
X125073Y74514D01*
X126560Y74317D01*
X126590Y74086D01*
X126943Y73235D01*
X127504Y72504D01*
X128235Y71943D01*
X129086Y71590D01*
X129500Y71536D01*
Y75000D01*
Y78464D01*
X129086Y78410D01*
X128235Y78057D01*
X127504Y77496D01*
X126943Y76765D01*
X125311Y76745D01*
X125073Y76864D01*
X124620Y77958D01*
X123898Y78898D01*
X122958Y79620D01*
X122236Y79919D01*
Y81459D01*
X122958Y81758D01*
X123898Y82480D01*
X124620Y83420D01*
X125073Y84514D01*
X125228Y85689D01*
X125073Y86864D01*
X124620Y87958D01*
X124047Y88705D01*
X124230Y89467D01*
X124660Y90205D01*
X150689D01*
X152108Y90392D01*
X153431Y90940D01*
X153767Y91198D01*
X158189D01*
X159351Y91351D01*
X160435Y91799D01*
X161365Y92513D01*
X163865Y95013D01*
X163865Y95013D01*
X164578Y95943D01*
X165027Y97027D01*
X165180Y98189D01*
Y113189D01*
X165027Y114351D01*
X164578Y115435D01*
X163865Y116365D01*
X163865Y116365D01*
X163691Y116538D01*
X164361Y117990D01*
X165354Y117912D01*
X167233Y118060D01*
X169065Y118500D01*
X170807Y119221D01*
X172413Y120205D01*
X173846Y121429D01*
X175070Y122862D01*
X175665Y123833D01*
X177165Y123410D01*
D02*
G37*
G36*
X117437Y90580D02*
X117480Y88898D01*
X116758Y87958D01*
X116622Y87630D01*
X116398Y87480D01*
X112140Y83222D01*
X108189D01*
X107220Y83029D01*
X106528Y82567D01*
X105004Y82888D01*
X104402Y83812D01*
X105120Y85205D01*
X108189D01*
X109608Y85392D01*
X110931Y85940D01*
X112067Y86811D01*
X114567Y89311D01*
X115438Y90447D01*
X115474Y90534D01*
X117010Y90944D01*
X117437Y90580D01*
D02*
G37*
G36*
X88387Y80462D02*
X88792Y79501D01*
X87910Y78222D01*
X85689D01*
X84720Y78029D01*
X83898Y77480D01*
X81398Y74980D01*
X80849Y74158D01*
X80656Y73189D01*
Y67219D01*
X79645Y67086D01*
X78672Y66683D01*
X77836Y66042D01*
X77222Y65241D01*
X77108Y65228D01*
X75722Y65570D01*
Y70091D01*
X76042Y70336D01*
X76683Y71172D01*
X77086Y72145D01*
X77223Y73189D01*
X77086Y74233D01*
X76683Y75206D01*
X76042Y76042D01*
X75206Y76683D01*
X74233Y77086D01*
X73189Y77223D01*
X72145Y77086D01*
X71172Y76683D01*
X70336Y76042D01*
X69695Y75206D01*
X69292Y74233D01*
X69155Y73189D01*
X69239Y72548D01*
X67797Y72005D01*
X67480Y72480D01*
X64980Y74980D01*
X64158Y75529D01*
X63895Y75581D01*
X63542Y76042D01*
X62706Y76683D01*
X61733Y77086D01*
X60689Y77223D01*
X59645Y77086D01*
X58672Y76683D01*
X57843Y77896D01*
X59638Y79690D01*
X73682D01*
X74645Y79292D01*
X75689Y79154D01*
X76733Y79292D01*
X77706Y79695D01*
X78542Y80336D01*
X78787Y80656D01*
X88179D01*
X88387Y80462D01*
D02*
G37*
G36*
X113074Y76656D02*
X111398Y74980D01*
X110849Y74158D01*
X110656Y73189D01*
Y70620D01*
X109250Y69598D01*
X109156Y69596D01*
X108189Y69723D01*
X107145Y69586D01*
X106564Y69345D01*
X105522Y69921D01*
X105178Y70311D01*
X105228Y70689D01*
X105073Y71864D01*
X104620Y72958D01*
X104749Y73744D01*
X104980Y73898D01*
X109238Y78156D01*
X112453D01*
X113074Y76656D01*
D02*
G37*
G36*
X96143Y72056D02*
X96277Y71656D01*
X96150Y70689D01*
X96277Y69722D01*
X96143Y69322D01*
X95217Y68222D01*
X93189D01*
X92220Y68029D01*
X91398Y67480D01*
X88898Y64980D01*
X88349Y64158D01*
X88156Y63189D01*
Y59238D01*
X87140Y58222D01*
X83070D01*
X82728Y59608D01*
X82741Y59722D01*
X83542Y60336D01*
X84183Y61172D01*
X84586Y62145D01*
X84724Y63189D01*
X84671Y63589D01*
X84980Y63898D01*
X85529Y64720D01*
X85722Y65689D01*
Y72140D01*
X86738Y73156D01*
X95217D01*
X96143Y72056D01*
D02*
G37*
G36*
X69695Y71172D02*
X70336Y70336D01*
X70656Y70091D01*
Y58189D01*
X70849Y57220D01*
X71398Y56398D01*
X73898Y53898D01*
X74720Y53349D01*
X75689Y53156D01*
X88189D01*
X89158Y53349D01*
X89205Y53380D01*
X89316Y53365D01*
X90656Y52546D01*
Y43120D01*
X89250Y42098D01*
X89156Y42096D01*
X88189Y42224D01*
X87222Y42096D01*
X87128Y42098D01*
X85722Y43120D01*
Y43189D01*
X85529Y44158D01*
X84980Y44980D01*
X82480Y47480D01*
X81658Y48029D01*
X80689Y48222D01*
X76738D01*
X72480Y52480D01*
X71658Y53029D01*
X70689Y53222D01*
X69238D01*
X68222Y54238D01*
Y70689D01*
X68176Y70919D01*
X69619Y71356D01*
X69695Y71172D01*
D02*
G37*
G36*
X115819Y55785D02*
X116171Y55527D01*
X116305Y54514D01*
X116758Y53420D01*
X117480Y52479D01*
X118420Y51758D01*
X119142Y51459D01*
Y49919D01*
X118420Y49620D01*
X117480Y48898D01*
X116758Y47958D01*
X116305Y46864D01*
X116150Y45689D01*
X116305Y44514D01*
X116758Y43420D01*
X117480Y42480D01*
X117437Y40798D01*
X117010Y40434D01*
X115474Y40844D01*
X115438Y40931D01*
X114567Y42067D01*
X112067Y44567D01*
X110931Y45438D01*
X109608Y45986D01*
X108189Y46173D01*
X104660D01*
X104230Y46911D01*
X104047Y47673D01*
X104620Y48420D01*
X105073Y49514D01*
X105228Y50689D01*
X105101Y51656D01*
X105235Y52056D01*
X106161Y53156D01*
X110689D01*
X111658Y53349D01*
X112480Y53898D01*
X114693Y56111D01*
X115819Y55785D01*
D02*
G37*
G36*
X58349Y47220D02*
X58898Y46398D01*
X61398Y43898D01*
X62220Y43349D01*
X62570Y43279D01*
X62942Y41694D01*
X62513Y41365D01*
X61800Y40435D01*
X61466Y39630D01*
X60801Y39501D01*
X60577D01*
X59912Y39630D01*
X59578Y40435D01*
X58865Y41365D01*
X57935Y42078D01*
X56851Y42527D01*
X56687Y42549D01*
Y47884D01*
X58187Y48031D01*
X58349Y47220D01*
D02*
G37*
G36*
X95836Y37959D02*
X96031Y37828D01*
X96811Y36811D01*
X97856Y36010D01*
X97969Y35732D01*
X97997Y34295D01*
X97479Y33898D01*
X96960Y33222D01*
X90570D01*
X90228Y34608D01*
X90241Y34722D01*
X91042Y35336D01*
X91395Y35796D01*
X91658Y35849D01*
X92480Y36398D01*
X94232Y38150D01*
X95836Y37959D01*
D02*
G37*
%LPC*%
G36*
X153071Y137295D02*
X150106D01*
Y134331D01*
X150520Y134385D01*
X151371Y134738D01*
X152102Y135299D01*
X152664Y136030D01*
X153016Y136882D01*
X153071Y137295D01*
D02*
G37*
G36*
X149106D02*
X146142D01*
X146196Y136882D01*
X146549Y136030D01*
X147110Y135299D01*
X147841Y134738D01*
X148693Y134385D01*
X149106Y134331D01*
Y137295D01*
D02*
G37*
G36*
X32189Y137614D02*
X30189D01*
Y133575D01*
X36662D01*
X36573Y134249D01*
X36120Y135344D01*
X35398Y136284D01*
X34458Y137005D01*
X33364Y137459D01*
X32189Y137614D01*
D02*
G37*
G36*
X29189D02*
X27189D01*
X26014Y137459D01*
X24920Y137005D01*
X23979Y136284D01*
X23258Y135344D01*
X22805Y134249D01*
X22716Y133575D01*
X29189D01*
Y137614D01*
D02*
G37*
G36*
X142496Y135626D02*
X138689D01*
Y131189D01*
X142496D01*
Y135626D01*
D02*
G37*
G36*
X36662Y132575D02*
X30189D01*
Y128536D01*
X32189D01*
X33364Y128691D01*
X34458Y129144D01*
X35398Y129865D01*
X36120Y130805D01*
X36573Y131900D01*
X36662Y132575D01*
D02*
G37*
G36*
X29189D02*
X22716D01*
X22805Y131900D01*
X23258Y130805D01*
X23979Y129865D01*
X24920Y129144D01*
X26014Y128691D01*
X27189Y128536D01*
X29189D01*
Y132575D01*
D02*
G37*
G36*
X59153Y130347D02*
X56189D01*
Y127382D01*
X56603Y127437D01*
X57454Y127789D01*
X58185Y128350D01*
X58746Y129081D01*
X59099Y129933D01*
X59153Y130347D01*
D02*
G37*
G36*
X149106Y129449D02*
X148693Y129394D01*
X147841Y129042D01*
X147110Y128481D01*
X146549Y127749D01*
X146196Y126898D01*
X146142Y126484D01*
X149106D01*
Y129449D01*
D02*
G37*
G36*
X142496Y130189D02*
X138689D01*
Y125752D01*
X142496D01*
Y130189D01*
D02*
G37*
G36*
X137689D02*
X133882D01*
Y125752D01*
X137689D01*
Y130189D01*
D02*
G37*
G36*
X104996D02*
X101189D01*
Y125752D01*
X104996D01*
Y130189D01*
D02*
G37*
G36*
X100189D02*
X96382D01*
Y125752D01*
X100189D01*
Y130189D01*
D02*
G37*
G36*
X149106Y125484D02*
X146142D01*
X146196Y125071D01*
X146549Y124219D01*
X147110Y123488D01*
X147841Y122927D01*
X148693Y122574D01*
X149106Y122520D01*
Y125484D01*
D02*
G37*
G36*
X36689Y104532D02*
X33236D01*
Y101079D01*
X36689D01*
Y104532D01*
D02*
G37*
G36*
Y100079D02*
X33236D01*
Y96626D01*
X36689D01*
Y100079D01*
D02*
G37*
G36*
X90469Y110189D02*
X76189D01*
Y95910D01*
X90469D01*
Y110189D01*
D02*
G37*
G36*
X32736Y91252D02*
X31642Y91252D01*
Y91252D01*
X31280Y91252D01*
X22736D01*
Y82346D01*
X25359D01*
X25398Y82288D01*
X26398Y81288D01*
X27220Y80739D01*
X28189Y80546D01*
X35689D01*
X36658Y80739D01*
X37480Y81288D01*
X38539Y82346D01*
X41642D01*
Y91252D01*
X33098D01*
X32736Y91252D01*
Y91252D01*
D02*
G37*
G36*
X26189Y79311D02*
Y76346D01*
X29153D01*
X29099Y76760D01*
X28746Y77612D01*
X28185Y78343D01*
X27454Y78904D01*
X26603Y79256D01*
X26189Y79311D01*
D02*
G37*
G36*
X25189D02*
X24775Y79256D01*
X23924Y78904D01*
X23193Y78343D01*
X22632Y77612D01*
X22279Y76760D01*
X22225Y76346D01*
X25189D01*
Y79311D01*
D02*
G37*
G36*
X39642Y74032D02*
X36189D01*
Y70579D01*
X39642D01*
Y74032D01*
D02*
G37*
G36*
X35189D02*
X31736D01*
Y70579D01*
X35189D01*
Y74032D01*
D02*
G37*
G36*
X39642Y69579D02*
X36189D01*
Y66126D01*
X39642D01*
Y69579D01*
D02*
G37*
G36*
X35189D02*
X31736D01*
Y66126D01*
X35189D01*
Y69579D01*
D02*
G37*
G36*
X-4811Y49658D02*
X-5355Y49586D01*
X-6328Y49183D01*
X-7164Y48542D01*
X-7805Y47706D01*
X-8208Y46733D01*
X-8280Y46189D01*
X-4811D01*
Y49658D01*
D02*
G37*
G36*
Y45189D02*
X-8280D01*
X-8208Y44645D01*
X-7805Y43672D01*
X-7164Y42836D01*
X-6328Y42195D01*
X-5355Y41792D01*
X-4811Y41720D01*
Y45189D01*
D02*
G37*
G36*
X13689Y21653D02*
Y18689D01*
X16653D01*
X16599Y19103D01*
X16246Y19954D01*
X15685Y20685D01*
X14954Y21246D01*
X14103Y21599D01*
X13689Y21653D01*
D02*
G37*
G36*
X12689D02*
X12275Y21599D01*
X11424Y21246D01*
X10693Y20685D01*
X10132Y19954D01*
X9779Y19103D01*
X9725Y18689D01*
X12689D01*
Y21653D01*
D02*
G37*
G36*
X-6311D02*
Y18689D01*
X-3347D01*
X-3401Y19103D01*
X-3754Y19954D01*
X-4315Y20685D01*
X-5046Y21246D01*
X-5897Y21599D01*
X-6311Y21653D01*
D02*
G37*
G36*
X63689Y20035D02*
Y16189D01*
X68126D01*
Y20035D01*
X63689D01*
D02*
G37*
G36*
X31189D02*
Y16189D01*
X35626D01*
Y20035D01*
X31189D01*
D02*
G37*
G36*
X16653Y17689D02*
X13689D01*
Y14725D01*
X14103Y14779D01*
X14954Y15132D01*
X15685Y15693D01*
X16246Y16424D01*
X16599Y17275D01*
X16653Y17689D01*
D02*
G37*
G36*
X12689D02*
X9725D01*
X9779Y17275D01*
X10132Y16424D01*
X10693Y15693D01*
X11424Y15132D01*
X12275Y14779D01*
X12689Y14725D01*
Y17689D01*
D02*
G37*
G36*
X-3347D02*
X-6311D01*
Y14725D01*
X-5897Y14779D01*
X-5046Y15132D01*
X-4315Y15693D01*
X-3754Y16424D01*
X-3401Y17275D01*
X-3347Y17689D01*
D02*
G37*
G36*
X35626Y15189D02*
X31189D01*
Y11343D01*
X35626D01*
Y15189D01*
D02*
G37*
G36*
X89886Y20535D02*
X79012D01*
Y10842D01*
X89886D01*
Y20535D01*
D02*
G37*
G36*
X149106Y7401D02*
X148693Y7347D01*
X147841Y6994D01*
X147110Y6433D01*
X146549Y5702D01*
X146196Y4851D01*
X146142Y4437D01*
X149106D01*
Y7401D01*
D02*
G37*
G36*
X142496Y5626D02*
X138689D01*
Y1189D01*
X142496D01*
Y5626D01*
D02*
G37*
G36*
X104996D02*
X101189D01*
Y1189D01*
X104996D01*
Y5626D01*
D02*
G37*
G36*
X137689D02*
X133882D01*
Y1189D01*
X137689D01*
Y5626D01*
D02*
G37*
G36*
X100189D02*
X96382D01*
Y1189D01*
X100189D01*
Y5626D01*
D02*
G37*
G36*
X149106Y3437D02*
X146142D01*
X146196Y3023D01*
X146549Y2172D01*
X147110Y1441D01*
X147841Y880D01*
X148693Y527D01*
X149106Y473D01*
Y3437D01*
D02*
G37*
G36*
X100189Y189D02*
X96382D01*
Y-2959D01*
X94954Y-3754D01*
X94103Y-3401D01*
X93689Y-3347D01*
Y-6311D01*
X96653D01*
X96599Y-5897D01*
X96537Y-5748D01*
X97372Y-4310D01*
X97467Y-4248D01*
X100189D01*
Y189D01*
D02*
G37*
G36*
X142496D02*
X138689D01*
Y-4248D01*
X142496D01*
Y189D01*
D02*
G37*
G36*
X104996D02*
X101189D01*
Y-4248D01*
X104996D01*
Y189D01*
D02*
G37*
G36*
X18689Y-3347D02*
Y-6311D01*
X21653D01*
X21599Y-5897D01*
X21246Y-5046D01*
X20685Y-4315D01*
X19954Y-3754D01*
X19103Y-3401D01*
X18689Y-3347D01*
D02*
G37*
G36*
X17689D02*
X17275Y-3401D01*
X16424Y-3754D01*
X15693Y-4315D01*
X15132Y-5046D01*
X14779Y-5897D01*
X14725Y-6311D01*
X17689D01*
Y-3347D01*
D02*
G37*
G36*
X150106Y-4410D02*
Y-7374D01*
X153071D01*
X153016Y-6960D01*
X152664Y-6109D01*
X152102Y-5378D01*
X151371Y-4817D01*
X150520Y-4464D01*
X150106Y-4410D01*
D02*
G37*
G36*
X149106D02*
X148693Y-4464D01*
X147841Y-4817D01*
X147110Y-5378D01*
X146549Y-6109D01*
X146196Y-6960D01*
X146142Y-7374D01*
X149106D01*
Y-4410D01*
D02*
G37*
G36*
X163689Y86653D02*
Y83689D01*
X166653D01*
X166599Y84103D01*
X166246Y84954D01*
X165685Y85685D01*
X164954Y86246D01*
X164103Y86599D01*
X163689Y86653D01*
D02*
G37*
G36*
X162689D02*
X162275Y86599D01*
X161424Y86246D01*
X160693Y85685D01*
X160132Y84954D01*
X159779Y84103D01*
X159725Y83689D01*
X162689D01*
Y86653D01*
D02*
G37*
G36*
X166653Y82689D02*
X163689D01*
Y79725D01*
X164103Y79779D01*
X164954Y80132D01*
X165685Y80693D01*
X166246Y81424D01*
X166599Y82275D01*
X166653Y82689D01*
D02*
G37*
G36*
X162689D02*
X159725D01*
X159779Y82275D01*
X160132Y81424D01*
X160693Y80693D01*
X161424Y80132D01*
X162275Y79779D01*
X162689Y79725D01*
Y82689D01*
D02*
G37*
G36*
X130500Y78464D02*
Y75500D01*
X133464D01*
X133410Y75914D01*
X133057Y76765D01*
X132496Y77496D01*
X131765Y78057D01*
X130914Y78410D01*
X130500Y78464D01*
D02*
G37*
G36*
X133464Y74500D02*
X130500D01*
Y71536D01*
X130914Y71590D01*
X131765Y71943D01*
X132496Y72504D01*
X133057Y73235D01*
X133410Y74086D01*
X133464Y74500D01*
D02*
G37*
G36*
X151689Y75543D02*
X151673D01*
Y71516D01*
X156571D01*
X156530Y71829D01*
X156029Y73037D01*
X155233Y74075D01*
X154195Y74871D01*
X152986Y75372D01*
X151689Y75543D01*
D02*
G37*
G36*
X149705D02*
X149689D01*
X148392Y75372D01*
X147183Y74871D01*
X146145Y74075D01*
X145349Y73037D01*
X144848Y71829D01*
X144807Y71516D01*
X149705D01*
Y75543D01*
D02*
G37*
G36*
X130500Y68464D02*
Y65500D01*
X133464D01*
X133410Y65914D01*
X133057Y66765D01*
X132496Y67496D01*
X131765Y68057D01*
X130914Y68410D01*
X130500Y68464D01*
D02*
G37*
G36*
X129500D02*
X129086Y68410D01*
X128235Y68057D01*
X127504Y67496D01*
X126943Y66765D01*
X126590Y65914D01*
X126536Y65500D01*
X129500D01*
Y68464D01*
D02*
G37*
G36*
X133464Y64500D02*
X130500D01*
Y61536D01*
X130914Y61590D01*
X131765Y61943D01*
X132496Y62504D01*
X133057Y63235D01*
X133410Y64086D01*
X133464Y64500D01*
D02*
G37*
G36*
X129500D02*
X126536D01*
X126590Y64086D01*
X126943Y63235D01*
X127504Y62504D01*
X128235Y61943D01*
X129086Y61590D01*
X129500Y61536D01*
Y64500D01*
D02*
G37*
G36*
X156571Y69547D02*
X150689D01*
X144807D01*
X144848Y69235D01*
X145349Y68026D01*
X146145Y66988D01*
X147183Y66192D01*
X147239Y66168D01*
X147363Y65108D01*
X147293Y64522D01*
X146479Y63898D01*
X145758Y62958D01*
X145305Y61864D01*
X145150Y60689D01*
X145305Y59514D01*
X145758Y58420D01*
X146479Y57480D01*
X147420Y56758D01*
X148514Y56305D01*
X149689Y56150D01*
X151689D01*
X152864Y56305D01*
X153958Y56758D01*
X154898Y57480D01*
X155620Y58420D01*
X156073Y59514D01*
X156228Y60689D01*
X156073Y61864D01*
X155620Y62958D01*
X154898Y63898D01*
X154085Y64522D01*
X154015Y65108D01*
X154139Y66168D01*
X154195Y66192D01*
X155233Y66988D01*
X156029Y68026D01*
X156530Y69235D01*
X156571Y69547D01*
D02*
G37*
G36*
X130500Y58464D02*
Y55500D01*
X133464D01*
X133410Y55914D01*
X133057Y56765D01*
X132496Y57496D01*
X131765Y58057D01*
X130914Y58410D01*
X130500Y58464D01*
D02*
G37*
G36*
X133464Y54500D02*
X130500D01*
Y51536D01*
X130914Y51590D01*
X131765Y51943D01*
X132496Y52504D01*
X133057Y53235D01*
X133410Y54086D01*
X133464Y54500D01*
D02*
G37*
G36*
X163689Y51653D02*
Y48689D01*
X166653D01*
X166599Y49103D01*
X166246Y49954D01*
X165685Y50685D01*
X164954Y51246D01*
X164103Y51599D01*
X163689Y51653D01*
D02*
G37*
G36*
X162689D02*
X162275Y51599D01*
X161424Y51246D01*
X160693Y50685D01*
X160132Y49954D01*
X159779Y49103D01*
X159725Y48689D01*
X162689D01*
Y51653D01*
D02*
G37*
G36*
X166653Y47689D02*
X163689D01*
Y44725D01*
X164103Y44779D01*
X164954Y45132D01*
X165685Y45693D01*
X166246Y46424D01*
X166599Y47275D01*
X166653Y47689D01*
D02*
G37*
G36*
X162689D02*
X159725D01*
X159779Y47275D01*
X160132Y46424D01*
X160693Y45693D01*
X161424Y45132D01*
X162275Y44779D01*
X162689Y44725D01*
Y47689D01*
D02*
G37*
%LPD*%
D10*
X63189Y15689D02*
D03*
Y1516D02*
D03*
X84449D02*
D03*
Y15689D02*
D03*
X30689D02*
D03*
Y1516D02*
D03*
X51949D02*
D03*
Y15689D02*
D03*
D11*
X37189Y100579D02*
D03*
Y86799D02*
D03*
X27189Y86799D02*
D03*
Y100579D02*
D03*
X35689Y70079D02*
D03*
Y56299D02*
D03*
X45689Y56299D02*
D03*
Y70079D02*
D03*
D12*
X138189Y130689D02*
D03*
Y115689D02*
D03*
X100689D02*
D03*
Y130689D02*
D03*
Y689D02*
D03*
Y15689D02*
D03*
X138189D02*
D03*
Y689D02*
D03*
X125689Y115689D02*
D03*
Y130689D02*
D03*
X113189D02*
D03*
Y115689D02*
D03*
Y15689D02*
D03*
Y689D02*
D03*
X125689D02*
D03*
Y15689D02*
D03*
D13*
X80079Y130689D02*
D03*
X66299D02*
D03*
X56299Y90689D02*
D03*
X70079D02*
D03*
X55689Y28189D02*
D03*
D14*
X75689Y110689D02*
D03*
D15*
X48689Y119689D02*
D03*
Y101689D02*
D03*
D16*
X58189Y83189D02*
X75689D01*
X48689Y92689D02*
Y101689D01*
Y92689D02*
X50689Y90689D01*
X56299D01*
X58189Y83189D02*
Y88799D01*
X53189Y78189D02*
X58189Y83189D01*
X48689Y136189D02*
X50689Y138189D01*
X48689Y119689D02*
Y136189D01*
X50689Y138189D02*
X93189D01*
X128189D01*
X53189Y40689D02*
Y73189D01*
Y78189D01*
D17*
X100689Y90689D02*
X108189D01*
X110689Y93189D01*
Y103189D01*
X113189Y105689D01*
X120689Y95689D02*
X150689D01*
X113189Y105689D02*
X150689D01*
X110689Y28189D02*
Y38189D01*
Y28189D02*
X113031Y25846D01*
X108189Y40689D02*
X110689Y38189D01*
X100689Y40689D02*
X108189D01*
X120689Y35689D02*
X150689D01*
X113031Y25846D02*
X150689D01*
D18*
X125689Y115689D02*
X138189D01*
X158189Y95689D02*
X160689Y98189D01*
X150689Y95689D02*
X158189D01*
X158346Y35531D02*
X160689Y33189D01*
X150689Y35531D02*
X158346D01*
X138189Y115689D02*
X158189D01*
X160689Y98189D02*
Y113189D01*
X158189Y115689D02*
X160689Y113189D01*
X113189Y105689D02*
Y115689D01*
X100689D02*
X113189D01*
X160689Y18189D02*
Y33189D01*
X125689Y15689D02*
X158189D01*
X160689Y18189D01*
X100689Y15689D02*
X113189D01*
X113031Y15846D02*
Y25846D01*
X113189Y689D02*
X125689D01*
X113189Y130689D02*
X125689D01*
Y135689D01*
X128189Y138189D01*
X125689Y-4311D02*
Y689D01*
Y-4311D02*
X128189Y-6811D01*
X130689D01*
D19*
X113031Y15846D02*
X113189Y15689D01*
X56299Y90689D02*
X58189Y88799D01*
X60689Y8189D02*
X63189Y5689D01*
Y1516D02*
Y5689D01*
X51949Y9429D02*
Y15689D01*
Y9429D02*
X53189Y8189D01*
X60689D01*
X84449Y-3051D02*
Y1516D01*
X83189Y-4311D02*
X84449Y-3051D01*
X53189Y-4311D02*
X83189D01*
X51949Y-3071D02*
X53189Y-4311D01*
X51949Y-3071D02*
Y1516D01*
X50276Y3189D02*
X51949Y1516D01*
X45689Y3189D02*
X50276D01*
X43189Y5689D02*
X45689Y3189D01*
X43189Y5689D02*
Y35689D01*
X45689Y38189D01*
X50689D01*
X53189Y40689D01*
X29689Y119689D02*
X48689D01*
X24862Y1516D02*
X30689D01*
X23189Y3189D02*
X24862Y1516D01*
X23189Y3189D02*
Y65689D01*
X25689Y68189D01*
X33189Y33189D02*
X40689D01*
X43189Y35689D01*
X128189Y138189D02*
X130689D01*
X60689Y48189D02*
Y65689D01*
X70689Y33189D02*
Y43189D01*
Y33189D02*
X75689Y28189D01*
X85689Y30689D02*
X100689D01*
X88189Y38189D02*
X90689D01*
X93189Y40689D01*
Y53189D01*
X83189Y33189D02*
X85689Y30689D01*
X75689Y45689D02*
X80689D01*
X83189Y43189D01*
Y33189D02*
Y43189D01*
X93189Y53189D02*
X95689Y55689D01*
X60689Y73189D02*
X63189D01*
X65689Y70689D01*
X60689Y48189D02*
X63189Y45689D01*
X68189D01*
X70689Y43189D01*
X65689Y53189D02*
Y70689D01*
Y53189D02*
X68189Y50689D01*
X70689D01*
X75689Y45689D01*
Y83189D02*
X90689D01*
X93189Y80689D01*
X27189Y101579D02*
X28189Y100579D01*
X27189Y101579D02*
Y117189D01*
X29689Y119689D01*
X80689Y63189D02*
X83189Y65689D01*
X103189Y75689D02*
X108189Y80689D01*
X113189D01*
X118189Y85689D01*
X120689D01*
X83189Y65689D02*
Y73189D01*
X85689Y75689D01*
X103189D01*
X80079Y130689D02*
X85689D01*
X93189Y138189D01*
X37189Y84579D02*
Y86799D01*
X35689Y83079D02*
X37189Y84579D01*
X28189Y83079D02*
X35689D01*
X27189Y84079D02*
X28189Y83079D01*
X27189Y84079D02*
Y86799D01*
X35689Y50689D02*
Y56299D01*
Y50689D02*
X38189Y48189D01*
X43189D01*
X45689Y50689D01*
Y56299D01*
Y70079D02*
X50079D01*
X53189Y73189D01*
X73189Y58189D02*
Y73189D01*
Y58189D02*
X75689Y55689D01*
X88189D01*
X90689Y58189D01*
Y63189D01*
X93189Y65689D01*
X108189D01*
X115689Y75689D02*
X120689D01*
X113189Y73189D02*
X115689Y75689D01*
X95689Y55689D02*
X110689D01*
X113189Y58189D01*
Y73189D01*
D20*
X15689Y90847D02*
D03*
Y100689D02*
D03*
X150689Y105532D02*
D03*
Y95689D02*
D03*
Y35531D02*
D03*
Y25689D02*
D03*
Y70531D02*
D03*
Y60689D02*
D03*
D21*
X15689Y75689D02*
D03*
X5689D02*
D03*
X-4311D02*
D03*
Y45689D02*
D03*
X5689D02*
D03*
X15689D02*
D03*
X100689Y30689D02*
D03*
X120689Y95689D02*
D03*
Y85689D02*
D03*
Y75689D02*
D03*
Y65689D02*
D03*
Y55689D02*
D03*
Y45689D02*
D03*
Y35689D02*
D03*
X100689Y90689D02*
D03*
Y80689D02*
D03*
Y70689D02*
D03*
Y60689D02*
D03*
Y50689D02*
D03*
Y40689D02*
D03*
Y100689D02*
D03*
D22*
X75689Y38189D02*
D03*
Y28189D02*
D03*
X65689Y38189D02*
D03*
Y28189D02*
D03*
X55689Y38189D02*
D03*
D23*
X0Y0D02*
D03*
X165354D02*
D03*
Y129921D02*
D03*
X0D02*
D03*
D24*
X29689Y133075D02*
D03*
Y119689D02*
D03*
D25*
X55689Y130847D02*
D03*
X25689Y75846D02*
D03*
X163189Y83189D02*
D03*
Y48189D02*
D03*
X93189Y-6811D02*
D03*
X149606Y-7874D02*
D03*
X18189Y-6811D02*
D03*
X13189Y18189D02*
D03*
X-6811D02*
D03*
X75689Y83189D02*
D03*
X60689Y65689D02*
D03*
X25689Y68189D02*
D03*
X33189Y33189D02*
D03*
X130689Y138189D02*
D03*
Y-6811D02*
D03*
X60689Y73189D02*
D03*
X88189Y38189D02*
D03*
X93189Y80689D02*
D03*
X80689Y63189D02*
D03*
X73189Y73189D02*
D03*
X108189Y65689D02*
D03*
X149606Y137795D02*
D03*
Y125984D02*
D03*
Y3937D02*
D03*
X130000Y65000D02*
D03*
Y75000D02*
D03*
Y55000D02*
D03*
M02*
