M48
;Layer_Color=9474304
;FILE_FORMAT=2:5
INCH,TZ
;TYPE=PLATED
T1F00S00C0.02800
T2F00S00C0.03000
T3F00S00C0.03150
T4F00S00C0.03543
T5F00S00C0.04000
;TYPE=NON_PLATED
T6F00S00C0.12598
%
T01
X18189Y-6811
X13189Y18189
X-6811
X33189Y33189
X88189Y38189
X93189Y-6811
X130689
X149606Y-7874
Y3937
X163189Y48189
Y83189
X130000Y75000
Y65000
Y55000
X108189Y65689
X93189Y80689
X75689Y83189
X73189Y73189
X60689
Y65689
X80689Y63189
X55689Y130847
X130689Y138189
X149606Y137795
Y125984
X25689Y75846
Y68189
T02
X-4311Y45689
X5689
X15689
Y75689
X5689
X-4311
T03
X150689Y25689
Y35531
Y60689
Y70531
Y95689
Y105532
X15689Y100689
Y90847
T04
X55689Y28189
X65689
X75689
Y38189
X65689
X55689
X100689Y40689
Y30689
X120689Y35689
Y45689
Y55689
Y65689
Y75689
Y85689
Y95689
X100689Y90689
Y80689
Y70689
Y60689
Y50689
Y100689
T05
X29689Y119689
Y133075
T06
X0Y0
X165354
Y129921
X0
M30
