G04 Layer_Color=32896*
%FSLAX25Y25*%
%MOIN*%
G70*
G01*
G75*
%ADD29C,0.01000*%
%ADD30C,0.00787*%
%ADD46C,0.00984*%
%ADD47C,0.02362*%
%ADD48C,0.00500*%
D29*
X96689Y24689D02*
X130689D01*
X96689Y6689D02*
Y24689D01*
Y6689D02*
X130689D01*
Y24689D01*
Y106689D02*
Y124689D01*
X96689Y106689D02*
X130689D01*
X96689D02*
Y124689D01*
X130689D01*
X134189Y107189D02*
X140187D01*
Y110188D01*
X139187Y111188D01*
X137188D01*
X136188Y110188D01*
Y107189D01*
Y109188D02*
X134189Y111188D01*
Y117186D02*
Y113187D01*
X138188Y117186D01*
X139187D01*
X140187Y116186D01*
Y114187D01*
X139187Y113187D01*
X130189Y28189D02*
Y34187D01*
X127190D01*
X126190Y33187D01*
Y31188D01*
X127190Y30188D01*
X130189D01*
X128190D02*
X126190Y28189D01*
X124191D02*
X122192D01*
X123191D01*
Y34187D01*
X124191Y33187D01*
X70489Y96487D02*
Y91489D01*
X69489Y90489D01*
X67490D01*
X66490Y91489D01*
Y96487D01*
X64491Y90489D02*
X62492D01*
X63491D01*
Y96487D01*
X64491Y95487D01*
X96489Y83687D02*
Y78689D01*
X95489Y77689D01*
X93490D01*
X92490Y78689D01*
Y83687D01*
X90491Y82687D02*
X89491Y83687D01*
X87492D01*
X86492Y82687D01*
Y81688D01*
X87492Y80688D01*
X88492D01*
X87492D01*
X86492Y79688D01*
Y78689D01*
X87492Y77689D01*
X89491D01*
X90491Y78689D01*
D30*
X6772Y37716D02*
X14252D01*
X6772Y28661D02*
X14252D01*
X6772D02*
Y37716D01*
X30787Y30236D02*
Y36142D01*
X22126Y37716D02*
X28819D01*
Y28661D02*
X30787Y30236D01*
X28819Y37716D02*
X30787Y36142D01*
X22126Y28661D02*
X28819D01*
X63760Y51063D02*
Y85315D01*
X51161Y51063D02*
Y85315D01*
X63760D01*
X51161Y51063D02*
X63760D01*
X10216Y94784D02*
Y102264D01*
X1161Y94784D02*
Y102264D01*
X10216D01*
X2736Y78248D02*
X8642D01*
X10216Y80216D02*
Y86910D01*
X1161Y80216D02*
X2736Y78248D01*
X8642D02*
X10216Y80216D01*
X1161Y80216D02*
Y86910D01*
X75846Y54390D02*
X95531D01*
X75846Y66988D02*
X95531D01*
Y54390D02*
Y66988D01*
X75846Y54390D02*
Y66988D01*
D46*
X68681Y86535D02*
X67943Y86962D01*
Y86109D01*
X68681Y86535D01*
X97028Y49961D02*
X96289Y50387D01*
Y49534D01*
X97028Y49961D01*
D47*
X61004Y81378D02*
X60559Y82301D01*
X59560Y82529D01*
X58759Y81890D01*
Y80866D01*
X59560Y80226D01*
X60559Y80454D01*
X61004Y81378D01*
X92776Y58327D02*
X92331Y59250D01*
X91332Y59478D01*
X90530Y58839D01*
Y57814D01*
X91332Y57175D01*
X92331Y57403D01*
X92776Y58327D01*
D48*
X92501Y8798D02*
X93001Y9297D01*
X94000D01*
X94500Y8798D01*
Y6798D01*
X94000Y6299D01*
X93001D01*
X92501Y6798D01*
X91001Y8298D02*
X90001D01*
X89502Y7798D01*
Y6299D01*
X91001D01*
X91501Y6798D01*
X91001Y7298D01*
X89502D01*
X88502Y8298D02*
Y6299D01*
Y7298D01*
X88002Y7798D01*
X87502Y8298D01*
X87002D01*
X85003Y8798D02*
Y8298D01*
X85503D01*
X84503D01*
X85003D01*
Y6798D01*
X84503Y6299D01*
X81504D02*
X82504D01*
X83004Y6798D01*
Y7798D01*
X82504Y8298D01*
X81504D01*
X81004Y7798D01*
Y7298D01*
X83004D01*
X77006Y9297D02*
Y6299D01*
X75506D01*
X75006Y6798D01*
Y8798D01*
X75506Y9297D01*
X77006D01*
X74007Y8298D02*
Y6299D01*
Y7298D01*
X73507Y7798D01*
X73007Y8298D01*
X72507D01*
X71008Y6299D02*
X70008D01*
X70508D01*
Y8298D01*
X71008D01*
X68508D02*
X67509Y6299D01*
X66509Y8298D01*
X64010Y6299D02*
X65009D01*
X65509Y6798D01*
Y7798D01*
X65009Y8298D01*
X64010D01*
X63510Y7798D01*
Y7298D01*
X65509D01*
X62510Y8298D02*
Y6299D01*
Y7298D01*
X62011Y7798D01*
X61511Y8298D01*
X61011D01*
X56512Y6299D02*
Y9297D01*
X55513Y8298D01*
X54513Y9297D01*
Y6299D01*
X53013D02*
X52014D01*
X51514Y6798D01*
Y7798D01*
X52014Y8298D01*
X53013D01*
X53513Y7798D01*
Y6798D01*
X53013Y6299D01*
X50014Y8798D02*
Y8298D01*
X50514D01*
X49515D01*
X50014D01*
Y6798D01*
X49515Y6299D01*
X46516D02*
X47515D01*
X48015Y6798D01*
Y7798D01*
X47515Y8298D01*
X46516D01*
X46016Y7798D01*
Y7298D01*
X48015D01*
X45016Y8298D02*
Y6798D01*
X44516Y6299D01*
X43017D01*
Y8298D01*
X42017D02*
Y6299D01*
Y7298D01*
X41517Y7798D01*
X41017Y8298D01*
X40518D01*
X36019Y7798D02*
X34020D01*
X28021Y6299D02*
X30021D01*
X28021Y8298D01*
Y8798D01*
X28521Y9297D01*
X29521D01*
X30021Y8798D01*
X27022D02*
X26522Y9297D01*
X25522D01*
X25023Y8798D01*
Y6798D01*
X25522Y6299D01*
X26522D01*
X27022Y6798D01*
Y8798D01*
X24023Y6299D02*
X23023D01*
X23523D01*
Y9297D01*
X24023Y8798D01*
X21524Y6798D02*
X21024Y6299D01*
X20024D01*
X19524Y6798D01*
Y8798D01*
X20024Y9297D01*
X21024D01*
X21524Y8798D01*
Y8298D01*
X21024Y7798D01*
X19524D01*
X15526Y9297D02*
Y7298D01*
X14526Y6299D01*
X13526Y7298D01*
Y9297D01*
X12527Y6299D02*
X11527D01*
X12027D01*
Y9297D01*
X12527Y8798D01*
X92501Y3999D02*
X93001Y4499D01*
X94000D01*
X94500Y3999D01*
Y3499D01*
X94000Y2999D01*
X93001D01*
X92501Y2499D01*
Y2000D01*
X93001Y1500D01*
X94000D01*
X94500Y2000D01*
X91501Y3499D02*
Y2000D01*
X91001Y1500D01*
X89502D01*
Y3499D01*
X88502Y500D02*
Y3499D01*
X87002D01*
X86503Y2999D01*
Y2000D01*
X87002Y1500D01*
X88502D01*
X85003Y3499D02*
X84003D01*
X83504Y2999D01*
Y1500D01*
X85003D01*
X85503Y2000D01*
X85003Y2499D01*
X83504D01*
X81004Y1500D02*
X82004D01*
X82504Y2000D01*
Y2999D01*
X82004Y3499D01*
X81004D01*
X80505Y2999D01*
Y2499D01*
X82504D01*
X79505Y3499D02*
Y1500D01*
Y2499D01*
X79005Y2999D01*
X78505Y3499D01*
X78005D01*
X76006Y1500D02*
X75006D01*
X74506Y2000D01*
Y2999D01*
X75006Y3499D01*
X76006D01*
X76506Y2999D01*
Y2000D01*
X76006Y1500D01*
X70508D02*
Y4499D01*
X69008D01*
X68508Y3999D01*
Y2999D01*
X69008Y2499D01*
X70508D01*
X69508D02*
X68508Y1500D01*
X67009D02*
X66009D01*
X65509Y2000D01*
Y2999D01*
X66009Y3499D01*
X67009D01*
X67509Y2999D01*
Y2000D01*
X67009Y1500D01*
X64510Y4499D02*
Y1500D01*
X63010D01*
X62510Y2000D01*
Y2499D01*
Y2999D01*
X63010Y3499D01*
X64510D01*
X61011Y1500D02*
X60011D01*
X59511Y2000D01*
Y2999D01*
X60011Y3499D01*
X61011D01*
X61511Y2999D01*
Y2000D01*
X61011Y1500D01*
X58012Y3999D02*
Y3499D01*
X58512D01*
X57512D01*
X58012D01*
Y2000D01*
X57512Y1500D01*
X56012D02*
X55013D01*
X55513D01*
Y3499D01*
X56012D01*
X53513Y1500D02*
Y4499D01*
Y2499D02*
X52014Y3499D01*
X53513Y2499D02*
X52014Y1500D01*
X45516Y3999D02*
X46016Y4499D01*
X47015D01*
X47515Y3999D01*
Y2000D01*
X47015Y1500D01*
X46016D01*
X45516Y2000D01*
X44516Y1500D02*
X43516D01*
X44016D01*
Y4499D01*
X44516D01*
X42017Y3499D02*
Y2000D01*
X41517Y1500D01*
X40018D01*
Y3499D01*
X39018Y4499D02*
Y1500D01*
X37518D01*
X37019Y2000D01*
Y2499D01*
Y2999D01*
X37518Y3499D01*
X39018D01*
M02*
