G04 Layer_Color=65535*
%FSLAX25Y25*%
%MOIN*%
G70*
G01*
G75*
%ADD29C,0.01000*%
%ADD30C,0.00787*%
D29*
X17658Y65689D02*
X17394Y66673D01*
X16673Y67394D01*
X15689Y67658D01*
X14705Y67394D01*
X13984Y66673D01*
X13721Y65689D01*
X13984Y64705D01*
X14705Y63984D01*
X15689Y63721D01*
X16673Y63984D01*
X17394Y64705D01*
X17658Y65689D01*
X10472Y0D02*
X10425Y996D01*
X10283Y1982D01*
X10048Y2950D01*
X9722Y3892D01*
X9308Y4799D01*
X8810Y5662D01*
X8232Y6474D01*
X7579Y7227D01*
X6858Y7914D01*
X6075Y8531D01*
X5236Y9069D01*
X4350Y9526D01*
X3425Y9896D01*
X2469Y10177D01*
X1490Y10366D01*
X498Y10461D01*
X-498D01*
X-1490Y10366D01*
X-2469Y10177D01*
X-3425Y9896D01*
X-4350Y9526D01*
X-5236Y9069D01*
X-6075Y8531D01*
X-6858Y7914D01*
X-7579Y7227D01*
X-8232Y6474D01*
X-8810Y5662D01*
X-9308Y4799D01*
X-9722Y3892D01*
X-10048Y2950D01*
X-10283Y1982D01*
X-10425Y996D01*
X-10472Y0D01*
X-10425Y-996D01*
X-10283Y-1982D01*
X-10048Y-2950D01*
X-9722Y-3892D01*
X-9308Y-4799D01*
X-8810Y-5662D01*
X-8232Y-6474D01*
X-7579Y-7227D01*
X-6858Y-7914D01*
X-6075Y-8531D01*
X-5236Y-9069D01*
X-4350Y-9526D01*
X-3425Y-9896D01*
X-2469Y-10177D01*
X-1490Y-10366D01*
X-498Y-10461D01*
X498D01*
X1490Y-10366D01*
X2469Y-10177D01*
X3425Y-9896D01*
X4350Y-9526D01*
X5236Y-9069D01*
X6075Y-8531D01*
X6858Y-7914D01*
X7579Y-7227D01*
X8232Y-6474D01*
X8810Y-5662D01*
X9308Y-4799D01*
X9722Y-3892D01*
X10048Y-2950D01*
X10283Y-1982D01*
X10425Y-995D01*
X10472Y0D01*
X175827D02*
X175779Y996D01*
X175637Y1982D01*
X175403Y2950D01*
X175077Y3892D01*
X174663Y4799D01*
X174164Y5662D01*
X173586Y6474D01*
X172934Y7227D01*
X172212Y7914D01*
X171429Y8531D01*
X170591Y9069D01*
X169705Y9526D01*
X168780Y9896D01*
X167823Y10177D01*
X166845Y10366D01*
X165853Y10461D01*
X164856D01*
X163864Y10366D01*
X162885Y10177D01*
X161929Y9896D01*
X161004Y9526D01*
X160118Y9069D01*
X159280Y8531D01*
X158496Y7914D01*
X157775Y7227D01*
X157122Y6474D01*
X156544Y5662D01*
X156046Y4799D01*
X155632Y3892D01*
X155306Y2950D01*
X155071Y1982D01*
X154929Y996D01*
X154882Y0D01*
X154929Y-996D01*
X155071Y-1982D01*
X155306Y-2950D01*
X155632Y-3892D01*
X156046Y-4799D01*
X156544Y-5662D01*
X157122Y-6474D01*
X157775Y-7227D01*
X158496Y-7914D01*
X159280Y-8531D01*
X160118Y-9069D01*
X161004Y-9526D01*
X161929Y-9896D01*
X162885Y-10177D01*
X163864Y-10366D01*
X164856Y-10461D01*
X165853D01*
X166845Y-10366D01*
X167823Y-10177D01*
X168780Y-9896D01*
X169705Y-9526D01*
X170591Y-9069D01*
X171429Y-8531D01*
X172212Y-7914D01*
X172934Y-7227D01*
X173586Y-6474D01*
X174164Y-5662D01*
X174663Y-4799D01*
X175077Y-3892D01*
X175403Y-2950D01*
X175637Y-1982D01*
X175779Y-995D01*
X175827Y0D01*
Y129921D02*
X175779Y130917D01*
X175637Y131903D01*
X175403Y132872D01*
X175077Y133814D01*
X174663Y134720D01*
X174164Y135583D01*
X173586Y136395D01*
X172934Y137148D01*
X172212Y137836D01*
X171429Y138452D01*
X170591Y138991D01*
X169705Y139447D01*
X168780Y139818D01*
X167823Y140099D01*
X166845Y140287D01*
X165853Y140382D01*
X164856D01*
X163864Y140287D01*
X162885Y140099D01*
X161929Y139818D01*
X161004Y139447D01*
X160118Y138991D01*
X159280Y138452D01*
X158496Y137836D01*
X157775Y137148D01*
X157122Y136395D01*
X156544Y135583D01*
X156046Y134720D01*
X155632Y133814D01*
X155306Y132872D01*
X155071Y131903D01*
X154929Y130917D01*
X154882Y129921D01*
X154929Y128926D01*
X155071Y127939D01*
X155306Y126971D01*
X155632Y126029D01*
X156046Y125122D01*
X156544Y124259D01*
X157122Y123448D01*
X157775Y122695D01*
X158496Y122007D01*
X159280Y121391D01*
X160118Y120852D01*
X161004Y120395D01*
X161929Y120025D01*
X162885Y119744D01*
X163864Y119555D01*
X164856Y119461D01*
X165853D01*
X166845Y119555D01*
X167823Y119744D01*
X168780Y120025D01*
X169705Y120395D01*
X170591Y120852D01*
X171429Y121391D01*
X172212Y122007D01*
X172934Y122695D01*
X173586Y123448D01*
X174164Y124259D01*
X174663Y125122D01*
X175077Y126029D01*
X175403Y126971D01*
X175637Y127939D01*
X175779Y128926D01*
X175827Y129921D01*
X10472D02*
X10425Y130917D01*
X10283Y131903D01*
X10048Y132872D01*
X9722Y133814D01*
X9308Y134720D01*
X8810Y135583D01*
X8232Y136395D01*
X7579Y137148D01*
X6858Y137836D01*
X6075Y138452D01*
X5236Y138991D01*
X4350Y139447D01*
X3425Y139818D01*
X2469Y140099D01*
X1490Y140287D01*
X498Y140382D01*
X-498D01*
X-1490Y140287D01*
X-2469Y140099D01*
X-3425Y139818D01*
X-4350Y139447D01*
X-5236Y138991D01*
X-6075Y138452D01*
X-6858Y137836D01*
X-7579Y137148D01*
X-8232Y136395D01*
X-8810Y135583D01*
X-9308Y134720D01*
X-9722Y133814D01*
X-10048Y132872D01*
X-10283Y131903D01*
X-10425Y130917D01*
X-10472Y129921D01*
X-10425Y128926D01*
X-10283Y127939D01*
X-10048Y126971D01*
X-9722Y126029D01*
X-9308Y125122D01*
X-8810Y124259D01*
X-8232Y123448D01*
X-7579Y122695D01*
X-6858Y122007D01*
X-6075Y121391D01*
X-5236Y120852D01*
X-4350Y120395D01*
X-3425Y120025D01*
X-2469Y119744D01*
X-1490Y119555D01*
X-498Y119461D01*
X498D01*
X1490Y119555D01*
X2469Y119744D01*
X3425Y120025D01*
X4350Y120395D01*
X5236Y120852D01*
X6075Y121391D01*
X6858Y122007D01*
X7579Y122695D01*
X8232Y123448D01*
X8810Y124259D01*
X9308Y125122D01*
X9722Y126029D01*
X10048Y126971D01*
X10283Y127939D01*
X10425Y128926D01*
X10472Y129921D01*
X45831Y126382D02*
X45799Y127385D01*
X45706Y128385D01*
X45550Y129377D01*
X45333Y130357D01*
X45056Y131322D01*
X44719Y132268D01*
X44324Y133191D01*
X43873Y134088D01*
X43366Y134955D01*
X42807Y135788D01*
X42197Y136586D01*
X41538Y137344D01*
X40834Y138059D01*
X40086Y138729D01*
X39298Y139352D01*
X38473Y139924D01*
X37615Y140444D01*
X36725Y140910D01*
X35808Y141319D01*
X34868Y141670D01*
X33907Y141963D01*
X32930Y142195D01*
X31941Y142366D01*
X30943Y142475D01*
X29940Y142522D01*
X28936Y142506D01*
X27935Y142428D01*
X26941Y142288D01*
X25957Y142086D01*
X24988Y141824D01*
X24037Y141502D01*
X23108Y141121D01*
X22205Y140684D01*
X21330Y140191D01*
X20488Y139644D01*
X19681Y139047D01*
X18913Y138400D01*
X18187Y137707D01*
X17505Y136970D01*
X16870Y136192D01*
X16285Y135376D01*
X15752Y134525D01*
X15273Y133643D01*
X14849Y132733D01*
X14483Y131798D01*
X14176Y130842D01*
X13928Y129869D01*
X13742Y128882D01*
X13618Y127886D01*
X13555Y126884D01*
Y125880D01*
X13618Y124878D01*
X13742Y123881D01*
X13928Y122895D01*
X14176Y121922D01*
X14483Y120966D01*
X14849Y120031D01*
X15273Y119121D01*
X15752Y118239D01*
X16285Y117388D01*
X16870Y116572D01*
X17505Y115794D01*
X18187Y115057D01*
X18913Y114364D01*
X19681Y113717D01*
X20488Y113119D01*
X21330Y112573D01*
X22205Y112080D01*
X23108Y111643D01*
X24037Y111262D01*
X24988Y110940D01*
X25957Y110677D01*
X26941Y110476D01*
X27935Y110336D01*
X28936Y110258D01*
X29940Y110242D01*
X30943Y110289D01*
X31941Y110398D01*
X32930Y110569D01*
X33907Y110801D01*
X34868Y111093D01*
X35808Y111445D01*
X36725Y111854D01*
X37615Y112320D01*
X38473Y112840D01*
X39298Y113412D01*
X40086Y114035D01*
X40834Y114705D01*
X41538Y115420D01*
X42197Y116178D01*
X42807Y116975D01*
X43366Y117809D01*
X43873Y118676D01*
X44324Y119573D01*
X44719Y120496D01*
X45056Y121442D01*
X45334Y122407D01*
X45550Y123387D01*
X45706Y124379D01*
X45799Y125378D01*
X45831Y126382D01*
X63976Y-1240D02*
Y16476D01*
X65945Y18445D01*
X83661D01*
Y-1240D02*
Y18445D01*
X63976Y-1240D02*
X83661D01*
X31476D02*
Y16476D01*
X33445Y18445D01*
X51161D01*
Y-1240D02*
Y18445D01*
X31476Y-1240D02*
X51161D01*
X-10295Y110531D02*
X20610D01*
X-10295Y81004D02*
Y110531D01*
Y81004D02*
X20610D01*
Y110531D01*
X145768Y85847D02*
X176673D01*
Y115374D01*
X145768D02*
X176673D01*
X145768Y85847D02*
Y115374D01*
Y15846D02*
X176673D01*
Y45374D01*
X145768D02*
X176673D01*
X145768Y15846D02*
Y45374D01*
X20689Y50689D02*
Y70689D01*
X-9311Y50689D02*
X20689D01*
X-9311D02*
Y70689D01*
X20689D01*
X143189Y115689D02*
Y130689D01*
X133189Y115689D02*
Y130689D01*
X142189D02*
X143189D01*
X133189D02*
X134189D01*
X133189Y128889D02*
X134189D01*
X142189Y128789D02*
X143189D01*
X133189Y115689D02*
X134189D01*
X142189D02*
X143189D01*
X104689D02*
X105689D01*
X95689D02*
X96689D01*
X104689Y128789D02*
X105689D01*
X95689Y128889D02*
X96689D01*
X95689Y130689D02*
X96689D01*
X104689D02*
X105689D01*
X95689Y115689D02*
Y130689D01*
X105689Y115689D02*
Y130689D01*
X95689Y689D02*
Y15689D01*
X105689Y689D02*
Y15689D01*
X95689Y689D02*
X96689D01*
X104689D02*
X105689D01*
X104689Y2489D02*
X105689D01*
X95689Y2589D02*
X96689D01*
X104689Y15689D02*
X105689D01*
X95689D02*
X96689D01*
X133189D02*
X134189D01*
X142189D02*
X143189D01*
X133189Y2589D02*
X134189D01*
X142189Y2489D02*
X143189D01*
X142189Y689D02*
X143189D01*
X133189D02*
X134189D01*
X143189D02*
Y15689D01*
X133189Y689D02*
Y15689D01*
X120689Y115689D02*
Y130689D01*
X130689Y115689D02*
Y130689D01*
X120689Y115689D02*
X121689D01*
X129689D02*
X130689D01*
X129689Y117489D02*
X130689D01*
X120689Y117589D02*
X121689D01*
X129689Y130689D02*
X130689D01*
X120689D02*
X121689D01*
X108189D02*
X109189D01*
X117189D02*
X118189D01*
X108189Y117589D02*
X109189D01*
X117189Y117489D02*
X118189D01*
X117189Y115689D02*
X118189D01*
X108189D02*
X109189D01*
X118189D02*
Y130689D01*
X108189Y115689D02*
Y130689D01*
X118189Y689D02*
Y15689D01*
X108189Y689D02*
Y15689D01*
X117189D02*
X118189D01*
X108189D02*
X109189D01*
X108189Y13889D02*
X109189D01*
X117189Y13789D02*
X118189D01*
X108189Y689D02*
X109189D01*
X117189D02*
X118189D01*
X129689D02*
X130689D01*
X120689D02*
X121689D01*
X129689Y13789D02*
X130689D01*
X120689Y13889D02*
X121689D01*
X120689Y15689D02*
X121689D01*
X129689D02*
X130689D01*
X120689Y689D02*
Y15689D01*
X130689Y689D02*
Y15689D01*
X56689Y96689D02*
X60689D01*
X56689D02*
Y124689D01*
X60689D01*
X145768Y50846D02*
X176673D01*
Y80374D01*
X145768D02*
X176673D01*
X145768Y50846D02*
Y80374D01*
X116489Y27189D02*
X138289D01*
Y104089D01*
X116289D02*
X138289D01*
X116437Y27189D02*
Y104089D01*
X167191Y60689D02*
Y62688D01*
Y61689D01*
X173189D01*
Y60689D01*
Y62688D01*
Y65687D02*
X167191D01*
X173189Y69686D01*
X167191D01*
X60689Y51687D02*
X62688D01*
X61689D01*
Y45689D01*
X60689D01*
X62688D01*
X69686Y50687D02*
X68686Y51687D01*
X66687D01*
X65687Y50687D01*
Y49688D01*
X66687Y48688D01*
X68686D01*
X69686Y47688D01*
Y46689D01*
X68686Y45689D01*
X66687D01*
X65687Y46689D01*
X71685Y45689D02*
Y51687D01*
X74685D01*
X75684Y50687D01*
Y48688D01*
X74685Y47688D01*
X71685D01*
X173189Y25689D02*
X167191D01*
X169190Y27688D01*
X167191Y29688D01*
X173189D01*
Y31687D02*
Y33686D01*
Y32687D01*
X167191D01*
X168191Y31687D01*
X173189Y95689D02*
X167191D01*
X169190Y97688D01*
X167191Y99688D01*
X173189D01*
Y105686D02*
Y101687D01*
X169190Y105686D01*
X168191D01*
X167191Y104686D01*
Y102687D01*
X168191Y101687D01*
X-813Y65190D02*
Y67189D01*
X-1813Y68189D01*
X-5811D01*
X-6811Y67189D01*
Y65190D01*
X-5811Y64190D01*
X-1813D01*
X-813Y65190D01*
Y62191D02*
X-6811D01*
X-4812D01*
X-813Y58192D01*
X-3812Y61191D01*
X-6811Y58192D01*
Y56193D02*
Y54194D01*
Y55193D01*
X-813D01*
X-1813Y56193D01*
X-6811Y100689D02*
X-813D01*
Y97690D01*
X-1813Y96690D01*
X-3812D01*
X-4812Y97690D01*
Y100689D01*
Y98690D02*
X-6811Y96690D01*
X-813Y94691D02*
X-6811Y90692D01*
X-813D02*
X-6811Y94691D01*
X136687Y100689D02*
X131689D01*
X130689Y99689D01*
Y97690D01*
X131689Y96690D01*
X136687D01*
X130689Y90692D02*
Y94691D01*
X134688Y90692D01*
X135687D01*
X136687Y91692D01*
Y93691D01*
X135687Y94691D01*
D30*
X41717Y82272D02*
Y89752D01*
X32661Y82272D02*
Y89752D01*
Y82272D02*
X41717D01*
X34236Y106287D02*
X40142D01*
X41717Y97626D02*
Y104319D01*
X32661D02*
X34236Y106287D01*
X40142D02*
X41717Y104319D01*
X32661Y97626D02*
Y104319D01*
X22661Y97626D02*
Y105106D01*
X31716Y97626D02*
Y105106D01*
X22661D02*
X31716D01*
X24236Y81090D02*
X30142D01*
X22661Y83059D02*
Y89752D01*
X30142Y81090D02*
X31716Y83059D01*
X22661D02*
X24236Y81090D01*
X31716Y83059D02*
Y89752D01*
X61522Y23189D02*
X80689D01*
X50689D02*
X80689D01*
X50689Y43189D02*
X80689D01*
X50689Y23189D02*
Y43189D01*
X80689Y23189D02*
Y43189D01*
X61772Y126161D02*
X69252D01*
X61772Y135216D02*
X69252D01*
X61772Y126161D02*
Y135216D01*
X85787Y127736D02*
Y133642D01*
X77126Y126161D02*
X83819D01*
Y135216D02*
X85787Y133642D01*
X83819Y126161D02*
X85787Y127736D01*
X77126Y135216D02*
X83819D01*
X67126Y95217D02*
X74606D01*
X67126Y86161D02*
X74606D01*
Y95217D01*
X50591Y87736D02*
Y93642D01*
X52559Y95217D02*
X59252D01*
X50591Y87736D02*
X52559Y86161D01*
X50591Y93642D02*
X52559Y95217D01*
X52559Y86161D02*
X59252D01*
X40216Y51772D02*
Y59252D01*
X31161Y51772D02*
Y59252D01*
Y51772D02*
X40216D01*
X32736Y75787D02*
X38642D01*
X40216Y67126D02*
Y73819D01*
X31161D02*
X32736Y75787D01*
X38642D02*
X40216Y73819D01*
X31161Y67126D02*
Y73819D01*
X41161Y67126D02*
Y74606D01*
X50217Y67126D02*
Y74606D01*
X41161D02*
X50217D01*
X42736Y50590D02*
X48642D01*
X41161Y52559D02*
Y59252D01*
X48642Y50590D02*
X50217Y52559D01*
X41161D02*
X42736Y50590D01*
X50217Y52559D02*
Y59252D01*
M02*
