G04 Layer_Color=16711935*
%FSLAX25Y25*%
%MOIN*%
G70*
G01*
G75*
%ADD39C,0.22453*%
%ADD40C,0.21745*%
%ADD41O,0.24422X0.20485*%
%ADD42C,0.14186*%
%ADD43O,0.10642X0.08674*%
%ADD44C,0.08674*%
%ADD45C,0.06800*%
%ADD46O,0.07800X0.12800*%
%ADD47O,0.12800X0.07800*%
%ADD48C,0.10642*%
%ADD49C,0.12611*%
%ADD50C,0.12800*%
%ADD51O,0.12611X0.16548*%
%ADD52R,0.12611X0.16548*%
%ADD53O,0.06800X0.08800*%
%ADD54C,0.08800*%
%ADD55C,0.06706*%
%ADD56C,0.05800*%
D39*
X367500Y262500D02*
D03*
D40*
X381890Y370079D02*
D03*
X11811Y11811D02*
D03*
Y370079D02*
D03*
X381890Y11811D02*
D03*
D41*
X66969Y345000D02*
D03*
X38032D02*
D03*
D42*
X40000Y370000D02*
D03*
X65000D02*
D03*
D43*
X20000Y226024D02*
D03*
Y315000D02*
D03*
Y85000D02*
D03*
Y173976D02*
D03*
X160000Y21024D02*
D03*
Y110000D02*
D03*
D44*
X20000Y270000D02*
D03*
Y130000D02*
D03*
X160000Y65000D02*
D03*
X60000Y255000D02*
D03*
X50000Y225000D02*
D03*
Y280000D02*
D03*
X60000Y310000D02*
D03*
X190000Y70000D02*
D03*
Y120000D02*
D03*
X300000Y85000D02*
D03*
X280000D02*
D03*
D45*
X275000Y190000D02*
D03*
Y200000D02*
D03*
Y210000D02*
D03*
X289000Y305000D02*
D03*
Y295000D02*
D03*
Y285000D02*
D03*
X315000Y327500D02*
D03*
X305157D02*
D03*
X297284D02*
D03*
X287441D02*
D03*
X327087Y338169D02*
D03*
X275354Y338169D02*
D03*
X100000Y325315D02*
D03*
X110000D02*
D03*
X132500Y325000D02*
D03*
X142500D02*
D03*
X160000Y137500D02*
D03*
Y147500D02*
D03*
Y157500D02*
D03*
D46*
X190000Y155000D02*
D03*
X203386D02*
D03*
D47*
X352500Y345000D02*
D03*
Y331614D02*
D03*
X20000Y47500D02*
D03*
Y60886D02*
D03*
D48*
X255000Y370000D02*
D03*
Y290000D02*
D03*
X215000D02*
D03*
X175000D02*
D03*
X225000Y370000D02*
D03*
X205000D02*
D03*
X130000Y15000D02*
D03*
X90000D02*
D03*
X50000D02*
D03*
X120000Y195000D02*
D03*
X80000D02*
D03*
X60000D02*
D03*
X205000Y265000D02*
D03*
X225000D02*
D03*
X175000Y185000D02*
D03*
X215000D02*
D03*
X255000D02*
D03*
Y265000D02*
D03*
D49*
X236535Y31260D02*
D03*
X203465D02*
D03*
X366240Y305000D02*
D03*
X363740Y85000D02*
D03*
Y46811D02*
D03*
Y120000D02*
D03*
D50*
X203465Y81653D02*
D03*
X236535D02*
D03*
Y60000D02*
D03*
X220000D02*
D03*
X203465D02*
D03*
X220000Y81653D02*
D03*
D51*
X337500Y305000D02*
D03*
X335000Y85000D02*
D03*
Y46811D02*
D03*
Y120000D02*
D03*
D52*
X315846Y305000D02*
D03*
X313347Y85000D02*
D03*
Y46811D02*
D03*
Y120000D02*
D03*
D53*
X275000Y30000D02*
D03*
X284842D02*
D03*
D54*
X110000Y225000D02*
D03*
Y255000D02*
D03*
Y310000D02*
D03*
Y280000D02*
D03*
D55*
X272500Y312500D02*
D03*
X255000Y75000D02*
D03*
X255906Y59055D02*
D03*
X260000Y30000D02*
D03*
X362500Y12500D02*
D03*
X135000Y225000D02*
D03*
X85000Y270000D02*
D03*
X82500Y335000D02*
D03*
Y360000D02*
D03*
X20000Y195000D02*
D03*
X35000Y15000D02*
D03*
X20000Y32500D02*
D03*
X142500Y275000D02*
D03*
X177500Y357500D02*
D03*
X240000Y277500D02*
D03*
X20000Y210000D02*
D03*
D56*
X127500Y255000D02*
D03*
X132500Y310000D02*
D03*
X290000Y141500D02*
D03*
X297500Y305000D02*
D03*
X305000Y317500D02*
D03*
M02*
