M48
;Layer_Color=9474304
;FILE_FORMAT=2:5
INCH,TZ
;TYPE=PLATED
T1F00S00C0.02800
T2F00S00C0.03000
T3F00S00C0.03150
T4F00S00C0.03543
T5F00S00C0.03937
T6F00S00C0.04000
T7F00S00C0.04331
T8F00S00C0.05906
T9F00S00C0.05906
T10F00S00C0.07087
T11F00S00C0.09055
T12F00S00C0.11811
T13F00S00C0.12598
T14F00S00C0.13386
T15F00S00C0.13780
;TYPE=NON_PLATED
T16F00S00C0.03000
T17F00S00C0.07087
T18F00S00C0.11811
T19F00S00C0.12598
%
T01
X290000Y141500
X127500Y255000
X132500Y310000
X272500Y312500
X297500Y305000
X305000Y317500
X177500Y357500
T02
X275000Y190000
X160000Y157500
Y147500
Y137500
X275000Y200000
Y210000
X289000Y285000
Y295000
Y305000
X287441Y327500
X297284
X305157
T03
X275000Y30000
X284842
T04
X100000Y325315
X110000
X132500Y325000
X142500
T05
X35000Y15000
X20000Y32500
X260000Y30000
X362500Y12500
X300000Y85000
X280000
X255000Y75000
X255906Y59055
X190000Y70000
Y120000
X20000Y195000
Y210000
X85000Y270000
X142500Y275000
X135000Y225000
X82500Y335000
X240000Y277500
X82500Y360000
T06
X190000Y155000
X203386
X20000Y60886
Y47500
X352500Y331614
Y345000
T07
X50000Y225000
Y280000
X60000Y255000
X110000
Y280000
Y310000
X60000
X110000Y225000
T08
X50000Y15000
X90000
X130000
X215000Y185000
X255000
X175000
X120000Y195000
X80000
X60000
X175000Y290000
X205000Y265000
X225000
X255000
Y290000
X215000
X225000Y370000
X255000
X205000
T09
X160000Y21024
Y110000
X20000Y85000
Y173976
Y226024
Y315000
T10
X220000Y60000
X236535
X220000Y81653
X313347Y85000
X335000
Y46811
X313347
Y120000
X203465Y81653
Y60000
X315846Y305000
X337500
T11
X275354Y338169
X327087Y338169
T12
X160000Y65000
X20000Y130000
Y270000
T13
X40000Y345000
X65000
T14
X65000Y370000
X40000
T15
X367500Y262500
T16
X315000Y327500
T17
X236535Y81653
X335000Y120000
T18
X203465Y31260
X236535
X363740Y46811
Y85000
Y120000
X366240Y305000
T19
X11811Y11811
X381890
Y370079
X11811
M30
