G04 Layer_Color=32896*
%FSLAX25Y25*%
%MOIN*%
G70*
G01*
G75*
%ADD35C,0.01000*%
D35*
X353001Y19595D02*
X354001Y20595D01*
X356000D01*
X357000Y19595D01*
Y15597D01*
X356000Y14597D01*
X354001D01*
X353001Y15597D01*
X350002Y18596D02*
X348003D01*
X347003Y17596D01*
Y14597D01*
X350002D01*
X351002Y15597D01*
X350002Y16596D01*
X347003D01*
X345004Y18596D02*
Y14597D01*
Y16596D01*
X344004Y17596D01*
X343004Y18596D01*
X342005D01*
X338006Y19595D02*
Y18596D01*
X339006D01*
X337006D01*
X338006D01*
Y15597D01*
X337006Y14597D01*
X331008D02*
X333008D01*
X334007Y15597D01*
Y17596D01*
X333008Y18596D01*
X331008D01*
X330009Y17596D01*
Y16596D01*
X334007D01*
X318013Y20595D02*
Y14597D01*
X321012D01*
X322011Y15597D01*
Y17596D01*
X321012Y18596D01*
X318013D01*
X315014Y21595D02*
Y19595D01*
X316013Y18596D01*
X311015D02*
X309015D01*
X308016Y17596D01*
Y14597D01*
X311015D01*
X312015Y15597D01*
X311015Y16596D01*
X308016D01*
X306016Y14597D02*
X304017D01*
X305017D01*
Y20595D01*
X306016D01*
X301018Y14597D02*
X299019D01*
X300018D01*
Y18596D01*
X301018D01*
X296020Y14597D02*
Y18596D01*
X295020D01*
X294020Y17596D01*
Y14597D01*
Y17596D01*
X293021Y18596D01*
X292021Y17596D01*
Y14597D01*
X287023D02*
X289022D01*
X290022Y15597D01*
Y17596D01*
X289022Y18596D01*
X287023D01*
X286023Y17596D01*
Y16596D01*
X290022D01*
X284024Y14597D02*
Y18596D01*
X281025D01*
X280025Y17596D01*
Y14597D01*
X277026Y19595D02*
Y18596D01*
X278026D01*
X276026D01*
X277026D01*
Y15597D01*
X276026Y14597D01*
X272027Y18596D02*
X270028D01*
X269028Y17596D01*
Y14597D01*
X272027D01*
X273027Y15597D01*
X272027Y16596D01*
X269028D01*
X266029Y19595D02*
Y18596D01*
X267029D01*
X265030D01*
X266029D01*
Y15597D01*
X265030Y14597D01*
X262031D02*
X260031D01*
X261031D01*
Y18596D01*
X262031D01*
X256033Y14597D02*
X254033D01*
X253034Y15597D01*
Y17596D01*
X254033Y18596D01*
X256033D01*
X257032Y17596D01*
Y15597D01*
X256033Y14597D01*
X251034D02*
Y18596D01*
X248035D01*
X247036Y17596D01*
Y14597D01*
X239038Y17596D02*
X235039D01*
X223043Y14597D02*
X227042D01*
X223043Y18596D01*
Y19595D01*
X224043Y20595D01*
X226042D01*
X227042Y19595D01*
X221044D02*
X220044Y20595D01*
X218045D01*
X217045Y19595D01*
Y15597D01*
X218045Y14597D01*
X220044D01*
X221044Y15597D01*
Y19595D01*
X215046Y14597D02*
X213047D01*
X214046D01*
Y20595D01*
X215046Y19595D01*
X210048Y15597D02*
X209048Y14597D01*
X207049D01*
X206049Y15597D01*
Y19595D01*
X207049Y20595D01*
X209048D01*
X210048Y19595D01*
Y18596D01*
X209048Y17596D01*
X206049D01*
X198051Y20595D02*
Y16596D01*
X196052Y14597D01*
X194053Y16596D01*
Y20595D01*
X192053Y14597D02*
X190054D01*
X191054D01*
Y20595D01*
X192053Y19595D01*
X353001Y9998D02*
X354001Y10997D01*
X356000D01*
X357000Y9998D01*
Y8998D01*
X356000Y7998D01*
X354001D01*
X353001Y6999D01*
Y5999D01*
X354001Y4999D01*
X356000D01*
X357000Y5999D01*
X351002Y8998D02*
Y5999D01*
X350002Y4999D01*
X347003D01*
Y8998D01*
X345004Y3000D02*
Y8998D01*
X342005D01*
X341005Y7998D01*
Y5999D01*
X342005Y4999D01*
X345004D01*
X338006Y8998D02*
X336007D01*
X335007Y7998D01*
Y4999D01*
X338006D01*
X339006Y5999D01*
X338006Y6999D01*
X335007D01*
X330009Y4999D02*
X332008D01*
X333008Y5999D01*
Y7998D01*
X332008Y8998D01*
X330009D01*
X329009Y7998D01*
Y6999D01*
X333008D01*
X327010Y8998D02*
Y4999D01*
Y6999D01*
X326010Y7998D01*
X325010Y8998D01*
X324011D01*
X320012Y4999D02*
X318013D01*
X317013Y5999D01*
Y7998D01*
X318013Y8998D01*
X320012D01*
X321012Y7998D01*
Y5999D01*
X320012Y4999D01*
X309015D02*
Y10997D01*
X306016D01*
X305017Y9998D01*
Y7998D01*
X306016Y6999D01*
X309015D01*
X307016D02*
X305017Y4999D01*
X302018D02*
X300018D01*
X299019Y5999D01*
Y7998D01*
X300018Y8998D01*
X302018D01*
X303017Y7998D01*
Y5999D01*
X302018Y4999D01*
X297019Y10997D02*
Y4999D01*
X294020D01*
X293021Y5999D01*
Y6999D01*
Y7998D01*
X294020Y8998D01*
X297019D01*
X290022Y4999D02*
X288022D01*
X287023Y5999D01*
Y7998D01*
X288022Y8998D01*
X290022D01*
X291021Y7998D01*
Y5999D01*
X290022Y4999D01*
X284024Y9998D02*
Y8998D01*
X285023D01*
X283024D01*
X284024D01*
Y5999D01*
X283024Y4999D01*
X280025D02*
X278026D01*
X279025D01*
Y8998D01*
X280025D01*
X275026Y4999D02*
Y10997D01*
Y6999D02*
X272027Y8998D01*
X275026Y6999D02*
X272027Y4999D01*
X259032Y9998D02*
X260031Y10997D01*
X262031D01*
X263030Y9998D01*
Y5999D01*
X262031Y4999D01*
X260031D01*
X259032Y5999D01*
X257032Y4999D02*
X255033D01*
X256033D01*
Y10997D01*
X257032D01*
X252034Y8998D02*
Y5999D01*
X251034Y4999D01*
X248035D01*
Y8998D01*
X246036Y10997D02*
Y4999D01*
X243037D01*
X242037Y5999D01*
Y6999D01*
Y7998D01*
X243037Y8998D01*
X246036D01*
M02*
