G04 Layer_Color=32896*
%FSLAX25Y25*%
%MOIN*%
G70*
G01*
G75*
%ADD31C,0.01000*%
%ADD32C,0.00787*%
%ADD33C,0.00984*%
D31*
X232501Y19595D02*
X233501Y20594D01*
X235500D01*
X236500Y19595D01*
Y15596D01*
X235500Y14596D01*
X233501D01*
X232501Y15596D01*
X229502Y18595D02*
X227503D01*
X226503Y17595D01*
Y14596D01*
X229502D01*
X230502Y15596D01*
X229502Y16596D01*
X226503D01*
X224504Y18595D02*
Y14596D01*
Y16596D01*
X223504Y17595D01*
X222504Y18595D01*
X221505D01*
X217506Y19595D02*
Y18595D01*
X218506D01*
X216507D01*
X217506D01*
Y15596D01*
X216507Y14596D01*
X210508D02*
X212508D01*
X213507Y15596D01*
Y17595D01*
X212508Y18595D01*
X210508D01*
X209509Y17595D01*
Y16596D01*
X213507D01*
X201511Y14596D02*
Y20594D01*
X198512D01*
X197513Y19595D01*
Y17595D01*
X198512Y16596D01*
X201511D01*
X195513Y18595D02*
Y14596D01*
Y16596D01*
X194514Y17595D01*
X193514Y18595D01*
X192514D01*
X188515Y14596D02*
X186516D01*
X185517Y15596D01*
Y17595D01*
X186516Y18595D01*
X188515D01*
X189515Y17595D01*
Y15596D01*
X188515Y14596D01*
X183517Y12597D02*
Y18595D01*
X180518D01*
X179518Y17595D01*
Y15596D01*
X180518Y14596D01*
X183517D01*
X177519Y18595D02*
Y15596D01*
X176519Y14596D01*
X173520D01*
Y18595D01*
X171521Y14596D02*
X169522D01*
X170521D01*
Y20594D01*
X171521D01*
X166523Y14596D02*
X163524D01*
X162524Y15596D01*
X163524Y16596D01*
X165523D01*
X166523Y17595D01*
X165523Y18595D01*
X162524D01*
X160525Y14596D02*
X158525D01*
X159525D01*
Y18595D01*
X160525D01*
X154526Y14596D02*
X152527D01*
X151528Y15596D01*
Y17595D01*
X152527Y18595D01*
X154526D01*
X155526Y17595D01*
Y15596D01*
X154526Y14596D01*
X149528D02*
Y18595D01*
X146529D01*
X145529Y17595D01*
Y14596D01*
X133533D02*
X137532D01*
X133533Y18595D01*
Y19595D01*
X134533Y20594D01*
X136532D01*
X137532Y19595D01*
X131534D02*
X130534Y20594D01*
X128535D01*
X127535Y19595D01*
Y15596D01*
X128535Y14596D01*
X130534D01*
X131534Y15596D01*
Y19595D01*
X125536Y14596D02*
X123537D01*
X124536D01*
Y20594D01*
X125536Y19595D01*
X120537Y15596D02*
X119538Y14596D01*
X117538D01*
X116539Y15596D01*
Y19595D01*
X117538Y20594D01*
X119538D01*
X120537Y19595D01*
Y18595D01*
X119538Y17595D01*
X116539D01*
X108541D02*
X104543D01*
X96545Y20594D02*
Y16596D01*
X94546Y14596D01*
X92547Y16596D01*
Y20594D01*
X90547Y14596D02*
X88548D01*
X89547D01*
Y20594D01*
X90547Y19595D01*
X232501Y7998D02*
X233501Y8997D01*
X235500D01*
X236500Y7998D01*
Y6998D01*
X235500Y5998D01*
X233501D01*
X232501Y4999D01*
Y3999D01*
X233501Y2999D01*
X235500D01*
X236500Y3999D01*
X230502Y6998D02*
Y3999D01*
X229502Y2999D01*
X226503D01*
Y6998D01*
X224504Y1000D02*
Y6998D01*
X221505D01*
X220505Y5998D01*
Y3999D01*
X221505Y2999D01*
X224504D01*
X217506Y6998D02*
X215507D01*
X214507Y5998D01*
Y2999D01*
X217506D01*
X218506Y3999D01*
X217506Y4999D01*
X214507D01*
X209509Y2999D02*
X211508D01*
X212508Y3999D01*
Y5998D01*
X211508Y6998D01*
X209509D01*
X208509Y5998D01*
Y4999D01*
X212508D01*
X206510Y6998D02*
Y2999D01*
Y4999D01*
X205510Y5998D01*
X204510Y6998D01*
X203511D01*
X199512Y2999D02*
X197513D01*
X196513Y3999D01*
Y5998D01*
X197513Y6998D01*
X199512D01*
X200512Y5998D01*
Y3999D01*
X199512Y2999D01*
X188515D02*
Y8997D01*
X185517D01*
X184517Y7998D01*
Y5998D01*
X185517Y4999D01*
X188515D01*
X186516D02*
X184517Y2999D01*
X181518D02*
X179518D01*
X178519Y3999D01*
Y5998D01*
X179518Y6998D01*
X181518D01*
X182518Y5998D01*
Y3999D01*
X181518Y2999D01*
X176519Y8997D02*
Y2999D01*
X173520D01*
X172521Y3999D01*
Y4999D01*
Y5998D01*
X173520Y6998D01*
X176519D01*
X169522Y2999D02*
X167522D01*
X166523Y3999D01*
Y5998D01*
X167522Y6998D01*
X169522D01*
X170521Y5998D01*
Y3999D01*
X169522Y2999D01*
X163524Y7998D02*
Y6998D01*
X164523D01*
X162524D01*
X163524D01*
Y3999D01*
X162524Y2999D01*
X159525D02*
X157526D01*
X158525D01*
Y6998D01*
X159525D01*
X154526Y2999D02*
Y8997D01*
Y4999D02*
X151528Y6998D01*
X154526Y4999D02*
X151528Y2999D01*
X138532Y7998D02*
X139531Y8997D01*
X141531D01*
X142530Y7998D01*
Y3999D01*
X141531Y2999D01*
X139531D01*
X138532Y3999D01*
X136532Y2999D02*
X134533D01*
X135533D01*
Y8997D01*
X136532D01*
X131534Y6998D02*
Y3999D01*
X130534Y2999D01*
X127535D01*
Y6998D01*
X125536Y8997D02*
Y2999D01*
X122537D01*
X121537Y3999D01*
Y4999D01*
Y5998D01*
X122537Y6998D01*
X125536D01*
X137498Y86499D02*
X138498Y85499D01*
Y83500D01*
X137498Y82500D01*
X133500D01*
X132500Y83500D01*
Y85499D01*
X133500Y86499D01*
X132500Y88498D02*
Y90497D01*
Y89498D01*
X138498D01*
X137498Y88498D01*
X117498Y123999D02*
X118498Y122999D01*
Y121000D01*
X117498Y120000D01*
X113500D01*
X112500Y121000D01*
Y122999D01*
X113500Y123999D01*
X112500Y129997D02*
Y125998D01*
X116499Y129997D01*
X117498D01*
X118498Y128997D01*
Y126998D01*
X117498Y125998D01*
X56001Y33500D02*
Y37498D01*
X57001Y38498D01*
X59000D01*
X60000Y37498D01*
Y33500D01*
X59000Y32500D01*
X57001D01*
X58001Y34499D02*
X56001Y32500D01*
X57001D02*
X56001Y33500D01*
X54002Y32500D02*
X52003D01*
X53002D01*
Y38498D01*
X54002Y37498D01*
X67500Y72500D02*
Y78498D01*
X64501D01*
X63501Y77498D01*
Y75499D01*
X64501Y74499D01*
X67500D01*
X65501D02*
X63501Y72500D01*
X61502D02*
X59503D01*
X60502D01*
Y78498D01*
X61502Y77498D01*
X56504D02*
X55504Y78498D01*
X53505D01*
X52505Y77498D01*
Y73500D01*
X53505Y72500D01*
X55504D01*
X56504Y73500D01*
Y77498D01*
X77500Y27500D02*
X83498D01*
Y30499D01*
X82498Y31499D01*
X80499D01*
X79499Y30499D01*
Y27500D01*
Y29499D02*
X77500Y31499D01*
Y33498D02*
Y35497D01*
Y34498D01*
X83498D01*
X82498Y33498D01*
X77500Y38496D02*
Y40496D01*
Y39496D01*
X83498D01*
X82498Y38496D01*
D32*
X140472Y73583D02*
Y81063D01*
X149528Y73583D02*
Y81063D01*
X140472Y73583D02*
X149528D01*
X142047Y97598D02*
X147953D01*
X140472Y88937D02*
Y95630D01*
X147953Y97598D02*
X149528Y95630D01*
X140472D02*
X142047Y97598D01*
X149528Y88937D02*
Y95630D01*
X120472Y116083D02*
Y123563D01*
X129528Y116083D02*
Y123563D01*
X120472Y116083D02*
X129528D01*
X122047Y140098D02*
X127953D01*
X120472Y131437D02*
Y138130D01*
X127953Y140098D02*
X129528Y138130D01*
X120472D02*
X122047Y140098D01*
X129528Y131437D02*
Y138130D01*
X65472Y23583D02*
Y31063D01*
X74528Y23583D02*
Y31063D01*
X65472Y23583D02*
X74528D01*
X67047Y47598D02*
X72953D01*
X65472Y38937D02*
Y45630D01*
X72953Y47598D02*
X74528Y45630D01*
X65472D02*
X67047Y47598D01*
X74528Y38937D02*
Y45630D01*
X63937Y60472D02*
X71417D01*
X63937Y69528D02*
X71417D01*
Y60472D02*
Y69528D01*
X47402Y62047D02*
Y67953D01*
X49370Y60472D02*
X56063D01*
X47402Y67953D02*
X49370Y69528D01*
X47402Y62047D02*
X49370Y60472D01*
X49370Y69528D02*
X56063D01*
X51595Y44744D02*
Y48287D01*
Y44744D02*
X54744D01*
X63406D02*
Y48287D01*
X60256Y44744D02*
X63406D01*
D33*
X54646Y42185D02*
X53908Y42611D01*
Y41759D01*
X54646Y42185D01*
M02*
