M48
;Layer_Color=9474304
;FILE_FORMAT=2:5
INCH,TZ
;TYPE=PLATED
T1F00S00C0.02756
T2F00S00C0.03000
T3F00S00C0.03150
T4F00S00C0.04000
T5F00S00C0.05906
T6F00S00C0.07087
T7F00S00C0.11811
;TYPE=NON_PLATED
T8F00S00C0.11811
T9F00S00C0.12598
%
T01
X27500Y47500
X82500Y45000
X97500Y27500
X65000Y20000
X125000Y55000
X170000Y75000
X210000Y80000
X260000Y97500
X165000Y27500
X125000Y105000
X135000Y145000
X167500Y170000
X165000Y185000
X90000Y165000
X72500Y115000
X27500Y102500
Y157500
X12500Y202500
T02
X42500Y45000
Y55000
Y65000
Y85000
Y95000
X72500Y85000
X82500
X102500
Y95000
Y75000
Y65000
Y45000
X135000Y100000
Y110000
Y120000
X102500Y125000
Y135000
Y145000
Y165000
Y175000
X42500
Y165000
Y155000
Y145000
Y135000
Y125000
Y115000
Y105000
X72500
X82500
X102500
Y115000
T03
X27500Y25157
Y35000
Y60472
Y70315
Y80158
Y90000
X122500Y27500
X132343
X142185
X152028
X180000
X189842
X212500
X222342
X220000Y185000
X210157
X187500
X177657
X152500
X142657
X132815
X122972
X27500Y177500
Y167657
Y145000
Y135158
Y125315
Y115472
T04
X195000Y95000
X208386
T05
X170000Y52500
Y141476
T06
X198346Y60000
X220000
Y122500
X198346
Y157500
X220000
T07
X170000Y97500
T08
X248740Y60000
Y122500
Y157500
T09
X51181Y11811
X251969
Y200787
X51181
M30
