G04 Layer_Physical_Order=1*
G04 Layer_Color=255*
%FSLAX25Y25*%
%MOIN*%
G70*
G01*
G75*
%ADD10R,0.05906X0.05906*%
%ADD11R,0.05906X0.05906*%
%ADD12R,0.07874X0.06693*%
%ADD13C,0.02000*%
%ADD14C,0.01969*%
%ADD15C,0.10827*%
%ADD16C,0.06000*%
%ADD17O,0.08000X0.06000*%
%ADD18O,0.09843X0.07874*%
%ADD19C,0.07874*%
%ADD20O,0.06000X0.08000*%
%ADD21C,0.11811*%
%ADD22O,0.11811X0.15748*%
%ADD23R,0.11811X0.15748*%
%ADD24O,0.07000X0.12000*%
%ADD25C,0.20945*%
%ADD26C,0.05000*%
%ADD27C,0.05906*%
G36*
X274587Y1003D02*
X259064D01*
X258928Y1485D01*
X259304Y1715D01*
X260793Y2987D01*
X262065Y4476D01*
X263088Y6146D01*
X263837Y7955D01*
X264294Y9859D01*
X264448Y11811D01*
X264294Y13763D01*
X263837Y15667D01*
X263088Y17477D01*
X262065Y19146D01*
X260793Y20635D01*
X259304Y21907D01*
X257634Y22930D01*
X255825Y23680D01*
X253921Y24137D01*
X251969Y24290D01*
X250016Y24137D01*
X248112Y23680D01*
X246303Y22930D01*
X244633Y21907D01*
X243144Y20635D01*
X241872Y19146D01*
X240849Y17477D01*
X240100Y15667D01*
X239643Y13763D01*
X239489Y11811D01*
X239643Y9859D01*
X240100Y7955D01*
X240849Y6146D01*
X241872Y4476D01*
X243144Y2987D01*
X244633Y1715D01*
X245009Y1485D01*
X244873Y1003D01*
X99724D01*
Y4500D01*
X95000D01*
X90276D01*
Y1003D01*
X79646D01*
Y10315D01*
X67835D01*
Y1003D01*
X58276D01*
X58140Y1485D01*
X58516Y1715D01*
X60005Y2987D01*
X61277Y4476D01*
X62300Y6146D01*
X63050Y7955D01*
X63507Y9859D01*
X63661Y11811D01*
X63507Y13763D01*
X63113Y15404D01*
X63540Y15768D01*
X63833Y15646D01*
X65000Y15493D01*
X66167Y15646D01*
X67254Y16097D01*
X67386Y16199D01*
X67835Y15977D01*
Y13858D01*
X79646D01*
Y24488D01*
X76718D01*
Y25079D01*
X78031D01*
Y34921D01*
X68189D01*
Y25079D01*
X70762D01*
Y24488D01*
X67835D01*
Y24023D01*
X67386Y23801D01*
X67254Y23903D01*
X66167Y24353D01*
X65000Y24507D01*
X63833Y24353D01*
X62747Y23903D01*
X61813Y23187D01*
X61097Y22253D01*
X60646Y21167D01*
X60580Y20665D01*
X60101Y20523D01*
X60005Y20635D01*
X58516Y21907D01*
X56847Y22930D01*
X55037Y23680D01*
X53133Y24137D01*
X51181Y24290D01*
X49229Y24137D01*
X47325Y23680D01*
X45516Y22930D01*
X43846Y21907D01*
X42357Y20635D01*
X41085Y19146D01*
X40062Y17477D01*
X39312Y15667D01*
X38855Y13763D01*
X38702Y11811D01*
X38855Y9859D01*
X39312Y7955D01*
X40062Y6146D01*
X41085Y4476D01*
X42357Y2987D01*
X43846Y1715D01*
X44222Y1485D01*
X44086Y1003D01*
X1003D01*
Y211595D01*
X44086D01*
X44222Y211114D01*
X43846Y210883D01*
X42357Y209612D01*
X41085Y208123D01*
X40062Y206453D01*
X39312Y204644D01*
X38855Y202740D01*
X38702Y200787D01*
X38855Y198835D01*
X39312Y196931D01*
X40062Y195122D01*
X41085Y193452D01*
X42357Y191963D01*
X43846Y190691D01*
X45516Y189668D01*
X47325Y188919D01*
X49229Y188462D01*
X51181Y188308D01*
X53133Y188462D01*
X55037Y188919D01*
X56847Y189668D01*
X58516Y190691D01*
X60005Y191963D01*
X61277Y193452D01*
X62300Y195122D01*
X63050Y196931D01*
X63507Y198835D01*
X63661Y200787D01*
X63507Y202740D01*
X63050Y204644D01*
X62300Y206453D01*
X61277Y208123D01*
X60005Y209612D01*
X58516Y210883D01*
X58141Y211114D01*
X58276Y211595D01*
X244873D01*
X245009Y211114D01*
X244633Y210883D01*
X243144Y209612D01*
X241872Y208123D01*
X240849Y206453D01*
X240100Y204644D01*
X239643Y202740D01*
X239489Y200787D01*
X239643Y198835D01*
X240100Y196931D01*
X240849Y195122D01*
X241872Y193452D01*
X243144Y191963D01*
X244633Y190691D01*
X246303Y189668D01*
X248112Y188919D01*
X250016Y188462D01*
X251969Y188308D01*
X253921Y188462D01*
X255825Y188919D01*
X257634Y189668D01*
X259304Y190691D01*
X260793Y191963D01*
X262065Y193452D01*
X263088Y195122D01*
X263837Y196931D01*
X264294Y198835D01*
X264448Y200787D01*
X264294Y202740D01*
X263837Y204644D01*
X263088Y206453D01*
X262065Y208123D01*
X260793Y209612D01*
X259304Y210883D01*
X258928Y211114D01*
X259064Y211595D01*
X274587D01*
Y1003D01*
D02*
G37*
%LPC*%
G36*
X13000Y205750D02*
Y203000D01*
X15750D01*
X15703Y203358D01*
X15371Y204158D01*
X14845Y204845D01*
X14158Y205371D01*
X13358Y205703D01*
X13000Y205750D01*
D02*
G37*
G36*
X12000D02*
X11642Y205703D01*
X10842Y205371D01*
X10155Y204845D01*
X9629Y204158D01*
X9297Y203358D01*
X9250Y203000D01*
X12000D01*
Y205750D01*
D02*
G37*
G36*
X15750Y202000D02*
X13000D01*
Y199250D01*
X13358Y199297D01*
X14158Y199628D01*
X14845Y200155D01*
X15371Y200842D01*
X15703Y201642D01*
X15750Y202000D01*
D02*
G37*
G36*
X12000D02*
X9250D01*
X9297Y201642D01*
X9629Y200842D01*
X10155Y200155D01*
X10842Y199628D01*
X11642Y199297D01*
X12000Y199250D01*
Y202000D01*
D02*
G37*
G36*
X178157Y189754D02*
Y185500D01*
X181478D01*
Y186000D01*
X181347Y186989D01*
X180966Y187910D01*
X180359Y188701D01*
X179568Y189308D01*
X178646Y189690D01*
X178157Y189754D01*
D02*
G37*
G36*
X210658D02*
Y185500D01*
X213978D01*
Y186000D01*
X213847Y186989D01*
X213466Y187910D01*
X212859Y188701D01*
X212068Y189308D01*
X211146Y189690D01*
X210658Y189754D01*
D02*
G37*
G36*
X123472D02*
Y185500D01*
X126793D01*
Y186000D01*
X126662Y186989D01*
X126281Y187910D01*
X125674Y188701D01*
X124882Y189308D01*
X123961Y189690D01*
X123472Y189754D01*
D02*
G37*
G36*
X209658D02*
X209169Y189690D01*
X208247Y189308D01*
X207456Y188701D01*
X206849Y187910D01*
X206468Y186989D01*
X206337Y186000D01*
Y185500D01*
X209658D01*
Y189754D01*
D02*
G37*
G36*
X177157D02*
X176669Y189690D01*
X175747Y189308D01*
X174956Y188701D01*
X174349Y187910D01*
X173968Y186989D01*
X173837Y186000D01*
Y185500D01*
X177157D01*
Y189754D01*
D02*
G37*
G36*
X122472D02*
X121984Y189690D01*
X121062Y189308D01*
X120271Y188701D01*
X119664Y187910D01*
X119282Y186989D01*
X119152Y186000D01*
Y185500D01*
X122472D01*
Y189754D01*
D02*
G37*
G36*
X165500Y188250D02*
Y185500D01*
X168250D01*
X168203Y185858D01*
X167871Y186658D01*
X167345Y187345D01*
X166658Y187872D01*
X165858Y188203D01*
X165500Y188250D01*
D02*
G37*
G36*
X164500D02*
X164142Y188203D01*
X163342Y187872D01*
X162655Y187345D01*
X162128Y186658D01*
X161797Y185858D01*
X161750Y185500D01*
X164500D01*
Y188250D01*
D02*
G37*
G36*
X168250Y184500D02*
X165500D01*
Y181750D01*
X165858Y181797D01*
X166658Y182129D01*
X167345Y182655D01*
X167871Y183342D01*
X168203Y184142D01*
X168250Y184500D01*
D02*
G37*
G36*
X164500D02*
X161750D01*
X161797Y184142D01*
X162128Y183342D01*
X162655Y182655D01*
X163342Y182129D01*
X164142Y181797D01*
X164500Y181750D01*
Y184500D01*
D02*
G37*
G36*
X209658Y184500D02*
X206337D01*
Y184000D01*
X206468Y183011D01*
X206849Y182090D01*
X207456Y181299D01*
X208247Y180692D01*
X209169Y180310D01*
X209658Y180246D01*
Y184500D01*
D02*
G37*
G36*
X177157D02*
X173837D01*
Y184000D01*
X173968Y183011D01*
X174349Y182090D01*
X174956Y181299D01*
X175747Y180692D01*
X176669Y180310D01*
X177157Y180246D01*
Y184500D01*
D02*
G37*
G36*
X122472D02*
X119152D01*
Y184000D01*
X119282Y183011D01*
X119664Y182090D01*
X120271Y181299D01*
X121062Y180692D01*
X121984Y180310D01*
X122472Y180246D01*
Y184500D01*
D02*
G37*
G36*
X213978D02*
X210658D01*
Y180246D01*
X211146Y180310D01*
X212068Y180692D01*
X212859Y181299D01*
X213466Y182090D01*
X213847Y183011D01*
X213978Y184000D01*
Y184500D01*
D02*
G37*
G36*
X181478D02*
X178157D01*
Y180246D01*
X178646Y180310D01*
X179568Y180692D01*
X180359Y181299D01*
X180966Y182090D01*
X181347Y183011D01*
X181478Y184000D01*
Y184500D01*
D02*
G37*
G36*
X126793D02*
X123472D01*
Y180246D01*
X123961Y180310D01*
X124882Y180692D01*
X125674Y181299D01*
X126281Y182090D01*
X126662Y183011D01*
X126793Y184000D01*
Y184500D01*
D02*
G37*
G36*
X220000Y191011D02*
X218703Y190841D01*
X217494Y190340D01*
X216456Y189544D01*
X215660Y188506D01*
X215159Y187297D01*
X214989Y186000D01*
Y184000D01*
X215159Y182703D01*
X215660Y181494D01*
X216456Y180456D01*
X217494Y179660D01*
X218703Y179159D01*
X220000Y178989D01*
X221297Y179159D01*
X222506Y179660D01*
X223544Y180456D01*
X224340Y181494D01*
X224841Y182703D01*
X225011Y184000D01*
Y186000D01*
X224841Y187297D01*
X224340Y188506D01*
X223544Y189544D01*
X222506Y190340D01*
X221297Y190841D01*
X220000Y191011D01*
D02*
G37*
G36*
X85000Y207978D02*
X84229Y207877D01*
X83511Y207579D01*
X82894Y207106D01*
X82894Y207106D01*
X72894Y197106D01*
X72421Y196489D01*
X72123Y195771D01*
X72022Y195000D01*
Y141234D01*
X71266Y140478D01*
X57500D01*
X56729Y140377D01*
X56011Y140079D01*
X55394Y139606D01*
X55394Y139606D01*
X52894Y137106D01*
X52421Y136489D01*
X52123Y135771D01*
X52022Y135000D01*
Y118734D01*
X51266Y117978D01*
X46477D01*
X46044Y118544D01*
X45006Y119340D01*
X44065Y119729D01*
Y120271D01*
X45006Y120660D01*
X46044Y121456D01*
X46840Y122494D01*
X47341Y123703D01*
X47511Y125000D01*
X47341Y126297D01*
X46840Y127506D01*
X46044Y128544D01*
X45006Y129340D01*
X44065Y129729D01*
Y130271D01*
X45006Y130660D01*
X46044Y131456D01*
X46840Y132494D01*
X47341Y133703D01*
X47511Y135000D01*
X47341Y136297D01*
X46840Y137506D01*
X46044Y138544D01*
X45006Y139340D01*
X44065Y139729D01*
Y140271D01*
X45006Y140660D01*
X46044Y141456D01*
X46840Y142494D01*
X47341Y143703D01*
X47511Y145000D01*
X47341Y146297D01*
X46840Y147506D01*
X46044Y148544D01*
X45006Y149340D01*
X44065Y149729D01*
Y150271D01*
X45006Y150660D01*
X46044Y151456D01*
X46840Y152494D01*
X47341Y153703D01*
X47511Y155000D01*
X47341Y156297D01*
X46840Y157506D01*
X46044Y158544D01*
X45006Y159340D01*
X44065Y159729D01*
Y160271D01*
X45006Y160660D01*
X46044Y161456D01*
X46840Y162494D01*
X47341Y163703D01*
X47511Y165000D01*
X47341Y166297D01*
X46840Y167506D01*
X46044Y168544D01*
X45006Y169340D01*
X43797Y169841D01*
X42500Y170011D01*
X41203Y169841D01*
X39994Y169340D01*
X38956Y168544D01*
X38160Y167506D01*
X37659Y166297D01*
X37489Y165000D01*
X37659Y163703D01*
X38160Y162494D01*
X38956Y161456D01*
X39994Y160660D01*
X40935Y160271D01*
Y159729D01*
X39994Y159340D01*
X38956Y158544D01*
X38160Y157506D01*
X37659Y156297D01*
X37489Y155000D01*
X37659Y153703D01*
X38160Y152494D01*
X38956Y151456D01*
X39994Y150660D01*
X40935Y150271D01*
Y149729D01*
X39994Y149340D01*
X38956Y148544D01*
X38160Y147506D01*
X37659Y146297D01*
X37489Y145000D01*
X37659Y143703D01*
X38160Y142494D01*
X38956Y141456D01*
X39994Y140660D01*
X40935Y140271D01*
Y139729D01*
X39994Y139340D01*
X38956Y138544D01*
X38160Y137506D01*
X37659Y136297D01*
X37489Y135000D01*
X37659Y133703D01*
X38160Y132494D01*
X38956Y131456D01*
X39994Y130660D01*
X40935Y130271D01*
Y129729D01*
X39994Y129340D01*
X38956Y128544D01*
X38160Y127506D01*
X37659Y126297D01*
X37489Y125000D01*
X37659Y123703D01*
X38160Y122494D01*
X38956Y121456D01*
X39994Y120660D01*
X40935Y120271D01*
Y119729D01*
X39994Y119340D01*
X38956Y118544D01*
X38160Y117506D01*
X37659Y116297D01*
X37489Y115000D01*
X37659Y113703D01*
X38160Y112494D01*
X38956Y111456D01*
X39994Y110660D01*
X40935Y110271D01*
Y109729D01*
X39994Y109340D01*
X38956Y108544D01*
X38160Y107506D01*
X37659Y106297D01*
X37489Y105000D01*
X37659Y103703D01*
X38160Y102494D01*
X38956Y101456D01*
X39994Y100660D01*
X40935Y100271D01*
Y99729D01*
X39994Y99340D01*
X38956Y98544D01*
X38160Y97506D01*
X37659Y96297D01*
X37489Y95000D01*
X37659Y93703D01*
X38160Y92494D01*
X38956Y91456D01*
X39994Y90660D01*
X40935Y90271D01*
Y89729D01*
X39994Y89340D01*
X38956Y88544D01*
X38160Y87506D01*
X37659Y86297D01*
X37489Y85000D01*
X37659Y83703D01*
X38160Y82494D01*
X38956Y81456D01*
X39994Y80660D01*
X41203Y80159D01*
X42500Y79989D01*
X43797Y80159D01*
X45006Y80660D01*
X46044Y81456D01*
X46477Y82022D01*
X51266D01*
X52022Y81266D01*
Y57500D01*
X52123Y56729D01*
X52421Y56011D01*
X52894Y55394D01*
X55394Y52894D01*
X55394Y52894D01*
X56011Y52421D01*
X56729Y52123D01*
X57500Y52022D01*
X121653D01*
X121813Y51813D01*
X122747Y51097D01*
X123834Y50647D01*
X125000Y50493D01*
X126166Y50647D01*
X127253Y51097D01*
X128187Y51813D01*
X128903Y52746D01*
X129022Y53033D01*
X129522Y52933D01*
Y32598D01*
X128799Y32044D01*
X128003Y31006D01*
X127692Y30256D01*
X127151D01*
X126840Y31006D01*
X126044Y32044D01*
X125006Y32840D01*
X123797Y33341D01*
X122500Y33511D01*
X121203Y33341D01*
X119994Y32840D01*
X118956Y32044D01*
X118160Y31006D01*
X117659Y29797D01*
X117489Y28500D01*
Y26500D01*
X117659Y25203D01*
X118160Y23994D01*
X118956Y22956D01*
X119994Y22160D01*
X121203Y21659D01*
X122500Y21489D01*
X123797Y21659D01*
X125006Y22160D01*
X126044Y22956D01*
X126840Y23994D01*
X127151Y24744D01*
X127692D01*
X128003Y23994D01*
X128799Y22956D01*
X129837Y22160D01*
X131045Y21659D01*
X132343Y21489D01*
X133640Y21659D01*
X134848Y22160D01*
X135886Y22956D01*
X136682Y23994D01*
X136993Y24744D01*
X137534D01*
X137845Y23994D01*
X138642Y22956D01*
X139679Y22160D01*
X140888Y21659D01*
X142185Y21489D01*
X143482Y21659D01*
X144691Y22160D01*
X145729Y22956D01*
X146525Y23994D01*
X147026Y25203D01*
X147196Y26500D01*
Y28500D01*
X147026Y29797D01*
X146525Y31006D01*
X145729Y32044D01*
X144691Y32840D01*
X143482Y33341D01*
X142185Y33511D01*
X140888Y33341D01*
X139679Y32840D01*
X138642Y32044D01*
X137845Y31006D01*
X137534Y30256D01*
X136993D01*
X136682Y31006D01*
X135886Y32044D01*
X135478Y32357D01*
Y57500D01*
X135377Y58271D01*
X135079Y58989D01*
X134606Y59606D01*
X134606Y59606D01*
X132106Y62106D01*
X131489Y62579D01*
X130771Y62877D01*
X130000Y62978D01*
X107490D01*
X107213Y63394D01*
X107341Y63703D01*
X107511Y65000D01*
X107341Y66297D01*
X106840Y67506D01*
X106044Y68544D01*
X105006Y69340D01*
X104066Y69729D01*
Y70271D01*
X105006Y70660D01*
X106044Y71456D01*
X106840Y72494D01*
X107341Y73703D01*
X107511Y75000D01*
X107341Y76297D01*
X106840Y77506D01*
X106044Y78544D01*
X105006Y79340D01*
X104066Y79729D01*
Y80271D01*
X105006Y80660D01*
X106044Y81456D01*
X106840Y82494D01*
X107341Y83703D01*
X107511Y85000D01*
X107341Y86297D01*
X106840Y87506D01*
X106044Y88544D01*
X105006Y89340D01*
X104066Y89729D01*
Y90271D01*
X105006Y90660D01*
X106044Y91456D01*
X106840Y92494D01*
X107341Y93703D01*
X107511Y95000D01*
X107341Y96297D01*
X106840Y97506D01*
X106044Y98544D01*
X105006Y99340D01*
X104066Y99729D01*
Y100271D01*
X105006Y100660D01*
X106044Y101456D01*
X106840Y102494D01*
X107341Y103703D01*
X107511Y105000D01*
X107341Y106297D01*
X106840Y107506D01*
X106044Y108544D01*
X105006Y109340D01*
X104066Y109729D01*
Y110271D01*
X105006Y110660D01*
X106044Y111456D01*
X106840Y112494D01*
X107341Y113703D01*
X107511Y115000D01*
X107341Y116297D01*
X106840Y117506D01*
X106044Y118544D01*
X105006Y119340D01*
X104066Y119729D01*
Y120271D01*
X105006Y120660D01*
X106044Y121456D01*
X106840Y122494D01*
X107341Y123703D01*
X107511Y125000D01*
X107341Y126297D01*
X106840Y127506D01*
X106044Y128544D01*
X105006Y129340D01*
X104066Y129729D01*
Y130271D01*
X105006Y130660D01*
X106044Y131456D01*
X106477Y132022D01*
X110000D01*
X110771Y132123D01*
X111489Y132421D01*
X112106Y132894D01*
X114606Y135394D01*
X114606Y135394D01*
X115079Y136011D01*
X115377Y136729D01*
X115478Y137500D01*
Y140000D01*
Y148766D01*
X116234Y149522D01*
X122500D01*
X123271Y149623D01*
X123989Y149921D01*
X124606Y150394D01*
X127106Y152894D01*
X127106Y152894D01*
X127579Y153511D01*
X127877Y154229D01*
X127978Y155000D01*
Y166266D01*
X128734Y167022D01*
X164153D01*
X164313Y166813D01*
X165246Y166097D01*
X166333Y165647D01*
X167500Y165493D01*
X168667Y165647D01*
X169754Y166097D01*
X170687Y166813D01*
X171403Y167746D01*
X171853Y168833D01*
X172007Y170000D01*
X171853Y171167D01*
X171671Y171606D01*
X171949Y172022D01*
X185000D01*
X185771Y172123D01*
X186489Y172421D01*
X187106Y172894D01*
X189606Y175394D01*
X189606Y175394D01*
X190079Y176011D01*
X190377Y176729D01*
X190478Y177500D01*
Y180023D01*
X191044Y180456D01*
X191840Y181494D01*
X192341Y182703D01*
X192511Y184000D01*
Y186000D01*
X192341Y187297D01*
X191840Y188506D01*
X191044Y189544D01*
X190006Y190340D01*
X188797Y190841D01*
X187500Y191011D01*
X186203Y190841D01*
X184994Y190340D01*
X183956Y189544D01*
X183160Y188506D01*
X182659Y187297D01*
X182489Y186000D01*
Y184000D01*
X182659Y182703D01*
X183160Y181494D01*
X183956Y180456D01*
X184522Y180023D01*
Y178734D01*
X183766Y177978D01*
X120000D01*
X119229Y177877D01*
X118511Y177579D01*
X117894Y177106D01*
X117894Y177106D01*
X115394Y174606D01*
X114921Y173989D01*
X114623Y173271D01*
X114522Y172500D01*
Y165000D01*
Y161234D01*
X113766Y160478D01*
X105000D01*
X104229Y160377D01*
X103511Y160079D01*
X102894Y159606D01*
X102894Y159606D01*
X100394Y157106D01*
X99921Y156489D01*
X99623Y155771D01*
X99522Y155000D01*
Y148977D01*
X98956Y148544D01*
X98160Y147506D01*
X97659Y146297D01*
X97489Y145000D01*
X97659Y143703D01*
X98160Y142494D01*
X98956Y141456D01*
X99994Y140660D01*
X100935Y140271D01*
Y139729D01*
X99994Y139340D01*
X98956Y138544D01*
X98160Y137506D01*
X97659Y136297D01*
X97489Y135000D01*
X97659Y133703D01*
X98160Y132494D01*
X98956Y131456D01*
X99994Y130660D01*
X100935Y130271D01*
Y129729D01*
X99994Y129340D01*
X98956Y128544D01*
X98160Y127506D01*
X97659Y126297D01*
X97489Y125000D01*
X97659Y123703D01*
X98160Y122494D01*
X98956Y121456D01*
X99994Y120660D01*
X100935Y120271D01*
Y119729D01*
X99994Y119340D01*
X98956Y118544D01*
X98160Y117506D01*
X97659Y116297D01*
X97489Y115000D01*
X97659Y113703D01*
X98160Y112494D01*
X98956Y111456D01*
X99994Y110660D01*
X100935Y110271D01*
Y109729D01*
X99994Y109340D01*
X98956Y108544D01*
X98160Y107506D01*
X97659Y106297D01*
X97489Y105000D01*
X97659Y103703D01*
X98160Y102494D01*
X98956Y101456D01*
X99994Y100660D01*
X100935Y100271D01*
Y99729D01*
X99994Y99340D01*
X98956Y98544D01*
X98160Y97506D01*
X97659Y96297D01*
X97489Y95000D01*
X97659Y93703D01*
X98160Y92494D01*
X98956Y91456D01*
X99994Y90660D01*
X100935Y90271D01*
Y89729D01*
X99994Y89340D01*
X98956Y88544D01*
X98160Y87506D01*
X97659Y86297D01*
X97489Y85000D01*
X97659Y83703D01*
X98160Y82494D01*
X98956Y81456D01*
X99994Y80660D01*
X100935Y80271D01*
Y79729D01*
X99994Y79340D01*
X98956Y78544D01*
X98160Y77506D01*
X97659Y76297D01*
X97489Y75000D01*
X97659Y73703D01*
X98160Y72494D01*
X98956Y71456D01*
X99994Y70660D01*
X100935Y70271D01*
Y69729D01*
X99994Y69340D01*
X98956Y68544D01*
X98160Y67506D01*
X97659Y66297D01*
X97489Y65000D01*
X97659Y63703D01*
X97787Y63394D01*
X97510Y62978D01*
X63734D01*
X62978Y63734D01*
Y92500D01*
X62877Y93271D01*
X62579Y93989D01*
X62106Y94606D01*
X62106Y94606D01*
X59606Y97106D01*
X58989Y97579D01*
X58271Y97877D01*
X57500Y97978D01*
X46477D01*
X46044Y98544D01*
X45006Y99340D01*
X44065Y99729D01*
Y100271D01*
X45006Y100660D01*
X46044Y101456D01*
X46477Y102022D01*
X60000D01*
X60771Y102123D01*
X61489Y102421D01*
X62106Y102894D01*
X64606Y105394D01*
X64606Y105394D01*
X65079Y106011D01*
X65377Y106729D01*
X65478Y107500D01*
Y128766D01*
X66234Y129522D01*
X77500D01*
X78271Y129623D01*
X78989Y129921D01*
X79606Y130394D01*
X82106Y132894D01*
X82106Y132894D01*
X82579Y133511D01*
X82877Y134229D01*
X82978Y135000D01*
Y191266D01*
X88734Y197022D01*
X128766D01*
X129522Y196266D01*
Y189736D01*
X129271Y189544D01*
X128475Y188506D01*
X127974Y187297D01*
X127804Y186000D01*
Y184000D01*
X127974Y182703D01*
X128475Y181494D01*
X129271Y180456D01*
X130309Y179660D01*
X131518Y179159D01*
X132815Y178989D01*
X134112Y179159D01*
X135321Y179660D01*
X136358Y180456D01*
X137155Y181494D01*
X137466Y182244D01*
X138007D01*
X138318Y181494D01*
X139114Y180456D01*
X140152Y179660D01*
X141360Y179159D01*
X142657Y178989D01*
X143955Y179159D01*
X145163Y179660D01*
X146201Y180456D01*
X146997Y181494D01*
X147308Y182244D01*
X147849D01*
X148160Y181494D01*
X148956Y180456D01*
X149994Y179660D01*
X151203Y179159D01*
X152500Y178989D01*
X153797Y179159D01*
X155006Y179660D01*
X156044Y180456D01*
X156840Y181494D01*
X157341Y182703D01*
X157511Y184000D01*
Y186000D01*
X157341Y187297D01*
X156840Y188506D01*
X156044Y189544D01*
X155006Y190340D01*
X153797Y190841D01*
X152500Y191011D01*
X151203Y190841D01*
X149994Y190340D01*
X148956Y189544D01*
X148160Y188506D01*
X147849Y187756D01*
X147308D01*
X146997Y188506D01*
X146201Y189544D01*
X145478Y190098D01*
Y202500D01*
X145377Y203271D01*
X145079Y203989D01*
X144606Y204606D01*
X144606Y204606D01*
X142106Y207106D01*
X141489Y207579D01*
X140771Y207877D01*
X140000Y207978D01*
X85000D01*
X85000Y207978D01*
D02*
G37*
G36*
X43000Y178754D02*
Y175500D01*
X46254D01*
X46190Y175989D01*
X45808Y176910D01*
X45201Y177701D01*
X44410Y178308D01*
X43489Y178690D01*
X43000Y178754D01*
D02*
G37*
G36*
X42000D02*
X41511Y178690D01*
X40590Y178308D01*
X39799Y177701D01*
X39192Y176910D01*
X38810Y175989D01*
X38746Y175500D01*
X42000D01*
Y178754D01*
D02*
G37*
G36*
X46254Y174500D02*
X43000D01*
Y171246D01*
X43489Y171310D01*
X44410Y171692D01*
X45201Y172299D01*
X45808Y173090D01*
X46190Y174011D01*
X46254Y174500D01*
D02*
G37*
G36*
X42000D02*
X38746D01*
X38810Y174011D01*
X39192Y173090D01*
X39799Y172299D01*
X40590Y171692D01*
X41511Y171310D01*
X42000Y171246D01*
Y174500D01*
D02*
G37*
G36*
X102500Y180011D02*
X101203Y179841D01*
X99994Y179340D01*
X98956Y178544D01*
X98160Y177506D01*
X97659Y176297D01*
X97489Y175000D01*
X97659Y173703D01*
X98160Y172494D01*
X98956Y171456D01*
X99994Y170660D01*
X101203Y170159D01*
X102500Y169989D01*
X103797Y170159D01*
X105006Y170660D01*
X106044Y171456D01*
X106840Y172494D01*
X107341Y173703D01*
X107511Y175000D01*
X107341Y176297D01*
X106840Y177506D01*
X106044Y178544D01*
X105006Y179340D01*
X103797Y179841D01*
X102500Y180011D01*
D02*
G37*
G36*
X103000Y168754D02*
Y165500D01*
X106254D01*
X106190Y165989D01*
X105808Y166910D01*
X105201Y167701D01*
X104410Y168308D01*
X103489Y168690D01*
X103000Y168754D01*
D02*
G37*
G36*
X102000D02*
X101511Y168690D01*
X100590Y168308D01*
X99799Y167701D01*
X99192Y166910D01*
X98810Y165989D01*
X98746Y165500D01*
X102000D01*
Y168754D01*
D02*
G37*
G36*
X90500Y168250D02*
Y165500D01*
X93250D01*
X93203Y165858D01*
X92871Y166658D01*
X92345Y167345D01*
X91658Y167871D01*
X90858Y168203D01*
X90500Y168250D01*
D02*
G37*
G36*
X89500D02*
X89142Y168203D01*
X88342Y167871D01*
X87655Y167345D01*
X87129Y166658D01*
X86797Y165858D01*
X86750Y165500D01*
X89500D01*
Y168250D01*
D02*
G37*
G36*
X168032Y164921D02*
X158189D01*
Y162994D01*
X154311D01*
Y164921D01*
X144468D01*
Y155079D01*
X154311D01*
Y157006D01*
X158189D01*
Y155079D01*
X168032D01*
Y164921D01*
D02*
G37*
G36*
X28500Y182511D02*
X26500D01*
X25203Y182341D01*
X23994Y181840D01*
X22956Y181044D01*
X22160Y180006D01*
X21659Y178797D01*
X21489Y177500D01*
X21659Y176203D01*
X22160Y174994D01*
X22956Y173956D01*
X23994Y173160D01*
X24744Y172849D01*
Y172308D01*
X23994Y171997D01*
X22956Y171201D01*
X22160Y170163D01*
X21659Y168955D01*
X21489Y167657D01*
X21659Y166360D01*
X22160Y165152D01*
X22956Y164114D01*
X23994Y163318D01*
X25203Y162817D01*
X26500Y162646D01*
X28500D01*
X29797Y162817D01*
X31006Y163318D01*
X32044Y164114D01*
X32840Y165152D01*
X33341Y166360D01*
X33511Y167657D01*
X33341Y168955D01*
X32840Y170163D01*
X32044Y171201D01*
X31006Y171997D01*
X30256Y172308D01*
Y172849D01*
X31006Y173160D01*
X32044Y173956D01*
X32840Y174994D01*
X33341Y176203D01*
X33511Y177500D01*
X33341Y178797D01*
X32840Y180006D01*
X32044Y181044D01*
X31006Y181840D01*
X29797Y182341D01*
X28500Y182511D01*
D02*
G37*
G36*
X93250Y164500D02*
X90500D01*
Y161750D01*
X90858Y161797D01*
X91658Y162128D01*
X92345Y162655D01*
X92871Y163342D01*
X93203Y164142D01*
X93250Y164500D01*
D02*
G37*
G36*
X89500D02*
X86750D01*
X86797Y164142D01*
X87129Y163342D01*
X87655Y162655D01*
X88342Y162128D01*
X89142Y161797D01*
X89500Y161750D01*
Y164500D01*
D02*
G37*
G36*
X106254D02*
X103000D01*
Y161246D01*
X103489Y161310D01*
X104410Y161692D01*
X105201Y162299D01*
X105808Y163090D01*
X106190Y164011D01*
X106254Y164500D01*
D02*
G37*
G36*
X102000D02*
X98746D01*
X98810Y164011D01*
X99192Y163090D01*
X99799Y162299D01*
X100590Y161692D01*
X101511Y161310D01*
X102000Y161246D01*
Y164500D01*
D02*
G37*
G36*
X180630Y163740D02*
X177390D01*
Y160500D01*
X180630D01*
Y163740D01*
D02*
G37*
G36*
X176390D02*
X173150D01*
Y160500D01*
X176390D01*
Y163740D01*
D02*
G37*
G36*
X221969Y166088D02*
Y159468D01*
X226939D01*
X226806Y160822D01*
X226411Y162124D01*
X225769Y163324D01*
X224907Y164375D01*
X223855Y165238D01*
X222655Y165879D01*
X221969Y166088D01*
D02*
G37*
G36*
X218032D02*
X217345Y165879D01*
X216145Y165238D01*
X215093Y164375D01*
X214230Y163324D01*
X213589Y162124D01*
X213194Y160822D01*
X213061Y159468D01*
X218032D01*
Y166088D01*
D02*
G37*
G36*
X28000Y160750D02*
Y158000D01*
X30750D01*
X30703Y158358D01*
X30371Y159158D01*
X29845Y159845D01*
X29158Y160371D01*
X28358Y160703D01*
X28000Y160750D01*
D02*
G37*
G36*
X27000D02*
X26642Y160703D01*
X25842Y160371D01*
X25155Y159845D01*
X24629Y159158D01*
X24297Y158358D01*
X24250Y158000D01*
X27000D01*
Y160750D01*
D02*
G37*
G36*
X180630Y159500D02*
X177390D01*
Y156260D01*
X180630D01*
Y159500D01*
D02*
G37*
G36*
X176390D02*
X173150D01*
Y156260D01*
X176390D01*
Y159500D01*
D02*
G37*
G36*
X30750Y157000D02*
X28000D01*
Y154250D01*
X28358Y154297D01*
X29158Y154629D01*
X29845Y155155D01*
X30371Y155842D01*
X30703Y156642D01*
X30750Y157000D01*
D02*
G37*
G36*
X27000D02*
X24250D01*
X24297Y156642D01*
X24629Y155842D01*
X25155Y155155D01*
X25842Y154629D01*
X26642Y154297D01*
X27000Y154250D01*
Y157000D01*
D02*
G37*
G36*
X248740Y165412D02*
X247197Y165260D01*
X245712Y164810D01*
X244344Y164079D01*
X243145Y163095D01*
X242161Y161896D01*
X241430Y160528D01*
X240980Y159044D01*
X240828Y157500D01*
X240980Y155956D01*
X241430Y154472D01*
X242161Y153104D01*
X243145Y151905D01*
X244344Y150921D01*
X245712Y150190D01*
X247197Y149740D01*
X248740Y149588D01*
X250284Y149740D01*
X251768Y150190D01*
X253136Y150921D01*
X254335Y151905D01*
X255319Y153104D01*
X256050Y154472D01*
X256500Y155956D01*
X256652Y157500D01*
X256500Y159044D01*
X256050Y160528D01*
X255319Y161896D01*
X254335Y163095D01*
X253136Y164079D01*
X251768Y164810D01*
X250284Y165260D01*
X248740Y165412D01*
D02*
G37*
G36*
X226939Y155532D02*
X221969D01*
Y148912D01*
X222655Y149121D01*
X223855Y149762D01*
X224907Y150625D01*
X225769Y151676D01*
X226411Y152876D01*
X226806Y154178D01*
X226939Y155532D01*
D02*
G37*
G36*
X218032D02*
X213061D01*
X213194Y154178D01*
X213589Y152876D01*
X214230Y151676D01*
X215093Y150625D01*
X216145Y149762D01*
X217345Y149121D01*
X218032Y148912D01*
Y155532D01*
D02*
G37*
G36*
X206221Y167342D02*
X190472D01*
Y147658D01*
X206221D01*
Y167342D01*
D02*
G37*
G36*
X140532Y164921D02*
X130689D01*
Y155079D01*
X132616D01*
Y148803D01*
X131813Y148187D01*
X131097Y147254D01*
X130647Y146167D01*
X130493Y145000D01*
X130647Y143833D01*
X131097Y142746D01*
X131813Y141813D01*
X132747Y141097D01*
X133834Y140647D01*
X135000Y140493D01*
X136167Y140647D01*
X137253Y141097D01*
X138187Y141813D01*
X138903Y142746D01*
X139354Y143833D01*
X139507Y145000D01*
X139354Y146167D01*
X138903Y147254D01*
X138604Y147643D01*
Y155079D01*
X140532D01*
Y164921D01*
D02*
G37*
G36*
X28500Y150011D02*
X26500D01*
X25203Y149841D01*
X23994Y149340D01*
X22956Y148544D01*
X22160Y147506D01*
X21659Y146297D01*
X21489Y145000D01*
X21659Y143703D01*
X22160Y142494D01*
X22956Y141456D01*
X23994Y140660D01*
X24744Y140349D01*
Y139808D01*
X23994Y139497D01*
X22956Y138701D01*
X22160Y137663D01*
X21659Y136454D01*
X21489Y135158D01*
X21659Y133860D01*
X22160Y132652D01*
X22956Y131614D01*
X23994Y130817D01*
X24744Y130507D01*
Y129966D01*
X23994Y129655D01*
X22956Y128858D01*
X22160Y127821D01*
X21659Y126612D01*
X21489Y125315D01*
X21659Y124018D01*
X22160Y122809D01*
X22956Y121771D01*
X23994Y120975D01*
X25203Y120474D01*
X26500Y120304D01*
X28500D01*
X29797Y120474D01*
X31006Y120975D01*
X32044Y121771D01*
X32840Y122809D01*
X33341Y124018D01*
X33511Y125315D01*
X33341Y126612D01*
X32840Y127821D01*
X32044Y128858D01*
X31006Y129655D01*
X30256Y129966D01*
Y130507D01*
X31006Y130817D01*
X32044Y131614D01*
X32840Y132652D01*
X33341Y133860D01*
X33511Y135158D01*
X33341Y136454D01*
X32840Y137663D01*
X32044Y138701D01*
X31006Y139497D01*
X30256Y139808D01*
Y140349D01*
X31006Y140660D01*
X32044Y141456D01*
X32840Y142494D01*
X33341Y143703D01*
X33511Y145000D01*
X33341Y146297D01*
X32840Y147506D01*
X32044Y148544D01*
X31006Y149340D01*
X29797Y149841D01*
X28500Y150011D01*
D02*
G37*
G36*
Y119292D02*
X28000D01*
Y115972D01*
X32254D01*
X32190Y116461D01*
X31808Y117383D01*
X31201Y118174D01*
X30410Y118781D01*
X29489Y119162D01*
X28500Y119292D01*
D02*
G37*
G36*
X27000D02*
X26500D01*
X25511Y119162D01*
X24590Y118781D01*
X23799Y118174D01*
X23192Y117383D01*
X22810Y116461D01*
X22746Y115972D01*
X27000D01*
Y119292D01*
D02*
G37*
G36*
X73000Y118250D02*
Y115500D01*
X75750D01*
X75703Y115858D01*
X75371Y116658D01*
X74845Y117345D01*
X74158Y117871D01*
X73358Y118203D01*
X73000Y118250D01*
D02*
G37*
G36*
X72000D02*
X71642Y118203D01*
X70842Y117871D01*
X70155Y117345D01*
X69629Y116658D01*
X69297Y115858D01*
X69250Y115500D01*
X72000D01*
Y118250D01*
D02*
G37*
G36*
X135000Y125011D02*
X133703Y124841D01*
X132494Y124340D01*
X131456Y123544D01*
X130660Y122506D01*
X130159Y121297D01*
X129989Y120000D01*
X130159Y118703D01*
X130660Y117494D01*
X131456Y116456D01*
X132494Y115660D01*
X133703Y115159D01*
X135000Y114989D01*
X136297Y115159D01*
X137506Y115660D01*
X138544Y116456D01*
X139340Y117494D01*
X139841Y118703D01*
X140011Y120000D01*
X139841Y121297D01*
X139340Y122506D01*
X138544Y123544D01*
X137506Y124340D01*
X136297Y124841D01*
X135000Y125011D01*
D02*
G37*
G36*
X187000Y151517D02*
X156000D01*
X155037Y151325D01*
X154220Y150780D01*
X153675Y149963D01*
X153483Y149000D01*
Y45500D01*
X153675Y44537D01*
X154220Y43720D01*
X155037Y43175D01*
X156000Y42983D01*
X242000D01*
X242963Y43175D01*
X243780Y43720D01*
X244325Y44537D01*
X244517Y45500D01*
Y52843D01*
X244946Y53100D01*
X245712Y52690D01*
X247197Y52240D01*
X248740Y52088D01*
X250284Y52240D01*
X251768Y52690D01*
X253136Y53421D01*
X254335Y54405D01*
X255319Y55604D01*
X256050Y56972D01*
X256500Y58456D01*
X256652Y60000D01*
X256500Y61544D01*
X256050Y63028D01*
X255319Y64396D01*
X254335Y65595D01*
X253136Y66579D01*
X251768Y67310D01*
X250284Y67760D01*
X248740Y67912D01*
X247197Y67760D01*
X245712Y67310D01*
X244946Y66900D01*
X244517Y67157D01*
Y115343D01*
X244946Y115600D01*
X245712Y115190D01*
X247197Y114740D01*
X248740Y114588D01*
X250284Y114740D01*
X251768Y115190D01*
X253136Y115921D01*
X254335Y116905D01*
X255319Y118104D01*
X256050Y119472D01*
X256500Y120956D01*
X256652Y122500D01*
X256500Y124044D01*
X256050Y125528D01*
X255319Y126896D01*
X254335Y128095D01*
X253136Y129079D01*
X251768Y129810D01*
X250284Y130260D01*
X248740Y130412D01*
X247197Y130260D01*
X245712Y129810D01*
X244946Y129400D01*
X244517Y129657D01*
Y140000D01*
X244325Y140963D01*
X243780Y141780D01*
X242963Y142325D01*
X242000Y142517D01*
X189517D01*
Y149000D01*
X189325Y149963D01*
X188780Y150780D01*
X187963Y151325D01*
X187000Y151517D01*
D02*
G37*
G36*
X75750Y114500D02*
X73000D01*
Y111750D01*
X73358Y111797D01*
X74158Y112128D01*
X74845Y112655D01*
X75371Y113342D01*
X75703Y114142D01*
X75750Y114500D01*
D02*
G37*
G36*
X72000D02*
X69250D01*
X69297Y114142D01*
X69629Y113342D01*
X70155Y112655D01*
X70842Y112128D01*
X71642Y111797D01*
X72000Y111750D01*
Y114500D01*
D02*
G37*
G36*
X32254Y114972D02*
X28000D01*
Y111652D01*
X28500D01*
X29489Y111783D01*
X30410Y112164D01*
X31201Y112771D01*
X31808Y113562D01*
X32190Y114484D01*
X32254Y114972D01*
D02*
G37*
G36*
X27000D02*
X22746D01*
X22810Y114484D01*
X23192Y113562D01*
X23799Y112771D01*
X24590Y112164D01*
X25511Y111783D01*
X26500Y111652D01*
X27000D01*
Y114972D01*
D02*
G37*
G36*
X135500Y113754D02*
Y110500D01*
X138754D01*
X138690Y110989D01*
X138308Y111910D01*
X137701Y112701D01*
X136910Y113308D01*
X135989Y113690D01*
X135500Y113754D01*
D02*
G37*
G36*
X134500D02*
X134011Y113690D01*
X133090Y113308D01*
X132299Y112701D01*
X131692Y111910D01*
X131310Y110989D01*
X131246Y110500D01*
X134500D01*
Y113754D01*
D02*
G37*
G36*
X82500Y110011D02*
X81203Y109841D01*
X79994Y109340D01*
X78956Y108544D01*
X78160Y107506D01*
X77771Y106565D01*
X77229D01*
X76840Y107506D01*
X76044Y108544D01*
X75006Y109340D01*
X73797Y109841D01*
X72500Y110011D01*
X71203Y109841D01*
X69994Y109340D01*
X68956Y108544D01*
X68160Y107506D01*
X67659Y106297D01*
X67489Y105000D01*
X67659Y103703D01*
X68160Y102494D01*
X68956Y101456D01*
X69994Y100660D01*
X71203Y100159D01*
X72500Y99989D01*
X73797Y100159D01*
X75006Y100660D01*
X76044Y101456D01*
X76840Y102494D01*
X77229Y103435D01*
X77771D01*
X78160Y102494D01*
X78956Y101456D01*
X79994Y100660D01*
X81203Y100159D01*
X82500Y99989D01*
X83797Y100159D01*
X85006Y100660D01*
X86044Y101456D01*
X86840Y102494D01*
X87341Y103703D01*
X87511Y105000D01*
X87341Y106297D01*
X86840Y107506D01*
X86044Y108544D01*
X85006Y109340D01*
X83797Y109841D01*
X82500Y110011D01*
D02*
G37*
G36*
X138754Y109500D02*
X135500D01*
Y106246D01*
X135989Y106310D01*
X136910Y106692D01*
X137701Y107299D01*
X138308Y108090D01*
X138690Y109011D01*
X138754Y109500D01*
D02*
G37*
G36*
X134500D02*
X131246D01*
X131310Y109011D01*
X131692Y108090D01*
X132299Y107299D01*
X133090Y106692D01*
X134011Y106310D01*
X134500Y106246D01*
Y109500D01*
D02*
G37*
G36*
X125500Y108707D02*
Y105500D01*
X128707D01*
X128644Y105976D01*
X128267Y106886D01*
X127667Y107668D01*
X126886Y108267D01*
X125976Y108644D01*
X125500Y108707D01*
D02*
G37*
G36*
X124500D02*
X124024Y108644D01*
X123114Y108267D01*
X122333Y107668D01*
X121733Y106886D01*
X121356Y105976D01*
X121293Y105500D01*
X124500D01*
Y108707D01*
D02*
G37*
G36*
X28000Y105750D02*
Y103000D01*
X30750D01*
X30703Y103358D01*
X30371Y104158D01*
X29845Y104845D01*
X29158Y105371D01*
X28358Y105703D01*
X28000Y105750D01*
D02*
G37*
G36*
X27000D02*
X26642Y105703D01*
X25842Y105371D01*
X25155Y104845D01*
X24629Y104158D01*
X24297Y103358D01*
X24250Y103000D01*
X27000D01*
Y105750D01*
D02*
G37*
G36*
X128707Y104500D02*
X125500D01*
Y101293D01*
X125976Y101356D01*
X126886Y101733D01*
X127667Y102332D01*
X128267Y103114D01*
X128644Y104024D01*
X128707Y104500D01*
D02*
G37*
G36*
X124500D02*
X121293D01*
X121356Y104024D01*
X121733Y103114D01*
X122333Y102332D01*
X123114Y101733D01*
X124024Y101356D01*
X124500Y101293D01*
Y104500D01*
D02*
G37*
G36*
X30750Y102000D02*
X28000D01*
Y99250D01*
X28358Y99297D01*
X29158Y99629D01*
X29845Y100155D01*
X30371Y100842D01*
X30703Y101642D01*
X30750Y102000D01*
D02*
G37*
G36*
X27000D02*
X24250D01*
X24297Y101642D01*
X24629Y100842D01*
X25155Y100155D01*
X25842Y99629D01*
X26642Y99297D01*
X27000Y99250D01*
Y102000D01*
D02*
G37*
G36*
X260500Y100750D02*
Y98000D01*
X263250D01*
X263203Y98358D01*
X262872Y99158D01*
X262345Y99845D01*
X261658Y100372D01*
X260858Y100703D01*
X260500Y100750D01*
D02*
G37*
G36*
X259500D02*
X259142Y100703D01*
X258342Y100372D01*
X257655Y99845D01*
X257129Y99158D01*
X256797Y98358D01*
X256750Y98000D01*
X259500D01*
Y100750D01*
D02*
G37*
G36*
X135000Y105011D02*
X133703Y104841D01*
X132494Y104340D01*
X131456Y103544D01*
X130660Y102506D01*
X130159Y101297D01*
X129989Y100000D01*
X130159Y98703D01*
X130660Y97494D01*
X131456Y96456D01*
X132494Y95660D01*
X133703Y95159D01*
X135000Y94989D01*
X136297Y95159D01*
X137506Y95660D01*
X138544Y96456D01*
X139340Y97494D01*
X139841Y98703D01*
X140011Y100000D01*
X139841Y101297D01*
X139340Y102506D01*
X138544Y103544D01*
X137506Y104340D01*
X136297Y104841D01*
X135000Y105011D01*
D02*
G37*
G36*
X263250Y97000D02*
X260500D01*
Y94250D01*
X260858Y94297D01*
X261658Y94629D01*
X262345Y95155D01*
X262872Y95842D01*
X263203Y96642D01*
X263250Y97000D01*
D02*
G37*
G36*
X259500D02*
X256750D01*
X256797Y96642D01*
X257129Y95842D01*
X257655Y95155D01*
X258342Y94629D01*
X259142Y94297D01*
X259500Y94250D01*
Y97000D01*
D02*
G37*
G36*
X82500Y90011D02*
X81203Y89841D01*
X79994Y89340D01*
X78956Y88544D01*
X78160Y87506D01*
X77771Y86566D01*
X77229D01*
X76840Y87506D01*
X76044Y88544D01*
X75006Y89340D01*
X73797Y89841D01*
X72500Y90011D01*
X71203Y89841D01*
X69994Y89340D01*
X68956Y88544D01*
X68160Y87506D01*
X67659Y86297D01*
X67489Y85000D01*
X67659Y83703D01*
X68160Y82494D01*
X68956Y81456D01*
X69994Y80660D01*
X71203Y80159D01*
X72500Y79989D01*
X73797Y80159D01*
X75006Y80660D01*
X76044Y81456D01*
X76840Y82494D01*
X77229Y83434D01*
X77771D01*
X78160Y82494D01*
X78956Y81456D01*
X79994Y80660D01*
X81203Y80159D01*
X82500Y79989D01*
X83797Y80159D01*
X85006Y80660D01*
X86044Y81456D01*
X86840Y82494D01*
X87341Y83703D01*
X87511Y85000D01*
X87341Y86297D01*
X86840Y87506D01*
X86044Y88544D01*
X85006Y89340D01*
X83797Y89841D01*
X82500Y90011D01*
D02*
G37*
G36*
X28500Y95011D02*
X26500D01*
X25203Y94841D01*
X23994Y94340D01*
X22956Y93544D01*
X22160Y92506D01*
X21659Y91297D01*
X21489Y90000D01*
X21659Y88703D01*
X22160Y87494D01*
X22956Y86456D01*
X23994Y85660D01*
X24744Y85349D01*
Y84808D01*
X23994Y84497D01*
X22956Y83701D01*
X22160Y82663D01*
X21659Y81454D01*
X21489Y80158D01*
X21659Y78860D01*
X22160Y77652D01*
X22956Y76614D01*
X23994Y75818D01*
X24744Y75507D01*
Y74966D01*
X23994Y74655D01*
X22956Y73858D01*
X22160Y72821D01*
X21659Y71612D01*
X21489Y70315D01*
X21659Y69018D01*
X22160Y67809D01*
X22956Y66771D01*
X23994Y65975D01*
X25203Y65474D01*
X26500Y65304D01*
X28500D01*
X29797Y65474D01*
X31006Y65975D01*
X32044Y66771D01*
X32840Y67809D01*
X33341Y69018D01*
X33511Y70315D01*
X33341Y71612D01*
X32840Y72821D01*
X32044Y73858D01*
X31006Y74655D01*
X30256Y74966D01*
Y75507D01*
X31006Y75818D01*
X32044Y76614D01*
X32840Y77652D01*
X33341Y78860D01*
X33511Y80158D01*
X33341Y81454D01*
X32840Y82663D01*
X32044Y83701D01*
X31006Y84497D01*
X30256Y84808D01*
Y85349D01*
X31006Y85660D01*
X32044Y86456D01*
X32840Y87494D01*
X33341Y88703D01*
X33511Y90000D01*
X33341Y91297D01*
X32840Y92506D01*
X32044Y93544D01*
X31006Y94340D01*
X29797Y94841D01*
X28500Y95011D01*
D02*
G37*
G36*
Y64293D02*
X28000D01*
Y60972D01*
X32254D01*
X32190Y61461D01*
X31808Y62383D01*
X31201Y63174D01*
X30410Y63781D01*
X29489Y64162D01*
X28500Y64293D01*
D02*
G37*
G36*
X27000D02*
X26500D01*
X25511Y64162D01*
X24590Y63781D01*
X23799Y63174D01*
X23192Y62383D01*
X22810Y61461D01*
X22746Y60972D01*
X27000D01*
Y64293D01*
D02*
G37*
G36*
X32254Y59972D02*
X28000D01*
Y56652D01*
X28500D01*
X29489Y56783D01*
X30410Y57164D01*
X31201Y57771D01*
X31808Y58562D01*
X32190Y59484D01*
X32254Y59972D01*
D02*
G37*
G36*
X27000D02*
X22746D01*
X22810Y59484D01*
X23192Y58562D01*
X23799Y57771D01*
X24590Y57164D01*
X25511Y56783D01*
X26500Y56652D01*
X27000D01*
Y59972D01*
D02*
G37*
G36*
X28000Y50750D02*
Y48000D01*
X30750D01*
X30703Y48358D01*
X30371Y49158D01*
X29845Y49845D01*
X29158Y50371D01*
X28358Y50703D01*
X28000Y50750D01*
D02*
G37*
G36*
X27000D02*
X26642Y50703D01*
X25842Y50371D01*
X25155Y49845D01*
X24629Y49158D01*
X24297Y48358D01*
X24250Y48000D01*
X27000D01*
Y50750D01*
D02*
G37*
G36*
X83000Y48250D02*
Y45500D01*
X85750D01*
X85703Y45858D01*
X85372Y46658D01*
X84845Y47345D01*
X84158Y47872D01*
X83358Y48203D01*
X83000Y48250D01*
D02*
G37*
G36*
X82000D02*
X81642Y48203D01*
X80842Y47872D01*
X80155Y47345D01*
X79628Y46658D01*
X79297Y45858D01*
X79250Y45500D01*
X82000D01*
Y48250D01*
D02*
G37*
G36*
X30750Y47000D02*
X28000D01*
Y44250D01*
X28358Y44297D01*
X29158Y44629D01*
X29845Y45155D01*
X30371Y45842D01*
X30703Y46642D01*
X30750Y47000D01*
D02*
G37*
G36*
X27000D02*
X24250D01*
X24297Y46642D01*
X24629Y45842D01*
X25155Y45155D01*
X25842Y44629D01*
X26642Y44297D01*
X27000Y44250D01*
Y47000D01*
D02*
G37*
G36*
X85750Y44500D02*
X83000D01*
Y41750D01*
X83358Y41797D01*
X84158Y42129D01*
X84845Y42655D01*
X85372Y43342D01*
X85703Y44142D01*
X85750Y44500D01*
D02*
G37*
G36*
X82000D02*
X79250D01*
X79297Y44142D01*
X79628Y43342D01*
X80155Y42655D01*
X80842Y42129D01*
X81642Y41797D01*
X82000Y41750D01*
Y44500D01*
D02*
G37*
G36*
X102500Y50011D02*
X101203Y49841D01*
X99994Y49340D01*
X98956Y48544D01*
X98160Y47506D01*
X97659Y46297D01*
X97489Y45000D01*
X97659Y43703D01*
X98160Y42494D01*
X98956Y41456D01*
X99994Y40660D01*
X101203Y40159D01*
X102500Y39989D01*
X103797Y40159D01*
X105006Y40660D01*
X106044Y41456D01*
X106840Y42494D01*
X107341Y43703D01*
X107511Y45000D01*
X107341Y46297D01*
X106840Y47506D01*
X106044Y48544D01*
X105006Y49340D01*
X103797Y49841D01*
X102500Y50011D01*
D02*
G37*
G36*
X42500Y70011D02*
X41203Y69841D01*
X39994Y69340D01*
X38956Y68544D01*
X38160Y67506D01*
X37659Y66297D01*
X37489Y65000D01*
X37659Y63703D01*
X38160Y62494D01*
X38956Y61456D01*
X39994Y60660D01*
X40935Y60271D01*
Y59729D01*
X39994Y59340D01*
X38956Y58544D01*
X38160Y57506D01*
X37659Y56297D01*
X37489Y55000D01*
X37659Y53703D01*
X38160Y52494D01*
X38956Y51456D01*
X39994Y50660D01*
X40935Y50271D01*
Y49729D01*
X39994Y49340D01*
X38956Y48544D01*
X38160Y47506D01*
X37659Y46297D01*
X37489Y45000D01*
X37659Y43703D01*
X38160Y42494D01*
X38956Y41456D01*
X39994Y40660D01*
X41203Y40159D01*
X42500Y39989D01*
X43797Y40159D01*
X45006Y40660D01*
X46044Y41456D01*
X46840Y42494D01*
X47341Y43703D01*
X47511Y45000D01*
X47341Y46297D01*
X46840Y47506D01*
X46044Y48544D01*
X45006Y49340D01*
X44065Y49729D01*
Y50271D01*
X45006Y50660D01*
X46044Y51456D01*
X46840Y52494D01*
X47341Y53703D01*
X47511Y55000D01*
X47341Y56297D01*
X46840Y57506D01*
X46044Y58544D01*
X45006Y59340D01*
X44065Y59729D01*
Y60271D01*
X45006Y60660D01*
X46044Y61456D01*
X46840Y62494D01*
X47341Y63703D01*
X47511Y65000D01*
X47341Y66297D01*
X46840Y67506D01*
X46044Y68544D01*
X45006Y69340D01*
X43797Y69841D01*
X42500Y70011D01*
D02*
G37*
G36*
X90630Y33740D02*
X87390D01*
Y30500D01*
X90630D01*
Y33740D01*
D02*
G37*
G36*
X86390D02*
X83150D01*
Y30500D01*
X86390D01*
Y33740D01*
D02*
G37*
G36*
X28500Y40011D02*
X26500D01*
X25203Y39841D01*
X23994Y39340D01*
X22956Y38544D01*
X22160Y37506D01*
X21659Y36297D01*
X21489Y35000D01*
X21659Y33703D01*
X22160Y32494D01*
X22956Y31456D01*
X23994Y30660D01*
X25203Y30159D01*
X26500Y29989D01*
X28500D01*
X29797Y30159D01*
X31006Y30660D01*
X32044Y31456D01*
X32840Y32494D01*
X33341Y33703D01*
X33511Y35000D01*
X33341Y36297D01*
X32840Y37506D01*
X32044Y38544D01*
X31006Y39340D01*
X29797Y39841D01*
X28500Y40011D01*
D02*
G37*
G36*
X222843Y32254D02*
Y28000D01*
X226163D01*
Y28500D01*
X226032Y29489D01*
X225651Y30410D01*
X225044Y31201D01*
X224253Y31808D01*
X223331Y32190D01*
X222843Y32254D01*
D02*
G37*
G36*
X221843D02*
X221354Y32190D01*
X220432Y31808D01*
X219641Y31201D01*
X219034Y30410D01*
X218653Y29489D01*
X218522Y28500D01*
Y28000D01*
X221843D01*
Y32254D01*
D02*
G37*
G36*
X190342D02*
Y28000D01*
X193663D01*
Y28500D01*
X193532Y29489D01*
X193151Y30410D01*
X192544Y31201D01*
X191753Y31808D01*
X190831Y32190D01*
X190342Y32254D01*
D02*
G37*
G36*
X189342D02*
X188854Y32190D01*
X187933Y31808D01*
X187141Y31201D01*
X186534Y30410D01*
X186153Y29489D01*
X186022Y28500D01*
Y28000D01*
X189342D01*
Y32254D01*
D02*
G37*
G36*
X165500Y30750D02*
Y28000D01*
X168250D01*
X168203Y28358D01*
X167871Y29158D01*
X167345Y29845D01*
X166658Y30371D01*
X165858Y30703D01*
X165500Y30750D01*
D02*
G37*
G36*
X164500D02*
X164142Y30703D01*
X163342Y30371D01*
X162655Y29845D01*
X162128Y29158D01*
X161797Y28358D01*
X161750Y28000D01*
X164500D01*
Y30750D01*
D02*
G37*
G36*
X152528Y32254D02*
Y28000D01*
X155848D01*
Y28500D01*
X155718Y29489D01*
X155336Y30410D01*
X154729Y31201D01*
X153938Y31808D01*
X153016Y32190D01*
X152528Y32254D01*
D02*
G37*
G36*
X151528D02*
X151039Y32190D01*
X150118Y31808D01*
X149326Y31201D01*
X148719Y30410D01*
X148338Y29489D01*
X148207Y28500D01*
Y28000D01*
X151528D01*
Y32254D01*
D02*
G37*
G36*
X90630Y29500D02*
X87390D01*
Y26260D01*
X90630D01*
Y29500D01*
D02*
G37*
G36*
X86390D02*
X83150D01*
Y26260D01*
X86390D01*
Y29500D01*
D02*
G37*
G36*
X28500Y28978D02*
X28000D01*
Y25657D01*
X32254D01*
X32190Y26146D01*
X31808Y27068D01*
X31201Y27859D01*
X30410Y28466D01*
X29489Y28847D01*
X28500Y28978D01*
D02*
G37*
G36*
X27000D02*
X26500D01*
X25511Y28847D01*
X24590Y28466D01*
X23799Y27859D01*
X23192Y27068D01*
X22810Y26146D01*
X22746Y25657D01*
X27000D01*
Y28978D01*
D02*
G37*
G36*
X97500Y32007D02*
X96333Y31854D01*
X95246Y31403D01*
X94313Y30687D01*
X93597Y29754D01*
X93147Y28666D01*
X92993Y27500D01*
X93147Y26333D01*
X93597Y25247D01*
X93835Y24937D01*
X93613Y24488D01*
X89095D01*
Y13858D01*
X100906D01*
Y24488D01*
X100906Y24488D01*
X100906D01*
X101131Y24892D01*
X101403Y25247D01*
X101854Y26333D01*
X102007Y27500D01*
X101854Y28666D01*
X101403Y29754D01*
X100687Y30687D01*
X99753Y31403D01*
X98667Y31854D01*
X97500Y32007D01*
D02*
G37*
G36*
X168250Y27000D02*
X165500D01*
Y24250D01*
X165858Y24297D01*
X166658Y24629D01*
X167345Y25155D01*
X167871Y25842D01*
X168203Y26642D01*
X168250Y27000D01*
D02*
G37*
G36*
X164500D02*
X161750D01*
X161797Y26642D01*
X162128Y25842D01*
X162655Y25155D01*
X163342Y24629D01*
X164142Y24297D01*
X164500Y24250D01*
Y27000D01*
D02*
G37*
G36*
X226163D02*
X222843D01*
Y22746D01*
X223331Y22810D01*
X224253Y23192D01*
X225044Y23799D01*
X225651Y24590D01*
X226032Y25511D01*
X226163Y26500D01*
Y27000D01*
D02*
G37*
G36*
X221843D02*
X218522D01*
Y26500D01*
X218653Y25511D01*
X219034Y24590D01*
X219641Y23799D01*
X220432Y23192D01*
X221354Y22810D01*
X221843Y22746D01*
Y27000D01*
D02*
G37*
G36*
X193663D02*
X190342D01*
Y22746D01*
X190831Y22810D01*
X191753Y23192D01*
X192544Y23799D01*
X193151Y24590D01*
X193532Y25511D01*
X193663Y26500D01*
Y27000D01*
D02*
G37*
G36*
X189342D02*
X186022D01*
Y26500D01*
X186153Y25511D01*
X186534Y24590D01*
X187141Y23799D01*
X187933Y23192D01*
X188854Y22810D01*
X189342Y22746D01*
Y27000D01*
D02*
G37*
G36*
X155848D02*
X152528D01*
Y22746D01*
X153016Y22810D01*
X153938Y23192D01*
X154729Y23799D01*
X155336Y24590D01*
X155718Y25511D01*
X155848Y26500D01*
Y27000D01*
D02*
G37*
G36*
X151528D02*
X148207D01*
Y26500D01*
X148338Y25511D01*
X148719Y24590D01*
X149326Y23799D01*
X150118Y23192D01*
X151039Y22810D01*
X151528Y22746D01*
Y27000D01*
D02*
G37*
G36*
X212500Y33511D02*
X211203Y33341D01*
X209994Y32840D01*
X208956Y32044D01*
X208160Y31006D01*
X207659Y29797D01*
X207489Y28500D01*
Y26500D01*
X207659Y25203D01*
X208160Y23994D01*
X208956Y22956D01*
X209994Y22160D01*
X211203Y21659D01*
X212500Y21489D01*
X213797Y21659D01*
X215006Y22160D01*
X216044Y22956D01*
X216840Y23994D01*
X217341Y25203D01*
X217511Y26500D01*
Y28500D01*
X217341Y29797D01*
X216840Y31006D01*
X216044Y32044D01*
X215006Y32840D01*
X213797Y33341D01*
X212500Y33511D01*
D02*
G37*
G36*
X180000D02*
X178703Y33341D01*
X177494Y32840D01*
X176456Y32044D01*
X175660Y31006D01*
X175159Y29797D01*
X174989Y28500D01*
Y26500D01*
X175159Y25203D01*
X175660Y23994D01*
X176456Y22956D01*
X177494Y22160D01*
X178703Y21659D01*
X180000Y21489D01*
X181297Y21659D01*
X182506Y22160D01*
X183544Y22956D01*
X184340Y23994D01*
X184841Y25203D01*
X185011Y26500D01*
Y28500D01*
X184841Y29797D01*
X184340Y31006D01*
X183544Y32044D01*
X182506Y32840D01*
X181297Y33341D01*
X180000Y33511D01*
D02*
G37*
G36*
X32254Y24657D02*
X28000D01*
Y21337D01*
X28500D01*
X29489Y21468D01*
X30410Y21849D01*
X31201Y22456D01*
X31808Y23247D01*
X32190Y24169D01*
X32254Y24657D01*
D02*
G37*
G36*
X27000D02*
X22746D01*
X22810Y24169D01*
X23192Y23247D01*
X23799Y22456D01*
X24590Y21849D01*
X25511Y21468D01*
X26500Y21337D01*
X27000D01*
Y24657D01*
D02*
G37*
G36*
X99724Y9134D02*
X95500D01*
Y5500D01*
X99724D01*
Y9134D01*
D02*
G37*
G36*
X94500D02*
X90276D01*
Y5500D01*
X94500D01*
Y9134D01*
D02*
G37*
%LPD*%
G36*
X184483Y140000D02*
X184675Y139037D01*
X185000Y138550D01*
Y137500D01*
X186915D01*
X187000Y137483D01*
X239483D01*
Y101811D01*
X230079D01*
Y101811D01*
X229921Y101811D01*
Y101811D01*
X220079D01*
Y91969D01*
X229921D01*
Y91969D01*
X230079Y91969D01*
Y91969D01*
X239483D01*
Y48017D01*
X186660D01*
X186469Y48479D01*
X190010Y52020D01*
X190472Y51829D01*
Y50157D01*
X206221D01*
Y69842D01*
X190472D01*
Y67418D01*
X187500D01*
X187500Y67418D01*
X186053Y67275D01*
X184661Y66853D01*
X183379Y66167D01*
X182255Y65245D01*
X182255Y65245D01*
X176927Y59918D01*
X170000D01*
X168553Y59775D01*
X167161Y59353D01*
X165879Y58667D01*
X164755Y57745D01*
X163832Y56621D01*
X163147Y55339D01*
X162725Y53947D01*
X162582Y52500D01*
X162725Y51053D01*
X163147Y49661D01*
X163759Y48517D01*
X163546Y48017D01*
X158517D01*
Y146483D01*
X163975D01*
X164189Y146031D01*
X163832Y145597D01*
X163147Y144315D01*
X162725Y142923D01*
X162582Y141476D01*
Y127500D01*
X162582Y127500D01*
X162725Y126053D01*
X163147Y124661D01*
X163832Y123379D01*
X164755Y122255D01*
X169755Y117255D01*
X169755Y117255D01*
X170879Y116332D01*
X172161Y115647D01*
X173553Y115225D01*
X175000Y115082D01*
X175000Y115082D01*
X190472D01*
Y112657D01*
X206221D01*
Y132343D01*
X190472D01*
Y129918D01*
X178073D01*
X177418Y130572D01*
Y141476D01*
X177275Y142923D01*
X176853Y144315D01*
X176168Y145597D01*
X175812Y146031D01*
X176025Y146483D01*
X184483D01*
Y140000D01*
D02*
G37*
%LPC*%
G36*
X221969Y131088D02*
Y124469D01*
X226939D01*
X226806Y125822D01*
X226411Y127124D01*
X225769Y128324D01*
X224907Y129375D01*
X223855Y130238D01*
X222655Y130879D01*
X221969Y131088D01*
D02*
G37*
G36*
X218032D02*
X217345Y130879D01*
X216145Y130238D01*
X215093Y129375D01*
X214230Y128324D01*
X213589Y127124D01*
X213194Y125822D01*
X213061Y124469D01*
X218032D01*
Y131088D01*
D02*
G37*
G36*
X226939Y120531D02*
X221969D01*
Y113912D01*
X222655Y114121D01*
X223855Y114762D01*
X224907Y115625D01*
X225769Y116676D01*
X226411Y117876D01*
X226806Y119178D01*
X226939Y120531D01*
D02*
G37*
G36*
X218032D02*
X213061D01*
X213194Y119178D01*
X213589Y117876D01*
X214230Y116676D01*
X215093Y115625D01*
X216145Y114762D01*
X217345Y114121D01*
X218032Y113912D01*
Y120531D01*
D02*
G37*
G36*
X210354Y101555D02*
Y96969D01*
X212925D01*
Y97500D01*
X212770Y98675D01*
X212317Y99769D01*
X211595Y100709D01*
X210655Y101431D01*
X210354Y101555D01*
D02*
G37*
G36*
X206417D02*
X206116Y101431D01*
X205176Y100709D01*
X204455Y99769D01*
X204002Y98675D01*
X203847Y97500D01*
Y96969D01*
X206417D01*
Y101555D01*
D02*
G37*
G36*
X170000Y105412D02*
X168456Y105260D01*
X166972Y104810D01*
X165604Y104079D01*
X164405Y103095D01*
X163421Y101896D01*
X162690Y100528D01*
X162240Y99044D01*
X162088Y97500D01*
X162240Y95956D01*
X162690Y94472D01*
X163421Y93104D01*
X164405Y91905D01*
X165604Y90921D01*
X166972Y90190D01*
X168456Y89740D01*
X170000Y89588D01*
X171544Y89740D01*
X173028Y90190D01*
X174396Y90921D01*
X175595Y91905D01*
X176579Y93104D01*
X177310Y94472D01*
X177760Y95956D01*
X177912Y97500D01*
X177760Y99044D01*
X177310Y100528D01*
X176579Y101896D01*
X175595Y103095D01*
X174396Y104079D01*
X173028Y104810D01*
X171544Y105260D01*
X170000Y105412D01*
D02*
G37*
G36*
X212925Y93032D02*
X210354D01*
Y88445D01*
X210655Y88569D01*
X211595Y89291D01*
X212317Y90231D01*
X212770Y91325D01*
X212925Y92500D01*
Y93032D01*
D02*
G37*
G36*
X206417D02*
X203847D01*
Y92500D01*
X204002Y91325D01*
X204455Y90231D01*
X205176Y89291D01*
X206116Y88569D01*
X206417Y88445D01*
Y93032D01*
D02*
G37*
G36*
X195000Y103016D02*
X193572Y102828D01*
X192242Y102277D01*
X191100Y101400D01*
X190223Y100258D01*
X189672Y98928D01*
X189484Y97500D01*
Y92500D01*
X189672Y91072D01*
X190223Y89742D01*
X191100Y88600D01*
X192242Y87723D01*
X193572Y87172D01*
X195000Y86984D01*
X196428Y87172D01*
X197758Y87723D01*
X198900Y88600D01*
X199777Y89742D01*
X200328Y91072D01*
X200516Y92500D01*
Y97500D01*
X200328Y98928D01*
X199777Y100258D01*
X198900Y101400D01*
X197758Y102277D01*
X196428Y102828D01*
X195000Y103016D01*
D02*
G37*
G36*
X238953Y87063D02*
X236968D01*
Y85079D01*
X238953D01*
Y87063D01*
D02*
G37*
G36*
X233032D02*
X231047D01*
Y85079D01*
X233032D01*
Y87063D01*
D02*
G37*
G36*
X229921Y88032D02*
X220079D01*
Y82994D01*
X213335D01*
X213187Y83187D01*
X212253Y83903D01*
X211167Y84354D01*
X210000Y84507D01*
X208834Y84354D01*
X207747Y83903D01*
X206813Y83187D01*
X206097Y82253D01*
X205646Y81166D01*
X205493Y80000D01*
X205646Y78834D01*
X206097Y77746D01*
X206813Y76813D01*
X207747Y76097D01*
X208834Y75647D01*
X210000Y75493D01*
X211167Y75647D01*
X212253Y76097D01*
X213187Y76813D01*
X213335Y77006D01*
X221890D01*
X222665Y77108D01*
X223387Y77407D01*
X224007Y77883D01*
X224313Y78189D01*
X229921D01*
Y88032D01*
D02*
G37*
G36*
X238953Y81142D02*
X236968D01*
Y79158D01*
X238953D01*
Y81142D01*
D02*
G37*
G36*
X233032D02*
X231047D01*
Y79158D01*
X233032D01*
Y81142D01*
D02*
G37*
G36*
X171968Y77901D02*
Y76968D01*
X172901D01*
X172496Y77496D01*
X171968Y77901D01*
D02*
G37*
G36*
X168032D02*
X167504Y77496D01*
X167099Y76968D01*
X168032D01*
Y77901D01*
D02*
G37*
G36*
X172901Y73032D02*
X171968D01*
Y72099D01*
X172496Y72504D01*
X172901Y73032D01*
D02*
G37*
G36*
X168032D02*
X167099D01*
X167504Y72504D01*
X168032Y72099D01*
Y73032D01*
D02*
G37*
G36*
X221969Y68588D02*
Y61968D01*
X226939D01*
X226806Y63322D01*
X226411Y64624D01*
X225769Y65824D01*
X224907Y66875D01*
X223855Y67738D01*
X222655Y68379D01*
X221969Y68588D01*
D02*
G37*
G36*
X218032D02*
X217345Y68379D01*
X216145Y67738D01*
X215093Y66875D01*
X214230Y65824D01*
X213589Y64624D01*
X213194Y63322D01*
X213061Y61968D01*
X218032D01*
Y68588D01*
D02*
G37*
G36*
X226939Y58031D02*
X221969D01*
Y51412D01*
X222655Y51621D01*
X223855Y52262D01*
X224907Y53125D01*
X225769Y54176D01*
X226411Y55376D01*
X226806Y56678D01*
X226939Y58031D01*
D02*
G37*
G36*
X218032D02*
X213061D01*
X213194Y56678D01*
X213589Y55376D01*
X214230Y54176D01*
X215093Y53125D01*
X216145Y52262D01*
X217345Y51621D01*
X218032Y51412D01*
Y58031D01*
D02*
G37*
%LPD*%
D10*
X135610Y160000D02*
D03*
X149390D02*
D03*
X163110D02*
D03*
X176890D02*
D03*
X73110Y30000D02*
D03*
X86890D02*
D03*
D11*
X235000Y96890D02*
D03*
Y83110D02*
D03*
X225000Y83110D02*
D03*
Y96890D02*
D03*
D12*
X95000Y5000D02*
D03*
Y19173D02*
D03*
X73740D02*
D03*
Y5000D02*
D03*
D13*
X221890Y80000D02*
X225000Y83110D01*
X210000Y80000D02*
X221890D01*
X235000Y96890D02*
X235000Y96890D01*
X225000Y96890D02*
X235000D01*
X135610Y145610D02*
Y160000D01*
X149390D02*
X163110D01*
X65000Y20000D02*
X72913D01*
X73740Y19173D01*
D14*
Y29370D01*
X52500Y85000D02*
X55000Y82500D01*
Y57500D02*
Y82500D01*
Y57500D02*
X57500Y55000D01*
X125000D01*
X42500Y95000D02*
X57500D01*
X60000Y92500D01*
Y62500D02*
Y92500D01*
Y62500D02*
X62500Y60000D01*
X130000D01*
X132500Y27500D02*
Y57500D01*
X130000Y60000D02*
X132500Y57500D01*
X130000Y200000D02*
X132500Y197500D01*
Y185000D02*
Y197500D01*
X97500Y21673D02*
Y27500D01*
X117500Y165000D02*
Y172500D01*
X120000Y175000D01*
X125000Y167500D02*
X127500Y170000D01*
X125000Y155000D02*
Y167500D01*
X122500Y152500D02*
X125000Y155000D01*
X115000Y152500D02*
X122500D01*
X112500Y150000D02*
X115000Y152500D01*
X120000Y175000D02*
X160000D01*
X127500Y170000D02*
X167500D01*
X112500Y140000D02*
Y150000D01*
X42500Y85000D02*
X52500D01*
X117500Y160000D02*
Y165000D01*
X115000Y157500D02*
X117500Y160000D01*
X105000Y157500D02*
X115000D01*
X102500Y155000D02*
X105000Y157500D01*
X102500Y145000D02*
Y155000D01*
X112500Y137500D02*
Y140000D01*
X110000Y135000D02*
X112500Y137500D01*
X102500Y135000D02*
X110000D01*
X140000Y205000D02*
X142500Y202500D01*
Y185000D02*
Y202500D01*
X160000Y175000D02*
X185000D01*
X187500Y177500D02*
Y185000D01*
X185000Y175000D02*
X187500Y177500D01*
X87500Y200000D02*
X130000D01*
X85000Y205000D02*
X140000D01*
X80000Y192500D02*
X87500Y200000D01*
X75000Y195000D02*
X85000Y205000D01*
X75000Y140000D02*
Y195000D01*
X72500Y137500D02*
X75000Y140000D01*
X42500Y115000D02*
X52500D01*
X55000Y117500D01*
X57500Y137500D02*
X72500D01*
X55000Y135000D02*
X57500Y137500D01*
X55000Y117500D02*
Y135000D01*
X42500Y105000D02*
X60000D01*
X62500Y107500D01*
X77500Y132500D02*
X80000Y135000D01*
Y192500D01*
X62500Y107500D02*
Y130000D01*
X65000Y132500D01*
X77500D01*
D15*
X187500Y60000D02*
X198346D01*
X180000Y52500D02*
X187500Y60000D01*
X170000Y52500D02*
X180000D01*
X170000Y127500D02*
Y141476D01*
Y127500D02*
X175000Y122500D01*
X198346D01*
D16*
X42500Y175000D02*
D03*
X102500D02*
D03*
Y165000D02*
D03*
X72500Y105000D02*
D03*
X82500D02*
D03*
Y85000D02*
D03*
X72500D02*
D03*
X102500Y145000D02*
D03*
Y135000D02*
D03*
Y125000D02*
D03*
Y115000D02*
D03*
Y105000D02*
D03*
Y95000D02*
D03*
Y85000D02*
D03*
Y75000D02*
D03*
Y65000D02*
D03*
Y45000D02*
D03*
X42500D02*
D03*
Y55000D02*
D03*
Y65000D02*
D03*
Y85000D02*
D03*
Y95000D02*
D03*
Y105000D02*
D03*
Y115000D02*
D03*
Y125000D02*
D03*
Y135000D02*
D03*
Y145000D02*
D03*
Y155000D02*
D03*
Y165000D02*
D03*
X135000Y100000D02*
D03*
Y110000D02*
D03*
Y120000D02*
D03*
D17*
X27500Y167657D02*
D03*
Y177500D02*
D03*
Y90000D02*
D03*
Y80158D02*
D03*
Y70315D02*
D03*
Y60472D02*
D03*
Y115472D02*
D03*
Y125315D02*
D03*
Y135158D02*
D03*
Y145000D02*
D03*
Y25157D02*
D03*
Y35000D02*
D03*
D18*
X170000Y141476D02*
D03*
Y52500D02*
D03*
D19*
Y97500D02*
D03*
D20*
X177657Y185000D02*
D03*
X187500D02*
D03*
X189842Y27500D02*
D03*
X180000D02*
D03*
X210157Y185000D02*
D03*
X220000D02*
D03*
X222342Y27500D02*
D03*
X212500D02*
D03*
X122500D02*
D03*
X132343D02*
D03*
X142185D02*
D03*
X152028D02*
D03*
X122972Y185000D02*
D03*
X132815D02*
D03*
X142657D02*
D03*
X152500D02*
D03*
D21*
X248740Y157500D02*
D03*
Y122500D02*
D03*
Y60000D02*
D03*
D22*
X220000Y157500D02*
D03*
Y122500D02*
D03*
Y60000D02*
D03*
D23*
X198346Y157500D02*
D03*
Y122500D02*
D03*
Y60000D02*
D03*
D24*
X195000Y95000D02*
D03*
X208386D02*
D03*
D25*
X251969Y200787D02*
D03*
X51181D02*
D03*
X51181Y11811D02*
D03*
X251969D02*
D03*
D26*
X210000Y80000D02*
D03*
X135000Y145000D02*
D03*
X82500Y45000D02*
D03*
X170000Y75000D02*
D03*
X125000Y55000D02*
D03*
X97500Y27500D02*
D03*
X90000Y165000D02*
D03*
X27500Y102500D02*
D03*
Y47500D02*
D03*
X165000Y27500D02*
D03*
Y185000D02*
D03*
X260000Y97500D02*
D03*
X65000Y20000D02*
D03*
X12500Y202500D02*
D03*
X167500Y170000D02*
D03*
X27500Y157500D02*
D03*
X72500Y115000D02*
D03*
D27*
X125000Y105000D02*
D03*
M02*
