G04 Layer_Color=16711935*
%FSLAX25Y25*%
%MOIN*%
G70*
G01*
G75*
%ADD10R,0.05906X0.05906*%
%ADD11R,0.05906X0.05906*%
%ADD16C,0.06000*%
%ADD17O,0.08000X0.06000*%
%ADD18O,0.09843X0.07874*%
%ADD19C,0.07874*%
%ADD20O,0.06000X0.08000*%
%ADD21C,0.11811*%
%ADD22O,0.11811X0.15748*%
%ADD23R,0.11811X0.15748*%
%ADD24O,0.07000X0.12000*%
%ADD25C,0.20945*%
%ADD26C,0.05000*%
%ADD27C,0.05906*%
%ADD28R,0.02362X0.04528*%
D10*
X53110Y65000D02*
D03*
X66890D02*
D03*
D11*
X145000Y91890D02*
D03*
Y78110D02*
D03*
X125000Y134390D02*
D03*
Y120610D02*
D03*
X70000Y41890D02*
D03*
Y28110D02*
D03*
D16*
X42500Y175000D02*
D03*
X102500D02*
D03*
Y165000D02*
D03*
X72500Y105000D02*
D03*
X82500D02*
D03*
Y85000D02*
D03*
X72500D02*
D03*
X102500Y145000D02*
D03*
Y135000D02*
D03*
Y125000D02*
D03*
Y115000D02*
D03*
Y105000D02*
D03*
Y95000D02*
D03*
Y85000D02*
D03*
Y75000D02*
D03*
Y65000D02*
D03*
Y45000D02*
D03*
X42500D02*
D03*
Y55000D02*
D03*
Y65000D02*
D03*
Y85000D02*
D03*
Y95000D02*
D03*
Y105000D02*
D03*
Y115000D02*
D03*
Y125000D02*
D03*
Y135000D02*
D03*
Y145000D02*
D03*
Y155000D02*
D03*
Y165000D02*
D03*
X135000Y100000D02*
D03*
Y110000D02*
D03*
Y120000D02*
D03*
D17*
X27500Y167657D02*
D03*
Y177500D02*
D03*
Y90000D02*
D03*
Y80158D02*
D03*
Y70315D02*
D03*
Y60472D02*
D03*
Y115472D02*
D03*
Y125315D02*
D03*
Y135158D02*
D03*
Y145000D02*
D03*
Y25157D02*
D03*
Y35000D02*
D03*
D18*
X170000Y141476D02*
D03*
Y52500D02*
D03*
D19*
Y97500D02*
D03*
D20*
X177657Y185000D02*
D03*
X187500D02*
D03*
X189842Y27500D02*
D03*
X180000D02*
D03*
X210157Y185000D02*
D03*
X220000D02*
D03*
X222342Y27500D02*
D03*
X212500D02*
D03*
X122500D02*
D03*
X132343D02*
D03*
X142185D02*
D03*
X152028D02*
D03*
X122972Y185000D02*
D03*
X132815D02*
D03*
X142657D02*
D03*
X152500D02*
D03*
D21*
X248740Y157500D02*
D03*
Y122500D02*
D03*
Y60000D02*
D03*
D22*
X220000Y157500D02*
D03*
Y122500D02*
D03*
Y60000D02*
D03*
D23*
X198346Y157500D02*
D03*
Y122500D02*
D03*
Y60000D02*
D03*
D24*
X195000Y95000D02*
D03*
X208386D02*
D03*
D25*
X251969Y200787D02*
D03*
X51181D02*
D03*
X51181Y11811D02*
D03*
X251969D02*
D03*
D26*
X210000Y80000D02*
D03*
X135000Y145000D02*
D03*
X82500Y45000D02*
D03*
X170000Y75000D02*
D03*
X125000Y55000D02*
D03*
X97500Y27500D02*
D03*
X90000Y165000D02*
D03*
X27500Y102500D02*
D03*
Y47500D02*
D03*
X165000Y27500D02*
D03*
Y185000D02*
D03*
X260000Y97500D02*
D03*
X65000Y20000D02*
D03*
X12500Y202500D02*
D03*
X167500Y170000D02*
D03*
X27500Y157500D02*
D03*
X72500Y115000D02*
D03*
D27*
X125000Y105000D02*
D03*
D28*
X53760Y51929D02*
D03*
X61240D02*
D03*
X57500Y43071D02*
D03*
M02*
