M48
;Layer_Color=9474304
;FILE_FORMAT=2:5
INCH,TZ
;TYPE=PLATED
T1F00S00C0.02800
T2F00S00C0.03000
T3F00S00C0.03150
T4F00S00C0.03543
T5F00S00C0.04000
T6F00S00C0.04331
T7F00S00C0.05512
;TYPE=NON_PLATED
T8F00S00C0.12598
%
T01
X92500Y205000
X152500Y240000
X200787Y275590
T02
X15000Y35472
Y45315
X40000
Y35472
X65000Y45000
X87500
Y35000
Y25000
Y15000
X117500Y25000
Y35000
Y45000
X147500
Y35000
Y25000
Y15000
X167500Y35000
Y44842
X195000
Y35000
X222500
Y44842
Y54685
Y64528
Y95000
X220000Y157500
Y167342
Y177185
Y187028
Y196870
Y206713
X147500Y145000
Y135000
Y125000
Y115000
Y105000
Y95000
Y85000
Y75000
Y65000
Y55000
X167500Y54685
Y64528
X195000
Y54685
Y95000
X167500
X117500Y85000
Y75000
Y65000
Y55000
X87500
Y65000
Y75000
Y85000
Y95000
Y105000
Y115000
Y125000
Y135000
Y145000
X40000Y65000
Y55158
X15000
Y65000
X27972Y232500
X37815
X47657
X47500Y257500
X37657
X27815
X15000Y300000
X57500Y232500
T03
X65000Y35157
X222500Y104842
X195000
X167500
X77500Y165000
X67500
X57500
X47500
X37500
X27500
X17500
X7500
Y215000
X17500
X27500
X37500
X47500
X15000Y290158
X57500Y215000
X67500
X77500
T04
X12500Y130000
Y140000
Y150000
X22500
Y140000
Y130000
X32500
Y140000
Y150000
X107500Y305000
X112500
X117500
T05
X47500Y327500
Y340886
X140610Y257500
X153996
T06
X35000Y280000
X45000Y310000
X95000
Y280000
T07
X133878Y324232
Y340768
X156122
Y324232
T08
X11811Y11811
X224410
X11811Y342520
X224410
M30
