G04 Layer_Color=65535*
%FSLAX25Y25*%
%MOIN*%
G70*
G01*
G75*
%ADD32C,0.01000*%
%ADD33C,0.00984*%
%ADD34C,0.00787*%
%ADD35C,0.01181*%
D32*
X234882Y342520D02*
X234835Y343515D01*
X234693Y344502D01*
X234458Y345470D01*
X234132Y346412D01*
X233718Y347318D01*
X233219Y348182D01*
X232641Y348993D01*
X231989Y349746D01*
X231267Y350434D01*
X230484Y351050D01*
X229646Y351589D01*
X228760Y352046D01*
X227835Y352416D01*
X226878Y352697D01*
X225900Y352886D01*
X224908Y352980D01*
X223911D01*
X222919Y352886D01*
X221940Y352697D01*
X220984Y352416D01*
X220059Y352046D01*
X219173Y351589D01*
X218335Y351050D01*
X217551Y350434D01*
X216830Y349746D01*
X216178Y348993D01*
X215599Y348182D01*
X215101Y347318D01*
X214687Y346412D01*
X214361Y345470D01*
X214126Y344502D01*
X213984Y343515D01*
X213937Y342520D01*
X213984Y341524D01*
X214126Y340538D01*
X214361Y339569D01*
X214687Y338628D01*
X215101Y337721D01*
X215599Y336858D01*
X216178Y336046D01*
X216830Y335293D01*
X217551Y334605D01*
X218335Y333989D01*
X219173Y333450D01*
X220059Y332994D01*
X220984Y332623D01*
X221940Y332343D01*
X222919Y332154D01*
X223911Y332059D01*
X224908D01*
X225900Y332154D01*
X226878Y332343D01*
X227835Y332623D01*
X228760Y332994D01*
X229646Y333450D01*
X230484Y333989D01*
X231267Y334605D01*
X231989Y335293D01*
X232641Y336046D01*
X233219Y336858D01*
X233718Y337721D01*
X234132Y338628D01*
X234458Y339569D01*
X234693Y340538D01*
X234835Y341524D01*
X234882Y342520D01*
Y11811D02*
X234835Y12807D01*
X234693Y13793D01*
X234458Y14761D01*
X234132Y15703D01*
X233718Y16610D01*
X233219Y17473D01*
X232641Y18285D01*
X231989Y19038D01*
X231267Y19726D01*
X230484Y20342D01*
X229646Y20880D01*
X228760Y21337D01*
X227835Y21708D01*
X226878Y21988D01*
X225900Y22177D01*
X224908Y22272D01*
X223911D01*
X222919Y22177D01*
X221940Y21988D01*
X220984Y21708D01*
X220059Y21337D01*
X219173Y20880D01*
X218335Y20342D01*
X217551Y19726D01*
X216830Y19038D01*
X216178Y18285D01*
X215599Y17473D01*
X215101Y16610D01*
X214687Y15703D01*
X214361Y14761D01*
X214126Y13793D01*
X213984Y12807D01*
X213937Y11811D01*
X213984Y10816D01*
X214126Y9829D01*
X214361Y8861D01*
X214687Y7919D01*
X215101Y7012D01*
X215599Y6149D01*
X216178Y5337D01*
X216830Y4584D01*
X217551Y3897D01*
X218335Y3280D01*
X219173Y2742D01*
X220059Y2285D01*
X220984Y1915D01*
X221940Y1634D01*
X222919Y1445D01*
X223911Y1350D01*
X224908D01*
X225900Y1445D01*
X226878Y1634D01*
X227835Y1915D01*
X228760Y2285D01*
X229646Y2742D01*
X230484Y3280D01*
X231267Y3897D01*
X231989Y4584D01*
X232641Y5337D01*
X233219Y6149D01*
X233718Y7012D01*
X234132Y7919D01*
X234458Y8861D01*
X234693Y9829D01*
X234835Y10816D01*
X234882Y11811D01*
X22284D02*
X22236Y12807D01*
X22094Y13793D01*
X21859Y14761D01*
X21533Y15703D01*
X21119Y16610D01*
X20621Y17473D01*
X20043Y18285D01*
X19390Y19038D01*
X18669Y19726D01*
X17886Y20342D01*
X17047Y20880D01*
X16161Y21337D01*
X15236Y21708D01*
X14280Y21988D01*
X13301Y22177D01*
X12309Y22272D01*
X11313D01*
X10321Y22177D01*
X9342Y21988D01*
X8386Y21708D01*
X7461Y21337D01*
X6575Y20880D01*
X5736Y20342D01*
X4953Y19726D01*
X4232Y19038D01*
X3579Y18285D01*
X3001Y17473D01*
X2503Y16610D01*
X2089Y15703D01*
X1763Y14761D01*
X1528Y13793D01*
X1386Y12807D01*
X1339Y11811D01*
X1386Y10816D01*
X1528Y9829D01*
X1763Y8861D01*
X2089Y7919D01*
X2503Y7012D01*
X3001Y6149D01*
X3579Y5337D01*
X4232Y4584D01*
X4953Y3897D01*
X5736Y3280D01*
X6575Y2742D01*
X7461Y2285D01*
X8386Y1915D01*
X9342Y1634D01*
X10321Y1445D01*
X11313Y1350D01*
X12309D01*
X13301Y1445D01*
X14280Y1634D01*
X15236Y1915D01*
X16161Y2285D01*
X17047Y2742D01*
X17886Y3280D01*
X18669Y3897D01*
X19390Y4584D01*
X20043Y5337D01*
X20621Y6149D01*
X21119Y7012D01*
X21533Y7919D01*
X21859Y8861D01*
X22094Y9829D01*
X22236Y10816D01*
X22284Y11811D01*
Y342520D02*
X22236Y343515D01*
X22094Y344502D01*
X21859Y345470D01*
X21533Y346412D01*
X21119Y347318D01*
X20621Y348182D01*
X20043Y348993D01*
X19390Y349746D01*
X18669Y350434D01*
X17886Y351050D01*
X17047Y351589D01*
X16161Y352046D01*
X15236Y352416D01*
X14280Y352697D01*
X13301Y352886D01*
X12309Y352980D01*
X11313D01*
X10321Y352886D01*
X9342Y352697D01*
X8386Y352416D01*
X7461Y352046D01*
X6575Y351589D01*
X5736Y351050D01*
X4953Y350434D01*
X4232Y349746D01*
X3579Y348993D01*
X3001Y348182D01*
X2503Y347318D01*
X2089Y346412D01*
X1763Y345470D01*
X1528Y344502D01*
X1386Y343515D01*
X1339Y342520D01*
X1386Y341524D01*
X1528Y340538D01*
X1763Y339569D01*
X2089Y338628D01*
X2503Y337721D01*
X3001Y336858D01*
X3579Y336046D01*
X4232Y335293D01*
X4953Y334605D01*
X5736Y333989D01*
X6575Y333450D01*
X7461Y332994D01*
X8386Y332623D01*
X9342Y332343D01*
X10321Y332154D01*
X11313Y332059D01*
X12309D01*
X13301Y332154D01*
X14280Y332343D01*
X15236Y332623D01*
X16161Y332994D01*
X17047Y333450D01*
X17886Y333989D01*
X18669Y334605D01*
X19390Y335293D01*
X20043Y336046D01*
X20621Y336858D01*
X21119Y337721D01*
X21533Y338628D01*
X21859Y339569D01*
X22094Y340538D01*
X22236Y341524D01*
X22284Y342520D01*
X163445Y257500D02*
X163414Y258504D01*
X163320Y259503D01*
X163165Y260495D01*
X162948Y261475D01*
X162670Y262440D01*
X162333Y263386D01*
X161938Y264309D01*
X161487Y265206D01*
X160980Y266073D01*
X160421Y266906D01*
X159811Y267704D01*
X159152Y268462D01*
X158448Y269177D01*
X157700Y269847D01*
X156912Y270470D01*
X156088Y271042D01*
X155229Y271562D01*
X154339Y272028D01*
X153422Y272437D01*
X152482Y272789D01*
X151521Y273081D01*
X150545Y273313D01*
X149555Y273484D01*
X148557Y273593D01*
X147554Y273640D01*
X146550Y273624D01*
X145549Y273546D01*
X144555Y273406D01*
X143572Y273204D01*
X142602Y272942D01*
X141651Y272620D01*
X140722Y272239D01*
X139819Y271802D01*
X138944Y271309D01*
X138102Y270762D01*
X137295Y270165D01*
X136527Y269518D01*
X135801Y268825D01*
X135119Y268088D01*
X134484Y267310D01*
X133899Y266494D01*
X133366Y265643D01*
X132887Y264761D01*
X132463Y263851D01*
X132097Y262916D01*
X131790Y261960D01*
X131543Y260987D01*
X131356Y260000D01*
X131232Y259004D01*
X131169Y258002D01*
Y256998D01*
X131232Y255996D01*
X131356Y255000D01*
X131543Y254013D01*
X131790Y253040D01*
X132097Y252084D01*
X132463Y251149D01*
X132887Y250239D01*
X133366Y249357D01*
X133899Y248506D01*
X134484Y247690D01*
X135119Y246912D01*
X135801Y246175D01*
X136527Y245482D01*
X137295Y244835D01*
X138102Y244238D01*
X138944Y243691D01*
X139819Y243198D01*
X140723Y242761D01*
X141651Y242380D01*
X142603Y242058D01*
X143572Y241795D01*
X144555Y241594D01*
X145549Y241454D01*
X146550Y241376D01*
X147554Y241360D01*
X148557Y241407D01*
X149555Y241516D01*
X150545Y241687D01*
X151521Y241919D01*
X152482Y242212D01*
X153422Y242563D01*
X154339Y242972D01*
X155229Y243438D01*
X156088Y243958D01*
X156913Y244530D01*
X157700Y245153D01*
X158448Y245823D01*
X159152Y246538D01*
X159811Y247296D01*
X160421Y248094D01*
X160980Y248927D01*
X161487Y249794D01*
X161938Y250691D01*
X162333Y251614D01*
X162670Y252560D01*
X162948Y253525D01*
X163165Y254505D01*
X163320Y255497D01*
X163414Y256497D01*
X163445Y257500D01*
X63642Y334193D02*
X63611Y335196D01*
X63517Y336196D01*
X63361Y337188D01*
X63145Y338168D01*
X62867Y339133D01*
X62530Y340079D01*
X62135Y341002D01*
X61684Y341899D01*
X61177Y342766D01*
X60618Y343599D01*
X60008Y344397D01*
X59349Y345155D01*
X58645Y345870D01*
X57897Y346540D01*
X57109Y347163D01*
X56284Y347735D01*
X55426Y348255D01*
X54536Y348721D01*
X53619Y349130D01*
X52679Y349481D01*
X51718Y349774D01*
X50741Y350006D01*
X49752Y350177D01*
X48754Y350286D01*
X47751Y350333D01*
X46747Y350317D01*
X45746Y350239D01*
X44752Y350099D01*
X43768Y349897D01*
X42799Y349635D01*
X41848Y349313D01*
X40919Y348932D01*
X40016Y348495D01*
X39141Y348002D01*
X38299Y347455D01*
X37492Y346858D01*
X36724Y346211D01*
X35998Y345518D01*
X35316Y344781D01*
X34681Y344003D01*
X34096Y343187D01*
X33563Y342336D01*
X33084Y341454D01*
X32660Y340544D01*
X32294Y339609D01*
X31987Y338653D01*
X31739Y337680D01*
X31553Y336693D01*
X31429Y335697D01*
X31366Y334695D01*
Y333691D01*
X31429Y332689D01*
X31553Y331693D01*
X31739Y330706D01*
X31987Y329733D01*
X32294Y328777D01*
X32660Y327842D01*
X33084Y326932D01*
X33563Y326050D01*
X34096Y325199D01*
X34681Y324383D01*
X35316Y323605D01*
X35998Y322868D01*
X36724Y322175D01*
X37492Y321528D01*
X38299Y320931D01*
X39141Y320384D01*
X40016Y319891D01*
X40919Y319454D01*
X41848Y319073D01*
X42799Y318751D01*
X43769Y318488D01*
X44752Y318287D01*
X45746Y318147D01*
X46747Y318069D01*
X47751Y318053D01*
X48754Y318100D01*
X49752Y318209D01*
X50741Y318380D01*
X51718Y318612D01*
X52679Y318904D01*
X53619Y319256D01*
X54536Y319665D01*
X55426Y320131D01*
X56284Y320651D01*
X57109Y321223D01*
X57897Y321846D01*
X58645Y322516D01*
X59349Y323231D01*
X60008Y323989D01*
X60618Y324786D01*
X61177Y325620D01*
X61684Y326487D01*
X62135Y327384D01*
X62530Y328307D01*
X62867Y329253D01*
X63145Y330218D01*
X63362Y331198D01*
X63517Y332190D01*
X63611Y333190D01*
X63642Y334193D01*
X78740Y200787D02*
X78616Y201766D01*
X78253Y202684D01*
X77673Y203483D01*
X76913Y204112D01*
X76020Y204532D01*
X75050Y204717D01*
X74065Y204655D01*
X73127Y204350D01*
X72294Y203821D01*
X71618Y203101D01*
X71143Y202237D01*
X70897Y201281D01*
Y200294D01*
X71143Y199338D01*
X71618Y198473D01*
X72294Y197754D01*
X73127Y197225D01*
X74065Y196920D01*
X75050Y196858D01*
X76020Y197043D01*
X76913Y197463D01*
X77673Y198092D01*
X78253Y198891D01*
X78616Y199808D01*
X78740Y200787D01*
X215413Y85354D02*
Y114488D01*
Y85354D02*
X234705D01*
Y114488D01*
X215413D02*
X234705D01*
X160413Y85354D02*
Y114488D01*
Y85354D02*
X179705D01*
Y114488D01*
X160413D02*
X179705D01*
X187913Y85354D02*
Y114488D01*
Y85354D02*
X207205D01*
Y114488D01*
X187913D02*
X207205D01*
X2500Y210000D02*
X82500D01*
X2500D02*
Y220000D01*
X82500D01*
Y210000D02*
Y220000D01*
X2500Y160000D02*
X82500D01*
X2500D02*
Y170000D01*
X82500D01*
Y160000D02*
Y170000D01*
X29200Y274950D02*
Y315050D01*
X100800D01*
Y274950D02*
Y315050D01*
X29200Y274950D02*
X100800D01*
X116171Y184528D02*
Y204213D01*
Y184528D02*
X135856D01*
Y202244D01*
X133887Y204213D02*
X135856Y202244D01*
X116171Y204213D02*
X133887D01*
X148671Y184528D02*
Y204213D01*
Y184528D02*
X168356D01*
Y202244D01*
X166387Y204213D02*
X168356Y202244D01*
X148671Y204213D02*
X166387D01*
X181171Y184528D02*
Y204213D01*
Y184528D02*
X200856D01*
Y202244D01*
X198887Y204213D02*
X200856Y202244D01*
X181171Y204213D02*
X198887D01*
X22087Y280512D02*
Y309646D01*
X2795D02*
X22087D01*
X2795Y280512D02*
Y309646D01*
Y280512D02*
X22087D01*
X2795Y74646D02*
X22087D01*
X2795Y25827D02*
Y74646D01*
Y25827D02*
X22087D01*
Y74646D01*
X27795D02*
X47087D01*
X27795Y25827D02*
Y74646D01*
Y25827D02*
X47087D01*
Y74646D01*
X72087Y25512D02*
Y54646D01*
X52795D02*
X72087D01*
X52795Y25512D02*
Y54646D01*
Y25512D02*
X72087D01*
X187913Y25354D02*
X207205D01*
Y74173D01*
X187913D02*
X207205D01*
X187913Y25354D02*
Y74173D01*
X160413Y25354D02*
X179705D01*
Y74173D01*
X160413D02*
X179705D01*
X160413Y25354D02*
Y74173D01*
X215413Y25354D02*
X234705D01*
Y74173D01*
X215413D02*
X234705D01*
X215413Y25354D02*
Y74173D01*
X82500Y10000D02*
Y150000D01*
Y10000D02*
X152500D01*
Y150000D01*
X82500D02*
X152500D01*
X212913Y147854D02*
X232205D01*
Y216358D01*
X212913D02*
X232205D01*
X212913Y147854D02*
Y216358D01*
X57146Y250413D02*
Y269705D01*
X18169D02*
X57146D01*
X18169Y250413D02*
Y269705D01*
Y250413D02*
X57146D01*
X18327Y225413D02*
X67146D01*
X18327D02*
Y244705D01*
X67146D01*
Y225413D02*
Y244705D01*
X15748Y177165D02*
Y200787D01*
Y177165D02*
X31496D01*
Y200787D01*
X15748D02*
X31496D01*
X60000Y263498D02*
Y257500D01*
X62999D01*
X63999Y258500D01*
Y262498D01*
X62999Y263498D01*
X60000D01*
X65998Y261499D02*
Y258500D01*
X66998Y257500D01*
X69997D01*
Y256500D01*
X68997Y255501D01*
X67997D01*
X69997Y257500D02*
Y261499D01*
X71996Y257500D02*
Y261499D01*
X74995D01*
X75995Y260499D01*
Y257500D01*
X78994Y261499D02*
X80993D01*
X81993Y260499D01*
Y257500D01*
X78994D01*
X77994Y258500D01*
X78994Y259499D01*
X81993D01*
X100000Y105998D02*
X103999D01*
X101999D01*
Y100000D01*
X108997D02*
X106998D01*
X105998Y101000D01*
Y102999D01*
X106998Y103999D01*
X108997D01*
X109997Y102999D01*
Y101999D01*
X105998D01*
X114995Y100000D02*
X112996D01*
X111996Y101000D01*
Y102999D01*
X112996Y103999D01*
X114995D01*
X115995Y102999D01*
Y101999D01*
X111996D01*
X117994Y100000D02*
Y103999D01*
X120993D01*
X121993Y102999D01*
Y100000D01*
X123992D02*
X126991D01*
X127991Y101000D01*
X126991Y101999D01*
X124992D01*
X123992Y102999D01*
X124992Y103999D01*
X127991D01*
X129990D02*
Y101000D01*
X130990Y100000D01*
X133989D01*
Y99000D01*
X132989Y98001D01*
X131990D01*
X133989Y100000D02*
Y103999D01*
X2500Y77500D02*
X5499D01*
X6499Y78500D01*
X5499Y79499D01*
X3500D01*
X2500Y80499D01*
X3500Y81499D01*
X6499D01*
X9498Y77500D02*
X11497D01*
X12497Y78500D01*
Y80499D01*
X11497Y81499D01*
X9498D01*
X8498Y80499D01*
Y78500D01*
X9498Y77500D01*
X14496Y76500D02*
X18495D01*
X23493Y77500D02*
Y83498D01*
X20494Y80499D01*
X24493D01*
X27500Y77500D02*
X30499D01*
X31499Y78500D01*
X30499Y79499D01*
X28500D01*
X27500Y80499D01*
X28500Y81499D01*
X31499D01*
X34498Y77500D02*
X36497D01*
X37497Y78500D01*
Y80499D01*
X36497Y81499D01*
X34498D01*
X33498Y80499D01*
Y78500D01*
X34498Y77500D01*
X39496Y76500D02*
X43495D01*
X45494Y82498D02*
X46494Y83498D01*
X48493D01*
X49493Y82498D01*
Y81499D01*
X48493Y80499D01*
X47493D01*
X48493D01*
X49493Y79499D01*
Y78500D01*
X48493Y77500D01*
X46494D01*
X45494Y78500D01*
X185000Y77500D02*
X187999D01*
X188999Y78500D01*
X187999Y79499D01*
X186000D01*
X185000Y80499D01*
X186000Y81499D01*
X188999D01*
X191998Y77500D02*
X193997D01*
X194997Y78500D01*
Y80499D01*
X193997Y81499D01*
X191998D01*
X190998Y80499D01*
Y78500D01*
X191998Y77500D01*
X196996Y76500D02*
X200995D01*
X206993Y77500D02*
X202994D01*
X206993Y81499D01*
Y82498D01*
X205993Y83498D01*
X203994D01*
X202994Y82498D01*
X160000Y77500D02*
X162999D01*
X163999Y78500D01*
X162999Y79499D01*
X161000D01*
X160000Y80499D01*
X161000Y81499D01*
X163999D01*
X166998Y77500D02*
X168997D01*
X169997Y78500D01*
Y80499D01*
X168997Y81499D01*
X166998D01*
X165998Y80499D01*
Y78500D01*
X166998Y77500D01*
X171996Y76500D02*
X175995D01*
X177994Y77500D02*
X179993D01*
X178994D01*
Y83498D01*
X177994Y82498D01*
X217500Y83498D02*
X219499D01*
X218500D01*
Y77500D01*
X217500D01*
X219499D01*
X226497D02*
X222498D01*
X226497Y81499D01*
Y82498D01*
X225497Y83498D01*
X223498D01*
X222498Y82498D01*
X232495D02*
X231495Y83498D01*
X229496D01*
X228496Y82498D01*
Y78500D01*
X229496Y77500D01*
X231495D01*
X232495Y78500D01*
X204002Y162500D02*
Y164499D01*
Y163500D01*
X210000D01*
Y162500D01*
Y164499D01*
X205002Y171497D02*
X204002Y170497D01*
Y168498D01*
X205002Y167498D01*
X206001D01*
X207001Y168498D01*
Y170497D01*
X208001Y171497D01*
X209000D01*
X210000Y170497D01*
Y168498D01*
X209000Y167498D01*
X204002Y173496D02*
X210000D01*
Y176496D01*
X209000Y177495D01*
X208001D01*
X207001Y176496D01*
Y173496D01*
Y176496D01*
X206001Y177495D01*
X205002D01*
X204002Y176496D01*
Y173496D01*
X216535Y124108D02*
Y118110D01*
Y120110D01*
X220534Y124108D01*
X217535Y121109D01*
X220534Y118110D01*
X222533D02*
X224533D01*
X223533D01*
Y124108D01*
X222533Y123109D01*
X188976Y124108D02*
Y118110D01*
Y120110D01*
X192975Y124108D01*
X189976Y121109D01*
X192975Y118110D01*
X198973D02*
X194974D01*
X198973Y122109D01*
Y123109D01*
X197974Y124108D01*
X195974D01*
X194974Y123109D01*
X161417Y124108D02*
Y118110D01*
Y120110D01*
X165416Y124108D01*
X162417Y121109D01*
X165416Y118110D01*
X167415Y123109D02*
X168415Y124108D01*
X170414D01*
X171414Y123109D01*
Y122109D01*
X170414Y121109D01*
X169415D01*
X170414D01*
X171414Y120110D01*
Y119110D01*
X170414Y118110D01*
X168415D01*
X167415Y119110D01*
X162109Y277498D02*
X161109Y278498D01*
X159110D01*
X158110Y277498D01*
Y273500D01*
X159110Y272500D01*
X161109D01*
X162109Y273500D01*
X164108Y272500D02*
X166108D01*
X165108D01*
Y278498D01*
X164108Y277498D01*
X169107D02*
X170106Y278498D01*
X172106D01*
X173105Y277498D01*
Y273500D01*
X172106Y272500D01*
X170106D01*
X169107Y273500D01*
Y277498D01*
X3937Y230408D02*
Y225409D01*
X4937Y224410D01*
X6936D01*
X7936Y225409D01*
Y230408D01*
X9935Y224410D02*
X11934D01*
X10935D01*
Y230408D01*
X9935Y229408D01*
X15000Y107500D02*
X9002D01*
X11001Y109499D01*
X9002Y111499D01*
X15000D01*
X10002Y117497D02*
X9002Y116497D01*
Y114498D01*
X10002Y113498D01*
X11001D01*
X12001Y114498D01*
Y116497D01*
X13001Y117497D01*
X14000D01*
X15000Y116497D01*
Y114498D01*
X14000Y113498D01*
X15000Y119496D02*
Y121495D01*
Y120496D01*
X9002D01*
X10002Y119496D01*
X25000Y107500D02*
X19002D01*
X21001Y109499D01*
X19002Y111499D01*
X25000D01*
X20002Y117497D02*
X19002Y116497D01*
Y114498D01*
X20002Y113498D01*
X21001D01*
X22001Y114498D01*
Y116497D01*
X23001Y117497D01*
X24000D01*
X25000Y116497D01*
Y114498D01*
X24000Y113498D01*
X25000Y123495D02*
Y119496D01*
X21001Y123495D01*
X20002D01*
X19002Y122495D01*
Y120496D01*
X20002Y119496D01*
X35000Y107500D02*
X29002D01*
X31001Y109499D01*
X29002Y111499D01*
X35000D01*
X30002Y117497D02*
X29002Y116497D01*
Y114498D01*
X30002Y113498D01*
X31001D01*
X32001Y114498D01*
Y116497D01*
X33001Y117497D01*
X34000D01*
X35000Y116497D01*
Y114498D01*
X34000Y113498D01*
X30002Y119496D02*
X29002Y120496D01*
Y122495D01*
X30002Y123495D01*
X31001D01*
X32001Y122495D01*
Y121495D01*
Y122495D01*
X33001Y123495D01*
X34000D01*
X35000Y122495D01*
Y120496D01*
X34000Y119496D01*
X2500Y312500D02*
Y318498D01*
X5499D01*
X6499Y317498D01*
Y315499D01*
X5499Y314499D01*
X2500D01*
X8498Y316499D02*
Y313500D01*
X9498Y312500D01*
X12497D01*
Y316499D01*
X14496Y312500D02*
Y316499D01*
X15496D01*
X16496Y315499D01*
Y312500D01*
Y315499D01*
X17495Y316499D01*
X18495Y315499D01*
Y312500D01*
X20494Y310501D02*
Y316499D01*
X23493D01*
X24493Y315499D01*
Y313500D01*
X23493Y312500D01*
X20494D01*
X26492D02*
X28492D01*
X27492D01*
Y318498D01*
X26492Y317498D01*
X50000Y55501D02*
Y61499D01*
X52999D01*
X53999Y60499D01*
Y58500D01*
X52999Y57500D01*
X50000D01*
X55998Y61499D02*
Y57500D01*
Y59499D01*
X56998Y60499D01*
X57997Y61499D01*
X58997D01*
X62996Y57500D02*
X64995D01*
X65995Y58500D01*
Y60499D01*
X64995Y61499D01*
X62996D01*
X61996Y60499D01*
Y58500D01*
X62996Y57500D01*
X67994Y55501D02*
Y61499D01*
X70993D01*
X71993Y60499D01*
Y58500D01*
X70993Y57500D01*
X67994D01*
X73992Y61499D02*
Y58500D01*
X74992Y57500D01*
X77991D01*
Y61499D01*
X73999Y237498D02*
X72999Y238498D01*
X71000D01*
X70000Y237498D01*
Y236499D01*
X71000Y235499D01*
X72999D01*
X73999Y234499D01*
Y233500D01*
X72999Y232500D01*
X71000D01*
X70000Y233500D01*
X75998Y238498D02*
Y232500D01*
X78997D01*
X79997Y233500D01*
Y234499D01*
X78997Y235499D01*
X75998D01*
X78997D01*
X79997Y236499D01*
Y237498D01*
X78997Y238498D01*
X75998D01*
X85995Y237498D02*
X84995Y238498D01*
X82996D01*
X81996Y237498D01*
Y236499D01*
X82996Y235499D01*
X84995D01*
X85995Y234499D01*
Y233500D01*
X84995Y232500D01*
X82996D01*
X81996Y233500D01*
X87994Y231500D02*
X91993D01*
X93992Y232500D02*
X95992D01*
X94992D01*
Y238498D01*
X93992Y237498D01*
X172500Y332500D02*
Y336499D01*
X174499Y338498D01*
X176499Y336499D01*
Y332500D01*
Y335499D01*
X172500D01*
X178498Y332500D02*
X180497D01*
X179498D01*
Y338498D01*
X178498D01*
X183496Y332500D02*
X185496D01*
X184496D01*
Y336499D01*
X183496D01*
X188495Y332500D02*
Y336499D01*
X189495D01*
X190494Y335499D01*
Y332500D01*
Y335499D01*
X191494Y336499D01*
X192493Y335499D01*
Y332500D01*
X40002Y127500D02*
X39002Y128500D01*
Y130499D01*
X40002Y131499D01*
X44000D01*
X45000Y130499D01*
Y128500D01*
X44000Y127500D01*
X40002D01*
X45000Y139496D02*
X41001Y143495D01*
X45000Y151492D02*
Y153492D01*
Y152492D01*
X39002D01*
X40002Y151492D01*
X90551Y159541D02*
Y154543D01*
X91551Y153543D01*
X93550D01*
X94550Y154543D01*
Y159541D01*
X100548Y158542D02*
X99548Y159541D01*
X97549D01*
X96549Y158542D01*
Y157542D01*
X97549Y156542D01*
X99548D01*
X100548Y155543D01*
Y154543D01*
X99548Y153543D01*
X97549D01*
X96549Y154543D01*
X102547Y159541D02*
Y153543D01*
X105546D01*
X106546Y154543D01*
Y155543D01*
X105546Y156542D01*
X102547D01*
X105546D01*
X106546Y157542D01*
Y158542D01*
X105546Y159541D01*
X102547D01*
X114543Y157542D02*
X116543Y153543D01*
X118542Y157542D01*
D33*
X101169Y299602D02*
X100431Y300029D01*
Y299176D01*
X101169Y299602D01*
D34*
X121046Y299016D02*
X121575Y299852D01*
X122021Y300735D01*
X122383Y301656D01*
X122655Y302607D01*
X122836Y303579D01*
X122924Y304565D01*
X122918Y305554D01*
X122819Y306538D01*
X122627Y307509D01*
X122344Y308456D01*
X121972Y309373D01*
X121515Y310251D01*
X120978Y311081D01*
X120363Y311857D01*
X119679Y312571D01*
X118930Y313216D01*
X118122Y313789D01*
X117265Y314282D01*
X116364Y314691D01*
X115429Y315014D01*
X114467Y315246D01*
X113488Y315386D01*
X112500Y315433D01*
X111512Y315386D01*
X110533Y315246D01*
X109571Y315014D01*
X108636Y314691D01*
X107735Y314282D01*
X106878Y313789D01*
X106070Y313216D01*
X105321Y312571D01*
X104636Y311857D01*
X104022Y311081D01*
X103484Y310251D01*
X103028Y309373D01*
X102656Y308456D01*
X102373Y307509D01*
X102181Y306538D01*
X102082Y305554D01*
X102076Y304565D01*
X102164Y303579D01*
X102345Y302607D01*
X102617Y301656D01*
X102979Y300735D01*
X103425Y299852D01*
X103954Y299016D01*
X188937Y237028D02*
X196417D01*
X188937Y227972D02*
X196417D01*
Y237028D01*
X172402Y229547D02*
Y235453D01*
X174370Y237028D02*
X181063D01*
X172402Y229547D02*
X174370Y227972D01*
X172402Y235453D02*
X174370Y237028D01*
X174370Y227972D02*
X181063D01*
X188937Y224528D02*
X196417D01*
X188937Y215472D02*
X196417D01*
Y224528D01*
X172402Y217047D02*
Y222953D01*
X174370Y224528D02*
X181063D01*
X172402Y217047D02*
X174370Y215472D01*
X172402Y222953D02*
X174370Y224528D01*
X174370Y215472D02*
X181063D01*
X7500Y155000D02*
X17500D01*
Y125000D02*
Y155000D01*
X7500Y125000D02*
X17500D01*
X7500D02*
Y155000D01*
X17500D02*
X27500D01*
Y125000D02*
Y155000D01*
X17500Y125000D02*
X27500D01*
X17500D02*
Y155000D01*
X27500D02*
X37500D01*
Y125000D02*
Y155000D01*
X27500Y125000D02*
X37500D01*
X27500D02*
Y155000D01*
X88583Y335472D02*
X96063D01*
X88583Y344528D02*
X96063D01*
X88583Y335472D02*
Y344528D01*
X112598Y337047D02*
Y342953D01*
X103937Y335472D02*
X110630D01*
Y344528D02*
X112598Y342953D01*
X110630Y335472D02*
X112598Y337047D01*
X103937Y344528D02*
X110630D01*
X88583Y322972D02*
X96063D01*
X88583Y332028D02*
X96063D01*
X88583Y322972D02*
Y332028D01*
X112598Y324547D02*
Y330453D01*
X103937Y322972D02*
X110630D01*
Y332028D02*
X112598Y330453D01*
X110630Y322972D02*
X112598Y324547D01*
X103937Y332028D02*
X110630D01*
X103954Y299016D02*
X121046D01*
D35*
X125315Y352185D02*
X164685D01*
X125315Y312815D02*
Y352185D01*
X164685Y316752D02*
Y352185D01*
X160748Y312815D02*
X164685Y316752D01*
X125315Y312815D02*
X160748D01*
M02*
