G04 Layer_Physical_Order=1*
G04 Layer_Color=255*
%FSLAX25Y25*%
%MOIN*%
G70*
G01*
G75*
%ADD10R,0.05906X0.05906*%
%ADD11R,0.06693X0.07874*%
%ADD12C,0.01969*%
%ADD13C,0.03937*%
%ADD14O,0.08000X0.06000*%
%ADD15C,0.20945*%
%ADD16C,0.06000*%
%ADD17C,0.08000*%
%ADD18C,0.07874*%
%ADD19C,0.05906*%
%ADD20R,0.05906X0.05906*%
%ADD21O,0.03937X0.07874*%
%ADD22O,0.03937X0.07874*%
%ADD23O,0.07000X0.12000*%
%ADD24O,0.11811X0.07874*%
%ADD25R,0.11811X0.07874*%
%ADD26O,0.12000X0.07000*%
%ADD27O,0.06000X0.08000*%
%ADD28C,0.05000*%
G36*
X141732Y318898D02*
X137524D01*
X137346Y319398D01*
X138096Y320014D01*
X138838Y320918D01*
X139390Y321949D01*
X139729Y323068D01*
X139844Y324232D01*
X139729Y325396D01*
X139390Y326515D01*
X138838Y327547D01*
X138096Y328451D01*
X137192Y329193D01*
X136161Y329744D01*
X135042Y330083D01*
X133878Y330198D01*
X131285D01*
X130779Y330407D01*
X130000Y330510D01*
X111843D01*
Y332453D01*
X101937D01*
Y322547D01*
X111843D01*
Y324490D01*
X123742D01*
X123975Y324232D01*
X124090Y323068D01*
X124429Y321949D01*
X124981Y320918D01*
X125723Y320014D01*
X126473Y319398D01*
X126295Y318898D01*
X62992D01*
Y233920D01*
X62492Y233888D01*
X62371Y234805D01*
X61867Y236022D01*
X61066Y237066D01*
X60022Y237867D01*
X58805Y238371D01*
X57500Y238543D01*
X56195Y238371D01*
X54978Y237867D01*
X53934Y237066D01*
X53132Y236022D01*
X52849Y235338D01*
X52308D01*
X52025Y236022D01*
X51223Y237066D01*
X50179Y237867D01*
X48963Y238371D01*
X47657Y238543D01*
X46352Y238371D01*
X45136Y237867D01*
X44091Y237066D01*
X43290Y236022D01*
X43007Y235338D01*
X42466D01*
X42182Y236022D01*
X41381Y237066D01*
X40336Y237867D01*
X39120Y238371D01*
X37815Y238543D01*
X36510Y238371D01*
X35293Y237867D01*
X34249Y237066D01*
X33448Y236022D01*
X33164Y235338D01*
X32623D01*
X32340Y236022D01*
X31539Y237066D01*
X30494Y237867D01*
X29278Y238371D01*
X27972Y238543D01*
X26667Y238371D01*
X25451Y237867D01*
X24406Y237066D01*
X23605Y236022D01*
X23101Y234805D01*
X22929Y233500D01*
Y231500D01*
X23101Y230195D01*
X23605Y228978D01*
X24406Y227934D01*
X25451Y227133D01*
X26667Y226629D01*
X27972Y226457D01*
X29278Y226629D01*
X30494Y227133D01*
X31539Y227934D01*
X32340Y228978D01*
X32623Y229662D01*
X33164D01*
X33448Y228978D01*
X34249Y227934D01*
X35293Y227133D01*
X36510Y226629D01*
X37815Y226457D01*
X39120Y226629D01*
X40336Y227133D01*
X41381Y227934D01*
X42182Y228978D01*
X42466Y229662D01*
X43007D01*
X43290Y228978D01*
X44091Y227934D01*
X45136Y227133D01*
X46352Y226629D01*
X47657Y226457D01*
X48963Y226629D01*
X50179Y227133D01*
X51223Y227934D01*
X52025Y228978D01*
X52308Y229662D01*
X52849D01*
X53132Y228978D01*
X53934Y227934D01*
X54978Y227133D01*
X56195Y226629D01*
X57500Y226457D01*
X58805Y226629D01*
X60022Y227133D01*
X61066Y227934D01*
X61867Y228978D01*
X62371Y230195D01*
X62492Y231113D01*
X62992Y231080D01*
Y217183D01*
X62771Y216648D01*
X62229D01*
X61867Y217522D01*
X61066Y218566D01*
X60022Y219368D01*
X58805Y219871D01*
X57500Y220043D01*
X56195Y219871D01*
X54978Y219368D01*
X53934Y218566D01*
X53132Y217522D01*
X52771Y216648D01*
X52229D01*
X51868Y217522D01*
X51066Y218566D01*
X50022Y219368D01*
X48805Y219871D01*
X47500Y220043D01*
X46195Y219871D01*
X44978Y219368D01*
X43934Y218566D01*
X43132Y217522D01*
X42771Y216648D01*
X42229D01*
X41868Y217522D01*
X41066Y218566D01*
X40022Y219368D01*
X38805Y219871D01*
X37500Y220043D01*
X36195Y219871D01*
X34978Y219368D01*
X33934Y218566D01*
X33132Y217522D01*
X32771Y216648D01*
X32229D01*
X31868Y217522D01*
X31066Y218566D01*
X30022Y219368D01*
X28805Y219871D01*
X27500Y220043D01*
X26195Y219871D01*
X24978Y219368D01*
X23934Y218566D01*
X23133Y217522D01*
X22771Y216648D01*
X22229D01*
X21868Y217522D01*
X21066Y218566D01*
X20022Y219368D01*
X18805Y219871D01*
X18500Y219912D01*
Y215000D01*
Y210088D01*
X18805Y210129D01*
X20022Y210632D01*
X21066Y211434D01*
X21868Y212478D01*
X22229Y213352D01*
X22771D01*
X23133Y212478D01*
X23934Y211434D01*
X24978Y210632D01*
X26195Y210129D01*
X27500Y209957D01*
X28805Y210129D01*
X30022Y210632D01*
X31066Y211434D01*
X31868Y212478D01*
X32229Y213352D01*
X32771D01*
X33132Y212478D01*
X33934Y211434D01*
X34978Y210632D01*
X36195Y210129D01*
X37500Y209957D01*
X38805Y210129D01*
X40022Y210632D01*
X41066Y211434D01*
X41868Y212478D01*
X42229Y213352D01*
X42771D01*
X43132Y212478D01*
X43934Y211434D01*
X44978Y210632D01*
X46195Y210129D01*
X47500Y209957D01*
X48805Y210129D01*
X50022Y210632D01*
X51066Y211434D01*
X51868Y212478D01*
X52229Y213352D01*
X52771D01*
X53132Y212478D01*
X53934Y211434D01*
X54978Y210632D01*
X56195Y210129D01*
X57500Y209957D01*
X58805Y210129D01*
X60022Y210632D01*
X61066Y211434D01*
X61867Y212478D01*
X62229Y213352D01*
X62771D01*
X62992Y212817D01*
Y192913D01*
X0D01*
Y337160D01*
X490Y337258D01*
X664Y336840D01*
X1689Y335166D01*
X2964Y333673D01*
X4457Y332398D01*
X6131Y331372D01*
X7945Y330621D01*
X9854Y330163D01*
X11811Y330009D01*
X13768Y330163D01*
X15677Y330621D01*
X17491Y331372D01*
X19165Y332398D01*
X20658Y333673D01*
X21933Y335166D01*
X22958Y336840D01*
X23710Y338654D01*
X24168Y340563D01*
X24322Y342520D01*
X24168Y344477D01*
X23710Y346386D01*
X22958Y348200D01*
X21933Y349873D01*
X20658Y351366D01*
X19165Y352641D01*
X17491Y353667D01*
X17073Y353840D01*
X17170Y354331D01*
X141732D01*
Y318898D01*
D02*
G37*
G36*
X205997Y235842D02*
Y200000D01*
X206134Y198964D01*
X206534Y197999D01*
X206990Y197404D01*
Y186247D01*
X206253Y185510D01*
X203446D01*
Y189677D01*
X192754D01*
Y177803D01*
X192754D01*
X192373Y175961D01*
X192042Y175510D01*
X168747D01*
X168610Y175647D01*
Y177803D01*
X170946D01*
Y182095D01*
X172647Y182781D01*
X172946Y182797D01*
X175372Y180372D01*
X175995Y179893D01*
X176721Y179593D01*
X177500Y179490D01*
X178580D01*
Y177803D01*
X189273D01*
Y189677D01*
X178580D01*
X178010Y191441D01*
Y199026D01*
X179580Y200063D01*
X180010Y200063D01*
X183427D01*
Y204500D01*
X179580D01*
Y204467D01*
X177692Y204025D01*
X177580Y204040D01*
X177128Y204628D01*
X174628Y207128D01*
X174005Y207607D01*
X173279Y207907D01*
X172500Y208010D01*
X170946D01*
Y210937D01*
X160254D01*
Y199063D01*
X170946D01*
X171990Y197495D01*
Y191245D01*
X170946Y189677D01*
X169990Y189677D01*
X160254D01*
Y177803D01*
X162590D01*
Y175510D01*
X136247D01*
X136110Y175647D01*
Y177803D01*
X138446D01*
Y182095D01*
X140147Y182781D01*
X140446Y182797D01*
X142872Y180372D01*
X143495Y179893D01*
X144221Y179593D01*
X145000Y179490D01*
X146080D01*
Y177803D01*
X156773D01*
Y189677D01*
X146080D01*
X145510Y191441D01*
Y199026D01*
X147080Y200063D01*
X147510Y200063D01*
X150927D01*
Y204500D01*
X147080D01*
Y204467D01*
X145192Y204025D01*
X145080Y204040D01*
X144628Y204628D01*
X142128Y207128D01*
X141505Y207607D01*
X140779Y207907D01*
X140000Y208010D01*
X138446D01*
Y210937D01*
X127753D01*
Y199063D01*
X138446D01*
X139490Y197495D01*
Y191245D01*
X138446Y189677D01*
X137490Y189677D01*
X127753D01*
Y177803D01*
X130090D01*
Y174400D01*
X130192Y173621D01*
X130493Y172895D01*
X130972Y172272D01*
X132872Y170372D01*
X133495Y169893D01*
X134221Y169593D01*
X135000Y169490D01*
X195000D01*
X195779Y169593D01*
X196505Y169893D01*
X197128Y170372D01*
X199628Y172872D01*
X200107Y173495D01*
X200407Y174221D01*
X200510Y175000D01*
Y177803D01*
X203446D01*
Y179490D01*
X207500D01*
X208279Y179593D01*
X209005Y179893D01*
X209628Y180372D01*
X212128Y182872D01*
X212607Y183495D01*
X212747Y183833D01*
X213739Y184187D01*
X214914Y184139D01*
X215434Y183461D01*
X215627Y183314D01*
X215701Y183161D01*
Y181052D01*
X215627Y180899D01*
X215434Y180751D01*
X214633Y179707D01*
X214129Y178490D01*
X213957Y177185D01*
X214129Y175880D01*
X214633Y174663D01*
X215434Y173619D01*
X215627Y173471D01*
X215701Y173318D01*
Y171209D01*
X215627Y171056D01*
X215434Y170909D01*
X214633Y169864D01*
X214129Y168648D01*
X214089Y168346D01*
X211253Y165510D01*
X127500D01*
X126721Y165407D01*
X125995Y165107D01*
X125372Y164628D01*
X122872Y162128D01*
X122393Y161505D01*
X122093Y160779D01*
X121990Y160000D01*
Y90378D01*
X120022Y89368D01*
X118805Y89871D01*
X117500Y90043D01*
X116195Y89871D01*
X114978Y89368D01*
X113934Y88566D01*
X113133Y87522D01*
X112629Y86305D01*
X112457Y85000D01*
X112629Y83695D01*
X113133Y82478D01*
X113934Y81434D01*
X114978Y80633D01*
X115199Y80541D01*
X115380Y79235D01*
X115284Y78341D01*
X114647Y77853D01*
X114006Y77017D01*
X113603Y76044D01*
X113531Y75500D01*
X117500D01*
Y74500D01*
X113531D01*
X113603Y73956D01*
X114006Y72983D01*
X114647Y72147D01*
X115284Y71659D01*
X115380Y70765D01*
X115199Y69459D01*
X114978Y69367D01*
X113934Y68566D01*
X113133Y67522D01*
X112629Y66305D01*
X112457Y65000D01*
X112629Y63695D01*
X113133Y62478D01*
X113934Y61434D01*
X114217Y61217D01*
X114353Y60887D01*
Y59113D01*
X114217Y58783D01*
X113934Y58566D01*
X113133Y57522D01*
X112629Y56305D01*
X112457Y55000D01*
X112629Y53695D01*
X113133Y52478D01*
X113934Y51434D01*
X114217Y51217D01*
X114353Y50887D01*
Y49113D01*
X114217Y48783D01*
X113934Y48566D01*
X113133Y47522D01*
X112629Y46305D01*
X112457Y45000D01*
X112629Y43695D01*
X113133Y42478D01*
X113934Y41434D01*
X114059Y39346D01*
X112809Y38010D01*
X103747D01*
X103010Y38747D01*
Y180730D01*
X113580D01*
Y177803D01*
X124273D01*
Y189677D01*
X113580D01*
Y186750D01*
X101240D01*
X100461Y186648D01*
X100010Y186461D01*
X99018Y186845D01*
X98010Y187544D01*
Y202500D01*
X97907Y203279D01*
X97607Y204005D01*
X97128Y204628D01*
X97006Y204751D01*
X97039Y205000D01*
X96884Y206175D01*
X96431Y207269D01*
X95709Y208209D01*
X94769Y208931D01*
X93675Y209384D01*
X92500Y209539D01*
X91325Y209384D01*
X90231Y208931D01*
X89291Y208209D01*
X88569Y207269D01*
X88116Y206175D01*
X87961Y205000D01*
X88116Y203825D01*
X88569Y202731D01*
X89291Y201791D01*
X90231Y201069D01*
X91325Y200616D01*
X91990Y200528D01*
Y149005D01*
X91283Y148507D01*
X89990Y148131D01*
X89517Y148494D01*
X88544Y148897D01*
X88000Y148969D01*
Y145000D01*
X87500D01*
Y144500D01*
X83531D01*
X83603Y143956D01*
X84006Y142983D01*
X84647Y142147D01*
X85284Y141659D01*
X85380Y140765D01*
X85199Y139459D01*
X84978Y139367D01*
X83934Y138566D01*
X83132Y137522D01*
X82629Y136305D01*
X82457Y135000D01*
X82629Y133695D01*
X83132Y132478D01*
X83934Y131434D01*
X84217Y131217D01*
X84353Y130887D01*
Y129113D01*
X84217Y128783D01*
X83934Y128566D01*
X83132Y127522D01*
X82629Y126305D01*
X82457Y125000D01*
X82629Y123695D01*
X83132Y122478D01*
X83934Y121434D01*
X84217Y121217D01*
X84353Y120887D01*
Y119113D01*
X84217Y118783D01*
X83934Y118566D01*
X83132Y117522D01*
X82629Y116305D01*
X82457Y115000D01*
X82629Y113695D01*
X83132Y112478D01*
X83934Y111434D01*
X84217Y111217D01*
X84353Y110887D01*
Y109113D01*
X84217Y108783D01*
X83934Y108566D01*
X83132Y107522D01*
X82629Y106305D01*
X82457Y105000D01*
X82629Y103695D01*
X83132Y102478D01*
X83934Y101434D01*
X84217Y101217D01*
X84353Y100887D01*
Y99113D01*
X84217Y98783D01*
X83934Y98566D01*
X83132Y97522D01*
X82629Y96305D01*
X82457Y95000D01*
X82629Y93695D01*
X83132Y92478D01*
X83934Y91434D01*
X84217Y91217D01*
X84353Y90887D01*
Y89113D01*
X84217Y88783D01*
X83934Y88566D01*
X83132Y87522D01*
X82629Y86305D01*
X82457Y85000D01*
X82629Y83695D01*
X83132Y82478D01*
X83934Y81434D01*
X84217Y81217D01*
X84353Y80887D01*
Y79113D01*
X84217Y78783D01*
X83934Y78566D01*
X83132Y77522D01*
X82629Y76305D01*
X82457Y75000D01*
X82629Y73695D01*
X83132Y72478D01*
X83934Y71434D01*
X84217Y71217D01*
X84353Y70887D01*
Y69113D01*
X84217Y68783D01*
X83934Y68566D01*
X83132Y67522D01*
X82629Y66305D01*
X82457Y65000D01*
X82629Y63695D01*
X83132Y62478D01*
X83934Y61434D01*
X84217Y61217D01*
X84353Y60887D01*
Y59113D01*
X84217Y58783D01*
X83934Y58566D01*
X83132Y57522D01*
X82629Y56305D01*
X82457Y55000D01*
X82629Y53695D01*
X83132Y52478D01*
X83934Y51434D01*
X84217Y51217D01*
X84353Y50887D01*
Y49113D01*
X84217Y48783D01*
X83934Y48566D01*
X83132Y47522D01*
X82629Y46305D01*
X82457Y45000D01*
X82629Y43695D01*
X83132Y42478D01*
X83934Y41434D01*
X84217Y41217D01*
X84353Y40887D01*
Y39113D01*
X84217Y38783D01*
X83934Y38566D01*
X83132Y37522D01*
X82629Y36305D01*
X82457Y35000D01*
X82629Y33695D01*
X83132Y32478D01*
X83934Y31434D01*
X84217Y31217D01*
X84353Y30887D01*
Y29113D01*
X84217Y28783D01*
X83934Y28566D01*
X83132Y27522D01*
X82629Y26305D01*
X82457Y25000D01*
X82629Y23695D01*
X83132Y22478D01*
X83934Y21434D01*
X84217Y21217D01*
X84353Y20887D01*
Y19113D01*
X84217Y18783D01*
X83934Y18566D01*
X83132Y17522D01*
X82629Y16305D01*
X82457Y15000D01*
X82629Y13695D01*
X83132Y12478D01*
X83934Y11434D01*
X84496Y11003D01*
X83922Y9003D01*
X54158D01*
X54003Y9158D01*
Y62500D01*
X53866Y63536D01*
X53632Y64101D01*
X53466Y64501D01*
X53010Y65096D01*
Y147500D01*
X52907Y148279D01*
X52607Y149005D01*
X52128Y149628D01*
X49628Y152128D01*
X49005Y152607D01*
X48279Y152907D01*
X47500Y153010D01*
X37453D01*
Y154953D01*
X27547D01*
Y154953D01*
X27453D01*
Y154953D01*
X17547D01*
Y154953D01*
X17453D01*
Y154953D01*
X7547D01*
Y145047D01*
X7709D01*
X8032Y144658D01*
X8595Y143047D01*
X8174Y142498D01*
X7675Y141293D01*
X7504Y140000D01*
X7675Y138707D01*
X8174Y137502D01*
X8968Y136468D01*
X10002Y135674D01*
X10322Y135541D01*
X10460Y133975D01*
X10377Y133354D01*
X9681Y132819D01*
X9047Y131993D01*
X8649Y131032D01*
X8579Y130500D01*
X12500D01*
X16421D01*
X16351Y131032D01*
X15953Y131993D01*
X15319Y132819D01*
X14623Y133354D01*
X14539Y133975D01*
X14678Y135541D01*
X14998Y135674D01*
X16032Y136468D01*
X16296Y136811D01*
X16691Y136956D01*
X18309D01*
X18704Y136811D01*
X18968Y136468D01*
X20002Y135674D01*
X20322Y135541D01*
X20460Y133975D01*
X20377Y133354D01*
X19681Y132819D01*
X19047Y131993D01*
X18649Y131032D01*
X18579Y130500D01*
X22500D01*
X26421D01*
X26351Y131032D01*
X25953Y131993D01*
X25319Y132819D01*
X24623Y133354D01*
X24540Y133975D01*
X24678Y135541D01*
X24998Y135674D01*
X26032Y136468D01*
X26296Y136811D01*
X26691Y136956D01*
X28309D01*
X28705Y136811D01*
X28968Y136468D01*
X30002Y135674D01*
X30322Y135541D01*
X30461Y133975D01*
X30377Y133354D01*
X29681Y132819D01*
X29047Y131993D01*
X28649Y131032D01*
X28579Y130500D01*
X32500D01*
X36421D01*
X36351Y131032D01*
X35953Y131993D01*
X35319Y132819D01*
X34623Y133354D01*
X34539Y133975D01*
X34678Y135541D01*
X34998Y135674D01*
X36032Y136468D01*
X36826Y137502D01*
X37325Y138707D01*
X37495Y140000D01*
X37325Y141293D01*
X36826Y142498D01*
X36405Y143047D01*
X36968Y144658D01*
X37291Y145047D01*
X37453D01*
Y146990D01*
X46253D01*
X46990Y146253D01*
Y69003D01*
X43997D01*
X43522Y69367D01*
X42305Y69871D01*
X41000Y70043D01*
X39000D01*
X37695Y69871D01*
X36478Y69367D01*
X36003Y69003D01*
X18997D01*
X18522Y69367D01*
X17305Y69871D01*
X16000Y70043D01*
X14000D01*
X12695Y69871D01*
X11478Y69367D01*
X10434Y68566D01*
X9633Y67522D01*
X9129Y66305D01*
X8957Y65000D01*
X9129Y63695D01*
X9633Y62478D01*
X10434Y61434D01*
X10627Y61286D01*
X10701Y61133D01*
Y59024D01*
X10627Y58871D01*
X10434Y58723D01*
X9633Y57679D01*
X9129Y56463D01*
X8957Y55158D01*
X9129Y53852D01*
X9633Y52636D01*
X10434Y51591D01*
X10627Y51444D01*
X10701Y51291D01*
Y49182D01*
X10627Y49029D01*
X10434Y48881D01*
X9633Y47837D01*
X9129Y46620D01*
X8957Y45315D01*
X9129Y44010D01*
X9633Y42793D01*
X10434Y41749D01*
X11478Y40947D01*
X11509Y40935D01*
X11728Y40022D01*
X11650Y38711D01*
X11147Y38325D01*
X10506Y37490D01*
X10103Y36517D01*
X10031Y35972D01*
X15000D01*
X19969D01*
X19897Y36517D01*
X19494Y37490D01*
X18853Y38325D01*
X18350Y38711D01*
X18271Y40022D01*
X18491Y40935D01*
X18522Y40947D01*
X19566Y41749D01*
X20368Y42793D01*
X20871Y44010D01*
X21043Y45315D01*
X20871Y46620D01*
X20368Y47837D01*
X19566Y48881D01*
X19374Y49029D01*
X19299Y49182D01*
Y51291D01*
X19374Y51444D01*
X19566Y51591D01*
X20368Y52636D01*
X20871Y53852D01*
X21043Y55158D01*
X20871Y56463D01*
X20368Y57679D01*
X19566Y58723D01*
X19374Y58871D01*
X19279Y59066D01*
X19265Y59162D01*
X19888Y60997D01*
X35112D01*
X35735Y59162D01*
X35721Y59066D01*
X35627Y58871D01*
X35434Y58723D01*
X34633Y57679D01*
X34129Y56463D01*
X33957Y55158D01*
X34129Y53852D01*
X34633Y52636D01*
X35434Y51591D01*
X35627Y51444D01*
X35701Y51291D01*
Y49182D01*
X35627Y49029D01*
X35434Y48881D01*
X34633Y47837D01*
X34129Y46620D01*
X33957Y45315D01*
X34129Y44010D01*
X34633Y42793D01*
X35434Y41749D01*
X36478Y40947D01*
X36509Y40935D01*
X36729Y40022D01*
X36650Y38711D01*
X36147Y38325D01*
X35506Y37490D01*
X35103Y36517D01*
X35031Y35972D01*
X40000D01*
Y35472D01*
X40500D01*
Y31438D01*
X41000D01*
X42044Y31575D01*
X43017Y31978D01*
X43853Y32620D01*
X43997Y32808D01*
X45997Y32129D01*
Y7500D01*
X46134Y6464D01*
X46534Y5499D01*
X47170Y4670D01*
X49670Y2170D01*
X49891Y2000D01*
X49212Y0D01*
X20221D01*
X19807Y663D01*
X19529Y2000D01*
X20658Y2964D01*
X21933Y4457D01*
X22958Y6131D01*
X23710Y7945D01*
X24168Y9854D01*
X24322Y11811D01*
X24168Y13768D01*
X23710Y15677D01*
X22958Y17491D01*
X21933Y19165D01*
X20658Y20658D01*
X19165Y21933D01*
X17491Y22958D01*
X15677Y23710D01*
X13768Y24168D01*
X11811Y24322D01*
X9854Y24168D01*
X7945Y23710D01*
X6131Y22958D01*
X4457Y21933D01*
X2964Y20658D01*
X2000Y19529D01*
X663Y19807D01*
X0Y20221D01*
Y188976D01*
X67500D01*
Y209957D01*
X68805Y210129D01*
X70022Y210632D01*
X71066Y211434D01*
X71868Y212478D01*
X71959Y212699D01*
X73265Y212880D01*
X74159Y212784D01*
X74647Y212147D01*
X75483Y211506D01*
X76456Y211103D01*
X77000Y211031D01*
Y215000D01*
X77500D01*
Y215500D01*
X81469D01*
X81397Y216044D01*
X81209Y216497D01*
X81885Y217969D01*
X82379Y218497D01*
X137500D01*
X138536Y218634D01*
X139501Y219034D01*
X140330Y219670D01*
X143441Y222780D01*
X144077Y223609D01*
X144477Y224574D01*
X144613Y225610D01*
Y235658D01*
X145000Y235997D01*
X150404D01*
X151325Y235616D01*
X152500Y235461D01*
X153675Y235616D01*
X154596Y235997D01*
X173158D01*
Y227547D01*
X183063D01*
Y235997D01*
X186937D01*
Y227547D01*
X188880D01*
Y224953D01*
X186937D01*
Y215047D01*
X196843D01*
Y224953D01*
X194900D01*
Y227547D01*
X196843D01*
Y235997D01*
X205842D01*
X205997Y235842D01*
D02*
G37*
G36*
X216414Y353668D02*
X216692Y352331D01*
X215563Y351366D01*
X214288Y349873D01*
X213262Y348200D01*
X212511Y346386D01*
X212052Y344477D01*
X211898Y342520D01*
X212052Y340563D01*
X212511Y338654D01*
X213262Y336840D01*
X214288Y335166D01*
X215563Y333673D01*
X217056Y332398D01*
X218730Y331372D01*
X220543Y330621D01*
X222452Y330163D01*
X224410Y330009D01*
X226367Y330163D01*
X228276Y330621D01*
X230089Y331372D01*
X231763Y332398D01*
X233256Y333673D01*
X234221Y334802D01*
X235558Y334524D01*
X236221Y334109D01*
Y199769D01*
X234221Y198940D01*
X233460Y199700D01*
X232631Y200337D01*
X231666Y200736D01*
X230630Y200873D01*
X224699D01*
X223993Y201733D01*
X223853Y203860D01*
X224494Y204695D01*
X224897Y205668D01*
X224969Y206213D01*
X220000D01*
Y206713D01*
X219500D01*
Y210747D01*
X219000D01*
X217956Y210610D01*
X216983Y210207D01*
X216147Y209565D01*
X216003Y209377D01*
X214003Y210056D01*
Y237500D01*
X213866Y238536D01*
X213632Y239102D01*
X213467Y239501D01*
X212830Y240330D01*
X210330Y242830D01*
X209501Y243466D01*
X208536Y243866D01*
X207500Y244003D01*
X154596D01*
X153675Y244384D01*
X152500Y244539D01*
X151325Y244384D01*
X150404Y244003D01*
X146658D01*
X144613Y246048D01*
Y251182D01*
X145414Y252226D01*
X145969Y253564D01*
X146158Y255000D01*
Y260000D01*
X145969Y261436D01*
X145414Y262774D01*
X144613Y263818D01*
Y290997D01*
X152500D01*
X153536Y291134D01*
X154501Y291533D01*
X155330Y292170D01*
X158952Y295792D01*
X159589Y296621D01*
X159988Y297586D01*
X160125Y298622D01*
Y318295D01*
X165996D01*
Y330169D01*
X150185D01*
Y318295D01*
X152119D01*
Y300280D01*
X150842Y299003D01*
X142500D01*
X141464Y298866D01*
X140499Y298466D01*
X139670Y297830D01*
X137780Y295941D01*
X137144Y295112D01*
X136744Y294146D01*
X136608Y293110D01*
Y284768D01*
X135842Y284003D01*
X99477D01*
X99263Y284263D01*
X98349Y285013D01*
X97307Y285570D01*
X96176Y285913D01*
X95000Y286029D01*
X93824Y285913D01*
X92693Y285570D01*
X91650Y285013D01*
X90737Y284263D01*
X89987Y283349D01*
X89430Y282307D01*
X89087Y281176D01*
X88971Y280000D01*
X89087Y278824D01*
X89430Y277693D01*
X89987Y276651D01*
X90737Y275737D01*
X91650Y274987D01*
X92693Y274430D01*
X93824Y274087D01*
X95000Y273971D01*
X96176Y274087D01*
X97307Y274430D01*
X98349Y274987D01*
X99263Y275737D01*
X99477Y275997D01*
X136608D01*
Y263818D01*
X135806Y262774D01*
X135252Y261436D01*
X135063Y260000D01*
Y255000D01*
X135252Y253564D01*
X135806Y252226D01*
X136608Y251182D01*
Y244390D01*
Y227268D01*
X135842Y226503D01*
X70000D01*
X69500Y226437D01*
X67977Y227364D01*
X67579Y227767D01*
X67500Y227925D01*
Y314961D01*
X88722Y314961D01*
X89320Y314199D01*
X89779Y312961D01*
X89430Y312307D01*
X89087Y311176D01*
X88971Y310000D01*
X89087Y308824D01*
X89430Y307693D01*
X89987Y306650D01*
X90737Y305737D01*
X91650Y304987D01*
X92693Y304430D01*
X93824Y304087D01*
X95000Y303971D01*
X96176Y304087D01*
X97307Y304430D01*
X98349Y304987D01*
X99263Y305737D01*
X100013Y306650D01*
X100570Y307693D01*
X100913Y308824D01*
X101029Y310000D01*
X100913Y311176D01*
X100570Y312307D01*
X100221Y312961D01*
X100680Y314199D01*
X101278Y314961D01*
X145669Y314961D01*
Y354331D01*
X215999D01*
X216414Y353668D01*
D02*
G37*
G36*
X228497Y154158D02*
X223342Y149003D01*
X150497D01*
X150022Y149367D01*
X148805Y149871D01*
X147500Y150043D01*
X146195Y149871D01*
X144978Y149367D01*
X143934Y148566D01*
X143132Y147522D01*
X142629Y146305D01*
X142457Y145000D01*
X142629Y143695D01*
X143132Y142478D01*
X143934Y141434D01*
X144217Y141217D01*
X144353Y140887D01*
Y139113D01*
X144217Y138783D01*
X143934Y138566D01*
X143132Y137522D01*
X142629Y136305D01*
X142457Y135000D01*
X142629Y133695D01*
X143132Y132478D01*
X143934Y131434D01*
X144217Y131217D01*
X144353Y130887D01*
Y129113D01*
X144217Y128783D01*
X143934Y128566D01*
X143132Y127522D01*
X142629Y126305D01*
X142457Y125000D01*
X142629Y123695D01*
X143132Y122478D01*
X143934Y121434D01*
X144217Y121217D01*
X144353Y120887D01*
Y119113D01*
X144217Y118783D01*
X143934Y118566D01*
X143132Y117522D01*
X142629Y116305D01*
X142457Y115000D01*
X142629Y113695D01*
X143132Y112478D01*
X143934Y111434D01*
X144217Y111217D01*
X144353Y110887D01*
Y109113D01*
X144217Y108783D01*
X143934Y108566D01*
X143132Y107522D01*
X142629Y106305D01*
X142457Y105000D01*
X142629Y103695D01*
X143132Y102478D01*
X143934Y101434D01*
X144217Y101217D01*
X144353Y100887D01*
Y99113D01*
X144217Y98783D01*
X143934Y98566D01*
X143132Y97522D01*
X142629Y96305D01*
X142457Y95000D01*
X142629Y93695D01*
X143132Y92478D01*
X143934Y91434D01*
X144217Y91217D01*
X144353Y90887D01*
Y89113D01*
X144217Y88783D01*
X143934Y88566D01*
X143132Y87522D01*
X142629Y86305D01*
X142457Y85000D01*
X142629Y83695D01*
X143132Y82478D01*
X143934Y81434D01*
X144217Y81217D01*
X144353Y80887D01*
Y79113D01*
X144217Y78783D01*
X143934Y78566D01*
X143132Y77522D01*
X142629Y76305D01*
X142457Y75000D01*
X142629Y73695D01*
X143132Y72478D01*
X143934Y71434D01*
X144217Y71217D01*
X144353Y70887D01*
Y69113D01*
X144217Y68783D01*
X143934Y68566D01*
X143132Y67522D01*
X142629Y66305D01*
X142457Y65000D01*
X142629Y63695D01*
X143132Y62478D01*
X143934Y61434D01*
X144217Y61217D01*
X144353Y60887D01*
Y59113D01*
X144217Y58783D01*
X143934Y58566D01*
X143132Y57522D01*
X142629Y56305D01*
X142457Y55000D01*
X142629Y53695D01*
X143132Y52478D01*
X143934Y51434D01*
X144217Y51217D01*
X144353Y50887D01*
Y49113D01*
X144217Y48783D01*
X143934Y48566D01*
X143132Y47522D01*
X142629Y46305D01*
X142457Y45000D01*
X142629Y43695D01*
X143132Y42478D01*
X143934Y41434D01*
X144217Y41217D01*
X144353Y40887D01*
Y39113D01*
X144217Y38783D01*
X143934Y38566D01*
X143132Y37522D01*
X142629Y36305D01*
X142457Y35000D01*
X142629Y33695D01*
X143132Y32478D01*
X143934Y31434D01*
X144217Y31217D01*
X144353Y30887D01*
Y29113D01*
X144217Y28783D01*
X143934Y28566D01*
X143132Y27522D01*
X142629Y26305D01*
X142457Y25000D01*
X142629Y23695D01*
X143132Y22478D01*
X143934Y21434D01*
X144217Y21217D01*
X144353Y20887D01*
Y19113D01*
X144217Y18783D01*
X143934Y18566D01*
X143132Y17522D01*
X142629Y16305D01*
X142457Y15000D01*
X142629Y13695D01*
X143132Y12478D01*
X143934Y11434D01*
X144496Y11003D01*
X143922Y9003D01*
X91078D01*
X90504Y11003D01*
X91066Y11434D01*
X91868Y12478D01*
X92371Y13695D01*
X92543Y15000D01*
X92371Y16305D01*
X91868Y17522D01*
X91066Y18566D01*
X90783Y18783D01*
X90647Y19113D01*
Y20887D01*
X90783Y21217D01*
X91066Y21434D01*
X91868Y22478D01*
X92181Y23234D01*
X93587Y23779D01*
X94407Y23836D01*
X95372Y22872D01*
X95995Y22393D01*
X96721Y22093D01*
X97500Y21990D01*
X113507D01*
X113934Y21434D01*
X114978Y20632D01*
X116195Y20129D01*
X117500Y19957D01*
X118805Y20129D01*
X120022Y20632D01*
X121066Y21434D01*
X121868Y22478D01*
X122371Y23695D01*
X122543Y25000D01*
X122371Y26305D01*
X121868Y27522D01*
X121066Y28566D01*
X120783Y28783D01*
X120647Y29113D01*
Y30887D01*
X120783Y31217D01*
X121066Y31434D01*
X121868Y32478D01*
X122371Y33695D01*
X122543Y35000D01*
X122371Y36305D01*
X121868Y37522D01*
X121066Y38566D01*
X120941Y40654D01*
X122191Y41990D01*
X130000D01*
X130779Y42093D01*
X131505Y42393D01*
X132128Y42872D01*
X134628Y45372D01*
X135107Y45995D01*
X135407Y46721D01*
X135510Y47500D01*
Y153753D01*
X136247Y154490D01*
X215007D01*
X215434Y153934D01*
X216478Y153132D01*
X217695Y152629D01*
X219000Y152457D01*
X221000D01*
X222305Y152629D01*
X223522Y153132D01*
X224566Y153934D01*
X225367Y154978D01*
X225871Y156195D01*
X226043Y157500D01*
X225871Y158805D01*
X225367Y160022D01*
X224566Y161066D01*
X224374Y161214D01*
X224300Y161367D01*
Y163476D01*
X224374Y163629D01*
X224566Y163777D01*
X225367Y164821D01*
X225871Y166037D01*
X226043Y167342D01*
X225871Y168648D01*
X225367Y169864D01*
X224566Y170909D01*
X224374Y171056D01*
X224300Y171209D01*
Y173318D01*
X224374Y173471D01*
X224566Y173619D01*
X225367Y174663D01*
X225871Y175880D01*
X226043Y177185D01*
X225871Y178490D01*
X225367Y179707D01*
X224566Y180751D01*
X224374Y180899D01*
X224300Y181052D01*
Y183161D01*
X224374Y183314D01*
X224566Y183461D01*
X225367Y184506D01*
X225871Y185722D01*
X226043Y187028D01*
X225871Y188333D01*
X225367Y189549D01*
X224566Y190594D01*
X224374Y190741D01*
X224279Y190936D01*
X224265Y191032D01*
X224888Y192867D01*
X228497D01*
Y154158D01*
D02*
G37*
G36*
X227945Y140667D02*
X228497Y140160D01*
Y109716D01*
X228324Y109557D01*
X226497Y108845D01*
X226022Y109210D01*
X224805Y109714D01*
X223500Y109886D01*
X221500D01*
X220195Y109714D01*
X218978Y109210D01*
X217934Y108409D01*
X217132Y107364D01*
X216629Y106148D01*
X216457Y104842D01*
X216629Y103537D01*
X217132Y102321D01*
X217934Y101277D01*
X217798Y99304D01*
X216555Y98010D01*
X199993D01*
X199566Y98566D01*
X199373Y98714D01*
X199300Y98867D01*
Y100976D01*
X199373Y101129D01*
X199566Y101277D01*
X200367Y102321D01*
X200871Y103537D01*
X201043Y104842D01*
X200871Y106148D01*
X200367Y107364D01*
X199566Y108409D01*
X198522Y109210D01*
X197305Y109714D01*
X196000Y109886D01*
X194000D01*
X192695Y109714D01*
X191478Y109210D01*
X190434Y108409D01*
X189632Y107364D01*
X189129Y106148D01*
X188957Y104842D01*
X189129Y103537D01*
X189632Y102321D01*
X190434Y101277D01*
X190298Y99304D01*
X189055Y98010D01*
X172493D01*
X172066Y98566D01*
X171873Y98714D01*
X171800Y98867D01*
Y100976D01*
X171873Y101129D01*
X172066Y101277D01*
X172868Y102321D01*
X173371Y103537D01*
X173543Y104842D01*
X173371Y106148D01*
X172868Y107364D01*
X172066Y108409D01*
X171022Y109210D01*
X169805Y109714D01*
X168500Y109886D01*
X166500D01*
X165195Y109714D01*
X163978Y109210D01*
X162934Y108409D01*
X162133Y107364D01*
X161629Y106148D01*
X161457Y104842D01*
X161629Y103537D01*
X162133Y102321D01*
X162934Y101277D01*
X163127Y101129D01*
X163200Y100976D01*
Y98867D01*
X163127Y98714D01*
X162934Y98566D01*
X162133Y97522D01*
X161629Y96305D01*
X161457Y95000D01*
X161629Y93695D01*
X162133Y92478D01*
X162934Y91434D01*
X163978Y90632D01*
X165195Y90129D01*
X166500Y89957D01*
X168500D01*
X169805Y90129D01*
X171022Y90632D01*
X172066Y91434D01*
X172493Y91990D01*
X190007D01*
X190434Y91434D01*
X191478Y90632D01*
X192695Y90129D01*
X194000Y89957D01*
X196000D01*
X197305Y90129D01*
X198522Y90632D01*
X199566Y91434D01*
X199993Y91990D01*
X217507D01*
X217934Y91434D01*
X218978Y90632D01*
X220195Y90129D01*
X221500Y89957D01*
X223500D01*
X224805Y90129D01*
X226022Y90632D01*
X226497Y90997D01*
X228324Y90285D01*
X228497Y90127D01*
Y67871D01*
X226497Y67192D01*
X226353Y67380D01*
X225517Y68022D01*
X224544Y68425D01*
X223500Y68562D01*
X223000D01*
Y64528D01*
X222500D01*
Y64028D01*
X217531D01*
X217603Y63483D01*
X218006Y62510D01*
X218647Y61675D01*
X219150Y61289D01*
X219229Y59978D01*
X219009Y59065D01*
X218978Y59052D01*
X217934Y58251D01*
X217132Y57207D01*
X216629Y55990D01*
X216457Y54685D01*
X216629Y53380D01*
X217132Y52163D01*
X217934Y51119D01*
X218127Y50971D01*
X218200Y50818D01*
Y48709D01*
X218127Y48556D01*
X217934Y48409D01*
X217132Y47364D01*
X216629Y46148D01*
X216457Y44842D01*
X216629Y43537D01*
X217132Y42321D01*
X217934Y41276D01*
X218127Y41129D01*
X218221Y40934D01*
X218235Y40838D01*
X217612Y39003D01*
X199888D01*
X199265Y40838D01*
X199279Y40934D01*
X199373Y41129D01*
X199566Y41276D01*
X200367Y42321D01*
X200871Y43537D01*
X201043Y44842D01*
X200871Y46148D01*
X200367Y47364D01*
X199566Y48409D01*
X199373Y48556D01*
X199300Y48709D01*
Y50818D01*
X199373Y50971D01*
X199566Y51119D01*
X200367Y52163D01*
X200871Y53380D01*
X201043Y54685D01*
X200871Y55990D01*
X200367Y57207D01*
X199566Y58251D01*
X198522Y59052D01*
X198491Y59065D01*
X198272Y59978D01*
X198350Y61289D01*
X198853Y61675D01*
X199494Y62510D01*
X199897Y63483D01*
X199969Y64028D01*
X195000D01*
X190031D01*
X190103Y63483D01*
X190506Y62510D01*
X191147Y61675D01*
X191650Y61289D01*
X191728Y59978D01*
X191509Y59065D01*
X191478Y59052D01*
X190434Y58251D01*
X189632Y57207D01*
X189129Y55990D01*
X188957Y54685D01*
X189129Y53380D01*
X189632Y52163D01*
X190434Y51119D01*
X190627Y50971D01*
X190700Y50818D01*
Y48709D01*
X190627Y48556D01*
X190434Y48409D01*
X189632Y47364D01*
X189129Y46148D01*
X188957Y44842D01*
X189129Y43537D01*
X189632Y42321D01*
X190434Y41276D01*
X190627Y41129D01*
X190721Y40934D01*
X190735Y40838D01*
X190112Y39003D01*
X172388D01*
X171765Y40838D01*
X171779Y40934D01*
X171873Y41129D01*
X172066Y41276D01*
X172868Y42321D01*
X173371Y43537D01*
X173543Y44842D01*
X173371Y46148D01*
X172868Y47364D01*
X172066Y48409D01*
X171873Y48556D01*
X171800Y48709D01*
Y50818D01*
X171873Y50971D01*
X172066Y51119D01*
X172868Y52163D01*
X173371Y53380D01*
X173543Y54685D01*
X173371Y55990D01*
X172868Y57207D01*
X172066Y58251D01*
X171022Y59052D01*
X170991Y59065D01*
X170772Y59978D01*
X170850Y61289D01*
X171353Y61675D01*
X171994Y62510D01*
X172397Y63483D01*
X172469Y64028D01*
X167500D01*
X162531D01*
X162603Y63483D01*
X163006Y62510D01*
X163647Y61675D01*
X164150Y61289D01*
X164228Y59978D01*
X164009Y59065D01*
X163978Y59052D01*
X162934Y58251D01*
X162133Y57207D01*
X161629Y55990D01*
X161457Y54685D01*
X161629Y53380D01*
X162133Y52163D01*
X162934Y51119D01*
X163127Y50971D01*
X163200Y50818D01*
Y48709D01*
X163127Y48556D01*
X162934Y48409D01*
X162133Y47364D01*
X161629Y46148D01*
X161457Y44842D01*
X161629Y43537D01*
X162133Y42321D01*
X162934Y41276D01*
X163127Y41129D01*
X163200Y40976D01*
Y38867D01*
X163127Y38714D01*
X162934Y38566D01*
X162133Y37522D01*
X161629Y36305D01*
X161457Y35000D01*
X161501Y34662D01*
X159670Y32830D01*
X159034Y32001D01*
X158634Y31036D01*
X158497Y30000D01*
Y9158D01*
X158342Y9003D01*
X151078D01*
X150504Y11003D01*
X151066Y11434D01*
X151867Y12478D01*
X152371Y13695D01*
X152543Y15000D01*
X152371Y16305D01*
X151867Y17522D01*
X151066Y18566D01*
X150783Y18783D01*
X150647Y19113D01*
Y20887D01*
X150783Y21217D01*
X151066Y21434D01*
X151867Y22478D01*
X152371Y23695D01*
X152543Y25000D01*
X152371Y26305D01*
X151867Y27522D01*
X151066Y28566D01*
X150783Y28783D01*
X150647Y29113D01*
Y30887D01*
X150783Y31217D01*
X151066Y31434D01*
X151867Y32478D01*
X152371Y33695D01*
X152543Y35000D01*
X152371Y36305D01*
X151867Y37522D01*
X151066Y38566D01*
X150783Y38783D01*
X150647Y39113D01*
Y40887D01*
X150783Y41217D01*
X151066Y41434D01*
X151867Y42478D01*
X152371Y43695D01*
X152543Y45000D01*
X152371Y46305D01*
X151867Y47522D01*
X151066Y48566D01*
X150783Y48783D01*
X150647Y49113D01*
Y50887D01*
X150783Y51217D01*
X151066Y51434D01*
X151867Y52478D01*
X152371Y53695D01*
X152543Y55000D01*
X152371Y56305D01*
X151867Y57522D01*
X151066Y58566D01*
X150783Y58783D01*
X150647Y59113D01*
Y60887D01*
X150783Y61217D01*
X151066Y61434D01*
X151867Y62478D01*
X152371Y63695D01*
X152543Y65000D01*
X152371Y66305D01*
X151867Y67522D01*
X151066Y68566D01*
X150783Y68783D01*
X150647Y69113D01*
Y70887D01*
X150783Y71217D01*
X151066Y71434D01*
X151867Y72478D01*
X152371Y73695D01*
X152543Y75000D01*
X152371Y76305D01*
X151867Y77522D01*
X151066Y78566D01*
X150783Y78783D01*
X150647Y79113D01*
Y80887D01*
X150783Y81217D01*
X151066Y81434D01*
X151867Y82478D01*
X152371Y83695D01*
X152543Y85000D01*
X152371Y86305D01*
X151867Y87522D01*
X151066Y88566D01*
X150783Y88783D01*
X150647Y89113D01*
Y90887D01*
X150783Y91217D01*
X151066Y91434D01*
X151867Y92478D01*
X152371Y93695D01*
X152543Y95000D01*
X152371Y96305D01*
X151867Y97522D01*
X151066Y98566D01*
X150783Y98783D01*
X150647Y99113D01*
Y100887D01*
X150783Y101217D01*
X151066Y101434D01*
X151867Y102478D01*
X152371Y103695D01*
X152543Y105000D01*
X152371Y106305D01*
X151867Y107522D01*
X151066Y108566D01*
X150783Y108783D01*
X150647Y109113D01*
Y110887D01*
X150783Y111217D01*
X151066Y111434D01*
X151867Y112478D01*
X152371Y113695D01*
X152543Y115000D01*
X152371Y116305D01*
X151867Y117522D01*
X151066Y118566D01*
X150783Y118783D01*
X150647Y119113D01*
Y120887D01*
X150783Y121217D01*
X151066Y121434D01*
X151867Y122478D01*
X152371Y123695D01*
X152543Y125000D01*
X152371Y126305D01*
X151867Y127522D01*
X151066Y128566D01*
X150783Y128783D01*
X150647Y129113D01*
Y130887D01*
X150783Y131217D01*
X151066Y131434D01*
X151867Y132478D01*
X152371Y133695D01*
X152543Y135000D01*
X152371Y136305D01*
X151867Y137522D01*
X151066Y138566D01*
X150783Y138783D01*
X150628Y139160D01*
X150626Y139184D01*
X151590Y140997D01*
X225000D01*
X226036Y141134D01*
X226497Y141325D01*
X227945Y140667D01*
D02*
G37*
G36*
X129490Y54591D02*
Y48747D01*
X128753Y48010D01*
X121493D01*
X121066Y48566D01*
X120941Y50654D01*
X122191Y51990D01*
X122500D01*
X123279Y52093D01*
X124005Y52393D01*
X124628Y52872D01*
X127128Y55372D01*
X127490Y55843D01*
X127710Y55847D01*
X129490Y54591D01*
D02*
G37*
G36*
X236221Y32731D02*
Y20221D01*
X235558Y19807D01*
X234221Y19529D01*
X233256Y20658D01*
X231763Y21933D01*
X230089Y22958D01*
X228276Y23710D01*
X226367Y24168D01*
X224410Y24322D01*
X222452Y24168D01*
X220543Y23710D01*
X218730Y22958D01*
X217056Y21933D01*
X215563Y20658D01*
X214288Y19165D01*
X213262Y17491D01*
X212511Y15677D01*
X212052Y13768D01*
X211898Y11811D01*
X212052Y9854D01*
X212511Y7945D01*
X213262Y6131D01*
X214288Y4457D01*
X215563Y2964D01*
X216692Y2000D01*
X216414Y663D01*
X215999Y0D01*
X163288D01*
X162609Y2000D01*
X162830Y2170D01*
X165330Y4670D01*
X165966Y5499D01*
X166132Y5898D01*
X166366Y6464D01*
X166503Y7500D01*
Y28342D01*
X168118Y29957D01*
X168500D01*
X169805Y30129D01*
X171022Y30632D01*
X171497Y30997D01*
X191003D01*
X191478Y30632D01*
X192695Y30129D01*
X194000Y29957D01*
X196000D01*
X197305Y30129D01*
X198522Y30632D01*
X198997Y30997D01*
X218503D01*
X218978Y30632D01*
X220195Y30129D01*
X221500Y29957D01*
X223500D01*
X224805Y30129D01*
X226022Y30632D01*
X226497Y30997D01*
X230000D01*
X231036Y31134D01*
X232001Y31534D01*
X232830Y32170D01*
X234221Y33560D01*
X236221Y32731D01*
D02*
G37*
G36*
X100372Y32872D02*
X100995Y32393D01*
X101721Y32093D01*
X102500Y31990D01*
X113507D01*
X113934Y31434D01*
X114059Y29346D01*
X112809Y28010D01*
X98747D01*
X98010Y28747D01*
Y32620D01*
X99858Y33386D01*
X100372Y32872D01*
D02*
G37*
%LPC*%
G36*
X50000Y346433D02*
X48500D01*
Y341886D01*
X55416D01*
X55358Y342322D01*
X54804Y343659D01*
X53923Y344809D01*
X52774Y345690D01*
X51436Y346244D01*
X50000Y346433D01*
D02*
G37*
G36*
X46500D02*
X45000D01*
X43564Y346244D01*
X42226Y345690D01*
X41077Y344809D01*
X40196Y343659D01*
X39642Y342322D01*
X39584Y341886D01*
X46500D01*
Y346433D01*
D02*
G37*
G36*
X133878Y346733D02*
X132909D01*
Y341768D01*
X139745D01*
X139729Y341932D01*
X139390Y343051D01*
X138838Y344082D01*
X138096Y344986D01*
X137192Y345728D01*
X136161Y346279D01*
X135042Y346619D01*
X133878Y346733D01*
D02*
G37*
G36*
X130909D02*
X129941D01*
X128777Y346619D01*
X127658Y346279D01*
X126627Y345728D01*
X125723Y344986D01*
X124981Y344082D01*
X124429Y343051D01*
X124090Y341932D01*
X124074Y341768D01*
X130909D01*
Y346733D01*
D02*
G37*
G36*
X111843Y344953D02*
X107890D01*
Y341000D01*
X111843D01*
Y344953D01*
D02*
G37*
G36*
X105890D02*
X101937D01*
Y341000D01*
X105890D01*
Y344953D01*
D02*
G37*
G36*
X55416Y339886D02*
X48500D01*
Y335338D01*
X50000D01*
X51436Y335527D01*
X52774Y336082D01*
X53923Y336963D01*
X54804Y338112D01*
X55358Y339450D01*
X55416Y339886D01*
D02*
G37*
G36*
X46500D02*
X39584D01*
X39642Y339450D01*
X40196Y338112D01*
X41077Y336963D01*
X42226Y336082D01*
X43564Y335527D01*
X45000Y335338D01*
X46500D01*
Y339886D01*
D02*
G37*
G36*
X111843Y339000D02*
X107890D01*
Y335047D01*
X111843D01*
Y339000D01*
D02*
G37*
G36*
X105890D02*
X101937D01*
Y335047D01*
X105890D01*
Y339000D01*
D02*
G37*
G36*
X139745Y339768D02*
X132909D01*
Y334802D01*
X133878D01*
X135042Y334917D01*
X136161Y335256D01*
X137192Y335807D01*
X138096Y336549D01*
X138838Y337453D01*
X139390Y338485D01*
X139729Y339604D01*
X139745Y339768D01*
D02*
G37*
G36*
X130909D02*
X124074D01*
X124090Y339604D01*
X124429Y338485D01*
X124981Y337453D01*
X125723Y336549D01*
X126627Y335807D01*
X127658Y335256D01*
X128777Y334917D01*
X129941Y334802D01*
X130909D01*
Y339768D01*
D02*
G37*
G36*
X98063Y344953D02*
X88157D01*
Y335047D01*
X90100D01*
Y332453D01*
X88157D01*
Y322547D01*
X98063D01*
Y332453D01*
X96120D01*
Y335047D01*
X98063D01*
Y344953D01*
D02*
G37*
G36*
X50000Y333048D02*
X45000D01*
X43564Y332858D01*
X42226Y332304D01*
X41077Y331423D01*
X40196Y330274D01*
X39642Y328936D01*
X39452Y327500D01*
X39642Y326064D01*
X40196Y324726D01*
X41077Y323577D01*
X42226Y322696D01*
X43564Y322142D01*
X45000Y321953D01*
X50000D01*
X51436Y322142D01*
X52774Y322696D01*
X53923Y323577D01*
X54804Y324726D01*
X55358Y326064D01*
X55547Y327500D01*
X55358Y328936D01*
X54804Y330274D01*
X53923Y331423D01*
X52774Y332304D01*
X51436Y332858D01*
X50000Y333048D01*
D02*
G37*
G36*
X45000Y315966D02*
X43836Y315851D01*
X42717Y315512D01*
X41686Y314960D01*
X40782Y314218D01*
X40040Y313314D01*
X39488Y312283D01*
X39149Y311164D01*
X39034Y310000D01*
X39149Y308836D01*
X39488Y307717D01*
X40040Y306686D01*
X40782Y305782D01*
X41686Y305040D01*
X42717Y304488D01*
X43836Y304149D01*
X45000Y304034D01*
X46164Y304149D01*
X47283Y304488D01*
X48314Y305040D01*
X49218Y305782D01*
X49960Y306686D01*
X50512Y307717D01*
X50851Y308836D01*
X50966Y310000D01*
X50851Y311164D01*
X50512Y312283D01*
X49960Y313314D01*
X49218Y314218D01*
X48314Y314960D01*
X47283Y315512D01*
X46164Y315851D01*
X45000Y315966D01*
D02*
G37*
G36*
X16000Y305043D02*
X14000D01*
X12695Y304871D01*
X11478Y304367D01*
X10434Y303566D01*
X9633Y302522D01*
X9129Y301305D01*
X8957Y300000D01*
X9129Y298695D01*
X9633Y297478D01*
X10434Y296434D01*
X11478Y295633D01*
X12162Y295349D01*
Y294808D01*
X11478Y294525D01*
X10434Y293724D01*
X9633Y292679D01*
X9129Y291463D01*
X8957Y290158D01*
X9129Y288852D01*
X9633Y287636D01*
X10434Y286591D01*
X11478Y285790D01*
X12695Y285286D01*
X14000Y285114D01*
X16000D01*
X17305Y285286D01*
X18522Y285790D01*
X19566Y286591D01*
X20368Y287636D01*
X20871Y288852D01*
X21043Y290158D01*
X20871Y291463D01*
X20368Y292679D01*
X19566Y293724D01*
X18522Y294525D01*
X17838Y294808D01*
Y295349D01*
X18522Y295633D01*
X19566Y296434D01*
X20368Y297478D01*
X20871Y298695D01*
X21043Y300000D01*
X20871Y301305D01*
X20368Y302522D01*
X19566Y303566D01*
X18522Y304367D01*
X17305Y304871D01*
X16000Y305043D01*
D02*
G37*
G36*
X36000Y285867D02*
Y281000D01*
X40867D01*
X40851Y281164D01*
X40512Y282283D01*
X39960Y283314D01*
X39218Y284218D01*
X38314Y284960D01*
X37283Y285512D01*
X36164Y285851D01*
X36000Y285867D01*
D02*
G37*
G36*
X34000D02*
X33836Y285851D01*
X32717Y285512D01*
X31686Y284960D01*
X30782Y284218D01*
X30040Y283314D01*
X29488Y282283D01*
X29149Y281164D01*
X29133Y281000D01*
X34000D01*
Y285867D01*
D02*
G37*
G36*
X40867Y279000D02*
X36000D01*
Y274133D01*
X36164Y274149D01*
X37283Y274488D01*
X38314Y275040D01*
X39218Y275782D01*
X39960Y276686D01*
X40512Y277717D01*
X40851Y278836D01*
X40867Y279000D01*
D02*
G37*
G36*
X34000D02*
X29133D01*
X29149Y278836D01*
X29488Y277717D01*
X30040Y276686D01*
X30782Y275782D01*
X31686Y275040D01*
X32717Y274488D01*
X33836Y274149D01*
X34000Y274133D01*
Y279000D01*
D02*
G37*
G36*
X37657Y263543D02*
X36352Y263371D01*
X35136Y262867D01*
X34091Y262066D01*
X33290Y261022D01*
X33007Y260338D01*
X32466D01*
X32182Y261022D01*
X31381Y262066D01*
X30336Y262867D01*
X29120Y263371D01*
X27815Y263543D01*
X26510Y263371D01*
X25293Y262867D01*
X24249Y262066D01*
X23448Y261022D01*
X22944Y259805D01*
X22772Y258500D01*
Y256500D01*
X22944Y255195D01*
X23448Y253978D01*
X24249Y252934D01*
X25293Y252133D01*
X26510Y251629D01*
X27815Y251457D01*
X29120Y251629D01*
X30336Y252133D01*
X31381Y252934D01*
X32182Y253978D01*
X32466Y254662D01*
X33007D01*
X33290Y253978D01*
X34091Y252934D01*
X35136Y252133D01*
X36352Y251629D01*
X37657Y251457D01*
X38963Y251629D01*
X40179Y252133D01*
X41223Y252934D01*
X42025Y253978D01*
X42308Y254662D01*
X42849D01*
X43132Y253978D01*
X43934Y252934D01*
X44978Y252133D01*
X46195Y251629D01*
X46500Y251589D01*
Y257500D01*
Y263411D01*
X46195Y263371D01*
X44978Y262867D01*
X43934Y262066D01*
X43132Y261022D01*
X42849Y260338D01*
X42308D01*
X42025Y261022D01*
X41223Y262066D01*
X40179Y262867D01*
X38963Y263371D01*
X37657Y263543D01*
D02*
G37*
G36*
X48500Y263411D02*
Y258500D01*
X52543D01*
X52371Y259805D01*
X51868Y261022D01*
X51066Y262066D01*
X50022Y262867D01*
X48805Y263371D01*
X48500Y263411D01*
D02*
G37*
G36*
X52543Y256500D02*
X48500D01*
Y251589D01*
X48805Y251629D01*
X50022Y252133D01*
X51066Y252934D01*
X51868Y253978D01*
X52371Y255195D01*
X52543Y256500D01*
D01*
D02*
G37*
G36*
X7500Y220043D02*
X6195Y219871D01*
X4978Y219368D01*
X3934Y218566D01*
X3133Y217522D01*
X2629Y216305D01*
X2457Y215000D01*
X2629Y213695D01*
X3133Y212478D01*
X3934Y211434D01*
X4978Y210632D01*
X6195Y210129D01*
X7500Y209957D01*
X8805Y210129D01*
X10022Y210632D01*
X11066Y211434D01*
X11868Y212478D01*
X12229Y213352D01*
X12771D01*
X13133Y212478D01*
X13934Y211434D01*
X14978Y210632D01*
X16195Y210129D01*
X16500Y210088D01*
Y215000D01*
Y219912D01*
X16195Y219871D01*
X14978Y219368D01*
X13934Y218566D01*
X13133Y217522D01*
X12771Y216648D01*
X12229D01*
X11868Y217522D01*
X11066Y218566D01*
X10022Y219368D01*
X8805Y219871D01*
X7500Y220043D01*
D02*
G37*
G36*
X182063Y223953D02*
X178610D01*
Y220500D01*
X182063D01*
Y223953D01*
D02*
G37*
G36*
X177610D02*
X174158D01*
Y220500D01*
X177610D01*
Y223953D01*
D02*
G37*
G36*
X182063Y219500D02*
X178610D01*
Y216047D01*
X182063D01*
Y219500D01*
D02*
G37*
G36*
X177610D02*
X174158D01*
Y216047D01*
X177610D01*
Y219500D01*
D02*
G37*
G36*
X81469Y214500D02*
X78000D01*
Y211031D01*
X78544Y211103D01*
X79517Y211506D01*
X80353Y212147D01*
X80994Y212983D01*
X81397Y213956D01*
X81469Y214500D01*
D02*
G37*
G36*
X188273Y209937D02*
X184427D01*
Y205500D01*
X188273D01*
Y209937D01*
D02*
G37*
G36*
X155773D02*
X151927D01*
Y205500D01*
X155773D01*
Y209937D01*
D02*
G37*
G36*
X123273D02*
X119427D01*
Y205500D01*
X123273D01*
Y209937D01*
D02*
G37*
G36*
X183427D02*
X179580D01*
Y205500D01*
X183427D01*
Y209937D01*
D02*
G37*
G36*
X150927D02*
X147080D01*
Y205500D01*
X150927D01*
Y209937D01*
D02*
G37*
G36*
X118427D02*
X114580D01*
Y205500D01*
X118427D01*
Y209937D01*
D02*
G37*
G36*
X188273Y204500D02*
X184427D01*
Y200063D01*
X188273D01*
Y204500D01*
D02*
G37*
G36*
X155773D02*
X151927D01*
Y200063D01*
X155773D01*
Y204500D01*
D02*
G37*
G36*
X123273D02*
X119427D01*
Y200063D01*
X123273D01*
Y204500D01*
D02*
G37*
G36*
X118427D02*
X114580D01*
Y200063D01*
X118427D01*
Y204500D01*
D02*
G37*
G36*
X203446Y210937D02*
X192754D01*
Y199063D01*
X203446D01*
Y210937D01*
D02*
G37*
G36*
X77500Y170043D02*
X76195Y169871D01*
X74978Y169368D01*
X73934Y168566D01*
X73717Y168283D01*
X73387Y168147D01*
X71613D01*
X71283Y168283D01*
X71066Y168566D01*
X70022Y169368D01*
X68805Y169871D01*
X67500Y170043D01*
X66195Y169871D01*
X64978Y169368D01*
X63934Y168566D01*
X63717Y168283D01*
X63387Y168147D01*
X61613D01*
X61283Y168283D01*
X61066Y168566D01*
X60022Y169368D01*
X58805Y169871D01*
X57500Y170043D01*
X56195Y169871D01*
X54978Y169368D01*
X53934Y168566D01*
X53717Y168283D01*
X53387Y168147D01*
X51613D01*
X51283Y168283D01*
X51066Y168566D01*
X50022Y169368D01*
X48805Y169871D01*
X47500Y170043D01*
X46195Y169871D01*
X44978Y169368D01*
X43934Y168566D01*
X43717Y168283D01*
X43387Y168147D01*
X41613D01*
X41283Y168283D01*
X41066Y168566D01*
X40022Y169368D01*
X38805Y169871D01*
X37500Y170043D01*
X36195Y169871D01*
X34978Y169368D01*
X33934Y168566D01*
X33717Y168283D01*
X33387Y168147D01*
X31613D01*
X31283Y168283D01*
X31066Y168566D01*
X30022Y169368D01*
X28805Y169871D01*
X27500Y170043D01*
X26195Y169871D01*
X24978Y169368D01*
X23934Y168566D01*
X23717Y168283D01*
X23387Y168147D01*
X21613D01*
X21283Y168283D01*
X21066Y168566D01*
X20022Y169368D01*
X18805Y169871D01*
X17500Y170043D01*
X16195Y169871D01*
X14978Y169368D01*
X13934Y168566D01*
X13133Y167522D01*
X13041Y167301D01*
X11735Y167120D01*
X10841Y167216D01*
X10353Y167853D01*
X9517Y168494D01*
X8544Y168897D01*
X8000Y168969D01*
Y165000D01*
Y161031D01*
X8544Y161103D01*
X9517Y161506D01*
X10353Y162147D01*
X10841Y162784D01*
X11735Y162880D01*
X13041Y162699D01*
X13133Y162478D01*
X13934Y161434D01*
X14978Y160633D01*
X16195Y160129D01*
X17500Y159957D01*
X18805Y160129D01*
X20022Y160633D01*
X21066Y161434D01*
X21283Y161717D01*
X21613Y161853D01*
X23387D01*
X23717Y161717D01*
X23934Y161434D01*
X24978Y160633D01*
X26195Y160129D01*
X27500Y159957D01*
X28805Y160129D01*
X30022Y160633D01*
X31066Y161434D01*
X31283Y161717D01*
X31613Y161853D01*
X33387D01*
X33717Y161717D01*
X33934Y161434D01*
X34978Y160633D01*
X36195Y160129D01*
X37500Y159957D01*
X38805Y160129D01*
X40022Y160633D01*
X41066Y161434D01*
X41283Y161717D01*
X41613Y161853D01*
X43387D01*
X43717Y161717D01*
X43934Y161434D01*
X44978Y160633D01*
X46195Y160129D01*
X47500Y159957D01*
X48805Y160129D01*
X50022Y160633D01*
X51066Y161434D01*
X51283Y161717D01*
X51613Y161853D01*
X53387D01*
X53717Y161717D01*
X53934Y161434D01*
X54978Y160633D01*
X56195Y160129D01*
X57500Y159957D01*
X58805Y160129D01*
X60022Y160633D01*
X61066Y161434D01*
X61283Y161717D01*
X61613Y161853D01*
X63387D01*
X63717Y161717D01*
X63934Y161434D01*
X64978Y160633D01*
X66195Y160129D01*
X67500Y159957D01*
X68805Y160129D01*
X70022Y160633D01*
X71066Y161434D01*
X71283Y161717D01*
X71613Y161853D01*
X73387D01*
X73717Y161717D01*
X73934Y161434D01*
X74978Y160633D01*
X76195Y160129D01*
X77500Y159957D01*
X78805Y160129D01*
X80022Y160633D01*
X81066Y161434D01*
X81867Y162478D01*
X82371Y163695D01*
X82543Y165000D01*
X82371Y166305D01*
X81867Y167522D01*
X81066Y168566D01*
X80022Y169368D01*
X78805Y169871D01*
X77500Y170043D01*
D02*
G37*
G36*
X7000Y168969D02*
X6456Y168897D01*
X5483Y168494D01*
X4647Y167853D01*
X4006Y167017D01*
X3603Y166044D01*
X3531Y165500D01*
X7000D01*
Y168969D01*
D02*
G37*
G36*
Y164500D02*
X3531D01*
X3603Y163956D01*
X4006Y162983D01*
X4647Y162147D01*
X5483Y161506D01*
X6456Y161103D01*
X7000Y161031D01*
Y164500D01*
D02*
G37*
G36*
X87000Y148969D02*
X86456Y148897D01*
X85483Y148494D01*
X84647Y147853D01*
X84006Y147017D01*
X83603Y146044D01*
X83531Y145500D01*
X87000D01*
Y148969D01*
D02*
G37*
G36*
X36421Y129500D02*
X33000D01*
Y126079D01*
X33532Y126149D01*
X34493Y126547D01*
X35319Y127181D01*
X35953Y128007D01*
X36351Y128968D01*
X36421Y129500D01*
D02*
G37*
G36*
X26421D02*
X23000D01*
Y126079D01*
X23532Y126149D01*
X24493Y126547D01*
X25319Y127181D01*
X25953Y128007D01*
X26351Y128968D01*
X26421Y129500D01*
D02*
G37*
G36*
X16421D02*
X13000D01*
Y126079D01*
X13532Y126149D01*
X14493Y126547D01*
X15319Y127181D01*
X15953Y128007D01*
X16351Y128968D01*
X16421Y129500D01*
D02*
G37*
G36*
X32000D02*
X28579D01*
X28649Y128968D01*
X29047Y128007D01*
X29681Y127181D01*
X30507Y126547D01*
X31468Y126149D01*
X32000Y126079D01*
Y129500D01*
D02*
G37*
G36*
X22000D02*
X18579D01*
X18649Y128968D01*
X19047Y128007D01*
X19681Y127181D01*
X20507Y126547D01*
X21468Y126149D01*
X22000Y126079D01*
Y129500D01*
D02*
G37*
G36*
X12000D02*
X8579D01*
X8649Y128968D01*
X9047Y128007D01*
X9681Y127181D01*
X10507Y126547D01*
X11468Y126149D01*
X12000Y126079D01*
Y129500D01*
D02*
G37*
G36*
X39500Y34972D02*
X35031D01*
X35103Y34428D01*
X35506Y33455D01*
X36147Y32620D01*
X36983Y31978D01*
X37956Y31575D01*
X39000Y31438D01*
X39500D01*
Y34972D01*
D02*
G37*
G36*
X19969D02*
X15500D01*
Y31438D01*
X16000D01*
X17044Y31575D01*
X18017Y31978D01*
X18853Y32620D01*
X19494Y33455D01*
X19897Y34428D01*
X19969Y34972D01*
D02*
G37*
G36*
X14500D02*
X10031D01*
X10103Y34428D01*
X10506Y33455D01*
X11147Y32620D01*
X11983Y31978D01*
X12956Y31575D01*
X14000Y31438D01*
X14500D01*
Y34972D01*
D02*
G37*
G36*
X66000Y50043D02*
X64000D01*
X62695Y49871D01*
X61478Y49367D01*
X60434Y48566D01*
X59632Y47522D01*
X59129Y46305D01*
X58957Y45000D01*
X59129Y43695D01*
X59632Y42478D01*
X60434Y41434D01*
X60627Y41286D01*
X60701Y41133D01*
Y39024D01*
X60627Y38871D01*
X60434Y38723D01*
X59632Y37679D01*
X59129Y36463D01*
X58957Y35157D01*
X59129Y33852D01*
X59632Y32636D01*
X60434Y31591D01*
X61478Y30790D01*
X62695Y30286D01*
X64000Y30114D01*
X66000D01*
X67305Y30286D01*
X68522Y30790D01*
X69566Y31591D01*
X70367Y32636D01*
X70871Y33852D01*
X71043Y35157D01*
X70871Y36463D01*
X70367Y37679D01*
X69566Y38723D01*
X69374Y38871D01*
X69300Y39024D01*
Y41133D01*
X69374Y41286D01*
X69566Y41434D01*
X70367Y42478D01*
X70871Y43695D01*
X71043Y45000D01*
X70871Y46305D01*
X70367Y47522D01*
X69566Y48566D01*
X68522Y49367D01*
X67305Y49871D01*
X66000Y50043D01*
D02*
G37*
G36*
X160059Y345747D02*
X158591D01*
Y341268D01*
X164973D01*
X164869Y342056D01*
X164372Y343257D01*
X163580Y344289D01*
X162549Y345080D01*
X161348Y345578D01*
X160059Y345747D01*
D02*
G37*
G36*
X157591D02*
X156122D01*
X154833Y345578D01*
X153632Y345080D01*
X152601Y344289D01*
X151810Y343257D01*
X151312Y342056D01*
X151208Y341268D01*
X157591D01*
Y345747D01*
D02*
G37*
G36*
X164973Y340268D02*
X158591D01*
Y335788D01*
X160059D01*
X161348Y335958D01*
X162549Y336455D01*
X163580Y337247D01*
X164372Y338278D01*
X164869Y339479D01*
X164973Y340268D01*
D02*
G37*
G36*
X157591D02*
X151208D01*
X151312Y339479D01*
X151810Y338278D01*
X152601Y337247D01*
X153632Y336455D01*
X154833Y335958D01*
X156122Y335788D01*
X157591D01*
Y340268D01*
D02*
G37*
G36*
X112500Y310971D02*
X111464Y310835D01*
X110499Y310435D01*
X110000Y310052D01*
X109501Y310435D01*
X108536Y310835D01*
X107500Y310971D01*
X106464Y310835D01*
X105499Y310435D01*
X104670Y309799D01*
X104034Y308970D01*
X103634Y308004D01*
X103497Y306968D01*
Y303031D01*
X103634Y301995D01*
X104034Y301030D01*
X104670Y300201D01*
X105499Y299565D01*
X106464Y299165D01*
X107500Y299029D01*
X108536Y299165D01*
X109501Y299565D01*
X110000Y299948D01*
X110499Y299565D01*
X111464Y299165D01*
X112500Y299029D01*
X113536Y299165D01*
X114501Y299565D01*
X115330Y300201D01*
X115694Y300675D01*
X116003Y300438D01*
X116725Y300139D01*
X117000Y300103D01*
Y305000D01*
Y309897D01*
X116725Y309861D01*
X116003Y309561D01*
X115694Y309325D01*
X115330Y309799D01*
X114501Y310435D01*
X113536Y310835D01*
X112500Y310971D01*
D02*
G37*
G36*
X118000Y309897D02*
Y305500D01*
X120494D01*
Y306968D01*
X120392Y307743D01*
X120093Y308466D01*
X119617Y309086D01*
X118997Y309561D01*
X118275Y309861D01*
X118000Y309897D01*
D02*
G37*
G36*
X120494Y304500D02*
X118000D01*
Y300103D01*
X118275Y300139D01*
X118997Y300438D01*
X119617Y300914D01*
X120093Y301534D01*
X120392Y302257D01*
X120494Y303031D01*
Y304500D01*
D02*
G37*
G36*
X201287Y279055D02*
Y276091D01*
X204252D01*
X204197Y276504D01*
X203845Y277356D01*
X203284Y278087D01*
X202553Y278648D01*
X201701Y279000D01*
X201287Y279055D01*
D02*
G37*
G36*
X200287D02*
X199874Y279000D01*
X199022Y278648D01*
X198291Y278087D01*
X197730Y277356D01*
X197378Y276504D01*
X197323Y276091D01*
X200287D01*
Y279055D01*
D02*
G37*
G36*
X204252Y275091D02*
X201287D01*
Y272126D01*
X201701Y272181D01*
X202553Y272533D01*
X203284Y273094D01*
X203845Y273826D01*
X204197Y274677D01*
X204252Y275091D01*
D02*
G37*
G36*
X200287D02*
X197323D01*
X197378Y274677D01*
X197730Y273826D01*
X198291Y273094D01*
X199022Y272533D01*
X199874Y272181D01*
X200287Y272126D01*
Y275091D01*
D02*
G37*
G36*
X154496Y264473D02*
Y258000D01*
X158535D01*
Y260000D01*
X158380Y261175D01*
X157927Y262269D01*
X157205Y263209D01*
X156265Y263931D01*
X155171Y264384D01*
X154496Y264473D01*
D02*
G37*
G36*
X153496D02*
X152821Y264384D01*
X151727Y263931D01*
X150787Y263209D01*
X150065Y262269D01*
X149612Y261175D01*
X149457Y260000D01*
Y258000D01*
X153496D01*
Y264473D01*
D02*
G37*
G36*
X158535Y257000D02*
X154496D01*
Y250527D01*
X155171Y250616D01*
X156265Y251069D01*
X157205Y251791D01*
X157927Y252731D01*
X158380Y253825D01*
X158535Y255000D01*
Y257000D01*
D02*
G37*
G36*
X153496D02*
X149457D01*
Y255000D01*
X149612Y253825D01*
X150065Y252731D01*
X150787Y251791D01*
X151727Y251069D01*
X152821Y250616D01*
X153496Y250527D01*
Y257000D01*
D02*
G37*
G36*
X221000Y210747D02*
X220500D01*
Y207213D01*
X224969D01*
X224897Y207757D01*
X224494Y208730D01*
X223853Y209565D01*
X223017Y210207D01*
X222044Y210610D01*
X221000Y210747D01*
D02*
G37*
G36*
X196000Y68562D02*
X195500D01*
Y65028D01*
X199969D01*
X199897Y65572D01*
X199494Y66545D01*
X198853Y67380D01*
X198017Y68022D01*
X197044Y68425D01*
X196000Y68562D01*
D02*
G37*
G36*
X168500D02*
X168000D01*
Y65028D01*
X172469D01*
X172397Y65572D01*
X171994Y66545D01*
X171353Y67380D01*
X170517Y68022D01*
X169544Y68425D01*
X168500Y68562D01*
D02*
G37*
G36*
X222000D02*
X221500D01*
X220456Y68425D01*
X219483Y68022D01*
X218647Y67380D01*
X218006Y66545D01*
X217603Y65572D01*
X217531Y65028D01*
X222000D01*
Y68562D01*
D02*
G37*
G36*
X194500D02*
X194000D01*
X192956Y68425D01*
X191983Y68022D01*
X191147Y67380D01*
X190506Y66545D01*
X190103Y65572D01*
X190031Y65028D01*
X194500D01*
Y68562D01*
D02*
G37*
G36*
X167000D02*
X166500D01*
X165456Y68425D01*
X164483Y68022D01*
X163647Y67380D01*
X163006Y66545D01*
X162603Y65572D01*
X162531Y65028D01*
X167000D01*
Y68562D01*
D02*
G37*
%LPD*%
D10*
X178110Y232500D02*
D03*
X191890D02*
D03*
X178110Y220000D02*
D03*
X191890D02*
D03*
X106890Y340000D02*
D03*
X93110D02*
D03*
X106890Y327500D02*
D03*
X93110D02*
D03*
D11*
X133100Y183740D02*
D03*
X118927D02*
D03*
Y205000D02*
D03*
X133100D02*
D03*
X165600Y183740D02*
D03*
X151427D02*
D03*
Y205000D02*
D03*
X165600D02*
D03*
X198100Y183740D02*
D03*
X183927D02*
D03*
Y205000D02*
D03*
X198100D02*
D03*
D12*
X217500Y167500D02*
X219843D01*
X212500Y162500D02*
X217500Y167500D01*
X127500Y162500D02*
X212500D01*
X95000Y27500D02*
Y202500D01*
Y27500D02*
X97500Y25000D01*
X92500Y205000D02*
X95000Y202500D01*
X106890Y327500D02*
X130000D01*
X133268Y324232D01*
X133878D01*
X197500Y175000D02*
Y183140D01*
X195000Y172500D02*
X197500Y175000D01*
Y182500D02*
X207500D01*
X210000Y185000D01*
X125000Y57500D02*
Y160000D01*
X122500Y55000D02*
X125000Y57500D01*
X117500Y55000D02*
X122500D01*
X132500Y47500D02*
Y155000D01*
X130000Y45000D02*
X132500Y47500D01*
X117500Y45000D02*
X130000D01*
X47500Y150000D02*
X50000Y147500D01*
X97500Y25000D02*
X117500D01*
X102500Y35000D02*
X117500D01*
X100000Y37500D02*
X102500Y35000D01*
X100000Y37500D02*
Y182500D01*
X101240Y183740D01*
X118927D01*
X133100Y205000D02*
X140000D01*
X142500Y202500D01*
Y185000D02*
Y202500D01*
Y185000D02*
X145000Y182500D01*
X150187D01*
X165600Y205000D02*
X172500D01*
X175000Y202500D01*
Y185000D02*
Y202500D01*
Y185000D02*
X177500Y182500D01*
X182687D01*
X125000Y160000D02*
X127500Y162500D01*
X132500Y155000D02*
X135000Y157500D01*
X220000D01*
X191890Y220000D02*
Y232500D01*
X93110Y327500D02*
Y340000D01*
X165600Y174400D02*
X167500Y172500D01*
X165600Y174400D02*
Y183740D01*
X167500Y172500D02*
X195000D01*
X135000D02*
X167500D01*
X133100Y174400D02*
X135000Y172500D01*
X133100Y174400D02*
Y183740D01*
X210000Y185000D02*
Y200000D01*
X230000Y95000D02*
X232500Y97500D01*
X222500Y95000D02*
X230000D01*
X195000D02*
X222500D01*
X167500D02*
X195000D01*
X50000Y62500D02*
Y147500D01*
X12500Y150000D02*
X47500D01*
D13*
X156122Y298622D02*
Y319232D01*
X152500Y295000D02*
X156122Y298622D01*
X232500Y152500D02*
Y195000D01*
X225000Y145000D02*
X232500Y152500D01*
X147500Y145000D02*
X225000D01*
X175000Y240000D02*
X207500D01*
X152500D02*
X175000D01*
X145000D02*
X152500D01*
X178110Y232500D02*
Y236890D01*
X175000Y240000D02*
X178110Y236890D01*
X140610Y257500D02*
Y293110D01*
Y244390D02*
Y257500D01*
Y225610D02*
Y244390D01*
X137500Y280000D02*
X140000Y282500D01*
X95000Y280000D02*
X137500D01*
Y222500D02*
X140610Y225610D01*
X70000Y222500D02*
X137500D01*
X67500Y220000D02*
X70000Y222500D01*
X67500Y215000D02*
Y220000D01*
X142500Y295000D02*
X152500D01*
X140610Y293110D02*
X142500Y295000D01*
X213130Y196870D02*
X220000D01*
X210000Y200000D02*
X213130Y196870D01*
X220000D02*
X230630D01*
X232500Y195000D01*
X207500Y240000D02*
X210000Y237500D01*
X140610Y244390D02*
X145000Y240000D01*
X197500Y183140D02*
X198100Y183740D01*
X162500Y7500D02*
Y30000D01*
X160000Y5000D02*
X162500Y7500D01*
X52500Y5000D02*
X160000D01*
X162500Y30000D02*
X167500Y35000D01*
X210000Y200000D02*
Y237500D01*
X232500Y37500D02*
Y152500D01*
X230000Y35000D02*
X232500Y37500D01*
X167500Y35000D02*
X195000D01*
X222500D01*
X230000D01*
X50000Y7500D02*
X52500Y5000D01*
X50000Y7500D02*
Y62500D01*
X47500Y65000D02*
X50000Y62500D01*
X40000Y65000D02*
X47500D01*
X15000D02*
X40000D01*
D14*
X222500Y95000D02*
D03*
Y104842D02*
D03*
X167500Y95000D02*
D03*
Y104842D02*
D03*
X195000Y95000D02*
D03*
Y104842D02*
D03*
X15000Y300000D02*
D03*
Y290158D02*
D03*
Y35472D02*
D03*
Y45315D02*
D03*
Y55158D02*
D03*
Y65000D02*
D03*
X40000Y35472D02*
D03*
Y45315D02*
D03*
Y55158D02*
D03*
Y65000D02*
D03*
X65000Y45000D02*
D03*
Y35157D02*
D03*
X195000Y64528D02*
D03*
Y54685D02*
D03*
Y44842D02*
D03*
Y35000D02*
D03*
X167500Y64528D02*
D03*
Y54685D02*
D03*
Y44842D02*
D03*
Y35000D02*
D03*
X222500Y64528D02*
D03*
Y54685D02*
D03*
Y44842D02*
D03*
Y35000D02*
D03*
X220000Y206713D02*
D03*
Y196870D02*
D03*
Y187028D02*
D03*
Y177185D02*
D03*
Y167342D02*
D03*
Y157500D02*
D03*
D15*
X224410Y342520D02*
D03*
Y11811D02*
D03*
X11811D02*
D03*
Y342520D02*
D03*
D16*
X7500Y215000D02*
D03*
X17500D02*
D03*
X27500D02*
D03*
X37500D02*
D03*
X47500D02*
D03*
X57500D02*
D03*
X67500D02*
D03*
X77500D02*
D03*
Y165000D02*
D03*
X67500D02*
D03*
X57500D02*
D03*
X47500D02*
D03*
X37500D02*
D03*
X27500D02*
D03*
X17500D02*
D03*
X7500D02*
D03*
X87500Y135000D02*
D03*
Y125000D02*
D03*
Y115000D02*
D03*
Y105000D02*
D03*
Y95000D02*
D03*
Y85000D02*
D03*
Y75000D02*
D03*
Y65000D02*
D03*
Y55000D02*
D03*
Y45000D02*
D03*
Y35000D02*
D03*
Y25000D02*
D03*
Y15000D02*
D03*
X147500D02*
D03*
Y25000D02*
D03*
Y35000D02*
D03*
Y45000D02*
D03*
Y55000D02*
D03*
Y65000D02*
D03*
Y75000D02*
D03*
Y85000D02*
D03*
Y95000D02*
D03*
Y105000D02*
D03*
Y115000D02*
D03*
X117500Y65000D02*
D03*
Y55000D02*
D03*
Y45000D02*
D03*
Y35000D02*
D03*
Y25000D02*
D03*
Y85000D02*
D03*
Y75000D02*
D03*
X147500Y125000D02*
D03*
Y135000D02*
D03*
Y145000D02*
D03*
X87500D02*
D03*
D17*
X95000Y280000D02*
D03*
Y310000D02*
D03*
D18*
X45000D02*
D03*
X35000Y280000D02*
D03*
D19*
X12500Y130000D02*
D03*
Y140000D02*
D03*
X22500Y130000D02*
D03*
Y140000D02*
D03*
X32500Y130000D02*
D03*
Y140000D02*
D03*
D20*
X12500Y150000D02*
D03*
X22500D02*
D03*
X32500D02*
D03*
D21*
X117500Y305000D02*
D03*
D22*
X112500D02*
D03*
X107500D02*
D03*
D23*
X140610Y257500D02*
D03*
X153996D02*
D03*
D24*
X131909Y340768D02*
D03*
Y324232D02*
D03*
X158091Y340768D02*
D03*
D25*
Y324232D02*
D03*
D26*
X47500Y327500D02*
D03*
Y340886D02*
D03*
D27*
Y257500D02*
D03*
X37657D02*
D03*
X27815D02*
D03*
X57500Y232500D02*
D03*
X47657D02*
D03*
X37815D02*
D03*
X27972D02*
D03*
D28*
X200787Y275590D02*
D03*
X92500Y205000D02*
D03*
X152500Y240000D02*
D03*
M02*
