G04 Layer_Color=16711935*
%FSLAX25Y25*%
%MOIN*%
G70*
G01*
G75*
%ADD38O,0.08800X0.06800*%
%ADD39C,0.21745*%
%ADD40C,0.06800*%
%ADD41C,0.08800*%
%ADD42C,0.08674*%
%ADD43C,0.06706*%
%ADD44R,0.06706X0.06706*%
%ADD45O,0.04737X0.08674*%
%ADD46O,0.04737X0.08674*%
%ADD47O,0.07800X0.12800*%
%ADD48O,0.12611X0.08674*%
%ADD49R,0.12611X0.08674*%
%ADD50O,0.12800X0.07800*%
%ADD51O,0.06800X0.08800*%
%ADD52C,0.05800*%
%ADD53O,0.09855X0.03162*%
D38*
X222500Y95000D02*
D03*
Y104842D02*
D03*
X167500Y95000D02*
D03*
Y104842D02*
D03*
X195000Y95000D02*
D03*
Y104842D02*
D03*
X15000Y300000D02*
D03*
Y290158D02*
D03*
Y35472D02*
D03*
Y45315D02*
D03*
Y55158D02*
D03*
Y65000D02*
D03*
X40000Y35472D02*
D03*
Y45315D02*
D03*
Y55158D02*
D03*
Y65000D02*
D03*
X65000Y45000D02*
D03*
Y35157D02*
D03*
X195000Y64528D02*
D03*
Y54685D02*
D03*
Y44842D02*
D03*
Y35000D02*
D03*
X167500Y64528D02*
D03*
Y54685D02*
D03*
Y44842D02*
D03*
Y35000D02*
D03*
X222500Y64528D02*
D03*
Y54685D02*
D03*
Y44842D02*
D03*
Y35000D02*
D03*
X220000Y206713D02*
D03*
Y196870D02*
D03*
Y187028D02*
D03*
Y177185D02*
D03*
Y167342D02*
D03*
Y157500D02*
D03*
D39*
X224410Y342520D02*
D03*
Y11811D02*
D03*
X11811D02*
D03*
Y342520D02*
D03*
D40*
X7500Y215000D02*
D03*
X17500D02*
D03*
X27500D02*
D03*
X37500D02*
D03*
X47500D02*
D03*
X57500D02*
D03*
X67500D02*
D03*
X77500D02*
D03*
Y165000D02*
D03*
X67500D02*
D03*
X57500D02*
D03*
X47500D02*
D03*
X37500D02*
D03*
X27500D02*
D03*
X17500D02*
D03*
X7500D02*
D03*
X87500Y135000D02*
D03*
Y125000D02*
D03*
Y115000D02*
D03*
Y105000D02*
D03*
Y95000D02*
D03*
Y85000D02*
D03*
Y75000D02*
D03*
Y65000D02*
D03*
Y55000D02*
D03*
Y45000D02*
D03*
Y35000D02*
D03*
Y25000D02*
D03*
Y15000D02*
D03*
X147500D02*
D03*
Y25000D02*
D03*
Y35000D02*
D03*
Y45000D02*
D03*
Y55000D02*
D03*
Y65000D02*
D03*
Y75000D02*
D03*
Y85000D02*
D03*
Y95000D02*
D03*
Y105000D02*
D03*
Y115000D02*
D03*
X117500Y65000D02*
D03*
Y55000D02*
D03*
Y45000D02*
D03*
Y35000D02*
D03*
Y25000D02*
D03*
Y85000D02*
D03*
Y75000D02*
D03*
X147500Y125000D02*
D03*
Y135000D02*
D03*
Y145000D02*
D03*
X87500D02*
D03*
D41*
X95000Y280000D02*
D03*
Y310000D02*
D03*
D42*
X45000D02*
D03*
X35000Y280000D02*
D03*
D43*
X12500Y130000D02*
D03*
Y140000D02*
D03*
X22500Y130000D02*
D03*
Y140000D02*
D03*
X32500Y130000D02*
D03*
Y140000D02*
D03*
D44*
X167500Y115610D02*
D03*
Y129390D02*
D03*
X195000Y115610D02*
D03*
Y129390D02*
D03*
X222500Y115610D02*
D03*
Y129390D02*
D03*
X25000Y288110D02*
D03*
Y301890D02*
D03*
X87500Y256890D02*
D03*
Y243110D02*
D03*
X112500Y294390D02*
D03*
Y280610D02*
D03*
X12500Y150000D02*
D03*
X22500D02*
D03*
X32500D02*
D03*
D45*
X117500Y305000D02*
D03*
D46*
X112500D02*
D03*
X107500D02*
D03*
D47*
X140610Y257500D02*
D03*
X153996D02*
D03*
D48*
X131909Y340768D02*
D03*
Y324232D02*
D03*
X158091Y340768D02*
D03*
D49*
Y324232D02*
D03*
D50*
X47500Y327500D02*
D03*
Y340886D02*
D03*
D51*
Y257500D02*
D03*
X37657D02*
D03*
X27815D02*
D03*
X57500Y232500D02*
D03*
X47657D02*
D03*
X37815D02*
D03*
X27972D02*
D03*
D52*
X200787Y275590D02*
D03*
X92500Y205000D02*
D03*
X152500Y240000D02*
D03*
D53*
X102087Y170000D02*
D03*
Y175000D02*
D03*
Y180000D02*
D03*
Y185000D02*
D03*
Y190000D02*
D03*
Y195000D02*
D03*
Y200000D02*
D03*
Y205000D02*
D03*
Y210000D02*
D03*
Y215000D02*
D03*
X137913Y170000D02*
D03*
Y175000D02*
D03*
Y180000D02*
D03*
Y185000D02*
D03*
Y190000D02*
D03*
Y195000D02*
D03*
Y200000D02*
D03*
Y205000D02*
D03*
Y210000D02*
D03*
Y215000D02*
D03*
M02*
