G04 Layer_Physical_Order=2*
G04 Layer_Color=16711680*
%FSLAX25Y25*%
%MOIN*%
G70*
G01*
G75*
%ADD12C,0.01969*%
%ADD13C,0.03937*%
%ADD14O,0.08000X0.06000*%
%ADD15C,0.20945*%
%ADD16C,0.06000*%
%ADD17C,0.08000*%
%ADD18C,0.07874*%
%ADD19C,0.05906*%
%ADD20R,0.05906X0.05906*%
%ADD21O,0.03937X0.07874*%
%ADD22O,0.03937X0.07874*%
%ADD23O,0.07000X0.12000*%
%ADD24O,0.11811X0.07874*%
%ADD25R,0.11811X0.07874*%
%ADD26O,0.12000X0.07000*%
%ADD27O,0.06000X0.08000*%
%ADD28C,0.05000*%
%ADD29O,0.09055X0.02362*%
%ADD30C,0.07874*%
%ADD31C,0.05906*%
G36*
X141732Y318898D02*
X137524D01*
X137346Y319398D01*
X138096Y320014D01*
X138838Y320918D01*
X139390Y321949D01*
X139729Y323068D01*
X139844Y324232D01*
X139729Y325396D01*
X139390Y326515D01*
X138838Y327547D01*
X138096Y328451D01*
X138096Y328451D01*
X134829Y331718D01*
X133925Y332460D01*
X132893Y333012D01*
X131774Y333351D01*
X130610Y333466D01*
X130610Y333466D01*
X21138D01*
X20908Y333966D01*
X21933Y335166D01*
X22958Y336840D01*
X23710Y338654D01*
X24168Y340563D01*
X24322Y342520D01*
X24168Y344477D01*
X23710Y346386D01*
X22958Y348200D01*
X21933Y349873D01*
X20658Y351366D01*
X19165Y352641D01*
X17491Y353667D01*
X17073Y353840D01*
X17170Y354331D01*
X141732D01*
Y318898D01*
D02*
G37*
G36*
X124981Y320918D02*
X125723Y320014D01*
X126473Y319398D01*
X126295Y318898D01*
X62992D01*
Y246120D01*
X43451D01*
X40668Y248904D01*
Y252507D01*
X41223Y252934D01*
X42025Y253978D01*
X42308Y254662D01*
X42849D01*
X43132Y253978D01*
X43934Y252934D01*
X44978Y252133D01*
X46195Y251629D01*
X46500Y251589D01*
Y257500D01*
Y263411D01*
X46195Y263371D01*
X44978Y262867D01*
X43934Y262066D01*
X43132Y261022D01*
X42849Y260338D01*
X42308D01*
X42025Y261022D01*
X41223Y262066D01*
X40179Y262867D01*
X38963Y263371D01*
X37657Y263543D01*
X36352Y263371D01*
X35136Y262867D01*
X34091Y262066D01*
X33290Y261022D01*
X33235Y260889D01*
X32701Y260905D01*
X32033Y261718D01*
X31129Y262460D01*
X30098Y263012D01*
X29689Y263136D01*
X29120Y263371D01*
X27815Y263543D01*
X27227Y263466D01*
X17471D01*
X10966Y269971D01*
Y285162D01*
X13638D01*
X14000Y285114D01*
X16000D01*
X16470Y285176D01*
X17047Y285100D01*
X20047D01*
Y283157D01*
X29389D01*
X29689Y282658D01*
X29488Y282283D01*
X29149Y281164D01*
X29133Y281000D01*
X34000D01*
Y285867D01*
X33836Y285851D01*
X32717Y285512D01*
X31686Y284960D01*
X30782Y284218D01*
X30453Y283818D01*
X29953Y283997D01*
Y293063D01*
X20073D01*
X19566Y293724D01*
X18522Y294525D01*
X17838Y294808D01*
Y295349D01*
X18522Y295633D01*
X19566Y296434D01*
X19689Y296594D01*
X20047Y296937D01*
X29953D01*
Y305005D01*
X41751D01*
X42717Y304488D01*
X43836Y304149D01*
X45000Y304034D01*
X46164Y304149D01*
X47283Y304488D01*
X48314Y305040D01*
X49218Y305782D01*
X49960Y306686D01*
X50512Y307717D01*
X50851Y308836D01*
X50966Y310000D01*
X50851Y311164D01*
X50512Y312283D01*
X49960Y313314D01*
X49218Y314218D01*
X48314Y314960D01*
X47283Y315512D01*
X46164Y315851D01*
X45000Y315966D01*
X43836Y315851D01*
X42717Y315512D01*
X41751Y314996D01*
X20000D01*
X18707Y314825D01*
X17502Y314326D01*
X16468Y313532D01*
X11468Y308532D01*
X11439Y308495D01*
X10966Y308656D01*
Y312529D01*
X19843Y321406D01*
X20265Y321534D01*
X124651D01*
X124981Y320918D01*
D02*
G37*
G36*
X216341Y353755D02*
X216669Y352311D01*
X215563Y351366D01*
X214288Y349873D01*
X213262Y348200D01*
X212511Y346386D01*
X212052Y344477D01*
X211898Y342520D01*
X212052Y340563D01*
X212511Y338654D01*
X213262Y336840D01*
X214288Y335166D01*
X215563Y333673D01*
X217056Y332398D01*
X218730Y331372D01*
X220543Y330621D01*
X222452Y330163D01*
X224410Y330009D01*
X226367Y330163D01*
X228276Y330621D01*
X230089Y331372D01*
X231763Y332398D01*
X233256Y333673D01*
X234531Y335166D01*
X234811Y335623D01*
X236811Y335059D01*
Y19272D01*
X234811Y18708D01*
X234531Y19165D01*
X233256Y20658D01*
X231763Y21933D01*
X230089Y22958D01*
X228276Y23710D01*
X226367Y24168D01*
X224410Y24322D01*
X222452Y24168D01*
X220543Y23710D01*
X218730Y22958D01*
X217056Y21933D01*
X215563Y20658D01*
X214288Y19165D01*
X213262Y17491D01*
X212511Y15677D01*
X212052Y13768D01*
X211898Y11811D01*
X212052Y9854D01*
X212511Y7945D01*
X213262Y6131D01*
X214288Y4457D01*
X215563Y2964D01*
X216715Y1980D01*
X216481Y744D01*
X216017Y-20D01*
X20204Y-20D01*
X19740Y744D01*
X19505Y1980D01*
X20658Y2964D01*
X21933Y4457D01*
X22958Y6131D01*
X23710Y7945D01*
X24168Y9854D01*
X24322Y11811D01*
X24168Y13768D01*
X23710Y15677D01*
X22958Y17491D01*
X21933Y19165D01*
X20658Y20658D01*
X19165Y21933D01*
X17491Y22958D01*
X15677Y23710D01*
X13768Y24168D01*
X11811Y24322D01*
X9854Y24168D01*
X7945Y23710D01*
X6131Y22958D01*
X4457Y21933D01*
X2964Y20658D01*
X2000Y19528D01*
X663Y19807D01*
X-0Y20221D01*
X-0Y188957D01*
X67500D01*
Y209957D01*
X68805Y210129D01*
X70022Y210632D01*
X71066Y211434D01*
X71868Y212478D01*
X71959Y212699D01*
X73265Y212880D01*
X74159Y212784D01*
X74647Y212147D01*
X75483Y211506D01*
X76456Y211103D01*
X77000Y211031D01*
Y215000D01*
Y218969D01*
X76456Y218897D01*
X75483Y218494D01*
X74647Y217853D01*
X74159Y217216D01*
X73265Y217120D01*
X71959Y217301D01*
X71868Y217522D01*
X71066Y218566D01*
X70022Y219368D01*
X68805Y219871D01*
X67500Y220043D01*
Y240100D01*
X82547D01*
Y238158D01*
X84490D01*
Y182500D01*
X84593Y181721D01*
X84893Y180995D01*
X85372Y180372D01*
X87872Y177872D01*
X88495Y177393D01*
X89221Y177093D01*
X90000Y176990D01*
X93957D01*
X94371Y176705D01*
X95532Y175000D01*
X95641Y174170D01*
X95961Y173396D01*
X96367Y172500D01*
X95961Y171604D01*
X95641Y170830D01*
X95532Y170000D01*
X95641Y169170D01*
X95961Y168396D01*
X96471Y167731D01*
X97136Y167221D01*
X97490Y167075D01*
X98018Y165751D01*
X98102Y164858D01*
X90372Y157128D01*
X89893Y156505D01*
X89593Y155779D01*
X89490Y155000D01*
Y150485D01*
X88000Y149399D01*
Y145000D01*
X87500D01*
Y144500D01*
X83531D01*
X83603Y143956D01*
X84006Y142983D01*
X84647Y142147D01*
X85284Y141659D01*
X85380Y140765D01*
X85199Y139459D01*
X84978Y139367D01*
X83934Y138566D01*
X83132Y137522D01*
X82629Y136305D01*
X82510Y135404D01*
X80510Y135535D01*
Y161007D01*
X81066Y161434D01*
X81867Y162478D01*
X82371Y163695D01*
X82543Y165000D01*
X82371Y166305D01*
X81867Y167522D01*
X81066Y168566D01*
X80022Y169368D01*
X78805Y169871D01*
X77500Y170043D01*
X76195Y169871D01*
X74978Y169368D01*
X73934Y168566D01*
X73717Y168283D01*
X73387Y168147D01*
X71613D01*
X71283Y168283D01*
X71066Y168566D01*
X70022Y169368D01*
X68805Y169871D01*
X67500Y170043D01*
X66195Y169871D01*
X64978Y169368D01*
X63934Y168566D01*
X63717Y168283D01*
X63387Y168147D01*
X61613D01*
X61283Y168283D01*
X61066Y168566D01*
X60022Y169368D01*
X58805Y169871D01*
X57500Y170043D01*
X56195Y169871D01*
X54978Y169368D01*
X53934Y168566D01*
X53507Y168010D01*
X51493D01*
X51066Y168566D01*
X50022Y169368D01*
X48805Y169871D01*
X47500Y170043D01*
X46195Y169871D01*
X44978Y169368D01*
X43934Y168566D01*
X43717Y168283D01*
X43387Y168147D01*
X41613D01*
X41283Y168283D01*
X41066Y168566D01*
X40022Y169368D01*
X38805Y169871D01*
X37500Y170043D01*
X36195Y169871D01*
X34978Y169368D01*
X33934Y168566D01*
X33717Y168283D01*
X33387Y168147D01*
X31613D01*
X31283Y168283D01*
X31066Y168566D01*
X30022Y169368D01*
X28805Y169871D01*
X27500Y170043D01*
X26195Y169871D01*
X24978Y169368D01*
X23934Y168566D01*
X23717Y168283D01*
X23387Y168147D01*
X21613D01*
X21283Y168283D01*
X21066Y168566D01*
X20022Y169368D01*
X18805Y169871D01*
X17500Y170043D01*
X16195Y169871D01*
X14978Y169368D01*
X13934Y168566D01*
X13133Y167522D01*
X13041Y167301D01*
X11735Y167120D01*
X10841Y167216D01*
X10353Y167853D01*
X9517Y168494D01*
X8544Y168897D01*
X8000Y168969D01*
Y165000D01*
Y161031D01*
X8544Y161103D01*
X9517Y161506D01*
X10353Y162147D01*
X10841Y162784D01*
X11735Y162880D01*
X13041Y162699D01*
X13133Y162478D01*
X13934Y161434D01*
X14490Y161007D01*
Y154953D01*
X7547D01*
Y145047D01*
X7709D01*
X8032Y144658D01*
X8595Y143047D01*
X8174Y142498D01*
X7675Y141293D01*
X7504Y140000D01*
X7675Y138707D01*
X8174Y137502D01*
X8968Y136468D01*
X10002Y135674D01*
X10322Y135541D01*
X10460Y133975D01*
X10377Y133354D01*
X9681Y132819D01*
X9047Y131993D01*
X8649Y131032D01*
X8579Y130500D01*
X12500D01*
X16421D01*
X16351Y131032D01*
X15953Y131993D01*
X15319Y132819D01*
X14623Y133354D01*
X14539Y133975D01*
X14678Y135541D01*
X14998Y135674D01*
X16032Y136468D01*
X16296Y136811D01*
X16691Y136956D01*
X18309D01*
X18557Y136865D01*
X18788Y136702D01*
X18968Y136468D01*
X20002Y135674D01*
X20322Y135541D01*
X20460Y133975D01*
X20377Y133354D01*
X19681Y132819D01*
X19047Y131993D01*
X18649Y131032D01*
X18579Y130500D01*
X22500D01*
X26421D01*
X26351Y131032D01*
X25953Y131993D01*
X25319Y132819D01*
X24623Y133354D01*
X24540Y133975D01*
X24678Y135541D01*
X24998Y135674D01*
X26032Y136468D01*
X26296Y136811D01*
X26691Y136956D01*
X28309D01*
X28557Y136865D01*
X28788Y136702D01*
X28968Y136468D01*
X30002Y135674D01*
X30322Y135541D01*
X30461Y133975D01*
X30377Y133354D01*
X29681Y132819D01*
X29047Y131993D01*
X28649Y131032D01*
X28579Y130500D01*
X32500D01*
X36421D01*
X36351Y131032D01*
X35953Y131993D01*
X35319Y132819D01*
X34623Y133354D01*
X34539Y133975D01*
X34678Y135541D01*
X34998Y135674D01*
X36032Y136468D01*
X36826Y137502D01*
X36910Y137704D01*
X37128Y137872D01*
X39628Y140372D01*
X40107Y140995D01*
X40407Y141721D01*
X40510Y142500D01*
Y161007D01*
X41066Y161434D01*
X41283Y161717D01*
X41613Y161853D01*
X43387D01*
X43717Y161717D01*
X43934Y161434D01*
X44978Y160633D01*
X46195Y160129D01*
X47500Y159957D01*
X48805Y160129D01*
X50022Y160633D01*
X51066Y161434D01*
X51493Y161990D01*
X53507D01*
X53934Y161434D01*
X54978Y160633D01*
X56195Y160129D01*
X57500Y159957D01*
X58805Y160129D01*
X60022Y160633D01*
X61066Y161434D01*
X63154Y161559D01*
X64490Y160309D01*
Y107500D01*
X64593Y106721D01*
X64893Y105995D01*
X65372Y105372D01*
X67872Y102872D01*
X68495Y102393D01*
X69221Y102093D01*
X70000Y101990D01*
X83507D01*
X83934Y101434D01*
X84059Y99346D01*
X82809Y98010D01*
X27500D01*
X26721Y97907D01*
X25995Y97607D01*
X25372Y97128D01*
X22872Y94628D01*
X22393Y94005D01*
X22093Y93279D01*
X21990Y92500D01*
Y68606D01*
X19990Y68014D01*
X19566Y68566D01*
X18522Y69367D01*
X17305Y69871D01*
X16000Y70043D01*
X14000D01*
X12695Y69871D01*
X11478Y69367D01*
X10434Y68566D01*
X9633Y67522D01*
X9129Y66305D01*
X8957Y65000D01*
X9129Y63695D01*
X9633Y62478D01*
X10434Y61434D01*
X10627Y61286D01*
X10701Y61133D01*
Y59024D01*
X10627Y58871D01*
X10434Y58723D01*
X9633Y57679D01*
X9129Y56463D01*
X8957Y55158D01*
X9129Y53852D01*
X9633Y52636D01*
X10434Y51591D01*
X10627Y51444D01*
X10701Y51291D01*
Y49182D01*
X10627Y49029D01*
X10434Y48881D01*
X9633Y47837D01*
X9129Y46620D01*
X8957Y45315D01*
X9129Y44010D01*
X9633Y42793D01*
X10434Y41749D01*
X11478Y40947D01*
X11509Y40935D01*
X11728Y40022D01*
X11650Y38711D01*
X11147Y38325D01*
X10506Y37490D01*
X10103Y36517D01*
X10031Y35972D01*
X15000D01*
X19969D01*
X19897Y36517D01*
X19494Y37490D01*
X18853Y38325D01*
X18350Y38711D01*
X18271Y40022D01*
X18491Y40935D01*
X18522Y40947D01*
X19566Y41749D01*
X19993Y42305D01*
X27815D01*
X28594Y42408D01*
X29320Y42708D01*
X29943Y43187D01*
X32034Y45277D01*
X32499Y45221D01*
X34052Y44593D01*
X34129Y44010D01*
X34633Y42793D01*
X35434Y41749D01*
X36478Y40947D01*
X36509Y40935D01*
X36729Y40022D01*
X36650Y38711D01*
X36147Y38325D01*
X35506Y37490D01*
X35103Y36517D01*
X35031Y35972D01*
X40000D01*
Y35472D01*
X40500D01*
Y31438D01*
X41000D01*
X42044Y31575D01*
X42490Y31760D01*
X43972Y31077D01*
X44490Y30588D01*
Y17500D01*
X44593Y16721D01*
X44893Y15995D01*
X45372Y15372D01*
X47872Y12872D01*
X48495Y12393D01*
X49221Y12093D01*
X50000Y11990D01*
X83507D01*
X83934Y11434D01*
X84978Y10633D01*
X86195Y10129D01*
X87500Y9957D01*
X88805Y10129D01*
X90022Y10633D01*
X91066Y11434D01*
X91868Y12478D01*
X92371Y13695D01*
X92543Y15000D01*
X92371Y16305D01*
X91868Y17522D01*
X91066Y18566D01*
X90783Y18783D01*
X90647Y19113D01*
Y20887D01*
X90783Y21217D01*
X91066Y21434D01*
X91868Y22478D01*
X92371Y23695D01*
X92543Y25000D01*
X92371Y26305D01*
X91868Y27522D01*
X91066Y28566D01*
X90783Y28783D01*
X90647Y29113D01*
Y30887D01*
X90783Y31217D01*
X91066Y31434D01*
X91868Y32478D01*
X92371Y33695D01*
X92543Y35000D01*
X92371Y36305D01*
X91868Y37522D01*
X91066Y38566D01*
X90783Y38783D01*
X90647Y39113D01*
Y40887D01*
X90783Y41217D01*
X91066Y41434D01*
X91868Y42478D01*
X92371Y43695D01*
X92543Y45000D01*
X92371Y46305D01*
X91868Y47522D01*
X91066Y48566D01*
X90941Y50654D01*
X92191Y51990D01*
X100000D01*
X100779Y52093D01*
X101505Y52393D01*
X102128Y52872D01*
X104628Y55372D01*
X105107Y55995D01*
X105407Y56721D01*
X105510Y57500D01*
Y62620D01*
X107358Y63385D01*
X107872Y62872D01*
X108495Y62393D01*
X109221Y62093D01*
X110000Y61990D01*
X113507D01*
X113934Y61434D01*
X114217Y61217D01*
X114353Y60887D01*
Y59113D01*
X114217Y58783D01*
X113934Y58566D01*
X113133Y57522D01*
X112629Y56305D01*
X112457Y55000D01*
X112629Y53695D01*
X113133Y52478D01*
X113934Y51434D01*
X114217Y51217D01*
X114353Y50887D01*
Y49113D01*
X114217Y48783D01*
X113934Y48566D01*
X113133Y47522D01*
X112629Y46305D01*
X112457Y45000D01*
X112629Y43695D01*
X113133Y42478D01*
X113934Y41434D01*
X114217Y41217D01*
X114353Y40887D01*
Y39113D01*
X114217Y38783D01*
X113934Y38566D01*
X113133Y37522D01*
X112629Y36305D01*
X112457Y35000D01*
X112629Y33695D01*
X113133Y32478D01*
X113934Y31434D01*
X114217Y31217D01*
X114353Y30887D01*
Y29113D01*
X114217Y28783D01*
X113934Y28566D01*
X113133Y27522D01*
X112629Y26305D01*
X112457Y25000D01*
X112629Y23695D01*
X113133Y22478D01*
X113934Y21434D01*
X114978Y20632D01*
X116195Y20129D01*
X117500Y19957D01*
X118805Y20129D01*
X120022Y20632D01*
X121066Y21434D01*
X121868Y22478D01*
X122371Y23695D01*
X122543Y25000D01*
X122371Y26305D01*
X121868Y27522D01*
X121066Y28566D01*
X120783Y28783D01*
X120647Y29113D01*
Y30887D01*
X120783Y31217D01*
X121066Y31434D01*
X121868Y32478D01*
X122371Y33695D01*
X122543Y35000D01*
X122371Y36305D01*
X121868Y37522D01*
X121066Y38566D01*
X120783Y38783D01*
X120647Y39113D01*
Y40887D01*
X120783Y41217D01*
X121066Y41434D01*
X121868Y42478D01*
X122371Y43695D01*
X122543Y45000D01*
X122371Y46305D01*
X121868Y47522D01*
X121066Y48566D01*
X120783Y48783D01*
X120647Y49113D01*
Y50887D01*
X120783Y51217D01*
X121066Y51434D01*
X121868Y52478D01*
X122371Y53695D01*
X122543Y55000D01*
X122371Y56305D01*
X121868Y57522D01*
X121066Y58566D01*
X120783Y58783D01*
X120647Y59113D01*
Y60887D01*
X120783Y61217D01*
X121066Y61434D01*
X121868Y62478D01*
X122371Y63695D01*
X122543Y65000D01*
X122371Y66305D01*
X121868Y67522D01*
X121066Y68566D01*
X120022Y69367D01*
X119801Y69459D01*
X119620Y70765D01*
X119716Y71659D01*
X120353Y72147D01*
X120994Y72983D01*
X121397Y73956D01*
X121469Y74500D01*
X113531D01*
X113603Y73956D01*
X114006Y72983D01*
X114647Y72147D01*
X115284Y71659D01*
X115380Y70765D01*
X115199Y69459D01*
X114978Y69367D01*
X113934Y68566D01*
X113507Y68010D01*
X111247D01*
X110510Y68747D01*
Y84465D01*
X112510Y84596D01*
X112629Y83695D01*
X113133Y82478D01*
X113934Y81434D01*
X114978Y80633D01*
X115199Y80541D01*
X115380Y79235D01*
X115284Y78341D01*
X114647Y77853D01*
X114006Y77017D01*
X113603Y76044D01*
X113531Y75500D01*
X121469D01*
X121397Y76044D01*
X120994Y77017D01*
X120353Y77853D01*
X119716Y78341D01*
X119620Y79235D01*
X119801Y80541D01*
X120022Y80633D01*
X121066Y81434D01*
X121868Y82478D01*
X122371Y83695D01*
X122543Y85000D01*
X122371Y86305D01*
X121868Y87522D01*
X121066Y88566D01*
X120510Y88993D01*
Y148753D01*
X128747Y156990D01*
X192500D01*
X193279Y157093D01*
X194005Y157393D01*
X194628Y157872D01*
X197128Y160372D01*
X197607Y160995D01*
X197907Y161721D01*
X198010Y162500D01*
Y173753D01*
X198747Y174490D01*
X214766D01*
X215434Y173619D01*
X215627Y173471D01*
X215701Y173318D01*
Y171209D01*
X215627Y171056D01*
X215434Y170909D01*
X214633Y169864D01*
X214129Y168648D01*
X213957Y167342D01*
X214129Y166037D01*
X214633Y164821D01*
X215434Y163777D01*
X215627Y163629D01*
X215701Y163476D01*
Y161367D01*
X215627Y161214D01*
X215434Y161066D01*
X214633Y160022D01*
X214129Y158805D01*
X213957Y157500D01*
X214129Y156195D01*
X214633Y154978D01*
X215434Y153934D01*
X216478Y153132D01*
X217695Y152629D01*
X219000Y152457D01*
X221000D01*
X222305Y152629D01*
X223522Y153132D01*
X224566Y153934D01*
X225367Y154978D01*
X225871Y156195D01*
X226043Y157500D01*
X225871Y158805D01*
X225367Y160022D01*
X224566Y161066D01*
X224374Y161214D01*
X224300Y161367D01*
Y163476D01*
X224374Y163629D01*
X224566Y163777D01*
X225367Y164821D01*
X225871Y166037D01*
X226043Y167342D01*
X225871Y168648D01*
X225367Y169864D01*
X224566Y170909D01*
X224374Y171056D01*
X224300Y171209D01*
Y173318D01*
X224374Y173471D01*
X224566Y173619D01*
X225367Y174663D01*
X225871Y175880D01*
X226043Y177185D01*
X225871Y178490D01*
X225367Y179707D01*
X224566Y180751D01*
X224374Y180899D01*
X224300Y181052D01*
Y183161D01*
X224374Y183314D01*
X224566Y183461D01*
X225367Y184506D01*
X225871Y185722D01*
X226043Y187028D01*
X225871Y188333D01*
X225367Y189549D01*
X224566Y190594D01*
X224374Y190741D01*
X224300Y190894D01*
Y193003D01*
X224374Y193156D01*
X224566Y193304D01*
X225367Y194349D01*
X225871Y195565D01*
X226043Y196870D01*
X225871Y198175D01*
X225367Y199392D01*
X224566Y200436D01*
X223522Y201238D01*
X223491Y201250D01*
X223271Y202163D01*
X223350Y203474D01*
X223853Y203860D01*
X224494Y204695D01*
X224897Y205668D01*
X224969Y206213D01*
X220000D01*
Y206713D01*
D01*
Y206213D01*
X215031D01*
X215103Y205668D01*
X215506Y204695D01*
X216147Y203860D01*
X216650Y203474D01*
X216728Y202163D01*
X216509Y201250D01*
X216478Y201238D01*
X215434Y200436D01*
X214633Y199392D01*
X214129Y198175D01*
X213957Y196870D01*
X214129Y195565D01*
X214633Y194349D01*
X215434Y193304D01*
X214802Y191464D01*
X213860Y190510D01*
X192500D01*
X191721Y190407D01*
X190995Y190107D01*
X190372Y189628D01*
X187872Y187128D01*
X187393Y186505D01*
X187093Y185779D01*
X186990Y185000D01*
Y168747D01*
X186253Y168010D01*
X159880D01*
X159115Y169858D01*
X159628Y170372D01*
X160107Y170995D01*
X160407Y171721D01*
X160510Y172500D01*
Y235000D01*
X160407Y235779D01*
X160107Y236505D01*
X159628Y237128D01*
X157006Y239751D01*
X157039Y240000D01*
X156884Y241175D01*
X156431Y242269D01*
X155709Y243209D01*
X154769Y243931D01*
X153675Y244384D01*
X152500Y244539D01*
X151325Y244384D01*
X150231Y243931D01*
X149291Y243209D01*
X148569Y242269D01*
X148116Y241175D01*
X147961Y240000D01*
X148116Y238825D01*
X148569Y237731D01*
X149291Y236791D01*
X150231Y236069D01*
X151325Y235616D01*
X152500Y235461D01*
X152749Y235494D01*
X154490Y233753D01*
Y173747D01*
X153753Y173010D01*
X149880D01*
X149115Y174858D01*
X149628Y175372D01*
X150107Y175995D01*
X150407Y176721D01*
X150510Y177500D01*
Y220000D01*
X150407Y220779D01*
X150107Y221505D01*
X149628Y222128D01*
X147128Y224628D01*
X146505Y225107D01*
X145779Y225407D01*
X145000Y225510D01*
X112500D01*
X111721Y225407D01*
X110995Y225107D01*
X110372Y224628D01*
X107872Y222128D01*
X107393Y221505D01*
X107093Y220779D01*
X106990Y220000D01*
Y218805D01*
X105433Y217224D01*
X102587D01*
Y215000D01*
X101587D01*
Y217224D01*
X98740D01*
X97889Y217055D01*
X97510Y216801D01*
X96250Y217189D01*
X95510Y217687D01*
Y233753D01*
X96247Y234490D01*
X110000D01*
X110779Y234593D01*
X111505Y234893D01*
X112128Y235372D01*
X114628Y237872D01*
X115107Y238495D01*
X115407Y239221D01*
X115510Y240000D01*
Y275658D01*
X117453D01*
Y285563D01*
X107547D01*
Y275658D01*
X109490D01*
Y241247D01*
X108753Y240510D01*
X95000D01*
X94453Y240438D01*
X94028Y240546D01*
X92527Y241624D01*
X92453Y241740D01*
Y248063D01*
X82547D01*
Y246120D01*
X67500D01*
Y314941D01*
X88706Y314941D01*
X89285Y314221D01*
X89769Y312941D01*
X89430Y312307D01*
X89087Y311176D01*
X88971Y310000D01*
X89087Y308824D01*
X89430Y307693D01*
X89987Y306650D01*
X90737Y305737D01*
X91650Y304987D01*
X92693Y304430D01*
X93824Y304087D01*
X95000Y303971D01*
X96176Y304087D01*
X96545Y304199D01*
X97872Y302872D01*
X98495Y302393D01*
X99221Y302093D01*
X100000Y301990D01*
X103636D01*
X104034Y301030D01*
X104670Y300201D01*
X105499Y299565D01*
X106464Y299165D01*
X107500Y299029D01*
X107547Y298987D01*
Y289437D01*
X117453D01*
Y298112D01*
X117483Y299364D01*
X118997Y300438D01*
X119617Y300914D01*
X120093Y301534D01*
X120392Y302257D01*
X120494Y303031D01*
Y304500D01*
X117500D01*
Y305000D01*
X117000D01*
Y309897D01*
X116725Y309861D01*
X116003Y309561D01*
X115694Y309325D01*
X115330Y309799D01*
X114501Y310435D01*
X113536Y310835D01*
X112500Y310971D01*
X111464Y310835D01*
X110499Y310435D01*
X110000Y310052D01*
X109501Y310435D01*
X108536Y310835D01*
X107500Y310971D01*
X106464Y310835D01*
X105499Y310435D01*
X104670Y309799D01*
X104117Y309079D01*
X103709Y308961D01*
X102588Y308928D01*
X101029Y310000D01*
X100913Y311176D01*
X100570Y312307D01*
X100231Y312941D01*
X100715Y314221D01*
X101294Y314941D01*
X146260Y314941D01*
Y354311D01*
X215985D01*
X216341Y353755D01*
D02*
G37*
G36*
X33290Y253978D02*
X34091Y252934D01*
X34648Y252507D01*
Y247657D01*
X34750Y246878D01*
X35051Y246152D01*
X35529Y245529D01*
X40076Y240982D01*
X40700Y240504D01*
X41426Y240203D01*
X42205Y240100D01*
X62992D01*
Y233920D01*
X62492Y233888D01*
X62371Y234805D01*
X61867Y236022D01*
X61066Y237066D01*
X60022Y237867D01*
X58805Y238371D01*
X57500Y238543D01*
X56195Y238371D01*
X54978Y237867D01*
X53934Y237066D01*
X53132Y236022D01*
X52849Y235338D01*
X52308D01*
X52025Y236022D01*
X51223Y237066D01*
X50179Y237867D01*
X48963Y238371D01*
X47657Y238543D01*
X46352Y238371D01*
X45136Y237867D01*
X44091Y237066D01*
X43290Y236022D01*
X43007Y235338D01*
X42466D01*
X42182Y236022D01*
X41381Y237066D01*
X40336Y237867D01*
X39120Y238371D01*
X37815Y238543D01*
X36510Y238371D01*
X35293Y237867D01*
X34249Y237066D01*
X33448Y236022D01*
X33164Y235338D01*
X32623D01*
X32340Y236022D01*
X31539Y237066D01*
X30494Y237867D01*
X29278Y238371D01*
X27972Y238543D01*
X26667Y238371D01*
X25451Y237867D01*
X24406Y237066D01*
X23605Y236022D01*
X23101Y234805D01*
X22929Y233500D01*
Y231500D01*
X23101Y230195D01*
X23497Y229238D01*
Y217997D01*
X23133Y217522D01*
X22771Y216648D01*
X22229D01*
X21868Y217522D01*
X21066Y218566D01*
X20022Y219368D01*
X18805Y219871D01*
X18500Y219912D01*
Y215000D01*
Y210088D01*
X18805Y210129D01*
X20022Y210632D01*
X21066Y211434D01*
X21868Y212478D01*
X22229Y213352D01*
X22771D01*
X23133Y212478D01*
X23934Y211434D01*
X24978Y210632D01*
X26195Y210129D01*
X27500Y209957D01*
X28805Y210129D01*
X30022Y210632D01*
X31066Y211434D01*
X31868Y212478D01*
X32229Y213352D01*
X32771D01*
X33132Y212478D01*
X33934Y211434D01*
X34978Y210632D01*
X36195Y210129D01*
X37500Y209957D01*
X38805Y210129D01*
X40022Y210632D01*
X41066Y211434D01*
X41868Y212478D01*
X42229Y213352D01*
X42771D01*
X43132Y212478D01*
X43934Y211434D01*
X44978Y210632D01*
X46195Y210129D01*
X47500Y209957D01*
X48805Y210129D01*
X50022Y210632D01*
X51066Y211434D01*
X51868Y212478D01*
X52229Y213352D01*
X52771D01*
X53132Y212478D01*
X53934Y211434D01*
X54978Y210632D01*
X56195Y210129D01*
X57500Y209957D01*
X58805Y210129D01*
X60022Y210632D01*
X61066Y211434D01*
X61867Y212478D01*
X62229Y213352D01*
X62771D01*
X62992Y212817D01*
Y192913D01*
X0D01*
Y213446D01*
X500Y213625D01*
X782Y213282D01*
X3282Y210782D01*
X4186Y210040D01*
X5217Y209488D01*
X6336Y209149D01*
X7500Y209034D01*
X8664Y209149D01*
X9783Y209488D01*
X10814Y210040D01*
X11718Y210782D01*
X12460Y211686D01*
X12731Y212192D01*
X13320Y212234D01*
X13934Y211434D01*
X14978Y210632D01*
X16195Y210129D01*
X16500Y210088D01*
Y215000D01*
Y219912D01*
X16195Y219871D01*
X14978Y219368D01*
X13934Y218566D01*
X13320Y217766D01*
X12731Y217808D01*
X12460Y218314D01*
X11718Y219218D01*
X10966Y219971D01*
Y252546D01*
X11418Y252760D01*
X11686Y252540D01*
X12717Y251988D01*
X13836Y251649D01*
X15000Y251534D01*
X15000Y251534D01*
X27227D01*
X27815Y251457D01*
X29120Y251629D01*
X29689Y251864D01*
X30098Y251988D01*
X31129Y252540D01*
X32033Y253282D01*
X32701Y254095D01*
X33235Y254111D01*
X33290Y253978D01*
D02*
G37*
G36*
X132293Y219049D02*
X132586Y217490D01*
X132298Y217269D01*
X131788Y216604D01*
X131468Y215830D01*
X131358Y215000D01*
X131468Y214170D01*
X131788Y213396D01*
X132298Y212731D01*
Y212269D01*
X131788Y211604D01*
X131468Y210830D01*
X131358Y210000D01*
X131468Y209170D01*
X131788Y208396D01*
X132298Y207731D01*
Y207269D01*
X131788Y206604D01*
X131468Y205830D01*
X131358Y205000D01*
X131468Y204170D01*
X131788Y203396D01*
X132298Y202731D01*
Y202269D01*
X131788Y201604D01*
X131468Y200830D01*
X131358Y200000D01*
X131468Y199170D01*
X131788Y198396D01*
X132298Y197731D01*
Y197269D01*
X131788Y196604D01*
X131468Y195830D01*
X131358Y195000D01*
X131468Y194170D01*
X131788Y193396D01*
X132298Y192731D01*
Y192269D01*
X131788Y191604D01*
X131468Y190830D01*
X131358Y190000D01*
X130198Y188295D01*
X129783Y188010D01*
X117500D01*
X116721Y187907D01*
X115995Y187607D01*
X115372Y187128D01*
X114858Y186615D01*
X113010Y187380D01*
Y218753D01*
X113747Y219490D01*
X132061D01*
X132293Y219049D01*
D02*
G37*
G36*
X94019Y200502D02*
X95623Y199309D01*
X95641Y199170D01*
X95961Y198396D01*
X96367Y197500D01*
X95961Y196604D01*
X95641Y195830D01*
X95532Y195000D01*
X95641Y194170D01*
X95961Y193396D01*
X96367Y192500D01*
X95961Y191604D01*
X95641Y190830D01*
X95532Y190000D01*
X95641Y189170D01*
X95961Y188396D01*
X96367Y187500D01*
X95961Y186604D01*
X95641Y185830D01*
X95532Y185000D01*
X94371Y183296D01*
X93957Y183010D01*
X91247D01*
X90510Y183747D01*
Y198953D01*
X92500Y200461D01*
X93594Y200605D01*
X93682Y200613D01*
X94019Y200502D01*
D02*
G37*
G36*
X215434Y183461D02*
X214970Y181577D01*
X213925Y180510D01*
X197500D01*
X196721Y180407D01*
X195995Y180107D01*
X195372Y179628D01*
X194858Y179114D01*
X193010Y179880D01*
Y183753D01*
X193747Y184490D01*
X214645D01*
X215434Y183461D01*
D02*
G37*
G36*
X130198Y176705D02*
X131358Y175000D01*
X131468Y174170D01*
X131788Y173396D01*
X132298Y172731D01*
Y172269D01*
X131788Y171604D01*
X131468Y170830D01*
X131358Y170000D01*
X130198Y168296D01*
X129783Y168010D01*
X125000D01*
X123335Y169124D01*
X123010Y169571D01*
Y176253D01*
X123747Y176990D01*
X129783D01*
X130198Y176705D01*
D02*
G37*
G36*
X34490Y160309D02*
Y154953D01*
X30510D01*
Y161007D01*
X31066Y161434D01*
X33154Y161559D01*
X34490Y160309D01*
D02*
G37*
G36*
X24490D02*
Y154953D01*
X20510D01*
Y161007D01*
X21066Y161434D01*
X23154Y161559D01*
X24490Y160309D01*
D02*
G37*
G36*
X82629Y133695D02*
X83132Y132478D01*
X83934Y131434D01*
X84217Y131217D01*
X84353Y130887D01*
Y129113D01*
X84217Y128783D01*
X83934Y128566D01*
X83132Y127522D01*
X82629Y126305D01*
X82510Y125404D01*
X80510Y125535D01*
Y134465D01*
X82510Y134596D01*
X82629Y133695D01*
D02*
G37*
G36*
X74490Y160309D02*
Y117500D01*
X74593Y116721D01*
X74893Y115995D01*
X75372Y115372D01*
X77872Y112872D01*
X78495Y112393D01*
X79221Y112093D01*
X80000Y111990D01*
X83507D01*
X83934Y111434D01*
X84059Y109346D01*
X82809Y108010D01*
X71247D01*
X70510Y108747D01*
Y161007D01*
X71066Y161434D01*
X73154Y161559D01*
X74490Y160309D01*
D02*
G37*
G36*
X83934Y91434D02*
X84059Y89346D01*
X82809Y88010D01*
X32500D01*
X31721Y87907D01*
X30995Y87607D01*
X30372Y87128D01*
X29858Y86615D01*
X28010Y87380D01*
Y91253D01*
X28747Y91990D01*
X83507D01*
X83934Y91434D01*
D02*
G37*
G36*
X114490Y147405D02*
Y88993D01*
X113934Y88566D01*
X113133Y87522D01*
X112629Y86305D01*
X112510Y85404D01*
X110510Y85535D01*
Y146253D01*
X112490Y148233D01*
X114490Y147405D01*
D02*
G37*
G36*
X99490Y62620D02*
Y58747D01*
X98753Y58010D01*
X91493D01*
X91066Y58566D01*
X90941Y60654D01*
X92191Y61990D01*
X95000D01*
X95779Y62093D01*
X96505Y62393D01*
X97128Y62872D01*
X97642Y63385D01*
X99490Y62620D01*
D02*
G37*
G36*
X26990Y52620D02*
Y48747D01*
X26568Y48325D01*
X19993D01*
X19566Y48881D01*
X19702Y50854D01*
X20945Y52148D01*
X22658D01*
X23437Y52250D01*
X24162Y52551D01*
X24786Y53029D01*
X25142Y53386D01*
X26990Y52620D01*
D02*
G37*
G36*
X83934Y81434D02*
X84217Y81217D01*
X84353Y80887D01*
Y79113D01*
X84217Y78783D01*
X83934Y78566D01*
X83132Y77522D01*
X82629Y76305D01*
X82457Y75000D01*
X82629Y73695D01*
X83132Y72478D01*
X83934Y71434D01*
X84217Y71217D01*
X84353Y70887D01*
Y69113D01*
X84217Y68783D01*
X83934Y68566D01*
X83132Y67522D01*
X82629Y66305D01*
X82457Y65000D01*
X82629Y63695D01*
X83132Y62478D01*
X83934Y61434D01*
X84217Y61217D01*
X84353Y60887D01*
Y59113D01*
X84217Y58783D01*
X83934Y58566D01*
X83132Y57522D01*
X82629Y56305D01*
X82457Y55000D01*
X82629Y53695D01*
X83132Y52478D01*
X83934Y51434D01*
X84059Y49346D01*
X82809Y48010D01*
X69993D01*
X69566Y48566D01*
X68522Y49367D01*
X67305Y49871D01*
X66000Y50043D01*
X64000D01*
X62695Y49871D01*
X61478Y49367D01*
X60434Y48566D01*
X59632Y47522D01*
X59129Y46305D01*
X58957Y45000D01*
X59129Y43695D01*
X59632Y42478D01*
X60434Y41434D01*
X60627Y41286D01*
X60701Y41133D01*
Y39024D01*
X60627Y38871D01*
X60434Y38723D01*
X59632Y37679D01*
X59129Y36463D01*
X58957Y35157D01*
X59129Y33852D01*
X59632Y32636D01*
X60434Y31591D01*
X61478Y30790D01*
X62695Y30286D01*
X64000Y30114D01*
X66000D01*
X67305Y30286D01*
X68522Y30790D01*
X69566Y31591D01*
X69993Y32147D01*
X83386D01*
X83934Y31434D01*
X84059Y29346D01*
X82809Y28010D01*
X56247D01*
X55510Y28747D01*
Y52500D01*
X55407Y53279D01*
X55107Y54005D01*
X54628Y54628D01*
X51971Y57286D01*
X51348Y57764D01*
X50622Y58065D01*
X49843Y58167D01*
X44993D01*
X44566Y58723D01*
X44374Y58871D01*
X44300Y59024D01*
Y61133D01*
X44374Y61286D01*
X44566Y61434D01*
X45368Y62478D01*
X45871Y63695D01*
X46043Y65000D01*
X45871Y66305D01*
X45368Y67522D01*
X44566Y68566D01*
X43522Y69367D01*
X42305Y69871D01*
X41000Y70043D01*
X39000D01*
X37695Y69871D01*
X36478Y69367D01*
X35434Y68566D01*
X35010Y68014D01*
X33010Y68606D01*
Y81253D01*
X33747Y81990D01*
X83507D01*
X83934Y81434D01*
D02*
G37*
G36*
Y41434D02*
X83900Y39389D01*
X82744Y38168D01*
X69993D01*
X69566Y38723D01*
X69702Y40696D01*
X70945Y41990D01*
X83507D01*
X83934Y41434D01*
D02*
G37*
G36*
X52872Y22872D02*
X53495Y22393D01*
X54221Y22093D01*
X55000Y21990D01*
X83507D01*
X83934Y21434D01*
X84059Y19346D01*
X82809Y18010D01*
X51247D01*
X50510Y18747D01*
Y22620D01*
X52358Y23385D01*
X52872Y22872D01*
D02*
G37*
%LPC*%
G36*
X50000Y346433D02*
X48500D01*
Y341886D01*
X55416D01*
X55358Y342322D01*
X54804Y343659D01*
X53923Y344809D01*
X52774Y345690D01*
X51436Y346244D01*
X50000Y346433D01*
D02*
G37*
G36*
X46500D02*
X45000D01*
X43564Y346244D01*
X42226Y345690D01*
X41077Y344809D01*
X40196Y343659D01*
X39642Y342322D01*
X39584Y341886D01*
X46500D01*
Y346433D01*
D02*
G37*
G36*
X133878Y346733D02*
X132909D01*
Y341768D01*
X139745D01*
X139729Y341932D01*
X139390Y343051D01*
X138838Y344082D01*
X138096Y344986D01*
X137192Y345728D01*
X136161Y346279D01*
X135042Y346619D01*
X133878Y346733D01*
D02*
G37*
G36*
X130909D02*
X129941D01*
X128777Y346619D01*
X127658Y346279D01*
X126627Y345728D01*
X125723Y344986D01*
X124981Y344082D01*
X124429Y343051D01*
X124090Y341932D01*
X124074Y341768D01*
X130909D01*
Y346733D01*
D02*
G37*
G36*
X55416Y339886D02*
X48500D01*
Y335338D01*
X50000D01*
X51436Y335527D01*
X52774Y336082D01*
X53923Y336963D01*
X54804Y338112D01*
X55358Y339450D01*
X55416Y339886D01*
D02*
G37*
G36*
X46500D02*
X39584D01*
X39642Y339450D01*
X40196Y338112D01*
X41077Y336963D01*
X42226Y336082D01*
X43564Y335527D01*
X45000Y335338D01*
X46500D01*
Y339886D01*
D02*
G37*
G36*
X139745Y339768D02*
X132909D01*
Y334802D01*
X133878D01*
X135042Y334917D01*
X136161Y335256D01*
X137192Y335807D01*
X138096Y336549D01*
X138838Y337453D01*
X139390Y338485D01*
X139729Y339604D01*
X139745Y339768D01*
D02*
G37*
G36*
X130909D02*
X124074D01*
X124090Y339604D01*
X124429Y338485D01*
X124981Y337453D01*
X125723Y336549D01*
X126627Y335807D01*
X127658Y335256D01*
X128777Y334917D01*
X129941Y334802D01*
X130909D01*
Y339768D01*
D02*
G37*
G36*
X36000Y285867D02*
Y281000D01*
X40867D01*
X40851Y281164D01*
X40512Y282283D01*
X39960Y283314D01*
X39218Y284218D01*
X38314Y284960D01*
X37283Y285512D01*
X36164Y285851D01*
X36000Y285867D01*
D02*
G37*
G36*
X40867Y279000D02*
X36000D01*
Y274133D01*
X36164Y274149D01*
X37283Y274488D01*
X38314Y275040D01*
X39218Y275782D01*
X39960Y276686D01*
X40512Y277717D01*
X40851Y278836D01*
X40867Y279000D01*
D02*
G37*
G36*
X34000D02*
X29133D01*
X29149Y278836D01*
X29488Y277717D01*
X30040Y276686D01*
X30782Y275782D01*
X31686Y275040D01*
X32717Y274488D01*
X33836Y274149D01*
X34000Y274133D01*
Y279000D01*
D02*
G37*
G36*
X48500Y263411D02*
Y258500D01*
X52543D01*
X52371Y259805D01*
X51868Y261022D01*
X51066Y262066D01*
X50022Y262867D01*
X48805Y263371D01*
X48500Y263411D01*
D02*
G37*
G36*
X52543Y256500D02*
X48500D01*
Y251589D01*
X48805Y251629D01*
X50022Y252133D01*
X51066Y252934D01*
X51868Y253978D01*
X52371Y255195D01*
X52543Y256500D01*
D01*
D02*
G37*
G36*
X160059Y345747D02*
X158591D01*
Y341268D01*
X164973D01*
X164869Y342056D01*
X164372Y343257D01*
X163580Y344289D01*
X162549Y345080D01*
X161348Y345578D01*
X160059Y345747D01*
D02*
G37*
G36*
X157591D02*
X156122D01*
X154833Y345578D01*
X153632Y345080D01*
X152601Y344289D01*
X151810Y343257D01*
X151312Y342056D01*
X151208Y341268D01*
X157591D01*
Y345747D01*
D02*
G37*
G36*
X164973Y340268D02*
X158591D01*
Y335788D01*
X160059D01*
X161348Y335958D01*
X162549Y336455D01*
X163580Y337247D01*
X164372Y338278D01*
X164869Y339479D01*
X164973Y340268D01*
D02*
G37*
G36*
X157591D02*
X151208D01*
X151312Y339479D01*
X151810Y338278D01*
X152601Y337247D01*
X153632Y336455D01*
X154833Y335958D01*
X156122Y335788D01*
X157591D01*
Y340268D01*
D02*
G37*
G36*
X165996Y330169D02*
X150185D01*
Y318295D01*
X165996D01*
Y330169D01*
D02*
G37*
G36*
X118000Y309897D02*
Y305500D01*
X120494D01*
Y306968D01*
X120392Y307743D01*
X120093Y308466D01*
X119617Y309086D01*
X118997Y309561D01*
X118275Y309861D01*
X118000Y309897D01*
D02*
G37*
G36*
X201287Y279055D02*
Y276091D01*
X204252D01*
X204197Y276504D01*
X203845Y277356D01*
X203284Y278087D01*
X202553Y278648D01*
X201701Y279000D01*
X201287Y279055D01*
D02*
G37*
G36*
X200287D02*
X199874Y279000D01*
X199022Y278648D01*
X198291Y278087D01*
X197730Y277356D01*
X197378Y276504D01*
X197323Y276091D01*
X200287D01*
Y279055D01*
D02*
G37*
G36*
X95000Y286029D02*
X93824Y285913D01*
X92693Y285570D01*
X91650Y285013D01*
X90737Y284263D01*
X89987Y283349D01*
X89791Y282982D01*
X89221Y282907D01*
X88495Y282607D01*
X87872Y282128D01*
X85372Y279628D01*
X84893Y279005D01*
X84593Y278279D01*
X84490Y277500D01*
Y261842D01*
X82547D01*
Y251937D01*
X92453D01*
Y261842D01*
X90510D01*
Y273402D01*
X90582Y273502D01*
X92510Y274528D01*
X92693Y274430D01*
X93824Y274087D01*
X95000Y273971D01*
X96176Y274087D01*
X97307Y274430D01*
X98349Y274987D01*
X99263Y275737D01*
X100013Y276651D01*
X100570Y277693D01*
X100913Y278824D01*
X101029Y280000D01*
X100913Y281176D01*
X100570Y282307D01*
X100013Y283349D01*
X99263Y284263D01*
X98349Y285013D01*
X97307Y285570D01*
X96176Y285913D01*
X95000Y286029D01*
D02*
G37*
G36*
X204252Y275091D02*
X201287D01*
Y272126D01*
X201701Y272181D01*
X202553Y272533D01*
X203284Y273094D01*
X203845Y273826D01*
X204197Y274677D01*
X204252Y275091D01*
D02*
G37*
G36*
X200287D02*
X197323D01*
X197378Y274677D01*
X197730Y273826D01*
X198291Y273094D01*
X199022Y272533D01*
X199874Y272181D01*
X200287Y272126D01*
Y275091D01*
D02*
G37*
G36*
X154496Y264473D02*
Y258000D01*
X158535D01*
Y260000D01*
X158380Y261175D01*
X157927Y262269D01*
X157205Y263209D01*
X156265Y263931D01*
X155171Y264384D01*
X154496Y264473D01*
D02*
G37*
G36*
X153496D02*
X152821Y264384D01*
X151727Y263931D01*
X150787Y263209D01*
X150065Y262269D01*
X149612Y261175D01*
X149457Y260000D01*
Y258000D01*
X153496D01*
Y264473D01*
D02*
G37*
G36*
X158535Y257000D02*
X154496D01*
Y250527D01*
X155171Y250616D01*
X156265Y251069D01*
X157205Y251791D01*
X157927Y252731D01*
X158380Y253825D01*
X158535Y255000D01*
Y257000D01*
D02*
G37*
G36*
X153496D02*
X149457D01*
Y255000D01*
X149612Y253825D01*
X150065Y252731D01*
X150787Y251791D01*
X151727Y251069D01*
X152821Y250616D01*
X153496Y250527D01*
Y257000D01*
D02*
G37*
G36*
X140610Y265547D02*
X139174Y265358D01*
X137837Y264804D01*
X136688Y263923D01*
X135806Y262774D01*
X135252Y261436D01*
X135063Y260000D01*
Y255000D01*
X135252Y253564D01*
X135806Y252226D01*
X136688Y251077D01*
X137837Y250196D01*
X139174Y249642D01*
X140610Y249452D01*
X142046Y249642D01*
X143384Y250196D01*
X144533Y251077D01*
X145414Y252226D01*
X145969Y253564D01*
X146158Y255000D01*
Y260000D01*
X145969Y261436D01*
X145414Y262774D01*
X144533Y263923D01*
X143384Y264804D01*
X142046Y265358D01*
X140610Y265547D01*
D02*
G37*
G36*
X78000Y218969D02*
Y215500D01*
X81469D01*
X81397Y216044D01*
X80994Y217017D01*
X80353Y217853D01*
X79517Y218494D01*
X78544Y218897D01*
X78000Y218969D01*
D02*
G37*
G36*
X81469Y214500D02*
X78000D01*
Y211031D01*
X78544Y211103D01*
X79517Y211506D01*
X80353Y212147D01*
X80994Y212983D01*
X81397Y213956D01*
X81469Y214500D01*
D02*
G37*
G36*
X221000Y210747D02*
X220500D01*
Y207213D01*
X224969D01*
X224897Y207757D01*
X224494Y208730D01*
X223853Y209565D01*
X223017Y210207D01*
X222044Y210610D01*
X221000Y210747D01*
D02*
G37*
G36*
X219500D02*
X219000D01*
X217956Y210610D01*
X216983Y210207D01*
X216147Y209565D01*
X215506Y208730D01*
X215103Y207757D01*
X215031Y207213D01*
X219500D01*
Y210747D01*
D02*
G37*
G36*
X7000Y168969D02*
X6456Y168897D01*
X5483Y168494D01*
X4647Y167853D01*
X4006Y167017D01*
X3603Y166044D01*
X3531Y165500D01*
X7000D01*
Y168969D01*
D02*
G37*
G36*
Y164500D02*
X3531D01*
X3603Y163956D01*
X4006Y162983D01*
X4647Y162147D01*
X5483Y161506D01*
X6456Y161103D01*
X7000Y161031D01*
Y164500D01*
D02*
G37*
G36*
X87000Y148969D02*
X86456Y148897D01*
X85483Y148494D01*
X84647Y147853D01*
X84006Y147017D01*
X83603Y146044D01*
X83531Y145500D01*
X87000D01*
Y148969D01*
D02*
G37*
G36*
X226453Y133343D02*
X223000D01*
Y129890D01*
X226453D01*
Y133343D01*
D02*
G37*
G36*
X198953D02*
X195500D01*
Y129890D01*
X198953D01*
Y133343D01*
D02*
G37*
G36*
X171453D02*
X168000D01*
Y129890D01*
X171453D01*
Y133343D01*
D02*
G37*
G36*
X222000D02*
X218547D01*
Y129890D01*
X222000D01*
Y133343D01*
D02*
G37*
G36*
X194500D02*
X191047D01*
Y129890D01*
X194500D01*
Y133343D01*
D02*
G37*
G36*
X167000D02*
X163547D01*
Y129890D01*
X167000D01*
Y133343D01*
D02*
G37*
G36*
X36421Y129500D02*
X33000D01*
Y126079D01*
X33532Y126149D01*
X34493Y126547D01*
X35319Y127181D01*
X35953Y128007D01*
X36351Y128968D01*
X36421Y129500D01*
D02*
G37*
G36*
X26421D02*
X23000D01*
Y126079D01*
X23532Y126149D01*
X24493Y126547D01*
X25319Y127181D01*
X25953Y128007D01*
X26351Y128968D01*
X26421Y129500D01*
D02*
G37*
G36*
X16421D02*
X13000D01*
Y126079D01*
X13532Y126149D01*
X14493Y126547D01*
X15319Y127181D01*
X15953Y128007D01*
X16351Y128968D01*
X16421Y129500D01*
D02*
G37*
G36*
X32000D02*
X28579D01*
X28649Y128968D01*
X29047Y128007D01*
X29681Y127181D01*
X30507Y126547D01*
X31468Y126149D01*
X32000Y126079D01*
Y129500D01*
D02*
G37*
G36*
X22000D02*
X18579D01*
X18649Y128968D01*
X19047Y128007D01*
X19681Y127181D01*
X20507Y126547D01*
X21468Y126149D01*
X22000Y126079D01*
Y129500D01*
D02*
G37*
G36*
X12000D02*
X8579D01*
X8649Y128968D01*
X9047Y128007D01*
X9681Y127181D01*
X10507Y126547D01*
X11468Y126149D01*
X12000Y126079D01*
Y129500D01*
D02*
G37*
G36*
X226453Y128890D02*
X223000D01*
Y125437D01*
X226453D01*
Y128890D01*
D02*
G37*
G36*
X222000D02*
X218547D01*
Y125437D01*
X222000D01*
Y128890D01*
D02*
G37*
G36*
X198953D02*
X195500D01*
Y125437D01*
X198953D01*
Y128890D01*
D02*
G37*
G36*
X194500D02*
X191047D01*
Y125437D01*
X194500D01*
Y128890D01*
D02*
G37*
G36*
X171453D02*
X168000D01*
Y125437D01*
X171453D01*
Y128890D01*
D02*
G37*
G36*
X167000D02*
X163547D01*
Y125437D01*
X167000D01*
Y128890D01*
D02*
G37*
G36*
X147500Y150043D02*
X146195Y149871D01*
X144978Y149367D01*
X143934Y148566D01*
X143132Y147522D01*
X142629Y146305D01*
X142457Y145000D01*
X142629Y143695D01*
X143132Y142478D01*
X143934Y141434D01*
X144217Y141217D01*
X144353Y140887D01*
Y139113D01*
X144217Y138783D01*
X143934Y138566D01*
X143132Y137522D01*
X142629Y136305D01*
X142457Y135000D01*
X142629Y133695D01*
X143132Y132478D01*
X143934Y131434D01*
X144217Y131217D01*
X144353Y130887D01*
Y129113D01*
X144217Y128783D01*
X143934Y128566D01*
X143132Y127522D01*
X142629Y126305D01*
X142457Y125000D01*
X142629Y123695D01*
X143132Y122478D01*
X143934Y121434D01*
X144217Y121217D01*
X144353Y120887D01*
Y119113D01*
X144217Y118783D01*
X143934Y118566D01*
X143132Y117522D01*
X142629Y116305D01*
X142457Y115000D01*
X142629Y113695D01*
X143132Y112478D01*
X143934Y111434D01*
X144217Y111217D01*
X144353Y110887D01*
Y109113D01*
X144217Y108783D01*
X143934Y108566D01*
X143132Y107522D01*
X142629Y106305D01*
X142457Y105000D01*
X142629Y103695D01*
X143132Y102478D01*
X143934Y101434D01*
X144217Y101217D01*
X144353Y100887D01*
Y99113D01*
X144217Y98783D01*
X143934Y98566D01*
X143132Y97522D01*
X142629Y96305D01*
X142457Y95000D01*
X142629Y93695D01*
X143132Y92478D01*
X143934Y91434D01*
X144217Y91217D01*
X144353Y90887D01*
Y89113D01*
X144217Y88783D01*
X143934Y88566D01*
X143132Y87522D01*
X142629Y86305D01*
X142457Y85000D01*
X142629Y83695D01*
X143132Y82478D01*
X143934Y81434D01*
X144217Y81217D01*
X144353Y80887D01*
Y79113D01*
X144217Y78783D01*
X143934Y78566D01*
X143132Y77522D01*
X142629Y76305D01*
X142457Y75000D01*
X142629Y73695D01*
X143132Y72478D01*
X143934Y71434D01*
X144217Y71217D01*
X144353Y70887D01*
Y69113D01*
X144217Y68783D01*
X143934Y68566D01*
X143132Y67522D01*
X142629Y66305D01*
X142457Y65000D01*
X142629Y63695D01*
X143132Y62478D01*
X143934Y61434D01*
X144217Y61217D01*
X144353Y60887D01*
Y59113D01*
X144217Y58783D01*
X143934Y58566D01*
X143132Y57522D01*
X142629Y56305D01*
X142457Y55000D01*
X142629Y53695D01*
X143132Y52478D01*
X143934Y51434D01*
X144217Y51217D01*
X144353Y50887D01*
Y49113D01*
X144217Y48783D01*
X143934Y48566D01*
X143132Y47522D01*
X142629Y46305D01*
X142457Y45000D01*
X142629Y43695D01*
X143132Y42478D01*
X143934Y41434D01*
X144217Y41217D01*
X144353Y40887D01*
Y39113D01*
X144217Y38783D01*
X143934Y38566D01*
X143132Y37522D01*
X142629Y36305D01*
X142457Y35000D01*
X142629Y33695D01*
X143132Y32478D01*
X143934Y31434D01*
X144217Y31217D01*
X144353Y30887D01*
Y29113D01*
X144217Y28783D01*
X143934Y28566D01*
X143132Y27522D01*
X142629Y26305D01*
X142457Y25000D01*
X142629Y23695D01*
X143132Y22478D01*
X143934Y21434D01*
X144217Y21217D01*
X144353Y20887D01*
Y19113D01*
X144217Y18783D01*
X143934Y18566D01*
X143132Y17522D01*
X142629Y16305D01*
X142457Y15000D01*
X142629Y13695D01*
X143132Y12478D01*
X143934Y11434D01*
X144978Y10633D01*
X146195Y10129D01*
X147500Y9957D01*
X148805Y10129D01*
X150022Y10633D01*
X151066Y11434D01*
X151493Y11990D01*
X182500D01*
X183279Y12093D01*
X184005Y12393D01*
X184628Y12872D01*
X187128Y15372D01*
X187607Y15995D01*
X187907Y16721D01*
X188010Y17500D01*
Y31394D01*
X190010Y31986D01*
X190434Y31434D01*
X191478Y30632D01*
X192695Y30129D01*
X194000Y29957D01*
X196000D01*
X197305Y30129D01*
X198522Y30632D01*
X199566Y31434D01*
X200367Y32478D01*
X200871Y33695D01*
X201043Y35000D01*
X200871Y36305D01*
X200367Y37522D01*
X199566Y38566D01*
X199373Y38714D01*
X199300Y38867D01*
Y40976D01*
X199373Y41129D01*
X199566Y41276D01*
X200367Y42321D01*
X200871Y43537D01*
X201043Y44842D01*
X200871Y46148D01*
X200367Y47364D01*
X199566Y48409D01*
X199373Y48556D01*
X199300Y48709D01*
Y50818D01*
X199373Y50971D01*
X199566Y51119D01*
X200367Y52163D01*
X200871Y53380D01*
X201043Y54685D01*
X200871Y55990D01*
X200367Y57207D01*
X199566Y58251D01*
X198522Y59052D01*
X198491Y59065D01*
X198272Y59978D01*
X198350Y61289D01*
X198853Y61675D01*
X199494Y62510D01*
X199897Y63483D01*
X199969Y64028D01*
X195000D01*
X190031D01*
X190103Y63483D01*
X190506Y62510D01*
X191147Y61675D01*
X191650Y61289D01*
X191728Y59978D01*
X191509Y59065D01*
X191478Y59052D01*
X190434Y58251D01*
X190249Y58010D01*
X180000D01*
X179221Y57907D01*
X178495Y57607D01*
X177872Y57128D01*
X175466Y54723D01*
X175001Y54778D01*
X173448Y55407D01*
X173371Y55990D01*
X172868Y57207D01*
X172066Y58251D01*
X171022Y59052D01*
X170991Y59065D01*
X170772Y59978D01*
X170850Y61289D01*
X171353Y61675D01*
X171994Y62510D01*
X172397Y63483D01*
X172469Y64028D01*
X167500D01*
X162531D01*
X162603Y63483D01*
X163006Y62510D01*
X163647Y61675D01*
X164150Y61289D01*
X164228Y59978D01*
X164009Y59065D01*
X163978Y59052D01*
X162934Y58251D01*
X162749Y58010D01*
X151493D01*
X151066Y58566D01*
X150941Y60654D01*
X152191Y61990D01*
X152500D01*
X153279Y62093D01*
X154005Y62393D01*
X154628Y62872D01*
X158747Y66990D01*
X161026D01*
X161618Y66458D01*
X162503Y65028D01*
X167500D01*
X172497D01*
X173382Y66458D01*
X173974Y66990D01*
X188526D01*
X189118Y66458D01*
X190003Y65028D01*
X195000D01*
X199997D01*
X200882Y66458D01*
X201474Y66990D01*
X203753D01*
X204490Y66253D01*
Y47500D01*
X204593Y46721D01*
X204893Y45995D01*
X205372Y45372D01*
X208029Y42714D01*
X208652Y42236D01*
X209378Y41935D01*
X210157Y41833D01*
X217507D01*
X217934Y41276D01*
X218127Y41129D01*
X218200Y40976D01*
Y38867D01*
X218127Y38714D01*
X217934Y38566D01*
X217132Y37522D01*
X216629Y36305D01*
X216457Y35000D01*
X216629Y33695D01*
X217132Y32478D01*
X217934Y31434D01*
X218978Y30632D01*
X220195Y30129D01*
X221500Y29957D01*
X223500D01*
X224805Y30129D01*
X226022Y30632D01*
X227066Y31434D01*
X227868Y32478D01*
X228371Y33695D01*
X228543Y35000D01*
X228371Y36305D01*
X227868Y37522D01*
X227066Y38566D01*
X226873Y38714D01*
X226800Y38867D01*
Y40976D01*
X226873Y41129D01*
X227066Y41276D01*
X227868Y42321D01*
X228371Y43537D01*
X228543Y44842D01*
X228371Y46148D01*
X227868Y47364D01*
X227066Y48409D01*
X226873Y48556D01*
X226800Y48709D01*
Y50818D01*
X226873Y50971D01*
X227066Y51119D01*
X227868Y52163D01*
X228371Y53380D01*
X228543Y54685D01*
X228371Y55990D01*
X227868Y57207D01*
X227066Y58251D01*
X226022Y59052D01*
X225991Y59065D01*
X225771Y59978D01*
X225850Y61289D01*
X226353Y61675D01*
X226994Y62510D01*
X227397Y63483D01*
X227469Y64028D01*
X222500D01*
Y64528D01*
X222000D01*
Y68562D01*
X221500D01*
X220456Y68425D01*
X219483Y68022D01*
X218647Y67380D01*
X218006Y66545D01*
X217922Y66342D01*
X216208Y65899D01*
X215510Y66063D01*
Y72500D01*
X215407Y73279D01*
X215107Y74005D01*
X214628Y74628D01*
X212128Y77128D01*
X211657Y77490D01*
X211653Y77710D01*
X212500Y79490D01*
X213279Y79593D01*
X214005Y79893D01*
X214628Y80372D01*
X217128Y82872D01*
X217607Y83495D01*
X217907Y84221D01*
X218010Y85000D01*
Y88988D01*
X220010Y90205D01*
X220195Y90129D01*
X221500Y89957D01*
X223500D01*
X224805Y90129D01*
X226022Y90632D01*
X227066Y91434D01*
X227868Y92478D01*
X228371Y93695D01*
X228543Y95000D01*
X228371Y96305D01*
X227868Y97522D01*
X227066Y98566D01*
X226873Y98714D01*
X226800Y98867D01*
Y100976D01*
X226873Y101129D01*
X227066Y101277D01*
X227868Y102321D01*
X228371Y103537D01*
X228543Y104842D01*
X228371Y106148D01*
X227868Y107364D01*
X227066Y108409D01*
X226742Y108658D01*
X227421Y110658D01*
X227453D01*
Y120563D01*
X217547D01*
Y110658D01*
X217547Y110658D01*
X217242Y108784D01*
X216721Y107907D01*
X215995Y107607D01*
X215372Y107128D01*
X212872Y104628D01*
X212393Y104005D01*
X212093Y103279D01*
X211990Y102500D01*
Y86247D01*
X211253Y85510D01*
X189880D01*
X189114Y87358D01*
X189628Y87872D01*
X190107Y88495D01*
X190328Y89028D01*
X190503Y89273D01*
X192162Y90170D01*
X192510Y90205D01*
X192695Y90129D01*
X194000Y89957D01*
X196000D01*
X197305Y90129D01*
X198522Y90632D01*
X199566Y91434D01*
X200367Y92478D01*
X200871Y93695D01*
X201043Y95000D01*
X200871Y96305D01*
X200367Y97522D01*
X199566Y98566D01*
X199373Y98714D01*
X199300Y98867D01*
Y100976D01*
X199373Y101129D01*
X199566Y101277D01*
X200367Y102321D01*
X200871Y103537D01*
X201043Y104842D01*
X200871Y106148D01*
X200367Y107364D01*
X199566Y108409D01*
X199242Y108658D01*
X199921Y110658D01*
X199953D01*
Y120563D01*
X190047D01*
Y110658D01*
X190047Y110658D01*
X189817Y108753D01*
X189093Y107754D01*
X189064Y107750D01*
X188338Y107449D01*
X187714Y106971D01*
X185372Y104628D01*
X184893Y104005D01*
X184593Y103279D01*
X184490Y102500D01*
Y91247D01*
X183753Y90510D01*
X173878D01*
X172868Y92478D01*
X173371Y93695D01*
X173543Y95000D01*
X173371Y96305D01*
X172868Y97522D01*
X172066Y98566D01*
X171873Y98714D01*
X171800Y98867D01*
Y100976D01*
X171873Y101129D01*
X172066Y101277D01*
X172868Y102321D01*
X173371Y103537D01*
X173543Y104842D01*
X173371Y106148D01*
X172868Y107364D01*
X172066Y108409D01*
X171742Y108658D01*
X172421Y110658D01*
X172453D01*
Y120563D01*
X162547D01*
Y110658D01*
X162547D01*
X162025Y108874D01*
X161369Y108010D01*
X151493D01*
X151066Y108566D01*
X150783Y108783D01*
X150647Y109113D01*
Y110887D01*
X150783Y111217D01*
X151066Y111434D01*
X151867Y112478D01*
X152371Y113695D01*
X152543Y115000D01*
X152371Y116305D01*
X151867Y117522D01*
X151066Y118566D01*
X150783Y118783D01*
X150647Y119113D01*
Y120887D01*
X150783Y121217D01*
X151066Y121434D01*
X151867Y122478D01*
X152371Y123695D01*
X152543Y125000D01*
X152371Y126305D01*
X151867Y127522D01*
X151066Y128566D01*
X150783Y128783D01*
X150647Y129113D01*
Y130887D01*
X150783Y131217D01*
X151066Y131434D01*
X151867Y132478D01*
X152371Y133695D01*
X152543Y135000D01*
X152371Y136305D01*
X151867Y137522D01*
X151066Y138566D01*
X150783Y138783D01*
X150647Y139113D01*
Y140887D01*
X150783Y141217D01*
X151066Y141434D01*
X151867Y142478D01*
X152371Y143695D01*
X152543Y145000D01*
X152371Y146305D01*
X151867Y147522D01*
X151066Y148566D01*
X150022Y149367D01*
X148805Y149871D01*
X147500Y150043D01*
D02*
G37*
G36*
X223500Y68562D02*
X223000D01*
Y65028D01*
X227469D01*
X227397Y65572D01*
X226994Y66545D01*
X226353Y67380D01*
X225517Y68022D01*
X224544Y68425D01*
X223500Y68562D01*
D02*
G37*
G36*
X39500Y34972D02*
X35031D01*
X35103Y34428D01*
X35506Y33455D01*
X36147Y32620D01*
X36983Y31978D01*
X37956Y31575D01*
X39000Y31438D01*
X39500D01*
Y34972D01*
D02*
G37*
G36*
X19969D02*
X15500D01*
Y31438D01*
X16000D01*
X17044Y31575D01*
X18017Y31978D01*
X18853Y32620D01*
X19494Y33455D01*
X19897Y34428D01*
X19969Y34972D01*
D02*
G37*
G36*
X14500D02*
X10031D01*
X10103Y34428D01*
X10506Y33455D01*
X11147Y32620D01*
X11983Y31978D01*
X12956Y31575D01*
X14000Y31438D01*
X14500D01*
Y34972D01*
D02*
G37*
%LPD*%
G36*
X162934Y101277D02*
X163127Y101129D01*
X163200Y100976D01*
Y98867D01*
X163127Y98714D01*
X162934Y98566D01*
X162133Y97522D01*
X161629Y96305D01*
X161457Y95000D01*
X161629Y93695D01*
X162133Y92478D01*
X161122Y90510D01*
X158747D01*
X158010Y91247D01*
Y92500D01*
X157907Y93279D01*
X157607Y94005D01*
X157128Y94628D01*
X154628Y97128D01*
X154005Y97607D01*
X153279Y97907D01*
X152500Y98010D01*
X151493D01*
X151066Y98566D01*
X150941Y100654D01*
X152191Y101990D01*
X162387D01*
X162934Y101277D01*
D02*
G37*
G36*
Y51119D02*
X162635Y49190D01*
X161490Y48010D01*
X151493D01*
X151066Y48566D01*
X150941Y50654D01*
X152191Y51990D01*
X162266D01*
X162934Y51119D01*
D02*
G37*
G36*
X212872Y52872D02*
X213495Y52393D01*
X214221Y52093D01*
X215000Y51990D01*
X217266D01*
X217934Y51119D01*
X217798Y49146D01*
X216555Y47853D01*
X211404D01*
X210510Y48747D01*
Y52620D01*
X212358Y53386D01*
X212872Y52872D01*
D02*
G37*
G36*
X190434Y51119D02*
X190135Y49190D01*
X188990Y48010D01*
X187500D01*
X186721Y47907D01*
X185995Y47607D01*
X185372Y47128D01*
X182872Y44628D01*
X182510Y44157D01*
X182290Y44153D01*
X180510Y45409D01*
Y51253D01*
X181247Y51990D01*
X189766D01*
X190434Y51119D01*
D02*
G37*
G36*
X162934Y41276D02*
X163127Y41129D01*
X163200Y40976D01*
Y38867D01*
X163127Y38714D01*
X162934Y38566D01*
X162133Y37522D01*
X161629Y36305D01*
X161457Y35000D01*
X161629Y33695D01*
X162133Y32478D01*
X162934Y31434D01*
X163978Y30632D01*
X165195Y30129D01*
X166096Y30010D01*
X165965Y28010D01*
X151493D01*
X151066Y28566D01*
X150783Y28783D01*
X150647Y29113D01*
Y30887D01*
X150783Y31217D01*
X151066Y31434D01*
X151867Y32478D01*
X152371Y33695D01*
X152543Y35000D01*
X152371Y36305D01*
X151867Y37522D01*
X151066Y38566D01*
X150941Y40654D01*
X152191Y41990D01*
X162387D01*
X162934Y41276D01*
D02*
G37*
G36*
X181990Y24591D02*
Y18747D01*
X181253Y18010D01*
X151493D01*
X151066Y18566D01*
X150941Y20654D01*
X152191Y21990D01*
X175000D01*
X175779Y22093D01*
X176505Y22393D01*
X177128Y22872D01*
X179628Y25372D01*
X179990Y25843D01*
X180210Y25847D01*
X181990Y24591D01*
D02*
G37*
D12*
X112500Y240000D02*
Y280610D01*
X110000Y237500D02*
X112500Y240000D01*
X95000Y237500D02*
X110000D01*
X92500Y235000D02*
X95000Y237500D01*
X92500Y205000D02*
Y235000D01*
X42205Y243110D02*
X87500D01*
X37657Y247657D02*
X42205Y243110D01*
X37657Y247657D02*
Y257500D01*
X87500Y256890D02*
Y277500D01*
X90000Y280000D01*
X95000D01*
Y310000D02*
X100000Y305000D01*
X107500D01*
X112500Y294390D02*
Y305000D01*
X90000Y180000D02*
X102087D01*
X87500Y182500D02*
X90000Y180000D01*
X87500Y182500D02*
Y243110D01*
X152500Y240000D02*
X157500Y235000D01*
X23110Y300000D02*
X25000Y301890D01*
X15000Y300000D02*
X23110D01*
X17047Y288110D02*
X25000D01*
X15000Y290158D02*
X17047Y288110D01*
X210000Y75000D02*
X212500Y72500D01*
X147500Y75000D02*
X210000D01*
X212500Y57500D02*
Y72500D01*
X205000Y70000D02*
X207500Y67500D01*
X157500Y70000D02*
X205000D01*
X152500Y65000D02*
X157500Y70000D01*
X207500Y47500D02*
Y67500D01*
X194843Y45000D02*
X195000Y44842D01*
X187500Y45000D02*
X194843D01*
X185000Y42500D02*
X187500Y45000D01*
X185000Y17500D02*
Y42500D01*
X182500Y15000D02*
X185000Y17500D01*
X147500Y15000D02*
X182500D01*
X194685Y55000D02*
X195000Y54685D01*
X180000Y55000D02*
X194685D01*
X177500Y52500D02*
X180000Y55000D01*
X177500Y27500D02*
Y52500D01*
X175000Y25000D02*
X177500Y27500D01*
X147500Y25000D02*
X175000D01*
X147500Y65000D02*
X152500D01*
X207500Y47500D02*
X210157Y44842D01*
X222500D01*
X215000Y55000D02*
X222185D01*
X212500Y57500D02*
X215000Y55000D01*
X147500D02*
X167185D01*
X147500Y45000D02*
X167342D01*
X157500Y87500D02*
X185000D01*
X155000Y90000D02*
X157500Y87500D01*
X185000D02*
X187500Y90000D01*
X189842Y104842D02*
X195000D01*
X187500Y102500D02*
X189842Y104842D01*
X187500Y90000D02*
Y102500D01*
X147500Y85000D02*
X150000Y82500D01*
X152500Y95000D02*
X155000Y92500D01*
X37500Y142500D02*
Y165000D01*
X35000Y140000D02*
X37500Y142500D01*
X32500Y140000D02*
X35000D01*
X27500Y142500D02*
Y165000D01*
X25000Y140000D02*
X27500Y142500D01*
X22500Y140000D02*
X25000D01*
X17500Y142500D02*
Y165000D01*
X15000Y140000D02*
X17500Y142500D01*
X12500Y140000D02*
X15000D01*
X65000Y35157D02*
X87343D01*
X65000Y45000D02*
X87500D01*
X47500Y17500D02*
X50000Y15000D01*
X87500D01*
X52500Y27500D02*
X55000Y25000D01*
X87500D01*
X40000Y55158D02*
X49843D01*
X52500Y52500D01*
Y27500D02*
Y52500D01*
X40000Y45315D02*
X44685D01*
X47500Y42500D01*
Y17500D02*
Y42500D01*
X15000Y55158D02*
X22658D01*
X25000Y57500D01*
X15000Y45315D02*
X27815D01*
X30000Y47500D01*
X27500Y95000D02*
X87500D01*
X25000Y92500D02*
X27500Y95000D01*
X25000Y57500D02*
Y92500D01*
X30000Y47500D02*
Y82500D01*
X32500Y85000D01*
X87500D01*
X150000Y82500D02*
X212500D01*
X215000Y85000D01*
Y102500D01*
X217500Y105000D01*
X222342D01*
X147500Y95000D02*
X152500D01*
X155000Y90000D02*
Y92500D01*
X147500Y105000D02*
X167342D01*
X167500Y104842D01*
Y115000D01*
X195000Y104842D02*
Y115000D01*
X222500Y104842D02*
Y115000D01*
X47500Y165000D02*
X57500D01*
X70000Y105000D02*
X87500D01*
X67500Y107500D02*
X70000Y105000D01*
X67500Y107500D02*
Y165000D01*
X80000Y115000D02*
X87500D01*
X77500Y117500D02*
X80000Y115000D01*
X77500Y117500D02*
Y165000D01*
X102087Y175000D02*
Y180000D01*
X87500Y75000D02*
X90000D01*
X92500Y77500D01*
Y155000D01*
X102087Y164587D01*
Y170000D01*
X107500D01*
X110000Y172500D01*
Y220000D01*
X112500Y222500D01*
X145000D01*
X147500Y220000D01*
Y177500D02*
Y220000D01*
X145000Y175000D02*
X147500Y177500D01*
X137913Y175000D02*
X145000D01*
X87500Y65000D02*
X95000D01*
X97500Y67500D01*
Y152500D01*
X115000Y170000D01*
Y182500D01*
X117500Y185000D01*
X137913D01*
X87500Y55000D02*
X100000D01*
X102500Y57500D01*
Y150000D01*
X120000Y167500D01*
Y177500D01*
X122500Y180000D01*
X137913D01*
X110000Y65000D02*
X117500D01*
X107500Y67500D02*
X110000Y65000D01*
X107500Y67500D02*
Y147500D01*
X125000Y165000D01*
X117500Y85000D02*
Y150000D01*
X127500Y160000D01*
X192500Y187500D02*
X219528D01*
X197500Y177500D02*
X219685D01*
X127500Y160000D02*
X192500D01*
X195000Y162500D01*
Y175000D01*
X197500Y177500D01*
X125000Y165000D02*
X187500D01*
X190000Y167500D01*
Y185000D01*
X192500Y187500D01*
X155000Y170000D02*
X157500Y172500D01*
X137913Y170000D02*
X155000D01*
X157500Y172500D02*
Y235000D01*
D13*
X27500Y215000D02*
Y232028D01*
X37500Y215000D02*
Y232028D01*
X47500Y215000D02*
Y232028D01*
X57500Y215000D02*
Y232028D01*
D14*
X222500Y95000D02*
D03*
Y104842D02*
D03*
X167500Y95000D02*
D03*
Y104842D02*
D03*
X195000Y95000D02*
D03*
Y104842D02*
D03*
X15000Y300000D02*
D03*
Y290158D02*
D03*
Y35472D02*
D03*
Y45315D02*
D03*
Y55158D02*
D03*
Y65000D02*
D03*
X40000Y35472D02*
D03*
Y45315D02*
D03*
Y55158D02*
D03*
Y65000D02*
D03*
X65000Y45000D02*
D03*
Y35157D02*
D03*
X195000Y64528D02*
D03*
Y54685D02*
D03*
Y44842D02*
D03*
Y35000D02*
D03*
X167500Y64528D02*
D03*
Y54685D02*
D03*
Y44842D02*
D03*
Y35000D02*
D03*
X222500Y64528D02*
D03*
Y54685D02*
D03*
Y44842D02*
D03*
Y35000D02*
D03*
X220000Y206713D02*
D03*
Y196870D02*
D03*
Y187028D02*
D03*
Y177185D02*
D03*
Y167342D02*
D03*
Y157500D02*
D03*
D15*
X224410Y342520D02*
D03*
Y11811D02*
D03*
X11811D02*
D03*
Y342520D02*
D03*
D16*
X7500Y215000D02*
D03*
X17500D02*
D03*
X27500D02*
D03*
X37500D02*
D03*
X47500D02*
D03*
X57500D02*
D03*
X67500D02*
D03*
X77500D02*
D03*
Y165000D02*
D03*
X67500D02*
D03*
X57500D02*
D03*
X47500D02*
D03*
X37500D02*
D03*
X27500D02*
D03*
X17500D02*
D03*
X7500D02*
D03*
X87500Y135000D02*
D03*
Y125000D02*
D03*
Y115000D02*
D03*
Y105000D02*
D03*
Y95000D02*
D03*
Y85000D02*
D03*
Y75000D02*
D03*
Y65000D02*
D03*
Y55000D02*
D03*
Y45000D02*
D03*
Y35000D02*
D03*
Y25000D02*
D03*
Y15000D02*
D03*
X147500D02*
D03*
Y25000D02*
D03*
Y35000D02*
D03*
Y45000D02*
D03*
Y55000D02*
D03*
Y65000D02*
D03*
Y75000D02*
D03*
Y85000D02*
D03*
Y95000D02*
D03*
Y105000D02*
D03*
Y115000D02*
D03*
X117500Y65000D02*
D03*
Y55000D02*
D03*
Y45000D02*
D03*
Y35000D02*
D03*
Y25000D02*
D03*
Y85000D02*
D03*
Y75000D02*
D03*
X147500Y125000D02*
D03*
Y135000D02*
D03*
Y145000D02*
D03*
X87500D02*
D03*
D17*
X95000Y280000D02*
D03*
Y310000D02*
D03*
D18*
X45000D02*
D03*
X35000Y280000D02*
D03*
D19*
X12500Y130000D02*
D03*
Y140000D02*
D03*
X22500Y130000D02*
D03*
Y140000D02*
D03*
X32500Y130000D02*
D03*
Y140000D02*
D03*
D20*
X167500Y115610D02*
D03*
Y129390D02*
D03*
X195000Y115610D02*
D03*
Y129390D02*
D03*
X222500Y115610D02*
D03*
Y129390D02*
D03*
X25000Y288110D02*
D03*
Y301890D02*
D03*
X87500Y256890D02*
D03*
Y243110D02*
D03*
X112500Y294390D02*
D03*
Y280610D02*
D03*
X12500Y150000D02*
D03*
X22500D02*
D03*
X32500D02*
D03*
D21*
X117500Y305000D02*
D03*
D22*
X112500D02*
D03*
X107500D02*
D03*
D23*
X140610Y257500D02*
D03*
X153996D02*
D03*
D24*
X131909Y340768D02*
D03*
Y324232D02*
D03*
X158091Y340768D02*
D03*
D25*
Y324232D02*
D03*
D26*
X47500Y327500D02*
D03*
Y340886D02*
D03*
D27*
Y257500D02*
D03*
X37657D02*
D03*
X27815D02*
D03*
X57500Y232500D02*
D03*
X47657D02*
D03*
X37815D02*
D03*
X27972D02*
D03*
D28*
X200787Y275590D02*
D03*
X92500Y205000D02*
D03*
X152500Y240000D02*
D03*
D29*
X102087Y170000D02*
D03*
Y175000D02*
D03*
Y180000D02*
D03*
Y185000D02*
D03*
Y190000D02*
D03*
Y195000D02*
D03*
Y200000D02*
D03*
Y205000D02*
D03*
Y210000D02*
D03*
Y215000D02*
D03*
X137913Y170000D02*
D03*
Y175000D02*
D03*
Y180000D02*
D03*
Y185000D02*
D03*
Y190000D02*
D03*
Y195000D02*
D03*
Y200000D02*
D03*
Y205000D02*
D03*
Y210000D02*
D03*
Y215000D02*
D03*
D30*
X130610Y327500D02*
X133878Y324232D01*
X47500Y327500D02*
X130610D01*
X18584D02*
X47500D01*
X18194Y327110D02*
X18584Y327500D01*
X17110Y327110D02*
X18194D01*
X5000Y315000D02*
X17110Y327110D01*
X5000Y267500D02*
Y315000D01*
Y217500D02*
Y267500D01*
X15000Y257500D02*
X27815D01*
X5000Y267500D02*
X15000Y257500D01*
X5000Y217500D02*
X7500Y215000D01*
D31*
X20000Y310000D02*
X45000D01*
X15000Y305000D02*
X20000Y310000D01*
X15000Y300000D02*
Y305000D01*
X5000Y295000D02*
X9843Y290158D01*
X15000D01*
M02*
