M48
;Layer_Color=9474304
;FILE_FORMAT=2:5
INCH,TZ
;TYPE=PLATED
T1F00S00C0.02800
T2F00S00C0.03150
T3F00S00C0.03543
%
T01
X57500Y65000
T02
X45000Y10000
Y19842
Y29685
Y39528
Y49370
Y59213
Y69055
Y78898
Y88740
Y110000
Y119843
Y129685
Y139528
Y149370
T03
X10000Y10000
Y20000
Y30000
Y40000
Y50000
X20000
Y40000
Y30000
Y20000
Y10000
Y60000
Y70000
Y80000
Y90000
Y100000
Y110000
Y120000
Y130000
X10000
Y120000
Y110000
Y100000
Y90000
Y80000
Y70000
Y60000
M30
