G04 Layer_Color=32896*
%FSLAX25Y25*%
%MOIN*%
G70*
G01*
G75*
%ADD21C,0.01000*%
%ADD32C,0.00984*%
%ADD33C,0.02362*%
%ADD34C,0.00787*%
D21*
X35527Y23524D02*
Y91929D01*
X4622D02*
X35527D01*
X4622Y23524D02*
Y91929D01*
Y23524D02*
X35527D01*
X326500Y18595D02*
X324501D01*
X325500D01*
Y12597D01*
X326500D01*
X324501D01*
X321502D02*
Y16596D01*
X318503D01*
X317503Y15596D01*
Y12597D01*
X314504Y17595D02*
Y16596D01*
X315504D01*
X313504D01*
X314504D01*
Y13597D01*
X313504Y12597D01*
X307506D02*
X309506D01*
X310505Y13597D01*
Y15596D01*
X309506Y16596D01*
X307506D01*
X306506Y15596D01*
Y14596D01*
X310505D01*
X304507Y16596D02*
Y12597D01*
Y14596D01*
X303507Y15596D01*
X302508Y16596D01*
X301508D01*
X297509Y12597D02*
Y17595D01*
Y15596D01*
X298509D01*
X296510D01*
X297509D01*
Y17595D01*
X296510Y18595D01*
X292511Y16596D02*
X290512D01*
X289512Y15596D01*
Y12597D01*
X292511D01*
X293511Y13597D01*
X292511Y14596D01*
X289512D01*
X283514Y16596D02*
X286513D01*
X287513Y15596D01*
Y13597D01*
X286513Y12597D01*
X283514D01*
X278516D02*
X280515D01*
X281515Y13597D01*
Y15596D01*
X280515Y16596D01*
X278516D01*
X277516Y15596D01*
Y14596D01*
X281515D01*
X269518Y18595D02*
Y13597D01*
X268519Y12597D01*
X266519D01*
X265520Y13597D01*
Y18595D01*
X262521Y17595D02*
Y16596D01*
X263520D01*
X261521D01*
X262521D01*
Y13597D01*
X261521Y12597D01*
X258522D02*
X256523D01*
X257522D01*
Y16596D01*
X258522D01*
X253524Y12597D02*
X251524D01*
X252524D01*
Y18595D01*
X253524D01*
X248525Y12597D02*
X246526D01*
X247526D01*
Y16596D01*
X248525D01*
X243527Y12597D02*
X240528D01*
X239528Y13597D01*
X240528Y14596D01*
X242527D01*
X243527Y15596D01*
X242527Y16596D01*
X239528D01*
X236529D02*
X234530D01*
X233530Y15596D01*
Y12597D01*
X236529D01*
X237529Y13597D01*
X236529Y14596D01*
X233530D01*
X230531Y17595D02*
Y16596D01*
X231531D01*
X229531D01*
X230531D01*
Y13597D01*
X229531Y12597D01*
X223533D02*
X225533D01*
X226532Y13597D01*
Y15596D01*
X225533Y16596D01*
X223533D01*
X222534Y15596D01*
Y14596D01*
X226532D01*
X220534Y16596D02*
Y13597D01*
X219535Y12597D01*
X216536D01*
Y16596D01*
X214536D02*
Y12597D01*
Y14596D01*
X213537Y15596D01*
X212537Y16596D01*
X211537D01*
X202540Y15596D02*
X198541D01*
X186545Y12597D02*
X190544D01*
X186545Y16596D01*
Y17595D01*
X187545Y18595D01*
X189544D01*
X190544Y17595D01*
X184546D02*
X183546Y18595D01*
X181547D01*
X180547Y17595D01*
Y13597D01*
X181547Y12597D01*
X183546D01*
X184546Y13597D01*
Y17595D01*
X178548Y12597D02*
X176549D01*
X177548D01*
Y18595D01*
X178548Y17595D01*
X173549Y13597D02*
X172550Y12597D01*
X170551D01*
X169551Y13597D01*
Y17595D01*
X170551Y18595D01*
X172550D01*
X173549Y17595D01*
Y16596D01*
X172550Y15596D01*
X169551D01*
X161553Y18595D02*
Y14596D01*
X159554Y12597D01*
X157555Y14596D01*
Y18595D01*
X155555Y12597D02*
X153556D01*
X154556D01*
Y18595D01*
X155555Y17595D01*
X322501Y7998D02*
X323501Y8997D01*
X325500D01*
X326500Y7998D01*
Y6998D01*
X325500Y5998D01*
X323501D01*
X322501Y4999D01*
Y3999D01*
X323501Y2999D01*
X325500D01*
X326500Y3999D01*
X320502Y6998D02*
Y3999D01*
X319502Y2999D01*
X316503D01*
Y6998D01*
X314504Y1000D02*
Y6998D01*
X311505D01*
X310505Y5998D01*
Y3999D01*
X311505Y2999D01*
X314504D01*
X307506Y6998D02*
X305507D01*
X304507Y5998D01*
Y2999D01*
X307506D01*
X308506Y3999D01*
X307506Y4999D01*
X304507D01*
X299509Y2999D02*
X301508D01*
X302508Y3999D01*
Y5998D01*
X301508Y6998D01*
X299509D01*
X298509Y5998D01*
Y4999D01*
X302508D01*
X296510Y6998D02*
Y2999D01*
Y4999D01*
X295510Y5998D01*
X294510Y6998D01*
X293511D01*
X289512Y2999D02*
X287513D01*
X286513Y3999D01*
Y5998D01*
X287513Y6998D01*
X289512D01*
X290512Y5998D01*
Y3999D01*
X289512Y2999D01*
X278516D02*
Y8997D01*
X275517D01*
X274517Y7998D01*
Y5998D01*
X275517Y4999D01*
X278516D01*
X276516D02*
X274517Y2999D01*
X271518D02*
X269518D01*
X268519Y3999D01*
Y5998D01*
X269518Y6998D01*
X271518D01*
X272517Y5998D01*
Y3999D01*
X271518Y2999D01*
X266519Y8997D02*
Y2999D01*
X263520D01*
X262521Y3999D01*
Y4999D01*
Y5998D01*
X263520Y6998D01*
X266519D01*
X259522Y2999D02*
X257522D01*
X256523Y3999D01*
Y5998D01*
X257522Y6998D01*
X259522D01*
X260521Y5998D01*
Y3999D01*
X259522Y2999D01*
X253524Y7998D02*
Y6998D01*
X254523D01*
X252524D01*
X253524D01*
Y3999D01*
X252524Y2999D01*
X249525D02*
X247526D01*
X248525D01*
Y6998D01*
X249525D01*
X244527Y2999D02*
Y8997D01*
Y4999D02*
X241528Y6998D01*
X244527Y4999D02*
X241528Y2999D01*
X228532Y7998D02*
X229531Y8997D01*
X231531D01*
X232530Y7998D01*
Y3999D01*
X231531Y2999D01*
X229531D01*
X228532Y3999D01*
X226532Y2999D02*
X224533D01*
X225533D01*
Y8997D01*
X226532D01*
X221534Y6998D02*
Y3999D01*
X220534Y2999D01*
X217535D01*
Y6998D01*
X215536Y8997D02*
Y2999D01*
X212537D01*
X211537Y3999D01*
Y4999D01*
Y5998D01*
X212537Y6998D01*
X215536D01*
X80000Y67500D02*
Y73498D01*
X77001D01*
X76001Y72498D01*
Y70499D01*
X77001Y69499D01*
X80000D01*
X78001D02*
X76001Y67500D01*
X74002D02*
X72003D01*
X73002D01*
Y73498D01*
X74002Y72498D01*
X115000Y67500D02*
Y73498D01*
X112001D01*
X111001Y72498D01*
Y70499D01*
X112001Y69499D01*
X115000D01*
X113001D02*
X111001Y67500D01*
X105003D02*
X109002D01*
X105003Y71499D01*
Y72498D01*
X106003Y73498D01*
X108002D01*
X109002Y72498D01*
X147500Y67500D02*
Y73498D01*
X144501D01*
X143501Y72498D01*
Y70499D01*
X144501Y69499D01*
X147500D01*
X145501D02*
X143501Y67500D01*
X141502Y72498D02*
X140502Y73498D01*
X138503D01*
X137503Y72498D01*
Y71499D01*
X138503Y70499D01*
X139503D01*
X138503D01*
X137503Y69499D01*
Y68500D01*
X138503Y67500D01*
X140502D01*
X141502Y68500D01*
X180000Y67500D02*
Y73498D01*
X177001D01*
X176001Y72498D01*
Y70499D01*
X177001Y69499D01*
X180000D01*
X178001D02*
X176001Y67500D01*
X171003D02*
Y73498D01*
X174002Y70499D01*
X170003D01*
X215000Y67500D02*
Y73498D01*
X212001D01*
X211001Y72498D01*
Y70499D01*
X212001Y69499D01*
X215000D01*
X213001D02*
X211001Y67500D01*
X205003Y73498D02*
X209002D01*
Y70499D01*
X207003Y71499D01*
X206003D01*
X205003Y70499D01*
Y68500D01*
X206003Y67500D01*
X208002D01*
X209002Y68500D01*
X247500Y67500D02*
Y73498D01*
X244501D01*
X243501Y72498D01*
Y70499D01*
X244501Y69499D01*
X247500D01*
X245501D02*
X243501Y67500D01*
X237503Y73498D02*
X239503Y72498D01*
X241502Y70499D01*
Y68500D01*
X240502Y67500D01*
X238503D01*
X237503Y68500D01*
Y69499D01*
X238503Y70499D01*
X241502D01*
X282500Y67500D02*
Y73498D01*
X279501D01*
X278501Y72498D01*
Y70499D01*
X279501Y69499D01*
X282500D01*
X280501D02*
X278501Y67500D01*
X276502Y73498D02*
X272503D01*
Y72498D01*
X276502Y68500D01*
Y67500D01*
X315000D02*
Y73498D01*
X312001D01*
X311001Y72498D01*
Y70499D01*
X312001Y69499D01*
X315000D01*
X313001D02*
X311001Y67500D01*
X309002Y72498D02*
X308002Y73498D01*
X306003D01*
X305003Y72498D01*
Y71499D01*
X306003Y70499D01*
X305003Y69499D01*
Y68500D01*
X306003Y67500D01*
X308002D01*
X309002Y68500D01*
Y69499D01*
X308002Y70499D01*
X309002Y71499D01*
Y72498D01*
X308002Y70499D02*
X306003D01*
X192500Y68498D02*
Y63500D01*
X191500Y62500D01*
X189501D01*
X188501Y63500D01*
Y68498D01*
X186502Y62500D02*
X184503D01*
X185502D01*
Y68498D01*
X186502Y67498D01*
X39204Y65166D02*
X33206D01*
X36205D01*
Y69165D01*
X39204D01*
X33206D01*
Y71164D02*
Y73163D01*
Y72164D01*
X39204D01*
X38204Y71164D01*
X42362Y100998D02*
Y95000D01*
X39363D01*
X38364Y96000D01*
Y99998D01*
X39363Y100998D01*
X42362D01*
X36364Y95000D02*
X34365D01*
X35364D01*
Y100998D01*
X36364Y99998D01*
X67500Y95000D02*
Y100998D01*
X64501D01*
X63501Y99998D01*
Y97999D01*
X64501Y96999D01*
X67500D01*
X65501D02*
X63501Y95000D01*
X61502Y99998D02*
X60502Y100998D01*
X58503D01*
X57503Y99998D01*
Y96000D01*
X58503Y95000D01*
X60502D01*
X61502Y96000D01*
Y99998D01*
D32*
X200199Y61257D02*
X199461Y61683D01*
Y60830D01*
X200199Y61257D01*
D33*
X192522Y56158D02*
X192077Y57082D01*
X191078Y57310D01*
X190277Y56671D01*
Y55646D01*
X191078Y55007D01*
X192077Y55235D01*
X192522Y56158D01*
D34*
X195278Y20725D02*
Y60095D01*
X182679Y20725D02*
Y60095D01*
X195278D01*
X182679Y20725D02*
X195278D01*
X66437Y102972D02*
X73917D01*
X66437Y112028D02*
X73917D01*
Y102972D02*
Y112028D01*
X49902Y104547D02*
Y110453D01*
X51870Y102972D02*
X58563D01*
X49902Y110453D02*
X51870Y112028D01*
X49902Y104547D02*
X51870Y102972D01*
X51870Y112028D02*
X58563D01*
X41299Y102972D02*
X48779D01*
X41299Y112028D02*
X48779D01*
Y102972D02*
Y112028D01*
X24764Y104547D02*
Y110453D01*
X26732Y102972D02*
X33425D01*
X24764Y110453D02*
X26732Y112028D01*
X24764Y104547D02*
X26732Y102972D01*
X26732Y112028D02*
X33425D01*
X69851Y75693D02*
Y83173D01*
X78906Y75693D02*
Y83173D01*
X69851Y75693D02*
X78906D01*
X71426Y99709D02*
X77332D01*
X69851Y91047D02*
Y97740D01*
X77332Y99709D02*
X78906Y97740D01*
X69851D02*
X71426Y99709D01*
X78906Y91047D02*
Y97740D01*
X103151Y75693D02*
Y83173D01*
X112206Y75693D02*
Y83173D01*
X103151Y75693D02*
X112206D01*
X104726Y99709D02*
X110632D01*
X103151Y91047D02*
Y97740D01*
X110632Y99709D02*
X112206Y97740D01*
X103151D02*
X104726Y99709D01*
X112206Y91047D02*
Y97740D01*
X136751Y75693D02*
Y83173D01*
X145806Y75693D02*
Y83173D01*
X136751Y75693D02*
X145806D01*
X138326Y99709D02*
X144231D01*
X136751Y91047D02*
Y97740D01*
X144231Y99709D02*
X145806Y97740D01*
X136751D02*
X138326Y99709D01*
X145806Y91047D02*
Y97740D01*
X170251Y75693D02*
Y83173D01*
X179306Y75693D02*
Y83173D01*
X170251Y75693D02*
X179306D01*
X171826Y99709D02*
X177732D01*
X170251Y91047D02*
Y97740D01*
X177732Y99709D02*
X179306Y97740D01*
X170251D02*
X171826Y99709D01*
X179306Y91047D02*
Y97740D01*
X203651Y75693D02*
Y83173D01*
X212706Y75693D02*
Y83173D01*
X203651Y75693D02*
X212706D01*
X205226Y99709D02*
X211132D01*
X203651Y91047D02*
Y97740D01*
X211132Y99709D02*
X212706Y97740D01*
X203651D02*
X205226Y99709D01*
X212706Y91047D02*
Y97740D01*
X237351Y75693D02*
Y83173D01*
X246406Y75693D02*
Y83173D01*
X237351Y75693D02*
X246406D01*
X238926Y99709D02*
X244831D01*
X237351Y91047D02*
Y97740D01*
X244831Y99709D02*
X246406Y97740D01*
X237351D02*
X238926Y99709D01*
X246406Y91047D02*
Y97740D01*
X270951Y75493D02*
Y82973D01*
X280006Y75493D02*
Y82973D01*
X270951Y75493D02*
X280006D01*
X272526Y99509D02*
X278432D01*
X270951Y90847D02*
Y97540D01*
X278432Y99509D02*
X280006Y97540D01*
X270951D02*
X272526Y99509D01*
X280006Y90847D02*
Y97540D01*
X303851Y75693D02*
Y83173D01*
X312906Y75693D02*
Y83173D01*
X303851Y75693D02*
X312906D01*
X305426Y99709D02*
X311332D01*
X303851Y91047D02*
Y97740D01*
X311332Y99709D02*
X312906Y97740D01*
X303851D02*
X305426Y99709D01*
X312906Y91047D02*
Y97740D01*
M02*
