G04 Layer_Color=8388736*
%FSLAX25Y25*%
%MOIN*%
G70*
G01*
G75*
%ADD23R,0.07493X0.08674*%
%ADD24R,0.08674X0.07493*%
%ADD25O,0.08800X0.06800*%
%ADD26C,0.06800*%
%ADD27C,0.21745*%
%ADD28C,0.05800*%
D23*
X70000Y18740D02*
D03*
X55827D02*
D03*
Y40000D02*
D03*
X70000D02*
D03*
X304000Y18740D02*
D03*
X289827D02*
D03*
Y40000D02*
D03*
X304000D02*
D03*
X270571Y18740D02*
D03*
X256398D02*
D03*
Y40000D02*
D03*
X270571D02*
D03*
X237143Y18740D02*
D03*
X222970D02*
D03*
Y40000D02*
D03*
X237143D02*
D03*
X203714Y18740D02*
D03*
X189541D02*
D03*
Y40000D02*
D03*
X203714D02*
D03*
X170286Y18740D02*
D03*
X156113D02*
D03*
Y40000D02*
D03*
X170286D02*
D03*
X136857Y18740D02*
D03*
X122684D02*
D03*
Y40000D02*
D03*
X136857D02*
D03*
X103429Y18740D02*
D03*
X89255D02*
D03*
Y40000D02*
D03*
X103429D02*
D03*
D24*
X343760Y85000D02*
D03*
Y70827D02*
D03*
X322500D02*
D03*
Y85000D02*
D03*
X343760Y51000D02*
D03*
Y36827D02*
D03*
X322500D02*
D03*
Y51000D02*
D03*
D25*
X30606Y33366D02*
D03*
Y43209D02*
D03*
Y53051D02*
D03*
Y62894D02*
D03*
Y72736D02*
D03*
Y82579D02*
D03*
D26*
X296379Y70210D02*
D03*
Y80210D02*
D03*
Y90210D02*
D03*
X263079Y70210D02*
D03*
Y80210D02*
D03*
Y90210D02*
D03*
X229979Y70210D02*
D03*
Y80210D02*
D03*
Y90210D02*
D03*
X196279Y70210D02*
D03*
Y80210D02*
D03*
Y90210D02*
D03*
X162879Y70210D02*
D03*
Y80210D02*
D03*
Y90210D02*
D03*
X129479Y70210D02*
D03*
Y80210D02*
D03*
Y90210D02*
D03*
X95679Y70210D02*
D03*
Y80210D02*
D03*
Y90210D02*
D03*
X62479Y70210D02*
D03*
Y80210D02*
D03*
Y90210D02*
D03*
D27*
X11811Y11811D02*
D03*
Y106299D02*
D03*
X342520D02*
D03*
Y11811D02*
D03*
D28*
X44980Y62992D02*
D03*
X39567Y72835D02*
D03*
X50295Y53248D02*
D03*
X174427Y66716D02*
D03*
X31102Y8465D02*
D03*
X95669Y50787D02*
D03*
X296457Y51181D02*
D03*
X27500Y97500D02*
D03*
X320866Y106299D02*
D03*
M02*
