G04 Layer_Color=65535*
%FSLAX25Y25*%
%MOIN*%
G70*
G01*
G75*
%ADD13C,0.02000*%
%ADD21C,0.01000*%
%ADD22C,0.00100*%
D13*
X90675Y114328D02*
X88675Y116327D01*
X84676D01*
X82677Y114328D01*
Y112328D01*
X84676Y110329D01*
X88675D01*
X90675Y108329D01*
Y106330D01*
X88675Y104331D01*
X84676D01*
X82677Y106330D01*
X94673Y112328D02*
Y106330D01*
X96673Y104331D01*
X102671D01*
Y112328D01*
X106669Y100332D02*
Y112328D01*
X112668D01*
X114667Y110329D01*
Y106330D01*
X112668Y104331D01*
X106669D01*
X120665Y112328D02*
X124664D01*
X126663Y110329D01*
Y104331D01*
X120665D01*
X118666Y106330D01*
X120665Y108329D01*
X126663D01*
X136660Y104331D02*
X132661D01*
X130662Y106330D01*
Y110329D01*
X132661Y112328D01*
X136660D01*
X138659Y110329D01*
Y108329D01*
X130662D01*
X142658Y112328D02*
Y104331D01*
Y108329D01*
X144657Y110329D01*
X146657Y112328D01*
X148656D01*
X156653Y104331D02*
X160652D01*
X162651Y106330D01*
Y110329D01*
X160652Y112328D01*
X156653D01*
X154654Y110329D01*
Y106330D01*
X156653Y104331D01*
X178646Y110329D02*
X186644D01*
X202638Y104331D02*
Y116327D01*
X208636D01*
X210636Y114328D01*
Y110329D01*
X208636Y108329D01*
X202638D01*
X206637D02*
X210636Y104331D01*
X216634D02*
X220633D01*
X222632Y106330D01*
Y110329D01*
X220633Y112328D01*
X216634D01*
X214634Y110329D01*
Y106330D01*
X216634Y104331D01*
X226631Y116327D02*
Y104331D01*
X232629D01*
X234628Y106330D01*
Y108329D01*
Y110329D01*
X232629Y112328D01*
X226631D01*
X240626Y104331D02*
X244625D01*
X246624Y106330D01*
Y110329D01*
X244625Y112328D01*
X240626D01*
X238627Y110329D01*
Y106330D01*
X240626Y104331D01*
X252622Y114328D02*
Y112328D01*
X250623D01*
X254622D01*
X252622D01*
Y106330D01*
X254622Y104331D01*
X260620D02*
X264618D01*
X262619D01*
Y112328D01*
X260620D01*
X270616Y104331D02*
Y116327D01*
Y108329D02*
X276614Y112328D01*
X270616Y108329D02*
X276614Y104331D01*
D21*
X22284Y11811D02*
X22236Y12807D01*
X22094Y13793D01*
X21859Y14761D01*
X21533Y15703D01*
X21119Y16610D01*
X20621Y17473D01*
X20043Y18285D01*
X19390Y19038D01*
X18669Y19726D01*
X17886Y20342D01*
X17047Y20880D01*
X16161Y21337D01*
X15236Y21708D01*
X14280Y21988D01*
X13301Y22177D01*
X12309Y22272D01*
X11313D01*
X10321Y22177D01*
X9342Y21988D01*
X8386Y21708D01*
X7461Y21337D01*
X6575Y20880D01*
X5736Y20342D01*
X4953Y19726D01*
X4232Y19038D01*
X3579Y18285D01*
X3001Y17473D01*
X2503Y16610D01*
X2089Y15703D01*
X1763Y14761D01*
X1528Y13793D01*
X1386Y12807D01*
X1339Y11811D01*
X1386Y10816D01*
X1528Y9829D01*
X1763Y8861D01*
X2089Y7919D01*
X2503Y7012D01*
X3001Y6149D01*
X3579Y5337D01*
X4232Y4584D01*
X4953Y3897D01*
X5736Y3280D01*
X6575Y2742D01*
X7461Y2285D01*
X8386Y1915D01*
X9342Y1634D01*
X10321Y1445D01*
X11313Y1350D01*
X12309D01*
X13301Y1445D01*
X14280Y1634D01*
X15236Y1915D01*
X16161Y2285D01*
X17047Y2742D01*
X17886Y3280D01*
X18669Y3897D01*
X19390Y4584D01*
X20043Y5337D01*
X20621Y6149D01*
X21119Y7012D01*
X21533Y7919D01*
X21859Y8861D01*
X22094Y9829D01*
X22236Y10816D01*
X22284Y11811D01*
Y106299D02*
X22236Y107295D01*
X22094Y108281D01*
X21859Y109250D01*
X21533Y110191D01*
X21119Y111098D01*
X20621Y111961D01*
X20043Y112773D01*
X19390Y113526D01*
X18669Y114214D01*
X17886Y114830D01*
X17047Y115369D01*
X16161Y115825D01*
X15236Y116196D01*
X14280Y116476D01*
X13301Y116665D01*
X12309Y116760D01*
X11313D01*
X10321Y116665D01*
X9342Y116476D01*
X8386Y116196D01*
X7461Y115825D01*
X6575Y115369D01*
X5736Y114830D01*
X4953Y114214D01*
X4232Y113526D01*
X3579Y112773D01*
X3001Y111961D01*
X2503Y111098D01*
X2089Y110191D01*
X1763Y109250D01*
X1528Y108281D01*
X1386Y107295D01*
X1339Y106299D01*
X1386Y105304D01*
X1528Y104317D01*
X1763Y103349D01*
X2089Y102407D01*
X2503Y101500D01*
X3001Y100637D01*
X3579Y99826D01*
X4232Y99072D01*
X4953Y98385D01*
X5736Y97769D01*
X6575Y97230D01*
X7461Y96773D01*
X8386Y96403D01*
X9342Y96122D01*
X10321Y95933D01*
X11313Y95839D01*
X12309D01*
X13301Y95933D01*
X14280Y96122D01*
X15236Y96403D01*
X16161Y96773D01*
X17047Y97230D01*
X17886Y97769D01*
X18669Y98385D01*
X19390Y99072D01*
X20043Y99826D01*
X20621Y100637D01*
X21119Y101500D01*
X21533Y102407D01*
X21859Y103349D01*
X22094Y104317D01*
X22236Y105304D01*
X22284Y106299D01*
X352992D02*
X352945Y107295D01*
X352803Y108281D01*
X352568Y109250D01*
X352242Y110191D01*
X351828Y111098D01*
X351330Y111961D01*
X350752Y112773D01*
X350099Y113526D01*
X349378Y114214D01*
X348594Y114830D01*
X347756Y115369D01*
X346870Y115825D01*
X345945Y116196D01*
X344989Y116476D01*
X344010Y116665D01*
X343018Y116760D01*
X342021D01*
X341029Y116665D01*
X340051Y116476D01*
X339094Y116196D01*
X338169Y115825D01*
X337283Y115369D01*
X336445Y114830D01*
X335662Y114214D01*
X334940Y113526D01*
X334288Y112773D01*
X333710Y111961D01*
X333211Y111098D01*
X332797Y110191D01*
X332471Y109250D01*
X332237Y108281D01*
X332095Y107295D01*
X332047Y106299D01*
X332095Y105304D01*
X332237Y104317D01*
X332471Y103349D01*
X332797Y102407D01*
X333211Y101500D01*
X333710Y100637D01*
X334288Y99826D01*
X334940Y99072D01*
X335662Y98385D01*
X336445Y97769D01*
X337283Y97230D01*
X338169Y96773D01*
X339094Y96403D01*
X340051Y96122D01*
X341029Y95933D01*
X342021Y95839D01*
X343018D01*
X344010Y95933D01*
X344989Y96122D01*
X345945Y96403D01*
X346870Y96773D01*
X347756Y97230D01*
X348594Y97769D01*
X349378Y98385D01*
X350099Y99072D01*
X350752Y99826D01*
X351330Y100637D01*
X351828Y101500D01*
X352242Y102407D01*
X352568Y103349D01*
X352803Y104317D01*
X352945Y105304D01*
X352992Y106299D01*
Y11811D02*
X352945Y12807D01*
X352803Y13793D01*
X352568Y14761D01*
X352242Y15703D01*
X351828Y16610D01*
X351330Y17473D01*
X350752Y18285D01*
X350099Y19038D01*
X349378Y19726D01*
X348594Y20342D01*
X347756Y20880D01*
X346870Y21337D01*
X345945Y21708D01*
X344989Y21988D01*
X344010Y22177D01*
X343018Y22272D01*
X342021D01*
X341029Y22177D01*
X340051Y21988D01*
X339094Y21708D01*
X338169Y21337D01*
X337283Y20880D01*
X336445Y20342D01*
X335662Y19726D01*
X334940Y19038D01*
X334288Y18285D01*
X333710Y17473D01*
X333211Y16610D01*
X332797Y15703D01*
X332471Y14761D01*
X332237Y13793D01*
X332095Y12807D01*
X332047Y11811D01*
X332095Y10816D01*
X332237Y9829D01*
X332471Y8861D01*
X332797Y7919D01*
X333211Y7012D01*
X333710Y6149D01*
X334288Y5337D01*
X334940Y4584D01*
X335662Y3897D01*
X336445Y3280D01*
X337283Y2742D01*
X338169Y2285D01*
X339094Y1915D01*
X340051Y1634D01*
X341029Y1445D01*
X342021Y1350D01*
X343018D01*
X344010Y1445D01*
X344989Y1634D01*
X345945Y1915D01*
X346870Y2285D01*
X347756Y2742D01*
X348594Y3280D01*
X349378Y3897D01*
X350099Y4584D01*
X350752Y5337D01*
X351330Y6149D01*
X351828Y7012D01*
X352242Y7919D01*
X352568Y8861D01*
X352803Y9829D01*
X352945Y10816D01*
X352992Y11811D01*
X53071Y19528D02*
Y39213D01*
Y19528D02*
X72756D01*
Y37244D01*
X70787Y39213D02*
X72756Y37244D01*
X53071Y39213D02*
X70787D01*
X323287Y68071D02*
X342972D01*
Y87756D01*
X325256D02*
X342972D01*
X323287Y85787D02*
X325256Y87756D01*
X323287Y68071D02*
Y85787D01*
Y34071D02*
X342972D01*
Y53756D01*
X325256D02*
X342972D01*
X323287Y51787D02*
X325256Y53756D01*
X323287Y34071D02*
Y51787D01*
X287071Y19528D02*
Y39213D01*
Y19528D02*
X306756D01*
Y37244D01*
X304787Y39213D02*
X306756Y37244D01*
X287071Y39213D02*
X304787D01*
X253642Y19528D02*
Y39213D01*
Y19528D02*
X273327D01*
Y37244D01*
X271359Y39213D02*
X273327Y37244D01*
X253642Y39213D02*
X271359D01*
X220214Y19528D02*
Y39213D01*
Y19528D02*
X239899D01*
Y37244D01*
X237930Y39213D02*
X239899Y37244D01*
X220214Y39213D02*
X237930D01*
X186785Y19528D02*
Y39213D01*
Y19528D02*
X206470D01*
Y37244D01*
X204502Y39213D02*
X206470Y37244D01*
X186785Y39213D02*
X204502D01*
X153357Y19528D02*
Y39213D01*
Y19528D02*
X173042D01*
Y37244D01*
X171073Y39213D02*
X173042Y37244D01*
X153357Y39213D02*
X171073D01*
X119928Y19528D02*
Y39213D01*
Y19528D02*
X139613D01*
Y37244D01*
X137645Y39213D02*
X139613Y37244D01*
X119928Y39213D02*
X137645D01*
X86499Y19528D02*
Y39213D01*
Y19528D02*
X106184D01*
Y37244D01*
X104216Y39213D02*
X106184Y37244D01*
X86499Y39213D02*
X104216D01*
X290473Y60368D02*
X302284D01*
Y99738D01*
X290473D02*
X302284D01*
X290473Y60368D02*
Y99738D01*
X257173Y60368D02*
X268984D01*
Y99738D01*
X257173D02*
X268984D01*
X257173Y60368D02*
Y99738D01*
X224073Y60368D02*
X235884D01*
Y99738D01*
X224073D02*
X235884D01*
X224073Y60368D02*
Y99738D01*
X190373Y60368D02*
X202184D01*
Y99738D01*
X190373D02*
X202184D01*
X190373Y60368D02*
Y99738D01*
X156973Y60368D02*
X168784D01*
Y99738D01*
X156973D02*
X168784D01*
X156973Y60368D02*
Y99738D01*
X123573Y60368D02*
X135384D01*
Y99738D01*
X123573D02*
X135384D01*
X123573Y60368D02*
Y99738D01*
X89773Y60368D02*
X101584D01*
Y99738D01*
X89773D02*
X101584D01*
X89773Y60368D02*
Y99738D01*
X56573Y60368D02*
X68384D01*
Y99738D01*
X56573D02*
X68384D01*
X56573Y60368D02*
Y99738D01*
X92000Y11998D02*
Y6000D01*
X95999D01*
X101997D02*
X97998D01*
X101997Y9999D01*
Y10998D01*
X100997Y11998D01*
X98998D01*
X97998Y10998D01*
X125000Y11998D02*
Y6000D01*
X128999D01*
X130998Y10998D02*
X131998Y11998D01*
X133997D01*
X134997Y10998D01*
Y9999D01*
X133997Y8999D01*
X132997D01*
X133997D01*
X134997Y7999D01*
Y7000D01*
X133997Y6000D01*
X131998D01*
X130998Y7000D01*
X158000Y10998D02*
Y5000D01*
X161999D01*
X166997D02*
Y10998D01*
X163998Y7999D01*
X167997D01*
X192000Y11998D02*
Y6000D01*
X195999D01*
X201997Y11998D02*
X197998D01*
Y8999D01*
X199997Y9999D01*
X200997D01*
X201997Y8999D01*
Y7000D01*
X200997Y6000D01*
X198998D01*
X197998Y7000D01*
X225000Y11998D02*
Y6000D01*
X228999D01*
X234997Y11998D02*
X232997Y10998D01*
X230998Y8999D01*
Y7000D01*
X231998Y6000D01*
X233997D01*
X234997Y7000D01*
Y7999D01*
X233997Y8999D01*
X230998D01*
X259000Y11998D02*
Y6000D01*
X262999D01*
X264998Y11998D02*
X268997D01*
Y10998D01*
X264998Y7000D01*
Y6000D01*
X328000Y31998D02*
Y26000D01*
X331999D01*
X333998Y30998D02*
X334998Y31998D01*
X336997D01*
X337997Y30998D01*
Y29999D01*
X336997Y28999D01*
X337997Y27999D01*
Y27000D01*
X336997Y26000D01*
X334998D01*
X333998Y27000D01*
Y27999D01*
X334998Y28999D01*
X333998Y29999D01*
Y30998D01*
X334998Y28999D02*
X336997D01*
X292000Y11998D02*
Y6000D01*
X295999D01*
X297998Y7000D02*
X298998Y6000D01*
X300997D01*
X301997Y7000D01*
Y10998D01*
X300997Y11998D01*
X298998D01*
X297998Y10998D01*
Y9999D01*
X298998Y8999D01*
X301997D01*
X326000Y65998D02*
Y60000D01*
X329999D01*
X331998D02*
X333997D01*
X332998D01*
Y65998D01*
X331998Y64998D01*
X336996D02*
X337996Y65998D01*
X339996D01*
X340995Y64998D01*
Y61000D01*
X339996Y60000D01*
X337996D01*
X336996Y61000D01*
Y64998D01*
X59000Y12998D02*
Y7000D01*
X62999D01*
X64998D02*
X66997D01*
X65998D01*
Y12998D01*
X64998Y11998D01*
D22*
X34079Y56010D02*
Y66010D01*
X33979Y55910D02*
Y66010D01*
X33879Y55910D02*
Y66010D01*
X33779Y62310D02*
Y66010D01*
Y60810D02*
Y61110D01*
Y55910D02*
Y59610D01*
X33679Y62310D02*
Y66010D01*
Y60810D02*
Y61110D01*
Y55910D02*
Y59610D01*
X33579Y66610D02*
Y67710D01*
Y55910D02*
Y66010D01*
X33479Y66610D02*
Y67810D01*
Y62310D02*
Y66010D01*
Y55910D02*
Y59610D01*
X33379Y66510D02*
Y67910D01*
Y62310D02*
Y66010D01*
Y56010D02*
Y59610D01*
X33279Y66410D02*
Y68010D01*
Y62310D02*
Y65910D01*
Y56110D02*
Y59610D01*
X33179Y66310D02*
Y68010D01*
Y62210D02*
Y65910D01*
Y56110D02*
Y59710D01*
X33079Y66310D02*
Y68010D01*
Y56110D02*
Y65810D01*
X32979Y66310D02*
Y68010D01*
Y56110D02*
Y65810D01*
X32879Y67310D02*
Y68010D01*
Y66310D02*
Y67210D01*
Y65210D02*
Y65710D01*
Y63510D02*
Y63710D01*
Y62610D02*
Y62910D01*
Y59110D02*
Y59410D01*
Y58210D02*
Y58510D01*
Y57410D02*
Y57610D01*
Y56210D02*
Y56810D01*
X32779Y67310D02*
Y68010D01*
Y66310D02*
Y67210D01*
Y65210D02*
Y65710D01*
Y63410D02*
Y63710D01*
Y62610D02*
Y62910D01*
Y59110D02*
Y59410D01*
Y58210D02*
Y58510D01*
Y57410D02*
Y57610D01*
Y56210D02*
Y56810D01*
X32679Y67310D02*
Y68010D01*
Y66310D02*
Y67210D01*
Y65110D02*
Y65710D01*
Y63410D02*
Y63710D01*
Y62610D02*
Y62810D01*
Y59110D02*
Y59410D01*
Y58210D02*
Y58510D01*
Y57410D02*
Y57710D01*
Y56310D02*
Y56810D01*
X32579Y67310D02*
Y68010D01*
Y66310D02*
Y67210D01*
Y65110D02*
Y65610D01*
Y63310D02*
Y63910D01*
Y59910D02*
Y62910D01*
Y59110D02*
Y59510D01*
Y58210D02*
Y58610D01*
Y57410D02*
Y57710D01*
Y56310D02*
Y56910D01*
X32479Y67310D02*
Y68010D01*
Y66310D02*
Y67010D01*
Y65010D02*
Y65610D01*
Y63410D02*
Y63610D01*
Y62610D02*
Y62810D01*
Y61710D02*
Y61910D01*
Y60810D02*
Y61110D01*
Y60010D02*
Y60210D01*
Y59110D02*
Y59410D01*
Y58310D02*
Y58610D01*
Y57410D02*
Y57710D01*
Y56410D02*
Y56910D01*
X32379Y67410D02*
Y68010D01*
Y66310D02*
Y67010D01*
Y65010D02*
Y65610D01*
Y63310D02*
Y63610D01*
Y62510D02*
Y62810D01*
Y61710D02*
Y61910D01*
Y60810D02*
Y61110D01*
Y60010D02*
Y60210D01*
Y59110D02*
Y59510D01*
Y58310D02*
Y58610D01*
Y57410D02*
Y57810D01*
Y56410D02*
Y56910D01*
X32279Y67510D02*
Y68010D01*
Y66310D02*
Y67010D01*
Y65010D02*
Y65510D01*
Y63210D02*
Y63610D01*
Y62410D02*
Y62810D01*
Y60010D02*
Y61910D01*
Y59110D02*
Y59510D01*
Y58310D02*
Y58610D01*
Y57410D02*
Y57810D01*
Y56410D02*
Y57010D01*
X32179Y67510D02*
Y68010D01*
Y67110D02*
Y67310D01*
Y66310D02*
Y67010D01*
Y64910D02*
Y65410D01*
Y64210D02*
Y64410D01*
Y63210D02*
Y63610D01*
Y60810D02*
Y62810D01*
Y60010D02*
Y60310D01*
Y59110D02*
Y59510D01*
Y58310D02*
Y58610D01*
Y57510D02*
Y57810D01*
Y56410D02*
Y57110D01*
X32079Y67510D02*
Y68010D01*
Y67110D02*
Y67310D01*
Y66410D02*
Y67010D01*
Y64910D02*
Y65410D01*
Y64110D02*
Y64310D01*
Y63210D02*
Y63610D01*
Y62510D02*
Y62710D01*
Y61610D02*
Y61910D01*
Y60810D02*
Y61110D01*
Y60010D02*
Y60310D01*
Y59210D02*
Y59510D01*
Y58410D02*
Y58610D01*
Y57610D02*
Y57810D01*
Y56510D02*
Y57110D01*
X31979Y67510D02*
Y68010D01*
Y67110D02*
Y67310D01*
Y66410D02*
Y67010D01*
Y64910D02*
Y65410D01*
Y64110D02*
Y64310D01*
Y63210D02*
Y63610D01*
Y62510D02*
Y62710D01*
Y61610D02*
Y61910D01*
Y60810D02*
Y61110D01*
Y60010D02*
Y60310D01*
Y59210D02*
Y59510D01*
Y58410D02*
Y58610D01*
Y57610D02*
Y57810D01*
Y56510D02*
Y57110D01*
X31879Y67510D02*
Y67810D01*
Y67210D02*
Y67310D01*
Y66610D02*
Y67010D01*
Y56610D02*
Y65310D01*
X31779Y67510D02*
Y67710D01*
Y66710D02*
Y67010D01*
Y64810D02*
Y65310D01*
Y64010D02*
Y64310D01*
Y63210D02*
Y63610D01*
Y62410D02*
Y62710D01*
Y61610D02*
Y61910D01*
Y60810D02*
Y61110D01*
Y60110D02*
Y60310D01*
Y59210D02*
Y59510D01*
Y58510D02*
Y58810D01*
Y57610D02*
Y58010D01*
Y56710D02*
Y57110D01*
X31679Y67210D02*
Y67310D01*
Y64810D02*
Y65310D01*
Y64010D02*
Y64310D01*
Y63210D02*
Y63510D01*
Y62410D02*
Y62610D01*
Y61610D02*
Y61910D01*
Y60810D02*
Y61110D01*
Y60110D02*
Y60310D01*
Y59210D02*
Y59510D01*
Y58510D02*
Y58810D01*
Y57710D02*
Y58010D01*
Y56710D02*
Y57110D01*
X31579Y67210D02*
Y67310D01*
Y64710D02*
Y65210D01*
Y63910D02*
Y64210D01*
Y63210D02*
Y63410D01*
Y62410D02*
Y62610D01*
Y61610D02*
Y61910D01*
Y60810D02*
Y61110D01*
Y60110D02*
Y60310D01*
Y59210D02*
Y59510D01*
Y58510D02*
Y58810D01*
Y57710D02*
Y58010D01*
Y56710D02*
Y57110D01*
X31479Y66510D02*
Y67210D01*
Y56810D02*
Y65210D01*
X31379Y66310D02*
Y66910D01*
Y64610D02*
Y65110D01*
Y63910D02*
Y64210D01*
Y63210D02*
Y63410D01*
Y62310D02*
Y62610D01*
Y61610D02*
Y61910D01*
Y60810D02*
Y61110D01*
Y60110D02*
Y60310D01*
Y59310D02*
Y59510D01*
Y58510D02*
Y58810D01*
Y57710D02*
Y58110D01*
Y56810D02*
Y57410D01*
X31279Y66310D02*
Y66510D01*
Y64610D02*
Y65110D01*
Y63810D02*
Y64210D01*
Y63110D02*
Y63410D01*
Y62110D02*
Y62610D01*
Y61510D02*
Y61910D01*
Y60810D02*
Y61110D01*
Y60110D02*
Y60510D01*
Y59210D02*
Y59610D01*
Y58510D02*
Y58810D01*
Y57710D02*
Y58110D01*
Y56810D02*
Y57410D01*
X31179Y66310D02*
Y66510D01*
Y57010D02*
Y64910D01*
X31079Y66310D02*
Y66510D01*
Y57110D02*
Y64910D01*
X30979Y66310D02*
Y66510D01*
Y57310D02*
Y64610D01*
X30879Y66310D02*
Y66510D01*
X30779Y66310D02*
Y66510D01*
Y57210D02*
Y64710D01*
X30679Y66310D02*
Y66510D01*
Y57110D02*
Y64810D01*
X30579Y66310D02*
Y66410D01*
Y57110D02*
Y64910D01*
X30479Y66310D02*
Y66410D01*
Y65210D02*
Y65310D01*
Y64610D02*
Y64910D01*
Y57010D02*
Y57310D01*
X30379Y66310D02*
Y66410D01*
Y65110D02*
Y65410D01*
Y64610D02*
Y64910D01*
Y57010D02*
Y57310D01*
X30279Y66210D02*
Y66310D01*
Y65110D02*
Y65410D01*
Y64610D02*
Y64910D01*
Y57510D02*
Y64410D01*
Y57010D02*
Y57310D01*
X30179Y66110D02*
Y66310D01*
Y65310D02*
Y65410D01*
Y65010D02*
Y65210D01*
Y64610D02*
Y64910D01*
Y57510D02*
Y64410D01*
Y57010D02*
Y57310D01*
X30079Y65710D02*
Y66210D01*
Y65110D02*
Y65610D01*
Y64610D02*
Y64910D01*
Y57510D02*
Y64510D01*
Y57010D02*
Y57310D01*
X29979Y65410D02*
Y66010D01*
Y65110D02*
Y65310D01*
Y64610D02*
Y64910D01*
Y57510D02*
Y64510D01*
Y57010D02*
Y57310D01*
X29879Y65110D02*
Y65310D01*
Y64610D02*
Y64910D01*
Y57510D02*
Y64510D01*
Y57010D02*
Y57310D01*
X29779Y65010D02*
Y65210D01*
Y64610D02*
Y64910D01*
Y57510D02*
Y64510D01*
Y57010D02*
Y57310D01*
X29679Y64610D02*
Y65210D01*
Y57510D02*
Y64510D01*
Y57010D02*
Y57310D01*
X29579Y64610D02*
Y65110D01*
Y57510D02*
Y64510D01*
Y57010D02*
Y57310D01*
X29479Y64610D02*
Y64910D01*
Y57510D02*
Y64510D01*
Y57010D02*
Y57310D01*
X29379Y64610D02*
Y64910D01*
Y60110D02*
Y64510D01*
Y57510D02*
Y59910D01*
Y57010D02*
Y57310D01*
X29279Y64610D02*
Y64910D01*
Y61310D02*
Y64510D01*
Y60210D02*
Y61110D01*
Y57510D02*
Y59810D01*
Y57010D02*
Y57310D01*
X29179Y64610D02*
Y64910D01*
Y61410D02*
Y64510D01*
Y60410D02*
Y60910D01*
Y57510D02*
Y59810D01*
Y57010D02*
Y57310D01*
X29079Y64610D02*
Y64910D01*
Y61510D02*
Y64510D01*
Y60510D02*
Y60810D01*
Y57510D02*
Y59810D01*
Y57010D02*
Y57310D01*
X28979Y64610D02*
Y64910D01*
Y61510D02*
Y64510D01*
Y60910D02*
Y61310D01*
Y60210D02*
Y60410D01*
Y57510D02*
Y59810D01*
Y57010D02*
Y57310D01*
X28879Y64610D02*
Y64910D01*
Y61610D02*
Y64510D01*
Y60810D02*
Y61410D01*
Y60310D02*
Y60510D01*
Y60010D02*
Y60110D01*
Y57510D02*
Y59810D01*
Y57010D02*
Y57310D01*
X28779Y64610D02*
Y64910D01*
Y61710D02*
Y64510D01*
Y60810D02*
Y61410D01*
Y60310D02*
Y60410D01*
Y60010D02*
Y60110D01*
Y57510D02*
Y59810D01*
Y57010D02*
Y57310D01*
X28679Y64610D02*
Y64910D01*
Y61810D02*
Y64510D01*
Y60510D02*
Y61510D01*
Y60010D02*
Y60210D01*
Y57510D02*
Y59810D01*
Y57010D02*
Y57310D01*
X28579Y64610D02*
Y64910D01*
Y61910D02*
Y64510D01*
Y60710D02*
Y61610D01*
Y59910D02*
Y60210D01*
Y57510D02*
Y59810D01*
Y57010D02*
Y57310D01*
X28479Y64610D02*
Y64910D01*
Y61910D02*
Y64510D01*
Y60810D02*
Y61710D01*
Y59910D02*
Y60410D01*
Y57510D02*
Y59810D01*
Y57010D02*
Y57310D01*
X28379Y64610D02*
Y64910D01*
Y62010D02*
Y64510D01*
Y60910D02*
Y61710D01*
Y60010D02*
Y60510D01*
Y57510D02*
Y59710D01*
Y57010D02*
Y57310D01*
X28279Y64610D02*
Y64910D01*
Y62110D02*
Y64510D01*
Y61210D02*
Y61910D01*
Y60510D02*
Y60810D01*
Y57510D02*
Y59510D01*
Y57010D02*
Y57310D01*
X28179Y64610D02*
Y64910D01*
Y62210D02*
Y64510D01*
Y61410D02*
Y61910D01*
Y60710D02*
Y60910D01*
Y59810D02*
Y60010D01*
Y57510D02*
Y59310D01*
Y57010D02*
Y57310D01*
X28079Y64610D02*
Y64910D01*
Y62210D02*
Y64510D01*
Y61510D02*
Y61910D01*
Y60810D02*
Y61110D01*
Y59610D02*
Y60210D01*
Y57510D02*
Y59210D01*
Y57010D02*
Y57310D01*
X27979Y64610D02*
Y64910D01*
Y62310D02*
Y64510D01*
Y61910D02*
Y62110D01*
Y60010D02*
Y60810D01*
Y57510D02*
Y59110D01*
Y57010D02*
Y57310D01*
X27879Y64610D02*
Y64910D01*
Y62410D02*
Y64510D01*
Y61910D02*
Y62210D01*
Y60510D02*
Y61010D01*
Y57510D02*
Y59110D01*
Y57010D02*
Y57310D01*
X27779Y64610D02*
Y64910D01*
Y62510D02*
Y64510D01*
Y62110D02*
Y62210D01*
Y60910D02*
Y61210D01*
Y57510D02*
Y59610D01*
Y57010D02*
Y57310D01*
X27679Y64610D02*
Y64910D01*
Y62510D02*
Y64510D01*
Y57510D02*
Y60110D01*
Y57010D02*
Y57310D01*
X27579Y64610D02*
Y64910D01*
Y62610D02*
Y64510D01*
Y57510D02*
Y60910D01*
Y56910D02*
Y57310D01*
X27479Y64610D02*
Y64910D01*
Y62610D02*
Y64510D01*
Y57510D02*
Y61410D01*
Y56810D02*
Y57310D01*
X27379Y64610D02*
Y64910D01*
Y62710D02*
Y64510D01*
Y57510D02*
Y61910D01*
Y56710D02*
Y57310D01*
X27279Y64610D02*
Y64910D01*
Y57510D02*
Y64510D01*
Y57010D02*
Y57310D01*
Y56410D02*
Y56710D01*
X27179Y64610D02*
Y64910D01*
Y57510D02*
Y64510D01*
Y57010D02*
Y57310D01*
Y56410D02*
Y56610D01*
X27079Y64610D02*
Y64910D01*
Y57510D02*
Y64510D01*
Y57010D02*
Y57310D01*
Y56310D02*
Y56510D01*
X26979Y64610D02*
Y64910D01*
Y57510D02*
Y64510D01*
Y57010D02*
Y57310D01*
Y56210D02*
Y56410D01*
X26879Y64610D02*
Y64910D01*
Y57510D02*
Y64510D01*
Y57010D02*
Y57310D01*
Y56110D02*
Y56310D01*
X26779Y64610D02*
Y64910D01*
Y57510D02*
Y64510D01*
Y57010D02*
Y57310D01*
Y56110D02*
Y56210D01*
X26679Y64610D02*
Y64910D01*
Y57510D02*
Y64510D01*
Y57010D02*
Y57310D01*
Y56010D02*
Y56110D01*
X26579Y64610D02*
Y64910D01*
Y57510D02*
Y64510D01*
Y57010D02*
Y57310D01*
Y55910D02*
Y56110D01*
X26479Y64610D02*
Y64910D01*
Y57510D02*
Y64410D01*
Y57010D02*
Y57310D01*
Y55810D02*
Y56110D01*
X26379Y64610D02*
Y64910D01*
Y57510D02*
Y64410D01*
Y57010D02*
Y57310D01*
Y55810D02*
Y56010D01*
X26279Y64610D02*
Y64910D01*
Y57010D02*
Y57310D01*
Y55810D02*
Y56010D01*
X26179Y64610D02*
Y64910D01*
Y57010D02*
Y57410D01*
Y55810D02*
Y56010D01*
X26079Y57010D02*
Y64910D01*
Y55810D02*
Y56010D01*
X25979Y61110D02*
Y64910D01*
Y57110D02*
Y60910D01*
Y55810D02*
Y56010D01*
X25879Y61210D02*
Y64910D01*
Y57110D02*
Y61110D01*
Y55910D02*
Y56110D01*
X25779Y61110D02*
Y64810D01*
Y60910D02*
Y61010D01*
Y57110D02*
Y60810D01*
Y55910D02*
Y56110D01*
X25679Y57210D02*
Y64710D01*
Y56010D02*
Y56110D01*
X25579Y57410D02*
Y64610D01*
Y56010D02*
Y56110D01*
X25479D02*
Y56210D01*
X25379Y56110D02*
Y56210D01*
X25279Y56110D02*
Y56310D01*
X25179Y56210D02*
Y56410D01*
X25079Y56310D02*
Y56610D01*
X24979Y56410D02*
Y56810D01*
X24879Y56510D02*
Y56910D01*
X24779Y58110D02*
Y59210D01*
Y57410D02*
Y57610D01*
Y56810D02*
Y57210D01*
X24679Y62010D02*
Y62110D01*
Y59710D02*
Y59810D01*
Y58910D02*
Y59510D01*
Y57110D02*
Y58810D01*
X24579Y61910D02*
Y62210D01*
Y59310D02*
Y59810D01*
Y57810D02*
Y58810D01*
X24479Y61810D02*
Y62210D01*
Y59510D02*
Y59910D01*
Y58810D02*
Y59010D01*
Y58210D02*
Y58310D01*
X24379Y61710D02*
Y62210D01*
Y59510D02*
Y60010D01*
Y58810D02*
Y59010D01*
Y58210D02*
Y58410D01*
X24279Y61710D02*
Y62110D01*
Y59610D02*
Y60110D01*
Y58910D02*
Y59110D01*
Y58210D02*
Y58410D01*
X24179Y61610D02*
Y62010D01*
Y59710D02*
Y60210D01*
Y58910D02*
Y59110D01*
Y58210D02*
Y58410D01*
Y57610D02*
Y57710D01*
X24079Y62510D02*
Y62610D01*
Y61410D02*
Y61710D01*
Y60110D02*
Y60310D01*
Y59810D02*
Y60010D01*
Y59110D02*
Y59310D01*
Y57710D02*
Y58310D01*
Y57410D02*
Y57610D01*
X23979Y62410D02*
Y62710D01*
Y61410D02*
Y61810D01*
Y60010D02*
Y60410D01*
Y59110D02*
Y59310D01*
Y57410D02*
Y57510D01*
X23879Y62310D02*
Y62710D01*
Y61310D02*
Y61710D01*
Y60110D02*
Y60510D01*
Y59010D02*
Y59410D01*
Y57410D02*
Y57610D01*
X23779Y62210D02*
Y62610D01*
Y60210D02*
Y61510D01*
Y59110D02*
Y59510D01*
Y57410D02*
Y57610D01*
X23679Y62210D02*
Y62610D01*
Y60210D02*
Y61510D01*
Y59210D02*
Y59610D01*
Y57410D02*
Y57710D01*
X23579Y62210D02*
Y62510D01*
Y62010D02*
Y62110D01*
Y60310D02*
Y61510D01*
Y59310D02*
Y59510D01*
Y57410D02*
Y57710D01*
X23479Y63010D02*
Y63210D01*
Y62310D02*
Y62410D01*
Y62010D02*
Y62210D01*
Y60210D02*
Y61510D01*
Y59610D02*
Y59810D01*
Y59310D02*
Y59510D01*
Y58610D02*
Y58710D01*
Y57510D02*
Y57710D01*
X23379Y62910D02*
Y63210D01*
Y61810D02*
Y62210D01*
Y60110D02*
Y61710D01*
Y59510D02*
Y59910D01*
Y58510D02*
Y58910D01*
Y57510D02*
Y57710D01*
X23279Y62810D02*
Y63210D01*
Y59510D02*
Y62210D01*
Y58510D02*
Y58910D01*
Y57510D02*
Y57710D01*
X23179Y62710D02*
Y63110D01*
Y59610D02*
Y62110D01*
Y58610D02*
Y59010D01*
Y57610D02*
Y57810D01*
X23079Y62810D02*
Y62910D01*
Y59810D02*
Y62010D01*
Y58710D02*
Y59110D01*
Y57710D02*
Y58010D01*
X22979Y63610D02*
Y63710D01*
Y62610D02*
Y62710D01*
Y59710D02*
Y62110D01*
Y59110D02*
Y59210D01*
Y58810D02*
Y59010D01*
Y57810D02*
Y58210D01*
X22879Y63510D02*
Y63810D01*
Y62510D02*
Y62810D01*
Y59610D02*
Y62210D01*
Y59010D02*
Y59310D01*
Y58810D02*
Y58910D01*
Y57910D02*
Y58210D01*
X22779Y63410D02*
Y63910D01*
Y62410D02*
Y62910D01*
Y59510D02*
Y62210D01*
Y58910D02*
Y59410D01*
Y58010D02*
Y58310D01*
X22679Y71410D02*
Y71910D01*
Y69610D02*
Y70210D01*
Y68110D02*
Y68610D01*
Y63210D02*
Y63610D01*
Y59110D02*
Y62610D01*
Y58110D02*
Y58510D01*
X22579Y71310D02*
Y72010D01*
Y69510D02*
Y70310D01*
Y68010D02*
Y68710D01*
Y63210D02*
Y63610D01*
Y59210D02*
Y62610D01*
Y58110D02*
Y58510D01*
X22479Y71310D02*
Y72110D01*
Y69410D02*
Y70410D01*
Y68010D02*
Y68710D01*
Y63110D02*
Y63610D01*
Y59210D02*
Y62610D01*
Y58210D02*
Y58510D01*
Y53510D02*
Y54410D01*
X22379Y71710D02*
Y72110D01*
Y71210D02*
Y71610D01*
Y70010D02*
Y70410D01*
Y69410D02*
Y69710D01*
Y68510D02*
Y68810D01*
Y67910D02*
Y68310D01*
Y64010D02*
Y64310D01*
Y62910D02*
Y63310D01*
Y59110D02*
Y62710D01*
Y58310D02*
Y58810D01*
Y57610D02*
Y57710D01*
Y52710D02*
Y54710D01*
X22279Y71810D02*
Y72110D01*
Y71210D02*
Y71510D01*
Y70010D02*
Y70410D01*
Y69410D02*
Y69710D01*
Y68510D02*
Y68810D01*
Y67910D02*
Y68210D01*
Y63910D02*
Y64310D01*
Y62910D02*
Y63310D01*
Y59110D02*
Y62710D01*
Y58510D02*
Y58810D01*
Y57510D02*
Y57810D01*
Y52410D02*
Y54910D01*
X22179Y71810D02*
Y72110D01*
Y71210D02*
Y71410D01*
Y70010D02*
Y70410D01*
Y69410D02*
Y69710D01*
Y68510D02*
Y68810D01*
Y67910D02*
Y68210D01*
Y63910D02*
Y64310D01*
Y59010D02*
Y63210D01*
Y58510D02*
Y58910D01*
Y57410D02*
Y57810D01*
Y53510D02*
Y55010D01*
Y52110D02*
Y53410D01*
X22079Y71810D02*
Y72110D01*
Y71210D02*
Y71410D01*
Y70010D02*
Y70410D01*
Y69410D02*
Y69710D01*
Y68510D02*
Y68810D01*
Y67910D02*
Y68210D01*
Y63810D02*
Y64210D01*
Y58610D02*
Y63210D01*
Y57510D02*
Y58010D01*
Y53010D02*
Y55110D01*
Y51610D02*
Y52910D01*
X21979Y71710D02*
Y72110D01*
Y71210D02*
Y71610D01*
Y69410D02*
Y70410D01*
Y68410D02*
Y68810D01*
Y67910D02*
Y68310D01*
Y63810D02*
Y64010D01*
Y63610D02*
Y63710D01*
Y58810D02*
Y63110D01*
Y57710D02*
Y58110D01*
Y53010D02*
Y55210D01*
Y52510D02*
Y52810D01*
Y50910D02*
Y52210D01*
X21879Y71210D02*
Y72110D01*
Y69510D02*
Y70310D01*
Y68010D02*
Y68810D01*
Y64610D02*
Y64710D01*
Y63610D02*
Y63810D01*
Y58710D02*
Y63210D01*
Y58110D02*
Y58210D01*
Y57810D02*
Y58010D01*
Y54110D02*
Y55310D01*
Y53710D02*
Y54010D01*
Y52410D02*
Y53510D01*
Y50510D02*
Y51810D01*
X21779Y71310D02*
Y72110D01*
Y69610D02*
Y70210D01*
Y68010D02*
Y68710D01*
Y66510D02*
Y66610D01*
Y64610D02*
Y64810D01*
Y63610D02*
Y63910D01*
Y58610D02*
Y63210D01*
Y58010D02*
Y58310D01*
Y57810D02*
Y57910D01*
Y57110D02*
Y57210D01*
Y54310D02*
Y55410D01*
Y53710D02*
Y54010D01*
Y52410D02*
Y53310D01*
Y50210D02*
Y51510D01*
X21679Y71410D02*
Y71910D01*
Y69710D02*
Y70010D01*
Y68210D02*
Y68610D01*
Y66210D02*
Y66910D01*
Y64410D02*
Y64810D01*
Y58510D02*
Y63810D01*
Y58010D02*
Y58410D01*
Y57010D02*
Y57310D01*
Y54610D02*
Y55410D01*
Y53710D02*
Y54010D01*
Y52510D02*
Y53010D01*
Y49410D02*
Y50810D01*
X21579Y71610D02*
Y71810D01*
Y69710D02*
Y69910D01*
Y68210D02*
Y68510D01*
Y66110D02*
Y66910D01*
Y64310D02*
Y64810D01*
Y58010D02*
Y63710D01*
Y57010D02*
Y57410D01*
Y54710D02*
Y55410D01*
Y53710D02*
Y54010D01*
Y52510D02*
Y53010D01*
Y49110D02*
Y50410D01*
X21479Y71610D02*
Y71810D01*
Y69710D02*
Y69910D01*
Y68210D02*
Y68510D01*
Y66610D02*
Y67010D01*
Y66010D02*
Y66410D01*
Y64310D02*
Y64710D01*
Y58110D02*
Y63610D01*
Y57110D02*
Y57410D01*
Y54710D02*
Y55510D01*
Y53610D02*
Y54010D01*
Y52510D02*
Y52910D01*
Y48710D02*
Y50010D01*
X21379Y71610D02*
Y71810D01*
Y69710D02*
Y69910D01*
Y68210D02*
Y68510D01*
Y66610D02*
Y67010D01*
Y66010D02*
Y66310D01*
Y64310D02*
Y64610D01*
Y58210D02*
Y63610D01*
Y57110D02*
Y57510D01*
Y54710D02*
Y55510D01*
Y53410D02*
Y54210D01*
Y52110D02*
Y52810D01*
Y51310D02*
Y51510D01*
Y50910D02*
Y51010D01*
Y50010D02*
Y50310D01*
Y48310D02*
Y49610D01*
X21279Y71610D02*
Y71810D01*
Y69710D02*
Y69910D01*
Y68210D02*
Y68510D01*
Y66610D02*
Y67010D01*
Y66010D02*
Y66210D01*
Y65110D02*
Y65310D01*
Y64010D02*
Y64310D01*
Y58110D02*
Y63710D01*
Y57510D02*
Y57710D01*
Y57310D02*
Y57410D01*
Y56510D02*
Y56710D01*
Y54610D02*
Y55610D01*
Y53210D02*
Y54410D01*
Y52010D02*
Y53010D01*
Y50710D02*
Y51710D01*
Y50310D02*
Y50410D01*
Y47510D02*
Y48910D01*
X21179Y71710D02*
Y72010D01*
Y69710D02*
Y69810D01*
Y68210D02*
Y68510D01*
Y66610D02*
Y67010D01*
Y65910D02*
Y66210D01*
Y65010D02*
Y65410D01*
Y63910D02*
Y64410D01*
Y58110D02*
Y63810D01*
Y57410D02*
Y57810D01*
Y56410D02*
Y56810D01*
Y52010D02*
Y55610D01*
Y50710D02*
Y51610D01*
Y50310D02*
Y50410D01*
Y47110D02*
Y48510D01*
X21079Y71710D02*
Y72310D01*
Y69710D02*
Y69810D01*
Y68210D02*
Y68510D01*
Y66610D02*
Y67010D01*
Y65910D02*
Y66110D01*
Y64910D02*
Y65410D01*
Y58010D02*
Y64310D01*
Y57410D02*
Y57810D01*
Y56410D02*
Y56810D01*
Y52110D02*
Y55710D01*
Y50710D02*
Y51710D01*
Y50310D02*
Y50510D01*
Y50010D02*
Y50110D01*
Y46810D02*
Y48110D01*
X20979Y76210D02*
Y76910D01*
Y72110D02*
Y72410D01*
Y69610D02*
Y69810D01*
Y68210D02*
Y68510D01*
Y66310D02*
Y67310D01*
Y65810D02*
Y66010D01*
Y64810D02*
Y65210D01*
Y57610D02*
Y64210D01*
Y56510D02*
Y56910D01*
Y55010D02*
Y55710D01*
Y54010D02*
Y54710D01*
Y52910D02*
Y53510D01*
Y52310D02*
Y52610D01*
Y51310D02*
Y52010D01*
Y50510D02*
Y51110D01*
Y50010D02*
Y50310D01*
Y46110D02*
Y47410D01*
X20879Y76110D02*
Y76910D01*
Y72310D02*
Y72510D01*
Y71910D02*
Y72010D01*
Y69610D02*
Y69710D01*
Y68210D02*
Y68510D01*
Y66210D02*
Y67310D01*
Y65810D02*
Y66010D01*
Y64810D02*
Y65110D01*
Y57710D02*
Y64110D01*
Y56610D02*
Y57010D01*
Y55110D02*
Y55710D01*
Y54110D02*
Y54710D01*
Y53010D02*
Y53410D01*
Y52310D02*
Y52610D01*
Y51510D02*
Y52010D01*
Y50410D02*
Y51010D01*
Y49910D02*
Y50010D01*
Y45710D02*
Y47110D01*
X20779Y76110D02*
Y76910D01*
Y73110D02*
Y75010D01*
Y72410D02*
Y72510D01*
Y71710D02*
Y72010D01*
Y69610D02*
Y69710D01*
Y68210D02*
Y68510D01*
Y67010D02*
Y67410D01*
Y66110D02*
Y66510D01*
Y65710D02*
Y66010D01*
Y64910D02*
Y65010D01*
Y64610D02*
Y64810D01*
Y57710D02*
Y64210D01*
Y56710D02*
Y57010D01*
Y55110D02*
Y55710D01*
Y54210D02*
Y54710D01*
Y53010D02*
Y53410D01*
Y52210D02*
Y52610D01*
Y51610D02*
Y52010D01*
Y50310D02*
Y50910D01*
Y49610D02*
Y50010D01*
Y45210D02*
Y46510D01*
X20679Y76610D02*
Y76910D01*
Y76010D02*
Y76410D01*
Y73110D02*
Y75010D01*
Y72410D02*
Y72610D01*
Y71610D02*
Y72010D01*
Y69510D02*
Y69710D01*
Y68210D02*
Y68510D01*
Y67210D02*
Y67510D01*
Y65610D02*
Y66310D01*
Y64610D02*
Y64910D01*
Y57610D02*
Y64310D01*
Y57010D02*
Y57210D01*
Y56810D02*
Y56910D01*
Y55110D02*
Y55710D01*
Y54310D02*
Y54710D01*
Y53010D02*
Y53410D01*
Y52010D02*
Y52510D01*
Y51610D02*
Y51910D01*
Y50310D02*
Y50910D01*
Y49610D02*
Y50110D01*
Y44810D02*
Y46210D01*
X20579Y76710D02*
Y77010D01*
Y75410D02*
Y76310D01*
Y74810D02*
Y75010D01*
Y73110D02*
Y73410D01*
Y72410D02*
Y72610D01*
Y71810D02*
Y72010D01*
Y71310D02*
Y71710D01*
Y69510D02*
Y69710D01*
Y68210D02*
Y68510D01*
Y67310D02*
Y67610D01*
Y66010D02*
Y66310D01*
Y65510D02*
Y65910D01*
Y64510D02*
Y64910D01*
Y56910D02*
Y64410D01*
Y55910D02*
Y56310D01*
Y55110D02*
Y55710D01*
Y54310D02*
Y54710D01*
Y53010D02*
Y53410D01*
Y52010D02*
Y52510D01*
Y51710D02*
Y51910D01*
Y50610D02*
Y50810D01*
Y50010D02*
Y50310D01*
Y49310D02*
Y49610D01*
Y44110D02*
Y45510D01*
X20479Y76710D02*
Y77010D01*
Y74810D02*
Y76310D01*
Y72410D02*
Y73410D01*
Y71810D02*
Y72010D01*
Y71110D02*
Y71510D01*
Y69510D02*
Y69710D01*
Y68210D02*
Y68510D01*
Y67310D02*
Y67610D01*
Y66010D02*
Y66210D01*
Y65410D02*
Y65810D01*
Y57010D02*
Y64810D01*
Y55910D02*
Y56310D01*
Y55110D02*
Y55710D01*
Y54310D02*
Y54710D01*
Y53010D02*
Y53410D01*
Y52010D02*
Y52510D01*
Y51710D02*
Y51910D01*
Y50610D02*
Y50810D01*
Y50010D02*
Y50310D01*
Y49310D02*
Y49610D01*
Y43910D02*
Y45110D01*
X20379Y76610D02*
Y77010D01*
Y76010D02*
Y76310D01*
Y74810D02*
Y75810D01*
Y72410D02*
Y73410D01*
Y71810D02*
Y72010D01*
Y71110D02*
Y71410D01*
Y69410D02*
Y69710D01*
Y68210D02*
Y68510D01*
Y67410D02*
Y67710D01*
Y66610D02*
Y66710D01*
Y65910D02*
Y66110D01*
Y65310D02*
Y65710D01*
Y57110D02*
Y64710D01*
Y56010D02*
Y56410D01*
Y55110D02*
Y55710D01*
Y54210D02*
Y54710D01*
Y53010D02*
Y53410D01*
Y51710D02*
Y52610D01*
Y50610D02*
Y50810D01*
Y50110D02*
Y50310D01*
Y49310D02*
Y49610D01*
Y43810D02*
Y44810D01*
X20279Y77910D02*
Y78910D01*
Y76110D02*
Y76910D01*
Y74810D02*
Y75010D01*
Y73110D02*
Y73410D01*
Y71810D02*
Y72510D01*
Y71510D02*
Y71610D01*
Y70710D02*
Y71110D01*
Y69410D02*
Y69710D01*
Y68210D02*
Y68510D01*
Y67410D02*
Y67710D01*
Y66610D02*
Y66910D01*
Y65910D02*
Y66110D01*
Y65410D02*
Y65610D01*
Y65210D02*
Y65310D01*
Y57110D02*
Y64710D01*
Y56110D02*
Y56510D01*
Y55110D02*
Y55710D01*
Y54110D02*
Y54710D01*
Y52910D02*
Y53410D01*
Y52310D02*
Y52610D01*
Y51610D02*
Y52010D01*
Y50410D02*
Y50910D01*
Y50010D02*
Y50310D01*
Y49410D02*
Y49610D01*
Y44510D02*
Y44910D01*
Y44210D02*
Y44310D01*
Y43710D02*
Y44110D01*
X20179Y77910D02*
Y78910D01*
Y76210D02*
Y76910D01*
Y74810D02*
Y75010D01*
Y73110D02*
Y73410D01*
Y71810D02*
Y72410D01*
Y71410D02*
Y71710D01*
Y70610D02*
Y71010D01*
Y69410D02*
Y69710D01*
Y68210D02*
Y68510D01*
Y67510D02*
Y67710D01*
Y66610D02*
Y67010D01*
Y65910D02*
Y66010D01*
Y65110D02*
Y65410D01*
Y57110D02*
Y64810D01*
Y56210D02*
Y56710D01*
Y55010D02*
Y55710D01*
Y54010D02*
Y54710D01*
Y52810D02*
Y53610D01*
Y52310D02*
Y52610D01*
Y51510D02*
Y52010D01*
Y50410D02*
Y51010D01*
Y50010D02*
Y50310D01*
Y49310D02*
Y49610D01*
Y44610D02*
Y44810D01*
Y44210D02*
Y44310D01*
Y43610D02*
Y43910D01*
Y42110D02*
Y43510D01*
X20079Y77910D02*
Y78910D01*
Y76210D02*
Y76810D01*
Y74810D02*
Y75010D01*
Y73110D02*
Y73410D01*
Y71810D02*
Y72310D01*
Y71510D02*
Y71610D01*
Y70410D02*
Y70810D01*
Y69410D02*
Y69710D01*
Y68210D02*
Y68510D01*
Y67510D02*
Y67710D01*
Y66610D02*
Y67010D01*
Y65910D02*
Y66010D01*
Y65010D02*
Y65410D01*
Y57110D02*
Y64810D01*
Y56310D02*
Y56810D01*
Y55010D02*
Y55710D01*
Y52210D02*
Y54910D01*
Y51310D02*
Y51810D01*
Y50510D02*
Y51210D01*
Y49310D02*
Y50210D01*
Y44710D02*
Y45010D01*
Y44210D02*
Y44510D01*
Y42110D02*
Y43810D01*
X19979Y77910D02*
Y78910D01*
Y76310D02*
Y76610D01*
Y74810D02*
Y75110D01*
Y73010D02*
Y73410D01*
Y71810D02*
Y72010D01*
Y70410D02*
Y70710D01*
Y69410D02*
Y69710D01*
Y68210D02*
Y68510D01*
Y67510D02*
Y67710D01*
Y66610D02*
Y66910D01*
Y65910D02*
Y66010D01*
Y57010D02*
Y65410D01*
Y56410D02*
Y56810D01*
Y52110D02*
Y55610D01*
Y50710D02*
Y51710D01*
Y49610D02*
Y50110D01*
Y42110D02*
Y45010D01*
Y41710D02*
Y41810D01*
X19879Y78610D02*
Y78910D01*
Y77910D02*
Y78210D01*
Y74810D02*
Y75010D01*
Y73110D02*
Y73410D01*
Y71810D02*
Y72010D01*
Y70010D02*
Y70410D01*
Y69510D02*
Y69710D01*
Y68210D02*
Y68510D01*
Y67510D02*
Y67710D01*
Y66610D02*
Y67010D01*
Y65910D02*
Y66010D01*
Y56410D02*
Y65310D01*
Y54710D02*
Y55610D01*
Y53210D02*
Y54410D01*
Y52110D02*
Y53010D01*
Y50910D02*
Y51710D01*
Y49610D02*
Y49810D01*
Y44810D02*
Y44910D01*
Y44410D02*
Y44610D01*
Y43910D02*
Y44210D01*
Y43510D02*
Y43810D01*
Y42110D02*
Y43210D01*
Y41410D02*
Y41810D01*
X19779Y78610D02*
Y78910D01*
Y77910D02*
Y78210D01*
Y74810D02*
Y75010D01*
Y73110D02*
Y73410D01*
Y71810D02*
Y72010D01*
Y69610D02*
Y70410D01*
Y68210D02*
Y68510D01*
Y67510D02*
Y67710D01*
Y66610D02*
Y67010D01*
Y65910D02*
Y66010D01*
Y64510D02*
Y65210D01*
Y63610D02*
Y63910D01*
Y62710D02*
Y63410D01*
Y62510D02*
Y62610D01*
Y61510D02*
Y61610D01*
Y60510D02*
Y61310D01*
Y59610D02*
Y60310D01*
Y59110D02*
Y59410D01*
Y58110D02*
Y58510D01*
Y56610D02*
Y57210D01*
Y54710D02*
Y55510D01*
Y53410D02*
Y54310D01*
Y52110D02*
Y52810D01*
Y51410D02*
Y51710D01*
Y50810D02*
Y51210D01*
Y44810D02*
Y45110D01*
Y44510D02*
Y44610D01*
Y43910D02*
Y44110D01*
Y43510D02*
Y43810D01*
Y42110D02*
Y43210D01*
Y41310D02*
Y41810D01*
X19679Y78610D02*
Y78910D01*
Y77910D02*
Y78210D01*
Y74810D02*
Y75010D01*
Y73110D02*
Y73410D01*
Y71810D02*
Y72010D01*
Y69710D02*
Y70410D01*
Y68210D02*
Y68510D01*
Y67510D02*
Y67710D01*
Y66610D02*
Y67010D01*
Y65910D02*
Y66010D01*
Y64610D02*
Y65110D01*
Y63610D02*
Y63910D01*
Y62710D02*
Y63310D01*
Y62510D02*
Y62610D01*
Y61510D02*
Y61610D01*
Y60510D02*
Y61210D01*
Y59610D02*
Y60410D01*
Y59210D02*
Y59410D01*
Y58110D02*
Y58410D01*
Y56710D02*
Y57210D01*
Y54710D02*
Y55510D01*
Y53410D02*
Y54210D01*
Y52110D02*
Y52810D01*
Y51410D02*
Y51710D01*
Y50910D02*
Y51210D01*
Y44810D02*
Y45110D01*
Y44510D02*
Y44610D01*
Y43910D02*
Y44110D01*
Y43510D02*
Y43710D01*
Y42110D02*
Y43210D01*
Y41210D02*
Y41910D01*
X19579Y78610D02*
Y78910D01*
Y77910D02*
Y78210D01*
Y74810D02*
Y75110D01*
Y73010D02*
Y73410D01*
Y71810D02*
Y72010D01*
Y70210D02*
Y70610D01*
Y67810D02*
Y68910D01*
Y67410D02*
Y67710D01*
Y65910D02*
Y66010D01*
Y64810D02*
Y65110D01*
Y63910D02*
Y64510D01*
Y63410D02*
Y63710D01*
Y62710D02*
Y63210D01*
Y61810D02*
Y62610D01*
Y61410D02*
Y61610D01*
Y60710D02*
Y60810D01*
Y59610D02*
Y60510D01*
Y59210D02*
Y59410D01*
Y58510D02*
Y59110D01*
Y58210D02*
Y58310D01*
Y56710D02*
Y58010D01*
Y54710D02*
Y55410D01*
Y53710D02*
Y54010D01*
Y52510D02*
Y53010D01*
Y44810D02*
Y44910D01*
Y44410D02*
Y44610D01*
Y43910D02*
Y44210D01*
Y43510D02*
Y43810D01*
Y42310D02*
Y43310D01*
Y40910D02*
Y42010D01*
X19479Y77910D02*
Y78910D01*
Y76910D02*
Y77210D01*
Y74810D02*
Y75210D01*
Y73010D02*
Y73410D01*
Y71810D02*
Y72010D01*
Y70410D02*
Y70710D01*
Y67810D02*
Y68910D01*
Y67410D02*
Y67710D01*
Y66310D02*
Y67310D01*
Y65910D02*
Y66110D01*
Y64810D02*
Y65110D01*
Y63910D02*
Y64610D01*
Y63510D02*
Y63710D01*
Y62710D02*
Y62910D01*
Y61810D02*
Y62610D01*
Y61310D02*
Y61610D01*
Y60710D02*
Y60810D01*
Y60310D02*
Y60510D01*
Y59610D02*
Y59710D01*
Y59310D02*
Y59410D01*
Y58510D02*
Y59110D01*
Y58110D02*
Y58310D01*
Y56710D02*
Y58010D01*
Y54510D02*
Y55410D01*
Y53710D02*
Y54010D01*
Y52510D02*
Y53010D01*
Y43510D02*
Y45010D01*
Y42410D02*
Y43310D01*
Y40810D02*
Y42010D01*
X19379Y77910D02*
Y78910D01*
Y76910D02*
Y77210D01*
Y76610D02*
Y76710D01*
Y74810D02*
Y75010D01*
Y73110D02*
Y73410D01*
Y71810D02*
Y72510D01*
Y70510D02*
Y70910D01*
Y67410D02*
Y67710D01*
Y66310D02*
Y67310D01*
Y65910D02*
Y66110D01*
Y64810D02*
Y65110D01*
Y63910D02*
Y64610D01*
Y62710D02*
Y63210D01*
Y62410D02*
Y62610D01*
Y61810D02*
Y61910D01*
Y61310D02*
Y61610D01*
Y60810D02*
Y61110D01*
Y60410D02*
Y60510D01*
Y59610D02*
Y59710D01*
Y59310D02*
Y59410D01*
Y58510D02*
Y59110D01*
Y58110D02*
Y58310D01*
Y56710D02*
Y57410D01*
Y54410D02*
Y55410D01*
Y53710D02*
Y54010D01*
Y52410D02*
Y53210D01*
Y44710D02*
Y45010D01*
Y44110D02*
Y44510D01*
Y43510D02*
Y43810D01*
Y42410D02*
Y43310D01*
Y40610D02*
Y42010D01*
X19279Y77910D02*
Y78910D01*
Y76610D02*
Y77210D01*
Y74810D02*
Y75010D01*
Y73110D02*
Y73410D01*
Y71810D02*
Y72510D01*
Y71410D02*
Y71710D01*
Y70710D02*
Y71010D01*
Y66310D02*
Y67310D01*
Y66010D02*
Y66110D01*
Y64810D02*
Y65110D01*
Y63910D02*
Y64610D01*
Y62710D02*
Y63310D01*
Y62410D02*
Y62610D01*
Y61810D02*
Y61910D01*
Y61210D02*
Y61610D01*
Y60810D02*
Y61110D01*
Y60410D02*
Y60510D01*
Y59610D02*
Y60210D01*
Y59310D02*
Y59410D01*
Y58510D02*
Y59110D01*
Y58110D02*
Y58310D01*
Y56710D02*
Y57210D01*
Y54310D02*
Y55310D01*
Y53710D02*
Y54010D01*
Y52410D02*
Y53410D01*
Y44610D02*
Y44810D01*
Y44210D02*
Y44310D01*
Y43610D02*
Y43910D01*
Y42410D02*
Y43410D01*
Y40410D02*
Y42010D01*
X19179Y77810D02*
Y77910D01*
Y76610D02*
Y77210D01*
Y74810D02*
Y75010D01*
Y73110D02*
Y73410D01*
Y72310D02*
Y72510D01*
Y71810D02*
Y72010D01*
Y70910D02*
Y71310D01*
Y67010D02*
Y67310D01*
Y66310D02*
Y66510D01*
Y64810D02*
Y65110D01*
Y63910D02*
Y64610D01*
Y63610D02*
Y63710D01*
Y62710D02*
Y63410D01*
Y61810D02*
Y62610D01*
Y61210D02*
Y61610D01*
Y60810D02*
Y60910D01*
Y60410D02*
Y60710D01*
Y59610D02*
Y60210D01*
Y59310D02*
Y59410D01*
Y58510D02*
Y59110D01*
Y57410D02*
Y58310D01*
Y56710D02*
Y57110D01*
Y53010D02*
Y55210D01*
Y52510D02*
Y52710D01*
Y43710D02*
Y44810D01*
Y42510D02*
Y43410D01*
Y40410D02*
Y42010D01*
X19079Y74810D02*
Y77910D01*
Y73010D02*
Y73410D01*
Y72310D02*
Y72510D01*
Y71810D02*
Y72010D01*
Y71010D02*
Y71410D01*
Y67810D02*
Y68910D01*
Y67010D02*
Y67310D01*
Y66310D02*
Y66510D01*
Y64810D02*
Y65110D01*
Y63910D02*
Y64510D01*
Y63610D02*
Y63710D01*
Y62710D02*
Y63310D01*
Y61810D02*
Y62610D01*
Y61110D02*
Y61610D01*
Y60410D02*
Y60710D01*
Y59610D02*
Y60210D01*
Y59310D02*
Y59410D01*
Y58510D02*
Y59110D01*
Y57410D02*
Y58310D01*
Y56710D02*
Y57110D01*
Y53010D02*
Y55110D01*
Y52610D02*
Y52710D01*
Y43810D02*
Y46510D01*
Y42510D02*
Y43410D01*
Y40410D02*
Y42010D01*
X18979Y74810D02*
Y78010D01*
Y73010D02*
Y73410D01*
Y72310D02*
Y72510D01*
Y71810D02*
Y72010D01*
Y71110D02*
Y71510D01*
Y67810D02*
Y68910D01*
Y67010D02*
Y67310D01*
Y66310D02*
Y66510D01*
Y64710D02*
Y65110D01*
Y63610D02*
Y63810D01*
Y62410D02*
Y62610D01*
Y61110D02*
Y61610D01*
Y60410D02*
Y60810D01*
Y59310D02*
Y59410D01*
Y58510D02*
Y59110D01*
Y58110D02*
Y58310D01*
Y56710D02*
Y57210D01*
Y53010D02*
Y55010D01*
Y43510D02*
Y49110D01*
Y42510D02*
Y43410D01*
Y40410D02*
Y42110D01*
X18879Y80310D02*
Y80610D01*
Y77810D02*
Y78210D01*
Y76210D02*
Y77210D01*
Y74810D02*
Y75010D01*
Y73010D02*
Y73410D01*
Y72310D02*
Y72510D01*
Y71810D02*
Y72010D01*
Y71310D02*
Y71610D01*
Y67810D02*
Y68910D01*
Y67010D02*
Y67310D01*
Y66310D02*
Y66510D01*
Y64610D02*
Y65210D01*
Y63510D02*
Y63910D01*
Y62510D02*
Y62610D01*
Y61110D02*
Y61610D01*
Y60310D02*
Y60810D01*
Y59310D02*
Y59410D01*
Y58510D02*
Y59110D01*
Y58110D02*
Y58310D01*
Y56710D02*
Y57210D01*
Y53010D02*
Y54910D01*
Y44010D02*
Y51410D01*
Y43510D02*
Y43810D01*
Y42510D02*
Y43410D01*
Y40510D02*
Y42110D01*
X18779Y80010D02*
Y80910D01*
Y78110D02*
Y78310D01*
Y76910D02*
Y77210D01*
Y76610D02*
Y76810D01*
Y74810D02*
Y75010D01*
Y73110D02*
Y73410D01*
Y72310D02*
Y72510D01*
Y71610D02*
Y72010D01*
Y68210D02*
Y68510D01*
Y67010D02*
Y67310D01*
Y66310D02*
Y66510D01*
Y56510D02*
Y65310D01*
Y48610D02*
Y54610D01*
Y42510D02*
Y43910D01*
Y41510D02*
Y42110D01*
Y40410D02*
Y41210D01*
Y40110D02*
Y40310D01*
X18679Y80010D02*
Y80910D01*
Y78210D02*
Y78410D01*
Y76910D02*
Y77210D01*
Y76610D02*
Y76710D01*
Y74810D02*
Y75010D01*
Y73110D02*
Y73410D01*
Y72310D02*
Y72510D01*
Y71710D02*
Y72010D01*
Y68210D02*
Y68510D01*
Y67010D02*
Y67310D01*
Y66310D02*
Y66510D01*
Y65010D02*
Y65410D01*
Y56410D02*
Y64910D01*
Y51210D02*
Y54410D01*
Y43610D02*
Y43910D01*
Y42510D02*
Y43510D01*
Y41610D02*
Y42210D01*
Y40110D02*
Y41210D01*
X18579Y80610D02*
Y80910D01*
Y80010D02*
Y80310D01*
Y78210D02*
Y78510D01*
Y74810D02*
Y75110D01*
Y73010D02*
Y73410D01*
Y72310D02*
Y72510D01*
Y71810D02*
Y72010D01*
Y68210D02*
Y68510D01*
Y65110D02*
Y65410D01*
Y57010D02*
Y64810D01*
Y56410D02*
Y56810D01*
Y53710D02*
Y54110D01*
Y43610D02*
Y44010D01*
Y42510D02*
Y43510D01*
Y41610D02*
Y42210D01*
Y40110D02*
Y41210D01*
Y39810D02*
Y40010D01*
X18479Y80610D02*
Y80910D01*
Y79710D02*
Y80310D01*
Y78310D02*
Y78610D01*
Y74810D02*
Y75010D01*
Y73110D02*
Y73410D01*
Y72310D02*
Y72510D01*
Y68210D02*
Y68510D01*
Y66110D02*
Y67610D01*
Y65410D02*
Y65610D01*
Y65210D02*
Y65310D01*
Y57110D02*
Y64710D01*
Y56310D02*
Y56710D01*
Y47310D02*
Y47710D01*
Y43710D02*
Y44010D01*
Y42610D02*
Y43510D01*
Y41810D02*
Y42310D01*
Y39810D02*
Y41310D01*
Y39610D02*
Y39710D01*
X18379Y80610D02*
Y80910D01*
Y79610D02*
Y80310D01*
Y78410D02*
Y78610D01*
Y74810D02*
Y75010D01*
Y73110D02*
Y73410D01*
Y72310D02*
Y72510D01*
Y68210D02*
Y68510D01*
Y66110D02*
Y67610D01*
Y65310D02*
Y65710D01*
Y57110D02*
Y64610D01*
Y56510D02*
Y56610D01*
Y56210D02*
Y56410D01*
Y47310D02*
Y47710D01*
Y47010D02*
Y47110D01*
Y46410D02*
Y46910D01*
Y42610D02*
Y43510D01*
Y41810D02*
Y42410D01*
Y39910D02*
Y41410D01*
Y39610D02*
Y39810D01*
X18279Y80610D02*
Y80910D01*
Y80010D02*
Y80310D01*
Y79510D02*
Y79810D01*
Y78410D02*
Y78610D01*
Y74810D02*
Y75010D01*
Y73110D02*
Y73410D01*
Y72310D02*
Y72510D01*
Y68210D02*
Y68510D01*
Y66110D02*
Y67610D01*
Y65410D02*
Y65710D01*
Y57210D02*
Y64710D01*
Y56110D02*
Y56510D01*
Y46410D02*
Y47710D01*
Y42610D02*
Y43610D01*
Y41810D02*
Y42410D01*
Y39910D02*
Y41410D01*
Y39610D02*
Y39810D01*
X18179Y80510D02*
Y80910D01*
Y80010D02*
Y80410D01*
Y79410D02*
Y79610D01*
Y78510D02*
Y78610D01*
Y74810D02*
Y75010D01*
Y73110D02*
Y73410D01*
Y71710D02*
Y72510D01*
Y71110D02*
Y71310D01*
Y70410D02*
Y70610D01*
Y69710D02*
Y69910D01*
Y69010D02*
Y69310D01*
Y65510D02*
Y68610D01*
Y57110D02*
Y64810D01*
Y56110D02*
Y56410D01*
Y50410D02*
Y55510D01*
Y48710D02*
Y48910D01*
Y46410D02*
Y47710D01*
Y42710D02*
Y45510D01*
Y41810D02*
Y42510D01*
Y39710D02*
Y41410D01*
Y39410D02*
Y39510D01*
X18079Y80110D02*
Y80910D01*
Y79410D02*
Y79610D01*
Y78510D02*
Y78610D01*
Y74810D02*
Y76710D01*
Y73010D02*
Y73410D01*
Y71710D02*
Y72510D01*
Y71110D02*
Y71310D01*
Y70410D02*
Y70710D01*
Y69710D02*
Y70010D01*
Y69010D02*
Y69310D01*
Y65610D02*
Y68610D01*
Y64510D02*
Y64910D01*
Y56910D02*
Y64310D01*
Y55910D02*
Y56310D01*
Y50410D02*
Y55510D01*
Y48910D02*
Y49010D01*
Y48510D02*
Y48810D01*
Y46310D02*
Y47610D01*
Y42710D02*
Y45610D01*
Y41810D02*
Y42510D01*
Y39410D02*
Y41510D01*
Y39110D02*
Y39210D01*
X17979Y80210D02*
Y80810D01*
Y79410D02*
Y79610D01*
Y78510D02*
Y78610D01*
Y75810D02*
Y76710D01*
Y74810D02*
Y75010D01*
Y73110D02*
Y73410D01*
Y71710D02*
Y72510D01*
Y71110D02*
Y71310D01*
Y70410D02*
Y70710D01*
Y69710D02*
Y70010D01*
Y69010D02*
Y69310D01*
Y65610D02*
Y68610D01*
Y64610D02*
Y65110D01*
Y57510D02*
Y64310D01*
Y57010D02*
Y57310D01*
Y56010D02*
Y56210D01*
Y50410D02*
Y55510D01*
Y48910D02*
Y49010D01*
Y48410D02*
Y48710D01*
Y46910D02*
Y47610D01*
Y46710D02*
Y46810D01*
Y46310D02*
Y46610D01*
Y42810D02*
Y45610D01*
Y41710D02*
Y42510D01*
Y39410D02*
Y41510D01*
Y39110D02*
Y39310D01*
X17879Y80310D02*
Y80610D01*
Y79410D02*
Y79610D01*
Y78510D02*
Y78610D01*
Y76510D02*
Y76710D01*
Y74810D02*
Y75010D01*
Y73110D02*
Y73410D01*
Y71710D02*
Y72010D01*
Y71110D02*
Y71310D01*
Y70410D02*
Y70710D01*
Y69710D02*
Y70010D01*
Y69010D02*
Y69310D01*
Y68310D02*
Y68610D01*
Y66110D02*
Y67610D01*
Y64910D02*
Y65110D01*
Y64610D02*
Y64810D01*
Y57610D02*
Y64210D01*
Y57110D02*
Y57210D01*
Y56810D02*
Y56910D01*
Y50410D02*
Y55510D01*
Y48810D02*
Y49010D01*
Y48310D02*
Y48710D01*
Y47310D02*
Y47610D01*
Y46710D02*
Y46810D01*
Y46510D02*
Y46610D01*
Y42810D02*
Y45610D01*
Y39110D02*
Y42510D01*
X17779Y80410D02*
Y80610D01*
Y79410D02*
Y79610D01*
Y78510D02*
Y78610D01*
Y76510D02*
Y76710D01*
Y74810D02*
Y75010D01*
Y74410D02*
Y74710D01*
Y73110D02*
Y73410D01*
Y71710D02*
Y71910D01*
Y71010D02*
Y71410D01*
Y70410D02*
Y70710D01*
Y69710D02*
Y70010D01*
Y69010D02*
Y69410D01*
Y68410D02*
Y68710D01*
Y66110D02*
Y67610D01*
Y64810D02*
Y65310D01*
Y57710D02*
Y64210D01*
Y56710D02*
Y57110D01*
Y52610D02*
Y56410D01*
Y50410D02*
Y51210D01*
Y48710D02*
Y49010D01*
Y48210D02*
Y48610D01*
Y47310D02*
Y47610D01*
Y45710D02*
Y46510D01*
Y42810D02*
Y45610D01*
Y38810D02*
Y42510D01*
X17679Y80310D02*
Y80610D01*
Y79410D02*
Y79710D01*
Y78410D02*
Y78710D01*
Y76510D02*
Y76710D01*
Y74810D02*
Y75210D01*
Y74410D02*
Y74710D01*
Y73010D02*
Y73410D01*
Y71610D02*
Y71910D01*
Y71010D02*
Y71410D01*
Y70310D02*
Y70710D01*
Y69610D02*
Y70010D01*
Y69010D02*
Y69410D01*
Y68410D02*
Y68710D01*
Y64910D02*
Y65310D01*
Y57710D02*
Y64310D01*
Y56610D02*
Y57110D01*
Y52610D02*
Y56410D01*
Y50410D02*
Y51210D01*
Y50010D02*
Y50310D01*
Y49310D02*
Y49610D01*
Y48710D02*
Y49010D01*
Y48210D02*
Y48510D01*
Y45710D02*
Y46510D01*
Y42810D02*
Y45610D01*
Y38810D02*
Y42610D01*
X17579Y82510D02*
Y82910D01*
Y80310D02*
Y80710D01*
Y79310D02*
Y79710D01*
Y78310D02*
Y78810D01*
Y76510D02*
Y76710D01*
Y74810D02*
Y75210D01*
Y74510D02*
Y74710D01*
Y73010D02*
Y73410D01*
Y71610D02*
Y71910D01*
Y70910D02*
Y71410D01*
Y70310D02*
Y70710D01*
Y69610D02*
Y70010D01*
Y68910D02*
Y69410D01*
Y68410D02*
Y68710D01*
Y64910D02*
Y65410D01*
Y57510D02*
Y64310D01*
Y56510D02*
Y57010D01*
Y52610D02*
Y56410D01*
Y50410D02*
Y51210D01*
Y50010D02*
Y50310D01*
Y49310D02*
Y49710D01*
Y48710D02*
Y49010D01*
Y48110D02*
Y48510D01*
Y45710D02*
Y46510D01*
Y42810D02*
Y45610D01*
Y38910D02*
Y42510D01*
Y38610D02*
Y38710D01*
X17479Y82410D02*
Y83010D01*
Y80610D02*
Y80710D01*
Y80310D02*
Y80410D01*
Y79610D02*
Y79810D01*
Y79210D02*
Y79410D01*
Y78610D02*
Y78810D01*
Y78210D02*
Y78510D01*
Y76510D02*
Y76710D01*
Y74810D02*
Y75010D01*
Y73110D02*
Y73410D01*
Y71210D02*
Y71810D01*
Y68510D02*
Y71110D01*
Y65110D02*
Y65410D01*
Y64010D02*
Y64410D01*
Y58010D02*
Y63810D01*
Y57410D02*
Y57910D01*
Y52610D02*
Y56810D01*
Y50410D02*
Y51210D01*
Y50010D02*
Y50310D01*
Y49410D02*
Y49610D01*
Y48610D02*
Y48910D01*
Y48010D02*
Y48410D01*
Y46710D02*
Y47810D01*
Y45710D02*
Y46510D01*
Y44010D02*
Y45610D01*
Y42810D02*
Y43410D01*
Y38910D02*
Y42510D01*
Y38610D02*
Y38810D01*
X17379Y82310D02*
Y83110D01*
Y80810D02*
Y80910D01*
Y80610D02*
Y80710D01*
Y80310D02*
Y80410D01*
Y79610D02*
Y80010D01*
Y79210D02*
Y79410D01*
Y78910D02*
Y79010D01*
Y78610D02*
Y78810D01*
Y78210D02*
Y78510D01*
Y76510D02*
Y76710D01*
Y73110D02*
Y75010D01*
Y71310D02*
Y71710D01*
Y70710D02*
Y71010D01*
Y70010D02*
Y70410D01*
Y69410D02*
Y69710D01*
Y68710D02*
Y69010D01*
Y65210D02*
Y65310D01*
Y64410D02*
Y64610D01*
Y64110D02*
Y64310D01*
Y58110D02*
Y63610D01*
Y57510D02*
Y57810D01*
Y56510D02*
Y56810D01*
Y52410D02*
Y56310D01*
Y52010D02*
Y52110D01*
Y51810D02*
Y51910D01*
Y51510D02*
Y51710D01*
Y50410D02*
Y51210D01*
Y49210D02*
Y50310D01*
Y48610D02*
Y48910D01*
Y46710D02*
Y48410D01*
Y45710D02*
Y46510D01*
Y42810D02*
Y45610D01*
Y38710D02*
Y42110D01*
Y38410D02*
Y38510D01*
X17279Y82810D02*
Y83210D01*
Y82310D02*
Y82610D01*
Y80810D02*
Y80910D01*
Y80310D02*
Y80710D01*
Y79810D02*
Y80010D01*
Y79210D02*
Y79710D01*
Y78310D02*
Y79010D01*
Y76510D02*
Y76710D01*
Y64210D02*
Y64610D01*
Y58210D02*
Y63610D01*
Y57610D02*
Y57710D01*
Y57310D02*
Y57510D01*
Y56610D02*
Y56710D01*
Y52410D02*
Y56310D01*
Y52210D02*
Y52310D01*
Y52010D02*
Y52110D01*
Y50410D02*
Y51910D01*
Y49110D02*
Y50310D01*
Y48510D02*
Y48910D01*
Y47910D02*
Y48410D01*
Y46710D02*
Y47810D01*
Y45710D02*
Y46510D01*
Y42810D02*
Y45610D01*
Y38410D02*
Y42010D01*
X17179Y82910D02*
Y83210D01*
Y82210D02*
Y82610D01*
Y80710D02*
Y80910D01*
Y80310D02*
Y80610D01*
Y79310D02*
Y79910D01*
Y78310D02*
Y79010D01*
Y75810D02*
Y77410D01*
Y68710D02*
Y71610D01*
Y64310D02*
Y64710D01*
Y58210D02*
Y63610D01*
Y57210D02*
Y57610D01*
Y50410D02*
Y56310D01*
Y49110D02*
Y50310D01*
Y47910D02*
Y48810D01*
Y45710D02*
Y46510D01*
Y44010D02*
Y45610D01*
Y42510D02*
Y43410D01*
Y38410D02*
Y41810D01*
Y38110D02*
Y38310D01*
X17079Y82910D02*
Y83210D01*
Y82210D02*
Y82510D01*
Y80610D02*
Y80910D01*
Y79710D02*
Y79910D01*
Y78810D02*
Y78910D01*
Y75810D02*
Y77410D01*
Y68710D02*
Y71610D01*
Y64510D02*
Y64810D01*
Y58110D02*
Y63810D01*
Y57110D02*
Y57410D01*
Y50410D02*
Y56210D01*
Y49110D02*
Y50310D01*
Y48310D02*
Y48710D01*
Y47910D02*
Y48210D01*
Y47610D02*
Y47810D01*
Y45710D02*
Y46510D01*
Y44010D02*
Y45610D01*
Y42510D02*
Y43410D01*
Y41410D02*
Y41610D01*
Y38110D02*
Y41210D01*
X16979Y82910D02*
Y83210D01*
Y82210D02*
Y82510D01*
Y80610D02*
Y80910D01*
Y79710D02*
Y79910D01*
Y78710D02*
Y78910D01*
Y77210D02*
Y77410D01*
Y75810D02*
Y75910D01*
Y68710D02*
Y71610D01*
Y64510D02*
Y64910D01*
Y63510D02*
Y63910D01*
Y58010D02*
Y63310D01*
Y57010D02*
Y57410D01*
Y50410D02*
Y56210D01*
Y49110D02*
Y50310D01*
Y47710D02*
Y48710D01*
Y45710D02*
Y46410D01*
Y42510D02*
Y45610D01*
Y38110D02*
Y41110D01*
Y37810D02*
Y38010D01*
X16879Y82810D02*
Y83110D01*
Y82310D02*
Y82610D01*
Y80310D02*
Y80810D01*
Y79410D02*
Y80110D01*
Y78410D02*
Y79210D01*
Y77910D02*
Y78210D01*
Y77510D02*
Y77710D01*
Y77210D02*
Y77410D01*
Y75810D02*
Y75910D01*
Y64610D02*
Y64810D01*
Y63610D02*
Y64010D01*
Y58610D02*
Y63210D01*
Y58010D02*
Y58410D01*
Y57010D02*
Y57310D01*
Y50410D02*
Y56210D01*
Y50010D02*
Y50310D01*
Y47610D02*
Y48710D01*
Y42510D02*
Y45610D01*
Y37810D02*
Y40910D01*
X16779Y82310D02*
Y83110D01*
Y80310D02*
Y80810D01*
Y79910D02*
Y80110D01*
Y79410D02*
Y79810D01*
Y78910D02*
Y79210D01*
Y78410D02*
Y78810D01*
Y77910D02*
Y78210D01*
Y77510D02*
Y77710D01*
Y77210D02*
Y77410D01*
Y75810D02*
Y75910D01*
Y64610D02*
Y64810D01*
Y63910D02*
Y64110D01*
Y63610D02*
Y63810D01*
Y58610D02*
Y63210D01*
Y58110D02*
Y58310D01*
Y57910D02*
Y58010D01*
Y57110D02*
Y57210D01*
Y52610D02*
Y56210D01*
Y52410D02*
Y52510D01*
Y52110D02*
Y52310D01*
Y51710D02*
Y51810D01*
Y51510D02*
Y51610D01*
Y50410D02*
Y51310D01*
Y50010D02*
Y50310D01*
Y49410D02*
Y49610D01*
Y47510D02*
Y48610D01*
Y37810D02*
Y40810D01*
Y37610D02*
Y37710D01*
X16679Y82210D02*
Y83010D01*
Y80610D02*
Y80710D01*
Y79610D02*
Y79710D01*
Y78610D02*
Y78810D01*
Y75810D02*
Y77410D01*
Y71010D02*
Y71410D01*
Y70410D02*
Y70810D01*
Y69910D02*
Y70310D01*
Y69310D02*
Y69710D01*
Y68710D02*
Y69110D01*
Y63810D02*
Y64210D01*
Y58810D02*
Y63110D01*
Y57810D02*
Y58110D01*
Y52610D02*
Y56110D01*
Y50410D02*
Y51210D01*
Y50010D02*
Y50310D01*
Y49410D02*
Y49610D01*
Y47310D02*
Y48110D01*
Y42010D02*
Y42510D01*
Y37910D02*
Y40410D01*
Y37610D02*
Y37810D01*
X16579Y82510D02*
Y83010D01*
Y82110D02*
Y82410D01*
Y80510D02*
Y80710D01*
Y79610D02*
Y79710D01*
Y78610D02*
Y78810D01*
Y75810D02*
Y77410D01*
Y71010D02*
Y71510D01*
Y69810D02*
Y70910D01*
Y68710D02*
Y69710D01*
Y63910D02*
Y64310D01*
Y58710D02*
Y63210D01*
Y57710D02*
Y58110D01*
Y52610D02*
Y56110D01*
Y50410D02*
Y51210D01*
Y50010D02*
Y50310D01*
Y49410D02*
Y49610D01*
Y48110D02*
Y48510D01*
Y47210D02*
Y48010D01*
Y41810D02*
Y42610D01*
Y37610D02*
Y40410D01*
Y37410D02*
Y37510D01*
X16479Y82010D02*
Y82310D01*
Y80510D02*
Y80610D01*
Y79510D02*
Y79710D01*
Y78510D02*
Y78710D01*
Y75810D02*
Y77410D01*
Y68610D02*
Y71510D01*
Y63910D02*
Y64310D01*
Y61110D02*
Y63210D01*
Y58610D02*
Y60810D01*
Y57610D02*
Y58010D01*
Y52610D02*
Y56110D01*
Y50410D02*
Y51210D01*
Y49410D02*
Y49610D01*
Y48010D02*
Y48610D01*
Y47210D02*
Y47910D01*
Y44910D02*
Y45410D01*
Y41710D02*
Y42710D01*
Y37710D02*
Y40210D01*
Y37410D02*
Y37510D01*
X16379Y81910D02*
Y82210D01*
Y80410D02*
Y80610D01*
Y79410D02*
Y79610D01*
Y78510D02*
Y78610D01*
Y76510D02*
Y76710D01*
Y72610D02*
Y73310D01*
Y71310D02*
Y71610D01*
Y70710D02*
Y71110D01*
Y70210D02*
Y70610D01*
Y69610D02*
Y70010D01*
Y69010D02*
Y69410D01*
Y68610D02*
Y68810D01*
Y65810D02*
Y67310D01*
Y64010D02*
Y64310D01*
Y62910D02*
Y63410D01*
Y61210D02*
Y62810D01*
Y59110D02*
Y60710D01*
Y58510D02*
Y58910D01*
Y57510D02*
Y57910D01*
Y52610D02*
Y56110D01*
Y50410D02*
Y51210D01*
Y49410D02*
Y49610D01*
Y48010D02*
Y48410D01*
Y47010D02*
Y47710D01*
Y45810D02*
Y45910D01*
Y44910D02*
Y45410D01*
Y44410D02*
Y44610D01*
Y42310D02*
Y42810D01*
Y41310D02*
Y42210D01*
Y37410D02*
Y40010D01*
Y37110D02*
Y37310D01*
X16279Y81610D02*
Y82010D01*
Y80410D02*
Y80610D01*
Y79410D02*
Y79610D01*
Y78510D02*
Y78610D01*
Y76510D02*
Y76710D01*
Y73110D02*
Y73410D01*
Y72410D02*
Y72810D01*
Y71410D02*
Y71610D01*
Y70710D02*
Y71110D01*
Y70210D02*
Y70510D01*
Y69710D02*
Y70010D01*
Y69010D02*
Y69410D01*
Y68510D02*
Y68810D01*
Y65810D02*
Y67310D01*
Y64210D02*
Y64310D01*
Y63310D02*
Y63410D01*
Y63110D02*
Y63210D01*
Y61210D02*
Y62610D01*
Y59110D02*
Y60710D01*
Y58610D02*
Y58810D01*
Y57610D02*
Y57810D01*
Y52610D02*
Y56110D01*
Y50410D02*
Y51210D01*
Y49410D02*
Y49610D01*
Y47910D02*
Y48410D01*
Y46910D02*
Y47610D01*
Y45710D02*
Y46110D01*
Y44910D02*
Y45410D01*
Y44210D02*
Y44610D01*
Y42510D02*
Y42810D01*
Y41110D02*
Y42010D01*
Y37110D02*
Y39710D01*
X16179Y81610D02*
Y81910D01*
Y80410D02*
Y80610D01*
Y79410D02*
Y79610D01*
Y78510D02*
Y78610D01*
Y76510D02*
Y76710D01*
Y73210D02*
Y73510D01*
Y72410D02*
Y72610D01*
Y71410D02*
Y71610D01*
Y70810D02*
Y71110D01*
Y70210D02*
Y70510D01*
Y69710D02*
Y69910D01*
Y69110D02*
Y69410D01*
Y68510D02*
Y68810D01*
Y67110D02*
Y67310D01*
Y65810D02*
Y66010D01*
Y63210D02*
Y63510D01*
Y61210D02*
Y62610D01*
Y59210D02*
Y60710D01*
Y58610D02*
Y58810D01*
Y58310D02*
Y58510D01*
Y52610D02*
Y56110D01*
Y50410D02*
Y51310D01*
Y49410D02*
Y49610D01*
Y47910D02*
Y48410D01*
Y46910D02*
Y47610D01*
Y45610D02*
Y46210D01*
Y44810D02*
Y45510D01*
Y44210D02*
Y44710D01*
Y42510D02*
Y42810D01*
Y41110D02*
Y41810D01*
Y37110D02*
Y39710D01*
X16079Y81410D02*
Y81810D01*
Y80410D02*
Y80610D01*
Y79410D02*
Y79610D01*
Y78510D02*
Y78610D01*
Y76510D02*
Y76710D01*
Y73410D02*
Y73610D01*
Y72310D02*
Y72510D01*
Y71410D02*
Y71910D01*
Y70810D02*
Y71110D01*
Y70210D02*
Y70510D01*
Y69710D02*
Y69910D01*
Y69110D02*
Y69410D01*
Y63310D02*
Y68810D01*
Y61210D02*
Y62610D01*
Y59310D02*
Y60710D01*
Y58310D02*
Y58610D01*
Y52510D02*
Y56010D01*
Y50410D02*
Y51310D01*
Y49410D02*
Y49610D01*
Y47910D02*
Y48410D01*
Y46910D02*
Y47510D01*
Y44210D02*
Y46110D01*
Y42510D02*
Y42810D01*
Y41010D02*
Y41710D01*
Y37210D02*
Y39510D01*
X15979Y84810D02*
Y85510D01*
Y81110D02*
Y81510D01*
Y80410D02*
Y80610D01*
Y79410D02*
Y79610D01*
Y78510D02*
Y78610D01*
Y76510D02*
Y76710D01*
Y73410D02*
Y73710D01*
Y71410D02*
Y72410D01*
Y70810D02*
Y71110D01*
Y70310D02*
Y70410D01*
Y69710D02*
Y69910D01*
Y69110D02*
Y69410D01*
Y63510D02*
Y68710D01*
Y61210D02*
Y62710D01*
Y59110D02*
Y60810D01*
Y58110D02*
Y58510D01*
Y52310D02*
Y53310D01*
Y50410D02*
Y51510D01*
Y49410D02*
Y49610D01*
Y47910D02*
Y48410D01*
Y46810D02*
Y47310D01*
Y44310D02*
Y46010D01*
Y42510D02*
Y42910D01*
Y40910D02*
Y41410D01*
Y37210D02*
Y39310D01*
X15879Y84710D02*
Y85610D01*
Y80910D02*
Y81310D01*
Y80410D02*
Y80610D01*
Y79410D02*
Y79610D01*
Y78510D02*
Y78610D01*
Y76510D02*
Y76710D01*
Y73510D02*
Y73710D01*
Y72010D02*
Y72410D01*
Y67110D02*
Y67310D01*
Y65810D02*
Y66010D01*
Y62410D02*
Y62810D01*
Y61010D02*
Y62310D01*
Y59110D02*
Y60910D01*
Y58110D02*
Y58510D01*
Y52310D02*
Y53310D01*
Y50410D02*
Y51510D01*
Y49410D02*
Y49610D01*
Y47910D02*
Y48410D01*
Y46810D02*
Y47210D01*
Y44310D02*
Y46010D01*
Y42510D02*
Y42910D01*
Y40910D02*
Y41310D01*
Y37410D02*
Y39110D01*
X15779Y84710D02*
Y85610D01*
Y80710D02*
Y81310D01*
Y80410D02*
Y80610D01*
Y79410D02*
Y79610D01*
Y78510D02*
Y78610D01*
Y76510D02*
Y76710D01*
Y73510D02*
Y73810D01*
Y72110D02*
Y72410D01*
Y67110D02*
Y67310D01*
Y65810D02*
Y66010D01*
Y62510D02*
Y62910D01*
Y59610D02*
Y62310D01*
Y59010D02*
Y59510D01*
Y58010D02*
Y58410D01*
Y52110D02*
Y53210D01*
Y50410D02*
Y51710D01*
Y49410D02*
Y49610D01*
Y47810D02*
Y48310D01*
Y46710D02*
Y47210D01*
Y46310D02*
Y46510D01*
Y44210D02*
Y46110D01*
Y43810D02*
Y44010D01*
Y42510D02*
Y42910D01*
Y40910D02*
Y41210D01*
Y40110D02*
Y40610D01*
Y37410D02*
Y39010D01*
Y36810D02*
Y36910D01*
X15679Y85310D02*
Y85610D01*
Y84710D02*
Y85010D01*
Y80310D02*
Y80910D01*
Y79410D02*
Y79610D01*
Y78510D02*
Y78610D01*
Y76510D02*
Y76910D01*
Y73510D02*
Y73810D01*
Y73010D02*
Y73310D01*
Y72510D02*
Y72710D01*
Y72110D02*
Y72310D01*
Y65910D02*
Y67310D01*
Y62610D02*
Y62710D01*
Y59710D02*
Y62110D01*
Y59110D02*
Y59310D01*
Y58110D02*
Y58310D01*
Y52110D02*
Y53110D01*
Y50510D02*
Y51710D01*
Y49410D02*
Y49610D01*
Y47810D02*
Y48310D01*
Y46810D02*
Y47110D01*
Y45610D02*
Y46510D01*
Y43810D02*
Y44710D01*
Y42510D02*
Y42810D01*
Y40910D02*
Y41610D01*
Y39810D02*
Y40810D01*
Y37410D02*
Y38710D01*
Y37110D02*
Y37310D01*
Y36710D02*
Y37010D01*
X15579Y85410D02*
Y85710D01*
Y84710D02*
Y85010D01*
Y79910D02*
Y80610D01*
Y79410D02*
Y79610D01*
Y78510D02*
Y78610D01*
Y76510D02*
Y77510D01*
Y73610D02*
Y73810D01*
Y72510D02*
Y73410D01*
Y72110D02*
Y72310D01*
Y59810D02*
Y62110D01*
Y52110D02*
Y53010D01*
Y50510D02*
Y51710D01*
Y49410D02*
Y49610D01*
Y47810D02*
Y48310D01*
Y45810D02*
Y46610D01*
Y45210D02*
Y45510D01*
Y43710D02*
Y44610D01*
Y42110D02*
Y42810D01*
Y39610D02*
Y41610D01*
Y36710D02*
Y38510D01*
X15479Y85410D02*
Y85710D01*
Y84710D02*
Y85010D01*
Y78710D02*
Y80310D01*
Y78510D02*
Y78610D01*
Y76910D02*
Y77910D01*
Y76410D02*
Y76610D01*
Y73610D02*
Y73810D01*
Y72510D02*
Y73410D01*
Y72110D02*
Y72310D01*
Y59810D02*
Y62210D01*
Y52110D02*
Y53010D01*
Y50610D02*
Y51710D01*
Y49410D02*
Y49610D01*
Y47710D02*
Y48210D01*
Y45910D02*
Y46610D01*
Y45110D02*
Y45510D01*
Y43710D02*
Y44510D01*
Y42010D02*
Y42810D01*
Y40510D02*
Y41510D01*
Y39410D02*
Y40310D01*
Y37510D02*
Y38410D01*
Y36410D02*
Y37410D01*
X15379Y85310D02*
Y85610D01*
Y84710D02*
Y85010D01*
Y77210D02*
Y80210D01*
Y76410D02*
Y76610D01*
Y73510D02*
Y73810D01*
Y73110D02*
Y73410D01*
Y72510D02*
Y73010D01*
Y72110D02*
Y72310D01*
Y59710D02*
Y62210D01*
Y52110D02*
Y53010D01*
Y50610D02*
Y51710D01*
Y49410D02*
Y49610D01*
Y47710D02*
Y48210D01*
Y45910D02*
Y46510D01*
Y45110D02*
Y45610D01*
Y43810D02*
Y44510D01*
Y41810D02*
Y42710D01*
Y40510D02*
Y41410D01*
Y39310D02*
Y40110D01*
Y37510D02*
Y38310D01*
Y36410D02*
Y37410D01*
X15279Y84410D02*
Y85610D01*
Y83710D02*
Y83810D01*
Y79610D02*
Y79710D01*
Y77910D02*
Y78410D01*
Y76310D02*
Y76510D01*
Y73510D02*
Y73810D01*
Y72210D02*
Y72410D01*
Y61910D02*
Y62310D01*
Y60210D02*
Y61810D01*
Y59510D02*
Y60010D01*
Y52110D02*
Y52810D01*
Y50810D02*
Y51710D01*
Y49410D02*
Y49610D01*
Y47610D02*
Y48110D01*
Y45910D02*
Y46410D01*
Y45210D02*
Y45610D01*
Y43910D02*
Y44310D01*
Y43010D02*
Y43110D01*
Y40410D02*
Y42410D01*
Y39110D02*
Y39810D01*
Y37610D02*
Y38010D01*
Y37010D02*
Y37410D01*
Y36710D02*
Y36810D01*
Y36410D02*
Y36610D01*
X15179Y84310D02*
Y85610D01*
Y83610D02*
Y83810D01*
Y79610D02*
Y79710D01*
Y77910D02*
Y78210D01*
Y76210D02*
Y76510D01*
Y73510D02*
Y73810D01*
Y72210D02*
Y72410D01*
Y62010D02*
Y62310D01*
Y60210D02*
Y61710D01*
Y59610D02*
Y59910D01*
Y52110D02*
Y52710D01*
Y51010D02*
Y51710D01*
Y49410D02*
Y49610D01*
Y47610D02*
Y48110D01*
Y46010D02*
Y46410D01*
Y45210D02*
Y45610D01*
Y43910D02*
Y44310D01*
Y42810D02*
Y43110D01*
Y41110D02*
Y42210D01*
Y40410D02*
Y41010D01*
Y39110D02*
Y39710D01*
Y37610D02*
Y37810D01*
Y37110D02*
Y37510D01*
Y36910D02*
Y37010D01*
Y36310D02*
Y36610D01*
X15079Y84810D02*
Y85510D01*
Y84310D02*
Y84710D01*
Y83610D02*
Y83910D01*
Y79610D02*
Y79710D01*
Y77910D02*
Y78210D01*
Y76210D02*
Y76410D01*
Y73410D02*
Y74010D01*
Y72210D02*
Y72410D01*
Y62010D02*
Y62210D01*
Y60210D02*
Y61610D01*
Y59710D02*
Y59810D01*
Y52110D02*
Y52510D01*
Y51210D02*
Y51710D01*
Y49410D02*
Y49610D01*
Y47610D02*
Y48010D01*
Y46010D02*
Y46510D01*
Y45210D02*
Y45610D01*
Y43910D02*
Y44310D01*
Y42610D02*
Y43110D01*
Y41210D02*
Y42110D01*
Y40410D02*
Y41110D01*
Y39110D02*
Y39510D01*
Y37210D02*
Y37510D01*
Y36310D02*
Y37010D01*
X14979Y83710D02*
Y84410D01*
Y83210D02*
Y83510D01*
Y80010D02*
Y82210D01*
Y79610D02*
Y79710D01*
Y77910D02*
Y78210D01*
Y76110D02*
Y76310D01*
Y73910D02*
Y74810D01*
Y73310D02*
Y73610D01*
Y72310D02*
Y72510D01*
Y60310D02*
Y61610D01*
Y49410D02*
Y49610D01*
Y46110D02*
Y46810D01*
Y45310D02*
Y45510D01*
Y44510D02*
Y45010D01*
Y43510D02*
Y44310D01*
Y42210D02*
Y43010D01*
Y41410D02*
Y41610D01*
Y40710D02*
Y41110D01*
Y39110D02*
Y39410D01*
Y38210D02*
Y38810D01*
Y37210D02*
Y37310D01*
Y36710D02*
Y37110D01*
Y36010D02*
Y36510D01*
X14879Y83710D02*
Y84310D01*
Y83210D02*
Y83510D01*
Y80010D02*
Y82210D01*
Y79610D02*
Y79710D01*
Y78710D02*
Y78810D01*
Y77910D02*
Y78210D01*
Y76010D02*
Y76210D01*
Y74510D02*
Y74810D01*
Y74110D02*
Y74410D01*
Y73210D02*
Y73510D01*
Y72410D02*
Y72710D01*
Y60210D02*
Y61710D01*
Y49410D02*
Y49610D01*
Y46110D02*
Y46810D01*
Y45310D02*
Y45510D01*
Y45110D02*
Y45210D01*
Y44510D02*
Y45010D01*
Y43510D02*
Y44310D01*
Y42310D02*
Y42910D01*
Y40610D02*
Y41010D01*
Y39110D02*
Y39710D01*
Y38010D02*
Y38910D01*
Y36810D02*
Y37010D01*
Y36010D02*
Y36310D01*
X14779Y83710D02*
Y84310D01*
Y83310D02*
Y83610D01*
Y82010D02*
Y82210D01*
Y80010D02*
Y80310D01*
Y79610D02*
Y79710D01*
Y78710D02*
Y78810D01*
Y77910D02*
Y78210D01*
Y76010D02*
Y76210D01*
Y74610D02*
Y75010D01*
Y74110D02*
Y74410D01*
Y73010D02*
Y73410D01*
Y72410D02*
Y72810D01*
Y61310D02*
Y61710D01*
Y60210D02*
Y60610D01*
Y49410D02*
Y49610D01*
Y46110D02*
Y46810D01*
Y45310D02*
Y45510D01*
Y45110D02*
Y45210D01*
Y44410D02*
Y45010D01*
Y43510D02*
Y44310D01*
Y42410D02*
Y42910D01*
Y40510D02*
Y41010D01*
Y39110D02*
Y39710D01*
Y37910D02*
Y39010D01*
Y36910D02*
Y37010D01*
Y36410D02*
Y36710D01*
Y36010D02*
Y36310D01*
X14679Y83810D02*
Y84110D01*
Y83310D02*
Y83610D01*
Y82010D02*
Y82410D01*
Y79810D02*
Y81910D01*
Y79610D02*
Y79710D01*
Y78610D02*
Y78910D01*
Y77910D02*
Y78210D01*
Y75910D02*
Y76210D01*
Y74810D02*
Y75110D01*
Y74110D02*
Y74410D01*
Y72510D02*
Y73410D01*
Y61410D02*
Y61810D01*
Y60110D02*
Y60510D01*
Y49410D02*
Y49610D01*
Y46010D02*
Y46810D01*
Y45310D02*
Y45410D01*
Y45110D02*
Y45210D01*
Y44410D02*
Y44910D01*
Y43510D02*
Y44310D01*
Y42510D02*
Y43010D01*
Y40310D02*
Y40910D01*
Y39110D02*
Y39710D01*
Y37710D02*
Y39010D01*
Y36910D02*
Y37110D01*
Y36410D02*
Y36810D01*
Y36010D02*
Y36310D01*
X14579Y83910D02*
Y84210D01*
Y83410D02*
Y83710D01*
Y82010D02*
Y82210D01*
Y80010D02*
Y81910D01*
Y78710D02*
Y78810D01*
Y77910D02*
Y78210D01*
Y75810D02*
Y76110D01*
Y75010D02*
Y75410D01*
Y74110D02*
Y74410D01*
Y61510D02*
Y61710D01*
Y60210D02*
Y60410D01*
Y60010D02*
Y60110D01*
Y49410D02*
Y49610D01*
Y46010D02*
Y46510D01*
Y45010D02*
Y45810D01*
Y44410D02*
Y44810D01*
Y43910D02*
Y44310D01*
Y42510D02*
Y43110D01*
Y41410D02*
Y41710D01*
Y40010D02*
Y40810D01*
Y38710D02*
Y39610D01*
Y37410D02*
Y38310D01*
Y36910D02*
Y37210D01*
Y36410D02*
Y36810D01*
Y36110D02*
Y36310D01*
X14479Y83910D02*
Y84210D01*
Y83310D02*
Y83710D01*
Y82010D02*
Y82210D01*
Y80010D02*
Y81910D01*
Y77910D02*
Y78210D01*
Y77510D02*
Y77810D01*
Y75810D02*
Y76010D01*
Y75110D02*
Y75510D01*
Y74110D02*
Y74510D01*
Y61810D02*
Y62010D01*
Y61510D02*
Y61710D01*
Y59910D02*
Y60310D01*
Y49410D02*
Y49610D01*
Y46010D02*
Y46410D01*
Y45010D02*
Y45910D01*
Y44410D02*
Y44810D01*
Y43910D02*
Y44310D01*
Y42610D02*
Y43110D01*
Y41410D02*
Y41810D01*
Y39810D02*
Y40810D01*
Y38610D02*
Y39610D01*
Y37410D02*
Y38110D01*
Y36910D02*
Y37210D01*
Y36510D02*
Y36710D01*
Y36210D02*
Y36310D01*
X14379Y84010D02*
Y84310D01*
Y83310D02*
Y83710D01*
Y82010D02*
Y82210D01*
Y80010D02*
Y81910D01*
Y77510D02*
Y78610D01*
Y75810D02*
Y76010D01*
Y75210D02*
Y75510D01*
Y74310D02*
Y74710D01*
Y61710D02*
Y62110D01*
Y59810D02*
Y60210D01*
Y49410D02*
Y49610D01*
Y45110D02*
Y46410D01*
Y44510D02*
Y44810D01*
Y43910D02*
Y44410D01*
Y42610D02*
Y43110D01*
Y41710D02*
Y41810D01*
Y41310D02*
Y41510D01*
Y38510D02*
Y40610D01*
Y37310D02*
Y38010D01*
Y36810D02*
Y37210D01*
Y36210D02*
Y36410D01*
X14279Y84010D02*
Y84310D01*
Y83610D02*
Y83810D01*
Y83010D02*
Y83410D01*
Y82010D02*
Y82210D01*
Y80010D02*
Y81910D01*
Y77510D02*
Y78610D01*
Y75710D02*
Y75910D01*
Y75110D02*
Y75510D01*
Y74610D02*
Y75010D01*
Y61910D02*
Y62210D01*
Y59710D02*
Y60110D01*
Y49410D02*
Y49610D01*
Y45910D02*
Y46510D01*
Y45210D02*
Y45810D01*
Y43810D02*
Y44510D01*
Y42710D02*
Y43210D01*
Y41710D02*
Y41810D01*
Y40810D02*
Y41010D01*
Y39410D02*
Y40210D01*
Y38510D02*
Y39110D01*
Y37210D02*
Y37610D01*
Y36110D02*
Y36910D01*
X14179Y84010D02*
Y84110D01*
Y83610D02*
Y83910D01*
Y82510D02*
Y83310D01*
Y82010D02*
Y82410D01*
Y79810D02*
Y81910D01*
Y79410D02*
Y79710D01*
Y74810D02*
Y75810D01*
Y61910D02*
Y62310D01*
Y59610D02*
Y60010D01*
Y49410D02*
Y49610D01*
Y45810D02*
Y46610D01*
Y45310D02*
Y45710D01*
Y43710D02*
Y44510D01*
Y42610D02*
Y43110D01*
Y41610D02*
Y41810D01*
Y41310D02*
Y41510D01*
Y40710D02*
Y41110D01*
Y40310D02*
Y40410D01*
Y39410D02*
Y40010D01*
Y38810D02*
Y39110D01*
Y38610D02*
Y38710D01*
Y37210D02*
Y37510D01*
Y36210D02*
Y36910D01*
X14079Y83710D02*
Y83910D01*
Y82510D02*
Y83210D01*
Y82010D02*
Y82410D01*
Y79810D02*
Y81910D01*
Y79410D02*
Y79710D01*
Y74810D02*
Y75810D01*
Y62010D02*
Y62310D01*
Y59710D02*
Y59910D01*
Y49410D02*
Y49610D01*
Y45710D02*
Y46510D01*
Y43710D02*
Y44610D01*
Y42810D02*
Y43110D01*
Y42110D02*
Y42310D01*
Y41410D02*
Y41810D01*
Y40610D02*
Y41110D01*
Y40210D02*
Y40510D01*
Y39510D02*
Y39810D01*
Y38810D02*
Y39110D01*
Y37210D02*
Y37510D01*
Y36610D02*
Y36910D01*
X13979Y83710D02*
Y84010D01*
Y82610D02*
Y83110D01*
Y82010D02*
Y82210D01*
Y80010D02*
Y81910D01*
Y79410D02*
Y79610D01*
Y75510D02*
Y75910D01*
Y75010D02*
Y75310D01*
Y62010D02*
Y62210D01*
Y49410D02*
Y49610D01*
Y45510D02*
Y46510D01*
Y43810D02*
Y44710D01*
Y42810D02*
Y43310D01*
Y41810D02*
Y42310D01*
Y40110D02*
Y41110D01*
Y38710D02*
Y39110D01*
Y37210D02*
Y37510D01*
Y36610D02*
Y36810D01*
X13879Y82910D02*
Y83210D01*
Y82010D02*
Y82210D01*
Y80010D02*
Y81910D01*
Y79410D02*
Y79610D01*
Y77510D02*
Y78610D01*
Y75610D02*
Y76210D01*
Y49410D02*
Y49610D01*
Y46310D02*
Y46510D01*
Y44210D02*
Y46110D01*
Y43810D02*
Y44010D01*
Y42810D02*
Y43210D01*
Y41810D02*
Y42510D01*
Y40210D02*
Y41410D01*
Y38510D02*
Y39110D01*
Y37210D02*
Y37610D01*
X13779Y82910D02*
Y83210D01*
Y82010D02*
Y82210D01*
Y80010D02*
Y81910D01*
Y79410D02*
Y79610D01*
Y77510D02*
Y78610D01*
Y75810D02*
Y76210D01*
Y49410D02*
Y49610D01*
Y44310D02*
Y46010D01*
Y42810D02*
Y43210D01*
Y42310D02*
Y42610D01*
Y41810D02*
Y42010D01*
Y40910D02*
Y41510D01*
Y40110D02*
Y40610D01*
Y38410D02*
Y39110D01*
Y37210D02*
Y37610D01*
X13679Y83010D02*
Y83310D01*
Y82010D02*
Y82210D01*
Y80010D02*
Y81910D01*
Y79410D02*
Y79610D01*
Y77810D02*
Y78610D01*
Y75910D02*
Y76210D01*
Y49410D02*
Y49610D01*
Y44310D02*
Y46010D01*
Y42810D02*
Y43110D01*
Y42310D02*
Y42510D01*
Y41610D02*
Y41910D01*
Y41010D02*
Y41510D01*
Y40110D02*
Y40410D01*
Y38210D02*
Y39010D01*
Y37310D02*
Y37710D01*
X13579Y83110D02*
Y83310D01*
Y82010D02*
Y82410D01*
Y79810D02*
Y81910D01*
Y79410D02*
Y79610D01*
Y77910D02*
Y78210D01*
Y76610D02*
Y76910D01*
Y75910D02*
Y76210D01*
Y59710D02*
Y62210D01*
Y49310D02*
Y49710D01*
Y45610D02*
Y46110D01*
Y44810D02*
Y45510D01*
Y44210D02*
Y44710D01*
Y42410D02*
Y42610D01*
Y41710D02*
Y41810D01*
Y41110D02*
Y41410D01*
Y39910D02*
Y40310D01*
Y37410D02*
Y38710D01*
Y35810D02*
Y36010D01*
X13479Y86810D02*
Y87310D01*
Y83110D02*
Y83410D01*
Y82010D02*
Y82210D01*
Y80010D02*
Y81910D01*
Y79410D02*
Y79610D01*
Y77910D02*
Y78210D01*
Y76510D02*
Y76910D01*
Y75910D02*
Y76210D01*
Y63210D02*
Y63910D01*
Y59710D02*
Y62210D01*
Y57910D02*
Y58510D01*
Y49310D02*
Y49710D01*
Y45710D02*
Y46110D01*
Y44910D02*
Y45410D01*
Y44210D02*
Y44610D01*
Y42410D02*
Y42610D01*
Y41810D02*
Y41910D01*
Y41110D02*
Y41410D01*
Y39910D02*
Y40310D01*
Y37410D02*
Y38410D01*
Y35810D02*
Y36110D01*
X13379Y86710D02*
Y87410D01*
Y83110D02*
Y83410D01*
Y82010D02*
Y82210D01*
Y81710D02*
Y81910D01*
Y80010D02*
Y81610D01*
Y77910D02*
Y78110D01*
Y76510D02*
Y76810D01*
Y75910D02*
Y76210D01*
Y63210D02*
Y63910D01*
Y60810D02*
Y61010D01*
Y57810D02*
Y58610D01*
Y45710D02*
Y46010D01*
Y44910D02*
Y45410D01*
Y44310D02*
Y44610D01*
Y42310D02*
Y42610D01*
Y41710D02*
Y41910D01*
Y41110D02*
Y41510D01*
Y39910D02*
Y40310D01*
Y37410D02*
Y38410D01*
Y36010D02*
Y36310D01*
Y35710D02*
Y35910D01*
X13279Y86710D02*
Y87410D01*
Y83210D02*
Y83410D01*
Y82010D02*
Y82210D01*
Y81810D02*
Y81910D01*
Y80010D02*
Y81510D01*
Y77910D02*
Y78110D01*
Y77210D02*
Y77410D01*
Y76510D02*
Y76810D01*
Y75910D02*
Y76210D01*
Y63210D02*
Y63910D01*
Y60810D02*
Y61010D01*
Y57810D02*
Y58610D01*
Y45810D02*
Y45910D01*
Y44910D02*
Y45410D01*
Y44510D02*
Y44610D01*
Y41710D02*
Y42510D01*
Y41110D02*
Y41610D01*
Y40110D02*
Y40310D01*
Y38710D02*
Y38810D01*
Y38410D02*
Y38610D01*
Y37510D02*
Y38210D01*
Y36110D02*
Y36310D01*
Y35710D02*
Y35910D01*
X13179Y87110D02*
Y87510D01*
Y86610D02*
Y87010D01*
Y83310D02*
Y83510D01*
Y82010D02*
Y82210D01*
Y81810D02*
Y81910D01*
Y80010D02*
Y81410D01*
Y77910D02*
Y78110D01*
Y77210D02*
Y77510D01*
Y76310D02*
Y76810D01*
Y75910D02*
Y76210D01*
Y65010D02*
Y65210D01*
Y63110D02*
Y63910D01*
Y60810D02*
Y61010D01*
Y57810D02*
Y58610D01*
Y56610D02*
Y56810D01*
Y44910D02*
Y45410D01*
Y41910D02*
Y42510D01*
Y41110D02*
Y41610D01*
Y40110D02*
Y40410D01*
Y38010D02*
Y38910D01*
Y36310D02*
Y36410D01*
X13079Y87210D02*
Y87510D01*
Y86610D02*
Y86910D01*
Y83310D02*
Y83610D01*
Y82010D02*
Y82210D01*
Y81810D02*
Y81910D01*
Y80010D02*
Y81510D01*
Y77910D02*
Y78110D01*
Y77210D02*
Y77410D01*
Y75910D02*
Y76810D01*
Y64910D02*
Y65310D01*
Y63110D02*
Y64010D01*
Y60810D02*
Y61010D01*
Y57810D02*
Y58610D01*
Y56410D02*
Y56810D01*
Y42310D02*
Y42410D01*
Y41910D02*
Y42110D01*
Y41110D02*
Y41510D01*
Y40010D02*
Y40410D01*
Y38010D02*
Y39010D01*
Y36010D02*
Y36410D01*
Y35610D02*
Y35710D01*
X12979Y87310D02*
Y87510D01*
Y86610D02*
Y86810D01*
Y83310D02*
Y83610D01*
Y82010D02*
Y82410D01*
Y79810D02*
Y81910D01*
Y79410D02*
Y79710D01*
Y77910D02*
Y78110D01*
Y77110D02*
Y77410D01*
Y76010D02*
Y76810D01*
Y64810D02*
Y65510D01*
Y63110D02*
Y64010D01*
Y62110D02*
Y62310D01*
Y60610D02*
Y61210D01*
Y59510D02*
Y59810D01*
Y57710D02*
Y58710D01*
Y56310D02*
Y56910D01*
Y40910D02*
Y41310D01*
Y40010D02*
Y40510D01*
Y37710D02*
Y39110D01*
Y36210D02*
Y36310D01*
Y35510D02*
Y35710D01*
X12879Y87210D02*
Y87510D01*
Y86610D02*
Y86910D01*
Y83310D02*
Y83710D01*
Y82010D02*
Y82210D01*
Y80010D02*
Y80310D01*
Y79410D02*
Y79610D01*
Y77810D02*
Y78110D01*
Y76510D02*
Y77410D01*
Y64710D02*
Y65610D01*
Y63010D02*
Y64110D01*
Y62010D02*
Y62410D01*
Y60810D02*
Y61110D01*
Y59510D02*
Y59810D01*
Y57710D02*
Y58710D01*
Y56110D02*
Y57110D01*
Y40010D02*
Y41210D01*
Y37810D02*
Y39110D01*
Y36110D02*
Y36310D01*
Y35410D02*
Y35610D01*
Y34410D02*
Y34810D01*
X12779Y87110D02*
Y87510D01*
Y86610D02*
Y87010D01*
Y83410D02*
Y83710D01*
Y80010D02*
Y82210D01*
Y79410D02*
Y79610D01*
Y77810D02*
Y78010D01*
Y76610D02*
Y77410D01*
Y64610D02*
Y65610D01*
Y63010D02*
Y64210D01*
Y61910D02*
Y62510D01*
Y60810D02*
Y61010D01*
Y59310D02*
Y59910D01*
Y57610D02*
Y58710D01*
Y56110D02*
Y57110D01*
Y40410D02*
Y41310D01*
Y40110D02*
Y40210D01*
Y38610D02*
Y39110D01*
Y37810D02*
Y38410D01*
Y35910D02*
Y36310D01*
Y35310D02*
Y35610D01*
Y34710D02*
Y34910D01*
Y34410D02*
Y34610D01*
X12679Y86610D02*
Y87510D01*
Y83410D02*
Y83710D01*
Y80010D02*
Y82210D01*
Y79410D02*
Y79610D01*
Y78510D02*
Y78710D01*
Y77710D02*
Y78010D01*
Y76610D02*
Y77410D01*
Y64510D02*
Y65610D01*
Y63010D02*
Y64410D01*
Y61810D02*
Y62510D01*
Y60510D02*
Y61310D01*
Y59310D02*
Y60010D01*
Y57410D02*
Y58810D01*
Y56110D02*
Y57210D01*
Y40410D02*
Y41310D01*
Y38710D02*
Y39110D01*
Y37810D02*
Y38310D01*
Y35910D02*
Y36210D01*
Y35310D02*
Y35510D01*
Y34710D02*
Y35010D01*
Y34410D02*
Y34510D01*
X12579Y86510D02*
Y87410D01*
Y83410D02*
Y83710D01*
Y79410D02*
Y79610D01*
Y78510D02*
Y78710D01*
Y77610D02*
Y78010D01*
Y77210D02*
Y77410D01*
Y76810D02*
Y77010D01*
Y63010D02*
Y65610D01*
Y62010D02*
Y62210D01*
Y60810D02*
Y61110D01*
Y59510D02*
Y59810D01*
Y56110D02*
Y58810D01*
Y41010D02*
Y41210D01*
Y40410D02*
Y40810D01*
Y38710D02*
Y39110D01*
Y37810D02*
Y38310D01*
Y36610D02*
Y36810D01*
Y36010D02*
Y36110D01*
Y35710D02*
Y35810D01*
Y35310D02*
Y35410D01*
Y34610D02*
Y35110D01*
Y34310D02*
Y34410D01*
X12479Y86810D02*
Y87410D01*
Y86410D02*
Y86710D01*
Y83410D02*
Y83710D01*
Y79410D02*
Y79610D01*
Y79110D02*
Y79210D01*
Y78410D02*
Y78610D01*
Y77210D02*
Y78010D01*
Y63010D02*
Y65610D01*
Y62010D02*
Y62210D01*
Y60810D02*
Y61010D01*
Y59510D02*
Y59810D01*
Y56210D02*
Y58810D01*
Y40510D02*
Y40710D01*
Y40010D02*
Y40110D01*
Y38610D02*
Y39110D01*
Y37810D02*
Y38410D01*
Y36410D02*
Y37010D01*
Y35910D02*
Y36010D01*
Y34610D02*
Y35310D01*
Y34310D02*
Y34510D01*
X12379Y86210D02*
Y86610D01*
Y83410D02*
Y83710D01*
Y79110D02*
Y79610D01*
Y78210D02*
Y78610D01*
Y77810D02*
Y78010D01*
Y77310D02*
Y77710D01*
Y63010D02*
Y65510D01*
Y62010D02*
Y62210D01*
Y60810D02*
Y61010D01*
Y59510D02*
Y59810D01*
Y56210D02*
Y58710D01*
Y41110D02*
Y41210D01*
Y39910D02*
Y40210D01*
Y37810D02*
Y39110D01*
Y36510D02*
Y37010D01*
Y36310D02*
Y36410D01*
Y35710D02*
Y36010D01*
Y34410D02*
Y35510D01*
X12279Y86110D02*
Y86510D01*
Y83510D02*
Y83710D01*
Y79010D02*
Y79610D01*
Y78210D02*
Y78610D01*
Y77810D02*
Y78110D01*
Y63110D02*
Y65510D01*
Y62010D02*
Y62210D01*
Y60810D02*
Y61010D01*
Y59510D02*
Y59810D01*
Y56310D02*
Y58710D01*
Y40810D02*
Y41110D01*
Y40110D02*
Y40210D01*
Y39810D02*
Y40010D01*
Y37810D02*
Y39110D01*
Y36510D02*
Y37210D01*
Y34610D02*
Y36010D01*
X12179Y86010D02*
Y86410D01*
Y83510D02*
Y83710D01*
Y79310D02*
Y79910D01*
Y78910D02*
Y79210D01*
Y77910D02*
Y78610D01*
Y63210D02*
Y65510D01*
Y62010D02*
Y62210D01*
Y60810D02*
Y61010D01*
Y59510D02*
Y59810D01*
Y56310D02*
Y58610D01*
Y40510D02*
Y40810D01*
Y39910D02*
Y40110D01*
Y39110D02*
Y39710D01*
Y38010D02*
Y39010D01*
Y36610D02*
Y37410D01*
Y34710D02*
Y35810D01*
X12079Y85910D02*
Y86310D01*
Y83510D02*
Y83710D01*
Y80110D02*
Y80310D01*
Y79510D02*
Y79910D01*
Y78910D02*
Y79210D01*
Y78410D02*
Y78610D01*
Y77910D02*
Y78310D01*
Y63910D02*
Y65510D01*
Y63210D02*
Y63610D01*
Y61210D02*
Y62210D01*
Y60810D02*
Y61010D01*
Y59510D02*
Y60510D01*
Y58110D02*
Y58510D01*
Y56310D02*
Y57810D01*
Y40310D02*
Y40510D01*
Y39710D02*
Y39910D01*
Y39310D02*
Y39610D01*
Y39110D02*
Y39210D01*
Y38010D02*
Y39010D01*
Y37410D02*
Y37510D01*
Y36810D02*
Y37310D01*
Y34910D02*
Y36010D01*
X11979Y85810D02*
Y86210D01*
Y83510D02*
Y83710D01*
Y80110D02*
Y80410D01*
Y79510D02*
Y79910D01*
Y78810D02*
Y79210D01*
Y78410D02*
Y78710D01*
Y64310D02*
Y65610D01*
Y61210D02*
Y62210D01*
Y60810D02*
Y61010D01*
Y59510D02*
Y60610D01*
Y56210D02*
Y57410D01*
Y39910D02*
Y40410D01*
Y38910D02*
Y39710D01*
Y38110D02*
Y38810D01*
Y36710D02*
Y37610D01*
Y35010D02*
Y36010D01*
X11879Y85710D02*
Y86110D01*
Y83510D02*
Y83710D01*
Y80010D02*
Y80510D01*
Y79610D02*
Y79910D01*
Y78510D02*
Y79110D01*
Y66410D02*
Y66510D01*
Y64510D02*
Y65610D01*
Y63210D02*
Y64310D01*
Y61210D02*
Y62210D01*
Y60810D02*
Y61010D01*
Y59510D02*
Y60610D01*
Y57810D02*
Y58510D01*
Y56110D02*
Y57310D01*
Y55310D02*
Y55410D01*
Y39110D02*
Y39810D01*
Y38810D02*
Y39010D01*
Y38110D02*
Y38710D01*
Y36910D02*
Y37510D01*
Y35110D02*
Y36210D01*
Y34910D02*
Y35010D01*
X11779Y85610D02*
Y86010D01*
Y83510D02*
Y83710D01*
Y79510D02*
Y80610D01*
Y78610D02*
Y78910D01*
Y64810D02*
Y66610D01*
Y62910D02*
Y64610D01*
Y61210D02*
Y61510D01*
Y60810D02*
Y61010D01*
Y60410D02*
Y60610D01*
Y57410D02*
Y58910D01*
Y55210D02*
Y57010D01*
Y38910D02*
Y40010D01*
Y38710D02*
Y38810D01*
Y37010D02*
Y37510D01*
Y36210D02*
Y36310D01*
Y35310D02*
Y36110D01*
Y34810D02*
Y35010D01*
X11679Y85410D02*
Y85810D01*
Y83510D02*
Y83710D01*
Y79910D02*
Y80710D01*
Y79410D02*
Y79610D01*
Y64910D02*
Y66610D01*
Y64010D02*
Y64810D01*
Y62810D02*
Y63610D01*
Y61210D02*
Y61510D01*
Y60810D02*
Y61010D01*
Y60410D02*
Y60610D01*
Y57110D02*
Y59110D01*
Y55110D02*
Y56810D01*
Y38810D02*
Y40110D01*
Y38610D02*
Y38710D01*
Y37010D02*
Y37410D01*
Y35510D02*
Y36010D01*
Y34710D02*
Y34910D01*
X11579Y85410D02*
Y85710D01*
Y83510D02*
Y83710D01*
Y81410D02*
Y81810D01*
Y79810D02*
Y80810D01*
Y79310D02*
Y79610D01*
Y64310D02*
Y66610D01*
Y62610D02*
Y63210D01*
Y61210D02*
Y61510D01*
Y60810D02*
Y61010D01*
Y60410D02*
Y60610D01*
Y58610D02*
Y59210D01*
Y57110D02*
Y57710D01*
Y55110D02*
Y56810D01*
Y38510D02*
Y40110D01*
Y37010D02*
Y37410D01*
Y36310D02*
Y36410D01*
Y35610D02*
Y36010D01*
Y35310D02*
Y35410D01*
Y34710D02*
Y34910D01*
X11479Y85210D02*
Y85610D01*
Y83510D02*
Y83710D01*
Y81510D02*
Y82010D01*
Y79710D02*
Y80910D01*
Y79210D02*
Y79510D01*
Y65110D02*
Y66710D01*
Y64610D02*
Y65010D01*
Y62510D02*
Y62910D01*
Y60110D02*
Y61710D01*
Y58910D02*
Y59410D01*
Y56910D02*
Y57410D01*
Y55010D02*
Y56610D01*
Y39610D02*
Y40110D01*
Y38710D02*
Y39310D01*
Y38410D02*
Y38510D01*
Y36310D02*
Y36510D01*
Y35810D02*
Y36010D01*
Y35110D02*
Y35410D01*
Y34610D02*
Y34710D01*
X11379Y85110D02*
Y85510D01*
Y83510D02*
Y83710D01*
Y81310D02*
Y82010D01*
Y79710D02*
Y81010D01*
Y79210D02*
Y79410D01*
Y65210D02*
Y66810D01*
Y64710D02*
Y65110D01*
Y62410D02*
Y62910D01*
Y60110D02*
Y61710D01*
Y59010D02*
Y59510D01*
Y56810D02*
Y57310D01*
Y55010D02*
Y56510D01*
Y39710D02*
Y40110D01*
Y38710D02*
Y39310D01*
Y38110D02*
Y38410D01*
Y36010D02*
Y36610D01*
Y35310D02*
Y35410D01*
Y34610D02*
Y34710D01*
X11279Y85010D02*
Y85410D01*
Y83510D02*
Y83710D01*
Y79710D02*
Y81910D01*
Y79210D02*
Y79510D01*
Y65310D02*
Y66810D01*
Y64810D02*
Y65210D01*
Y62410D02*
Y62810D01*
Y60110D02*
Y61710D01*
Y59110D02*
Y59510D01*
Y56810D02*
Y57110D01*
Y55010D02*
Y56510D01*
Y39610D02*
Y40110D01*
Y38710D02*
Y39310D01*
Y38010D02*
Y38210D01*
Y35210D02*
Y35310D01*
Y35010D02*
Y35110D01*
Y34610D02*
Y34710D01*
X11179Y85010D02*
Y85410D01*
Y83510D02*
Y83710D01*
Y81610D02*
Y81710D01*
Y79910D02*
Y81410D01*
Y79310D02*
Y79610D01*
Y65310D02*
Y66710D01*
Y64810D02*
Y65210D01*
Y62310D02*
Y62710D01*
Y61510D02*
Y61710D01*
Y60110D02*
Y60310D01*
Y59210D02*
Y59510D01*
Y56810D02*
Y57110D01*
Y55010D02*
Y56410D01*
Y39610D02*
Y40110D01*
Y38710D02*
Y39310D01*
Y37810D02*
Y38010D01*
Y35010D02*
Y35310D01*
Y34510D02*
Y34610D01*
X11079Y84710D02*
Y85110D01*
Y83410D02*
Y83710D01*
Y80010D02*
Y81410D01*
Y79510D02*
Y79710D01*
Y65410D02*
Y66610D01*
Y65010D02*
Y65310D01*
Y62210D02*
Y62610D01*
Y60110D02*
Y61710D01*
Y59410D02*
Y59710D01*
Y56610D02*
Y56910D01*
Y55210D02*
Y56410D01*
Y38810D02*
Y40110D01*
Y37410D02*
Y37510D01*
Y36510D02*
Y36710D01*
Y35010D02*
Y35310D01*
Y34410D02*
Y34710D01*
X10979Y88110D02*
Y88410D01*
Y84710D02*
Y85010D01*
Y83410D02*
Y83710D01*
Y79610D02*
Y81510D01*
Y65010D02*
Y66510D01*
Y62210D02*
Y62510D01*
Y60110D02*
Y61710D01*
Y59510D02*
Y59810D01*
Y56510D02*
Y56910D01*
Y55310D02*
Y56310D01*
Y38810D02*
Y40010D01*
Y37110D02*
Y37410D01*
Y36410D02*
Y36710D01*
Y35010D02*
Y35210D01*
Y34610D02*
Y34810D01*
X10879Y88010D02*
Y88510D01*
Y84610D02*
Y85010D01*
Y83410D02*
Y83710D01*
Y79610D02*
Y81610D01*
Y65510D02*
Y66410D01*
Y65110D02*
Y65410D01*
Y62110D02*
Y62410D01*
Y60110D02*
Y61710D01*
Y59510D02*
Y59810D01*
Y56510D02*
Y56810D01*
Y55410D02*
Y56310D01*
Y38910D02*
Y40010D01*
Y37010D02*
Y37210D01*
Y36310D02*
Y36710D01*
Y34710D02*
Y35110D01*
Y34010D02*
Y34310D01*
X10779Y87810D02*
Y88710D01*
Y84410D02*
Y84810D01*
Y83310D02*
Y83610D01*
Y80310D02*
Y81610D01*
Y79810D02*
Y79910D01*
Y65610D02*
Y66310D01*
Y65210D02*
Y65510D01*
Y62110D02*
Y62310D01*
Y60110D02*
Y61710D01*
Y59510D02*
Y59810D01*
Y56410D02*
Y56810D01*
Y55510D02*
Y56210D01*
Y39110D02*
Y39810D01*
Y36310D02*
Y36710D01*
Y34910D02*
Y35010D01*
Y34210D02*
Y34310D01*
Y33810D02*
Y34010D01*
X10679Y87810D02*
Y88710D01*
Y84310D02*
Y84710D01*
Y83310D02*
Y83610D01*
Y80410D02*
Y81610D01*
Y65610D02*
Y66310D01*
Y65210D02*
Y65510D01*
Y62010D02*
Y62310D01*
Y60110D02*
Y61710D01*
Y59510D02*
Y59810D01*
Y56410D02*
Y56810D01*
Y55510D02*
Y56110D01*
Y39210D02*
Y39710D01*
Y36210D02*
Y36710D01*
Y34110D02*
Y34310D01*
Y33610D02*
Y33810D01*
X10579Y88410D02*
Y88810D01*
Y87810D02*
Y88110D01*
Y84310D02*
Y84710D01*
Y83210D02*
Y83510D01*
Y80510D02*
Y81610D01*
Y65610D02*
Y66310D01*
Y65310D02*
Y65510D01*
Y62010D02*
Y62310D01*
Y60110D02*
Y61710D01*
Y59610D02*
Y59810D01*
Y56410D02*
Y56710D01*
Y55510D02*
Y56110D01*
Y36110D02*
Y36610D01*
Y34110D02*
Y34210D01*
Y33610D02*
Y33810D01*
X10479Y88410D02*
Y88810D01*
Y87710D02*
Y88110D01*
Y84210D02*
Y84610D01*
Y83110D02*
Y83510D01*
Y80610D02*
Y81510D01*
Y65310D02*
Y66310D01*
Y63610D02*
Y64010D01*
Y62010D02*
Y62310D01*
Y60110D02*
Y61710D01*
Y59610D02*
Y59910D01*
Y57910D02*
Y58410D01*
Y56410D02*
Y56710D01*
Y55410D02*
Y56110D01*
Y36010D02*
Y36510D01*
Y34010D02*
Y34110D01*
Y33510D02*
Y33710D01*
X10379Y88410D02*
Y88810D01*
Y87510D02*
Y88110D01*
Y84010D02*
Y84310D01*
Y83010D02*
Y83310D01*
Y80810D02*
Y81610D01*
Y65310D02*
Y66310D01*
Y63310D02*
Y64210D01*
Y62010D02*
Y62210D01*
Y60110D02*
Y61710D01*
Y59710D02*
Y59910D01*
Y57710D02*
Y58610D01*
Y56410D02*
Y56610D01*
Y55410D02*
Y56110D01*
Y35910D02*
Y36310D01*
Y33810D02*
Y34010D01*
X10279Y88410D02*
Y88810D01*
Y87410D02*
Y88110D01*
Y83810D02*
Y84310D01*
Y82910D02*
Y83310D01*
Y80910D02*
Y81710D01*
Y65310D02*
Y66410D01*
Y63210D02*
Y64310D01*
Y61910D02*
Y62210D01*
Y60110D02*
Y61710D01*
Y59710D02*
Y59910D01*
Y57710D02*
Y58610D01*
Y56410D02*
Y56610D01*
Y55410D02*
Y56110D01*
Y35810D02*
Y36310D01*
Y33810D02*
Y34010D01*
X10179Y87110D02*
Y88710D01*
Y83710D02*
Y84210D01*
Y82810D02*
Y83210D01*
Y81410D02*
Y81910D01*
Y80910D02*
Y81310D01*
Y65310D02*
Y66610D01*
Y63210D02*
Y64310D01*
Y61910D02*
Y62210D01*
Y60110D02*
Y61710D01*
Y59710D02*
Y59910D01*
Y57710D02*
Y58610D01*
Y56310D02*
Y56610D01*
Y55210D02*
Y56110D01*
Y35710D02*
Y36210D01*
Y33710D02*
Y33910D01*
X10079Y87910D02*
Y88710D01*
Y86410D02*
Y87510D01*
Y83310D02*
Y84010D01*
Y82610D02*
Y83010D01*
Y81610D02*
Y82010D01*
Y65310D02*
Y67010D01*
Y63210D02*
Y64310D01*
Y61910D02*
Y62210D01*
Y60110D02*
Y61710D01*
Y59710D02*
Y60010D01*
Y57610D02*
Y58710D01*
Y56310D02*
Y56610D01*
Y54710D02*
Y56110D01*
Y35710D02*
Y36010D01*
Y34610D02*
Y34910D01*
Y33910D02*
Y34310D01*
Y33610D02*
Y33710D01*
X9979Y88010D02*
Y88610D01*
Y86010D02*
Y87310D01*
Y82410D02*
Y83910D01*
Y81610D02*
Y82210D01*
Y65310D02*
Y67010D01*
Y63210D02*
Y64310D01*
Y61910D02*
Y62210D01*
Y60110D02*
Y61710D01*
Y59710D02*
Y59910D01*
Y57610D02*
Y58710D01*
Y56310D02*
Y56610D01*
Y54710D02*
Y56110D01*
Y35610D02*
Y36010D01*
Y34510D02*
Y35010D01*
Y33810D02*
Y34410D01*
Y33510D02*
Y33610D01*
X9879Y88110D02*
Y88410D01*
Y85410D02*
Y87110D01*
Y81810D02*
Y83710D01*
Y65310D02*
Y67010D01*
Y63210D02*
Y64310D01*
Y61910D02*
Y62210D01*
Y60110D02*
Y61710D01*
Y59710D02*
Y59910D01*
Y57610D02*
Y58610D01*
Y56310D02*
Y56610D01*
Y54710D02*
Y56110D01*
Y35510D02*
Y36010D01*
Y34010D02*
Y35010D01*
Y33710D02*
Y33910D01*
Y33510D02*
Y33610D01*
X9779Y84310D02*
Y86710D01*
Y81810D02*
Y83510D01*
Y65310D02*
Y67010D01*
Y63210D02*
Y64310D01*
Y61910D02*
Y62210D01*
Y60110D02*
Y61710D01*
Y59710D02*
Y59910D01*
Y57710D02*
Y58610D01*
Y56310D02*
Y56610D01*
Y54710D02*
Y56110D01*
Y35410D02*
Y35910D01*
Y34010D02*
Y35110D01*
Y33510D02*
Y33810D01*
X9679Y82010D02*
Y85610D01*
Y65310D02*
Y67010D01*
Y63310D02*
Y64210D01*
Y62010D02*
Y62210D01*
Y60110D02*
Y61710D01*
Y59710D02*
Y59910D01*
Y57810D02*
Y58510D01*
Y56410D02*
Y56610D01*
Y54710D02*
Y56110D01*
Y34110D02*
Y35710D01*
X9579Y82210D02*
Y84610D01*
Y65310D02*
Y67010D01*
Y63410D02*
Y64110D01*
Y62010D02*
Y62210D01*
Y61010D02*
Y61710D01*
Y60110D02*
Y60810D01*
Y59710D02*
Y59910D01*
Y57810D02*
Y58510D01*
Y56410D02*
Y56710D01*
Y54710D02*
Y56110D01*
Y34110D02*
Y35710D01*
X9479Y82310D02*
Y83110D01*
Y65610D02*
Y67010D01*
Y65310D02*
Y65510D01*
Y63610D02*
Y64010D01*
Y62010D02*
Y62310D01*
Y61110D02*
Y61710D01*
Y60110D02*
Y60810D01*
Y59610D02*
Y59910D01*
Y57910D02*
Y58410D01*
Y56410D02*
Y56710D01*
Y54710D02*
Y56110D01*
Y34110D02*
Y35610D01*
X9379Y82410D02*
Y83510D01*
Y65610D02*
Y67010D01*
Y65210D02*
Y65510D01*
Y63610D02*
Y63910D01*
Y62010D02*
Y62310D01*
Y61210D02*
Y61710D01*
Y60110D02*
Y60710D01*
Y59610D02*
Y59810D01*
Y57910D02*
Y58310D01*
Y56410D02*
Y56710D01*
Y54810D02*
Y56210D01*
Y34010D02*
Y35610D01*
X9279Y82510D02*
Y83710D01*
Y65510D02*
Y67010D01*
Y65210D02*
Y65410D01*
Y63610D02*
Y63910D01*
Y62110D02*
Y62310D01*
Y61210D02*
Y61710D01*
Y60110D02*
Y60710D01*
Y59510D02*
Y59810D01*
Y57910D02*
Y58310D01*
Y56410D02*
Y56810D01*
Y54810D02*
Y56210D01*
Y35810D02*
Y36010D01*
Y33910D02*
Y35710D01*
X9179Y83110D02*
Y84010D01*
Y82610D02*
Y83010D01*
Y65510D02*
Y66610D01*
Y65110D02*
Y65410D01*
Y63610D02*
Y63910D01*
Y62110D02*
Y62410D01*
Y61210D02*
Y61710D01*
Y60110D02*
Y60710D01*
Y59510D02*
Y59810D01*
Y57910D02*
Y58310D01*
Y56410D02*
Y56810D01*
Y55210D02*
Y56210D01*
Y37210D02*
Y37610D01*
Y35810D02*
Y36110D01*
Y34010D02*
Y35710D01*
X9079Y83410D02*
Y84310D01*
Y82810D02*
Y83210D01*
Y65110D02*
Y66210D01*
Y63610D02*
Y63910D01*
Y62210D02*
Y62510D01*
Y61110D02*
Y61710D01*
Y60110D02*
Y60810D01*
Y59510D02*
Y59810D01*
Y57910D02*
Y58310D01*
Y56510D02*
Y56810D01*
Y55510D02*
Y56310D01*
Y37610D02*
Y37810D01*
Y37110D02*
Y37310D01*
Y35910D02*
Y36110D01*
Y34110D02*
Y35810D01*
X8979Y83810D02*
Y84710D01*
Y83010D02*
Y83410D01*
Y65410D02*
Y66110D01*
Y64910D02*
Y65310D01*
Y62210D02*
Y62610D01*
Y60110D02*
Y61710D01*
Y59410D02*
Y59710D01*
Y56610D02*
Y56910D01*
Y55610D02*
Y56410D01*
Y37710D02*
Y37810D01*
Y36910D02*
Y37110D01*
Y34210D02*
Y36010D01*
X8879Y84010D02*
Y85010D01*
Y83010D02*
Y83510D01*
Y64910D02*
Y66110D01*
Y62310D02*
Y62610D01*
Y60110D02*
Y61710D01*
Y59310D02*
Y59610D01*
Y56710D02*
Y57010D01*
Y55710D02*
Y56410D01*
Y36910D02*
Y37410D01*
Y34310D02*
Y36010D01*
X8779Y84310D02*
Y85210D01*
Y83110D02*
Y83610D01*
Y65310D02*
Y66010D01*
Y64910D02*
Y65210D01*
Y62310D02*
Y62610D01*
Y59210D02*
Y59510D01*
Y56810D02*
Y57110D01*
Y55710D02*
Y56410D01*
Y37210D02*
Y37510D01*
Y36810D02*
Y37110D01*
Y34310D02*
Y36010D01*
X8679Y84710D02*
Y85710D01*
Y83310D02*
Y83710D01*
Y65210D02*
Y66110D01*
Y64710D02*
Y65110D01*
Y62510D02*
Y62910D01*
Y59110D02*
Y59510D01*
Y56810D02*
Y57210D01*
Y55610D02*
Y56610D01*
Y37510D02*
Y37610D01*
Y36710D02*
Y36910D01*
Y34410D02*
Y35910D01*
X8579Y85010D02*
Y86010D01*
Y83410D02*
Y83910D01*
Y65110D02*
Y66210D01*
Y64610D02*
Y65010D01*
Y62610D02*
Y62910D01*
Y59010D02*
Y59410D01*
Y56910D02*
Y57310D01*
Y55510D02*
Y56710D01*
Y36610D02*
Y36810D01*
Y34310D02*
Y35810D01*
X8479Y85410D02*
Y86510D01*
Y83610D02*
Y84010D01*
Y64410D02*
Y66310D01*
Y62610D02*
Y63210D01*
Y58810D02*
Y59210D01*
Y57110D02*
Y57410D01*
Y55510D02*
Y56810D01*
Y36510D02*
Y36710D01*
Y34210D02*
Y35710D01*
X8379Y85710D02*
Y86810D01*
Y83710D02*
Y84010D01*
Y64910D02*
Y66310D01*
Y64210D02*
Y64810D01*
Y62810D02*
Y63310D01*
Y58610D02*
Y59110D01*
Y57110D02*
Y57710D01*
Y55410D02*
Y56810D01*
Y36410D02*
Y36610D01*
Y34710D02*
Y35810D01*
Y34110D02*
Y34610D01*
X8279Y86310D02*
Y87410D01*
Y83810D02*
Y84310D01*
Y64710D02*
Y66410D01*
Y63010D02*
Y64510D01*
Y57410D02*
Y58910D01*
Y55310D02*
Y57010D01*
Y35710D02*
Y36510D01*
Y34910D02*
Y35610D01*
Y34010D02*
Y34510D01*
X8179Y89210D02*
Y89610D01*
Y86610D02*
Y87810D01*
Y84010D02*
Y84310D01*
Y64810D02*
Y66510D01*
Y63210D02*
Y64310D01*
Y60810D02*
Y61010D01*
Y57510D02*
Y58810D01*
Y55310D02*
Y56910D01*
Y35910D02*
Y36310D01*
Y35010D02*
Y35510D01*
Y34010D02*
Y34410D01*
X8079Y89110D02*
Y89710D01*
Y86910D02*
Y88110D01*
Y84010D02*
Y84410D01*
Y64910D02*
Y66510D01*
Y63610D02*
Y64010D01*
Y60710D02*
Y61210D01*
Y57810D02*
Y58510D01*
Y55310D02*
Y56810D01*
Y36010D02*
Y36210D01*
Y34810D02*
Y35410D01*
Y33910D02*
Y34310D01*
X7979Y89010D02*
Y89810D01*
Y87210D02*
Y88410D01*
Y84110D02*
Y84610D01*
Y65010D02*
Y66410D01*
Y60610D02*
Y61210D01*
Y55310D02*
Y56810D01*
Y35110D02*
Y35310D01*
Y34710D02*
Y35010D01*
Y33810D02*
Y34310D01*
X7879Y87910D02*
Y89810D01*
Y84310D02*
Y84710D01*
Y65310D02*
Y66310D01*
Y62610D02*
Y62910D01*
Y60410D02*
Y61510D01*
Y59210D02*
Y59510D01*
Y55410D02*
Y56410D01*
Y34810D02*
Y35010D01*
Y33710D02*
Y34110D01*
X7779Y89610D02*
Y89910D01*
Y88410D02*
Y89210D01*
Y84410D02*
Y84910D01*
Y65610D02*
Y66310D01*
Y62510D02*
Y63110D01*
Y61310D02*
Y61610D01*
Y60210D02*
Y60510D01*
Y59010D02*
Y59510D01*
Y55510D02*
Y56210D01*
Y33610D02*
Y34010D01*
X7679Y89610D02*
Y89910D01*
Y88710D02*
Y89210D01*
Y84610D02*
Y85010D01*
Y65710D02*
Y66210D01*
Y62510D02*
Y63210D01*
Y61510D02*
Y61710D01*
Y60210D02*
Y60410D01*
Y58810D02*
Y59510D01*
Y55510D02*
Y56110D01*
Y33510D02*
Y34010D01*
X7579Y89610D02*
Y89910D01*
Y88910D02*
Y89210D01*
Y84710D02*
Y85210D01*
Y62710D02*
Y63610D01*
Y61510D02*
Y61710D01*
Y60110D02*
Y60310D01*
Y58510D02*
Y59310D01*
Y33410D02*
Y33910D01*
X7479Y89510D02*
Y89910D01*
Y88910D02*
Y89310D01*
Y84810D02*
Y85310D01*
Y62910D02*
Y63810D01*
Y60510D02*
Y61710D01*
Y60210D02*
Y60410D01*
Y58310D02*
Y59210D01*
Y33310D02*
Y33810D01*
X7379Y89010D02*
Y89810D01*
Y85010D02*
Y85410D01*
Y62910D02*
Y63910D01*
Y61010D02*
Y61710D01*
Y60510D02*
Y60710D01*
Y60210D02*
Y60410D01*
Y58110D02*
Y59110D01*
Y33310D02*
Y33710D01*
X7279Y89010D02*
Y89810D01*
Y85010D02*
Y85410D01*
Y63110D02*
Y64110D01*
Y61510D02*
Y61710D01*
Y60210D02*
Y60410D01*
Y58010D02*
Y58910D01*
Y33210D02*
Y33610D01*
X7179Y89110D02*
Y89610D01*
Y85310D02*
Y85710D01*
Y63510D02*
Y64610D01*
Y60510D02*
Y61710D01*
Y60110D02*
Y60310D01*
Y57510D02*
Y58610D01*
Y33210D02*
Y33510D01*
X7079Y85410D02*
Y85710D01*
Y63610D02*
Y64710D01*
Y63010D02*
Y63110D01*
Y61410D02*
Y61710D01*
Y60210D02*
Y60410D01*
Y58910D02*
Y59010D01*
Y57410D02*
Y58510D01*
X6979Y85410D02*
Y85910D01*
Y63710D02*
Y64910D01*
Y62910D02*
Y63210D01*
Y61510D02*
Y61710D01*
Y60210D02*
Y60410D01*
Y58910D02*
Y59110D01*
Y57110D02*
Y58310D01*
X6879Y85610D02*
Y86010D01*
Y63910D02*
Y65310D01*
Y62910D02*
Y63310D01*
Y60110D02*
Y61710D01*
Y58810D02*
Y59210D01*
Y56810D02*
Y58110D01*
X6779Y85710D02*
Y86210D01*
Y64110D02*
Y65410D01*
Y62910D02*
Y63410D01*
Y60210D02*
Y61610D01*
Y58710D02*
Y59110D01*
Y56710D02*
Y58010D01*
X6679Y85810D02*
Y86210D01*
Y64310D02*
Y65610D01*
Y62910D02*
Y63510D01*
Y60210D02*
Y61610D01*
Y58610D02*
Y59110D01*
Y56410D02*
Y57810D01*
X6579Y85910D02*
Y86410D01*
Y64410D02*
Y65710D01*
Y63010D02*
Y63610D01*
Y60210D02*
Y61710D01*
Y58510D02*
Y59010D01*
Y56410D02*
Y57710D01*
X6479Y86110D02*
Y86610D01*
Y64710D02*
Y66210D01*
Y63210D02*
Y63710D01*
Y60210D02*
Y61710D01*
Y58310D02*
Y58910D01*
Y55910D02*
Y57410D01*
X6379Y86210D02*
Y86710D01*
Y64910D02*
Y66310D01*
Y63210D02*
Y63810D01*
Y61110D02*
Y61710D01*
Y60210D02*
Y60610D01*
Y58310D02*
Y58810D01*
Y55710D02*
Y57210D01*
X6279Y86410D02*
Y86710D01*
Y64910D02*
Y66510D01*
Y63210D02*
Y63910D01*
Y61110D02*
Y61810D01*
Y60110D02*
Y60610D01*
Y58210D02*
Y58810D01*
Y55510D02*
Y57110D01*
X6179Y86510D02*
Y87010D01*
Y65310D02*
Y66610D01*
Y63310D02*
Y64010D01*
Y61510D02*
Y61910D01*
Y61110D02*
Y61410D01*
Y60510D02*
Y60610D01*
Y60010D02*
Y60410D01*
Y58110D02*
Y58710D01*
Y55410D02*
Y56810D01*
X6079Y86610D02*
Y87110D01*
Y65410D02*
Y66610D01*
Y63410D02*
Y64110D01*
Y61510D02*
Y61910D01*
Y61110D02*
Y61310D01*
Y60510D02*
Y60710D01*
Y59910D02*
Y60410D01*
Y58010D02*
Y58610D01*
Y55410D02*
Y56710D01*
X5979Y86710D02*
Y87110D01*
Y65510D02*
Y66610D01*
Y63510D02*
Y64210D01*
Y61510D02*
Y61910D01*
Y61010D02*
Y61310D01*
Y60610D02*
Y60810D01*
Y59910D02*
Y60310D01*
Y57910D02*
Y58610D01*
Y55510D02*
Y56510D01*
X5879Y86810D02*
Y87210D01*
Y65610D02*
Y66510D01*
Y63610D02*
Y64310D01*
Y61510D02*
Y62010D01*
Y61010D02*
Y61210D01*
Y60710D02*
Y60810D01*
Y59810D02*
Y60310D01*
Y57810D02*
Y58510D01*
Y55510D02*
Y56410D01*
X5779Y87710D02*
Y88110D01*
Y87110D02*
Y87410D01*
Y66010D02*
Y66410D01*
Y63610D02*
Y64410D01*
Y61710D02*
Y62110D01*
Y61010D02*
Y61210D01*
Y60710D02*
Y60810D01*
Y59810D02*
Y60210D01*
Y57710D02*
Y58410D01*
Y55710D02*
Y56110D01*
X5679Y87110D02*
Y88210D01*
Y66110D02*
Y66310D01*
Y63710D02*
Y64510D01*
Y61710D02*
Y62110D01*
Y61010D02*
Y61210D01*
Y60610D02*
Y60710D01*
Y59810D02*
Y60210D01*
Y57610D02*
Y58410D01*
Y55710D02*
Y55910D01*
X5579Y87210D02*
Y88310D01*
Y63810D02*
Y64610D01*
Y61710D02*
Y62210D01*
Y61010D02*
Y61310D01*
Y60610D02*
Y60710D01*
Y59710D02*
Y60210D01*
Y57510D02*
Y58310D01*
Y55710D02*
Y55810D01*
X5479Y87410D02*
Y88410D01*
Y63910D02*
Y64710D01*
Y61910D02*
Y62210D01*
Y61010D02*
Y61310D01*
Y60710D02*
Y60810D01*
Y60510D02*
Y60610D01*
Y59610D02*
Y60010D01*
Y57410D02*
Y58210D01*
X5379Y88110D02*
Y88410D01*
Y87410D02*
Y87710D01*
Y63910D02*
Y64810D01*
Y61910D02*
Y62310D01*
Y61510D02*
Y61710D01*
Y61310D02*
Y61410D01*
Y61110D02*
Y61210D01*
Y60710D02*
Y60810D01*
Y60510D02*
Y60610D01*
Y59510D02*
Y60010D01*
Y57310D02*
Y58110D01*
X5279Y88110D02*
Y88410D01*
Y87410D02*
Y87710D01*
Y63910D02*
Y64910D01*
Y61910D02*
Y62310D01*
Y61610D02*
Y61710D01*
Y61310D02*
Y61410D01*
Y60710D02*
Y61210D01*
Y59510D02*
Y59910D01*
Y57210D02*
Y58110D01*
X5179Y88110D02*
Y88410D01*
Y87410D02*
Y87710D01*
Y64010D02*
Y64610D01*
Y61910D02*
Y62310D01*
Y59510D02*
Y59810D01*
Y57410D02*
Y58010D01*
X5079Y88110D02*
Y88410D01*
Y87410D02*
Y87710D01*
Y64210D02*
Y64310D01*
Y62010D02*
Y62410D01*
Y61710D02*
Y61910D01*
Y61410D02*
Y61510D01*
Y59510D02*
Y59810D01*
Y57810D02*
Y57910D01*
X4979Y87410D02*
Y88410D01*
Y62010D02*
Y62410D01*
Y61710D02*
Y61910D01*
Y61410D02*
Y61510D01*
Y60410D02*
Y60510D01*
Y59510D02*
Y59810D01*
X4879Y87510D02*
Y88310D01*
Y62010D02*
Y62410D01*
Y61810D02*
Y61910D01*
Y61410D02*
Y61510D01*
Y60810D02*
Y61010D01*
Y60410D02*
Y60510D01*
Y59510D02*
Y59810D01*
X4779Y87610D02*
Y88110D01*
Y62010D02*
Y62410D01*
Y61810D02*
Y61910D01*
Y59510D02*
Y59810D01*
X4679Y87710D02*
Y88110D01*
Y62010D02*
Y62410D01*
Y61810D02*
Y61910D01*
Y59510D02*
Y59810D01*
X4579Y62010D02*
Y62410D01*
Y59510D02*
Y59810D01*
X4479Y62010D02*
Y62410D01*
Y59510D02*
Y59810D01*
X4379Y62010D02*
Y62410D01*
Y59510D02*
Y59810D01*
X4279Y62010D02*
Y62310D01*
Y59510D02*
Y59810D01*
X4179Y62010D02*
Y62310D01*
Y59510D02*
Y59810D01*
X4079Y61910D02*
Y62310D01*
Y59510D02*
Y60010D01*
X3979Y61810D02*
Y62210D01*
Y59610D02*
Y60110D01*
X3879Y61610D02*
Y62210D01*
Y59710D02*
Y60210D01*
X3779Y61510D02*
Y62110D01*
Y59810D02*
Y60410D01*
X3679Y59810D02*
Y62010D01*
X3579Y60010D02*
Y61910D01*
X3479Y60210D02*
Y61710D01*
X3379Y60510D02*
Y61310D01*
M02*
