G04 Layer_Physical_Order=1*
G04 Layer_Color=255*
%FSLAX25Y25*%
%MOIN*%
G70*
G01*
G75*
%ADD10R,0.06693X0.07874*%
%ADD11R,0.07874X0.06693*%
%ADD12C,0.01500*%
%ADD13C,0.02000*%
%ADD14O,0.08000X0.06000*%
%ADD15C,0.06000*%
%ADD16C,0.20945*%
%ADD17C,0.05000*%
G36*
X335473Y116110D02*
X335417Y116076D01*
X333975Y114844D01*
X332743Y113402D01*
X331752Y111785D01*
X331027Y110034D01*
X330584Y108190D01*
X330435Y106299D01*
X330584Y104409D01*
X331027Y102565D01*
X331200Y102146D01*
X329505Y101013D01*
X324888Y105630D01*
X324976Y106299D01*
X324836Y107363D01*
X324426Y108354D01*
X323772Y109205D01*
X322921Y109859D01*
X321930Y110269D01*
X320866Y110409D01*
X319802Y110269D01*
X318811Y109859D01*
X317960Y109205D01*
X317307Y108354D01*
X316896Y107363D01*
X316756Y106299D01*
X316896Y105236D01*
X317307Y104244D01*
X317960Y103393D01*
X318811Y102740D01*
X319802Y102329D01*
X320866Y102189D01*
X321536Y102277D01*
X331291Y92522D01*
Y76339D01*
X331471Y75432D01*
X331985Y74663D01*
X337874Y68774D01*
X338248Y68524D01*
Y65905D01*
X347797D01*
Y55921D01*
X338971D01*
X328012Y66880D01*
Y75748D01*
X316988D01*
Y65905D01*
X322282D01*
X338248Y49940D01*
Y46079D01*
X347063D01*
X347493Y44079D01*
X345162Y41748D01*
X338248D01*
Y34834D01*
X327450Y24036D01*
X325503Y24918D01*
Y31905D01*
X328012D01*
Y41748D01*
X316988D01*
Y31905D01*
X320763D01*
Y25146D01*
X317851Y22235D01*
X308921D01*
Y24252D01*
X299079D01*
Y13228D01*
X308921D01*
Y17494D01*
X318080D01*
X318961Y15547D01*
X313885Y10471D01*
X288596D01*
X287604Y12471D01*
X288180Y13228D01*
X294748D01*
Y24252D01*
X284906D01*
Y17453D01*
X277916Y10463D01*
X277854Y10471D01*
X255080D01*
X254088Y12471D01*
X254664Y13228D01*
X261319D01*
Y24252D01*
X251477D01*
Y17540D01*
X244408Y10471D01*
X221563D01*
X220572Y12471D01*
X221147Y13228D01*
X227891D01*
Y24252D01*
X218048D01*
Y17628D01*
X210892Y10471D01*
X188047D01*
X187056Y12471D01*
X187631Y13228D01*
X194462D01*
Y24252D01*
X184620D01*
Y17715D01*
X177376Y10471D01*
X154531D01*
X153540Y12471D01*
X154115Y13228D01*
X161034D01*
Y24252D01*
X151191D01*
Y17803D01*
X143860Y10471D01*
X121556D01*
X120564Y12471D01*
X121140Y13228D01*
X127605D01*
Y24252D01*
X117763D01*
Y17990D01*
X110243Y10471D01*
X88977D01*
X87985Y12471D01*
X88561Y13228D01*
X94177D01*
Y24252D01*
X84334D01*
Y17141D01*
X77664Y10471D01*
X69389D01*
X68814Y11228D01*
X69805Y13228D01*
X74921D01*
Y22849D01*
X86561Y34488D01*
X94177D01*
Y45512D01*
X84334D01*
Y38966D01*
X69620Y24252D01*
X65079D01*
Y16601D01*
X63231Y15835D01*
X60748Y18318D01*
Y24252D01*
X50906D01*
Y22462D01*
X48042D01*
X45510Y24993D01*
Y40650D01*
X45422Y41322D01*
X45162Y41948D01*
X44750Y42486D01*
X42092Y45143D01*
X41554Y45556D01*
X40928Y45816D01*
X40256Y45904D01*
X35304D01*
X34869Y46471D01*
X34179Y47001D01*
X34033Y48130D01*
X34179Y49259D01*
X34869Y49788D01*
X35602Y50744D01*
X35658Y50878D01*
X46978D01*
X47389Y50342D01*
X48240Y49689D01*
X49231Y49278D01*
X50295Y49138D01*
X51359Y49278D01*
X51535Y49351D01*
X53326Y48374D01*
X53535Y48093D01*
Y45512D01*
X50906D01*
Y34488D01*
X60748D01*
Y45512D01*
X58276D01*
Y66000D01*
X60276Y66859D01*
X60461Y66716D01*
X61435Y66313D01*
X61979Y66242D01*
Y70210D01*
X62479D01*
Y70710D01*
X66447D01*
X66376Y71254D01*
X65973Y72228D01*
X65332Y73063D01*
X64496Y73704D01*
X64102Y73867D01*
X64031Y74182D01*
X64160Y75955D01*
X64786Y76214D01*
X65741Y76947D01*
X66475Y77903D01*
X66936Y79016D01*
X67093Y80210D01*
X66936Y81405D01*
X66475Y82517D01*
X65741Y83473D01*
X64919Y84104D01*
X64786Y85107D01*
Y85314D01*
X64919Y86316D01*
X65741Y86948D01*
X66475Y87903D01*
X66936Y89016D01*
X67093Y90210D01*
X66936Y91404D01*
X66475Y92517D01*
X65741Y93473D01*
X64786Y94206D01*
X63673Y94667D01*
X62479Y94824D01*
X61285Y94667D01*
X60172Y94206D01*
X59216Y93473D01*
X58483Y92517D01*
X58022Y91404D01*
X57864Y90210D01*
X58022Y89016D01*
X58483Y87903D01*
X59216Y86948D01*
X60039Y86316D01*
X60172Y85314D01*
Y85107D01*
X60039Y84104D01*
X59216Y83473D01*
X58483Y82517D01*
X58144Y81699D01*
X57118Y81252D01*
X55958Y81055D01*
X52660Y84353D01*
X51891Y84867D01*
X50984Y85048D01*
X35478D01*
X34869Y85842D01*
X33913Y86575D01*
X32800Y87036D01*
X31606Y87193D01*
X29606D01*
X28412Y87036D01*
X27299Y86575D01*
X26343Y85842D01*
X25610Y84886D01*
X25149Y83773D01*
X24992Y82579D01*
X25149Y81384D01*
X25610Y80272D01*
X26343Y79316D01*
X27033Y78787D01*
X27179Y77658D01*
X27033Y76528D01*
X26343Y75999D01*
X25610Y75043D01*
X25149Y73931D01*
X24992Y72736D01*
X25149Y71542D01*
X25610Y70429D01*
X26343Y69473D01*
X27033Y68944D01*
X27179Y67815D01*
X27033Y66686D01*
X26343Y66157D01*
X25610Y65201D01*
X25149Y64088D01*
X24992Y62894D01*
X25149Y61699D01*
X25610Y60587D01*
X26343Y59631D01*
X27033Y59102D01*
X27179Y57972D01*
X27033Y56843D01*
X26343Y56314D01*
X25610Y55358D01*
X25149Y54245D01*
X24992Y53051D01*
X25149Y51857D01*
X25610Y50744D01*
X26343Y49788D01*
X27033Y49259D01*
X27179Y48130D01*
X27033Y47001D01*
X26343Y46471D01*
X25610Y45516D01*
X25149Y44403D01*
X24992Y43209D01*
X25149Y42014D01*
X25610Y40901D01*
X26343Y39946D01*
X27299Y39213D01*
X27670Y39059D01*
X27694Y36904D01*
X27589Y36860D01*
X26753Y36219D01*
X26112Y35383D01*
X25709Y34410D01*
X25637Y33866D01*
X30606D01*
X35575D01*
X35503Y34410D01*
X35100Y35383D01*
X34459Y36219D01*
X33623Y36860D01*
X33518Y36904D01*
X33542Y39059D01*
X33913Y39213D01*
X34869Y39946D01*
X35455Y40710D01*
X39180D01*
X40316Y39574D01*
Y23917D01*
X40405Y23245D01*
X40664Y22619D01*
X41077Y22081D01*
X45130Y18028D01*
X45668Y17616D01*
X46294Y17356D01*
X46966Y17267D01*
X50906D01*
Y13228D01*
X58493D01*
X65683Y6038D01*
X66221Y5625D01*
X66847Y5365D01*
X67520Y5277D01*
X144587D01*
X144601Y5279D01*
X144615Y5277D01*
X211122D01*
X211385Y5311D01*
X211647Y5277D01*
X244685D01*
X244924Y5308D01*
X245163Y5277D01*
X277854D01*
X278267Y5331D01*
X278679Y5277D01*
X314961D01*
X315633Y5365D01*
X316259Y5625D01*
X316797Y6038D01*
X342665Y31905D01*
X349272D01*
Y38512D01*
X352230Y41471D01*
X352331Y41602D01*
X354073Y41225D01*
X354331Y41083D01*
Y19422D01*
X352331Y18858D01*
X352296Y18914D01*
X351065Y20356D01*
X349623Y21588D01*
X348006Y22578D01*
X346254Y23304D01*
X344410Y23747D01*
X342520Y23896D01*
X340629Y23747D01*
X338785Y23304D01*
X337033Y22578D01*
X335417Y21588D01*
X333975Y20356D01*
X332743Y18914D01*
X331752Y17297D01*
X331027Y15545D01*
X330584Y13701D01*
X330435Y11811D01*
X330584Y9921D01*
X331027Y8077D01*
X331752Y6325D01*
X332743Y4708D01*
X333975Y3266D01*
X335417Y2035D01*
X335473Y2000D01*
X334909Y0D01*
X19422D01*
X18858Y2000D01*
X18914Y2035D01*
X20356Y3266D01*
X21588Y4708D01*
X22578Y6325D01*
X23304Y8077D01*
X23747Y9921D01*
X23896Y11811D01*
X23747Y13701D01*
X23304Y15545D01*
X22578Y17297D01*
X21588Y18914D01*
X20356Y20356D01*
X18914Y21588D01*
X17297Y22578D01*
X15545Y23304D01*
X13701Y23747D01*
X11811Y23896D01*
X9921Y23747D01*
X8077Y23304D01*
X6325Y22578D01*
X4708Y21588D01*
X3266Y20356D01*
X2035Y18914D01*
X2000Y18858D01*
X0Y19422D01*
Y98688D01*
X2000Y99252D01*
X2035Y99196D01*
X3266Y97754D01*
X4708Y96523D01*
X6325Y95532D01*
X8077Y94806D01*
X9921Y94363D01*
X11811Y94215D01*
X13701Y94363D01*
X15545Y94806D01*
X17297Y95532D01*
X18914Y96523D01*
X20356Y97754D01*
X21588Y99196D01*
X22578Y100813D01*
X23304Y102565D01*
X23747Y104409D01*
X23896Y106299D01*
X23747Y108190D01*
X23304Y110034D01*
X22578Y111785D01*
X21588Y113402D01*
X20356Y114844D01*
X18914Y116076D01*
X18858Y116110D01*
X19422Y118110D01*
X334909D01*
X335473Y116110D01*
D02*
G37*
G36*
X354331Y98688D02*
Y69330D01*
X354073Y69189D01*
X352331Y68812D01*
X352230Y68943D01*
X349272Y71901D01*
Y75748D01*
X338248D01*
Y75748D01*
X337793Y75560D01*
X336032Y77320D01*
Y93504D01*
X335965Y93841D01*
X336275Y94332D01*
X337122Y95086D01*
X337555Y95316D01*
X338785Y94806D01*
X340629Y94363D01*
X342520Y94215D01*
X344410Y94363D01*
X346254Y94806D01*
X348006Y95532D01*
X349623Y96523D01*
X351065Y97754D01*
X352296Y99196D01*
X352331Y99252D01*
X354331Y98688D01*
D02*
G37*
G36*
X53535Y76774D02*
Y58403D01*
X53326Y58122D01*
X51535Y57145D01*
X51359Y57218D01*
X50295Y57358D01*
X49231Y57218D01*
X48240Y56807D01*
X47389Y56154D01*
X46978Y55618D01*
X35403D01*
X34869Y56314D01*
X34179Y56843D01*
X34033Y57972D01*
X34179Y59102D01*
X34869Y59631D01*
X35602Y60587D01*
X35617Y60622D01*
X41663D01*
X42074Y60086D01*
X42925Y59433D01*
X43917Y59022D01*
X44980Y58882D01*
X46044Y59022D01*
X47035Y59433D01*
X47886Y60086D01*
X48540Y60937D01*
X48950Y61928D01*
X49090Y62992D01*
X48950Y64056D01*
X48540Y65047D01*
X47886Y65898D01*
X47035Y66551D01*
X46044Y66962D01*
X44980Y67102D01*
X43917Y66962D01*
X42925Y66551D01*
X42074Y65898D01*
X41663Y65363D01*
X35478D01*
X34869Y66157D01*
X34179Y66686D01*
X34033Y67815D01*
X34179Y68944D01*
X34869Y69473D01*
X37258Y69470D01*
X37512Y69275D01*
X38503Y68865D01*
X39567Y68725D01*
X40631Y68865D01*
X41622Y69275D01*
X42473Y69928D01*
X43126Y70780D01*
X43537Y71771D01*
X43677Y72835D01*
X43537Y73898D01*
X43126Y74890D01*
X42473Y75741D01*
X41622Y76394D01*
X40631Y76805D01*
X39567Y76945D01*
X38503Y76805D01*
X37512Y76394D01*
X37107Y76083D01*
X34869Y75999D01*
X34179Y76528D01*
X34033Y77658D01*
X34179Y78787D01*
X34869Y79316D01*
X35602Y80272D01*
X35617Y80307D01*
X50002D01*
X53535Y76774D01*
D02*
G37*
%LPC*%
G36*
X28000Y100964D02*
Y98000D01*
X30964D01*
X30910Y98414D01*
X30557Y99265D01*
X29996Y99996D01*
X29265Y100557D01*
X28414Y100910D01*
X28000Y100964D01*
D02*
G37*
G36*
X27000D02*
X26586Y100910D01*
X25735Y100557D01*
X25004Y99996D01*
X24443Y99265D01*
X24090Y98414D01*
X24036Y98000D01*
X27000D01*
Y100964D01*
D02*
G37*
G36*
X30964Y97000D02*
X28000D01*
Y94036D01*
X28414Y94090D01*
X29265Y94443D01*
X29996Y95004D01*
X30557Y95735D01*
X30910Y96586D01*
X30964Y97000D01*
D02*
G37*
G36*
X27000D02*
X24036D01*
X24090Y96586D01*
X24443Y95735D01*
X25004Y95004D01*
X25735Y94443D01*
X26586Y94090D01*
X27000Y94036D01*
Y97000D01*
D02*
G37*
G36*
X327437Y89346D02*
X323000D01*
Y85500D01*
X327437D01*
Y89346D01*
D02*
G37*
G36*
X322000D02*
X317563D01*
Y85500D01*
X322000D01*
Y89346D01*
D02*
G37*
G36*
X327437Y84500D02*
X323000D01*
Y80654D01*
X327437D01*
Y84500D01*
D02*
G37*
G36*
X322000D02*
X317563D01*
Y80654D01*
X322000D01*
Y84500D01*
D02*
G37*
G36*
X296379Y94824D02*
X295184Y94667D01*
X294072Y94206D01*
X293116Y93473D01*
X292383Y92517D01*
X291922Y91404D01*
X291764Y90210D01*
X291922Y89016D01*
X292383Y87903D01*
X293116Y86948D01*
X293939Y86316D01*
X294072Y85314D01*
Y85107D01*
X293939Y84104D01*
X293116Y83473D01*
X292383Y82517D01*
X291922Y81405D01*
X291764Y80210D01*
X291922Y79016D01*
X292383Y77903D01*
X293116Y76947D01*
X294072Y76214D01*
X294697Y75955D01*
X294827Y74182D01*
X294755Y73867D01*
X294361Y73704D01*
X293526Y73063D01*
X292885Y72228D01*
X292482Y71254D01*
X292410Y70710D01*
X296379D01*
X300347D01*
X300276Y71254D01*
X299873Y72228D01*
X299232Y73063D01*
X298396Y73704D01*
X298002Y73867D01*
X297931Y74182D01*
X298060Y75955D01*
X298686Y76214D01*
X299641Y76947D01*
X300375Y77903D01*
X300836Y79016D01*
X300993Y80210D01*
X300836Y81405D01*
X300375Y82517D01*
X299641Y83473D01*
X298819Y84104D01*
X298686Y85107D01*
Y85314D01*
X298819Y86316D01*
X299641Y86948D01*
X300375Y87903D01*
X300836Y89016D01*
X300993Y90210D01*
X300836Y91404D01*
X300375Y92517D01*
X299641Y93473D01*
X298686Y94206D01*
X297573Y94667D01*
X296379Y94824D01*
D02*
G37*
G36*
X263079D02*
X261884Y94667D01*
X260772Y94206D01*
X259816Y93473D01*
X259083Y92517D01*
X258622Y91404D01*
X258465Y90210D01*
X258622Y89016D01*
X259083Y87903D01*
X259816Y86948D01*
X260639Y86316D01*
X260772Y85314D01*
Y85107D01*
X260639Y84104D01*
X259816Y83473D01*
X259083Y82517D01*
X258622Y81405D01*
X258465Y80210D01*
X258622Y79016D01*
X259083Y77903D01*
X259816Y76947D01*
X260772Y76214D01*
X261397Y75955D01*
X261527Y74182D01*
X261455Y73867D01*
X261062Y73704D01*
X260226Y73063D01*
X259585Y72228D01*
X259182Y71254D01*
X259110Y70710D01*
X263079D01*
X267047D01*
X266976Y71254D01*
X266573Y72228D01*
X265932Y73063D01*
X265096Y73704D01*
X264702Y73867D01*
X264631Y74182D01*
X264760Y75955D01*
X265386Y76214D01*
X266341Y76947D01*
X267075Y77903D01*
X267536Y79016D01*
X267693Y80210D01*
X267536Y81405D01*
X267075Y82517D01*
X266341Y83473D01*
X265519Y84104D01*
X265386Y85107D01*
Y85314D01*
X265519Y86316D01*
X266341Y86948D01*
X267075Y87903D01*
X267536Y89016D01*
X267693Y90210D01*
X267536Y91404D01*
X267075Y92517D01*
X266341Y93473D01*
X265386Y94206D01*
X264273Y94667D01*
X263079Y94824D01*
D02*
G37*
G36*
X196279D02*
X195085Y94667D01*
X193972Y94206D01*
X193016Y93473D01*
X192283Y92517D01*
X191822Y91404D01*
X191665Y90210D01*
X191822Y89016D01*
X192283Y87903D01*
X193016Y86948D01*
X193839Y86316D01*
X193972Y85314D01*
Y85107D01*
X193839Y84104D01*
X193016Y83473D01*
X192283Y82517D01*
X191822Y81405D01*
X191665Y80210D01*
X191822Y79016D01*
X192283Y77903D01*
X193016Y76947D01*
X193972Y76214D01*
X194597Y75955D01*
X194727Y74182D01*
X194655Y73867D01*
X194262Y73704D01*
X193426Y73063D01*
X192785Y72228D01*
X192382Y71254D01*
X192310Y70710D01*
X196279D01*
X200247D01*
X200176Y71254D01*
X199773Y72228D01*
X199132Y73063D01*
X198296Y73704D01*
X197902Y73867D01*
X197830Y74182D01*
X197960Y75955D01*
X198586Y76214D01*
X199541Y76947D01*
X200275Y77903D01*
X200736Y79016D01*
X200893Y80210D01*
X200736Y81405D01*
X200275Y82517D01*
X199541Y83473D01*
X198719Y84104D01*
X198586Y85107D01*
Y85314D01*
X198719Y86316D01*
X199541Y86948D01*
X200275Y87903D01*
X200736Y89016D01*
X200893Y90210D01*
X200736Y91404D01*
X200275Y92517D01*
X199541Y93473D01*
X198586Y94206D01*
X197473Y94667D01*
X196279Y94824D01*
D02*
G37*
G36*
X162879D02*
X161685Y94667D01*
X160572Y94206D01*
X159616Y93473D01*
X158883Y92517D01*
X158422Y91404D01*
X158265Y90210D01*
X158422Y89016D01*
X158883Y87903D01*
X159616Y86948D01*
X160439Y86316D01*
X160572Y85314D01*
Y85107D01*
X160439Y84104D01*
X159616Y83473D01*
X158883Y82517D01*
X158422Y81405D01*
X158265Y80210D01*
X158422Y79016D01*
X158883Y77903D01*
X159616Y76947D01*
X160572Y76214D01*
X161197Y75955D01*
X161327Y74182D01*
X161255Y73867D01*
X160862Y73704D01*
X160026Y73063D01*
X159385Y72228D01*
X158982Y71254D01*
X158910Y70710D01*
X162879D01*
X166847D01*
X166776Y71254D01*
X166373Y72228D01*
X165732Y73063D01*
X164896Y73704D01*
X164502Y73867D01*
X164430Y74182D01*
X164560Y75955D01*
X165186Y76214D01*
X166141Y76947D01*
X166875Y77903D01*
X167336Y79016D01*
X167493Y80210D01*
X167336Y81405D01*
X166875Y82517D01*
X166141Y83473D01*
X165319Y84104D01*
X165186Y85107D01*
Y85314D01*
X165319Y86316D01*
X166141Y86948D01*
X166875Y87903D01*
X167336Y89016D01*
X167493Y90210D01*
X167336Y91404D01*
X166875Y92517D01*
X166141Y93473D01*
X165186Y94206D01*
X164073Y94667D01*
X162879Y94824D01*
D02*
G37*
G36*
X129479D02*
X128285Y94667D01*
X127172Y94206D01*
X126216Y93473D01*
X125483Y92517D01*
X125022Y91404D01*
X124864Y90210D01*
X125022Y89016D01*
X125483Y87903D01*
X126216Y86948D01*
X127039Y86316D01*
X127172Y85314D01*
Y85107D01*
X127039Y84104D01*
X126216Y83473D01*
X125483Y82517D01*
X125022Y81405D01*
X124864Y80210D01*
X125022Y79016D01*
X125483Y77903D01*
X126216Y76947D01*
X127172Y76214D01*
X127797Y75955D01*
X127927Y74182D01*
X127855Y73867D01*
X127462Y73704D01*
X126626Y73063D01*
X125985Y72228D01*
X125582Y71254D01*
X125510Y70710D01*
X129479D01*
X133447D01*
X133376Y71254D01*
X132973Y72228D01*
X132332Y73063D01*
X131496Y73704D01*
X131102Y73867D01*
X131030Y74182D01*
X131160Y75955D01*
X131786Y76214D01*
X132741Y76947D01*
X133475Y77903D01*
X133936Y79016D01*
X134093Y80210D01*
X133936Y81405D01*
X133475Y82517D01*
X132741Y83473D01*
X131919Y84104D01*
X131786Y85107D01*
Y85314D01*
X131919Y86316D01*
X132741Y86948D01*
X133475Y87903D01*
X133936Y89016D01*
X134093Y90210D01*
X133936Y91404D01*
X133475Y92517D01*
X132741Y93473D01*
X131786Y94206D01*
X130673Y94667D01*
X129479Y94824D01*
D02*
G37*
G36*
X229979D02*
X228784Y94667D01*
X227672Y94206D01*
X226716Y93473D01*
X225983Y92517D01*
X225522Y91404D01*
X225364Y90210D01*
X225522Y89016D01*
X225983Y87903D01*
X226716Y86948D01*
X227539Y86316D01*
X227672Y85314D01*
Y85107D01*
X227539Y84104D01*
X226716Y83473D01*
X225983Y82517D01*
X225522Y81405D01*
X225364Y80210D01*
X225522Y79016D01*
X225983Y77903D01*
X226716Y76947D01*
X227672Y76214D01*
X228297Y75955D01*
X228427Y74182D01*
X228355Y73867D01*
X227961Y73704D01*
X227126Y73063D01*
X226485Y72228D01*
X226082Y71254D01*
X226010Y70710D01*
X229979D01*
Y70210D01*
D01*
Y70710D01*
X233947D01*
X233876Y71254D01*
X233473Y72228D01*
X232832Y73063D01*
X231996Y73704D01*
X231602Y73867D01*
X231530Y74182D01*
X231660Y75955D01*
X232286Y76214D01*
X233242Y76947D01*
X233975Y77903D01*
X234436Y79016D01*
X234593Y80210D01*
X234436Y81405D01*
X233975Y82517D01*
X233242Y83473D01*
X232419Y84104D01*
X232286Y85107D01*
Y85314D01*
X232419Y86316D01*
X233242Y86948D01*
X233975Y87903D01*
X234436Y89016D01*
X234593Y90210D01*
X234436Y91404D01*
X233975Y92517D01*
X233242Y93473D01*
X232286Y94206D01*
X231173Y94667D01*
X229979Y94824D01*
D02*
G37*
G36*
X95679D02*
X94485Y94667D01*
X93372Y94206D01*
X92416Y93473D01*
X91683Y92517D01*
X91222Y91404D01*
X91065Y90210D01*
X91222Y89016D01*
X91683Y87903D01*
X92416Y86948D01*
X93239Y86316D01*
X93372Y85314D01*
Y85107D01*
X93239Y84104D01*
X92416Y83473D01*
X91683Y82517D01*
X91222Y81405D01*
X91065Y80210D01*
X91222Y79016D01*
X91683Y77903D01*
X92416Y76947D01*
X93372Y76214D01*
X93997Y75955D01*
X94127Y74182D01*
X94055Y73867D01*
X93661Y73704D01*
X92826Y73063D01*
X92185Y72228D01*
X91782Y71254D01*
X91710Y70710D01*
X95679D01*
Y70210D01*
D01*
Y70710D01*
X99647D01*
X99576Y71254D01*
X99173Y72228D01*
X98532Y73063D01*
X97696Y73704D01*
X97302Y73867D01*
X97231Y74182D01*
X97360Y75955D01*
X97986Y76214D01*
X98941Y76947D01*
X99675Y77903D01*
X100136Y79016D01*
X100293Y80210D01*
X100136Y81405D01*
X99675Y82517D01*
X98941Y83473D01*
X98119Y84104D01*
X97986Y85107D01*
Y85314D01*
X98119Y86316D01*
X98941Y86948D01*
X99675Y87903D01*
X100136Y89016D01*
X100293Y90210D01*
X100136Y91404D01*
X99675Y92517D01*
X98941Y93473D01*
X97986Y94206D01*
X96873Y94667D01*
X95679Y94824D01*
D02*
G37*
G36*
X174927Y70181D02*
Y67216D01*
X177892D01*
X177837Y67630D01*
X177485Y68481D01*
X176924Y69213D01*
X176193Y69774D01*
X175341Y70126D01*
X174927Y70181D01*
D02*
G37*
G36*
X173927D02*
X173514Y70126D01*
X172662Y69774D01*
X171931Y69213D01*
X171370Y68481D01*
X171018Y67630D01*
X170963Y67216D01*
X173927D01*
Y70181D01*
D02*
G37*
G36*
X300347Y69710D02*
X296879D01*
Y66242D01*
X297423Y66313D01*
X298396Y66716D01*
X299232Y67357D01*
X299873Y68193D01*
X300276Y69166D01*
X300347Y69710D01*
D02*
G37*
G36*
X267047D02*
X263579D01*
Y66242D01*
X264123Y66313D01*
X265096Y66716D01*
X265932Y67357D01*
X266573Y68193D01*
X266976Y69166D01*
X267047Y69710D01*
D02*
G37*
G36*
X233947D02*
X230479D01*
Y66242D01*
X231023Y66313D01*
X231996Y66716D01*
X232832Y67357D01*
X233473Y68193D01*
X233876Y69166D01*
X233947Y69710D01*
D02*
G37*
G36*
X200247D02*
X196779D01*
Y66242D01*
X197323Y66313D01*
X198296Y66716D01*
X199132Y67357D01*
X199773Y68193D01*
X200176Y69166D01*
X200247Y69710D01*
D02*
G37*
G36*
X166847D02*
X163379D01*
Y66242D01*
X163923Y66313D01*
X164896Y66716D01*
X165732Y67357D01*
X166373Y68193D01*
X166776Y69166D01*
X166847Y69710D01*
D02*
G37*
G36*
X133447D02*
X129979D01*
Y66242D01*
X130523Y66313D01*
X131496Y66716D01*
X132332Y67357D01*
X132973Y68193D01*
X133376Y69166D01*
X133447Y69710D01*
D02*
G37*
G36*
X99647D02*
X96179D01*
Y66242D01*
X96723Y66313D01*
X97696Y66716D01*
X98532Y67357D01*
X99173Y68193D01*
X99576Y69166D01*
X99647Y69710D01*
D02*
G37*
G36*
X66447D02*
X62979D01*
Y66242D01*
X63523Y66313D01*
X64496Y66716D01*
X65332Y67357D01*
X65973Y68193D01*
X66376Y69166D01*
X66447Y69710D01*
D02*
G37*
G36*
X295879D02*
X292410D01*
X292482Y69166D01*
X292885Y68193D01*
X293526Y67357D01*
X294361Y66716D01*
X295335Y66313D01*
X295879Y66242D01*
Y69710D01*
D02*
G37*
G36*
X262579D02*
X259110D01*
X259182Y69166D01*
X259585Y68193D01*
X260226Y67357D01*
X261062Y66716D01*
X262035Y66313D01*
X262579Y66242D01*
Y69710D01*
D02*
G37*
G36*
X229479D02*
X226010D01*
X226082Y69166D01*
X226485Y68193D01*
X227126Y67357D01*
X227961Y66716D01*
X228935Y66313D01*
X229479Y66242D01*
Y69710D01*
D02*
G37*
G36*
X195779D02*
X192310D01*
X192382Y69166D01*
X192785Y68193D01*
X193426Y67357D01*
X194262Y66716D01*
X195235Y66313D01*
X195779Y66242D01*
Y69710D01*
D02*
G37*
G36*
X162379D02*
X158910D01*
X158982Y69166D01*
X159385Y68193D01*
X160026Y67357D01*
X160862Y66716D01*
X161835Y66313D01*
X162379Y66242D01*
Y69710D01*
D02*
G37*
G36*
X128979D02*
X125510D01*
X125582Y69166D01*
X125985Y68193D01*
X126626Y67357D01*
X127462Y66716D01*
X128435Y66313D01*
X128979Y66242D01*
Y69710D01*
D02*
G37*
G36*
X95179D02*
X91710D01*
X91782Y69166D01*
X92185Y68193D01*
X92826Y67357D01*
X93661Y66716D01*
X94634Y66313D01*
X95179Y66242D01*
Y69710D01*
D02*
G37*
G36*
X177892Y66216D02*
X174927D01*
Y63252D01*
X175341Y63306D01*
X176193Y63659D01*
X176924Y64220D01*
X177485Y64951D01*
X177837Y65803D01*
X177892Y66216D01*
D02*
G37*
G36*
X173927D02*
X170963D01*
X171018Y65803D01*
X171370Y64951D01*
X171931Y64220D01*
X172662Y63659D01*
X173514Y63306D01*
X173927Y63252D01*
Y66216D01*
D02*
G37*
G36*
X296957Y54646D02*
Y51681D01*
X299921D01*
X299867Y52095D01*
X299514Y52946D01*
X298953Y53677D01*
X298222Y54238D01*
X297370Y54591D01*
X296957Y54646D01*
D02*
G37*
G36*
X295957D02*
X295543Y54591D01*
X294692Y54238D01*
X293960Y53677D01*
X293399Y52946D01*
X293047Y52095D01*
X292992Y51681D01*
X295957D01*
Y54646D01*
D02*
G37*
G36*
X327437Y55347D02*
X323000D01*
Y51500D01*
X327437D01*
Y55347D01*
D02*
G37*
G36*
X322000D02*
X317563D01*
Y51500D01*
X322000D01*
Y55347D01*
D02*
G37*
G36*
X96169Y54252D02*
Y51287D01*
X99134D01*
X99079Y51701D01*
X98726Y52552D01*
X98166Y53284D01*
X97434Y53845D01*
X96583Y54197D01*
X96169Y54252D01*
D02*
G37*
G36*
X95169D02*
X94756Y54197D01*
X93904Y53845D01*
X93173Y53284D01*
X92612Y52552D01*
X92259Y51701D01*
X92205Y51287D01*
X95169D01*
Y54252D01*
D02*
G37*
G36*
X299921Y50681D02*
X296957D01*
Y47717D01*
X297370Y47771D01*
X298222Y48124D01*
X298953Y48685D01*
X299514Y49416D01*
X299867Y50267D01*
X299921Y50681D01*
D02*
G37*
G36*
X295957D02*
X292992D01*
X293047Y50267D01*
X293399Y49416D01*
X293960Y48685D01*
X294692Y48124D01*
X295543Y47771D01*
X295957Y47717D01*
Y50681D01*
D02*
G37*
G36*
X99134Y50287D02*
X96169D01*
Y47323D01*
X96583Y47377D01*
X97434Y47730D01*
X98166Y48291D01*
X98726Y49022D01*
X99079Y49874D01*
X99134Y50287D01*
D02*
G37*
G36*
X95169D02*
X92205D01*
X92259Y49874D01*
X92612Y49022D01*
X93173Y48291D01*
X93904Y47730D01*
X94756Y47377D01*
X95169Y47323D01*
Y50287D01*
D02*
G37*
G36*
X327437Y50500D02*
X323000D01*
Y46654D01*
X327437D01*
Y50500D01*
D02*
G37*
G36*
X322000D02*
X317563D01*
Y46654D01*
X322000D01*
Y50500D01*
D02*
G37*
G36*
X241489Y44937D02*
X237643D01*
Y40500D01*
X241489D01*
Y44937D01*
D02*
G37*
G36*
X107775D02*
X103929D01*
Y40500D01*
X107775D01*
Y44937D01*
D02*
G37*
G36*
X236643D02*
X232796D01*
Y40500D01*
X236643D01*
Y44937D01*
D02*
G37*
G36*
X102929D02*
X99082D01*
Y40500D01*
X102929D01*
Y44937D01*
D02*
G37*
G36*
X274918D02*
X271071D01*
Y40500D01*
X274918D01*
Y44937D01*
D02*
G37*
G36*
X208061D02*
X204214D01*
Y40500D01*
X208061D01*
Y44937D01*
D02*
G37*
G36*
X141204D02*
X137357D01*
Y40500D01*
X141204D01*
Y44937D01*
D02*
G37*
G36*
X74347D02*
X70500D01*
Y40500D01*
X74347D01*
Y44937D01*
D02*
G37*
G36*
X270071D02*
X266225D01*
Y40500D01*
X270071D01*
Y44937D01*
D02*
G37*
G36*
X203214D02*
X199368D01*
Y40500D01*
X203214D01*
Y44937D01*
D02*
G37*
G36*
X136357D02*
X132511D01*
Y40500D01*
X136357D01*
Y44937D01*
D02*
G37*
G36*
X69500D02*
X65654D01*
Y40500D01*
X69500D01*
Y44937D01*
D02*
G37*
G36*
X308346D02*
X304500D01*
Y40500D01*
X308346D01*
Y44937D01*
D02*
G37*
G36*
X174632D02*
X170786D01*
Y40500D01*
X174632D01*
Y44937D01*
D02*
G37*
G36*
X303500D02*
X299654D01*
Y40500D01*
X303500D01*
Y44937D01*
D02*
G37*
G36*
X169786D02*
X165939D01*
Y40500D01*
X169786D01*
Y44937D01*
D02*
G37*
G36*
X308346Y39500D02*
X304500D01*
Y35063D01*
X308346D01*
Y39500D01*
D02*
G37*
G36*
X303500D02*
X299654D01*
Y35063D01*
X303500D01*
Y39500D01*
D02*
G37*
G36*
X274918Y39500D02*
X271071D01*
Y35063D01*
X274918D01*
Y39500D01*
D02*
G37*
G36*
X270071D02*
X266225D01*
Y35063D01*
X270071D01*
Y39500D01*
D02*
G37*
G36*
X241489Y39500D02*
X237643D01*
Y35063D01*
X241489D01*
Y39500D01*
D02*
G37*
G36*
X236643D02*
X232796D01*
Y35063D01*
X236643D01*
Y39500D01*
D02*
G37*
G36*
X208061Y39500D02*
X204214D01*
Y35063D01*
X208061D01*
Y39500D01*
D02*
G37*
G36*
X203214D02*
X199368D01*
Y35063D01*
X203214D01*
Y39500D01*
D02*
G37*
G36*
X174632Y39500D02*
X170786D01*
Y35063D01*
X174632D01*
Y39500D01*
D02*
G37*
G36*
X169786D02*
X165939D01*
Y35063D01*
X169786D01*
Y39500D01*
D02*
G37*
G36*
X141204Y39500D02*
X137357D01*
Y35063D01*
X141204D01*
Y39500D01*
D02*
G37*
G36*
X136357D02*
X132511D01*
Y35063D01*
X136357D01*
Y39500D01*
D02*
G37*
G36*
X107775Y39500D02*
X103929D01*
Y35063D01*
X107775D01*
Y39500D01*
D02*
G37*
G36*
X102929D02*
X99082D01*
Y35063D01*
X102929D01*
Y39500D01*
D02*
G37*
G36*
X74347Y39500D02*
X70500D01*
Y35063D01*
X74347D01*
Y39500D01*
D02*
G37*
G36*
X69500D02*
X65654D01*
Y35063D01*
X69500D01*
Y39500D01*
D02*
G37*
G36*
X35575Y32866D02*
X31106D01*
Y29332D01*
X31606D01*
X32650Y29469D01*
X33623Y29872D01*
X34459Y30513D01*
X35100Y31349D01*
X35503Y32322D01*
X35575Y32866D01*
D02*
G37*
G36*
X30106D02*
X25637D01*
X25709Y32322D01*
X26112Y31349D01*
X26753Y30513D01*
X27589Y29872D01*
X28562Y29469D01*
X29606Y29332D01*
X30106D01*
Y32866D01*
D02*
G37*
G36*
X294748Y45512D02*
X284906D01*
Y36744D01*
X272413Y24252D01*
X265650D01*
Y13228D01*
X275493D01*
Y20627D01*
X289354Y34488D01*
X294748D01*
Y45512D01*
D02*
G37*
G36*
X261319D02*
X251477D01*
Y36832D01*
X238897Y24252D01*
X232222D01*
Y13228D01*
X242064D01*
Y20714D01*
X255838Y34488D01*
X261319D01*
Y45512D01*
D02*
G37*
G36*
X227891D02*
X218048D01*
Y36919D01*
X205381Y24252D01*
X198793D01*
Y13228D01*
X208635D01*
Y20802D01*
X222322Y34488D01*
X227891D01*
Y45512D01*
D02*
G37*
G36*
X194462D02*
X184620D01*
Y38633D01*
X170239Y24252D01*
X165365D01*
Y13228D01*
X175207D01*
Y22515D01*
X187180Y34488D01*
X194462D01*
Y45512D01*
D02*
G37*
G36*
X161034D02*
X151191D01*
Y37094D01*
X138349Y24252D01*
X131936D01*
Y13228D01*
X141778D01*
Y20977D01*
X155290Y34488D01*
X161034D01*
Y45512D01*
D02*
G37*
G36*
X127605D02*
X117763D01*
Y37181D01*
X104833Y24252D01*
X98507D01*
Y13228D01*
X108350D01*
Y21064D01*
X121774Y34488D01*
X127605D01*
Y45512D01*
D02*
G37*
G36*
X31602Y11929D02*
Y8965D01*
X34567D01*
X34512Y9378D01*
X34160Y10230D01*
X33599Y10961D01*
X32868Y11522D01*
X32016Y11874D01*
X31602Y11929D01*
D02*
G37*
G36*
X30602D02*
X30189Y11874D01*
X29337Y11522D01*
X28606Y10961D01*
X28045Y10230D01*
X27692Y9378D01*
X27638Y8965D01*
X30602D01*
Y11929D01*
D02*
G37*
G36*
X34567Y7965D02*
X31602D01*
Y5000D01*
X32016Y5055D01*
X32868Y5407D01*
X33599Y5968D01*
X34160Y6700D01*
X34512Y7551D01*
X34567Y7965D01*
D02*
G37*
G36*
X30602D02*
X27638D01*
X27692Y7551D01*
X28045Y6700D01*
X28606Y5968D01*
X29337Y5407D01*
X30189Y5055D01*
X30602Y5000D01*
Y7965D01*
D02*
G37*
G36*
X349272Y89921D02*
X338248D01*
Y80079D01*
X349272D01*
Y89921D01*
D02*
G37*
%LPD*%
D10*
X70000Y18740D02*
D03*
X55827D02*
D03*
Y40000D02*
D03*
X70000D02*
D03*
X304000Y18740D02*
D03*
X289827D02*
D03*
Y40000D02*
D03*
X304000D02*
D03*
X270571Y18740D02*
D03*
X256398D02*
D03*
Y40000D02*
D03*
X270571D02*
D03*
X237143Y18740D02*
D03*
X222970D02*
D03*
Y40000D02*
D03*
X237143D02*
D03*
X203714Y18740D02*
D03*
X189541D02*
D03*
Y40000D02*
D03*
X203714D02*
D03*
X170286Y18740D02*
D03*
X156113D02*
D03*
Y40000D02*
D03*
X170286D02*
D03*
X136857Y18740D02*
D03*
X122684D02*
D03*
Y40000D02*
D03*
X136857D02*
D03*
X103429Y18740D02*
D03*
X89255D02*
D03*
Y40000D02*
D03*
X103429D02*
D03*
D11*
X343760Y85000D02*
D03*
Y70827D02*
D03*
X322500D02*
D03*
Y85000D02*
D03*
X343760Y51000D02*
D03*
Y36827D02*
D03*
X322500D02*
D03*
Y51000D02*
D03*
D12*
X323033Y68507D02*
X342324Y49216D01*
X323033Y68507D02*
Y70133D01*
X277854Y7874D02*
X278679D01*
X290670Y19865D01*
X244685Y7874D02*
X245163D01*
X257154Y19865D01*
X271378D02*
X290670Y39156D01*
X269752Y19865D02*
X271378D01*
X237862D02*
X257154Y39156D01*
X236236Y19865D02*
X237862D01*
X211122Y7874D02*
X211647D01*
X223638Y19865D01*
X204346D02*
X223638Y39156D01*
X202720Y19865D02*
X204346D01*
X178131Y7874D02*
X190121Y19865D01*
X188495Y39156D02*
X190121D01*
X169204Y19865D02*
X188495Y39156D01*
X137314Y19865D02*
X156605Y39156D01*
X135688Y19865D02*
X137314D01*
X144587Y7874D02*
X144615D01*
X156605Y19865D01*
X103798D02*
X123089Y39156D01*
X102172Y19865D02*
X103798D01*
X87697Y38976D02*
X89665D01*
X68602Y19882D02*
X87697Y38976D01*
X55905Y39075D02*
Y77756D01*
X50984Y82677D02*
X55905Y77756D01*
X31102Y82677D02*
X50984D01*
X320866Y106299D02*
X333661Y93504D01*
X31102Y72933D02*
X39567D01*
X31004Y62992D02*
X44980D01*
X31102Y53248D02*
X50295D01*
X303268Y19865D02*
X318833D01*
X323133Y24165D01*
Y36617D01*
X333661Y76339D02*
Y93504D01*
Y76339D02*
X339550Y70450D01*
X347050D01*
D13*
X314961Y7874D02*
X350394Y43307D01*
X278679Y7874D02*
X314961D01*
X245163D02*
X277854D01*
X211647D02*
X244685D01*
X178131D02*
X211122D01*
X144615D02*
X178131D01*
X111319D02*
X144587D01*
X111221D02*
X111319D01*
X123031Y19587D01*
X67520Y7874D02*
X111319D01*
X55529Y19865D02*
X67520Y7874D01*
X46966Y19865D02*
X55529D01*
X42913Y23917D02*
Y40650D01*
X40256Y43307D02*
X42913Y40650D01*
X31102Y43307D02*
X40256D01*
X42913Y23917D02*
X46966Y19865D01*
X78740Y7874D02*
X89764Y18898D01*
X347050Y70450D02*
X350394Y67106D01*
Y43307D02*
Y67106D01*
D14*
X30606Y33366D02*
D03*
Y43209D02*
D03*
Y53051D02*
D03*
Y62894D02*
D03*
Y72736D02*
D03*
Y82579D02*
D03*
D15*
X296379Y70210D02*
D03*
Y80210D02*
D03*
Y90210D02*
D03*
X263079Y70210D02*
D03*
Y80210D02*
D03*
Y90210D02*
D03*
X229979Y70210D02*
D03*
Y80210D02*
D03*
Y90210D02*
D03*
X196279Y70210D02*
D03*
Y80210D02*
D03*
Y90210D02*
D03*
X162879Y70210D02*
D03*
Y80210D02*
D03*
Y90210D02*
D03*
X129479Y70210D02*
D03*
Y80210D02*
D03*
Y90210D02*
D03*
X95679Y70210D02*
D03*
Y80210D02*
D03*
Y90210D02*
D03*
X62479Y70210D02*
D03*
Y80210D02*
D03*
Y90210D02*
D03*
D16*
X11811Y11811D02*
D03*
Y106299D02*
D03*
X342520D02*
D03*
Y11811D02*
D03*
D17*
X44980Y62992D02*
D03*
X39567Y72835D02*
D03*
X50295Y53248D02*
D03*
X174427Y66716D02*
D03*
X31102Y8465D02*
D03*
X95669Y50787D02*
D03*
X296457Y51181D02*
D03*
X27500Y97500D02*
D03*
X320866Y106299D02*
D03*
M02*
