M48
;Layer_Color=9474304
;FILE_FORMAT=2:5
INCH,TZ
;TYPE=PLATED
T1F00S00C0.02800
T2F00S00C0.03000
T3F00S00C0.03150
;TYPE=NON_PLATED
T4F00S00C0.12598
%
T01
X31102Y8465
X50295Y53248
X44980Y62992
X39567Y72835
X95669Y50787
X174427Y66716
X296457Y51181
X320866Y106299
X27500Y97500
T02
X62479Y70210
Y80210
Y90210
X95679
Y80210
Y70210
X129479
Y80210
Y90210
X162879
Y80210
Y70210
X196279
Y80210
Y90210
X229979
Y80210
Y70210
X263079
Y80210
Y90210
X296379
Y80210
Y70210
T03
X30606Y33366
Y43209
Y53051
Y62894
Y72736
Y82579
T04
X11811Y11811
X342520
Y106299
X11811
M30
