G04 Layer_Physical_Order=2*
G04 Layer_Color=16711680*
%FSLAX25Y25*%
%MOIN*%
G70*
G01*
G75*
%ADD12C,0.01500*%
%ADD14O,0.08000X0.06000*%
%ADD15C,0.06000*%
%ADD16C,0.20945*%
%ADD17C,0.05000*%
%ADD18O,0.05709X0.02362*%
%ADD19R,0.05906X0.05906*%
%ADD20R,0.05906X0.05906*%
G36*
X335473Y116110D02*
X335417Y116076D01*
X333975Y114844D01*
X332743Y113402D01*
X331752Y111785D01*
X331027Y110034D01*
X330584Y108190D01*
X330435Y106299D01*
X330584Y104409D01*
X331027Y102565D01*
X331752Y100813D01*
X332743Y99196D01*
X333975Y97754D01*
X335417Y96523D01*
X337033Y95532D01*
X338785Y94806D01*
X340629Y94363D01*
X342520Y94215D01*
X344410Y94363D01*
X346254Y94806D01*
X348006Y95532D01*
X349623Y96523D01*
X351065Y97754D01*
X352296Y99196D01*
X352331Y99252D01*
X354331Y98688D01*
Y19422D01*
X352331Y18858D01*
X352296Y18914D01*
X351065Y20356D01*
X349623Y21588D01*
X348006Y22578D01*
X346254Y23304D01*
X344410Y23747D01*
X342520Y23896D01*
X340629Y23747D01*
X338785Y23304D01*
X337033Y22578D01*
X335417Y21588D01*
X333975Y20356D01*
X332743Y18914D01*
X331752Y17297D01*
X331027Y15545D01*
X330584Y13701D01*
X330435Y11811D01*
X330584Y9921D01*
X331027Y8077D01*
X331752Y6325D01*
X332743Y4708D01*
X333975Y3266D01*
X335417Y2035D01*
X335473Y2000D01*
X334909Y0D01*
X19422D01*
X18858Y2000D01*
X18914Y2035D01*
X20356Y3266D01*
X21588Y4708D01*
X22578Y6325D01*
X23304Y8077D01*
X23747Y9921D01*
X23896Y11811D01*
X23747Y13701D01*
X23304Y15545D01*
X22578Y17297D01*
X21588Y18914D01*
X20356Y20356D01*
X18914Y21588D01*
X17297Y22578D01*
X15545Y23304D01*
X13701Y23747D01*
X11811Y23896D01*
X9921Y23747D01*
X8077Y23304D01*
X6325Y22578D01*
X4708Y21588D01*
X3266Y20356D01*
X2035Y18914D01*
X2000Y18858D01*
X0Y19422D01*
Y98688D01*
X2000Y99252D01*
X2035Y99196D01*
X3266Y97754D01*
X4708Y96523D01*
X6325Y95532D01*
X8077Y94806D01*
X9921Y94363D01*
X11811Y94215D01*
X13701Y94363D01*
X15545Y94806D01*
X17297Y95532D01*
X18914Y96523D01*
X20356Y97754D01*
X21588Y99196D01*
X22578Y100813D01*
X23304Y102565D01*
X23747Y104409D01*
X23896Y106299D01*
X23747Y108190D01*
X23304Y110034D01*
X22578Y111785D01*
X21588Y113402D01*
X20356Y114844D01*
X18914Y116076D01*
X18858Y116110D01*
X19422Y118110D01*
X334909D01*
X335473Y116110D01*
D02*
G37*
%LPC*%
G36*
X34425Y111453D02*
X30972D01*
Y108000D01*
X34425D01*
Y111453D01*
D02*
G37*
G36*
X29972D02*
X26520D01*
Y108000D01*
X29972D01*
Y111453D01*
D02*
G37*
G36*
X34425Y107000D02*
X30972D01*
Y103547D01*
X34425D01*
Y107000D01*
D02*
G37*
G36*
X29972D02*
X26520D01*
Y103547D01*
X29972D01*
Y107000D01*
D02*
G37*
G36*
X48779Y112028D02*
X39724D01*
Y102972D01*
X48779D01*
Y105130D01*
X51083D01*
Y102972D01*
X60138D01*
Y112028D01*
X51083D01*
Y109870D01*
X48779D01*
Y112028D01*
D02*
G37*
G36*
X73917Y112028D02*
X64862D01*
Y102972D01*
X71360D01*
X71775Y102513D01*
X72359Y100972D01*
X72189Y100717D01*
X72008Y99810D01*
Y98528D01*
X69851D01*
Y89473D01*
X78906D01*
Y98527D01*
X78906D01*
X78448Y100528D01*
X82161Y104240D01*
X105838D01*
X106603Y102392D01*
X106003Y101792D01*
X105489Y101023D01*
X105308Y100116D01*
Y98528D01*
X103151D01*
Y89473D01*
X112206D01*
Y98527D01*
X112206D01*
X111443Y100528D01*
X115155Y104240D01*
X138265D01*
X139154Y102240D01*
X139089Y102143D01*
X138908Y101235D01*
Y98528D01*
X136751D01*
Y89473D01*
X145806D01*
Y98528D01*
X144310D01*
X143923Y100528D01*
X147635Y104240D01*
X153082D01*
X153847Y102392D01*
X152303Y100848D01*
X151789Y100079D01*
X151608Y99172D01*
Y61310D01*
X151789Y60403D01*
X152303Y59634D01*
X155703Y56234D01*
X156472Y55720D01*
X157379Y55540D01*
X173306D01*
X174371Y53983D01*
X174479Y53540D01*
X174453Y53410D01*
X178250D01*
Y52410D01*
X174453D01*
X174523Y52059D01*
X174901Y51069D01*
X174266Y49426D01*
X174170Y49300D01*
X173892Y48630D01*
X173798Y47910D01*
X173880Y47281D01*
X173881Y47170D01*
X172959Y45564D01*
X172600Y45281D01*
X147561D01*
X143649Y49192D01*
Y75693D01*
X145806D01*
Y84748D01*
X136751D01*
Y82591D01*
X133419D01*
X132741Y83473D01*
X131919Y84104D01*
X131786Y85107D01*
Y85314D01*
X131919Y86316D01*
X132741Y86948D01*
X133475Y87903D01*
X133936Y89016D01*
X134093Y90210D01*
X133936Y91404D01*
X133475Y92517D01*
X132741Y93473D01*
X131786Y94206D01*
X130673Y94667D01*
X129479Y94824D01*
X128285Y94667D01*
X127172Y94206D01*
X126216Y93473D01*
X125483Y92517D01*
X125022Y91404D01*
X124864Y90210D01*
X125022Y89016D01*
X125483Y87903D01*
X126216Y86948D01*
X127039Y86316D01*
X127172Y85314D01*
Y85107D01*
X127039Y84104D01*
X126216Y83473D01*
X125483Y82517D01*
X125022Y81405D01*
X124864Y80210D01*
X125022Y79016D01*
X125483Y77903D01*
X126216Y76947D01*
X127172Y76214D01*
X127797Y75955D01*
X127927Y74182D01*
X127855Y73867D01*
X127462Y73704D01*
X126626Y73063D01*
X125985Y72228D01*
X125582Y71254D01*
X125510Y70710D01*
X129479D01*
Y70210D01*
D01*
Y70710D01*
X133447D01*
X133376Y71254D01*
X132973Y72228D01*
X132332Y73063D01*
X131496Y73704D01*
X131102Y73867D01*
X131030Y74182D01*
X131160Y75955D01*
X131786Y76214D01*
X132741Y76947D01*
X133434Y77850D01*
X136751D01*
Y75693D01*
X138908D01*
Y48210D01*
X139089Y47303D01*
X139603Y46534D01*
X143656Y42481D01*
X142828Y40481D01*
X112461D01*
X110039Y42902D01*
Y75693D01*
X112206D01*
Y84748D01*
X103151D01*
Y82581D01*
X99626D01*
X98941Y83473D01*
X98119Y84104D01*
X97986Y85107D01*
Y85314D01*
X98119Y86316D01*
X98941Y86948D01*
X99675Y87903D01*
X100136Y89016D01*
X100293Y90210D01*
X100136Y91404D01*
X99675Y92517D01*
X98941Y93473D01*
X97986Y94206D01*
X96873Y94667D01*
X95679Y94824D01*
X94485Y94667D01*
X93372Y94206D01*
X92416Y93473D01*
X91683Y92517D01*
X91222Y91404D01*
X91065Y90210D01*
X91222Y89016D01*
X91683Y87903D01*
X92416Y86948D01*
X93239Y86316D01*
X93372Y85314D01*
Y85107D01*
X93239Y84104D01*
X92416Y83473D01*
X91683Y82517D01*
X91222Y81405D01*
X91065Y80210D01*
X91222Y79016D01*
X91683Y77903D01*
X92416Y76947D01*
X93372Y76214D01*
X93997Y75955D01*
X94127Y74182D01*
X94055Y73867D01*
X93661Y73704D01*
X92826Y73063D01*
X92185Y72228D01*
X91782Y71254D01*
X91710Y70710D01*
X95679D01*
X99647D01*
X99576Y71254D01*
X99173Y72228D01*
X98532Y73063D01*
X97696Y73704D01*
X97302Y73867D01*
X97231Y74182D01*
X97360Y75955D01*
X97986Y76214D01*
X98941Y76947D01*
X99626Y77840D01*
X103151D01*
Y75693D01*
X105298D01*
Y42523D01*
X105198Y42020D01*
X105379Y41113D01*
X105892Y40344D01*
X109056Y37181D01*
X108228Y35181D01*
X78161D01*
X76749Y36592D01*
Y75693D01*
X78906D01*
Y84748D01*
X69851D01*
Y82591D01*
X66418D01*
X65741Y83473D01*
X64919Y84104D01*
X64786Y85107D01*
Y85314D01*
X64919Y86316D01*
X65741Y86948D01*
X66475Y87903D01*
X66936Y89016D01*
X67093Y90210D01*
X66936Y91404D01*
X66475Y92517D01*
X65741Y93473D01*
X64786Y94206D01*
X63673Y94667D01*
X62479Y94824D01*
X61285Y94667D01*
X60172Y94206D01*
X59216Y93473D01*
X58483Y92517D01*
X58022Y91404D01*
X57864Y90210D01*
X58022Y89016D01*
X58483Y87903D01*
X59216Y86948D01*
X60039Y86316D01*
X60172Y85314D01*
Y85107D01*
X60039Y84104D01*
X59216Y83473D01*
X58483Y82517D01*
X58022Y81405D01*
X57864Y80210D01*
X58022Y79016D01*
X58483Y77903D01*
X59216Y76947D01*
X60172Y76214D01*
X60797Y75955D01*
X60927Y74182D01*
X60855Y73867D01*
X60461Y73704D01*
X59626Y73063D01*
X58985Y72228D01*
X58582Y71254D01*
X58510Y70710D01*
X62479D01*
X66447D01*
X66376Y71254D01*
X65973Y72228D01*
X65332Y73063D01*
X64496Y73704D01*
X64102Y73867D01*
X64031Y74182D01*
X64160Y75955D01*
X64786Y76214D01*
X65741Y76947D01*
X66434Y77850D01*
X69851D01*
Y75693D01*
X72008D01*
Y36213D01*
X71908Y35710D01*
X72089Y34803D01*
X72603Y34034D01*
X75503Y31134D01*
X76272Y30620D01*
X77179Y30440D01*
X172562D01*
X172815Y30261D01*
X173811Y28752D01*
X173867Y28440D01*
X173798Y27910D01*
X173892Y27191D01*
X174170Y26520D01*
X174612Y25945D01*
Y24876D01*
X174170Y24300D01*
X173892Y23630D01*
X173798Y22910D01*
X173892Y22191D01*
X174170Y21520D01*
X174612Y20945D01*
X174895Y19014D01*
X174794Y18501D01*
X172443Y16150D01*
X56100D01*
X52666Y19584D01*
Y49931D01*
X53202Y50342D01*
X53855Y51193D01*
X54265Y52184D01*
X54405Y53248D01*
X54265Y54312D01*
X53855Y55303D01*
X53202Y56154D01*
X52350Y56807D01*
X51359Y57218D01*
X50295Y57358D01*
X49843Y57298D01*
X48050Y58630D01*
X48026Y58658D01*
X47901Y59934D01*
X47959Y60181D01*
X48540Y60937D01*
X48950Y61928D01*
X49090Y62992D01*
X48950Y64056D01*
X48540Y65047D01*
X47886Y65898D01*
X47035Y66551D01*
X46044Y66962D01*
X44980Y67102D01*
X44274Y67009D01*
X42612Y68262D01*
X42558Y68315D01*
X42475Y69897D01*
X42489Y69950D01*
X43126Y70780D01*
X43537Y71771D01*
X43677Y72835D01*
X43537Y73898D01*
X43126Y74890D01*
X42473Y75741D01*
X41622Y76394D01*
X40631Y76805D01*
X39567Y76945D01*
X38503Y76805D01*
X37512Y76394D01*
X37214Y76166D01*
X34869Y75999D01*
X34179Y76528D01*
X34033Y77658D01*
X34179Y78787D01*
X34869Y79316D01*
X35602Y80272D01*
X36063Y81384D01*
X36220Y82579D01*
X36063Y83773D01*
X35602Y84886D01*
X34869Y85842D01*
X33913Y86575D01*
X32800Y87036D01*
X31606Y87193D01*
X29606D01*
X28412Y87036D01*
X27299Y86575D01*
X26343Y85842D01*
X25610Y84886D01*
X25149Y83773D01*
X24992Y82579D01*
X25149Y81384D01*
X25610Y80272D01*
X26343Y79316D01*
X27033Y78787D01*
X27179Y77658D01*
X27033Y76528D01*
X26343Y75999D01*
X25610Y75043D01*
X25149Y73931D01*
X24992Y72736D01*
X25149Y71542D01*
X25610Y70429D01*
X26343Y69473D01*
X27033Y68944D01*
X27179Y67815D01*
X27033Y66686D01*
X26343Y66157D01*
X25610Y65201D01*
X25149Y64088D01*
X24992Y62894D01*
X25149Y61699D01*
X25610Y60587D01*
X26343Y59631D01*
X27033Y59102D01*
X27179Y57972D01*
X27033Y56843D01*
X26343Y56314D01*
X25610Y55358D01*
X25149Y54245D01*
X24992Y53051D01*
X25149Y51857D01*
X25610Y50744D01*
X26343Y49788D01*
X27033Y49259D01*
X27179Y48130D01*
X27033Y47001D01*
X26343Y46471D01*
X25610Y45516D01*
X25149Y44403D01*
X24992Y43209D01*
X25149Y42014D01*
X25610Y40901D01*
X26343Y39946D01*
X27299Y39213D01*
X27670Y39059D01*
X27694Y36904D01*
X27589Y36860D01*
X26753Y36219D01*
X26112Y35383D01*
X25709Y34410D01*
X25637Y33866D01*
X30606D01*
Y33366D01*
X31106D01*
Y29332D01*
X31606D01*
X32650Y29469D01*
X33623Y29872D01*
X34459Y30513D01*
X35100Y31349D01*
X35197Y31582D01*
X37197Y31184D01*
Y17421D01*
X37377Y16514D01*
X37891Y15745D01*
X50194Y3442D01*
X50963Y2928D01*
X51870Y2748D01*
X186417D01*
X187324Y2928D01*
X188093Y3442D01*
X194655Y10003D01*
X195169Y10772D01*
X195349Y11680D01*
Y19677D01*
X197087Y20794D01*
X197349Y20823D01*
X198034Y20686D01*
X199207D01*
Y22910D01*
X199707D01*
Y23410D01*
X203505D01*
X203435Y23761D01*
X203057Y24752D01*
X203691Y26395D01*
X203788Y26520D01*
X204065Y27191D01*
X204160Y27910D01*
X204077Y28540D01*
X204077Y28650D01*
X204998Y30256D01*
X205357Y30540D01*
X305279D01*
X306186Y30720D01*
X306955Y31234D01*
X309753Y34033D01*
X310055Y34234D01*
X310569Y35003D01*
X310749Y35910D01*
Y75693D01*
X312906D01*
Y84748D01*
X303851D01*
Y82591D01*
X300319D01*
X299641Y83473D01*
X298819Y84104D01*
X298686Y85107D01*
Y85314D01*
X298819Y86316D01*
X299641Y86948D01*
X300375Y87903D01*
X300836Y89016D01*
X300993Y90210D01*
X300836Y91404D01*
X300375Y92517D01*
X299641Y93473D01*
X298686Y94206D01*
X297573Y94667D01*
X296379Y94824D01*
X295184Y94667D01*
X294072Y94206D01*
X293116Y93473D01*
X292383Y92517D01*
X291922Y91404D01*
X291764Y90210D01*
X291922Y89016D01*
X292383Y87903D01*
X293116Y86948D01*
X293939Y86316D01*
X294072Y85314D01*
Y85107D01*
X293939Y84104D01*
X293116Y83473D01*
X292383Y82517D01*
X291922Y81405D01*
X291764Y80210D01*
X291922Y79016D01*
X292383Y77903D01*
X293116Y76947D01*
X294072Y76214D01*
X294697Y75955D01*
X294827Y74182D01*
X294755Y73867D01*
X294361Y73704D01*
X293526Y73063D01*
X292885Y72228D01*
X292482Y71254D01*
X292410Y70710D01*
X296379D01*
X300347D01*
X300276Y71254D01*
X299873Y72228D01*
X299232Y73063D01*
X298396Y73704D01*
X298002Y73867D01*
X297931Y74182D01*
X298060Y75955D01*
X298686Y76214D01*
X299641Y76947D01*
X300334Y77850D01*
X303851D01*
Y75693D01*
X306008D01*
Y36992D01*
X304297Y35281D01*
X275830D01*
X275001Y37281D01*
X276853Y39133D01*
X277155Y39334D01*
X277669Y40103D01*
X277849Y41010D01*
Y75493D01*
X280006D01*
Y84548D01*
X270951D01*
Y82391D01*
X267127D01*
X267075Y82517D01*
X266341Y83473D01*
X265519Y84104D01*
X265386Y85107D01*
Y85314D01*
X265519Y86316D01*
X266341Y86948D01*
X267075Y87903D01*
X267536Y89016D01*
X267693Y90210D01*
X267536Y91404D01*
X267075Y92517D01*
X266341Y93473D01*
X265386Y94206D01*
X264273Y94667D01*
X263079Y94824D01*
X261884Y94667D01*
X260772Y94206D01*
X259816Y93473D01*
X259083Y92517D01*
X258622Y91404D01*
X258465Y90210D01*
X258622Y89016D01*
X259083Y87903D01*
X259816Y86948D01*
X260639Y86316D01*
X260772Y85314D01*
Y85107D01*
X260639Y84104D01*
X259816Y83473D01*
X259083Y82517D01*
X258622Y81405D01*
X258465Y80210D01*
X258622Y79016D01*
X259083Y77903D01*
X259816Y76947D01*
X260772Y76214D01*
X261397Y75955D01*
X261527Y74182D01*
X261455Y73867D01*
X261062Y73704D01*
X260226Y73063D01*
X259585Y72228D01*
X259182Y71254D01*
X259110Y70710D01*
X263079D01*
X267047D01*
X266976Y71254D01*
X266573Y72228D01*
X265932Y73063D01*
X265096Y73704D01*
X264702Y73867D01*
X264631Y74182D01*
X264760Y75955D01*
X265386Y76214D01*
X266341Y76947D01*
X266881Y77650D01*
X270951D01*
Y75493D01*
X273108D01*
Y42092D01*
X271297Y40281D01*
X241730D01*
X240901Y42281D01*
X243154Y44533D01*
X243455Y44734D01*
X243969Y45503D01*
X244149Y46410D01*
Y75693D01*
X246406D01*
Y84748D01*
X237351D01*
Y82591D01*
X233918D01*
X233242Y83473D01*
X232419Y84104D01*
X232286Y85107D01*
Y85314D01*
X232419Y86316D01*
X233242Y86948D01*
X233975Y87903D01*
X234436Y89016D01*
X234593Y90210D01*
X234436Y91404D01*
X233975Y92517D01*
X233242Y93473D01*
X232286Y94206D01*
X231173Y94667D01*
X229979Y94824D01*
X228784Y94667D01*
X227672Y94206D01*
X226716Y93473D01*
X225983Y92517D01*
X225522Y91404D01*
X225364Y90210D01*
X225522Y89016D01*
X225983Y87903D01*
X226716Y86948D01*
X227539Y86316D01*
X227672Y85314D01*
Y85107D01*
X227539Y84104D01*
X226716Y83473D01*
X225983Y82517D01*
X225522Y81405D01*
X225364Y80210D01*
X225522Y79016D01*
X225983Y77903D01*
X226716Y76947D01*
X227672Y76214D01*
X228297Y75955D01*
X228427Y74182D01*
X228355Y73867D01*
X227961Y73704D01*
X227126Y73063D01*
X226485Y72228D01*
X226082Y71254D01*
X226010Y70710D01*
X229979D01*
X233947D01*
X233876Y71254D01*
X233473Y72228D01*
X232832Y73063D01*
X231996Y73704D01*
X231602Y73867D01*
X231530Y74182D01*
X231660Y75955D01*
X232286Y76214D01*
X233242Y76947D01*
X233934Y77850D01*
X237351D01*
Y75693D01*
X239408D01*
Y47492D01*
X237197Y45281D01*
X209030D01*
X208201Y47281D01*
X209554Y48633D01*
X209855Y48834D01*
X210369Y49603D01*
X210549Y50510D01*
Y75693D01*
X212706D01*
Y84748D01*
X203651D01*
Y82591D01*
X200219D01*
X199541Y83473D01*
X198719Y84104D01*
X198586Y85107D01*
Y85314D01*
X198719Y86316D01*
X199541Y86948D01*
X200275Y87903D01*
X200736Y89016D01*
X200893Y90210D01*
X200736Y91404D01*
X200275Y92517D01*
X199541Y93473D01*
X198586Y94206D01*
X197473Y94667D01*
X196279Y94824D01*
X195085Y94667D01*
X193972Y94206D01*
X193016Y93473D01*
X192283Y92517D01*
X191822Y91404D01*
X191665Y90210D01*
X191822Y89016D01*
X192283Y87903D01*
X193016Y86948D01*
X193839Y86316D01*
X193972Y85314D01*
Y85107D01*
X193839Y84104D01*
X193016Y83473D01*
X192283Y82517D01*
X191822Y81405D01*
X191665Y80210D01*
X191822Y79016D01*
X192283Y77903D01*
X193016Y76947D01*
X193972Y76214D01*
X194597Y75955D01*
X194727Y74182D01*
X194655Y73867D01*
X194262Y73704D01*
X193426Y73063D01*
X192785Y72228D01*
X192382Y71254D01*
X192310Y70710D01*
X196279D01*
X200247D01*
X200176Y71254D01*
X199773Y72228D01*
X199132Y73063D01*
X198296Y73704D01*
X197902Y73867D01*
X197830Y74182D01*
X197960Y75955D01*
X198586Y76214D01*
X199541Y76947D01*
X200234Y77850D01*
X203651D01*
Y75693D01*
X205808D01*
Y59648D01*
X203808Y59250D01*
X203788Y59300D01*
X203346Y59876D01*
X202770Y60317D01*
X202100Y60595D01*
X201380Y60690D01*
X198034D01*
X197314Y60595D01*
X196644Y60317D01*
X196596Y60281D01*
X193279D01*
X192372Y60100D01*
X191603Y59586D01*
X189149Y57133D01*
X187149Y57961D01*
Y70221D01*
X186969Y71128D01*
X186455Y71897D01*
X179306Y79045D01*
Y84748D01*
X170251D01*
Y82591D01*
X166818D01*
X166141Y83473D01*
X165319Y84104D01*
X165186Y85107D01*
Y85314D01*
X165319Y86316D01*
X166141Y86948D01*
X166875Y87903D01*
X167336Y89016D01*
X167493Y90210D01*
X167336Y91404D01*
X166875Y92517D01*
X166141Y93473D01*
X165186Y94206D01*
X164073Y94667D01*
X162879Y94824D01*
X161685Y94667D01*
X160572Y94206D01*
X159616Y93473D01*
X158883Y92517D01*
X158452Y91479D01*
X158030Y91395D01*
X156399Y91366D01*
X156349Y91441D01*
Y98190D01*
X162399Y104240D01*
X171712D01*
X172630Y102240D01*
X172589Y102178D01*
X172408Y101271D01*
Y98528D01*
X170251D01*
Y89473D01*
X179306D01*
Y98528D01*
X177725D01*
X177388Y100528D01*
X181100Y104240D01*
X205208D01*
X206073Y102240D01*
X205989Y102113D01*
X205808Y101206D01*
Y98528D01*
X203651D01*
Y89473D01*
X212706D01*
Y98528D01*
X211281D01*
X210852Y100528D01*
X214564Y104240D01*
X239696D01*
X240461Y102392D01*
X240203Y102134D01*
X239689Y101365D01*
X239508Y100458D01*
Y98528D01*
X237351D01*
Y89473D01*
X246406D01*
Y98528D01*
X246129D01*
X245301Y100528D01*
X249013Y104240D01*
X267787D01*
X267983Y104109D01*
X268890Y103929D01*
X272057D01*
X273078Y102474D01*
X273240Y101929D01*
X273108Y101266D01*
Y98328D01*
X270951D01*
Y89272D01*
X280006D01*
Y98328D01*
X277954D01*
X277892Y100328D01*
X281494Y103929D01*
X304220D01*
X306008Y102670D01*
Y98528D01*
X303851D01*
Y89473D01*
X312906D01*
Y98528D01*
X310749D01*
Y101688D01*
X312990Y103929D01*
X317549D01*
X317960Y103393D01*
X318811Y102740D01*
X319802Y102329D01*
X320866Y102189D01*
X321930Y102329D01*
X322921Y102740D01*
X323772Y103393D01*
X324426Y104244D01*
X324836Y105236D01*
X324976Y106299D01*
X324836Y107363D01*
X324426Y108354D01*
X323772Y109205D01*
X322921Y109859D01*
X321930Y110269D01*
X320866Y110409D01*
X319802Y110269D01*
X318811Y109859D01*
X317960Y109205D01*
X317549Y108670D01*
X269681D01*
X269486Y108800D01*
X268579Y108981D01*
X73917D01*
Y112028D01*
D02*
G37*
G36*
X28000Y100964D02*
Y98000D01*
X30964D01*
X30910Y98414D01*
X30557Y99265D01*
X29996Y99996D01*
X29265Y100557D01*
X28414Y100910D01*
X28000Y100964D01*
D02*
G37*
G36*
X27000D02*
X26586Y100910D01*
X25735Y100557D01*
X25004Y99996D01*
X24443Y99265D01*
X24090Y98414D01*
X24036Y98000D01*
X27000D01*
Y100964D01*
D02*
G37*
G36*
X30964Y97000D02*
X28000D01*
Y94036D01*
X28414Y94090D01*
X29265Y94443D01*
X29996Y95004D01*
X30557Y95735D01*
X30910Y96586D01*
X30964Y97000D01*
D02*
G37*
G36*
X27000D02*
X24036D01*
X24090Y96586D01*
X24443Y95735D01*
X25004Y95004D01*
X25735Y94443D01*
X26586Y94090D01*
X27000Y94036D01*
Y97000D01*
D02*
G37*
G36*
X300347Y69710D02*
X296879D01*
Y66242D01*
X297423Y66313D01*
X298396Y66716D01*
X299232Y67357D01*
X299873Y68193D01*
X300276Y69166D01*
X300347Y69710D01*
D02*
G37*
G36*
X267047D02*
X263579D01*
Y66242D01*
X264123Y66313D01*
X265096Y66716D01*
X265932Y67357D01*
X266573Y68193D01*
X266976Y69166D01*
X267047Y69710D01*
D02*
G37*
G36*
X233947D02*
X230479D01*
Y66242D01*
X231023Y66313D01*
X231996Y66716D01*
X232832Y67357D01*
X233473Y68193D01*
X233876Y69166D01*
X233947Y69710D01*
D02*
G37*
G36*
X200247D02*
X196779D01*
Y66242D01*
X197323Y66313D01*
X198296Y66716D01*
X199132Y67357D01*
X199773Y68193D01*
X200176Y69166D01*
X200247Y69710D01*
D02*
G37*
G36*
X133447D02*
X129979D01*
Y66242D01*
X130523Y66313D01*
X131496Y66716D01*
X132332Y67357D01*
X132973Y68193D01*
X133376Y69166D01*
X133447Y69710D01*
D02*
G37*
G36*
X99647D02*
X96179D01*
Y66242D01*
X96723Y66313D01*
X97696Y66716D01*
X98532Y67357D01*
X99173Y68193D01*
X99576Y69166D01*
X99647Y69710D01*
D02*
G37*
G36*
X66447D02*
X62979D01*
Y66242D01*
X63523Y66313D01*
X64496Y66716D01*
X65332Y67357D01*
X65973Y68193D01*
X66376Y69166D01*
X66447Y69710D01*
D02*
G37*
G36*
X295879D02*
X292410D01*
X292482Y69166D01*
X292885Y68193D01*
X293526Y67357D01*
X294361Y66716D01*
X295335Y66313D01*
X295879Y66242D01*
Y69710D01*
D02*
G37*
G36*
X262579D02*
X259110D01*
X259182Y69166D01*
X259585Y68193D01*
X260226Y67357D01*
X261062Y66716D01*
X262035Y66313D01*
X262579Y66242D01*
Y69710D01*
D02*
G37*
G36*
X229479D02*
X226010D01*
X226082Y69166D01*
X226485Y68193D01*
X227126Y67357D01*
X227961Y66716D01*
X228935Y66313D01*
X229479Y66242D01*
Y69710D01*
D02*
G37*
G36*
X195779D02*
X192310D01*
X192382Y69166D01*
X192785Y68193D01*
X193426Y67357D01*
X194262Y66716D01*
X195235Y66313D01*
X195779Y66242D01*
Y69710D01*
D02*
G37*
G36*
X128979D02*
X125510D01*
X125582Y69166D01*
X125985Y68193D01*
X126626Y67357D01*
X127462Y66716D01*
X128435Y66313D01*
X128979Y66242D01*
Y69710D01*
D02*
G37*
G36*
X95179D02*
X91710D01*
X91782Y69166D01*
X92185Y68193D01*
X92826Y67357D01*
X93661Y66716D01*
X94634Y66313D01*
X95179Y66242D01*
Y69710D01*
D02*
G37*
G36*
X61979D02*
X58510D01*
X58582Y69166D01*
X58985Y68193D01*
X59626Y67357D01*
X60461Y66716D01*
X61435Y66313D01*
X61979Y66242D01*
Y69710D01*
D02*
G37*
G36*
X296957Y54646D02*
Y51681D01*
X299921D01*
X299867Y52095D01*
X299514Y52946D01*
X298953Y53677D01*
X298222Y54238D01*
X297370Y54591D01*
X296957Y54646D01*
D02*
G37*
G36*
X295957D02*
X295543Y54591D01*
X294692Y54238D01*
X293960Y53677D01*
X293399Y52946D01*
X293047Y52095D01*
X292992Y51681D01*
X295957D01*
Y54646D01*
D02*
G37*
G36*
X96169Y54252D02*
Y51287D01*
X99134D01*
X99079Y51701D01*
X98726Y52552D01*
X98166Y53284D01*
X97434Y53845D01*
X96583Y54197D01*
X96169Y54252D01*
D02*
G37*
G36*
X95169D02*
X94756Y54197D01*
X93904Y53845D01*
X93173Y53284D01*
X92612Y52552D01*
X92259Y51701D01*
X92205Y51287D01*
X95169D01*
Y54252D01*
D02*
G37*
G36*
X299921Y50681D02*
X296957D01*
Y47717D01*
X297370Y47771D01*
X298222Y48124D01*
X298953Y48685D01*
X299514Y49416D01*
X299867Y50267D01*
X299921Y50681D01*
D02*
G37*
G36*
X295957D02*
X292992D01*
X293047Y50267D01*
X293399Y49416D01*
X293960Y48685D01*
X294692Y48124D01*
X295543Y47771D01*
X295957Y47717D01*
Y50681D01*
D02*
G37*
G36*
X99134Y50287D02*
X96169D01*
Y47323D01*
X96583Y47377D01*
X97434Y47730D01*
X98166Y48291D01*
X98726Y49022D01*
X99079Y49874D01*
X99134Y50287D01*
D02*
G37*
G36*
X95169D02*
X92205D01*
X92259Y49874D01*
X92612Y49022D01*
X93173Y48291D01*
X93904Y47730D01*
X94756Y47377D01*
X95169Y47323D01*
Y50287D01*
D02*
G37*
G36*
X30106Y32866D02*
X25637D01*
X25709Y32322D01*
X26112Y31349D01*
X26753Y30513D01*
X27589Y29872D01*
X28562Y29469D01*
X29606Y29332D01*
X30106D01*
Y32866D01*
D02*
G37*
G36*
X203505Y22410D02*
X200207D01*
Y20686D01*
X201380D01*
X202231Y20856D01*
X202953Y21338D01*
X203435Y22059D01*
X203505Y22410D01*
D02*
G37*
G36*
X31602Y11929D02*
Y8965D01*
X34567D01*
X34512Y9378D01*
X34160Y10230D01*
X33599Y10961D01*
X32868Y11522D01*
X32016Y11874D01*
X31602Y11929D01*
D02*
G37*
G36*
X30602D02*
X30189Y11874D01*
X29337Y11522D01*
X28606Y10961D01*
X28045Y10230D01*
X27692Y9378D01*
X27638Y8965D01*
X30602D01*
Y11929D01*
D02*
G37*
G36*
X34567Y7965D02*
X31602D01*
Y5000D01*
X32016Y5055D01*
X32868Y5407D01*
X33599Y5968D01*
X34160Y6700D01*
X34512Y7551D01*
X34567Y7965D01*
D02*
G37*
G36*
X30602D02*
X27638D01*
X27692Y7551D01*
X28045Y6700D01*
X28606Y5968D01*
X29337Y5407D01*
X30189Y5055D01*
X30602Y5000D01*
Y7965D01*
D02*
G37*
%LPD*%
G36*
X158030Y89025D02*
X158452Y88942D01*
X158883Y87903D01*
X159616Y86948D01*
X160439Y86316D01*
X160572Y85314D01*
Y85107D01*
X160439Y84104D01*
X159616Y83473D01*
X158883Y82517D01*
X158422Y81405D01*
X158349Y80853D01*
X156349Y80984D01*
Y88980D01*
X156399Y89054D01*
X158030Y89025D01*
D02*
G37*
G36*
X158422Y79016D02*
X158883Y77903D01*
X159616Y76947D01*
X160572Y76214D01*
X161197Y75955D01*
X161327Y74182D01*
X161255Y73867D01*
X160862Y73704D01*
X160026Y73063D01*
X159385Y72228D01*
X158982Y71254D01*
X158910Y70710D01*
X162879D01*
X166847D01*
X166776Y71254D01*
X166373Y72228D01*
X165732Y73063D01*
X164896Y73704D01*
X164502Y73867D01*
X164430Y74182D01*
X164560Y75955D01*
X165186Y76214D01*
X166141Y76947D01*
X166834Y77850D01*
X170251D01*
Y75693D01*
X175954D01*
X182408Y69239D01*
Y61937D01*
X182278Y61744D01*
X180851Y60741D01*
X180408Y60626D01*
X179924Y60690D01*
X176577D01*
X175858Y60595D01*
X175187Y60317D01*
X175139Y60281D01*
X158361D01*
X156349Y62292D01*
Y79436D01*
X158349Y79567D01*
X158422Y79016D01*
D02*
G37*
G36*
X186508Y45237D02*
Y16042D01*
X182581Y12114D01*
X177725D01*
X176960Y13962D01*
X179927Y16929D01*
X180440Y17698D01*
X180621Y18605D01*
Y20222D01*
X180643Y20225D01*
X181314Y20503D01*
X181889Y20945D01*
X182331Y21520D01*
X182609Y22191D01*
X182703Y22910D01*
X182609Y23630D01*
X182331Y24300D01*
X181889Y24876D01*
Y25945D01*
X182331Y26520D01*
X182609Y27191D01*
X182703Y27910D01*
X182609Y28630D01*
X182331Y29300D01*
X181889Y29876D01*
Y30945D01*
X182331Y31520D01*
X182609Y32191D01*
X182703Y32910D01*
X182609Y33630D01*
X182331Y34300D01*
X181889Y34876D01*
Y35945D01*
X182331Y36520D01*
X182609Y37191D01*
X182703Y37910D01*
X182609Y38630D01*
X182331Y39300D01*
X181889Y39876D01*
Y40945D01*
X182331Y41520D01*
X182609Y42191D01*
X182703Y42910D01*
X182613Y43595D01*
X182610Y43635D01*
X183217Y45266D01*
X184665Y46137D01*
X186508Y45237D01*
D02*
G37*
%LPC*%
G36*
X174927Y70181D02*
Y67216D01*
X177892D01*
X177837Y67630D01*
X177485Y68481D01*
X176924Y69213D01*
X176193Y69774D01*
X175341Y70126D01*
X174927Y70181D01*
D02*
G37*
G36*
X173927D02*
X173514Y70126D01*
X172662Y69774D01*
X171931Y69213D01*
X171370Y68481D01*
X171018Y67630D01*
X170963Y67216D01*
X173927D01*
Y70181D01*
D02*
G37*
G36*
X166847Y69710D02*
X163379D01*
Y66242D01*
X163923Y66313D01*
X164896Y66716D01*
X165732Y67357D01*
X166373Y68193D01*
X166776Y69166D01*
X166847Y69710D01*
D02*
G37*
G36*
X162379D02*
X158910D01*
X158982Y69166D01*
X159385Y68193D01*
X160026Y67357D01*
X160862Y66716D01*
X161835Y66313D01*
X162379Y66242D01*
Y69710D01*
D02*
G37*
G36*
X177892Y66216D02*
X174927D01*
Y63252D01*
X175341Y63306D01*
X176193Y63659D01*
X176924Y64220D01*
X177485Y64951D01*
X177837Y65803D01*
X177892Y66216D01*
D02*
G37*
G36*
X173927D02*
X170963D01*
X171018Y65803D01*
X171370Y64951D01*
X171931Y64220D01*
X172662Y63659D01*
X173514Y63306D01*
X173927Y63252D01*
Y66216D01*
D02*
G37*
%LPD*%
D12*
X44882Y17815D02*
Y63386D01*
Y17815D02*
X52953Y9744D01*
X39567Y17421D02*
Y72638D01*
Y17421D02*
X51870Y5118D01*
X50295Y18602D02*
Y53248D01*
X55118Y13780D02*
X173425D01*
X50295Y18602D02*
X55118Y13780D01*
X178250Y18605D02*
Y22910D01*
X173425Y13780D02*
X178250Y18605D01*
X188879Y15060D02*
Y53510D01*
X183563Y9744D02*
X188879Y15060D01*
X52953Y9744D02*
X183563D01*
X192979Y11680D02*
Y51210D01*
X186417Y5118D02*
X192979Y11680D01*
X51870Y5118D02*
X186417D01*
X74379Y99810D02*
X81179Y106610D01*
X107679Y100116D02*
X114173Y106610D01*
X141279Y101235D02*
X146653Y106610D01*
X153979Y99172D02*
X161417Y106610D01*
X174779Y101271D02*
X180118Y106610D01*
X208179Y101206D02*
X213583Y106610D01*
X241879Y100458D02*
X248031Y106610D01*
X275479Y101266D02*
X280512Y106299D01*
X308379Y102670D02*
X312008Y106299D01*
X268890D02*
X320866D01*
X268579Y106610D02*
X268890Y106299D01*
X62489Y80221D02*
X74379D01*
X95679Y80210D02*
X107668D01*
X129489Y80221D02*
X141279D01*
X162889D02*
X174779D01*
X196289D02*
X208179D01*
X229989D02*
X241879D01*
X263268Y80020D02*
X275479D01*
X296389Y80221D02*
X308379D01*
X208179Y50510D02*
Y80221D01*
X205479Y47910D02*
X208079Y50510D01*
X199707Y47910D02*
X205479D01*
X146579Y42910D02*
X178250D01*
X107668Y42020D02*
Y80210D01*
X107569Y42020D02*
X111479Y38110D01*
X178250D01*
X74379Y35710D02*
Y80221D01*
X74279Y35710D02*
X77179Y32810D01*
X178250D01*
X199707Y42910D02*
X238179D01*
X241679Y46410D01*
X241779D02*
Y80221D01*
X199707Y37910D02*
X272279D01*
X275379Y41010D01*
X275479D02*
Y80020D01*
X199707Y32910D02*
X305279D01*
X308279Y35910D01*
X308379D02*
Y80221D01*
X178250Y47910D02*
X182479D01*
X184679Y50110D01*
X184779D02*
Y70221D01*
X174779Y80221D02*
X184779Y70221D01*
X141279Y48210D02*
X146579Y42910D01*
X141279Y48210D02*
Y80221D01*
X74379Y94000D02*
Y99810D01*
X107679Y94000D02*
Y100116D01*
X141279Y94000D02*
Y101235D01*
X174779Y94000D02*
Y101271D01*
X208179Y94000D02*
Y101206D01*
X241879Y94000D02*
Y100458D01*
X275479Y93800D02*
Y101266D01*
X308379Y94000D02*
Y102670D01*
X153979Y61310D02*
Y99172D01*
Y61310D02*
X157379Y57910D01*
X178250D01*
X194679Y52910D02*
X199707D01*
X192979Y51210D02*
X194679Y52910D01*
X193279Y57910D02*
X199707D01*
X188879Y53510D02*
X193279Y57910D01*
X69390Y106610D02*
X81179D01*
X114173D01*
X146653D01*
X161417D01*
X180118D01*
X213583D01*
X248031D01*
X268579D01*
X44252Y107500D02*
X55610D01*
D14*
X30606Y33366D02*
D03*
Y43209D02*
D03*
Y53051D02*
D03*
Y62894D02*
D03*
Y72736D02*
D03*
Y82579D02*
D03*
D15*
X296379Y70210D02*
D03*
Y80210D02*
D03*
Y90210D02*
D03*
X263079Y70210D02*
D03*
Y80210D02*
D03*
Y90210D02*
D03*
X229979Y70210D02*
D03*
Y80210D02*
D03*
Y90210D02*
D03*
X196279Y70210D02*
D03*
Y80210D02*
D03*
Y90210D02*
D03*
X162879Y70210D02*
D03*
Y80210D02*
D03*
Y90210D02*
D03*
X129479Y70210D02*
D03*
Y80210D02*
D03*
Y90210D02*
D03*
X95679Y70210D02*
D03*
Y80210D02*
D03*
Y90210D02*
D03*
X62479Y70210D02*
D03*
Y80210D02*
D03*
Y90210D02*
D03*
D16*
X11811Y11811D02*
D03*
Y106299D02*
D03*
X342520D02*
D03*
Y11811D02*
D03*
D17*
X44980Y62992D02*
D03*
X39567Y72835D02*
D03*
X50295Y53248D02*
D03*
X174427Y66716D02*
D03*
X31102Y8465D02*
D03*
X95669Y50787D02*
D03*
X296457Y51181D02*
D03*
X27500Y97500D02*
D03*
X320866Y106299D02*
D03*
D18*
X199707Y57910D02*
D03*
Y52910D02*
D03*
Y47910D02*
D03*
Y42910D02*
D03*
Y37910D02*
D03*
Y32910D02*
D03*
Y27910D02*
D03*
Y22910D02*
D03*
X178250Y57910D02*
D03*
Y52910D02*
D03*
Y47910D02*
D03*
Y42910D02*
D03*
Y37910D02*
D03*
Y32910D02*
D03*
Y27910D02*
D03*
Y22910D02*
D03*
D19*
X55610Y107500D02*
D03*
X69390D02*
D03*
X30472Y107500D02*
D03*
X44252D02*
D03*
D20*
X74379Y94000D02*
D03*
Y80221D02*
D03*
X107679Y94000D02*
D03*
Y80221D02*
D03*
X141279Y94000D02*
D03*
Y80221D02*
D03*
X174779Y94000D02*
D03*
Y80221D02*
D03*
X208179Y94000D02*
D03*
Y80221D02*
D03*
X241879Y94000D02*
D03*
Y80221D02*
D03*
X275479Y93800D02*
D03*
Y80020D02*
D03*
X308379Y94000D02*
D03*
Y80221D02*
D03*
M02*
