G04 Layer_Color=16711935*
%FSLAX25Y25*%
%MOIN*%
G70*
G01*
G75*
%ADD25O,0.08800X0.06800*%
%ADD26C,0.06800*%
%ADD27C,0.21745*%
%ADD28C,0.05800*%
%ADD29O,0.06509X0.03162*%
%ADD30R,0.06706X0.06706*%
%ADD31R,0.06706X0.06706*%
D25*
X30606Y33366D02*
D03*
Y43209D02*
D03*
Y53051D02*
D03*
Y62894D02*
D03*
Y72736D02*
D03*
Y82579D02*
D03*
D26*
X296379Y70210D02*
D03*
Y80210D02*
D03*
Y90210D02*
D03*
X263079Y70210D02*
D03*
Y80210D02*
D03*
Y90210D02*
D03*
X229979Y70210D02*
D03*
Y80210D02*
D03*
Y90210D02*
D03*
X196279Y70210D02*
D03*
Y80210D02*
D03*
Y90210D02*
D03*
X162879Y70210D02*
D03*
Y80210D02*
D03*
Y90210D02*
D03*
X129479Y70210D02*
D03*
Y80210D02*
D03*
Y90210D02*
D03*
X95679Y70210D02*
D03*
Y80210D02*
D03*
Y90210D02*
D03*
X62479Y70210D02*
D03*
Y80210D02*
D03*
Y90210D02*
D03*
D27*
X11811Y11811D02*
D03*
Y106299D02*
D03*
X342520D02*
D03*
Y11811D02*
D03*
D28*
X44980Y62992D02*
D03*
X39567Y72835D02*
D03*
X50295Y53248D02*
D03*
X174427Y66716D02*
D03*
X31102Y8465D02*
D03*
X95669Y50787D02*
D03*
X296457Y51181D02*
D03*
X27500Y97500D02*
D03*
X320866Y106299D02*
D03*
D29*
X199707Y57910D02*
D03*
Y52910D02*
D03*
Y47910D02*
D03*
Y42910D02*
D03*
Y37910D02*
D03*
Y32910D02*
D03*
Y27910D02*
D03*
Y22910D02*
D03*
X178250Y57910D02*
D03*
Y52910D02*
D03*
Y47910D02*
D03*
Y42910D02*
D03*
Y37910D02*
D03*
Y32910D02*
D03*
Y27910D02*
D03*
Y22910D02*
D03*
D30*
X55610Y107500D02*
D03*
X69390D02*
D03*
X30472Y107500D02*
D03*
X44252D02*
D03*
D31*
X74379Y94000D02*
D03*
Y80221D02*
D03*
X107679Y94000D02*
D03*
Y80221D02*
D03*
X141279Y94000D02*
D03*
Y80221D02*
D03*
X174779Y94000D02*
D03*
Y80221D02*
D03*
X208179Y94000D02*
D03*
Y80221D02*
D03*
X241879Y94000D02*
D03*
Y80221D02*
D03*
X275479Y93800D02*
D03*
Y80020D02*
D03*
X308379Y94000D02*
D03*
Y80221D02*
D03*
M02*
