G04 Layer_Color=16711935*
%FSLAX25Y25*%
%MOIN*%
G70*
G01*
G75*
%ADD30R,0.06706X0.06706*%
%ADD32O,0.10642X0.08674*%
%ADD33C,0.08674*%
%ADD34O,0.06800X0.08800*%
%ADD35C,0.21745*%
%ADD36C,0.08800*%
%ADD37C,0.06800*%
%ADD38O,0.20485X0.24422*%
%ADD39C,0.14186*%
%ADD40O,0.08800X0.06800*%
%ADD41C,0.05800*%
%ADD42O,0.09855X0.03162*%
D30*
X27500Y176890D02*
D03*
Y163110D02*
D03*
D32*
X67638Y96614D02*
D03*
Y7638D02*
D03*
D33*
Y52638D02*
D03*
X92500Y105000D02*
D03*
X122500Y95000D02*
D03*
X135000Y105000D02*
D03*
X165000Y95000D02*
D03*
D34*
X144843Y27500D02*
D03*
X135000D02*
D03*
X112343D02*
D03*
X102500D02*
D03*
D35*
X11811Y342520D02*
D03*
X169291D02*
D03*
X11811Y11811D02*
D03*
X169291Y11811D02*
D03*
D36*
X122500Y45000D02*
D03*
X92500D02*
D03*
X165000D02*
D03*
X135000D02*
D03*
D37*
X137500Y125000D02*
D03*
X147500D02*
D03*
X157500D02*
D03*
X90000Y133000D02*
D03*
X100000D02*
D03*
X110000D02*
D03*
X62500Y317500D02*
D03*
Y307500D02*
D03*
Y297500D02*
D03*
Y287500D02*
D03*
Y277500D02*
D03*
Y267500D02*
D03*
Y257500D02*
D03*
Y247500D02*
D03*
Y237500D02*
D03*
Y227500D02*
D03*
Y217500D02*
D03*
Y207500D02*
D03*
X122500D02*
D03*
Y217500D02*
D03*
Y227500D02*
D03*
Y237500D02*
D03*
Y247500D02*
D03*
Y257500D02*
D03*
Y267500D02*
D03*
Y277500D02*
D03*
Y287500D02*
D03*
Y297500D02*
D03*
Y307500D02*
D03*
Y317500D02*
D03*
D38*
X37500Y43031D02*
D03*
Y71969D02*
D03*
D39*
X12500Y70000D02*
D03*
Y45000D02*
D03*
D40*
X27500Y132815D02*
D03*
Y142657D02*
D03*
Y152500D02*
D03*
X152500Y267028D02*
D03*
Y257185D02*
D03*
Y247342D02*
D03*
Y237500D02*
D03*
Y317028D02*
D03*
Y307185D02*
D03*
Y297342D02*
D03*
Y287500D02*
D03*
X27500Y237972D02*
D03*
Y247815D02*
D03*
Y257658D02*
D03*
Y267500D02*
D03*
Y287972D02*
D03*
Y297815D02*
D03*
Y307658D02*
D03*
Y317500D02*
D03*
X152500Y214213D02*
D03*
Y204370D02*
D03*
Y194528D02*
D03*
Y184685D02*
D03*
Y174843D02*
D03*
Y165000D02*
D03*
X27500Y195315D02*
D03*
Y205157D02*
D03*
Y215000D02*
D03*
D41*
X145000Y317500D02*
D03*
Y270000D02*
D03*
X52500Y287500D02*
D03*
X35000D02*
D03*
X145000Y215000D02*
D03*
X37500Y237500D02*
D03*
X125000Y147500D02*
D03*
X45000Y132500D02*
D03*
X39370Y196850D02*
D03*
D42*
X47087Y147500D02*
D03*
Y152500D02*
D03*
Y157500D02*
D03*
Y162500D02*
D03*
Y167500D02*
D03*
Y172500D02*
D03*
Y177500D02*
D03*
Y182500D02*
D03*
Y187500D02*
D03*
Y192500D02*
D03*
X82913Y147500D02*
D03*
Y152500D02*
D03*
Y157500D02*
D03*
Y162500D02*
D03*
Y167500D02*
D03*
Y172500D02*
D03*
Y177500D02*
D03*
Y182500D02*
D03*
Y187500D02*
D03*
Y192500D02*
D03*
M02*
