G04 Layer_Color=32896*
%FSLAX25Y25*%
%MOIN*%
G70*
G01*
G75*
%ADD27C,0.01000*%
%ADD28C,0.00787*%
%ADD43C,0.00984*%
%ADD44C,0.02362*%
D27*
X84905Y332501D02*
X83905Y333501D01*
Y335500D01*
X84905Y336500D01*
X88903D01*
X89903Y335500D01*
Y333501D01*
X88903Y332501D01*
X85904Y329502D02*
Y327503D01*
X86904Y326503D01*
X89903D01*
Y329502D01*
X88903Y330502D01*
X87904Y329502D01*
Y326503D01*
X85904Y324504D02*
X89903D01*
X87904D01*
X86904Y323504D01*
X85904Y322504D01*
Y321505D01*
X84905Y317506D02*
X85904D01*
Y318506D01*
Y316507D01*
Y317506D01*
X88903D01*
X89903Y316507D01*
Y310508D02*
Y312508D01*
X88903Y313507D01*
X86904D01*
X85904Y312508D01*
Y310508D01*
X86904Y309509D01*
X87904D01*
Y313507D01*
X84905Y297513D02*
X83905Y298512D01*
Y300512D01*
X84905Y301511D01*
X88903D01*
X89903Y300512D01*
Y298512D01*
X88903Y297513D01*
X89903Y295513D02*
Y293514D01*
Y294514D01*
X85904D01*
Y295513D01*
X83905Y290515D02*
X89903D01*
Y287516D01*
X88903Y286516D01*
X87904D01*
X86904D01*
X85904Y287516D01*
Y290515D01*
X89903Y284517D02*
Y282518D01*
Y283517D01*
X83905D01*
Y284517D01*
X89903Y276519D02*
Y278519D01*
X88903Y279518D01*
X86904D01*
X85904Y278519D01*
Y276519D01*
X86904Y275520D01*
X87904D01*
Y279518D01*
X86904Y267522D02*
Y263524D01*
X89903Y251528D02*
Y255526D01*
X85904Y251528D01*
X84905D01*
X83905Y252527D01*
Y254526D01*
X84905Y255526D01*
Y249528D02*
X83905Y248529D01*
Y246529D01*
X84905Y245529D01*
X88903D01*
X89903Y246529D01*
Y248529D01*
X88903Y249528D01*
X84905D01*
X89903Y243530D02*
Y241531D01*
Y242530D01*
X83905D01*
X84905Y243530D01*
X88903Y238532D02*
X89903Y237532D01*
Y235533D01*
X88903Y234533D01*
X84905D01*
X83905Y235533D01*
Y237532D01*
X84905Y238532D01*
X85904D01*
X86904Y237532D01*
Y234533D01*
X83905Y226536D02*
X87904D01*
X89903Y224536D01*
X87904Y222537D01*
X83905D01*
X89903Y216539D02*
Y220537D01*
X85904Y216539D01*
X84905D01*
X83905Y217538D01*
Y219538D01*
X84905Y220537D01*
X94502Y332501D02*
X93503Y333501D01*
Y335500D01*
X94502Y336500D01*
X95502D01*
X96502Y335500D01*
Y333501D01*
X97501Y332501D01*
X98501D01*
X99501Y333501D01*
Y335500D01*
X98501Y336500D01*
X95502Y330502D02*
X98501D01*
X99501Y329502D01*
Y326503D01*
X95502D01*
X101500Y324504D02*
X95502D01*
Y321505D01*
X96502Y320505D01*
X98501D01*
X99501Y321505D01*
Y324504D01*
X95502Y317506D02*
Y315507D01*
X96502Y314507D01*
X99501D01*
Y317506D01*
X98501Y318506D01*
X97501Y317506D01*
Y314507D01*
X99501Y309509D02*
Y311508D01*
X98501Y312508D01*
X96502D01*
X95502Y311508D01*
Y309509D01*
X96502Y308509D01*
X97501D01*
Y312508D01*
X95502Y306510D02*
X99501D01*
X97501D01*
X96502Y305510D01*
X95502Y304510D01*
Y303511D01*
X99501Y299512D02*
Y297513D01*
X98501Y296513D01*
X96502D01*
X95502Y297513D01*
Y299512D01*
X96502Y300512D01*
X98501D01*
X99501Y299512D01*
Y288515D02*
X93503D01*
Y285517D01*
X94502Y284517D01*
X96502D01*
X97501Y285517D01*
Y288515D01*
Y286516D02*
X99501Y284517D01*
Y281518D02*
Y279518D01*
X98501Y278519D01*
X96502D01*
X95502Y279518D01*
Y281518D01*
X96502Y282518D01*
X98501D01*
X99501Y281518D01*
X93503Y276519D02*
X99501D01*
Y273520D01*
X98501Y272521D01*
X97501D01*
X96502D01*
X95502Y273520D01*
Y276519D01*
X99501Y269522D02*
Y267522D01*
X98501Y266523D01*
X96502D01*
X95502Y267522D01*
Y269522D01*
X96502Y270521D01*
X98501D01*
X99501Y269522D01*
X94502Y263524D02*
X95502D01*
Y264523D01*
Y262524D01*
Y263524D01*
X98501D01*
X99501Y262524D01*
Y259525D02*
Y257526D01*
Y258525D01*
X95502D01*
Y259525D01*
X99501Y254526D02*
X93503D01*
X97501D02*
X95502Y251528D01*
X97501Y254526D02*
X99501Y251528D01*
X94502Y238532D02*
X93503Y239531D01*
Y241531D01*
X94502Y242530D01*
X98501D01*
X99501Y241531D01*
Y239531D01*
X98501Y238532D01*
X99501Y236532D02*
Y234533D01*
Y235533D01*
X93503D01*
Y236532D01*
X95502Y231534D02*
X98501D01*
X99501Y230534D01*
Y227535D01*
X95502D01*
X93503Y225536D02*
X99501D01*
Y222537D01*
X98501Y221537D01*
X97501D01*
X96502D01*
X95502Y222537D01*
Y225536D01*
X20000Y175000D02*
X14002D01*
Y172001D01*
X15002Y171001D01*
X17001D01*
X18001Y172001D01*
Y175000D01*
Y173001D02*
X20000Y171001D01*
X15002Y169002D02*
X14002Y168002D01*
Y166003D01*
X15002Y165003D01*
X16001D01*
X17001Y166003D01*
Y167003D01*
Y166003D01*
X18001Y165003D01*
X19000D01*
X20000Y166003D01*
Y168002D01*
X19000Y169002D01*
X70000Y143498D02*
Y138500D01*
X69000Y137500D01*
X67001D01*
X66001Y138500D01*
Y143498D01*
X64002Y137500D02*
X62003D01*
X63002D01*
Y143498D01*
X64002Y142498D01*
D28*
X22972Y158583D02*
Y166063D01*
X32028Y158583D02*
Y166063D01*
X22972Y158583D02*
X32028D01*
X24547Y182598D02*
X30453D01*
X22972Y173937D02*
Y180630D01*
X30453Y182598D02*
X32028Y180630D01*
X22972D02*
X24547Y182598D01*
X32028Y173937D02*
Y180630D01*
X53189Y144409D02*
Y195591D01*
X76811Y144409D02*
Y195591D01*
X53189Y144409D02*
X76811D01*
X53189Y195591D02*
X76811D01*
D43*
X47579Y144153D02*
X46841Y144580D01*
Y143727D01*
X47579Y144153D01*
D44*
X58307Y148346D02*
X57862Y149270D01*
X56863Y149498D01*
X56062Y148859D01*
Y147834D01*
X56863Y147195D01*
X57862Y147423D01*
X58307Y148346D01*
M02*
