G04 Layer_Color=65535*
%FSLAX25Y25*%
%MOIN*%
G70*
G01*
G75*
%ADD27C,0.01000*%
%ADD28C,0.00787*%
D27*
X22284Y342520D02*
X22236Y343515D01*
X22094Y344502D01*
X21859Y345470D01*
X21533Y346412D01*
X21119Y347318D01*
X20621Y348182D01*
X20043Y348993D01*
X19390Y349746D01*
X18669Y350434D01*
X17886Y351050D01*
X17047Y351589D01*
X16161Y352046D01*
X15236Y352416D01*
X14280Y352697D01*
X13301Y352886D01*
X12309Y352980D01*
X11313D01*
X10321Y352886D01*
X9342Y352697D01*
X8386Y352416D01*
X7461Y352046D01*
X6575Y351589D01*
X5736Y351050D01*
X4953Y350434D01*
X4232Y349746D01*
X3579Y348993D01*
X3001Y348182D01*
X2503Y347318D01*
X2089Y346412D01*
X1763Y345470D01*
X1528Y344502D01*
X1386Y343515D01*
X1339Y342520D01*
X1386Y341524D01*
X1528Y340538D01*
X1763Y339569D01*
X2089Y338628D01*
X2503Y337721D01*
X3001Y336858D01*
X3579Y336046D01*
X4232Y335293D01*
X4953Y334605D01*
X5736Y333989D01*
X6575Y333450D01*
X7461Y332994D01*
X8386Y332623D01*
X9342Y332343D01*
X10321Y332154D01*
X11313Y332059D01*
X12309D01*
X13301Y332154D01*
X14280Y332343D01*
X15236Y332623D01*
X16161Y332994D01*
X17047Y333450D01*
X17886Y333989D01*
X18669Y334605D01*
X19390Y335293D01*
X20043Y336046D01*
X20621Y336858D01*
X21119Y337721D01*
X21533Y338628D01*
X21859Y339569D01*
X22094Y340538D01*
X22236Y341524D01*
X22284Y342520D01*
X179764D02*
X179716Y343515D01*
X179575Y344502D01*
X179340Y345470D01*
X179014Y346412D01*
X178600Y347318D01*
X178101Y348182D01*
X177523Y348993D01*
X176871Y349746D01*
X176149Y350434D01*
X175366Y351050D01*
X174528Y351589D01*
X173642Y352046D01*
X172716Y352416D01*
X171760Y352697D01*
X170782Y352886D01*
X169790Y352980D01*
X168793D01*
X167801Y352886D01*
X166822Y352697D01*
X165866Y352416D01*
X164941Y352046D01*
X164055Y351589D01*
X163217Y351050D01*
X162433Y350434D01*
X161712Y349746D01*
X161059Y348993D01*
X160481Y348182D01*
X159983Y347318D01*
X159569Y346412D01*
X159243Y345470D01*
X159008Y344502D01*
X158866Y343515D01*
X158819Y342520D01*
X158866Y341524D01*
X159008Y340538D01*
X159243Y339569D01*
X159569Y338628D01*
X159983Y337721D01*
X160481Y336858D01*
X161059Y336046D01*
X161712Y335293D01*
X162433Y334605D01*
X163217Y333989D01*
X164055Y333450D01*
X164941Y332994D01*
X165866Y332623D01*
X166822Y332343D01*
X167801Y332154D01*
X168793Y332059D01*
X169790D01*
X170782Y332154D01*
X171760Y332343D01*
X172717Y332623D01*
X173642Y332994D01*
X174528Y333450D01*
X175366Y333989D01*
X176149Y334605D01*
X176871Y335293D01*
X177523Y336046D01*
X178101Y336858D01*
X178600Y337721D01*
X179014Y338628D01*
X179340Y339569D01*
X179575Y340538D01*
X179716Y341524D01*
X179764Y342520D01*
X22284Y11811D02*
X22236Y12807D01*
X22094Y13793D01*
X21859Y14762D01*
X21533Y15703D01*
X21119Y16610D01*
X20621Y17473D01*
X20043Y18285D01*
X19390Y19038D01*
X18669Y19726D01*
X17886Y20342D01*
X17047Y20880D01*
X16161Y21337D01*
X15236Y21708D01*
X14280Y21988D01*
X13301Y22177D01*
X12309Y22272D01*
X11313D01*
X10321Y22177D01*
X9342Y21988D01*
X8386Y21708D01*
X7461Y21337D01*
X6575Y20880D01*
X5736Y20342D01*
X4953Y19726D01*
X4232Y19038D01*
X3579Y18285D01*
X3001Y17473D01*
X2503Y16610D01*
X2089Y15703D01*
X1763Y14762D01*
X1528Y13793D01*
X1386Y12807D01*
X1339Y11811D01*
X1386Y10816D01*
X1528Y9829D01*
X1763Y8861D01*
X2089Y7919D01*
X2503Y7012D01*
X3001Y6149D01*
X3579Y5337D01*
X4232Y4584D01*
X4953Y3897D01*
X5736Y3280D01*
X6575Y2742D01*
X7461Y2285D01*
X8386Y1915D01*
X9342Y1634D01*
X10321Y1445D01*
X11313Y1350D01*
X12309D01*
X13301Y1445D01*
X14280Y1634D01*
X15236Y1915D01*
X16161Y2285D01*
X17047Y2742D01*
X17886Y3280D01*
X18669Y3897D01*
X19390Y4584D01*
X20043Y5337D01*
X20621Y6149D01*
X21119Y7012D01*
X21533Y7919D01*
X21859Y8861D01*
X22094Y9829D01*
X22236Y10816D01*
X22284Y11811D01*
X179764Y11811D02*
X179716Y12807D01*
X179575Y13793D01*
X179340Y14761D01*
X179014Y15703D01*
X178600Y16610D01*
X178101Y17473D01*
X177523Y18285D01*
X176871Y19038D01*
X176149Y19726D01*
X175366Y20342D01*
X174528Y20880D01*
X173642Y21337D01*
X172716Y21708D01*
X171760Y21988D01*
X170782Y22177D01*
X169790Y22272D01*
X168793D01*
X167801Y22177D01*
X166822Y21988D01*
X165866Y21708D01*
X164941Y21337D01*
X164055Y20880D01*
X163217Y20342D01*
X162433Y19726D01*
X161712Y19038D01*
X161059Y18285D01*
X160481Y17473D01*
X159983Y16610D01*
X159569Y15703D01*
X159243Y14761D01*
X159008Y13793D01*
X158866Y12807D01*
X158819Y11811D01*
X158866Y10816D01*
X159008Y9829D01*
X159243Y8861D01*
X159569Y7919D01*
X159983Y7012D01*
X160481Y6149D01*
X161059Y5337D01*
X161712Y4584D01*
X162433Y3897D01*
X163217Y3280D01*
X164055Y2742D01*
X164941Y2285D01*
X165866Y1915D01*
X166822Y1634D01*
X167801Y1445D01*
X168793Y1350D01*
X169790D01*
X170782Y1445D01*
X171760Y1634D01*
X172717Y1915D01*
X173642Y2285D01*
X174528Y2742D01*
X175366Y3280D01*
X176149Y3897D01*
X176871Y4584D01*
X177523Y5337D01*
X178101Y6149D01*
X178600Y7012D01*
X179014Y7919D01*
X179340Y8861D01*
X179575Y9829D01*
X179716Y10816D01*
X179764Y11811D01*
X118287Y324941D02*
Y342657D01*
X120256Y344626D01*
X137972D01*
Y324941D02*
Y344626D01*
X118287Y324941D02*
X137972D01*
X83287D02*
Y342657D01*
X85256Y344626D01*
X102972D01*
Y324941D02*
Y344626D01*
X83287Y324941D02*
X102972D01*
X48287D02*
Y342657D01*
X50256Y344626D01*
X67972D01*
Y324941D02*
Y344626D01*
X48287Y324941D02*
X67972D01*
X55138Y2638D02*
X80138D01*
Y102638D01*
X55138D02*
X80138D01*
X55138Y2638D02*
Y102638D01*
X125157Y1516D02*
Y32421D01*
Y1516D02*
X154685D01*
Y32421D01*
X125157D02*
X154685D01*
X92658Y1516D02*
Y32421D01*
Y1516D02*
X122185D01*
Y32421D01*
X92658D02*
X122185D01*
X87450Y39200D02*
Y110800D01*
Y39200D02*
X127550D01*
Y110800D01*
X87450D02*
X127550D01*
X129950Y39200D02*
Y110800D01*
Y39200D02*
X170050D01*
Y110800D01*
X129950D02*
X170050D01*
X125413Y117126D02*
X171476D01*
X125413Y117126D02*
Y147047D01*
Y147047D02*
X171476D01*
Y117126D02*
Y147047D01*
X1516Y162146D02*
X32618D01*
X1516Y123169D02*
Y162146D01*
Y123169D02*
X32618D01*
Y162146D01*
X147579Y227658D02*
X178484D01*
Y276870D01*
X147579D02*
X178484D01*
X147579Y227658D02*
Y276870D01*
Y277658D02*
X178484D01*
Y326870D01*
X147579D02*
X178484D01*
X147579Y277658D02*
Y326870D01*
X1516Y277343D02*
X32421D01*
X1516Y228130D02*
Y277343D01*
Y228130D02*
X32421D01*
Y277343D01*
X1516Y327343D02*
X32421D01*
X1516Y278130D02*
Y327343D01*
Y278130D02*
X32421D01*
Y327343D01*
X147579Y155157D02*
X178484D01*
Y223563D01*
X147579D02*
X178484D01*
X147579Y155157D02*
Y223563D01*
X76500Y117000D02*
X123000D01*
Y146843D01*
X122921Y146921D02*
X123000Y146843D01*
X76500Y146921D02*
X122921D01*
X76500Y117000D02*
Y146921D01*
X1516Y224646D02*
X32618D01*
X1516Y185669D02*
Y224646D01*
Y185669D02*
X32618D01*
Y224646D01*
X57500Y322500D02*
X67500D01*
Y202500D02*
Y322500D01*
X57500Y202500D02*
Y322500D01*
Y202500D02*
X67500D01*
X117500D02*
X127500D01*
Y322500D01*
X117500D02*
X127500D01*
X117500Y202500D02*
Y322500D01*
X93500Y34000D02*
Y37999D01*
X95499Y39998D01*
X97499Y37999D01*
Y34000D01*
Y36999D01*
X93500D01*
X103497Y37999D02*
X100498D01*
X99498Y36999D01*
Y35000D01*
X100498Y34000D01*
X103497D01*
X106496Y38998D02*
Y37999D01*
X105496D01*
X107495D01*
X106496D01*
Y35000D01*
X107495Y34000D01*
X110494D02*
X112494D01*
X111494D01*
Y37999D01*
X110494D01*
X116493Y34000D02*
X118492D01*
X119492Y35000D01*
Y36999D01*
X118492Y37999D01*
X116493D01*
X115493Y36999D01*
Y35000D01*
X116493Y34000D01*
X121491D02*
Y37999D01*
X124490D01*
X125490Y36999D01*
Y34000D01*
X40329Y160394D02*
X34331D01*
Y157395D01*
X35330Y156395D01*
X39329D01*
X40329Y157395D01*
Y160394D01*
X38329Y154396D02*
X35330D01*
X34331Y153396D01*
Y150397D01*
X33331D01*
X32331Y151397D01*
Y152396D01*
X34331Y150397D02*
X38329D01*
X34331Y148398D02*
X38329D01*
Y145399D01*
X37330Y144399D01*
X34331D01*
X38329Y141400D02*
Y139400D01*
X37330Y138401D01*
X34331D01*
Y141400D01*
X35330Y142400D01*
X36330Y141400D01*
Y138401D01*
X34331Y136401D02*
X38329D01*
Y135402D01*
X37330Y134402D01*
X34331D01*
X37330D01*
X38329Y133402D01*
X37330Y132403D01*
X34331D01*
X55737Y112136D02*
X51738D01*
Y109137D01*
X53737D01*
X51738D01*
Y106138D01*
X57736D02*
X59735D01*
X58736D01*
Y112136D01*
X57736Y111136D01*
X125551Y40270D02*
Y34272D01*
X129550D01*
X132549D02*
X134548D01*
X135548Y35271D01*
Y37271D01*
X134548Y38270D01*
X132549D01*
X131549Y37271D01*
Y35271D01*
X132549Y34272D01*
X139547Y32272D02*
X140546D01*
X141546Y33272D01*
Y38270D01*
X138547D01*
X137547Y37271D01*
Y35271D01*
X138547Y34272D01*
X141546D01*
X143545D02*
X145545D01*
X144545D01*
Y38270D01*
X143545D01*
X152542D02*
X149543D01*
X148544Y37271D01*
Y35271D01*
X149543Y34272D01*
X152542D01*
X140671Y283093D02*
X139671Y282094D01*
Y280094D01*
X140671Y279095D01*
X141671D01*
X142670Y280094D01*
Y282094D01*
X143670Y283093D01*
X144670D01*
X145669Y282094D01*
Y280094D01*
X144670Y279095D01*
X145669Y285092D02*
Y287092D01*
Y286092D01*
X139671D01*
X140671Y285092D01*
Y234412D02*
X139671Y233412D01*
Y231413D01*
X140671Y230413D01*
X141671D01*
X142670Y231413D01*
Y233412D01*
X143670Y234412D01*
X144670D01*
X145669Y233412D01*
Y231413D01*
X144670Y230413D01*
X145669Y240410D02*
Y236411D01*
X141671Y240410D01*
X140671D01*
X139671Y239410D01*
Y237411D01*
X140671Y236411D01*
X40372Y321375D02*
X41372Y322375D01*
Y324374D01*
X40372Y325374D01*
X39373D01*
X38373Y324374D01*
Y322375D01*
X37373Y321375D01*
X36374D01*
X35374Y322375D01*
Y324374D01*
X36374Y325374D01*
X40372Y319376D02*
X41372Y318376D01*
Y316377D01*
X40372Y315377D01*
X39373D01*
X38373Y316377D01*
Y317377D01*
Y316377D01*
X37373Y315377D01*
X36374D01*
X35374Y316377D01*
Y318376D01*
X36374Y319376D01*
X40372Y271375D02*
X41372Y272375D01*
Y274374D01*
X40372Y275374D01*
X39373D01*
X38373Y274374D01*
Y272375D01*
X37373Y271375D01*
X36374D01*
X35374Y272375D01*
Y274374D01*
X36374Y275374D01*
X35374Y266377D02*
X41372D01*
X38373Y269376D01*
Y265377D01*
X138628Y157126D02*
Y159125D01*
Y158126D01*
X144626D01*
Y157126D01*
Y159125D01*
X139628Y166123D02*
X138628Y165123D01*
Y163124D01*
X139628Y162124D01*
X140627D01*
X141627Y163124D01*
Y165123D01*
X142627Y166123D01*
X143626D01*
X144626Y165123D01*
Y163124D01*
X143626Y162124D01*
X138628Y168122D02*
X144626D01*
Y171122D01*
X143626Y172121D01*
X142627D01*
X141627Y171122D01*
Y168122D01*
Y171122D01*
X140627Y172121D01*
X139628D01*
X138628Y171122D01*
Y168122D01*
X40998Y225000D02*
X35000D01*
Y221001D01*
X40998Y215003D02*
Y219002D01*
X35000D01*
Y215003D01*
X37999Y219002D02*
Y217003D01*
X40998Y213004D02*
X35000D01*
Y210005D01*
X36000Y209005D01*
X39998D01*
X40998Y210005D01*
Y213004D01*
X35000Y207006D02*
Y204007D01*
X36000Y203007D01*
X36999Y204007D01*
Y206006D01*
X37999Y207006D01*
X38999Y206006D01*
Y203007D01*
X58038Y332036D02*
Y327038D01*
X59038Y326038D01*
X61037D01*
X62037Y327038D01*
Y332036D01*
X64036Y331036D02*
X65035Y332036D01*
X67035D01*
X68035Y331036D01*
Y327038D01*
X67035Y326038D01*
X65035D01*
X64036Y327038D01*
Y331036D01*
X65002Y22999D02*
Y19000D01*
X68001D01*
Y20999D01*
Y19000D01*
X71000D01*
X65002Y24998D02*
X70000D01*
X71000Y25998D01*
Y27997D01*
X70000Y28997D01*
X65002D01*
X66002Y34995D02*
X65002Y33995D01*
Y31996D01*
X66002Y30996D01*
X67001D01*
X68001Y31996D01*
Y33995D01*
X69001Y34995D01*
X70000D01*
X71000Y33995D01*
Y31996D01*
X70000Y30996D01*
X65002Y40993D02*
Y36994D01*
X71000D01*
Y40993D01*
X68001Y36994D02*
Y38993D01*
X103999Y185998D02*
X100000D01*
Y182999D01*
X101999Y183999D01*
X102999D01*
X103999Y182999D01*
Y181000D01*
X102999Y180000D01*
X101000D01*
X100000Y181000D01*
X105998Y185998D02*
Y181999D01*
X107997Y180000D01*
X109997Y181999D01*
Y185998D01*
X111996Y179000D02*
X115995D01*
X117994Y185998D02*
Y180000D01*
X121993D01*
X47500Y140000D02*
X49499D01*
X48500D01*
Y145998D01*
X47500Y144998D01*
X56497Y140000D02*
X52498D01*
X56497Y143999D01*
Y144998D01*
X55497Y145998D01*
X53498D01*
X52498Y144998D01*
X58496Y145998D02*
Y141999D01*
X60496Y140000D01*
X62495Y141999D01*
Y145998D01*
X64495Y139000D02*
X68493D01*
X70493Y140000D02*
Y143999D01*
X72492Y145998D01*
X74491Y143999D01*
Y140000D01*
Y142999D01*
X70493D01*
D28*
X119528Y153583D02*
Y161063D01*
X110472Y153583D02*
Y161063D01*
Y153583D02*
X119528D01*
X112047Y177598D02*
X117953D01*
X119528Y168937D02*
Y175630D01*
X110472D02*
X112047Y177598D01*
X117953D02*
X119528Y175630D01*
X110472Y168937D02*
Y175630D01*
X100472Y168937D02*
Y176417D01*
X109528Y168937D02*
Y176417D01*
X100472D02*
X109528D01*
X102047Y152402D02*
X107953D01*
X100472Y154370D02*
Y161063D01*
X107953Y152402D02*
X109528Y154370D01*
X100472D02*
X102047Y152402D01*
X109528Y154370D02*
Y161063D01*
X63937Y127028D02*
X71417D01*
X63937Y117972D02*
X71417D01*
Y127028D01*
X47402Y119547D02*
Y125453D01*
X49370Y127028D02*
X56063D01*
X47402Y119547D02*
X49370Y117972D01*
X47402Y125453D02*
X49370Y127028D01*
X49370Y117972D02*
X56063D01*
X48583Y127972D02*
X56063D01*
X48583Y137028D02*
X56063D01*
X48583Y127972D02*
Y137028D01*
X72598Y129547D02*
Y135453D01*
X63937Y127972D02*
X70630D01*
Y137028D02*
X72598Y135453D01*
X70630Y127972D02*
X72598Y129547D01*
X63937Y137028D02*
X70630D01*
M02*
