M48
;Layer_Color=9474304
;FILE_FORMAT=2:5
INCH,TZ
;TYPE=PLATED
T1F00S00C0.02800
T2F00S00C0.03000
T3F00S00C0.03150
T4F00S00C0.04331
T5F00S00C0.05906
T6F00S00C0.11811
T7F00S00C0.12598
T8F00S00C0.13386
;TYPE=NON_PLATED
T9F00S00C0.12598
%
T01
X125000Y147500
X45000Y132500
X39370Y196850
X37500Y237500
X35000Y287500
X52500
X145000Y270000
Y317500
Y215000
T02
X90000Y133000
X100000
X110000
X137500Y125000
X147500
X157500
T03
X102500Y27500
X112343
X135000
X144843
X152500Y165000
Y174843
Y184685
Y194528
Y204370
X122500Y207500
X62500
X27500Y205157
Y195315
Y152500
Y142657
Y132815
Y215000
Y237972
Y247815
Y257658
Y267500
Y287972
Y297815
Y307658
Y317500
X62500
Y307500
Y297500
Y287500
Y277500
Y267500
Y257500
Y247500
Y237500
Y227500
Y217500
X122500
Y227500
Y237500
Y247500
Y257500
Y267500
Y277500
Y287500
Y297500
Y307500
Y317500
X152500Y317028
Y307185
Y297342
Y287500
Y267028
Y257185
Y247342
Y237500
Y214213
T04
X92500Y45000
X122500
X135000
X165000
Y95000
X135000Y105000
X122500Y95000
X92500Y105000
T05
X67638Y7638
Y96614
T06
X67638Y52638
T07
X37500Y45000
Y70000
T08
X12500Y45000
Y70000
T09
X11811Y11811
X169291Y11811
X11811Y342520
X169291
M30
