G04 Layer_Physical_Order=2*
G04 Layer_Color=16711680*
%FSLAX25Y25*%
%MOIN*%
G70*
G01*
G75*
%ADD11R,0.05906X0.05906*%
%ADD13C,0.01969*%
%ADD14C,0.07874*%
%ADD15O,0.09843X0.07874*%
%ADD16C,0.07874*%
%ADD17O,0.06000X0.08000*%
%ADD18C,0.20945*%
%ADD19C,0.08000*%
%ADD20C,0.06000*%
%ADD21O,0.19685X0.23622*%
%ADD22C,0.13386*%
%ADD23O,0.08000X0.06000*%
%ADD24C,0.05000*%
%ADD25O,0.09055X0.02362*%
%ADD26C,0.03937*%
G36*
X161995Y353850D02*
X161348Y353453D01*
X159735Y352076D01*
X158358Y350463D01*
X157250Y348655D01*
X156439Y346696D01*
X155944Y344634D01*
X155777Y342520D01*
X155944Y340406D01*
X156439Y338344D01*
X157250Y336384D01*
X158358Y334576D01*
X159695Y333011D01*
X159641Y332707D01*
X159569Y332511D01*
X132500D01*
X132185Y332470D01*
X131870Y332511D01*
X43130D01*
X41833Y332341D01*
X40624Y331840D01*
X39586Y331044D01*
X34114Y325571D01*
X33318Y324533D01*
X32817Y323325D01*
X32689Y322354D01*
X32043D01*
X31850Y322513D01*
X30807Y323070D01*
X29676Y323413D01*
X28500Y323529D01*
X26500D01*
X25324Y323413D01*
X24193Y323070D01*
X23151Y322513D01*
X22957Y322354D01*
X17343D01*
X16046Y322183D01*
X14837Y321683D01*
X13799Y320886D01*
X11456Y318544D01*
X10660Y317506D01*
X10159Y316297D01*
X9989Y315000D01*
Y272500D01*
Y180000D01*
X10159Y178703D01*
X10660Y177494D01*
X11456Y176456D01*
X14567Y173346D01*
X15605Y172550D01*
X16813Y172049D01*
X18110Y171878D01*
X21547D01*
Y170937D01*
X33453D01*
Y182843D01*
X21547D01*
Y181901D01*
X20186D01*
X20011Y182076D01*
Y204723D01*
X20511Y204747D01*
X20587Y203981D01*
X20930Y202850D01*
X21487Y201808D01*
X22237Y200894D01*
X23151Y200145D01*
X24193Y199587D01*
X24691Y199436D01*
X24717Y198906D01*
X24483Y198809D01*
X23647Y198168D01*
X23006Y197332D01*
X22603Y196359D01*
X22597Y196315D01*
X27500D01*
X32403D01*
X32397Y196359D01*
X31994Y197332D01*
X31353Y198168D01*
X30517Y198809D01*
X30283Y198906D01*
X30309Y199436D01*
X30807Y199587D01*
X31850Y200145D01*
X32763Y200894D01*
X32964Y201139D01*
X60158D01*
X61198Y201276D01*
X61829Y201537D01*
X62500Y201471D01*
X63676Y201587D01*
X64807Y201930D01*
X65481Y202290D01*
X65981Y201991D01*
Y154165D01*
X63335Y151519D01*
X54900D01*
X54571Y151895D01*
X54650Y152500D01*
X54507Y153592D01*
X54085Y154609D01*
X53785Y155000D01*
X54085Y155391D01*
X54507Y156409D01*
X54650Y157500D01*
X54507Y158591D01*
X54085Y159609D01*
X53785Y160000D01*
X54085Y160391D01*
X54507Y161408D01*
X54650Y162500D01*
X54507Y163592D01*
X54085Y164609D01*
X53785Y165000D01*
X54085Y165391D01*
X54507Y166409D01*
X54650Y167500D01*
X54507Y168591D01*
X54085Y169609D01*
X53785Y170000D01*
X54085Y170391D01*
X54507Y171408D01*
X54650Y172500D01*
X54507Y173591D01*
X54085Y174609D01*
X53785Y175000D01*
X54085Y175391D01*
X54507Y176409D01*
X54650Y177500D01*
X54507Y178592D01*
X54085Y179609D01*
X53785Y180000D01*
X54085Y180391D01*
X54507Y181409D01*
X54650Y182500D01*
X54507Y183591D01*
X54085Y184609D01*
X53785Y185000D01*
X54085Y185391D01*
X54507Y186408D01*
X54650Y187500D01*
X54507Y188592D01*
X54085Y189609D01*
X53415Y190482D01*
X52542Y191152D01*
X52436Y191500D01*
X51702D01*
X51525Y191574D01*
X50433Y191717D01*
X47087D01*
X43740D01*
X42649Y191574D01*
X42471Y191500D01*
X41737D01*
X41632Y191152D01*
X40758Y190482D01*
X40088Y189609D01*
X39667Y188592D01*
X39523Y187500D01*
X39667Y186408D01*
X40088Y185391D01*
X40388Y185000D01*
X40088Y184609D01*
X39667Y183591D01*
X39523Y182500D01*
X39667Y181409D01*
X40088Y180391D01*
X40388Y180000D01*
X40088Y179609D01*
X39667Y178592D01*
X39523Y177500D01*
X39667Y176409D01*
X40088Y175391D01*
X40388Y175000D01*
X40088Y174609D01*
X39667Y173591D01*
X39523Y172500D01*
X39667Y171408D01*
X40088Y170391D01*
X40388Y170000D01*
X40088Y169609D01*
X39667Y168591D01*
X39523Y167500D01*
X39667Y166409D01*
X40088Y165391D01*
X40388Y165000D01*
X40088Y164609D01*
X39667Y163592D01*
X39523Y162500D01*
X39667Y161408D01*
X40088Y160391D01*
X40388Y160000D01*
X40088Y159609D01*
X39667Y158591D01*
X39523Y157500D01*
X39603Y156895D01*
X39273Y156519D01*
X33330D01*
X33228Y156658D01*
X33453Y157158D01*
X33453D01*
Y169063D01*
X21547D01*
Y157158D01*
X21995D01*
X22150Y156658D01*
X21487Y155850D01*
X20930Y154807D01*
X20587Y153676D01*
X20471Y152500D01*
X20587Y151324D01*
X20930Y150193D01*
X21487Y149151D01*
X22237Y148237D01*
X22462Y148052D01*
X22438Y147425D01*
X21704Y146530D01*
X21060Y145325D01*
X20978Y145055D01*
X20930Y144965D01*
X20587Y143834D01*
X20471Y142657D01*
X20587Y141481D01*
X20930Y140350D01*
X20978Y140260D01*
X21060Y139990D01*
X21704Y138785D01*
X22571Y137729D01*
X23627Y136862D01*
X24072Y136624D01*
X24121Y136031D01*
X23647Y135668D01*
X23006Y134832D01*
X22603Y133859D01*
X22597Y133815D01*
X27500D01*
Y132815D01*
X28500D01*
Y128780D01*
X29544Y128918D01*
X30517Y129321D01*
X31353Y129962D01*
X31994Y130798D01*
X32397Y131771D01*
X32437Y132071D01*
X32910Y132232D01*
X37571Y127571D01*
X37946Y127264D01*
X38627Y126704D01*
X39832Y126060D01*
X41140Y125663D01*
X42500Y125529D01*
X89500D01*
X90180Y125596D01*
X90860Y125663D01*
X92168Y126060D01*
X93373Y126704D01*
X94429Y127571D01*
X94929Y128071D01*
X95796Y129127D01*
X96413Y130282D01*
X96742Y130391D01*
X96933Y130426D01*
X97147Y130147D01*
X97983Y129506D01*
X98956Y129103D01*
X99000Y129097D01*
Y133000D01*
Y136903D01*
X98956Y136897D01*
X97983Y136494D01*
X97147Y135853D01*
X96933Y135574D01*
X96742Y135609D01*
X96413Y135718D01*
X95796Y136873D01*
X94929Y137929D01*
X93873Y138796D01*
X92668Y139440D01*
X91360Y139837D01*
X90000Y139971D01*
X88640Y139837D01*
X87433Y139471D01*
X45387D01*
X41495Y143363D01*
X41778Y143787D01*
X42649Y143427D01*
X43740Y143283D01*
X50433D01*
X51525Y143427D01*
X51657Y143481D01*
X65000D01*
X66040Y143618D01*
X67009Y144020D01*
X67842Y144658D01*
X71665Y148481D01*
X75100D01*
X75429Y148105D01*
X75350Y147500D01*
X75493Y146408D01*
X75915Y145391D01*
X76585Y144518D01*
X77458Y143848D01*
X78475Y143427D01*
X79567Y143283D01*
X86260D01*
X87351Y143427D01*
X87484Y143481D01*
X121202D01*
X122226Y142696D01*
X123564Y142142D01*
X125000Y141953D01*
X126436Y142142D01*
X127774Y142696D01*
X128798Y143481D01*
X153335D01*
X153481Y143335D01*
Y129464D01*
X153237Y129263D01*
X152487Y128349D01*
X151930Y127307D01*
X151712Y126590D01*
X151182Y126564D01*
X150994Y127017D01*
X150353Y127853D01*
X149517Y128494D01*
X148544Y128897D01*
X148500Y128903D01*
Y125000D01*
Y121097D01*
X148544Y121103D01*
X149517Y121506D01*
X150353Y122147D01*
X150994Y122983D01*
X151182Y123436D01*
X151712Y123410D01*
X151930Y122693D01*
X152487Y121651D01*
X153237Y120737D01*
X154150Y119987D01*
X155193Y119430D01*
X156324Y119087D01*
X157500Y118971D01*
X158676Y119087D01*
X159807Y119430D01*
X160849Y119987D01*
X160852Y119989D01*
X167500D01*
X168797Y120159D01*
X170006Y120660D01*
X171044Y121456D01*
X173544Y123956D01*
X174340Y124994D01*
X174841Y126203D01*
X175011Y127500D01*
Y319370D01*
X174841Y320667D01*
X174340Y321876D01*
X173544Y322914D01*
X167805Y328652D01*
X168015Y329106D01*
X169291Y329006D01*
X171405Y329172D01*
X173467Y329667D01*
X175427Y330479D01*
X177235Y331587D01*
X178847Y332964D01*
X180225Y334576D01*
X180621Y335224D01*
X181102Y335088D01*
Y19243D01*
X180621Y19107D01*
X180225Y19754D01*
X178847Y21367D01*
X177235Y22744D01*
X175427Y23852D01*
X173467Y24664D01*
X171405Y25159D01*
X169291Y25325D01*
X167177Y25159D01*
X165115Y24664D01*
X163156Y23852D01*
X161348Y22744D01*
X159735Y21367D01*
X158358Y19754D01*
X157250Y17946D01*
X156439Y15987D01*
X155944Y13925D01*
X155777Y11811D01*
X155944Y9697D01*
X156439Y7635D01*
X157250Y5676D01*
X158358Y3868D01*
X159735Y2255D01*
X161348Y878D01*
X161995Y481D01*
X161860Y-0D01*
X19243D01*
X19107Y481D01*
X19754Y878D01*
X21367Y2255D01*
X22744Y3868D01*
X23852Y5676D01*
X24664Y7635D01*
X25159Y9697D01*
X25325Y11811D01*
X25159Y13925D01*
X24664Y15987D01*
X23852Y17946D01*
X22744Y19754D01*
X21367Y21367D01*
X19754Y22744D01*
X17946Y23852D01*
X15987Y24664D01*
X13925Y25159D01*
X11811Y25325D01*
X9697Y25159D01*
X7635Y24664D01*
X5676Y23852D01*
X3868Y22744D01*
X2255Y21367D01*
X878Y19754D01*
X481Y19107D01*
X0Y19243D01*
X0Y335088D01*
X481Y335224D01*
X878Y334576D01*
X2255Y332964D01*
X3868Y331587D01*
X5676Y330479D01*
X7635Y329667D01*
X9697Y329172D01*
X11811Y329006D01*
X13925Y329172D01*
X15987Y329667D01*
X17946Y330479D01*
X19754Y331587D01*
X21367Y332964D01*
X22744Y334576D01*
X23852Y336384D01*
X24664Y338344D01*
X25159Y340406D01*
X25325Y342520D01*
X25159Y344634D01*
X24664Y346696D01*
X23852Y348655D01*
X22744Y350463D01*
X21367Y352076D01*
X19754Y353453D01*
X19107Y353850D01*
X19243Y354331D01*
X161860D01*
X161995Y353850D01*
D02*
G37*
G36*
X164989Y317294D02*
Y292511D01*
X157813D01*
X157645Y292982D01*
X157763Y293079D01*
X158513Y293993D01*
X159070Y295035D01*
X159413Y296166D01*
X159529Y297342D01*
X159413Y298519D01*
X159070Y299650D01*
X158513Y300692D01*
X157763Y301606D01*
X157266Y302014D01*
Y302514D01*
X157763Y302922D01*
X158513Y303836D01*
X159070Y304878D01*
X159413Y306009D01*
X159529Y307185D01*
X159413Y308361D01*
X159070Y309492D01*
X158513Y310535D01*
X157763Y311448D01*
X156850Y312198D01*
X155807Y312755D01*
X155309Y312906D01*
X155283Y313437D01*
X155517Y313534D01*
X156353Y314175D01*
X156994Y315010D01*
X157397Y315983D01*
X157403Y316028D01*
X152500D01*
Y317028D01*
X151500D01*
Y321062D01*
X150456Y320925D01*
X149483Y320522D01*
X148647Y319880D01*
X148431Y319599D01*
X147801Y319599D01*
X147496Y319996D01*
X146765Y320557D01*
X146000Y320874D01*
Y317500D01*
Y314126D01*
X146765Y314443D01*
X147474Y314987D01*
X147550Y315030D01*
X148069Y314929D01*
X148647Y314175D01*
X149483Y313534D01*
X149717Y313437D01*
X149691Y312906D01*
X149193Y312755D01*
X148151Y312198D01*
X147237Y311448D01*
X146778Y310889D01*
X127481D01*
X126763Y311763D01*
X126170Y312250D01*
Y312750D01*
X126763Y313237D01*
X127513Y314151D01*
X128070Y315193D01*
X128413Y316324D01*
X128413Y316326D01*
X134576Y322489D01*
X159794D01*
X164989Y317294D01*
D02*
G37*
G36*
X20587Y296639D02*
X20930Y295508D01*
X21487Y294465D01*
X22237Y293552D01*
X23151Y292802D01*
X24193Y292245D01*
X24691Y292094D01*
X24717Y291563D01*
X24483Y291466D01*
X23647Y290825D01*
X23006Y289990D01*
X22603Y289017D01*
X22597Y288972D01*
X27500D01*
Y287972D01*
X28500D01*
Y283938D01*
X29544Y284075D01*
X30517Y284478D01*
X31353Y285120D01*
X31569Y285401D01*
X32199Y285401D01*
X32504Y285004D01*
X33235Y284443D01*
X34086Y284090D01*
X35000Y283970D01*
X35481Y284033D01*
X35981Y283596D01*
Y270000D01*
X36118Y268960D01*
X36520Y267991D01*
X37158Y267158D01*
X39658Y264658D01*
X40491Y264020D01*
X41460Y263618D01*
X42500Y263481D01*
X58036D01*
X58237Y263237D01*
X58830Y262750D01*
Y262250D01*
X58237Y261763D01*
X58165Y261676D01*
X32964D01*
X32763Y261921D01*
X32266Y262329D01*
Y262829D01*
X32763Y263237D01*
X33513Y264151D01*
X34070Y265193D01*
X34413Y266324D01*
X34529Y267500D01*
X34413Y268676D01*
X34070Y269807D01*
X33513Y270849D01*
X32763Y271763D01*
X31850Y272513D01*
X30807Y273070D01*
X29676Y273413D01*
X28500Y273529D01*
X26500D01*
X25324Y273413D01*
X24193Y273070D01*
X23151Y272513D01*
X23148Y272511D01*
X22076D01*
X20011Y274576D01*
Y297380D01*
X20511Y297405D01*
X20587Y296639D01*
D02*
G37*
G36*
X147734Y292671D02*
Y292171D01*
X147237Y291763D01*
X146487Y290849D01*
X145930Y289807D01*
X145587Y288676D01*
X145471Y287500D01*
X145587Y286324D01*
X145930Y285193D01*
X146487Y284151D01*
X147237Y283237D01*
X148151Y282487D01*
X149193Y281930D01*
X150324Y281587D01*
X151500Y281471D01*
X153500D01*
X154676Y281587D01*
X155807Y281930D01*
X156850Y282487D01*
X156851Y282489D01*
X162924D01*
X164989Y280424D01*
Y242511D01*
X157813D01*
X157645Y242982D01*
X157763Y243079D01*
X158513Y243993D01*
X159070Y245035D01*
X159413Y246166D01*
X159529Y247342D01*
X159413Y248519D01*
X159070Y249650D01*
X158513Y250692D01*
X157763Y251606D01*
X157266Y252014D01*
Y252514D01*
X157763Y252922D01*
X158513Y253836D01*
X159070Y254878D01*
X159413Y256009D01*
X159529Y257185D01*
X159413Y258361D01*
X159070Y259492D01*
X158513Y260535D01*
X157763Y261448D01*
X156850Y262198D01*
X155807Y262755D01*
X155309Y262906D01*
X155283Y263437D01*
X155517Y263534D01*
X156353Y264175D01*
X156994Y265010D01*
X157397Y265983D01*
X157403Y266028D01*
X152500D01*
Y267028D01*
X151500D01*
Y271062D01*
X150456Y270925D01*
X149483Y270522D01*
X149013Y270161D01*
X148480Y270382D01*
X148410Y270914D01*
X148057Y271765D01*
X147496Y272496D01*
X146765Y273057D01*
X146000Y273374D01*
Y270000D01*
Y266626D01*
X146765Y266943D01*
X146971Y267101D01*
X147114Y267079D01*
X147487Y266866D01*
X147603Y265983D01*
X148006Y265010D01*
X148647Y264175D01*
X149483Y263534D01*
X149717Y263437D01*
X149691Y262906D01*
X149193Y262755D01*
X148151Y262198D01*
X147323Y261519D01*
X139165D01*
X139019Y261665D01*
Y284370D01*
X138882Y285410D01*
X138480Y286379D01*
X137842Y287212D01*
X134712Y290342D01*
X133879Y290980D01*
X132910Y291382D01*
X131870Y291519D01*
X126964D01*
X126763Y291763D01*
X126452Y292018D01*
X126427Y292655D01*
X126628Y292851D01*
X147514D01*
X147734Y292671D01*
D02*
G37*
G36*
X129658Y244658D02*
X130491Y244020D01*
X131460Y243618D01*
X132500Y243481D01*
X146907D01*
X147237Y243079D01*
X147734Y242671D01*
Y242171D01*
X147237Y241763D01*
X146487Y240849D01*
X145930Y239807D01*
X145587Y238676D01*
X145471Y237500D01*
X145587Y236324D01*
X145930Y235193D01*
X146487Y234151D01*
X147237Y233237D01*
X148151Y232487D01*
X149193Y231930D01*
X150324Y231587D01*
X151500Y231471D01*
X153500D01*
X154676Y231587D01*
X155807Y231930D01*
X156850Y232487D01*
X156851Y232489D01*
X162924D01*
X164989Y230424D01*
Y209381D01*
X156851D01*
X156850Y209383D01*
X155807Y209940D01*
X155309Y210091D01*
X155283Y210622D01*
X155517Y210719D01*
X156353Y211360D01*
X156994Y212195D01*
X157397Y213168D01*
X157403Y213213D01*
X152500D01*
Y214213D01*
X151500D01*
Y218247D01*
X150456Y218110D01*
X149483Y217707D01*
X148647Y217065D01*
X148505Y216880D01*
X147922Y216941D01*
X147496Y217496D01*
X146765Y218057D01*
X145914Y218410D01*
X145000Y218530D01*
X144519Y218467D01*
X144019Y218904D01*
Y235000D01*
X143882Y236040D01*
X143480Y237009D01*
X142842Y237842D01*
X140342Y240342D01*
X139509Y240980D01*
X138540Y241382D01*
X137500Y241519D01*
X126964D01*
X126763Y241763D01*
X126170Y242250D01*
Y242750D01*
X126763Y243237D01*
X127513Y244150D01*
X128070Y245193D01*
X128174Y245536D01*
X128659Y245657D01*
X129658Y244658D01*
D02*
G37*
G36*
X20587Y246639D02*
X20930Y245508D01*
X21487Y244465D01*
X22237Y243552D01*
X23151Y242802D01*
X24193Y242245D01*
X24691Y242094D01*
X24717Y241563D01*
X24483Y241466D01*
X23647Y240825D01*
X23006Y239990D01*
X22603Y239017D01*
X22597Y238972D01*
X27500D01*
X32403D01*
X32397Y239017D01*
X31994Y239990D01*
X31353Y240825D01*
X30517Y241466D01*
X30283Y241563D01*
X30309Y242094D01*
X30807Y242245D01*
X31850Y242802D01*
X32763Y243552D01*
X32964Y243796D01*
X57778D01*
X58237Y243237D01*
X58830Y242750D01*
Y242250D01*
X58237Y241763D01*
X57487Y240849D01*
X56930Y239807D01*
X56587Y238676D01*
X56471Y237500D01*
X56587Y236324D01*
X56930Y235193D01*
X57487Y234151D01*
X58237Y233237D01*
X58830Y232750D01*
Y232250D01*
X58237Y231763D01*
X57487Y230850D01*
X56930Y229807D01*
X56587Y228676D01*
X56471Y227500D01*
X56587Y226324D01*
X56930Y225193D01*
X57487Y224150D01*
X58237Y223237D01*
X58830Y222750D01*
Y222250D01*
X58237Y221763D01*
X57487Y220849D01*
X56930Y219807D01*
X56587Y218676D01*
X56471Y217500D01*
X56587Y216324D01*
X56930Y215193D01*
X57487Y214151D01*
X58237Y213237D01*
X58830Y212750D01*
Y212250D01*
X58237Y211763D01*
X57487Y210849D01*
X56930Y209807D01*
X56739Y209176D01*
X32964D01*
X32763Y209421D01*
X32266Y209829D01*
Y210329D01*
X32763Y210737D01*
X33513Y211650D01*
X34070Y212693D01*
X34413Y213824D01*
X34529Y215000D01*
X34413Y216176D01*
X34070Y217307D01*
X33513Y218350D01*
X32763Y219263D01*
X31850Y220013D01*
X30807Y220570D01*
X29676Y220913D01*
X28500Y221029D01*
X26500D01*
X25324Y220913D01*
X24193Y220570D01*
X23151Y220013D01*
X23148Y220011D01*
X20011D01*
Y247380D01*
X20511Y247405D01*
X20587Y246639D01*
D02*
G37*
G36*
X118547Y322018D02*
X118237Y321763D01*
X117487Y320849D01*
X116930Y319807D01*
X116587Y318676D01*
X116471Y317500D01*
X116587Y316324D01*
X116930Y315193D01*
X117487Y314151D01*
X118237Y313237D01*
X118830Y312750D01*
Y312250D01*
X118237Y311763D01*
X117487Y310849D01*
X116930Y309807D01*
X116587Y308676D01*
X116471Y307500D01*
X116587Y306324D01*
X116930Y305193D01*
X117487Y304151D01*
X118237Y303237D01*
X118830Y302750D01*
Y302250D01*
X118237Y301763D01*
X117487Y300850D01*
X116930Y299807D01*
X116587Y298676D01*
X116471Y297500D01*
X116587Y296324D01*
X116930Y295193D01*
X117487Y294150D01*
X118237Y293237D01*
X118830Y292750D01*
Y292250D01*
X118237Y291763D01*
X117487Y290849D01*
X116930Y289807D01*
X116587Y288676D01*
X116471Y287500D01*
X116587Y286324D01*
X116930Y285193D01*
X117487Y284151D01*
X118237Y283237D01*
X118830Y282750D01*
Y282250D01*
X118237Y281763D01*
X117487Y280850D01*
X116930Y279807D01*
X116587Y278676D01*
X116471Y277500D01*
X116587Y276324D01*
X116930Y275193D01*
X117487Y274150D01*
X118237Y273237D01*
X118830Y272750D01*
Y272250D01*
X118237Y271763D01*
X117487Y270849D01*
X116930Y269807D01*
X116587Y268676D01*
X116471Y267500D01*
X116587Y266324D01*
X116930Y265193D01*
X117487Y264151D01*
X118237Y263237D01*
X118830Y262750D01*
Y262250D01*
X118237Y261763D01*
X117487Y260849D01*
X116930Y259807D01*
X116587Y258676D01*
X116471Y257500D01*
X116587Y256324D01*
X116930Y255193D01*
X117487Y254151D01*
X118237Y253237D01*
X118830Y252750D01*
Y252250D01*
X118237Y251763D01*
X117487Y250850D01*
X116930Y249807D01*
X116587Y248676D01*
X116471Y247500D01*
X116587Y246324D01*
X116930Y245193D01*
X117487Y244150D01*
X118237Y243237D01*
X118830Y242750D01*
Y242250D01*
X118237Y241763D01*
X117487Y240849D01*
X116930Y239807D01*
X116587Y238676D01*
X116471Y237500D01*
X116587Y236324D01*
X116930Y235193D01*
X117487Y234151D01*
X118237Y233237D01*
X118830Y232750D01*
Y232250D01*
X118237Y231763D01*
X117487Y230850D01*
X116930Y229807D01*
X116587Y228676D01*
X116471Y227500D01*
X116587Y226324D01*
X116930Y225193D01*
X117487Y224150D01*
X118237Y223237D01*
X118830Y222750D01*
Y222250D01*
X118237Y221763D01*
X117487Y220849D01*
X116930Y219807D01*
X116587Y218676D01*
X116471Y217500D01*
X116587Y216324D01*
X116930Y215193D01*
X117487Y214151D01*
X118237Y213237D01*
X118830Y212750D01*
Y212250D01*
X118237Y211763D01*
X117487Y210849D01*
X116930Y209807D01*
X116587Y208676D01*
X116471Y207500D01*
X116587Y206324D01*
X116930Y205193D01*
X117487Y204151D01*
X118237Y203237D01*
X118481Y203036D01*
Y170000D01*
X118618Y168960D01*
X119020Y167991D01*
X119658Y167158D01*
X124658Y162158D01*
X125491Y161520D01*
X126460Y161118D01*
X127500Y160981D01*
X147036D01*
X147237Y160737D01*
X148151Y159987D01*
X149193Y159430D01*
X150324Y159087D01*
X151500Y158971D01*
X153500D01*
X154676Y159087D01*
X155807Y159430D01*
X156850Y159987D01*
X157763Y160737D01*
X158513Y161651D01*
X159070Y162693D01*
X159413Y163824D01*
X159529Y165000D01*
X159413Y166176D01*
X159070Y167307D01*
X158513Y168350D01*
X157763Y169263D01*
X157266Y169671D01*
Y170171D01*
X157763Y170579D01*
X158513Y171493D01*
X159070Y172535D01*
X159413Y173666D01*
X159529Y174843D01*
X159413Y176019D01*
X159070Y177150D01*
X158513Y178192D01*
X157763Y179106D01*
X157266Y179514D01*
Y180014D01*
X157763Y180422D01*
X158513Y181335D01*
X159070Y182378D01*
X159413Y183509D01*
X159529Y184685D01*
X159413Y185861D01*
X159070Y186992D01*
X158513Y188035D01*
X157763Y188948D01*
X157266Y189356D01*
Y189856D01*
X157763Y190264D01*
X158513Y191178D01*
X159070Y192220D01*
X159413Y193351D01*
X159529Y194528D01*
X159413Y195704D01*
X159070Y196835D01*
X158513Y197877D01*
X157763Y198791D01*
X157645Y198888D01*
X157813Y199359D01*
X162924D01*
X164989Y197294D01*
Y130011D01*
X161519D01*
Y145000D01*
X161382Y146040D01*
X160980Y147009D01*
X160342Y147842D01*
X157842Y150342D01*
X157009Y150980D01*
X156040Y151382D01*
X155000Y151519D01*
X128798D01*
X127774Y152304D01*
X126436Y152858D01*
X125000Y153048D01*
X123564Y152858D01*
X122226Y152304D01*
X121202Y151519D01*
X90727D01*
X90397Y151895D01*
X90477Y152500D01*
X90397Y153105D01*
X90727Y153481D01*
X95000D01*
X96040Y153618D01*
X97009Y154020D01*
X97842Y154658D01*
X100342Y157158D01*
X100980Y157991D01*
X101382Y158960D01*
X101519Y160000D01*
Y200000D01*
X101382Y201040D01*
X100980Y202009D01*
X100342Y202842D01*
X97842Y205342D01*
X97009Y205980D01*
X96040Y206382D01*
X95000Y206519D01*
X84165D01*
X84019Y206665D01*
Y235000D01*
X83882Y236040D01*
X83480Y237009D01*
X82842Y237842D01*
X80342Y240342D01*
X79509Y240980D01*
X78540Y241382D01*
X77500Y241519D01*
X66964D01*
X66763Y241763D01*
X66170Y242250D01*
Y242750D01*
X66763Y243237D01*
X67513Y244150D01*
X68070Y245193D01*
X68413Y246324D01*
X68529Y247500D01*
X68413Y248676D01*
X68070Y249807D01*
X67513Y250850D01*
X66763Y251763D01*
X66170Y252250D01*
Y252750D01*
X66763Y253237D01*
X67513Y254151D01*
X68070Y255193D01*
X68413Y256324D01*
X68529Y257500D01*
X68413Y258676D01*
X68070Y259807D01*
X67513Y260849D01*
X66763Y261763D01*
X66170Y262250D01*
Y262750D01*
X66763Y263237D01*
X67513Y264151D01*
X68070Y265193D01*
X68413Y266324D01*
X68529Y267500D01*
X68413Y268676D01*
X68070Y269807D01*
X67513Y270849D01*
X66763Y271763D01*
X66170Y272250D01*
Y272750D01*
X66763Y273237D01*
X67513Y274150D01*
X68070Y275193D01*
X68413Y276324D01*
X68529Y277500D01*
X68413Y278676D01*
X68070Y279807D01*
X67513Y280850D01*
X66763Y281763D01*
X66170Y282250D01*
Y282750D01*
X66763Y283237D01*
X67513Y284151D01*
X68070Y285193D01*
X68413Y286324D01*
X68529Y287500D01*
X68413Y288676D01*
X68070Y289807D01*
X67513Y290849D01*
X66763Y291763D01*
X66170Y292250D01*
Y292750D01*
X66763Y293237D01*
X67513Y294150D01*
X68070Y295193D01*
X68413Y296324D01*
X68529Y297500D01*
X68413Y298676D01*
X68070Y299807D01*
X67513Y300850D01*
X66763Y301763D01*
X66170Y302250D01*
Y302750D01*
X66763Y303237D01*
X67513Y304151D01*
X68070Y305193D01*
X68413Y306324D01*
X68529Y307500D01*
X68413Y308676D01*
X68070Y309807D01*
X67513Y310849D01*
X66763Y311763D01*
X65850Y312513D01*
X64807Y313070D01*
X64090Y313288D01*
X64064Y313818D01*
X64517Y314006D01*
X65353Y314647D01*
X65994Y315483D01*
X66397Y316456D01*
X66403Y316500D01*
X58597D01*
X58603Y316456D01*
X59006Y315483D01*
X59647Y314647D01*
X60483Y314006D01*
X60936Y313818D01*
X60910Y313288D01*
X60193Y313070D01*
X59150Y312513D01*
X58237Y311763D01*
X57487Y310849D01*
X56930Y309807D01*
X56587Y308676D01*
X56471Y307500D01*
X56587Y306324D01*
X56930Y305193D01*
X57487Y304151D01*
X58237Y303237D01*
X58830Y302750D01*
Y302250D01*
X58237Y301763D01*
X57487Y300850D01*
X56930Y299807D01*
X56587Y298676D01*
X56471Y297500D01*
X56587Y296324D01*
X56930Y295193D01*
X57487Y294150D01*
X58237Y293237D01*
X58830Y292750D01*
Y292250D01*
X58237Y291763D01*
X58036Y291519D01*
X56298D01*
X55274Y292304D01*
X53936Y292858D01*
X52500Y293047D01*
X51064Y292858D01*
X49726Y292304D01*
X49467Y292105D01*
X49019Y292326D01*
Y305000D01*
X48882Y306040D01*
X48480Y307009D01*
X47842Y307842D01*
X45184Y310499D01*
X44352Y311138D01*
X43383Y311539D01*
X42342Y311676D01*
X33302D01*
X33182Y311831D01*
X33428Y312331D01*
X35472D01*
X36770Y312502D01*
X37978Y313003D01*
X39016Y313799D01*
X41201Y315984D01*
X41997Y317022D01*
X42498Y318231D01*
X42669Y319528D01*
Y319952D01*
X45206Y322489D01*
X118379D01*
X118547Y322018D01*
D02*
G37*
%LPC*%
G36*
X40370Y200224D02*
Y197850D01*
X42744D01*
X42427Y198616D01*
X41866Y199347D01*
X41135Y199908D01*
X40370Y200224D01*
D02*
G37*
G36*
X38370D02*
X37605Y199908D01*
X36874Y199347D01*
X36313Y198616D01*
X35996Y197850D01*
X38370D01*
Y200224D01*
D02*
G37*
G36*
X50433Y194724D02*
X48087D01*
Y193500D01*
X52388D01*
X52006Y194072D01*
X51284Y194554D01*
X50433Y194724D01*
D02*
G37*
G36*
X42744Y195850D02*
X40370D01*
Y193476D01*
X41135Y193793D01*
X41637Y194178D01*
X42007Y193832D01*
X41785Y193500D01*
X46087D01*
Y194724D01*
X43740D01*
X42889Y194554D01*
X42399Y194227D01*
X42053Y194597D01*
X42427Y195085D01*
X42744Y195850D01*
D02*
G37*
G36*
X38370D02*
X35996D01*
X36313Y195085D01*
X36874Y194354D01*
X37605Y193793D01*
X38370Y193476D01*
Y195850D01*
D02*
G37*
G36*
X32403Y194315D02*
X28500D01*
Y191280D01*
X29544Y191418D01*
X30517Y191821D01*
X31353Y192462D01*
X31994Y193298D01*
X32397Y194271D01*
X32403Y194315D01*
D02*
G37*
G36*
X26500D02*
X22597D01*
X22603Y194271D01*
X23006Y193298D01*
X23647Y192462D01*
X24483Y191821D01*
X25456Y191418D01*
X26500Y191280D01*
D01*
Y194315D01*
D02*
G37*
G36*
X110000Y139971D02*
X108640Y139837D01*
X107333Y139440D01*
X106127Y138796D01*
X105071Y137929D01*
X104204Y136873D01*
X103587Y135718D01*
X103258Y135609D01*
X103067Y135574D01*
X102853Y135853D01*
X102017Y136494D01*
X101044Y136897D01*
X101000Y136903D01*
Y133000D01*
Y129097D01*
X101044Y129103D01*
X102017Y129506D01*
X102529Y129899D01*
X103029Y129652D01*
Y112887D01*
X102113Y111971D01*
X92500D01*
X91140Y111837D01*
X89833Y111440D01*
X88627Y110796D01*
X87571Y109929D01*
X86704Y108873D01*
X86060Y107668D01*
X85663Y106360D01*
X85529Y105000D01*
X85663Y103640D01*
X86060Y102332D01*
X86704Y101127D01*
X87571Y100071D01*
X88627Y99204D01*
X89833Y98560D01*
X91140Y98163D01*
X92500Y98029D01*
X105000D01*
X105680Y98096D01*
X106360Y98163D01*
X107668Y98560D01*
X108873Y99204D01*
X109929Y100071D01*
X114929Y105071D01*
X115796Y106127D01*
X116440Y107333D01*
X116837Y108640D01*
X116971Y110000D01*
Y133000D01*
X116837Y134360D01*
X116440Y135668D01*
X115796Y136873D01*
X114929Y137929D01*
X113873Y138796D01*
X112668Y139440D01*
X111360Y139837D01*
X110000Y139971D01*
D02*
G37*
G36*
X26500Y131815D02*
X22597D01*
X22603Y131771D01*
X23006Y130798D01*
X23647Y129962D01*
X24483Y129321D01*
X25456Y128918D01*
X26500Y128780D01*
D01*
Y131815D01*
D02*
G37*
G36*
X137500Y131971D02*
X136140Y131837D01*
X134833Y131440D01*
X133627Y130796D01*
X132571Y129929D01*
X130209Y127567D01*
X129342Y126510D01*
X128698Y125305D01*
X128301Y123998D01*
X128234Y123318D01*
X128167Y122638D01*
Y110138D01*
X128301Y108778D01*
X128610Y107761D01*
X128560Y107668D01*
X128163Y106360D01*
X128029Y105000D01*
X128163Y103640D01*
X128560Y102332D01*
X129204Y101127D01*
X130071Y100071D01*
X131127Y99204D01*
X132333Y98560D01*
X133640Y98163D01*
X135000Y98029D01*
X136360Y98163D01*
X137668Y98560D01*
X138873Y99204D01*
X139929Y100071D01*
X140796Y101127D01*
X141440Y102332D01*
X141837Y103640D01*
X141971Y105000D01*
X141837Y106360D01*
X141528Y107377D01*
X141578Y107470D01*
X141974Y108778D01*
X142108Y110138D01*
Y119750D01*
X142429Y120071D01*
X143296Y121127D01*
X143913Y122282D01*
X144242Y122391D01*
X144433Y122426D01*
X144647Y122147D01*
X145483Y121506D01*
X146456Y121103D01*
X146500Y121097D01*
Y125000D01*
Y128903D01*
X146456Y128897D01*
X145483Y128494D01*
X144647Y127853D01*
X144433Y127574D01*
X144242Y127609D01*
X143913Y127718D01*
X143296Y128873D01*
X142429Y129929D01*
X141373Y130796D01*
X140167Y131440D01*
X138860Y131837D01*
X137500Y131971D01*
D02*
G37*
G36*
X38500Y84734D02*
Y72969D01*
X48376D01*
Y73937D01*
X48242Y75638D01*
X47844Y77298D01*
X47191Y78875D01*
X46299Y80330D01*
X45191Y81628D01*
X43893Y82736D01*
X42438Y83628D01*
X40861Y84281D01*
X39201Y84679D01*
X38500Y84734D01*
D02*
G37*
G36*
X36500D02*
X35799Y84679D01*
X34139Y84281D01*
X32562Y83628D01*
X31107Y82736D01*
X29809Y81628D01*
X28701Y80330D01*
X27809Y78875D01*
X27156Y77298D01*
X26758Y75638D01*
X26624Y73937D01*
Y72969D01*
X36500D01*
Y84734D01*
D02*
G37*
G36*
X12500Y79740D02*
X10600Y79553D01*
X8773Y78998D01*
X7089Y78098D01*
X5613Y76887D01*
X4402Y75411D01*
X3502Y73727D01*
X2947Y71900D01*
X2760Y70000D01*
X2947Y68100D01*
X3502Y66273D01*
X4402Y64589D01*
X5613Y63113D01*
X7089Y61902D01*
X8773Y61002D01*
X10600Y60447D01*
X12500Y60260D01*
X14400Y60447D01*
X16227Y61002D01*
X17911Y61902D01*
X19387Y63113D01*
X20598Y64589D01*
X21498Y66273D01*
X22053Y68100D01*
X22240Y70000D01*
X22053Y71900D01*
X21498Y73727D01*
X20598Y75411D01*
X19387Y76887D01*
X17911Y78098D01*
X16227Y78998D01*
X14400Y79553D01*
X12500Y79740D01*
D02*
G37*
G36*
X48376Y70969D02*
X38500D01*
Y59203D01*
X39201Y59258D01*
X40861Y59656D01*
X42438Y60309D01*
X43893Y61201D01*
X45191Y62309D01*
X46299Y63607D01*
X47191Y65062D01*
X47844Y66639D01*
X48242Y68299D01*
X48376Y70000D01*
Y70969D01*
D02*
G37*
G36*
X36500D02*
X26624D01*
Y70000D01*
X26758Y68299D01*
X27156Y66639D01*
X27809Y65062D01*
X28701Y63607D01*
X29809Y62309D01*
X31107Y61201D01*
X32562Y60309D01*
X34139Y59656D01*
X35799Y59258D01*
X36500Y59203D01*
Y70969D01*
D02*
G37*
G36*
X68622Y103585D02*
X66654D01*
X65294Y103451D01*
X63986Y103054D01*
X62781Y102410D01*
X61725Y101543D01*
X60858Y100487D01*
X60214Y99282D01*
X59817Y97974D01*
X59683Y96614D01*
X59817Y95254D01*
X60214Y93947D01*
X60667Y93098D01*
Y84862D01*
X60734Y84182D01*
X60801Y83502D01*
X61198Y82195D01*
X61842Y80989D01*
X62709Y79933D01*
X67571Y75071D01*
X68627Y74204D01*
X69832Y73560D01*
X71140Y73163D01*
X71820Y73096D01*
X72500Y73029D01*
X75981D01*
Y56981D01*
X75481Y56855D01*
X75078Y57609D01*
X73965Y58965D01*
X72609Y60078D01*
X71062Y60905D01*
X69384Y61414D01*
X67638Y61586D01*
X65892Y61414D01*
X64213Y60905D01*
X62666Y60078D01*
X61310Y58965D01*
X60197Y57609D01*
X59370Y56062D01*
X58861Y54384D01*
X58689Y52638D01*
X58861Y50892D01*
X59370Y49213D01*
X60197Y47666D01*
X61310Y46310D01*
X62666Y45197D01*
X64213Y44370D01*
X65892Y43861D01*
X67638Y43689D01*
X69384Y43861D01*
X71062Y44370D01*
X72609Y45197D01*
X73965Y46310D01*
X75078Y47666D01*
X75481Y48420D01*
X75981Y48295D01*
Y22500D01*
X76118Y21460D01*
X76520Y20491D01*
X77158Y19658D01*
X82021Y14796D01*
X82853Y14158D01*
X83822Y13756D01*
X84862Y13619D01*
X142342D01*
X143383Y13756D01*
X144352Y14158D01*
X145184Y14796D01*
X145249Y14881D01*
X147684Y17316D01*
X148323Y18148D01*
X148724Y19117D01*
X148861Y20157D01*
Y22036D01*
X149106Y22237D01*
X149855Y23151D01*
X150413Y24193D01*
X150756Y25324D01*
X150872Y26500D01*
Y28500D01*
X150756Y29676D01*
X150413Y30807D01*
X149855Y31850D01*
X149106Y32763D01*
X148192Y33513D01*
X147150Y34070D01*
X146019Y34413D01*
X144843Y34529D01*
X143666Y34413D01*
X142535Y34070D01*
X141493Y33513D01*
X140579Y32763D01*
X140171Y32266D01*
X139671D01*
X139263Y32763D01*
X138349Y33513D01*
X137307Y34070D01*
X136176Y34413D01*
X135000Y34529D01*
X133824Y34413D01*
X132693Y34070D01*
X131650Y33513D01*
X130737Y32763D01*
X129987Y31850D01*
X129430Y30807D01*
X129087Y29676D01*
X128971Y28500D01*
Y26500D01*
X129087Y25324D01*
X129430Y24193D01*
X129987Y23151D01*
X130737Y22237D01*
X130870Y22127D01*
X130702Y21656D01*
X116499D01*
Y22149D01*
X116606Y22237D01*
X117356Y23151D01*
X117913Y24193D01*
X118256Y25324D01*
X118372Y26500D01*
Y28500D01*
X118256Y29676D01*
X117913Y30807D01*
X117356Y31850D01*
X116606Y32763D01*
X115692Y33513D01*
X114650Y34070D01*
X113519Y34413D01*
X112343Y34529D01*
X111166Y34413D01*
X110035Y34070D01*
X108993Y33513D01*
X108079Y32763D01*
X107671Y32266D01*
X107171D01*
X106763Y32763D01*
X105850Y33513D01*
X104807Y34070D01*
X103676Y34413D01*
X102500Y34529D01*
X101324Y34413D01*
X100193Y34070D01*
X99151Y33513D01*
X98237Y32763D01*
X97487Y31850D01*
X96930Y30807D01*
X96587Y29676D01*
X96471Y28500D01*
Y26500D01*
X96587Y25324D01*
X96930Y24193D01*
X97487Y23151D01*
X98237Y22237D01*
X98370Y22127D01*
X98202Y21656D01*
X86527D01*
X84019Y24165D01*
Y73029D01*
X157500D01*
X158180Y73096D01*
X158860Y73163D01*
X160168Y73560D01*
X161373Y74204D01*
X162429Y75071D01*
X169929Y82571D01*
X170796Y83627D01*
X171440Y84833D01*
X171837Y86140D01*
X171904Y86820D01*
X171971Y87500D01*
Y95000D01*
X171837Y96360D01*
X171440Y97667D01*
X170796Y98873D01*
X169929Y99929D01*
X168873Y100796D01*
X167667Y101440D01*
X166360Y101837D01*
X165000Y101971D01*
X163640Y101837D01*
X162332Y101440D01*
X161127Y100796D01*
X160071Y99929D01*
X159204Y98873D01*
X158560Y97667D01*
X158163Y96360D01*
X158029Y95000D01*
Y90387D01*
X154613Y86971D01*
X129791D01*
X129455Y87341D01*
X129471Y87500D01*
Y95000D01*
X129337Y96360D01*
X128940Y97667D01*
X128296Y98873D01*
X127429Y99929D01*
X126373Y100796D01*
X125168Y101440D01*
X123860Y101837D01*
X122500Y101971D01*
X121140Y101837D01*
X119833Y101440D01*
X118627Y100796D01*
X117571Y99929D01*
X116704Y98873D01*
X116060Y97667D01*
X115663Y96360D01*
X115529Y95000D01*
Y90387D01*
X112113Y86971D01*
X75387D01*
X74608Y87749D01*
Y93098D01*
X75062Y93947D01*
X75459Y95254D01*
X75593Y96614D01*
X75459Y97974D01*
X75062Y99282D01*
X74418Y100487D01*
X73551Y101543D01*
X72495Y102410D01*
X71290Y103054D01*
X69982Y103451D01*
X68622Y103585D01*
D02*
G37*
G36*
X166000Y49911D02*
Y46000D01*
X169912D01*
X169871Y46305D01*
X169368Y47522D01*
X168566Y48566D01*
X167522Y49367D01*
X166305Y49871D01*
X166000Y49911D01*
D02*
G37*
G36*
X121500D02*
X121195Y49871D01*
X119978Y49367D01*
X118934Y48566D01*
X118132Y47522D01*
X117629Y46305D01*
X117588Y46000D01*
X121500D01*
Y49911D01*
D02*
G37*
G36*
X164000D02*
X163695Y49871D01*
X162478Y49367D01*
X161434Y48566D01*
X160633Y47522D01*
X160129Y46305D01*
X160089Y46000D01*
X164000D01*
Y49911D01*
D02*
G37*
G36*
X135000Y52034D02*
X133628Y51899D01*
X132308Y51499D01*
X131092Y50849D01*
X130026Y49974D01*
X129151Y48908D01*
X128501Y47692D01*
X128101Y46372D01*
X128001Y45353D01*
X127498Y45345D01*
X127371Y46305D01*
X126867Y47522D01*
X126066Y48566D01*
X125022Y49367D01*
X123805Y49871D01*
X123500Y49911D01*
Y45000D01*
Y40088D01*
X123805Y40129D01*
X125022Y40633D01*
X126066Y41434D01*
X126867Y42478D01*
X127371Y43695D01*
X127498Y44655D01*
X128001Y44647D01*
X128101Y43628D01*
X128501Y42308D01*
X129151Y41092D01*
X130026Y40026D01*
X131092Y39151D01*
X132308Y38502D01*
X133628Y38101D01*
X135000Y37966D01*
X136372Y38101D01*
X137692Y38502D01*
X138908Y39151D01*
X139974Y40026D01*
X140849Y41092D01*
X141498Y42308D01*
X141899Y43628D01*
X142034Y45000D01*
X141899Y46372D01*
X141498Y47692D01*
X140849Y48908D01*
X139974Y49974D01*
X138908Y50849D01*
X137692Y51499D01*
X136372Y51899D01*
X135000Y52034D01*
D02*
G37*
G36*
X169912Y44000D02*
X166000D01*
Y40088D01*
X166305Y40129D01*
X167522Y40633D01*
X168566Y41434D01*
X169368Y42478D01*
X169871Y43695D01*
X169912Y44000D01*
D02*
G37*
G36*
X164000D02*
X160089D01*
X160129Y43695D01*
X160633Y42478D01*
X161434Y41434D01*
X162478Y40633D01*
X163695Y40129D01*
X164000Y40088D01*
Y44000D01*
D02*
G37*
G36*
X121500D02*
X117588D01*
X117629Y43695D01*
X118132Y42478D01*
X118934Y41434D01*
X119978Y40633D01*
X121195Y40129D01*
X121500Y40088D01*
Y44000D01*
D02*
G37*
G36*
X92500Y52034D02*
X91128Y51899D01*
X89808Y51499D01*
X88592Y50849D01*
X87526Y49974D01*
X86651Y48908D01*
X86001Y47692D01*
X85601Y46372D01*
X85466Y45000D01*
X85601Y43628D01*
X86001Y42308D01*
X86651Y41092D01*
X87526Y40026D01*
X88592Y39151D01*
X89808Y38502D01*
X91128Y38101D01*
X92500Y37966D01*
X93872Y38101D01*
X95192Y38502D01*
X96408Y39151D01*
X97474Y40026D01*
X98348Y41092D01*
X98998Y42308D01*
X99399Y43628D01*
X99534Y45000D01*
X99399Y46372D01*
X98998Y47692D01*
X98348Y48908D01*
X97474Y49974D01*
X96408Y50849D01*
X95192Y51499D01*
X93872Y51899D01*
X92500Y52034D01*
D02*
G37*
G36*
X12500Y54740D02*
X10600Y54553D01*
X8773Y53998D01*
X7089Y53098D01*
X5613Y51887D01*
X4402Y50411D01*
X3502Y48727D01*
X2947Y46900D01*
X2760Y45000D01*
X2947Y43100D01*
X3502Y41273D01*
X4402Y39589D01*
X5613Y38113D01*
X7089Y36902D01*
X8773Y36002D01*
X10600Y35447D01*
X12500Y35260D01*
X14400Y35447D01*
X16227Y36002D01*
X17911Y36902D01*
X19387Y38113D01*
X20598Y39589D01*
X21498Y41273D01*
X22053Y43100D01*
X22240Y45000D01*
X22053Y46900D01*
X21498Y48727D01*
X20598Y50411D01*
X19387Y51887D01*
X17911Y53098D01*
X16227Y53998D01*
X14400Y54553D01*
X12500Y54740D01*
D02*
G37*
G36*
X37500Y57882D02*
X35485Y57724D01*
X33519Y57252D01*
X31652Y56478D01*
X29928Y55422D01*
X28391Y54109D01*
X27078Y52572D01*
X26022Y50848D01*
X25248Y48981D01*
X24776Y47015D01*
X24618Y45000D01*
Y41063D01*
X24776Y39048D01*
X25248Y37082D01*
X26022Y35215D01*
X27078Y33491D01*
X28391Y31954D01*
X29928Y30641D01*
X30667Y30188D01*
Y12638D01*
X30734Y11958D01*
X30801Y11278D01*
X31198Y9970D01*
X31842Y8765D01*
X32709Y7709D01*
X37709Y2709D01*
X38765Y1842D01*
X39970Y1198D01*
X41278Y801D01*
X42638Y667D01*
X68622D01*
X69982Y801D01*
X71290Y1198D01*
X72495Y1842D01*
X73551Y2709D01*
X74418Y3765D01*
X75062Y4970D01*
X75459Y6278D01*
X75593Y7638D01*
X75459Y8998D01*
X75062Y10305D01*
X74418Y11511D01*
X73551Y12567D01*
X72495Y13434D01*
X71290Y14078D01*
X69982Y14474D01*
X68622Y14608D01*
X45525D01*
X44608Y15525D01*
Y30357D01*
X45072Y30641D01*
X46609Y31954D01*
X47922Y33491D01*
X48978Y35215D01*
X49752Y37082D01*
X50224Y39048D01*
X50382Y41063D01*
Y45000D01*
X50224Y47015D01*
X49752Y48981D01*
X48978Y50848D01*
X47922Y52572D01*
X46609Y54109D01*
X45072Y55422D01*
X43348Y56478D01*
X41481Y57252D01*
X39515Y57724D01*
X37500Y57882D01*
D02*
G37*
G36*
X144000Y320874D02*
X143235Y320557D01*
X142504Y319996D01*
X141943Y319265D01*
X141626Y318500D01*
X144000D01*
Y320874D01*
D02*
G37*
G36*
X153500Y321062D02*
D01*
Y318028D01*
X157403D01*
X157397Y318072D01*
X156994Y319045D01*
X156353Y319880D01*
X155517Y320522D01*
X154544Y320925D01*
X153500Y321062D01*
D02*
G37*
G36*
X144000Y316500D02*
X141626D01*
X141943Y315735D01*
X142504Y315004D01*
X143235Y314443D01*
X144000Y314126D01*
Y316500D01*
D02*
G37*
G36*
X26500Y286972D02*
X22597D01*
X22603Y286928D01*
X23006Y285955D01*
X23647Y285120D01*
X24483Y284478D01*
X25456Y284075D01*
X26500Y283938D01*
D01*
Y286972D01*
D02*
G37*
G36*
X144000Y273374D02*
X143235Y273057D01*
X142504Y272496D01*
X141943Y271765D01*
X141626Y271000D01*
X144000D01*
Y273374D01*
D02*
G37*
G36*
X153500Y271062D02*
D01*
Y268028D01*
X157403D01*
X157397Y268072D01*
X156994Y269045D01*
X156353Y269880D01*
X155517Y270522D01*
X154544Y270925D01*
X153500Y271062D01*
D02*
G37*
G36*
X144000Y269000D02*
X141626D01*
X141943Y268235D01*
X142504Y267504D01*
X143235Y266943D01*
X144000Y266626D01*
Y269000D01*
D02*
G37*
G36*
X153500Y218247D02*
D01*
Y215213D01*
X157403D01*
X157397Y215257D01*
X156994Y216230D01*
X156353Y217065D01*
X155517Y217707D01*
X154544Y218110D01*
X153500Y218247D01*
D02*
G37*
G36*
X38500Y240874D02*
Y238500D01*
X40874D01*
X40557Y239265D01*
X39996Y239996D01*
X39265Y240557D01*
X38500Y240874D01*
D02*
G37*
G36*
X36500D02*
X35735Y240557D01*
X35004Y239996D01*
X34443Y239265D01*
X34126Y238500D01*
X36500D01*
Y240874D01*
D02*
G37*
G36*
X40874Y236500D02*
X38500D01*
Y234126D01*
X39265Y234443D01*
X39996Y235004D01*
X40557Y235735D01*
X40874Y236500D01*
D02*
G37*
G36*
X36500D02*
X34126D01*
X34443Y235735D01*
X35004Y235004D01*
X35735Y234443D01*
X36500Y234126D01*
Y236500D01*
D02*
G37*
G36*
X32403Y236972D02*
X28500D01*
Y233938D01*
X29544Y234075D01*
X30517Y234478D01*
X31353Y235120D01*
X31994Y235955D01*
X32397Y236928D01*
X32403Y236972D01*
D02*
G37*
G36*
X26500D02*
X22597D01*
X22603Y236928D01*
X23006Y235955D01*
X23647Y235120D01*
X24483Y234478D01*
X25456Y234075D01*
X26500Y233938D01*
D01*
Y236972D01*
D02*
G37*
G36*
X63500Y321403D02*
Y318500D01*
X66403D01*
X66397Y318544D01*
X65994Y319517D01*
X65353Y320353D01*
X64517Y320994D01*
X63544Y321397D01*
X63500Y321403D01*
D02*
G37*
G36*
X61500D02*
X61456Y321397D01*
X60483Y320994D01*
X59647Y320353D01*
X59006Y319517D01*
X58603Y318544D01*
X58597Y318500D01*
X61500D01*
Y321403D01*
D02*
G37*
%LPD*%
D11*
X27500Y176890D02*
D03*
Y163110D02*
D03*
D13*
X110138Y17638D02*
X112480Y19980D01*
Y27638D01*
X144843Y20157D02*
Y27500D01*
X142342Y17658D02*
X144843Y20157D01*
X122500Y306870D02*
X150315D01*
X152500Y309055D01*
X150157Y296870D02*
X152500Y299213D01*
X122500Y296870D02*
X150157D01*
X80000Y22500D02*
X84862Y17638D01*
X142342D01*
X80000Y22500D02*
Y80000D01*
X52500Y287500D02*
X62500D01*
X27500Y297815D02*
X37185D01*
X40000Y295000D01*
Y270000D02*
Y295000D01*
Y270000D02*
X42500Y267500D01*
X62500D01*
X27500Y307658D02*
X42342D01*
X45000Y305000D01*
Y280000D02*
Y305000D01*
Y280000D02*
X47500Y277500D01*
X62500D01*
X27500Y257658D02*
X62343D01*
X62500Y257500D01*
X27500Y247815D02*
X62185D01*
X62500Y247500D01*
X122500Y286870D02*
X123130Y287500D01*
X131870D01*
X135000Y284370D01*
X122500Y276870D02*
X123130Y277500D01*
X126870D01*
X130000Y274370D01*
X150787Y247500D02*
X152500Y249213D01*
X150945Y257500D02*
X152500Y259055D01*
X135000Y260000D02*
Y284370D01*
Y260000D02*
X137500Y257500D01*
X150945D01*
X27500Y152500D02*
X47500D01*
X27500D02*
Y163110D01*
X47087Y152500D02*
Y157500D01*
X82913Y162500D02*
X90000D01*
X92500Y165000D01*
Y195000D01*
X90000Y197500D02*
X92500Y195000D01*
X155000Y147500D02*
X157500Y145000D01*
Y125000D02*
Y145000D01*
X82913Y157500D02*
X95000D01*
X97500Y160000D01*
Y200000D01*
X95000Y202500D02*
X97500Y200000D01*
X80000Y205000D02*
X82500Y202500D01*
X95000D01*
X62500Y237500D02*
X77500D01*
X80000Y235000D01*
Y205000D02*
Y235000D01*
X75000Y200000D02*
X77500Y197500D01*
X90000D01*
X62500Y227500D02*
X72500D01*
X75000Y225000D01*
Y200000D02*
Y225000D01*
X62500Y217500D02*
X67500D01*
X70000Y215000D01*
Y152500D02*
Y215000D01*
Y152500D02*
X82913D01*
X47087Y147500D02*
X65000D01*
X70000Y152500D01*
X122500Y170000D02*
Y207500D01*
Y170000D02*
X127500Y165000D01*
X152500D01*
X132658Y174843D02*
X152500D01*
X130000Y177500D02*
X132658Y174843D01*
X130000Y177500D02*
Y215000D01*
X127500Y217500D02*
X130000Y215000D01*
X122500Y217500D02*
X127500D01*
X137815Y184685D02*
X152500D01*
X135000Y187500D02*
X137815Y184685D01*
X135000Y187500D02*
Y225000D01*
X132500Y227500D02*
X135000Y225000D01*
X122500Y227500D02*
X132500D01*
X122500Y237500D02*
X137500D01*
X140000Y235000D01*
Y197500D02*
Y235000D01*
Y197500D02*
X142500Y195000D01*
X152028D01*
X152500Y194528D01*
X82913Y147500D02*
X125000D01*
X155000D01*
X27500Y205157D02*
X60158D01*
X62500Y207500D01*
X130000Y250000D02*
Y274370D01*
Y250000D02*
X132500Y247500D01*
X150787D01*
D14*
X37638Y12638D02*
Y45000D01*
Y12638D02*
X42638Y7638D01*
X67638D01*
X135138Y110138D02*
Y122638D01*
X137500Y125000D01*
X115000Y80000D02*
X122500Y87500D01*
Y95000D01*
X157500Y80000D02*
X165000Y87500D01*
Y95000D01*
X67638Y84862D02*
Y96614D01*
Y84862D02*
X72500Y80000D01*
X80000D01*
X115000D01*
X157500D01*
X92500Y105000D02*
X105000D01*
X110000Y110000D01*
Y133000D01*
X27500Y142657D02*
X32342D01*
X42500Y132500D01*
X89500D01*
X90000Y133000D01*
D15*
X67638Y96614D02*
D03*
Y7638D02*
D03*
D16*
Y52638D02*
D03*
X92500Y105000D02*
D03*
X122500Y95000D02*
D03*
X135000Y105000D02*
D03*
X165000Y95000D02*
D03*
D17*
X144843Y27500D02*
D03*
X135000D02*
D03*
X112343D02*
D03*
X102500D02*
D03*
D18*
X11811Y342520D02*
D03*
X169291D02*
D03*
X11811Y11811D02*
D03*
X169291Y11811D02*
D03*
D19*
X122500Y45000D02*
D03*
X92500D02*
D03*
X165000D02*
D03*
X135000D02*
D03*
D20*
X137500Y125000D02*
D03*
X147500D02*
D03*
X157500D02*
D03*
X90000Y133000D02*
D03*
X100000D02*
D03*
X110000D02*
D03*
X62500Y317500D02*
D03*
Y307500D02*
D03*
Y297500D02*
D03*
Y287500D02*
D03*
Y277500D02*
D03*
Y267500D02*
D03*
Y257500D02*
D03*
Y247500D02*
D03*
Y237500D02*
D03*
Y227500D02*
D03*
Y217500D02*
D03*
Y207500D02*
D03*
X122500D02*
D03*
Y217500D02*
D03*
Y227500D02*
D03*
Y237500D02*
D03*
Y247500D02*
D03*
Y257500D02*
D03*
Y267500D02*
D03*
Y277500D02*
D03*
Y287500D02*
D03*
Y297500D02*
D03*
Y307500D02*
D03*
Y317500D02*
D03*
D21*
X37500Y43031D02*
D03*
Y71969D02*
D03*
D22*
X12500Y70000D02*
D03*
Y45000D02*
D03*
D23*
X27500Y132815D02*
D03*
Y142657D02*
D03*
Y152500D02*
D03*
X152500Y267028D02*
D03*
Y257185D02*
D03*
Y247342D02*
D03*
Y237500D02*
D03*
Y317028D02*
D03*
Y307185D02*
D03*
Y297342D02*
D03*
Y287500D02*
D03*
X27500Y237972D02*
D03*
Y247815D02*
D03*
Y257658D02*
D03*
Y267500D02*
D03*
Y287972D02*
D03*
Y297815D02*
D03*
Y307658D02*
D03*
Y317500D02*
D03*
X152500Y214213D02*
D03*
Y204370D02*
D03*
Y194528D02*
D03*
Y184685D02*
D03*
Y174843D02*
D03*
Y165000D02*
D03*
X27500Y195315D02*
D03*
Y205157D02*
D03*
Y215000D02*
D03*
D24*
X145000Y317500D02*
D03*
Y270000D02*
D03*
X52500Y287500D02*
D03*
X35000D02*
D03*
X145000Y215000D02*
D03*
X37500Y237500D02*
D03*
X125000Y147500D02*
D03*
X45000Y132500D02*
D03*
X39370Y196850D02*
D03*
D25*
X47087Y147500D02*
D03*
Y152500D02*
D03*
Y157500D02*
D03*
Y162500D02*
D03*
Y167500D02*
D03*
Y172500D02*
D03*
Y177500D02*
D03*
Y182500D02*
D03*
Y187500D02*
D03*
Y192500D02*
D03*
X82913Y147500D02*
D03*
Y152500D02*
D03*
Y157500D02*
D03*
Y162500D02*
D03*
Y167500D02*
D03*
Y172500D02*
D03*
Y177500D02*
D03*
Y182500D02*
D03*
Y187500D02*
D03*
Y192500D02*
D03*
D26*
X152500Y237500D02*
X165000D01*
X152500Y287500D02*
X165000D01*
X170000Y127500D02*
Y319370D01*
X17343Y317342D02*
X35472D01*
X37657Y319528D02*
Y322028D01*
X35472Y317342D02*
X37657Y319528D01*
X15000Y272500D02*
X20000Y267500D01*
X27500D01*
X15000Y315000D02*
X17343Y317342D01*
X122500Y317500D02*
X132500Y327500D01*
X161870D01*
X170000Y319370D01*
X37657Y322028D02*
X43130Y327500D01*
X131870D01*
X167500Y125000D02*
X170000Y127500D01*
X157500Y125000D02*
X167500D01*
X165000Y237500D02*
X170000Y232500D01*
X165000Y287500D02*
X170000Y282500D01*
X165000Y204370D02*
X170000Y199370D01*
X152500Y204370D02*
X165000D01*
X17500Y215000D02*
X27500D01*
X15000Y272500D02*
Y315000D01*
X15610Y216890D02*
X17500Y215000D01*
X18110Y176890D02*
X27500D01*
X15000Y180000D02*
Y272500D01*
Y180000D02*
X18110Y176890D01*
M02*
